<?xml version="1.0" encoding="UTF-8"?>
<svg xmlns="http://www.w3.org/2000/svg" xmlns:xlink="http://www.w3.org/1999/xlink" width="342.15748pt" height="257.11811pt" viewBox="0 0 342.15748 257.11811" version="1.1">
<g id="surface1">
<path style="fill:none;stroke-width:0.02;stroke-linecap:butt;stroke-linejoin:miter;stroke:rgb(0%,0%,0%);stroke-opacity:1;stroke-miterlimit:10;" d="M 0.993979 1.777288 L 1.144047 1.777288 " transform="matrix(28.346457,0,0,-28.346457,1,256.11811)"/>
<path style="fill:none;stroke-width:0.02;stroke-linecap:butt;stroke-linejoin:miter;stroke:rgb(0%,0%,0%);stroke-opacity:1;stroke-miterlimit:10;" d="M 0.993979 2.942558 L 1.144047 2.942558 " transform="matrix(28.346457,0,0,-28.346457,1,256.11811)"/>
<path style="fill:none;stroke-width:0.02;stroke-linecap:butt;stroke-linejoin:miter;stroke:rgb(0%,0%,0%);stroke-opacity:1;stroke-miterlimit:10;" d="M 0.993979 4.107827 L 1.144047 4.107827 " transform="matrix(28.346457,0,0,-28.346457,1,256.11811)"/>
<path style="fill:none;stroke-width:0.02;stroke-linecap:butt;stroke-linejoin:miter;stroke:rgb(0%,0%,0%);stroke-opacity:1;stroke-miterlimit:10;" d="M 0.993979 5.273096 L 1.144047 5.273096 " transform="matrix(28.346457,0,0,-28.346457,1,256.11811)"/>
<path style="fill:none;stroke-width:0.02;stroke-linecap:butt;stroke-linejoin:miter;stroke:rgb(0%,0%,0%);stroke-opacity:1;stroke-miterlimit:10;" d="M 0.993979 6.438365 L 1.144047 6.438365 " transform="matrix(28.346457,0,0,-28.346457,1,256.11811)"/>
<path style="fill:none;stroke-width:0.02;stroke-linecap:butt;stroke-linejoin:miter;stroke:rgb(0%,0%,0%);stroke-opacity:1;stroke-miterlimit:10;" d="M 0.993979 7.603772 L 1.144047 7.603772 " transform="matrix(28.346457,0,0,-28.346457,1,256.11811)"/>
<path style="fill:none;stroke-width:0.02;stroke-linecap:round;stroke-linejoin:miter;stroke:rgb(0%,0%,0%);stroke-opacity:1;stroke-miterlimit:10;" d="M 0.993979 0.612019 L 0.993979 8.769041 " transform="matrix(28.346457,0,0,-28.346457,1,256.11811)"/>
<path style=" stroke:none;fill-rule:nonzero;fill:rgb(0%,0%,0%);fill-opacity:1;" d="M 6.941406 239.683594 L 6.941406 240.316406 L 3.972656 240.316406 L 3.972656 239.683594 Z M 6.941406 239.683594 Z M 6.941406 239.683594 "/>
<path style=" stroke:none;fill-rule:nonzero;fill:rgb(0%,0%,0%);fill-opacity:1;" d="M 10.636719 234.851562 C 11.714844 234.933594 12.429688 235.917969 12.621094 236.917969 C 12.722656 237.371094 12.746094 237.800781 12.792969 238.253906 L 12.792969 239.410156 C 12.734375 240.589844 12.453125 242.144531 11.171875 242.621094 C 10.058594 243.0625 8.753906 242.371094 8.425781 241.234375 C 8.175781 240.636719 8.15625 240.023438 8.097656 239.410156 L 8.097656 238.253906 C 8.15625 237.074219 8.402344 235.511719 9.675781 234.988281 L 9.730469 234.964844 L 9.777344 234.953125 L 9.832031 234.933594 L 10.003906 234.886719 L 10.105469 234.863281 L 10.230469 234.863281 L 10.253906 234.851562 Z M 10.636719 234.851562 Z M 10.285156 235.542969 C 9.332031 235.65625 9.050781 236.804688 8.980469 237.574219 L 8.980469 237.878906 L 8.960938 237.902344 L 8.960938 239.480469 C 9.027344 240.296875 9.085938 241.347656 9.832031 241.894531 C 10.523438 242.371094 11.441406 241.835938 11.636719 241.101562 C 11.839844 240.554688 11.886719 240.023438 11.929688 239.480469 L 11.929688 237.902344 C 11.863281 237.074219 11.75 235.917969 10.796875 235.589844 L 10.71875 235.566406 L 10.695312 235.542969 L 10.59375 235.542969 L 10.570312 235.523438 L 10.308594 235.523438 Z M 10.285156 235.542969 Z M 10.285156 235.542969 "/>
<path style=" stroke:none;fill-rule:nonzero;fill:rgb(0%,0%,0%);fill-opacity:1;" d="M 15.320312 241.585938 L 15.320312 242.496094 L 14.402344 242.496094 L 14.402344 241.585938 Z M 15.320312 241.585938 Z M 15.320312 241.585938 "/>
<path style=" stroke:none;fill-rule:nonzero;fill:rgb(0%,0%,0%);fill-opacity:1;" d="M 20.617188 235.089844 L 20.617188 239.863281 L 20.636719 239.886719 L 21.761719 239.886719 L 21.761719 240.566406 L 20.636719 240.566406 L 20.617188 240.578125 L 20.617188 242.496094 L 19.753906 242.496094 L 19.753906 240.578125 L 19.730469 240.566406 L 16.738281 240.566406 L 16.738281 239.863281 C 17.691406 238.277344 18.644531 236.679688 19.59375 235.089844 Z M 20.617188 235.089844 Z M 19.777344 235.523438 C 19.550781 236.699219 18.824219 237.710938 18.28125 238.742188 C 18.066406 239.117188 17.78125 239.523438 17.621094 239.886719 L 19.800781 239.886719 L 19.8125 239.863281 L 19.8125 235.523438 L 19.800781 235.5 Z M 19.777344 235.523438 Z M 19.777344 235.523438 "/>
<path style=" stroke:none;fill-rule:nonzero;fill:rgb(0%,0%,0%);fill-opacity:1;" d="M 6.941406 206.652344 L 6.941406 207.285156 L 3.972656 207.285156 L 3.972656 206.652344 Z M 6.941406 206.652344 Z M 6.941406 206.652344 "/>
<path style=" stroke:none;fill-rule:nonzero;fill:rgb(0%,0%,0%);fill-opacity:1;" d="M 10.636719 201.820312 C 11.714844 201.898438 12.429688 202.886719 12.621094 203.882812 C 12.722656 204.339844 12.746094 204.769531 12.792969 205.222656 L 12.792969 206.378906 C 12.734375 207.558594 12.453125 209.113281 11.171875 209.585938 C 10.058594 210.03125 8.753906 209.339844 8.425781 208.203125 C 8.175781 207.605469 8.15625 206.992188 8.097656 206.378906 L 8.097656 205.222656 C 8.15625 204.042969 8.402344 202.476562 9.675781 201.957031 L 9.730469 201.933594 L 9.777344 201.921875 L 9.832031 201.898438 L 10.003906 201.855469 L 10.105469 201.832031 L 10.230469 201.832031 L 10.253906 201.820312 Z M 10.636719 201.820312 Z M 10.285156 202.511719 C 9.332031 202.625 9.050781 203.769531 8.980469 204.542969 L 8.980469 204.847656 L 8.960938 204.871094 L 8.960938 206.445312 C 9.027344 207.261719 9.085938 208.316406 9.832031 208.863281 C 10.523438 209.339844 11.441406 208.804688 11.636719 208.070312 C 11.839844 207.523438 11.886719 206.992188 11.929688 206.445312 L 11.929688 204.871094 C 11.863281 204.042969 11.75 202.886719 10.796875 202.558594 L 10.71875 202.535156 L 10.695312 202.511719 L 10.59375 202.511719 L 10.570312 202.488281 L 10.308594 202.488281 Z M 10.285156 202.511719 Z M 10.285156 202.511719 "/>
<path style=" stroke:none;fill-rule:nonzero;fill:rgb(0%,0%,0%);fill-opacity:1;" d="M 15.320312 208.554688 L 15.320312 209.464844 L 14.402344 209.464844 L 14.402344 208.554688 Z M 15.320312 208.554688 Z M 15.320312 208.554688 "/>
<path style=" stroke:none;fill-rule:nonzero;fill:rgb(0%,0%,0%);fill-opacity:1;" d="M 19.324219 201.820312 C 20.636719 201.855469 21.679688 203.203125 21.476562 204.472656 C 21.339844 205.742188 20.152344 206.46875 19.300781 207.261719 L 18.9375 207.636719 L 18.890625 207.660156 L 18.4375 208.101562 L 18.40625 208.125 L 17.953125 208.578125 L 17.90625 208.601562 L 17.804688 208.703125 L 17.828125 208.714844 L 21.5 208.714844 L 21.5 209.464844 L 17.011719 209.464844 L 17.011719 208.78125 L 18.835938 206.957031 C 19.707031 206.199219 20.730469 205.210938 20.570312 203.964844 C 20.480469 203.238281 19.867188 202.570312 19.117188 202.511719 C 18.359375 202.398438 17.691406 203 17.519531 203.726562 L 17.496094 203.761719 L 17.476562 203.839844 L 17.371094 204.214844 L 17.363281 204.269531 C 17.203125 204.078125 17.03125 203.875 16.90625 203.65625 C 17.136719 202.726562 17.882812 201.855469 18.871094 201.820312 Z M 19.324219 201.820312 Z M 19.324219 201.820312 "/>
<path style=" stroke:none;fill-rule:nonzero;fill:rgb(0%,0%,0%);fill-opacity:1;" d="M 10.636719 168.789062 C 11.714844 168.867188 12.429688 169.855469 12.621094 170.851562 C 12.722656 171.304688 12.746094 171.738281 12.792969 172.191406 L 12.792969 173.347656 C 12.734375 174.527344 12.453125 176.078125 11.171875 176.554688 C 10.058594 177 8.753906 176.304688 8.425781 175.171875 C 8.175781 174.570312 8.15625 173.960938 8.097656 173.347656 L 8.097656 172.191406 C 8.15625 171.011719 8.402344 169.445312 9.675781 168.925781 L 9.730469 168.902344 L 9.777344 168.890625 L 9.832031 168.867188 L 10.003906 168.824219 L 10.105469 168.800781 L 10.230469 168.800781 L 10.253906 168.789062 Z M 10.636719 168.789062 Z M 10.285156 169.480469 C 9.332031 169.59375 9.050781 170.738281 8.980469 171.511719 L 8.980469 171.816406 L 8.960938 171.839844 L 8.960938 173.414062 C 9.027344 174.230469 9.085938 175.285156 9.832031 175.832031 C 10.523438 176.304688 11.441406 175.773438 11.636719 175.035156 C 11.839844 174.492188 11.886719 173.960938 11.929688 173.414062 L 11.929688 171.839844 C 11.863281 171.011719 11.75 169.855469 10.796875 169.527344 L 10.71875 169.503906 L 10.695312 169.480469 L 10.59375 169.480469 L 10.570312 169.457031 L 10.308594 169.457031 Z M 10.285156 169.480469 Z M 10.285156 169.480469 "/>
<path style=" stroke:none;fill-rule:nonzero;fill:rgb(0%,0%,0%);fill-opacity:1;" d="M 15.320312 175.523438 L 15.320312 176.429688 L 14.402344 176.429688 L 14.402344 175.523438 Z M 15.320312 175.523438 Z M 15.320312 175.523438 "/>
<path style=" stroke:none;fill-rule:nonzero;fill:rgb(0%,0%,0%);fill-opacity:1;" d="M 19.449219 168.789062 C 20.523438 168.867188 21.238281 169.855469 21.433594 170.851562 C 21.535156 171.304688 21.558594 171.738281 21.601562 172.191406 L 21.601562 173.347656 C 21.546875 174.527344 21.261719 176.078125 19.980469 176.554688 C 18.871094 177 17.566406 176.304688 17.238281 175.171875 C 16.988281 174.570312 16.964844 173.960938 16.90625 173.347656 L 16.90625 172.191406 C 16.964844 171.011719 17.214844 169.445312 18.484375 168.925781 L 18.539062 168.902344 L 18.585938 168.890625 L 18.644531 168.867188 L 18.8125 168.824219 L 18.914062 168.800781 L 19.039062 168.800781 L 19.0625 168.789062 Z M 19.449219 168.789062 Z M 19.097656 169.480469 C 18.144531 169.59375 17.859375 170.738281 17.792969 171.511719 L 17.792969 171.816406 L 17.769531 171.839844 L 17.769531 173.414062 C 17.835938 174.230469 17.894531 175.285156 18.644531 175.832031 C 19.335938 176.304688 20.253906 175.773438 20.445312 175.035156 C 20.648438 174.492188 20.695312 173.960938 20.742188 173.414062 L 20.742188 171.839844 C 20.671875 171.011719 20.558594 169.855469 19.605469 169.527344 L 19.527344 169.503906 L 19.503906 169.480469 L 19.402344 169.480469 L 19.378906 169.457031 L 19.117188 169.457031 Z M 19.097656 169.480469 Z M 19.097656 169.480469 "/>
<path style=" stroke:none;fill-rule:nonzero;fill:rgb(0%,0%,0%);fill-opacity:1;" d="M 10.636719 135.757812 C 11.714844 135.835938 12.429688 136.824219 12.621094 137.820312 C 12.722656 138.273438 12.746094 138.707031 12.792969 139.160156 L 12.792969 140.316406 C 12.734375 141.496094 12.453125 143.046875 11.171875 143.523438 C 10.058594 143.964844 8.753906 143.273438 8.425781 142.140625 C 8.175781 141.539062 8.15625 140.929688 8.097656 140.316406 L 8.097656 139.160156 C 8.15625 137.980469 8.402344 136.414062 9.675781 135.894531 L 9.730469 135.871094 L 9.777344 135.859375 L 9.832031 135.835938 L 10.003906 135.792969 L 10.105469 135.769531 L 10.230469 135.769531 L 10.253906 135.757812 Z M 10.636719 135.757812 Z M 10.285156 136.449219 C 9.332031 136.5625 9.050781 137.707031 8.980469 138.480469 L 8.980469 138.785156 L 8.960938 138.808594 L 8.960938 140.382812 C 9.027344 141.199219 9.085938 142.253906 9.832031 142.796875 C 10.523438 143.273438 11.441406 142.742188 11.636719 142.003906 C 11.839844 141.460938 11.886719 140.929688 11.929688 140.382812 L 11.929688 138.808594 C 11.863281 137.980469 11.75 136.824219 10.796875 136.496094 L 10.71875 136.472656 L 10.695312 136.449219 L 10.59375 136.449219 L 10.570312 136.425781 L 10.308594 136.425781 Z M 10.285156 136.449219 Z M 10.285156 136.449219 "/>
<path style=" stroke:none;fill-rule:nonzero;fill:rgb(0%,0%,0%);fill-opacity:1;" d="M 15.320312 142.492188 L 15.320312 143.398438 L 14.402344 143.398438 L 14.402344 142.492188 Z M 15.320312 142.492188 Z M 15.320312 142.492188 "/>
<path style=" stroke:none;fill-rule:nonzero;fill:rgb(0%,0%,0%);fill-opacity:1;" d="M 19.324219 135.757812 C 20.636719 135.792969 21.679688 137.140625 21.476562 138.410156 C 21.339844 139.679688 20.152344 140.40625 19.300781 141.199219 L 18.9375 141.574219 L 18.890625 141.597656 L 18.4375 142.039062 L 18.40625 142.0625 L 17.953125 142.515625 L 17.90625 142.539062 L 17.804688 142.640625 L 17.828125 142.652344 L 21.5 142.652344 L 21.5 143.398438 L 17.011719 143.398438 L 17.011719 142.71875 L 18.835938 140.894531 C 19.707031 140.132812 20.730469 139.148438 20.570312 137.902344 C 20.480469 137.175781 19.867188 136.503906 19.117188 136.449219 C 18.359375 136.335938 17.691406 136.9375 17.519531 137.664062 L 17.496094 137.695312 L 17.476562 137.777344 L 17.441406 137.902344 L 17.371094 138.148438 L 17.363281 138.207031 C 17.203125 138.015625 17.03125 137.808594 16.90625 137.59375 C 17.136719 136.664062 17.882812 135.792969 18.871094 135.757812 Z M 19.324219 135.757812 Z M 19.324219 135.757812 "/>
<path style=" stroke:none;fill-rule:nonzero;fill:rgb(0%,0%,0%);fill-opacity:1;" d="M 10.636719 102.726562 C 11.714844 102.804688 12.429688 103.792969 12.621094 104.789062 C 12.722656 105.242188 12.746094 105.671875 12.792969 106.128906 L 12.792969 107.285156 C 12.734375 108.464844 12.453125 110.015625 11.171875 110.492188 C 10.058594 110.933594 8.753906 110.242188 8.425781 109.109375 C 8.175781 108.507812 8.15625 107.894531 8.097656 107.285156 L 8.097656 106.128906 C 8.15625 104.949219 8.402344 103.382812 9.675781 102.863281 L 9.730469 102.839844 L 9.777344 102.828125 L 9.832031 102.804688 L 10.003906 102.757812 L 10.105469 102.738281 L 10.230469 102.738281 L 10.253906 102.726562 Z M 10.636719 102.726562 Z M 10.285156 103.417969 C 9.332031 103.53125 9.050781 104.675781 8.980469 105.445312 L 8.980469 105.753906 L 8.960938 105.777344 L 8.960938 107.351562 C 9.027344 108.167969 9.085938 109.222656 9.832031 109.765625 C 10.523438 110.242188 11.441406 109.710938 11.636719 108.972656 C 11.839844 108.429688 11.886719 107.894531 11.929688 107.351562 L 11.929688 105.777344 C 11.863281 104.949219 11.75 103.792969 10.796875 103.460938 L 10.71875 103.441406 L 10.695312 103.417969 L 10.59375 103.417969 L 10.570312 103.394531 L 10.308594 103.394531 Z M 10.285156 103.417969 Z M 10.285156 103.417969 "/>
<path style=" stroke:none;fill-rule:nonzero;fill:rgb(0%,0%,0%);fill-opacity:1;" d="M 15.320312 109.460938 L 15.320312 110.367188 L 14.402344 110.367188 L 14.402344 109.460938 Z M 15.320312 109.460938 Z M 15.320312 109.460938 "/>
<path style=" stroke:none;fill-rule:nonzero;fill:rgb(0%,0%,0%);fill-opacity:1;" d="M 20.617188 102.964844 L 20.617188 107.738281 L 20.636719 107.761719 L 21.761719 107.761719 L 21.761719 108.441406 L 20.636719 108.441406 L 20.617188 108.453125 L 20.617188 110.367188 L 19.753906 110.367188 L 19.753906 108.453125 L 19.730469 108.441406 L 16.738281 108.441406 L 16.738281 107.738281 C 17.691406 106.148438 18.644531 104.550781 19.59375 102.964844 Z M 20.617188 102.964844 Z M 19.777344 103.394531 C 19.550781 104.574219 18.824219 105.582031 18.28125 106.613281 C 18.066406 106.988281 17.78125 107.398438 17.621094 107.761719 L 19.800781 107.761719 L 19.8125 107.738281 L 19.8125 103.394531 L 19.800781 103.371094 Z M 19.777344 103.394531 Z M 19.777344 103.394531 "/>
<path style=" stroke:none;fill-rule:nonzero;fill:rgb(0%,0%,0%);fill-opacity:1;" d="M 10.636719 69.695312 C 11.714844 69.773438 12.429688 70.761719 12.621094 71.757812 C 12.722656 72.210938 12.746094 72.640625 12.792969 73.09375 L 12.792969 74.253906 C 12.734375 75.429688 12.453125 76.984375 11.171875 77.460938 C 10.058594 77.902344 8.753906 77.210938 8.425781 76.078125 C 8.175781 75.476562 8.15625 74.863281 8.097656 74.253906 L 8.097656 73.09375 C 8.15625 71.917969 8.402344 70.351562 9.675781 69.828125 L 9.730469 69.808594 L 9.777344 69.796875 L 9.832031 69.773438 L 10.003906 69.726562 L 10.105469 69.707031 L 10.230469 69.707031 L 10.253906 69.695312 Z M 10.636719 69.695312 Z M 10.285156 70.386719 C 9.332031 70.5 9.050781 71.644531 8.980469 72.414062 L 8.980469 72.722656 L 8.960938 72.742188 L 8.960938 74.320312 C 9.027344 75.136719 9.085938 76.191406 9.832031 76.734375 C 10.523438 77.210938 11.441406 76.679688 11.636719 75.941406 C 11.839844 75.398438 11.886719 74.863281 11.929688 74.320312 L 11.929688 72.742188 C 11.863281 71.917969 11.75 70.761719 10.796875 70.429688 L 10.71875 70.410156 L 10.695312 70.386719 L 10.59375 70.386719 L 10.570312 70.363281 L 10.308594 70.363281 Z M 10.285156 70.386719 Z M 10.285156 70.386719 "/>
<path style=" stroke:none;fill-rule:nonzero;fill:rgb(0%,0%,0%);fill-opacity:1;" d="M 15.320312 76.429688 L 15.320312 77.335938 L 14.402344 77.335938 L 14.402344 76.429688 Z M 15.320312 76.429688 Z M 15.320312 76.429688 "/>
<path style=" stroke:none;fill-rule:nonzero;fill:rgb(0%,0%,0%);fill-opacity:1;" d="M 20.183594 69.695312 C 20.480469 69.738281 20.820312 69.773438 21.101562 69.910156 L 21.101562 70.566406 C 20.320312 70.226562 19.300781 70.179688 18.6875 70.875 C 18.144531 71.453125 17.894531 72.3125 17.871094 73.074219 C 18.53125 72.199219 20.015625 71.710938 20.820312 72.621094 C 21.625 73.550781 21.761719 74.886719 21.398438 76.019531 C 21 76.929688 20.082031 77.753906 19.0625 77.5625 C 17.679688 77.449219 17.054688 75.90625 16.988281 74.726562 C 16.726562 73.0625 17.125 70.964844 18.710938 70.011719 L 18.734375 70 L 18.972656 69.875 L 19.039062 69.851562 L 19.074219 69.828125 L 19.265625 69.773438 L 19.425781 69.726562 L 19.527344 69.707031 L 19.652344 69.707031 L 19.675781 69.695312 Z M 20.183594 69.695312 Z M 19.074219 72.847656 C 18.085938 73.015625 17.769531 74.207031 17.894531 75.011719 C 17.953125 75.769531 18.246094 76.78125 19.117188 76.9375 C 20.046875 77.0625 20.648438 76.066406 20.671875 75.261719 C 20.71875 74.445312 20.671875 73.515625 19.957031 72.980469 L 19.800781 72.902344 L 19.675781 72.867188 L 19.574219 72.847656 L 19.550781 72.824219 L 19.097656 72.824219 Z M 19.074219 72.847656 Z M 19.074219 72.847656 "/>
<path style=" stroke:none;fill-rule:nonzero;fill:rgb(0%,0%,0%);fill-opacity:1;" d="M 10.636719 36.664062 C 11.714844 36.742188 12.429688 37.726562 12.621094 38.726562 C 12.722656 39.179688 12.746094 39.609375 12.792969 40.0625 L 12.792969 41.21875 C 12.734375 42.398438 12.453125 43.953125 11.171875 44.429688 C 10.058594 44.871094 8.753906 44.179688 8.425781 43.046875 C 8.175781 42.445312 8.15625 41.832031 8.097656 41.21875 L 8.097656 40.0625 C 8.15625 38.882812 8.402344 37.320312 9.675781 36.796875 L 9.730469 36.777344 L 9.777344 36.765625 L 9.832031 36.742188 L 10.003906 36.695312 L 10.105469 36.671875 L 10.230469 36.671875 L 10.253906 36.664062 Z M 10.636719 36.664062 Z M 10.285156 37.355469 C 9.332031 37.46875 9.050781 38.613281 8.980469 39.382812 L 8.980469 39.691406 L 8.960938 39.710938 L 8.960938 41.289062 C 9.027344 42.105469 9.085938 43.160156 9.832031 43.703125 C 10.523438 44.179688 11.441406 43.648438 11.636719 42.910156 C 11.839844 42.367188 11.886719 41.832031 11.929688 41.289062 L 11.929688 39.710938 C 11.863281 38.882812 11.75 37.726562 10.796875 37.398438 L 10.71875 37.375 L 10.695312 37.355469 L 10.59375 37.355469 L 10.570312 37.332031 L 10.308594 37.332031 Z M 10.285156 37.355469 Z M 10.285156 37.355469 "/>
<path style=" stroke:none;fill-rule:nonzero;fill:rgb(0%,0%,0%);fill-opacity:1;" d="M 15.320312 43.398438 L 15.320312 44.304688 L 14.402344 44.304688 L 14.402344 43.398438 Z M 15.320312 43.398438 Z M 15.320312 43.398438 "/>
<path style=" stroke:none;fill-rule:nonzero;fill:rgb(0%,0%,0%);fill-opacity:1;" d="M 19.46875 36.664062 C 20.671875 36.707031 21.804688 38 21.332031 39.203125 C 21.125 39.757812 20.558594 40.097656 20.09375 40.335938 C 21.25 40.675781 21.953125 42.027344 21.433594 43.136719 C 20.886719 44.578125 18.824219 45.03125 17.691406 43.988281 C 16.660156 43.171875 16.625 41.402344 17.769531 40.675781 C 17.941406 40.496094 18.257812 40.4375 18.40625 40.300781 C 17.417969 40.019531 16.75 38.875 17.214844 37.910156 C 17.589844 37.046875 18.550781 36.570312 19.46875 36.664062 Z M 19.46875 36.664062 Z M 19.039062 37.308594 C 18.199219 37.332031 17.609375 38.285156 17.894531 39.03125 C 18.222656 40.324219 20.390625 40.277344 20.636719 38.953125 C 20.863281 38.214844 20.277344 37.332031 19.46875 37.308594 L 19.449219 37.296875 L 19.0625 37.296875 Z M 19.039062 37.308594 Z M 19.0625 40.675781 C 18.074219 40.746094 17.589844 41.921875 17.847656 42.761719 C 18.019531 43.953125 19.71875 44.304688 20.390625 43.351562 C 21.035156 42.480469 20.71875 40.914062 19.550781 40.675781 L 19.449219 40.675781 L 19.425781 40.652344 L 19.074219 40.652344 Z M 19.0625 40.675781 Z M 19.0625 40.675781 "/>
<path style=" stroke:none;fill-rule:nonzero;fill:rgb(0%,0%,0%);fill-opacity:1;" d="M 10.988281 3.628906 L 10.988281 10.625 L 11 10.648438 L 12.394531 10.648438 L 12.394531 11.273438 L 8.710938 11.273438 L 8.710938 10.648438 L 10.105469 10.648438 L 10.128906 10.625 L 10.128906 4.753906 C 9.652344 4.910156 9.152344 5.015625 8.652344 5.003906 L 8.652344 4.367188 C 9.402344 4.378906 10.21875 4.175781 10.785156 3.628906 Z M 10.988281 3.628906 Z M 10.988281 3.628906 "/>
<path style=" stroke:none;fill-rule:nonzero;fill:rgb(0%,0%,0%);fill-opacity:1;" d="M 15.320312 10.367188 L 15.320312 11.273438 L 14.402344 11.273438 L 14.402344 10.367188 Z M 15.320312 10.367188 Z M 15.320312 10.367188 "/>
<path style=" stroke:none;fill-rule:nonzero;fill:rgb(0%,0%,0%);fill-opacity:1;" d="M 19.449219 3.628906 C 20.523438 3.710938 21.238281 4.695312 21.433594 5.695312 C 21.535156 6.148438 21.558594 6.578125 21.601562 7.03125 L 21.601562 8.1875 C 21.546875 9.367188 21.261719 10.921875 19.980469 11.398438 C 18.871094 11.839844 17.566406 11.148438 17.238281 10.015625 C 16.988281 9.414062 16.964844 8.800781 16.90625 8.1875 L 16.90625 7.03125 C 16.964844 5.851562 17.214844 4.289062 18.484375 3.765625 L 18.539062 3.742188 L 18.585938 3.734375 L 18.644531 3.710938 L 18.8125 3.664062 L 18.914062 3.640625 L 19.039062 3.640625 L 19.0625 3.628906 Z M 19.449219 3.628906 Z M 19.097656 4.320312 C 18.144531 4.4375 17.859375 5.582031 17.792969 6.351562 L 17.792969 6.65625 L 17.769531 6.679688 L 17.769531 8.257812 C 17.835938 9.074219 17.894531 10.128906 18.644531 10.671875 C 19.335938 11.148438 20.253906 10.613281 20.445312 9.878906 C 20.648438 9.332031 20.695312 8.800781 20.742188 8.257812 L 20.742188 6.679688 C 20.671875 5.851562 20.558594 4.695312 19.605469 4.367188 L 19.527344 4.34375 L 19.503906 4.320312 L 19.402344 4.320312 L 19.378906 4.300781 L 19.117188 4.300781 Z M 19.097656 4.320312 Z M 19.097656 4.320312 "/>
<path style="fill:none;stroke-width:0.02;stroke-linecap:butt;stroke-linejoin:miter;stroke:rgb(0%,0%,0%);stroke-opacity:1;stroke-miterlimit:10;" d="M 11.644561 1.777288 L 11.49463 1.777288 " transform="matrix(28.346457,0,0,-28.346457,1,256.11811)"/>
<path style="fill:none;stroke-width:0.02;stroke-linecap:butt;stroke-linejoin:miter;stroke:rgb(0%,0%,0%);stroke-opacity:1;stroke-miterlimit:10;" d="M 11.644561 2.942558 L 11.49463 2.942558 " transform="matrix(28.346457,0,0,-28.346457,1,256.11811)"/>
<path style="fill:none;stroke-width:0.02;stroke-linecap:butt;stroke-linejoin:miter;stroke:rgb(0%,0%,0%);stroke-opacity:1;stroke-miterlimit:10;" d="M 11.644561 4.107827 L 11.49463 4.107827 " transform="matrix(28.346457,0,0,-28.346457,1,256.11811)"/>
<path style="fill:none;stroke-width:0.02;stroke-linecap:butt;stroke-linejoin:miter;stroke:rgb(0%,0%,0%);stroke-opacity:1;stroke-miterlimit:10;" d="M 11.644561 5.273096 L 11.49463 5.273096 " transform="matrix(28.346457,0,0,-28.346457,1,256.11811)"/>
<path style="fill:none;stroke-width:0.02;stroke-linecap:butt;stroke-linejoin:miter;stroke:rgb(0%,0%,0%);stroke-opacity:1;stroke-miterlimit:10;" d="M 11.644561 6.438365 L 11.49463 6.438365 " transform="matrix(28.346457,0,0,-28.346457,1,256.11811)"/>
<path style="fill:none;stroke-width:0.02;stroke-linecap:butt;stroke-linejoin:miter;stroke:rgb(0%,0%,0%);stroke-opacity:1;stroke-miterlimit:10;" d="M 11.644561 7.603772 L 11.49463 7.603772 " transform="matrix(28.346457,0,0,-28.346457,1,256.11811)"/>
<path style="fill:none;stroke-width:0.02;stroke-linecap:round;stroke-linejoin:miter;stroke:rgb(0%,0%,0%);stroke-opacity:1;stroke-miterlimit:10;" d="M 11.644561 0.612019 L 11.644561 8.769041 " transform="matrix(28.346457,0,0,-28.346457,1,256.11811)"/>
<path style="fill:none;stroke-width:0.02;stroke-linecap:butt;stroke-linejoin:miter;stroke:rgb(0%,0%,0%);stroke-opacity:1;stroke-miterlimit:10;" d="M 2.059065 0.612019 L 2.059065 0.76195 " transform="matrix(28.346457,0,0,-28.346457,1,256.11811)"/>
<path style="fill:none;stroke-width:0.02;stroke-linecap:butt;stroke-linejoin:miter;stroke:rgb(0%,0%,0%);stroke-opacity:1;stroke-miterlimit:10;" d="M 3.12415 0.612019 L 3.12415 0.76195 " transform="matrix(28.346457,0,0,-28.346457,1,256.11811)"/>
<path style="fill:none;stroke-width:0.02;stroke-linecap:butt;stroke-linejoin:miter;stroke:rgb(0%,0%,0%);stroke-opacity:1;stroke-miterlimit:10;" d="M 4.189236 0.612019 L 4.189236 0.76195 " transform="matrix(28.346457,0,0,-28.346457,1,256.11811)"/>
<path style="fill:none;stroke-width:0.02;stroke-linecap:butt;stroke-linejoin:miter;stroke:rgb(0%,0%,0%);stroke-opacity:1;stroke-miterlimit:10;" d="M 5.254184 0.612019 L 5.254184 0.76195 " transform="matrix(28.346457,0,0,-28.346457,1,256.11811)"/>
<path style="fill:none;stroke-width:0.02;stroke-linecap:butt;stroke-linejoin:miter;stroke:rgb(0%,0%,0%);stroke-opacity:1;stroke-miterlimit:10;" d="M 6.31927 0.612019 L 6.31927 0.76195 " transform="matrix(28.346457,0,0,-28.346457,1,256.11811)"/>
<path style="fill:none;stroke-width:0.02;stroke-linecap:butt;stroke-linejoin:miter;stroke:rgb(0%,0%,0%);stroke-opacity:1;stroke-miterlimit:10;" d="M 7.384355 0.612019 L 7.384355 0.76195 " transform="matrix(28.346457,0,0,-28.346457,1,256.11811)"/>
<path style="fill:none;stroke-width:0.02;stroke-linecap:butt;stroke-linejoin:miter;stroke:rgb(0%,0%,0%);stroke-opacity:1;stroke-miterlimit:10;" d="M 8.449441 0.612019 L 8.449441 0.76195 " transform="matrix(28.346457,0,0,-28.346457,1,256.11811)"/>
<path style="fill:none;stroke-width:0.02;stroke-linecap:butt;stroke-linejoin:miter;stroke:rgb(0%,0%,0%);stroke-opacity:1;stroke-miterlimit:10;" d="M 9.514527 0.612019 L 9.514527 0.76195 " transform="matrix(28.346457,0,0,-28.346457,1,256.11811)"/>
<path style="fill:none;stroke-width:0.02;stroke-linecap:butt;stroke-linejoin:miter;stroke:rgb(0%,0%,0%);stroke-opacity:1;stroke-miterlimit:10;" d="M 10.579475 0.612019 L 10.579475 0.76195 " transform="matrix(28.346457,0,0,-28.346457,1,256.11811)"/>
<path style="fill:none;stroke-width:0.02;stroke-linecap:round;stroke-linejoin:miter;stroke:rgb(0%,0%,0%);stroke-opacity:1;stroke-miterlimit:10;" d="M 0.993979 0.612019 L 11.644561 0.612019 " transform="matrix(28.346457,0,0,-28.346457,1,256.11811)"/>
<path style=" stroke:none;fill-rule:nonzero;fill:rgb(0%,0%,0%);fill-opacity:1;" d="M 23.15625 250.484375 L 23.15625 251.117188 L 20.183594 251.117188 L 20.183594 250.484375 Z M 23.15625 250.484375 Z M 23.15625 250.484375 "/>
<path style=" stroke:none;fill-rule:nonzero;fill:rgb(0%,0%,0%);fill-opacity:1;" d="M 27.203125 245.652344 L 27.203125 252.648438 L 27.214844 252.671875 L 28.609375 252.671875 L 28.609375 253.292969 L 24.925781 253.292969 L 24.925781 252.671875 L 26.320312 252.671875 L 26.339844 252.648438 L 26.339844 246.773438 C 25.867188 246.933594 25.367188 247.035156 24.867188 247.023438 L 24.867188 246.390625 C 25.617188 246.402344 26.433594 246.195312 27 245.652344 Z M 27.203125 245.652344 Z M 27.203125 245.652344 "/>
<path style=" stroke:none;fill-rule:nonzero;fill:rgb(0%,0%,0%);fill-opacity:1;" d="M 31.535156 252.386719 L 31.535156 253.292969 L 30.617188 253.292969 L 30.617188 252.386719 Z M 31.535156 252.386719 Z M 31.535156 252.386719 "/>
<path style=" stroke:none;fill-rule:nonzero;fill:rgb(0%,0%,0%);fill-opacity:1;" d="M 35.660156 245.652344 C 36.738281 245.730469 37.453125 246.71875 37.644531 247.714844 C 37.75 248.167969 37.769531 248.601562 37.816406 249.054688 L 37.816406 250.210938 C 37.757812 251.390625 37.476562 252.941406 36.195312 253.417969 C 35.082031 253.863281 33.78125 253.171875 33.449219 252.035156 C 33.203125 251.433594 33.179688 250.824219 33.121094 250.210938 L 33.121094 249.054688 C 33.179688 247.875 33.429688 246.308594 34.699219 245.789062 L 34.753906 245.765625 L 34.800781 245.753906 L 34.855469 245.730469 L 35.027344 245.6875 L 35.128906 245.664062 L 35.253906 245.664062 L 35.277344 245.652344 Z M 35.660156 245.652344 Z M 35.3125 246.34375 C 34.359375 246.457031 34.074219 247.601562 34.007812 248.375 L 34.007812 248.679688 L 33.984375 248.703125 L 33.984375 250.277344 C 34.050781 251.09375 34.109375 252.148438 34.855469 252.695312 C 35.546875 253.171875 36.46875 252.636719 36.660156 251.898438 C 36.863281 251.355469 36.910156 250.824219 36.953125 250.277344 L 36.953125 248.703125 C 36.886719 247.875 36.773438 246.71875 35.820312 246.390625 L 35.742188 246.367188 L 35.71875 246.34375 L 35.617188 246.34375 L 35.59375 246.320312 L 35.332031 246.320312 Z M 35.3125 246.34375 Z M 35.3125 246.34375 "/>
<path style=" stroke:none;fill-rule:nonzero;fill:rgb(0%,0%,0%);fill-opacity:1;" d="M 53.347656 250.484375 L 53.347656 251.117188 L 50.375 251.117188 L 50.375 250.484375 Z M 53.347656 250.484375 Z M 53.347656 250.484375 "/>
<path style=" stroke:none;fill-rule:nonzero;fill:rgb(0%,0%,0%);fill-opacity:1;" d="M 57.042969 245.652344 C 58.121094 245.730469 58.835938 246.71875 59.027344 247.714844 C 59.128906 248.167969 59.152344 248.601562 59.195312 249.054688 L 59.195312 250.210938 C 59.140625 251.390625 58.855469 252.941406 57.574219 253.417969 C 56.464844 253.863281 55.160156 253.171875 54.832031 252.035156 C 54.582031 251.433594 54.558594 250.824219 54.503906 250.210938 L 54.503906 249.054688 C 54.558594 247.875 54.808594 246.308594 56.078125 245.789062 L 56.136719 245.765625 L 56.179688 245.753906 L 56.238281 245.730469 L 56.40625 245.6875 L 56.507812 245.664062 L 56.632812 245.664062 L 56.65625 245.652344 Z M 57.042969 245.652344 Z M 56.691406 246.34375 C 55.738281 246.457031 55.457031 247.601562 55.386719 248.375 L 55.386719 248.679688 L 55.363281 248.703125 L 55.363281 250.277344 C 55.433594 251.09375 55.488281 252.148438 56.238281 252.695312 C 56.929688 253.171875 57.847656 252.636719 58.039062 251.898438 C 58.246094 251.355469 58.289062 250.824219 58.335938 250.277344 L 58.335938 248.703125 C 58.265625 247.875 58.152344 246.71875 57.203125 246.390625 L 57.121094 246.367188 L 57.097656 246.34375 L 56.996094 246.34375 L 56.976562 246.320312 L 56.714844 246.320312 Z M 56.691406 246.34375 Z M 56.691406 246.34375 "/>
<path style=" stroke:none;fill-rule:nonzero;fill:rgb(0%,0%,0%);fill-opacity:1;" d="M 61.726562 252.386719 L 61.726562 253.292969 L 60.808594 253.292969 L 60.808594 252.386719 Z M 61.726562 252.386719 Z M 61.726562 252.386719 "/>
<path style=" stroke:none;fill-rule:nonzero;fill:rgb(0%,0%,0%);fill-opacity:1;" d="M 65.875 245.652344 C 67.078125 245.699219 68.210938 246.992188 67.734375 248.191406 C 67.53125 248.746094 66.964844 249.089844 66.5 249.328125 C 67.65625 249.667969 68.359375 251.015625 67.835938 252.125 C 67.292969 253.566406 65.230469 254.019531 64.09375 252.976562 C 63.0625 252.160156 63.03125 250.390625 64.175781 249.667969 C 64.34375 249.484375 64.664062 249.429688 64.808594 249.292969 C 63.824219 249.007812 63.152344 247.863281 63.617188 246.898438 C 63.992188 246.039062 64.957031 245.5625 65.875 245.652344 Z M 65.875 245.652344 Z M 65.445312 246.300781 C 64.605469 246.320312 64.015625 247.273438 64.300781 248.023438 C 64.628906 249.316406 66.792969 249.269531 67.042969 247.941406 C 67.269531 247.207031 66.679688 246.320312 65.875 246.300781 L 65.851562 246.289062 L 65.46875 246.289062 Z M 65.445312 246.300781 Z M 65.46875 249.667969 C 64.480469 249.734375 63.992188 250.914062 64.253906 251.753906 C 64.425781 252.941406 66.125 253.292969 66.792969 252.34375 C 67.441406 251.46875 67.121094 249.90625 65.953125 249.667969 L 65.851562 249.667969 L 65.828125 249.644531 L 65.480469 249.644531 Z M 65.46875 249.667969 Z M 65.46875 249.667969 "/>
<path style=" stroke:none;fill-rule:nonzero;fill:rgb(0%,0%,0%);fill-opacity:1;" d="M 83.535156 250.484375 L 83.535156 251.117188 L 80.566406 251.117188 L 80.566406 250.484375 Z M 83.535156 250.484375 Z M 83.535156 250.484375 "/>
<path style=" stroke:none;fill-rule:nonzero;fill:rgb(0%,0%,0%);fill-opacity:1;" d="M 87.234375 245.652344 C 88.308594 245.730469 89.023438 246.71875 89.21875 247.714844 C 89.320312 248.167969 89.34375 248.601562 89.386719 249.054688 L 89.386719 250.210938 C 89.332031 251.390625 89.046875 252.941406 87.765625 253.417969 C 86.65625 253.863281 85.351562 253.171875 85.023438 252.035156 C 84.773438 251.433594 84.75 250.824219 84.695312 250.210938 L 84.695312 249.054688 C 84.75 247.875 85 246.308594 86.269531 245.789062 L 86.328125 245.765625 L 86.371094 245.753906 L 86.429688 245.730469 L 86.597656 245.6875 L 86.699219 245.664062 L 86.824219 245.664062 L 86.847656 245.652344 Z M 87.234375 245.652344 Z M 86.882812 246.34375 C 85.929688 246.457031 85.644531 247.601562 85.578125 248.375 L 85.578125 248.679688 L 85.554688 248.703125 L 85.554688 250.277344 C 85.625 251.09375 85.679688 252.148438 86.429688 252.695312 C 87.121094 253.171875 88.039062 252.636719 88.230469 251.898438 C 88.433594 251.355469 88.480469 250.824219 88.527344 250.277344 L 88.527344 248.703125 C 88.457031 247.875 88.34375 246.71875 87.390625 246.390625 L 87.3125 246.367188 L 87.289062 246.34375 L 87.1875 246.34375 L 87.164062 246.320312 L 86.90625 246.320312 Z M 86.882812 246.34375 Z M 86.882812 246.34375 "/>
<path style=" stroke:none;fill-rule:nonzero;fill:rgb(0%,0%,0%);fill-opacity:1;" d="M 91.917969 252.386719 L 91.917969 253.292969 L 90.996094 253.292969 L 90.996094 252.386719 Z M 91.917969 252.386719 Z M 91.917969 252.386719 "/>
<path style=" stroke:none;fill-rule:nonzero;fill:rgb(0%,0%,0%);fill-opacity:1;" d="M 96.78125 245.652344 C 97.074219 245.699219 97.414062 245.730469 97.699219 245.867188 L 97.699219 246.527344 C 96.917969 246.183594 95.894531 246.140625 95.285156 246.832031 C 94.738281 247.410156 94.488281 248.273438 94.46875 249.03125 C 95.125 248.160156 96.609375 247.671875 97.414062 248.578125 C 98.21875 249.507812 98.355469 250.84375 97.992188 251.980469 C 97.597656 252.886719 96.679688 253.714844 95.65625 253.523438 C 94.273438 253.40625 93.652344 251.867188 93.582031 250.6875 C 93.320312 249.019531 93.71875 246.921875 95.304688 245.96875 L 95.328125 245.957031 L 95.566406 245.835938 L 95.636719 245.8125 L 95.667969 245.789062 L 95.863281 245.730469 L 96.019531 245.6875 L 96.121094 245.664062 L 96.246094 245.664062 L 96.269531 245.652344 Z M 96.78125 245.652344 Z M 95.667969 248.804688 C 94.683594 248.976562 94.367188 250.164062 94.488281 250.96875 C 94.546875 251.730469 94.839844 252.738281 95.714844 252.898438 C 96.644531 253.023438 97.246094 252.023438 97.269531 251.21875 C 97.3125 250.402344 97.269531 249.472656 96.554688 248.941406 L 96.394531 248.863281 L 96.269531 248.828125 L 96.167969 248.804688 L 96.144531 248.78125 L 95.691406 248.78125 Z M 95.667969 248.804688 Z M 95.667969 248.804688 "/>
<path style=" stroke:none;fill-rule:nonzero;fill:rgb(0%,0%,0%);fill-opacity:1;" d="M 113.726562 250.484375 L 113.726562 251.117188 L 110.757812 251.117188 L 110.757812 250.484375 Z M 113.726562 250.484375 Z M 113.726562 250.484375 "/>
<path style=" stroke:none;fill-rule:nonzero;fill:rgb(0%,0%,0%);fill-opacity:1;" d="M 117.425781 245.652344 C 118.5 245.730469 119.214844 246.71875 119.410156 247.714844 C 119.511719 248.167969 119.53125 248.601562 119.578125 249.054688 L 119.578125 250.210938 C 119.523438 251.390625 119.238281 252.941406 117.957031 253.417969 C 116.847656 253.863281 115.542969 253.171875 115.214844 252.035156 C 114.964844 251.433594 114.941406 250.824219 114.882812 250.210938 L 114.882812 249.054688 C 114.941406 247.875 115.191406 246.308594 116.460938 245.789062 L 116.515625 245.765625 L 116.5625 245.753906 L 116.617188 245.730469 L 116.789062 245.6875 L 116.890625 245.664062 L 117.015625 245.664062 L 117.039062 245.652344 Z M 117.425781 245.652344 Z M 117.074219 246.34375 C 116.121094 246.457031 115.835938 247.601562 115.769531 248.375 L 115.769531 248.679688 L 115.746094 248.703125 L 115.746094 250.277344 C 115.8125 251.09375 115.871094 252.148438 116.617188 252.695312 C 117.3125 253.171875 118.230469 252.636719 118.421875 251.898438 C 118.625 251.355469 118.671875 250.824219 118.714844 250.277344 L 118.714844 248.703125 C 118.648438 247.875 118.535156 246.71875 117.582031 246.390625 L 117.503906 246.367188 L 117.480469 246.34375 L 117.378906 246.34375 L 117.355469 246.320312 L 117.09375 246.320312 Z M 117.074219 246.34375 Z M 117.074219 246.34375 "/>
<path style=" stroke:none;fill-rule:nonzero;fill:rgb(0%,0%,0%);fill-opacity:1;" d="M 122.105469 252.386719 L 122.105469 253.292969 L 121.1875 253.292969 L 121.1875 252.386719 Z M 122.105469 252.386719 Z M 122.105469 252.386719 "/>
<path style=" stroke:none;fill-rule:nonzero;fill:rgb(0%,0%,0%);fill-opacity:1;" d="M 127.402344 245.890625 L 127.402344 250.664062 L 127.425781 250.6875 L 128.546875 250.6875 L 128.546875 251.367188 L 127.425781 251.367188 L 127.402344 251.378906 L 127.402344 253.292969 L 126.539062 253.292969 L 126.539062 251.378906 L 126.515625 251.367188 L 123.523438 251.367188 L 123.523438 250.664062 C 124.476562 249.078125 125.429688 247.476562 126.382812 245.890625 Z M 127.402344 245.890625 Z M 126.5625 246.320312 C 126.335938 247.5 125.609375 248.511719 125.066406 249.542969 C 124.851562 249.914062 124.566406 250.324219 124.410156 250.6875 L 126.585938 250.6875 L 126.597656 250.664062 L 126.597656 246.320312 L 126.585938 246.300781 Z M 126.5625 246.320312 Z M 126.5625 246.320312 "/>
<path style=" stroke:none;fill-rule:nonzero;fill:rgb(0%,0%,0%);fill-opacity:1;" d="M 143.917969 250.484375 L 143.917969 251.117188 L 140.949219 251.117188 L 140.949219 250.484375 Z M 143.917969 250.484375 Z M 143.917969 250.484375 "/>
<path style=" stroke:none;fill-rule:nonzero;fill:rgb(0%,0%,0%);fill-opacity:1;" d="M 147.613281 245.652344 C 148.691406 245.730469 149.40625 246.71875 149.597656 247.714844 C 149.699219 248.167969 149.722656 248.601562 149.769531 249.054688 L 149.769531 250.210938 C 149.710938 251.390625 149.429688 252.941406 148.148438 253.417969 C 147.035156 253.863281 145.734375 253.171875 145.402344 252.035156 C 145.152344 251.433594 145.132812 250.824219 145.074219 250.210938 L 145.074219 249.054688 C 145.132812 247.875 145.382812 246.308594 146.652344 245.789062 L 146.707031 245.765625 L 146.753906 245.753906 L 146.808594 245.730469 L 146.980469 245.6875 L 147.082031 245.664062 L 147.207031 245.664062 L 147.230469 245.652344 Z M 147.613281 245.652344 Z M 147.261719 246.34375 C 146.3125 246.457031 146.027344 247.601562 145.960938 248.375 L 145.960938 248.679688 L 145.9375 248.703125 L 145.9375 250.277344 C 146.003906 251.09375 146.0625 252.148438 146.808594 252.695312 C 147.5 253.171875 148.417969 252.636719 148.613281 251.898438 C 148.816406 251.355469 148.863281 250.824219 148.90625 250.277344 L 148.90625 248.703125 C 148.839844 247.875 148.726562 246.71875 147.773438 246.390625 L 147.695312 246.367188 L 147.671875 246.34375 L 147.570312 246.34375 L 147.546875 246.320312 L 147.285156 246.320312 Z M 147.261719 246.34375 Z M 147.261719 246.34375 "/>
<path style=" stroke:none;fill-rule:nonzero;fill:rgb(0%,0%,0%);fill-opacity:1;" d="M 152.296875 252.386719 L 152.296875 253.292969 L 151.378906 253.292969 L 151.378906 252.386719 Z M 152.296875 252.386719 Z M 152.296875 252.386719 "/>
<path style=" stroke:none;fill-rule:nonzero;fill:rgb(0%,0%,0%);fill-opacity:1;" d="M 156.300781 245.652344 C 157.617188 245.6875 158.660156 247.035156 158.453125 248.304688 C 158.316406 249.574219 157.128906 250.300781 156.277344 251.09375 L 155.914062 251.46875 L 155.871094 251.492188 L 155.414062 251.933594 L 155.382812 251.957031 L 154.929688 252.410156 L 154.882812 252.433594 L 154.78125 252.535156 L 154.804688 252.546875 L 158.476562 252.546875 L 158.476562 253.292969 L 153.988281 253.292969 L 153.988281 252.613281 L 155.8125 250.789062 C 156.683594 250.027344 157.707031 249.042969 157.546875 247.796875 C 157.457031 247.070312 156.84375 246.402344 156.097656 246.34375 C 155.335938 246.230469 154.667969 246.832031 154.496094 247.558594 L 154.472656 247.589844 L 154.453125 247.671875 L 154.417969 247.796875 L 154.351562 248.046875 L 154.339844 248.101562 C 154.179688 247.910156 154.007812 247.703125 153.886719 247.488281 C 154.113281 246.558594 154.859375 245.6875 155.847656 245.652344 Z M 156.300781 245.652344 Z M 156.300781 245.652344 "/>
<path style=" stroke:none;fill-rule:nonzero;fill:rgb(0%,0%,0%);fill-opacity:1;" d="M 175.917969 245.652344 C 176.996094 245.730469 177.707031 246.71875 177.902344 247.714844 C 178.003906 248.167969 178.027344 248.601562 178.070312 249.054688 L 178.070312 250.210938 C 178.015625 251.390625 177.730469 252.941406 176.449219 253.417969 C 175.339844 253.863281 174.035156 253.171875 173.707031 252.035156 C 173.457031 251.433594 173.433594 250.824219 173.378906 250.210938 L 173.378906 249.054688 C 173.433594 247.875 173.683594 246.308594 174.953125 245.789062 L 175.011719 245.765625 L 175.054688 245.753906 L 175.113281 245.730469 L 175.28125 245.6875 L 175.382812 245.664062 L 175.507812 245.664062 L 175.53125 245.652344 Z M 175.917969 245.652344 Z M 175.566406 246.34375 C 174.613281 246.457031 174.332031 247.601562 174.261719 248.375 L 174.261719 248.679688 L 174.238281 248.703125 L 174.238281 250.277344 C 174.308594 251.09375 174.363281 252.148438 175.113281 252.695312 C 175.804688 253.171875 176.722656 252.636719 176.914062 251.898438 C 177.121094 251.355469 177.164062 250.824219 177.210938 250.277344 L 177.210938 248.703125 C 177.140625 247.875 177.027344 246.71875 176.078125 246.390625 L 175.996094 246.367188 L 175.972656 246.34375 L 175.871094 246.34375 L 175.847656 246.320312 L 175.589844 246.320312 Z M 175.566406 246.34375 Z M 175.566406 246.34375 "/>
<path style=" stroke:none;fill-rule:nonzero;fill:rgb(0%,0%,0%);fill-opacity:1;" d="M 180.601562 252.386719 L 180.601562 253.292969 L 179.683594 253.292969 L 179.683594 252.386719 Z M 180.601562 252.386719 Z M 180.601562 252.386719 "/>
<path style=" stroke:none;fill-rule:nonzero;fill:rgb(0%,0%,0%);fill-opacity:1;" d="M 184.726562 245.652344 C 185.804688 245.730469 186.519531 246.71875 186.710938 247.714844 C 186.8125 248.167969 186.835938 248.601562 186.882812 249.054688 L 186.882812 250.210938 C 186.824219 251.390625 186.542969 252.941406 185.261719 253.417969 C 184.148438 253.863281 182.84375 253.171875 182.515625 252.035156 C 182.265625 251.433594 182.246094 250.824219 182.1875 250.210938 L 182.1875 249.054688 C 182.246094 247.875 182.492188 246.308594 183.765625 245.789062 L 183.820312 245.765625 L 183.867188 245.753906 L 183.921875 245.730469 L 184.09375 245.6875 L 184.195312 245.664062 L 184.320312 245.664062 L 184.34375 245.652344 Z M 184.726562 245.652344 Z M 184.375 246.34375 C 183.421875 246.457031 183.140625 247.601562 183.070312 248.375 L 183.070312 248.679688 L 183.050781 248.703125 L 183.050781 250.277344 C 183.117188 251.09375 183.175781 252.148438 183.921875 252.695312 C 184.613281 253.171875 185.53125 252.636719 185.726562 251.898438 C 185.929688 251.355469 185.976562 250.824219 186.019531 250.277344 L 186.019531 248.703125 C 185.953125 247.875 185.839844 246.71875 184.886719 246.390625 L 184.808594 246.367188 L 184.785156 246.34375 L 184.683594 246.34375 L 184.660156 246.320312 L 184.398438 246.320312 Z M 184.375 246.34375 Z M 184.375 246.34375 "/>
<path style=" stroke:none;fill-rule:nonzero;fill:rgb(0%,0%,0%);fill-opacity:1;" d="M 206.109375 245.652344 C 207.183594 245.730469 207.898438 246.71875 208.09375 247.714844 C 208.195312 248.167969 208.21875 248.601562 208.261719 249.054688 L 208.261719 250.210938 C 208.207031 251.390625 207.921875 252.941406 206.640625 253.417969 C 205.53125 253.863281 204.226562 253.171875 203.898438 252.035156 C 203.648438 251.433594 203.625 250.824219 203.566406 250.210938 L 203.566406 249.054688 C 203.625 247.875 203.875 246.308594 205.144531 245.789062 L 205.199219 245.765625 L 205.246094 245.753906 L 205.304688 245.730469 L 205.472656 245.6875 L 205.574219 245.664062 L 205.699219 245.664062 L 205.722656 245.652344 Z M 206.109375 245.652344 Z M 205.757812 246.34375 C 204.804688 246.457031 204.519531 247.601562 204.453125 248.375 L 204.453125 248.679688 L 204.429688 248.703125 L 204.429688 250.277344 C 204.5 251.09375 204.554688 252.148438 205.304688 252.695312 C 205.996094 253.171875 206.914062 252.636719 207.105469 251.898438 C 207.308594 251.355469 207.355469 250.824219 207.402344 250.277344 L 207.402344 248.703125 C 207.332031 247.875 207.21875 246.71875 206.265625 246.390625 L 206.1875 246.367188 L 206.164062 246.34375 L 206.0625 246.34375 L 206.039062 246.320312 L 205.78125 246.320312 Z M 205.757812 246.34375 Z M 205.757812 246.34375 "/>
<path style=" stroke:none;fill-rule:nonzero;fill:rgb(0%,0%,0%);fill-opacity:1;" d="M 210.789062 252.386719 L 210.789062 253.292969 L 209.871094 253.292969 L 209.871094 252.386719 Z M 210.789062 252.386719 Z M 210.789062 252.386719 "/>
<path style=" stroke:none;fill-rule:nonzero;fill:rgb(0%,0%,0%);fill-opacity:1;" d="M 214.792969 245.652344 C 216.109375 245.6875 217.152344 247.035156 216.949219 248.304688 C 216.8125 249.574219 215.621094 250.300781 214.769531 251.09375 L 214.40625 251.46875 L 214.363281 251.492188 L 213.910156 251.933594 L 213.875 251.957031 L 213.421875 252.410156 L 213.375 252.433594 L 213.273438 252.535156 L 213.296875 252.546875 L 216.96875 252.546875 L 216.96875 253.292969 L 212.480469 253.292969 L 212.480469 252.613281 L 214.304688 250.789062 C 215.179688 250.027344 216.199219 249.042969 216.039062 247.796875 C 215.949219 247.070312 215.335938 246.402344 214.589844 246.34375 C 213.828125 246.230469 213.160156 246.832031 212.992188 247.558594 L 212.96875 247.589844 L 212.945312 247.671875 L 212.910156 247.796875 L 212.84375 248.046875 L 212.832031 248.101562 C 212.671875 247.910156 212.503906 247.703125 212.378906 247.488281 C 212.605469 246.558594 213.351562 245.6875 214.339844 245.652344 Z M 214.792969 245.652344 Z M 214.792969 245.652344 "/>
<path style=" stroke:none;fill-rule:nonzero;fill:rgb(0%,0%,0%);fill-opacity:1;" d="M 236.300781 245.652344 C 237.375 245.730469 238.089844 246.71875 238.28125 247.714844 C 238.386719 248.167969 238.40625 248.601562 238.453125 249.054688 L 238.453125 250.210938 C 238.394531 251.390625 238.113281 252.941406 236.832031 253.417969 C 235.71875 253.863281 234.417969 253.171875 234.085938 252.035156 C 233.839844 251.433594 233.816406 250.824219 233.757812 250.210938 L 233.757812 249.054688 C 233.816406 247.875 234.066406 246.308594 235.335938 245.789062 L 235.390625 245.765625 L 235.4375 245.753906 L 235.492188 245.730469 L 235.664062 245.6875 L 235.765625 245.664062 L 235.890625 245.664062 L 235.914062 245.652344 Z M 236.300781 245.652344 Z M 235.949219 246.34375 C 234.996094 246.457031 234.710938 247.601562 234.644531 248.375 L 234.644531 248.679688 L 234.621094 248.703125 L 234.621094 250.277344 C 234.6875 251.09375 234.746094 252.148438 235.492188 252.695312 C 236.183594 253.171875 237.105469 252.636719 237.296875 251.898438 C 237.5 251.355469 237.546875 250.824219 237.589844 250.277344 L 237.589844 248.703125 C 237.523438 247.875 237.410156 246.71875 236.457031 246.390625 L 236.378906 246.367188 L 236.355469 246.34375 L 236.253906 246.34375 L 236.230469 246.320312 L 235.96875 246.320312 Z M 235.949219 246.34375 Z M 235.949219 246.34375 "/>
<path style=" stroke:none;fill-rule:nonzero;fill:rgb(0%,0%,0%);fill-opacity:1;" d="M 240.980469 252.386719 L 240.980469 253.292969 L 240.0625 253.292969 L 240.0625 252.386719 Z M 240.980469 252.386719 Z M 240.980469 252.386719 "/>
<path style=" stroke:none;fill-rule:nonzero;fill:rgb(0%,0%,0%);fill-opacity:1;" d="M 246.277344 245.890625 L 246.277344 250.664062 L 246.300781 250.6875 L 247.421875 250.6875 L 247.421875 251.367188 L 246.300781 251.367188 L 246.277344 251.378906 L 246.277344 253.292969 L 245.414062 253.292969 L 245.414062 251.378906 L 245.390625 251.367188 L 242.398438 251.367188 L 242.398438 250.664062 C 243.351562 249.078125 244.304688 247.476562 245.257812 245.890625 Z M 246.277344 245.890625 Z M 245.4375 246.320312 C 245.210938 247.5 244.484375 248.511719 243.941406 249.542969 C 243.726562 249.914062 243.441406 250.324219 243.285156 250.6875 L 245.460938 250.6875 L 245.472656 250.664062 L 245.472656 246.320312 L 245.460938 246.300781 Z M 245.4375 246.320312 Z M 245.4375 246.320312 "/>
<path style=" stroke:none;fill-rule:nonzero;fill:rgb(0%,0%,0%);fill-opacity:1;" d="M 266.488281 245.652344 C 267.566406 245.730469 268.28125 246.71875 268.472656 247.714844 C 268.574219 248.167969 268.597656 248.601562 268.644531 249.054688 L 268.644531 250.210938 C 268.585938 251.390625 268.304688 252.941406 267.023438 253.417969 C 265.910156 253.863281 264.605469 253.171875 264.277344 252.035156 C 264.027344 251.433594 264.007812 250.824219 263.949219 250.210938 L 263.949219 249.054688 C 264.007812 247.875 264.253906 246.308594 265.527344 245.789062 L 265.582031 245.765625 L 265.628906 245.753906 L 265.683594 245.730469 L 265.855469 245.6875 L 265.957031 245.664062 L 266.082031 245.664062 L 266.105469 245.652344 Z M 266.488281 245.652344 Z M 266.136719 246.34375 C 265.1875 246.457031 264.902344 247.601562 264.835938 248.375 L 264.835938 248.679688 L 264.8125 248.703125 L 264.8125 250.277344 C 264.878906 251.09375 264.9375 252.148438 265.683594 252.695312 C 266.375 253.171875 267.292969 252.636719 267.488281 251.898438 C 267.691406 251.355469 267.738281 250.824219 267.78125 250.277344 L 267.78125 248.703125 C 267.714844 247.875 267.601562 246.71875 266.648438 246.390625 L 266.570312 246.367188 L 266.546875 246.34375 L 266.445312 246.34375 L 266.421875 246.320312 L 266.160156 246.320312 Z M 266.136719 246.34375 Z M 266.136719 246.34375 "/>
<path style=" stroke:none;fill-rule:nonzero;fill:rgb(0%,0%,0%);fill-opacity:1;" d="M 271.171875 252.386719 L 271.171875 253.292969 L 270.253906 253.292969 L 270.253906 252.386719 Z M 271.171875 252.386719 Z M 271.171875 252.386719 "/>
<path style=" stroke:none;fill-rule:nonzero;fill:rgb(0%,0%,0%);fill-opacity:1;" d="M 276.035156 245.652344 C 276.332031 245.699219 276.671875 245.730469 276.953125 245.867188 L 276.953125 246.527344 C 276.171875 246.183594 275.152344 246.140625 274.539062 246.832031 C 273.996094 247.410156 273.746094 248.273438 273.722656 249.03125 C 274.382812 248.160156 275.867188 247.671875 276.671875 248.578125 C 277.476562 249.507812 277.613281 250.84375 277.25 251.980469 C 276.851562 252.886719 275.933594 253.714844 274.914062 253.523438 C 273.53125 253.40625 272.90625 251.867188 272.839844 250.6875 C 272.578125 249.019531 272.976562 246.921875 274.5625 245.96875 L 274.585938 245.957031 L 274.824219 245.835938 L 274.890625 245.8125 L 274.925781 245.789062 L 275.117188 245.730469 L 275.277344 245.6875 L 275.378906 245.664062 L 275.503906 245.664062 L 275.527344 245.652344 Z M 276.035156 245.652344 Z M 274.925781 248.804688 C 273.9375 248.976562 273.621094 250.164062 273.746094 250.96875 C 273.804688 251.730469 274.097656 252.738281 274.972656 252.898438 C 275.902344 253.023438 276.5 252.023438 276.523438 251.21875 C 276.570312 250.402344 276.523438 249.472656 275.808594 248.941406 L 275.652344 248.863281 L 275.527344 248.828125 L 275.425781 248.804688 L 275.402344 248.78125 L 274.949219 248.78125 Z M 274.925781 248.804688 Z M 274.925781 248.804688 "/>
<path style=" stroke:none;fill-rule:nonzero;fill:rgb(0%,0%,0%);fill-opacity:1;" d="M 296.679688 245.652344 C 297.757812 245.730469 298.472656 246.71875 298.664062 247.714844 C 298.765625 248.167969 298.789062 248.601562 298.835938 249.054688 L 298.835938 250.210938 C 298.777344 251.390625 298.496094 252.941406 297.214844 253.417969 C 296.101562 253.863281 294.796875 253.171875 294.46875 252.035156 C 294.21875 251.433594 294.195312 250.824219 294.140625 250.210938 L 294.140625 249.054688 C 294.195312 247.875 294.445312 246.308594 295.714844 245.789062 L 295.773438 245.765625 L 295.820312 245.753906 L 295.875 245.730469 L 296.046875 245.6875 L 296.148438 245.664062 L 296.273438 245.664062 L 296.292969 245.652344 Z M 296.679688 245.652344 Z M 296.328125 246.34375 C 295.375 246.457031 295.09375 247.601562 295.023438 248.375 L 295.023438 248.679688 L 295.003906 248.703125 L 295.003906 250.277344 C 295.070312 251.09375 295.125 252.148438 295.875 252.695312 C 296.566406 253.171875 297.484375 252.636719 297.679688 251.898438 C 297.882812 251.355469 297.925781 250.824219 297.972656 250.277344 L 297.972656 248.703125 C 297.90625 247.875 297.792969 246.71875 296.839844 246.390625 L 296.757812 246.367188 L 296.738281 246.34375 L 296.636719 246.34375 L 296.613281 246.320312 L 296.351562 246.320312 Z M 296.328125 246.34375 Z M 296.328125 246.34375 "/>
<path style=" stroke:none;fill-rule:nonzero;fill:rgb(0%,0%,0%);fill-opacity:1;" d="M 301.363281 252.386719 L 301.363281 253.292969 L 300.445312 253.292969 L 300.445312 252.386719 Z M 301.363281 252.386719 Z M 301.363281 252.386719 "/>
<path style=" stroke:none;fill-rule:nonzero;fill:rgb(0%,0%,0%);fill-opacity:1;" d="M 305.511719 245.652344 C 306.714844 245.699219 307.847656 246.992188 307.371094 248.191406 C 307.167969 248.746094 306.601562 249.089844 306.136719 249.328125 C 307.292969 249.667969 307.996094 251.015625 307.472656 252.125 C 306.929688 253.566406 304.867188 254.019531 303.734375 252.976562 C 302.699219 252.160156 302.667969 250.390625 303.8125 249.667969 C 303.980469 249.484375 304.300781 249.429688 304.445312 249.292969 C 303.460938 249.007812 302.792969 247.863281 303.257812 246.898438 C 303.628906 246.039062 304.59375 245.5625 305.511719 245.652344 Z M 305.511719 245.652344 Z M 305.082031 246.300781 C 304.242188 246.320312 303.652344 247.273438 303.9375 248.023438 C 304.265625 249.316406 306.429688 249.269531 306.679688 247.941406 C 306.90625 247.207031 306.316406 246.320312 305.511719 246.300781 L 305.492188 246.289062 L 305.105469 246.289062 Z M 305.082031 246.300781 Z M 305.105469 249.667969 C 304.117188 249.734375 303.628906 250.914062 303.890625 251.753906 C 304.0625 252.941406 305.761719 253.292969 306.429688 252.34375 C 307.078125 251.46875 306.761719 249.90625 305.59375 249.667969 L 305.492188 249.667969 L 305.46875 249.644531 L 305.117188 249.644531 Z M 305.105469 249.667969 Z M 305.105469 249.667969 "/>
<path style=" stroke:none;fill-rule:nonzero;fill:rgb(0%,0%,0%);fill-opacity:1;" d="M 327.222656 245.652344 L 327.222656 252.648438 L 327.234375 252.671875 L 328.628906 252.671875 L 328.628906 253.292969 L 324.941406 253.292969 L 324.941406 252.671875 L 326.339844 252.671875 L 326.359375 252.648438 L 326.359375 246.773438 C 325.882812 246.933594 325.386719 247.035156 324.886719 247.023438 L 324.886719 246.390625 C 325.636719 246.402344 326.453125 246.195312 327.019531 245.652344 Z M 327.222656 245.652344 Z M 327.222656 245.652344 "/>
<path style=" stroke:none;fill-rule:nonzero;fill:rgb(0%,0%,0%);fill-opacity:1;" d="M 331.554688 252.386719 L 331.554688 253.292969 L 330.636719 253.292969 L 330.636719 252.386719 Z M 331.554688 252.386719 Z M 331.554688 252.386719 "/>
<path style=" stroke:none;fill-rule:nonzero;fill:rgb(0%,0%,0%);fill-opacity:1;" d="M 335.679688 245.652344 C 336.757812 245.730469 337.472656 246.71875 337.664062 247.714844 C 337.765625 248.167969 337.789062 248.601562 337.835938 249.054688 L 337.835938 250.210938 C 337.777344 251.390625 337.496094 252.941406 336.214844 253.417969 C 335.101562 253.863281 333.796875 253.171875 333.46875 252.035156 C 333.21875 251.433594 333.199219 250.824219 333.140625 250.210938 L 333.140625 249.054688 C 333.199219 247.875 333.445312 246.308594 334.71875 245.789062 L 334.773438 245.765625 L 334.820312 245.753906 L 334.875 245.730469 L 335.046875 245.6875 L 335.148438 245.664062 L 335.273438 245.664062 L 335.296875 245.652344 Z M 335.679688 245.652344 Z M 335.328125 246.34375 C 334.378906 246.457031 334.09375 247.601562 334.027344 248.375 L 334.027344 248.679688 L 334.003906 248.703125 L 334.003906 250.277344 C 334.070312 251.09375 334.128906 252.148438 334.875 252.695312 C 335.566406 253.171875 336.484375 252.636719 336.679688 251.898438 C 336.882812 251.355469 336.929688 250.824219 336.972656 250.277344 L 336.972656 248.703125 C 336.90625 247.875 336.792969 246.71875 335.839844 246.390625 L 335.761719 246.367188 L 335.738281 246.34375 L 335.636719 246.34375 L 335.613281 246.320312 L 335.351562 246.320312 Z M 335.328125 246.34375 Z M 335.328125 246.34375 "/>
<path style="fill:none;stroke-width:0.02;stroke-linecap:butt;stroke-linejoin:miter;stroke:rgb(0%,0%,0%);stroke-opacity:1;stroke-miterlimit:10;" d="M 2.059065 8.769041 L 2.059065 8.618972 " transform="matrix(28.346457,0,0,-28.346457,1,256.11811)"/>
<path style="fill:none;stroke-width:0.02;stroke-linecap:butt;stroke-linejoin:miter;stroke:rgb(0%,0%,0%);stroke-opacity:1;stroke-miterlimit:10;" d="M 3.12415 8.769041 L 3.12415 8.618972 " transform="matrix(28.346457,0,0,-28.346457,1,256.11811)"/>
<path style="fill:none;stroke-width:0.02;stroke-linecap:butt;stroke-linejoin:miter;stroke:rgb(0%,0%,0%);stroke-opacity:1;stroke-miterlimit:10;" d="M 4.189236 8.769041 L 4.189236 8.618972 " transform="matrix(28.346457,0,0,-28.346457,1,256.11811)"/>
<path style="fill:none;stroke-width:0.02;stroke-linecap:butt;stroke-linejoin:miter;stroke:rgb(0%,0%,0%);stroke-opacity:1;stroke-miterlimit:10;" d="M 5.254184 8.769041 L 5.254184 8.618972 " transform="matrix(28.346457,0,0,-28.346457,1,256.11811)"/>
<path style="fill:none;stroke-width:0.02;stroke-linecap:butt;stroke-linejoin:miter;stroke:rgb(0%,0%,0%);stroke-opacity:1;stroke-miterlimit:10;" d="M 6.31927 8.769041 L 6.31927 8.618972 " transform="matrix(28.346457,0,0,-28.346457,1,256.11811)"/>
<path style="fill:none;stroke-width:0.02;stroke-linecap:butt;stroke-linejoin:miter;stroke:rgb(0%,0%,0%);stroke-opacity:1;stroke-miterlimit:10;" d="M 7.384355 8.769041 L 7.384355 8.618972 " transform="matrix(28.346457,0,0,-28.346457,1,256.11811)"/>
<path style="fill:none;stroke-width:0.02;stroke-linecap:butt;stroke-linejoin:miter;stroke:rgb(0%,0%,0%);stroke-opacity:1;stroke-miterlimit:10;" d="M 8.449441 8.769041 L 8.449441 8.618972 " transform="matrix(28.346457,0,0,-28.346457,1,256.11811)"/>
<path style="fill:none;stroke-width:0.02;stroke-linecap:butt;stroke-linejoin:miter;stroke:rgb(0%,0%,0%);stroke-opacity:1;stroke-miterlimit:10;" d="M 9.514527 8.769041 L 9.514527 8.618972 " transform="matrix(28.346457,0,0,-28.346457,1,256.11811)"/>
<path style="fill:none;stroke-width:0.02;stroke-linecap:butt;stroke-linejoin:miter;stroke:rgb(0%,0%,0%);stroke-opacity:1;stroke-miterlimit:10;" d="M 10.579475 8.769041 L 10.579475 8.618972 " transform="matrix(28.346457,0,0,-28.346457,1,256.11811)"/>
<path style="fill:none;stroke-width:0.02;stroke-linecap:round;stroke-linejoin:miter;stroke:rgb(0%,0%,0%);stroke-opacity:1;stroke-miterlimit:10;" d="M 0.993979 8.769041 L 11.644561 8.769041 " transform="matrix(28.346457,0,0,-28.346457,1,256.11811)"/>
<path style="fill:none;stroke-width:0.05;stroke-linecap:butt;stroke-linejoin:miter;stroke:rgb(33%,47%,64%);stroke-opacity:1;stroke-miterlimit:10;" d="M 0.993979 2.942558 L 1.036836 2.960196 L 1.079555 2.978249 L 1.122274 2.996714 L 1.165131 3.01518 L 1.20785 3.033232 L 1.250707 3.050734 L 1.293427 3.06727 L 1.336146 3.082428 L 1.379003 3.095933 L 1.421722 3.107509 L 1.464441 3.116879 L 1.507298 3.12377 L 1.550017 3.127904 L 1.592874 3.129006 L 1.635594 3.127215 L 1.678313 3.122116 L 1.72117 3.11371 L 1.763889 3.102134 L 1.806746 3.087252 L 1.849465 3.069199 L 1.892184 3.048115 L 1.935041 3.024413 L 1.97776 2.998092 L 2.020617 2.969705 L 2.063337 2.939526 L 2.106056 2.907831 L 2.148913 2.875447 L 2.191632 2.842512 L 2.234489 2.809852 L 2.277208 2.777744 L 2.319927 2.747014 L 2.362784 2.718213 L 2.405503 2.691755 L 2.44836 2.66819 L 2.49108 2.648209 L 2.533799 2.632361 L 2.576656 2.620786 L 2.619375 2.614171 L 2.662232 2.612793 L 2.704951 2.616927 L 2.74767 2.626573 L 2.790527 2.642145 L 2.833247 2.663367 L 2.875966 2.690239 L 2.918823 2.722623 L 2.961542 2.760243 L 3.004399 2.802687 L 3.047118 2.849402 L 3.089837 2.899838 L 3.132694 2.953444 L 3.175413 3.009392 L 3.21827 3.066857 L 3.26099 3.12501 L 3.303709 3.182887 L 3.346566 3.239387 L 3.389285 3.293682 L 3.432142 3.344669 L 3.474861 3.391385 L 3.51758 3.432863 L 3.560437 3.468141 L 3.603156 3.496253 L 3.646013 3.51651 L 3.688733 3.528224 L 3.731452 3.530704 L 3.774309 3.523401 L 3.817028 3.506037 L 3.859885 3.478339 L 3.902604 3.440305 L 3.945323 3.391936 L 3.98818 3.333507 L 4.0309 3.26557 L 4.073757 3.188537 L 4.116476 3.103375 L 4.159195 3.011046 L 4.202052 2.912378 L 4.244771 2.809026 L 4.28749 2.70209 L 4.330347 2.593225 L 4.373066 2.484084 L 4.415923 2.376322 L 4.458643 2.271866 L 4.501362 2.17251 L 4.544219 2.080181 L 4.586938 1.99681 L 4.629795 1.924049 L 4.672514 1.863967 L 4.715233 1.818078 L 4.75809 1.788175 L 4.800809 1.775773 L 4.843666 1.782249 L 4.886386 1.808708 L 4.929105 1.856112 L 4.971962 1.92529 L 5.014681 2.016929 L 5.057538 2.131031 L 5.100257 2.268008 L 5.142976 2.427309 L 5.185833 2.608659 L 5.228553 2.81123 L 5.27141 3.034059 L 5.314129 3.275767 L 5.356848 3.534976 L 5.399705 3.809757 L 5.442424 4.09818 L 5.485281 4.397904 L 5.528 4.70686 L 5.570719 5.022155 L 5.613576 5.341309 L 5.656296 5.661565 L 5.699153 5.980029 L 5.741872 6.293671 L 5.784591 6.599871 L 5.827448 6.89546 L 5.870167 7.177958 L 5.912886 7.44447 L 5.955743 7.692517 L 5.998462 7.91948 L 6.041319 8.12343 L 6.084039 8.302024 L 6.126758 8.453746 L 6.169615 8.57708 L 6.212334 8.670511 L 6.255191 8.733487 L 6.29791 8.765044 L 6.340629 8.765044 L 6.383486 8.733487 L 6.426206 8.670511 L 6.469062 8.57708 L 6.511782 8.453746 L 6.554501 8.302024 L 6.597358 8.12343 L 6.640077 7.91948 L 6.682934 7.692517 L 6.725653 7.44447 L 6.768372 7.177958 L 6.811229 6.89546 L 6.853949 6.599871 L 6.896806 6.293671 L 6.939525 5.980029 L 6.982244 5.661565 L 7.025101 5.341309 L 7.06782 5.022155 L 7.110677 4.70686 L 7.153396 4.397904 L 7.196115 4.09818 L 7.238972 3.809757 L 7.281692 3.534976 L 7.324411 3.275767 L 7.367268 3.034059 L 7.409987 2.81123 L 7.452844 2.608659 L 7.495563 2.427309 L 7.538282 2.268008 L 7.581139 2.131031 L 7.623859 2.016929 L 7.666715 1.92529 L 7.709435 1.856112 L 7.752154 1.808708 L 7.795011 1.782249 L 7.83773 1.775773 L 7.880587 1.788175 L 7.923306 1.818078 L 7.966025 1.863967 L 8.008882 1.924049 L 8.051602 1.99681 L 8.094459 2.080181 L 8.137178 2.17251 L 8.179897 2.271866 L 8.222754 2.376322 L 8.265473 2.484084 L 8.30833 2.593225 L 8.351049 2.70209 L 8.393768 2.809026 L 8.436625 2.912378 L 8.479345 3.011046 L 8.522202 3.103375 L 8.564921 3.188537 L 8.60764 3.26557 L 8.650497 3.333507 L 8.693216 3.391936 L 8.735935 3.440305 L 8.778792 3.478339 L 8.821512 3.506037 L 8.864368 3.523401 L 8.907088 3.530704 L 8.949807 3.528224 L 8.992664 3.51651 L 9.035383 3.496253 L 9.07824 3.468141 L 9.120959 3.432863 L 9.163678 3.391385 L 9.206535 3.344669 L 9.249255 3.293682 L 9.292112 3.239387 L 9.334831 3.182887 L 9.37755 3.12501 L 9.420407 3.066857 L 9.463126 3.009392 L 9.505983 2.953444 L 9.548702 2.899838 L 9.591421 2.849402 L 9.634278 2.802687 L 9.676998 2.760243 L 9.719855 2.722623 L 9.762574 2.690239 L 9.805293 2.663367 L 9.84815 2.642145 L 9.890869 2.626573 L 9.933726 2.616927 L 9.976445 2.612793 L 10.019164 2.614171 L 10.062021 2.620786 L 10.104741 2.632361 L 10.14746 2.648209 L 10.190317 2.66819 L 10.233036 2.691755 L 10.275893 2.718213 L 10.318612 2.747014 L 10.361331 2.777744 L 10.404188 2.809852 L 10.446908 2.842512 L 10.489765 2.875447 L 10.532484 2.907831 L 10.575203 2.939526 L 10.61806 2.969705 L 10.660779 2.998092 L 10.703636 3.024413 L 10.746355 3.048115 L 10.789074 3.069199 L 10.831931 3.087252 L 10.874651 3.102134 L 10.917508 3.11371 L 10.960227 3.122116 L 11.002946 3.127215 L 11.045803 3.129006 L 11.088522 3.127904 L 11.131379 3.12377 L 11.174098 3.116879 L 11.216817 3.107509 L 11.259674 3.095933 L 11.302394 3.082428 L 11.345251 3.06727 L 11.38797 3.050734 L 11.430689 3.033232 L 11.473546 3.01518 L 11.558984 2.978249 L 11.601841 2.960196 L 11.644561 2.942558 " transform="matrix(28.346457,0,0,-28.346457,1,256.11811)"/>
<path style="fill:none;stroke-width:0.05;stroke-linecap:butt;stroke-linejoin:miter;stroke:rgb(90%,57%,26%);stroke-opacity:1;stroke-miterlimit:10;" d="M 0.993979 2.942558 L 1.036836 3.067683 L 1.079555 3.188262 L 1.122274 3.303879 L 1.165131 3.414122 L 1.20785 3.518853 L 1.250707 3.617521 L 1.293427 3.709987 L 1.336146 3.795977 L 1.379003 3.875214 L 1.421722 3.947423 L 1.464441 4.012742 L 1.507298 4.070757 L 1.550017 4.121607 L 1.592874 4.165015 L 1.635594 4.20112 L 1.678313 4.229645 L 1.72117 4.251005 L 1.763889 4.264785 L 1.806746 4.2714 L 1.849465 4.270849 L 1.892184 4.263269 L 1.935041 4.248662 L 1.97776 4.227303 L 2.020617 4.199466 L 2.063337 4.165153 L 2.106056 4.124776 L 2.148913 4.078474 L 2.191632 4.026522 L 2.234489 3.969334 L 2.277208 3.907046 L 2.319927 3.839936 L 2.362784 3.768554 L 2.405503 3.693175 L 2.44836 3.614076 L 2.49108 3.531669 L 2.533799 3.44623 L 2.576656 3.358449 L 2.619375 3.268464 L 2.662232 3.176686 L 2.704951 3.083669 L 2.74767 2.989686 L 2.790527 2.895291 L 2.833247 2.800895 L 2.875966 2.706913 L 2.918823 2.61362 L 2.961542 2.521705 L 3.004399 2.431305 L 3.047118 2.343111 L 3.089837 2.257397 L 3.132694 2.174577 L 3.175413 2.095202 L 3.21827 2.01941 L 3.26099 1.947752 L 3.303709 1.880641 L 3.346566 1.818216 L 3.389285 1.761165 L 3.432142 1.709489 L 3.474861 1.663876 L 3.51758 1.624188 L 3.560437 1.591115 L 3.603156 1.564657 L 3.646013 1.545227 L 3.688733 1.5331 L 3.731452 1.528277 L 3.774309 1.531033 L 3.817028 1.541506 L 3.859885 1.559972 L 3.902604 1.586292 L 3.945323 1.620881 L 3.98818 1.6636 L 4.0309 1.71445 L 4.073757 1.773568 L 4.116476 1.840954 L 4.159195 1.91647 L 4.202052 1.999979 L 4.244771 2.091619 L 4.28749 2.191113 L 4.330347 2.298187 L 4.373066 2.412977 L 4.415923 2.534934 L 4.458643 2.664056 L 4.501362 2.800068 L 4.544219 2.942558 L 4.586938 3.091386 L 4.629795 3.246002 L 4.672514 3.40613 L 4.715233 3.571494 L 4.75809 3.741682 L 4.800809 3.916141 L 4.843666 4.09446 L 4.886386 4.276223 L 4.929105 4.46088 L 4.971962 4.648018 L 5.014681 4.836947 L 5.057538 5.027391 L 5.100257 5.218663 L 5.142976 5.410348 L 5.185833 5.60162 L 5.228553 5.792203 L 5.27141 5.981407 L 5.314129 6.168683 L 5.356848 6.35334 L 5.399705 6.535103 L 5.442424 6.713146 L 5.485281 6.887054 L 5.528 7.056139 L 5.570719 7.220126 L 5.613576 7.378187 L 5.656296 7.529909 L 5.699153 7.675016 L 5.741872 7.812682 L 5.784591 7.942631 L 5.827448 8.06445 L 5.870167 8.177725 L 5.912886 8.281904 L 5.955743 8.376851 L 5.998462 8.462152 L 6.041319 8.53753 L 6.084039 8.602574 L 6.126758 8.657282 L 6.169615 8.701241 L 6.212334 8.734314 L 6.255191 8.756501 L 6.29791 8.767663 L 6.340629 8.767663 L 6.383486 8.756501 L 6.426206 8.734176 L 6.469062 8.700966 L 6.511782 8.656731 L 6.554501 8.601609 L 6.597358 8.535877 L 6.640077 8.459809 L 6.682934 8.373406 L 6.725653 8.277219 L 6.768372 8.171386 L 6.811229 8.056457 L 6.853949 7.932572 L 6.896806 7.80028 L 6.939525 7.659996 L 6.982244 7.51227 L 7.025101 7.357516 L 7.06782 7.196424 L 7.110677 7.029268 L 7.153396 6.856875 L 7.196115 6.679659 L 7.238972 6.498309 L 7.281692 6.313377 L 7.324411 6.12555 L 7.367268 5.935381 L 7.409987 5.743696 L 7.452844 5.550908 L 7.495563 5.357707 L 7.538282 5.164782 L 7.581139 4.972683 L 7.623859 4.782101 L 7.666715 4.593585 L 7.709435 4.407826 L 7.752154 4.225235 L 7.795011 4.046504 L 7.83773 3.872044 L 7.880587 3.702408 L 7.923306 3.538146 L 7.966025 3.379533 L 8.008882 3.22726 L 8.051602 3.081464 L 8.094459 2.942558 L 8.137178 2.810955 L 8.179897 2.686794 L 8.222754 2.570487 L 8.265473 2.462173 L 8.30833 2.36199 L 8.351049 2.270075 L 8.393768 2.186428 L 8.436625 2.111325 L 8.479345 2.044628 L 8.522202 1.986337 L 8.564921 1.936452 L 8.60764 1.894697 L 8.650497 1.861073 L 8.693216 1.835442 L 8.735935 1.817527 L 8.778792 1.807192 L 8.821512 1.804022 L 8.864368 1.807881 L 8.907088 1.818216 L 8.949807 1.835028 L 8.992664 1.857628 L 9.035383 1.885878 L 9.07824 1.919226 L 9.120959 1.957398 L 9.163678 1.999704 L 9.206535 2.046144 L 9.249255 2.095891 L 9.292112 2.14867 L 9.334831 2.203929 L 9.37755 2.261393 L 9.420407 2.320649 L 9.463126 2.381007 L 9.505983 2.44233 L 9.548702 2.503928 L 9.591421 2.565664 L 9.634278 2.626987 L 9.676998 2.68762 L 9.719855 2.747152 L 9.762574 2.805305 L 9.805293 2.861804 L 9.84815 2.916237 L 9.890869 2.968327 L 9.933726 3.018074 L 9.976445 3.065065 L 10.019164 3.109162 L 10.062021 3.150228 L 10.104741 3.188124 L 10.14746 3.222713 L 10.190317 3.253994 L 10.233036 3.281831 L 10.275893 3.306222 L 10.318612 3.327306 L 10.361331 3.344807 L 10.404188 3.358863 L 10.446908 3.369749 L 10.489765 3.377191 L 10.532484 3.3816 L 10.575203 3.382979 L 10.61806 3.381463 L 10.660779 3.377191 L 10.703636 3.370438 L 10.746355 3.361206 L 10.789074 3.34963 L 10.831931 3.336125 L 10.874651 3.320691 L 10.917508 3.303604 L 10.960227 3.285138 L 11.002946 3.265294 L 11.045803 3.244486 L 11.088522 3.22285 L 11.131379 3.200526 L 11.174098 3.177789 L 11.216817 3.154638 L 11.259674 3.131487 L 11.302394 3.108336 L 11.345251 3.08546 L 11.38797 3.06286 L 11.430689 3.040812 L 11.473546 3.019452 L 11.516265 2.998919 L 11.558984 2.979076 L 11.601841 2.960334 L 11.644561 2.942558 " transform="matrix(28.346457,0,0,-28.346457,1,256.11811)"/>
<path style="fill:none;stroke-width:0.05;stroke-linecap:butt;stroke-linejoin:miter;stroke:rgb(82%,37%,36%);stroke-opacity:1;stroke-miterlimit:10;" d="M 0.993979 2.942558 L 1.036836 2.924643 L 1.079555 2.90535 L 1.122274 2.88468 L 1.165131 2.862631 L 1.20785 2.839342 L 1.250707 2.814676 L 1.293427 2.788768 L 1.336146 2.761759 L 1.379003 2.733509 L 1.421722 2.704157 L 1.464441 2.67384 L 1.507298 2.642696 L 1.550017 2.610588 L 1.592874 2.577929 L 1.635594 2.54458 L 1.678313 2.51068 L 1.72117 2.476505 L 1.763889 2.442192 L 1.806746 2.407741 L 1.849465 2.37329 L 1.892184 2.339115 L 1.935041 2.305215 L 1.97776 2.271866 L 2.020617 2.239345 L 2.063337 2.207512 L 2.106056 2.176782 L 2.148913 2.147292 L 2.191632 2.119042 L 2.234489 2.092308 L 2.277208 2.067365 L 2.319927 2.044214 L 2.362784 2.02313 L 2.405503 2.004251 L 2.44836 1.987853 L 2.49108 1.973797 L 2.533799 1.962497 L 2.576656 1.953953 L 2.619375 1.948303 L 2.662232 1.945822 L 2.704951 1.946512 L 2.74767 1.950646 L 2.790527 1.958087 L 2.833247 1.969111 L 2.875966 1.983719 L 2.918823 2.002184 L 2.961542 2.024371 L 3.004399 2.050553 L 3.047118 2.080457 L 3.089837 2.114494 L 3.132694 2.152528 L 3.175413 2.194558 L 3.21827 2.240585 L 3.26099 2.290745 L 3.303709 2.34504 L 3.346566 2.403193 L 3.389285 2.465481 L 3.432142 2.531764 L 3.474861 2.601906 L 3.51758 2.676045 L 3.560437 2.753904 L 3.603156 2.835484 L 3.646013 2.920647 L 3.688733 3.00953 L 3.731452 3.101721 L 3.774309 3.197357 L 3.817028 3.296162 L 3.859885 3.398137 L 3.902604 3.503006 L 3.945323 3.61063 L 3.98818 3.721011 L 4.0309 3.833873 L 4.073757 3.949214 L 4.116476 4.066623 L 4.159195 4.186099 L 4.202052 4.307367 L 4.244771 4.430288 L 4.28749 4.554724 L 4.330347 4.680539 L 4.373066 4.807457 L 4.415923 4.935201 L 4.458643 5.063772 L 4.501362 5.192756 L 4.544219 5.322154 L 4.586938 5.451827 L 4.629795 5.581225 L 4.672514 5.710485 L 4.715233 5.839332 L 4.75809 5.967489 L 4.800809 6.09482 L 4.843666 6.221186 L 4.886386 6.346174 L 4.929105 6.469922 L 4.971962 6.592016 L 5.014681 6.712319 L 5.057538 6.830692 L 5.100257 6.946861 L 5.142976 7.060825 L 5.185833 7.172308 L 5.228553 7.281173 L 5.27141 7.387144 L 5.314129 7.490221 L 5.356848 7.590267 L 5.399705 7.687005 L 5.442424 7.780298 L 5.485281 7.870009 L 5.528 7.956274 L 5.570719 8.038543 L 5.613576 8.116953 L 5.656296 8.191505 L 5.699153 8.261785 L 5.741872 8.327793 L 5.784591 8.389667 L 5.827448 8.446993 L 5.870167 8.49991 L 5.912886 8.548141 L 5.955743 8.591825 L 5.998462 8.630824 L 6.041319 8.664999 L 6.084039 8.694489 L 6.126758 8.719018 L 6.169615 8.738724 L 6.212334 8.753607 L 6.255191 8.763391 L 6.29791 8.768352 L 6.340629 8.768352 L 6.383486 8.763391 L 6.426206 8.753607 L 6.469062 8.738724 L 6.511782 8.719018 L 6.554501 8.694489 L 6.597358 8.664999 L 6.640077 8.630824 L 6.682934 8.591825 L 6.725653 8.548141 L 6.768372 8.49991 L 6.811229 8.446993 L 6.853949 8.389667 L 6.896806 8.327793 L 6.939525 8.261785 L 6.982244 8.191505 L 7.025101 8.116953 L 7.06782 8.038543 L 7.110677 7.956274 L 7.153396 7.870009 L 7.196115 7.780298 L 7.238972 7.687005 L 7.281692 7.590267 L 7.324411 7.490221 L 7.367268 7.387144 L 7.409987 7.281173 L 7.452844 7.172308 L 7.495563 7.060825 L 7.538282 6.946861 L 7.581139 6.830692 L 7.623859 6.712319 L 7.666715 6.592016 L 7.709435 6.469922 L 7.752154 6.346174 L 7.795011 6.221186 L 7.83773 6.09482 L 7.880587 5.967489 L 7.923306 5.839332 L 7.966025 5.710485 L 8.008882 5.581225 L 8.051602 5.451827 L 8.094459 5.322154 L 8.137178 5.192756 L 8.179897 5.063772 L 8.222754 4.935201 L 8.265473 4.807457 L 8.30833 4.680539 L 8.351049 4.554724 L 8.393768 4.430288 L 8.436625 4.307367 L 8.479345 4.186099 L 8.522202 4.066623 L 8.564921 3.949214 L 8.60764 3.833873 L 8.650497 3.721011 L 8.693216 3.61063 L 8.735935 3.503006 L 8.778792 3.398137 L 8.821512 3.296162 L 8.864368 3.197357 L 8.907088 3.101721 L 8.949807 3.00953 L 8.992664 2.920647 L 9.035383 2.835484 L 9.07824 2.753904 L 9.120959 2.676045 L 9.163678 2.601906 L 9.206535 2.531764 L 9.249255 2.465481 L 9.292112 2.403193 L 9.334831 2.34504 L 9.37755 2.290745 L 9.420407 2.240585 L 9.463126 2.194558 L 9.505983 2.152528 L 9.548702 2.114494 L 9.591421 2.080457 L 9.634278 2.050553 L 9.676998 2.024371 L 9.719855 2.002184 L 9.762574 1.983719 L 9.805293 1.969111 L 9.84815 1.958087 L 9.890869 1.950646 L 9.933726 1.946512 L 9.976445 1.945822 L 10.019164 1.948303 L 10.062021 1.953953 L 10.104741 1.962497 L 10.14746 1.973797 L 10.190317 1.987853 L 10.233036 2.004251 L 10.275893 2.02313 L 10.318612 2.044214 L 10.361331 2.067365 L 10.404188 2.092308 L 10.446908 2.119042 L 10.489765 2.147292 L 10.532484 2.176782 L 10.575203 2.207512 L 10.61806 2.239345 L 10.660779 2.271866 L 10.703636 2.305215 L 10.746355 2.339115 L 10.789074 2.37329 L 10.831931 2.407741 L 10.874651 2.442192 L 10.917508 2.476505 L 10.960227 2.51068 L 11.002946 2.54458 L 11.045803 2.577929 L 11.088522 2.610588 L 11.131379 2.642696 L 11.174098 2.67384 L 11.216817 2.704157 L 11.259674 2.733509 L 11.302394 2.761759 L 11.345251 2.788768 L 11.38797 2.814676 L 11.430689 2.839342 L 11.473546 2.862631 L 11.516265 2.88468 L 11.558984 2.90535 L 11.601841 2.924643 L 11.644561 2.942558 " transform="matrix(28.346457,0,0,-28.346457,1,256.11811)"/>
</g>
</svg>
