<?xml version="1.0" encoding="UTF-8"?>
<svg xmlns="http://www.w3.org/2000/svg" xmlns:xlink="http://www.w3.org/1999/xlink" width="342.15748pt" height="257.11811pt" viewBox="0 0 342.15748 257.11811" version="1.1">
<g id="surface1">
<path style=" stroke:none;fill-rule:nonzero;fill:rgb(100%,100%,100%);fill-opacity:1;" d="M -0.417969 257.535156 L 342.574219 257.535156 L 342.574219 -0.417969 L -0.417969 -0.417969 Z M -0.417969 257.535156 "/>
<path style="fill:none;stroke-width:0.02;stroke-linecap:butt;stroke-linejoin:miter;stroke:rgb(0%,0%,0%);stroke-opacity:1;stroke-miterlimit:10;" d="M 0.645749 1.780044 L 0.750755 1.780044 " transform="matrix(28.346457,0,0,-28.346457,1,256.11811)"/>
<path style="fill:none;stroke-width:0.02;stroke-linecap:butt;stroke-linejoin:miter;stroke:rgb(0%,0%,0%);stroke-opacity:1;stroke-miterlimit:10;" d="M 0.645749 3.181647 L 0.750755 3.181647 " transform="matrix(28.346457,0,0,-28.346457,1,256.11811)"/>
<path style="fill:none;stroke-width:0.02;stroke-linecap:butt;stroke-linejoin:miter;stroke:rgb(0%,0%,0%);stroke-opacity:1;stroke-miterlimit:10;" d="M 0.645749 4.583388 L 0.750755 4.583388 " transform="matrix(28.346457,0,0,-28.346457,1,256.11811)"/>
<path style="fill:none;stroke-width:0.02;stroke-linecap:butt;stroke-linejoin:miter;stroke:rgb(0%,0%,0%);stroke-opacity:1;stroke-miterlimit:10;" d="M 0.645749 5.98499 L 0.750755 5.98499 " transform="matrix(28.346457,0,0,-28.346457,1,256.11811)"/>
<path style="fill:none;stroke-width:0.02;stroke-linecap:butt;stroke-linejoin:miter;stroke:rgb(0%,0%,0%);stroke-opacity:1;stroke-miterlimit:10;" d="M 0.645749 7.386593 L 0.750755 7.386593 " transform="matrix(28.346457,0,0,-28.346457,1,256.11811)"/>
<path style="fill:none;stroke-width:0.02;stroke-linecap:round;stroke-linejoin:miter;stroke:rgb(0%,0%,0%);stroke-opacity:1;stroke-miterlimit:10;" d="M 0.645749 0.378442 L 0.645749 8.788333 " transform="matrix(28.346457,0,0,-28.346457,1,256.11811)"/>
<path style=" stroke:none;fill-rule:nonzero;fill:rgb(0%,0%,0%);fill-opacity:1;" d="M 3.742188 246.03125 L 3.742188 246.476562 L 1.664062 246.476562 L 1.664062 246.03125 Z M 3.742188 246.03125 Z M 3.742188 246.03125 "/>
<path style=" stroke:none;fill-rule:nonzero;fill:rgb(0%,0%,0%);fill-opacity:1;" d="M 6.242188 242.648438 C 7.164062 242.671875 7.894531 243.617188 7.75 244.507812 C 7.65625 245.394531 6.820312 245.902344 6.226562 246.460938 L 5.972656 246.722656 L 5.941406 246.738281 L 5.621094 247.046875 L 5.597656 247.0625 L 5.28125 247.378906 L 5.25 247.394531 L 5.179688 247.46875 L 5.195312 247.476562 L 7.765625 247.476562 L 7.765625 248 L 4.621094 248 L 4.621094 247.523438 L 5.902344 246.246094 C 6.511719 245.714844 7.226562 245.023438 7.113281 244.148438 C 7.050781 243.640625 6.621094 243.171875 6.097656 243.132812 C 5.566406 243.054688 5.097656 243.476562 4.980469 243.984375 L 4.964844 244.007812 L 4.949219 244.0625 L 4.925781 244.148438 L 4.875 244.324219 L 4.867188 244.363281 C 4.757812 244.230469 4.636719 244.085938 4.550781 243.933594 C 4.710938 243.285156 5.234375 242.671875 5.925781 242.648438 Z M 6.242188 242.648438 Z M 6.242188 242.648438 "/>
<path style=" stroke:none;fill-rule:nonzero;fill:rgb(0%,0%,0%);fill-opacity:1;" d="M 9.605469 247.363281 L 9.605469 248 L 8.964844 248 L 8.964844 247.363281 Z M 9.605469 247.363281 Z M 9.605469 247.363281 "/>
<path style=" stroke:none;fill-rule:nonzero;fill:rgb(0%,0%,0%);fill-opacity:1;" d="M 12.496094 242.648438 C 13.25 242.707031 13.75 243.394531 13.886719 244.09375 C 13.957031 244.410156 13.972656 244.714844 14.003906 245.03125 L 14.003906 245.839844 C 13.964844 246.664062 13.765625 247.753906 12.871094 248.085938 C 12.089844 248.394531 11.179688 247.910156 10.949219 247.117188 C 10.773438 246.699219 10.757812 246.269531 10.71875 245.839844 L 10.71875 245.03125 C 10.757812 244.207031 10.933594 243.109375 11.820312 242.746094 L 11.859375 242.730469 L 11.894531 242.722656 L 11.933594 242.707031 L 12.050781 242.671875 L 12.125 242.65625 L 12.210938 242.65625 L 12.226562 242.648438 Z M 12.496094 242.648438 Z M 12.25 243.132812 C 11.582031 243.214844 11.386719 244.015625 11.335938 244.554688 L 11.335938 244.769531 L 11.320312 244.785156 L 11.320312 245.886719 C 11.367188 246.460938 11.410156 247.199219 11.933594 247.578125 C 12.417969 247.910156 13.058594 247.539062 13.195312 247.023438 C 13.335938 246.640625 13.371094 246.269531 13.402344 245.886719 L 13.402344 244.785156 C 13.351562 244.207031 13.273438 243.394531 12.605469 243.164062 L 12.550781 243.148438 L 12.535156 243.132812 L 12.464844 243.132812 L 12.449219 243.117188 L 12.265625 243.117188 Z M 12.25 243.132812 Z M 12.25 243.132812 "/>
<path style=" stroke:none;fill-rule:nonzero;fill:rgb(0%,0%,0%);fill-opacity:1;" d="M 3.742188 206.300781 L 3.742188 206.742188 L 1.664062 206.742188 L 1.664062 206.300781 Z M 3.742188 206.300781 Z M 3.742188 206.300781 "/>
<path style=" stroke:none;fill-rule:nonzero;fill:rgb(0%,0%,0%);fill-opacity:1;" d="M 6.574219 202.917969 L 6.574219 207.816406 L 6.582031 207.832031 L 7.558594 207.832031 L 7.558594 208.265625 L 4.980469 208.265625 L 4.980469 207.832031 L 5.957031 207.832031 L 5.972656 207.816406 L 5.972656 203.703125 C 5.636719 203.816406 5.289062 203.886719 4.941406 203.878906 L 4.941406 203.433594 C 5.464844 203.441406 6.035156 203.296875 6.433594 202.917969 Z M 6.574219 202.917969 Z M 6.574219 202.917969 "/>
<path style=" stroke:none;fill-rule:nonzero;fill:rgb(0%,0%,0%);fill-opacity:1;" d="M 9.605469 207.632812 L 9.605469 208.265625 L 8.964844 208.265625 L 8.964844 207.632812 Z M 9.605469 207.632812 Z M 9.605469 207.632812 "/>
<path style=" stroke:none;fill-rule:nonzero;fill:rgb(0%,0%,0%);fill-opacity:1;" d="M 13.671875 203.085938 L 13.671875 203.578125 L 11.605469 203.578125 L 11.589844 203.585938 L 11.589844 205.210938 C 11.78125 205.085938 12.050781 204.917969 12.304688 204.910156 C 13.203125 204.816406 13.894531 205.695312 13.933594 206.511719 C 14.058594 207.554688 13.082031 208.585938 12.035156 208.425781 C 11.511719 208.410156 11.003906 208.101562 10.703125 207.671875 C 10.789062 207.554688 10.859375 207.347656 10.964844 207.273438 C 11.335938 208.003906 12.542969 208.300781 13.027344 207.527344 C 13.335938 206.949219 13.328125 206.210938 12.972656 205.65625 C 12.558594 205.125 11.742188 205.449219 11.550781 206.011719 L 11.035156 206.011719 L 11.035156 203.085938 Z M 13.671875 203.085938 Z M 13.671875 203.085938 "/>
<path style=" stroke:none;fill-rule:nonzero;fill:rgb(0%,0%,0%);fill-opacity:1;" d="M 3.742188 166.566406 L 3.742188 167.011719 L 1.664062 167.011719 L 1.664062 166.566406 Z M 3.742188 166.566406 Z M 3.742188 166.566406 "/>
<path style=" stroke:none;fill-rule:nonzero;fill:rgb(0%,0%,0%);fill-opacity:1;" d="M 6.574219 163.1875 L 6.574219 168.082031 L 6.582031 168.097656 L 7.558594 168.097656 L 7.558594 168.535156 L 4.980469 168.535156 L 4.980469 168.097656 L 5.957031 168.097656 L 5.972656 168.082031 L 5.972656 163.972656 C 5.636719 164.082031 5.289062 164.152344 4.941406 164.144531 L 4.941406 163.703125 C 5.464844 163.710938 6.035156 163.566406 6.433594 163.1875 Z M 6.574219 163.1875 Z M 6.574219 163.1875 "/>
<path style=" stroke:none;fill-rule:nonzero;fill:rgb(0%,0%,0%);fill-opacity:1;" d="M 9.605469 167.902344 L 9.605469 168.535156 L 8.964844 168.535156 L 8.964844 167.902344 Z M 9.605469 167.902344 Z M 9.605469 167.902344 "/>
<path style=" stroke:none;fill-rule:nonzero;fill:rgb(0%,0%,0%);fill-opacity:1;" d="M 12.496094 163.1875 C 13.25 163.242188 13.75 163.933594 13.886719 164.628906 C 13.957031 164.949219 13.972656 165.25 14.003906 165.566406 L 14.003906 166.375 C 13.964844 167.203125 13.765625 168.289062 12.871094 168.621094 C 12.089844 168.933594 11.179688 168.449219 10.949219 167.65625 C 10.773438 167.234375 10.757812 166.804688 10.71875 166.375 L 10.71875 165.566406 C 10.757812 164.742188 10.933594 163.644531 11.820312 163.28125 L 11.859375 163.265625 L 11.894531 163.257812 L 11.933594 163.242188 L 12.050781 163.210938 L 12.125 163.195312 L 12.210938 163.195312 L 12.226562 163.1875 Z M 12.496094 163.1875 Z M 12.25 163.671875 C 11.582031 163.75 11.386719 164.550781 11.335938 165.089844 L 11.335938 165.304688 L 11.320312 165.320312 L 11.320312 166.425781 C 11.367188 166.996094 11.410156 167.734375 11.933594 168.113281 C 12.417969 168.449219 13.058594 168.074219 13.195312 167.558594 C 13.335938 167.179688 13.371094 166.804688 13.402344 166.425781 L 13.402344 165.320312 C 13.351562 164.742188 13.273438 163.933594 12.605469 163.703125 L 12.550781 163.6875 L 12.535156 163.671875 L 12.464844 163.671875 L 12.449219 163.652344 L 12.265625 163.652344 Z M 12.25 163.671875 Z M 12.25 163.671875 "/>
<path style=" stroke:none;fill-rule:nonzero;fill:rgb(0%,0%,0%);fill-opacity:1;" d="M 3.742188 126.835938 L 3.742188 127.28125 L 1.664062 127.28125 L 1.664062 126.835938 Z M 3.742188 126.835938 Z M 3.742188 126.835938 "/>
<path style=" stroke:none;fill-rule:nonzero;fill:rgb(0%,0%,0%);fill-opacity:1;" d="M 6.328125 123.453125 C 7.082031 123.507812 7.582031 124.199219 7.71875 124.898438 C 7.789062 125.214844 7.804688 125.519531 7.835938 125.835938 L 7.835938 126.644531 C 7.796875 127.46875 7.597656 128.558594 6.703125 128.890625 C 5.925781 129.199219 5.011719 128.714844 4.78125 127.921875 C 4.605469 127.503906 4.589844 127.074219 4.550781 126.644531 L 4.550781 125.835938 C 4.589844 125.011719 4.765625 123.914062 5.65625 123.550781 L 5.695312 123.535156 L 5.726562 123.527344 L 5.765625 123.507812 L 5.882812 123.476562 L 5.957031 123.460938 L 6.042969 123.460938 L 6.058594 123.453125 Z M 6.328125 123.453125 Z M 6.082031 123.9375 C 5.417969 124.019531 5.21875 124.820312 5.171875 125.359375 L 5.171875 125.574219 L 5.15625 125.589844 L 5.15625 126.691406 C 5.203125 127.265625 5.242188 128.003906 5.765625 128.382812 C 6.25 128.714844 6.894531 128.34375 7.027344 127.828125 C 7.171875 127.445312 7.203125 127.074219 7.234375 126.691406 L 7.234375 125.589844 C 7.1875 125.011719 7.105469 124.199219 6.441406 123.96875 L 6.382812 123.953125 L 6.367188 123.9375 L 6.296875 123.9375 L 6.28125 123.921875 L 6.097656 123.921875 Z M 6.082031 123.9375 Z M 6.082031 123.9375 "/>
<path style=" stroke:none;fill-rule:nonzero;fill:rgb(0%,0%,0%);fill-opacity:1;" d="M 9.605469 128.167969 L 9.605469 128.804688 L 8.964844 128.804688 L 8.964844 128.167969 Z M 9.605469 128.167969 Z M 9.605469 128.167969 "/>
<path style=" stroke:none;fill-rule:nonzero;fill:rgb(0%,0%,0%);fill-opacity:1;" d="M 13.671875 123.621094 L 13.671875 124.113281 L 11.605469 124.113281 L 11.589844 124.121094 L 11.589844 125.746094 C 11.78125 125.621094 12.050781 125.453125 12.304688 125.445312 C 13.203125 125.351562 13.894531 126.230469 13.933594 127.050781 C 14.058594 128.089844 13.082031 129.121094 12.035156 128.960938 C 11.511719 128.945312 11.003906 128.636719 10.703125 128.207031 C 10.789062 128.089844 10.859375 127.882812 10.964844 127.8125 C 11.335938 128.542969 12.542969 128.835938 13.027344 128.066406 C 13.335938 127.484375 13.328125 126.746094 12.972656 126.191406 C 12.558594 125.660156 11.742188 125.984375 11.550781 126.550781 L 11.035156 126.550781 L 11.035156 123.621094 Z M 13.671875 123.621094 Z M 13.671875 123.621094 "/>
<path style=" stroke:none;fill-rule:nonzero;fill:rgb(0%,0%,0%);fill-opacity:1;" d="M 6.328125 83.722656 C 7.082031 83.777344 7.582031 84.46875 7.71875 85.167969 C 7.789062 85.484375 7.804688 85.785156 7.835938 86.101562 L 7.835938 86.914062 C 7.796875 87.738281 7.597656 88.824219 6.703125 89.160156 C 5.925781 89.46875 5.011719 88.984375 4.78125 88.191406 C 4.605469 87.769531 4.589844 87.339844 4.550781 86.914062 L 4.550781 86.101562 C 4.589844 85.277344 4.765625 84.183594 5.65625 83.816406 L 5.695312 83.800781 L 5.726562 83.792969 L 5.765625 83.777344 L 5.882812 83.746094 L 5.957031 83.730469 L 6.042969 83.730469 L 6.058594 83.722656 Z M 6.328125 83.722656 Z M 6.082031 84.207031 C 5.417969 84.285156 5.21875 85.085938 5.171875 85.628906 L 5.171875 85.839844 L 5.15625 85.855469 L 5.15625 86.960938 C 5.203125 87.53125 5.242188 88.269531 5.765625 88.652344 C 6.25 88.984375 6.894531 88.613281 7.027344 88.09375 C 7.171875 87.714844 7.203125 87.339844 7.234375 86.960938 L 7.234375 85.855469 C 7.1875 85.277344 7.105469 84.46875 6.441406 84.238281 L 6.382812 84.222656 L 6.367188 84.207031 L 6.296875 84.207031 L 6.28125 84.191406 L 6.097656 84.191406 Z M 6.082031 84.207031 Z M 6.082031 84.207031 "/>
<path style=" stroke:none;fill-rule:nonzero;fill:rgb(0%,0%,0%);fill-opacity:1;" d="M 9.605469 88.4375 L 9.605469 89.070312 L 8.964844 89.070312 L 8.964844 88.4375 Z M 9.605469 88.4375 Z M 9.605469 88.4375 "/>
<path style=" stroke:none;fill-rule:nonzero;fill:rgb(0%,0%,0%);fill-opacity:1;" d="M 12.496094 83.722656 C 13.25 83.777344 13.75 84.46875 13.886719 85.167969 C 13.957031 85.484375 13.972656 85.785156 14.003906 86.101562 L 14.003906 86.914062 C 13.964844 87.738281 13.765625 88.824219 12.871094 89.160156 C 12.089844 89.46875 11.179688 88.984375 10.949219 88.191406 C 10.773438 87.769531 10.757812 87.339844 10.71875 86.914062 L 10.71875 86.101562 C 10.757812 85.277344 10.933594 84.183594 11.820312 83.816406 L 11.859375 83.800781 L 11.894531 83.792969 L 11.933594 83.777344 L 12.050781 83.746094 L 12.125 83.730469 L 12.210938 83.730469 L 12.226562 83.722656 Z M 12.496094 83.722656 Z M 12.25 84.207031 C 11.582031 84.285156 11.386719 85.085938 11.335938 85.628906 L 11.335938 85.839844 L 11.320312 85.855469 L 11.320312 86.960938 C 11.367188 87.53125 11.410156 88.269531 11.933594 88.652344 C 12.417969 88.984375 13.058594 88.613281 13.195312 88.09375 C 13.335938 87.714844 13.371094 87.339844 13.402344 86.960938 L 13.402344 85.855469 C 13.351562 85.277344 13.273438 84.46875 12.605469 84.238281 L 12.550781 84.222656 L 12.535156 84.207031 L 12.464844 84.207031 L 12.449219 84.191406 L 12.265625 84.191406 Z M 12.25 84.207031 Z M 12.25 84.207031 "/>
<path style=" stroke:none;fill-rule:nonzero;fill:rgb(0%,0%,0%);fill-opacity:1;" d="M 6.328125 43.992188 C 7.082031 44.046875 7.582031 44.738281 7.71875 45.433594 C 7.789062 45.753906 7.804688 46.054688 7.835938 46.371094 L 7.835938 47.179688 C 7.796875 48.007812 7.597656 49.09375 6.703125 49.425781 C 5.925781 49.738281 5.011719 49.253906 4.78125 48.460938 C 4.605469 48.039062 4.589844 47.609375 4.550781 47.179688 L 4.550781 46.371094 C 4.589844 45.546875 4.765625 44.449219 5.65625 44.085938 L 5.695312 44.070312 L 5.726562 44.0625 L 5.765625 44.046875 L 5.882812 44.015625 L 5.957031 44 L 6.042969 44 L 6.058594 43.992188 Z M 6.328125 43.992188 Z M 6.082031 44.476562 C 5.417969 44.554688 5.21875 45.355469 5.171875 45.894531 L 5.171875 46.109375 L 5.15625 46.125 L 5.15625 47.230469 C 5.203125 47.800781 5.242188 48.539062 5.765625 48.917969 C 6.25 49.253906 6.894531 48.878906 7.027344 48.363281 C 7.171875 47.984375 7.203125 47.609375 7.234375 47.230469 L 7.234375 46.125 C 7.1875 45.546875 7.105469 44.738281 6.441406 44.507812 L 6.382812 44.492188 L 6.367188 44.476562 L 6.296875 44.476562 L 6.28125 44.457031 L 6.097656 44.457031 Z M 6.082031 44.476562 Z M 6.082031 44.476562 "/>
<path style=" stroke:none;fill-rule:nonzero;fill:rgb(0%,0%,0%);fill-opacity:1;" d="M 9.605469 48.707031 L 9.605469 49.339844 L 8.964844 49.339844 L 8.964844 48.707031 Z M 9.605469 48.707031 Z M 9.605469 48.707031 "/>
<path style=" stroke:none;fill-rule:nonzero;fill:rgb(0%,0%,0%);fill-opacity:1;" d="M 13.671875 44.15625 L 13.671875 44.648438 L 11.605469 44.648438 L 11.589844 44.65625 L 11.589844 46.285156 C 11.78125 46.15625 12.050781 45.992188 12.304688 45.984375 C 13.203125 45.886719 13.894531 46.769531 13.933594 47.585938 C 14.058594 48.625 13.082031 49.65625 12.035156 49.5 C 11.511719 49.484375 11.003906 49.171875 10.703125 48.746094 C 10.789062 48.625 10.859375 48.417969 10.964844 48.347656 C 11.335938 49.078125 12.542969 49.371094 13.027344 48.601562 C 13.335938 48.023438 13.328125 47.285156 12.972656 46.730469 C 12.558594 46.195312 11.742188 46.523438 11.550781 47.085938 L 11.035156 47.085938 L 11.035156 44.15625 Z M 13.671875 44.15625 Z M 13.671875 44.15625 "/>
<path style=" stroke:none;fill-rule:nonzero;fill:rgb(0%,0%,0%);fill-opacity:1;" d="M 6.574219 4.257812 L 6.574219 9.15625 L 6.582031 9.171875 L 7.558594 9.171875 L 7.558594 9.609375 L 4.980469 9.609375 L 4.980469 9.171875 L 5.957031 9.171875 L 5.972656 9.15625 L 5.972656 5.042969 C 5.636719 5.15625 5.289062 5.226562 4.941406 5.21875 L 4.941406 4.773438 C 5.464844 4.78125 6.035156 4.640625 6.433594 4.257812 Z M 6.574219 4.257812 Z M 6.574219 4.257812 "/>
<path style=" stroke:none;fill-rule:nonzero;fill:rgb(0%,0%,0%);fill-opacity:1;" d="M 9.605469 8.972656 L 9.605469 9.609375 L 8.964844 9.609375 L 8.964844 8.972656 Z M 9.605469 8.972656 Z M 9.605469 8.972656 "/>
<path style=" stroke:none;fill-rule:nonzero;fill:rgb(0%,0%,0%);fill-opacity:1;" d="M 12.496094 4.257812 C 13.25 4.3125 13.75 5.003906 13.886719 5.703125 C 13.957031 6.019531 13.972656 6.324219 14.003906 6.640625 L 14.003906 7.449219 C 13.964844 8.273438 13.765625 9.363281 12.871094 9.695312 C 12.089844 10.003906 11.179688 9.519531 10.949219 8.726562 C 10.773438 8.304688 10.757812 7.878906 10.71875 7.449219 L 10.71875 6.640625 C 10.757812 5.8125 10.933594 4.71875 11.820312 4.355469 L 11.859375 4.339844 L 11.894531 4.332031 L 11.933594 4.3125 L 12.050781 4.28125 L 12.125 4.265625 L 12.210938 4.265625 L 12.226562 4.257812 Z M 12.496094 4.257812 Z M 12.25 4.742188 C 11.582031 4.820312 11.386719 5.625 11.335938 6.164062 L 11.335938 6.378906 L 11.320312 6.394531 L 11.320312 7.496094 C 11.367188 8.070312 11.410156 8.804688 11.933594 9.1875 C 12.417969 9.519531 13.058594 9.148438 13.195312 8.632812 C 13.335938 8.25 13.371094 7.878906 13.402344 7.496094 L 13.402344 6.394531 C 13.351562 5.8125 13.273438 5.003906 12.605469 4.773438 L 12.550781 4.757812 L 12.535156 4.742188 L 12.464844 4.742188 L 12.449219 4.726562 L 12.265625 4.726562 Z M 12.25 4.742188 Z M 12.25 4.742188 "/>
<path style="fill:none;stroke-width:0.02;stroke-linecap:butt;stroke-linejoin:miter;stroke:rgb(0%,0%,0%);stroke-opacity:1;stroke-miterlimit:10;" d="M 11.810063 1.780044 L 11.705056 1.780044 " transform="matrix(28.346457,0,0,-28.346457,1,256.11811)"/>
<path style="fill:none;stroke-width:0.02;stroke-linecap:butt;stroke-linejoin:miter;stroke:rgb(0%,0%,0%);stroke-opacity:1;stroke-miterlimit:10;" d="M 11.810063 3.181647 L 11.705056 3.181647 " transform="matrix(28.346457,0,0,-28.346457,1,256.11811)"/>
<path style="fill:none;stroke-width:0.02;stroke-linecap:butt;stroke-linejoin:miter;stroke:rgb(0%,0%,0%);stroke-opacity:1;stroke-miterlimit:10;" d="M 11.810063 4.583388 L 11.705056 4.583388 " transform="matrix(28.346457,0,0,-28.346457,1,256.11811)"/>
<path style="fill:none;stroke-width:0.02;stroke-linecap:butt;stroke-linejoin:miter;stroke:rgb(0%,0%,0%);stroke-opacity:1;stroke-miterlimit:10;" d="M 11.810063 5.98499 L 11.705056 5.98499 " transform="matrix(28.346457,0,0,-28.346457,1,256.11811)"/>
<path style="fill:none;stroke-width:0.02;stroke-linecap:butt;stroke-linejoin:miter;stroke:rgb(0%,0%,0%);stroke-opacity:1;stroke-miterlimit:10;" d="M 11.810063 7.386593 L 11.705056 7.386593 " transform="matrix(28.346457,0,0,-28.346457,1,256.11811)"/>
<path style="fill:none;stroke-width:0.02;stroke-linecap:round;stroke-linejoin:miter;stroke:rgb(0%,0%,0%);stroke-opacity:1;stroke-miterlimit:10;" d="M 11.810063 0.378442 L 11.810063 8.788333 " transform="matrix(28.346457,0,0,-28.346457,1,256.11811)"/>
<path style="fill:none;stroke-width:0.02;stroke-linecap:butt;stroke-linejoin:miter;stroke:rgb(0%,0%,0%);stroke-opacity:1;stroke-miterlimit:10;" d="M 2.506514 0.378442 L 2.506514 0.483448 " transform="matrix(28.346457,0,0,-28.346457,1,256.11811)"/>
<path style="fill:none;stroke-width:0.02;stroke-linecap:butt;stroke-linejoin:miter;stroke:rgb(0%,0%,0%);stroke-opacity:1;stroke-miterlimit:10;" d="M 4.367141 0.378442 L 4.367141 0.483448 " transform="matrix(28.346457,0,0,-28.346457,1,256.11811)"/>
<path style="fill:none;stroke-width:0.02;stroke-linecap:butt;stroke-linejoin:miter;stroke:rgb(0%,0%,0%);stroke-opacity:1;stroke-miterlimit:10;" d="M 6.227906 0.378442 L 6.227906 0.483448 " transform="matrix(28.346457,0,0,-28.346457,1,256.11811)"/>
<path style="fill:none;stroke-width:0.02;stroke-linecap:butt;stroke-linejoin:miter;stroke:rgb(0%,0%,0%);stroke-opacity:1;stroke-miterlimit:10;" d="M 8.088533 0.378442 L 8.088533 0.483448 " transform="matrix(28.346457,0,0,-28.346457,1,256.11811)"/>
<path style="fill:none;stroke-width:0.02;stroke-linecap:butt;stroke-linejoin:miter;stroke:rgb(0%,0%,0%);stroke-opacity:1;stroke-miterlimit:10;" d="M 9.949298 0.378442 L 9.949298 0.483448 " transform="matrix(28.346457,0,0,-28.346457,1,256.11811)"/>
<path style="fill:none;stroke-width:0.02;stroke-linecap:round;stroke-linejoin:miter;stroke:rgb(0%,0%,0%);stroke-opacity:1;stroke-miterlimit:10;" d="M 0.645749 0.378442 L 11.810063 0.378442 " transform="matrix(28.346457,0,0,-28.346457,1,256.11811)"/>
<path style=" stroke:none;fill-rule:nonzero;fill:rgb(0%,0%,0%);fill-opacity:1;" d="M 18.175781 253.589844 L 18.175781 254.035156 L 16.09375 254.035156 L 16.09375 253.589844 Z M 18.175781 253.589844 Z M 18.175781 253.589844 "/>
<path style=" stroke:none;fill-rule:nonzero;fill:rgb(0%,0%,0%);fill-opacity:1;" d="M 20.777344 250.210938 C 21.476562 250.242188 22.207031 250.882812 22.039062 251.621094 C 21.960938 252.121094 21.613281 252.535156 21.175781 252.757812 C 21.882812 252.980469 22.429688 253.726562 22.238281 254.464844 C 22.046875 255.425781 20.945312 255.957031 20.054688 255.664062 C 19.628906 255.535156 19.191406 255.265625 18.984375 254.867188 C 19.03125 254.75 19.015625 254.542969 19.070312 254.464844 C 19.492188 255.082031 20.382812 255.503906 21.078125 255.15625 C 21.84375 254.671875 21.722656 253.257812 20.800781 253.019531 L 20.730469 253.019531 L 20.714844 253.003906 L 19.976562 253.003906 L 19.976562 252.527344 C 20.429688 252.519531 20.992188 252.464844 21.246094 251.996094 C 21.515625 251.589844 21.492188 250.925781 20.976562 250.726562 C 20.367188 250.488281 19.613281 250.875 19.382812 251.496094 C 19.285156 251.359375 19.191406 251.226562 19.097656 251.082031 C 19.421875 250.496094 20.113281 250.144531 20.777344 250.210938 Z M 20.777344 250.210938 Z M 20.777344 250.210938 "/>
<path style=" stroke:none;fill-rule:nonzero;fill:rgb(0%,0%,0%);fill-opacity:1;" d="M 70.917969 253.589844 L 70.917969 254.035156 L 68.839844 254.035156 L 68.839844 253.589844 Z M 70.917969 253.589844 Z M 70.917969 253.589844 "/>
<path style=" stroke:none;fill-rule:nonzero;fill:rgb(0%,0%,0%);fill-opacity:1;" d="M 73.417969 250.210938 C 74.339844 250.234375 75.070312 251.179688 74.925781 252.066406 C 74.832031 252.957031 74 253.464844 73.402344 254.019531 L 73.148438 254.28125 L 73.117188 254.296875 L 72.800781 254.605469 L 72.777344 254.621094 L 72.460938 254.941406 L 72.425781 254.957031 L 72.355469 255.027344 L 72.371094 255.035156 L 74.945312 255.035156 L 74.945312 255.558594 L 71.800781 255.558594 L 71.800781 255.082031 L 73.078125 253.804688 C 73.6875 253.273438 74.402344 252.582031 74.292969 251.710938 C 74.230469 251.203125 73.800781 250.734375 73.277344 250.695312 C 72.746094 250.613281 72.277344 251.035156 72.15625 251.542969 L 72.140625 251.566406 L 72.125 251.621094 L 72.101562 251.710938 L 72.054688 251.882812 L 72.046875 251.925781 C 71.933594 251.789062 71.816406 251.644531 71.730469 251.496094 C 71.886719 250.84375 72.410156 250.234375 73.101562 250.210938 Z M 73.417969 250.210938 Z M 73.417969 250.210938 "/>
<path style=" stroke:none;fill-rule:nonzero;fill:rgb(0%,0%,0%);fill-opacity:1;" d="M 123.664062 253.589844 L 123.664062 254.035156 L 121.585938 254.035156 L 121.585938 253.589844 Z M 123.664062 253.589844 Z M 123.664062 253.589844 "/>
<path style=" stroke:none;fill-rule:nonzero;fill:rgb(0%,0%,0%);fill-opacity:1;" d="M 126.496094 250.210938 L 126.496094 255.105469 L 126.503906 255.121094 L 127.480469 255.121094 L 127.480469 255.558594 L 124.902344 255.558594 L 124.902344 255.121094 L 125.878906 255.121094 L 125.894531 255.105469 L 125.894531 250.996094 C 125.5625 251.105469 125.210938 251.179688 124.863281 251.171875 L 124.863281 250.726562 C 125.386719 250.734375 125.957031 250.589844 126.355469 250.210938 Z M 126.496094 250.210938 Z M 126.496094 250.210938 "/>
<path style=" stroke:none;fill-rule:nonzero;fill:rgb(0%,0%,0%);fill-opacity:1;" d="M 177.671875 250.210938 C 178.429688 250.265625 178.929688 250.957031 179.0625 251.652344 C 179.132812 251.972656 179.148438 252.273438 179.183594 252.589844 L 179.183594 253.398438 C 179.140625 254.226562 178.945312 255.3125 178.046875 255.644531 C 177.269531 255.957031 176.355469 255.472656 176.125 254.679688 C 175.953125 254.257812 175.9375 253.828125 175.894531 253.398438 L 175.894531 252.589844 C 175.9375 251.765625 176.109375 250.667969 177 250.304688 L 177.039062 250.289062 L 177.070312 250.28125 L 177.109375 250.265625 L 177.230469 250.234375 L 177.300781 250.21875 L 177.386719 250.21875 L 177.402344 250.210938 Z M 177.671875 250.210938 Z M 177.429688 250.695312 C 176.761719 250.773438 176.5625 251.574219 176.515625 252.113281 L 176.515625 252.328125 L 176.5 252.34375 L 176.5 253.449219 C 176.546875 254.019531 176.585938 254.757812 177.109375 255.136719 C 177.59375 255.472656 178.238281 255.097656 178.371094 254.582031 C 178.515625 254.203125 178.546875 253.828125 178.578125 253.449219 L 178.578125 252.34375 C 178.53125 251.765625 178.453125 250.957031 177.785156 250.726562 L 177.730469 250.710938 L 177.714844 250.695312 L 177.640625 250.695312 L 177.625 250.679688 L 177.445312 250.679688 Z M 177.429688 250.695312 Z M 177.429688 250.695312 "/>
<path style=" stroke:none;fill-rule:nonzero;fill:rgb(0%,0%,0%);fill-opacity:1;" d="M 230.664062 250.210938 L 230.664062 255.105469 L 230.671875 255.121094 L 231.648438 255.121094 L 231.648438 255.558594 L 229.070312 255.558594 L 229.070312 255.121094 L 230.046875 255.121094 L 230.0625 255.105469 L 230.0625 250.996094 C 229.726562 251.105469 229.378906 251.179688 229.027344 251.171875 L 229.027344 250.726562 C 229.554688 250.734375 230.125 250.589844 230.519531 250.210938 Z M 230.664062 250.210938 Z M 230.664062 250.210938 "/>
<path style=" stroke:none;fill-rule:nonzero;fill:rgb(0%,0%,0%);fill-opacity:1;" d="M 283.074219 250.210938 C 283.996094 250.234375 284.726562 251.179688 284.582031 252.066406 C 284.488281 252.957031 283.65625 253.464844 283.058594 254.019531 L 282.804688 254.28125 L 282.773438 254.296875 L 282.457031 254.605469 L 282.433594 254.621094 L 282.113281 254.941406 L 282.082031 254.957031 L 282.011719 255.027344 L 282.027344 255.035156 L 284.597656 255.035156 L 284.597656 255.558594 L 281.457031 255.558594 L 281.457031 255.082031 L 282.734375 253.804688 C 283.34375 253.273438 284.058594 252.582031 283.949219 251.710938 C 283.882812 251.203125 283.457031 250.734375 282.933594 250.695312 C 282.398438 250.613281 281.933594 251.035156 281.8125 251.542969 L 281.796875 251.566406 L 281.78125 251.621094 L 281.757812 251.710938 L 281.710938 251.882812 L 281.703125 251.925781 C 281.589844 251.789062 281.472656 251.644531 281.382812 251.496094 C 281.542969 250.84375 282.066406 250.234375 282.757812 250.210938 Z M 283.074219 250.210938 Z M 283.074219 250.210938 "/>
<path style=" stroke:none;fill-rule:nonzero;fill:rgb(0%,0%,0%);fill-opacity:1;" d="M 335.921875 250.210938 C 336.621094 250.242188 337.351562 250.882812 337.183594 251.621094 C 337.105469 252.121094 336.753906 252.535156 336.320312 252.757812 C 337.027344 252.980469 337.574219 253.726562 337.382812 254.464844 C 337.191406 255.425781 336.089844 255.957031 335.199219 255.664062 C 334.773438 255.535156 334.335938 255.265625 334.128906 254.867188 C 334.175781 254.75 334.160156 254.542969 334.214844 254.464844 C 334.636719 255.082031 335.527344 255.503906 336.222656 255.15625 C 336.984375 254.671875 336.867188 253.257812 335.945312 253.019531 L 335.875 253.019531 L 335.859375 253.003906 L 335.121094 253.003906 L 335.121094 252.527344 C 335.574219 252.519531 336.136719 252.464844 336.390625 251.996094 C 336.660156 251.589844 336.636719 250.925781 336.121094 250.726562 C 335.507812 250.488281 334.753906 250.875 334.527344 251.496094 C 334.429688 251.359375 334.335938 251.226562 334.238281 251.082031 C 334.566406 250.496094 335.253906 250.144531 335.921875 250.210938 Z M 335.921875 250.210938 Z M 335.921875 250.210938 "/>
<path style="fill:none;stroke-width:0.02;stroke-linecap:butt;stroke-linejoin:miter;stroke:rgb(0%,0%,0%);stroke-opacity:1;stroke-miterlimit:10;" d="M 2.506514 8.788333 L 2.506514 8.683327 " transform="matrix(28.346457,0,0,-28.346457,1,256.11811)"/>
<path style="fill:none;stroke-width:0.02;stroke-linecap:butt;stroke-linejoin:miter;stroke:rgb(0%,0%,0%);stroke-opacity:1;stroke-miterlimit:10;" d="M 4.367141 8.788333 L 4.367141 8.683327 " transform="matrix(28.346457,0,0,-28.346457,1,256.11811)"/>
<path style="fill:none;stroke-width:0.02;stroke-linecap:butt;stroke-linejoin:miter;stroke:rgb(0%,0%,0%);stroke-opacity:1;stroke-miterlimit:10;" d="M 6.227906 8.788333 L 6.227906 8.683327 " transform="matrix(28.346457,0,0,-28.346457,1,256.11811)"/>
<path style="fill:none;stroke-width:0.02;stroke-linecap:butt;stroke-linejoin:miter;stroke:rgb(0%,0%,0%);stroke-opacity:1;stroke-miterlimit:10;" d="M 8.088533 8.788333 L 8.088533 8.683327 " transform="matrix(28.346457,0,0,-28.346457,1,256.11811)"/>
<path style="fill:none;stroke-width:0.02;stroke-linecap:butt;stroke-linejoin:miter;stroke:rgb(0%,0%,0%);stroke-opacity:1;stroke-miterlimit:10;" d="M 9.949298 8.788333 L 9.949298 8.683327 " transform="matrix(28.346457,0,0,-28.346457,1,256.11811)"/>
<path style="fill:none;stroke-width:0.02;stroke-linecap:round;stroke-linejoin:miter;stroke:rgb(0%,0%,0%);stroke-opacity:1;stroke-miterlimit:10;" d="M 0.645749 8.788333 L 11.810063 8.788333 " transform="matrix(28.346457,0,0,-28.346457,1,256.11811)"/>
<path style="fill:none;stroke-width:0.05;stroke-linecap:butt;stroke-linejoin:miter;stroke:rgb(33%,47%,64%);stroke-opacity:1;stroke-miterlimit:10;" d="M 0.645749 5.985404 L 0.735459 5.985404 L 0.780245 5.985541 L 0.825169 5.985679 L 0.869956 5.985679 L 0.91488 5.985817 L 1.004452 5.986093 L 1.049376 5.98623 L 1.094162 5.986368 L 1.138949 5.986644 L 1.183873 5.986782 L 1.273445 5.987333 L 1.318369 5.987609 L 1.363155 5.988022 L 1.408079 5.988435 L 1.452866 5.988849 L 1.497652 5.9894 L 1.542576 5.989951 L 1.632148 5.991329 L 1.677072 5.992018 L 1.766645 5.993947 L 1.811569 5.99505 L 1.856355 5.99629 L 1.901279 5.99753 L 1.946066 5.999046 L 1.990852 6.0007 L 2.035776 6.002491 L 2.080562 6.004558 L 2.125348 6.006763 L 2.170272 6.009106 L 2.215059 6.011724 L 2.259845 6.014756 L 2.304769 6.017925 L 2.349555 6.02137 L 2.394341 6.025229 L 2.439265 6.029363 L 2.484052 6.033911 L 2.528976 6.038872 L 2.573762 6.044246 L 2.618548 6.050034 L 2.663472 6.056373 L 2.708258 6.063263 L 2.753045 6.070704 L 2.797969 6.078697 L 2.842755 6.087378 L 2.887541 6.096749 L 2.932465 6.106671 L 2.977252 6.117558 L 3.022176 6.128995 L 3.066962 6.141398 L 3.111748 6.154627 L 3.156672 6.168821 L 3.201458 6.183979 L 3.246245 6.200102 L 3.291169 6.21719 L 3.335955 6.23538 L 3.380741 6.254672 L 3.425665 6.275205 L 3.470451 6.29684 L 3.515375 6.319716 L 3.560162 6.343831 L 3.604948 6.369325 L 3.649872 6.396059 L 3.694658 6.424171 L 3.739444 6.453799 L 3.784368 6.484667 L 3.829155 6.517051 L 3.873941 6.550813 L 3.918865 6.585953 L 3.963651 6.622609 L 4.008575 6.66078 L 4.053362 6.70033 L 4.098148 6.741395 L 4.143072 6.783701 L 4.187858 6.827661 L 4.232644 6.87286 L 4.277568 6.9193 L 4.322355 6.967118 L 4.367141 7.016314 L 4.412065 7.066612 L 4.456851 7.118013 L 4.501775 7.170516 L 4.546561 7.223984 L 4.591348 7.278417 L 4.636272 7.333538 L 4.681058 7.389487 L 4.725844 7.446124 L 4.770768 7.503175 L 4.815554 7.560639 L 4.860341 7.618379 L 4.905265 7.676257 L 4.950051 7.734272 L 4.994837 7.792012 L 5.039761 7.849614 L 5.084548 7.906802 L 5.129472 7.963302 L 5.174258 8.01925 L 5.219044 8.074372 L 5.263968 8.128391 L 5.308754 8.181308 L 5.353541 8.232984 L 5.398465 8.283145 L 5.443251 8.331651 L 5.488037 8.378367 L 5.532961 8.423291 L 5.577747 8.466148 L 5.622671 8.5068 L 5.667458 8.54511 L 5.712244 8.581076 L 5.757168 8.614425 L 5.801954 8.645155 L 5.84674 8.673129 L 5.891664 8.69821 L 5.936451 8.720396 L 5.981237 8.739551 L 6.026161 8.755536 L 6.070947 8.76849 L 6.115871 8.778136 L 6.160658 8.784613 L 6.205444 8.78792 L 6.250368 8.78792 L 6.295154 8.784613 L 6.33994 8.778136 L 6.384864 8.76849 L 6.429651 8.755536 L 6.474437 8.739551 L 6.519361 8.720396 L 6.564147 8.69821 L 6.609071 8.673129 L 6.653857 8.645155 L 6.698644 8.614425 L 6.743568 8.581076 L 6.788354 8.54511 L 6.83314 8.5068 L 6.878064 8.466148 L 6.92285 8.423291 L 6.967637 8.378367 L 7.012561 8.331651 L 7.057347 8.283145 L 7.102271 8.232984 L 7.147057 8.181308 L 7.191844 8.128391 L 7.236768 8.074372 L 7.281554 8.01925 L 7.32634 7.963302 L 7.371264 7.906802 L 7.41605 7.849614 L 7.460837 7.792012 L 7.505761 7.734272 L 7.550547 7.676257 L 7.595471 7.618379 L 7.640257 7.560639 L 7.685043 7.503175 L 7.729967 7.446124 L 7.774754 7.389487 L 7.81954 7.333538 L 7.864464 7.278417 L 7.90925 7.223984 L 7.954036 7.170516 L 7.998961 7.118013 L 8.043747 7.066612 L 8.088533 7.016314 L 8.133457 6.967118 L 8.178243 6.9193 L 8.223167 6.87286 L 8.267954 6.827661 L 8.31274 6.783701 L 8.357664 6.741395 L 8.40245 6.70033 L 8.447236 6.66078 L 8.49216 6.622609 L 8.536947 6.585953 L 8.581733 6.550813 L 8.626657 6.517051 L 8.671443 6.484667 L 8.716367 6.453799 L 8.761153 6.424171 L 8.80594 6.396059 L 8.850864 6.369325 L 8.89565 6.343831 L 8.940436 6.319716 L 8.98536 6.29684 L 9.030146 6.275205 L 9.074933 6.254672 L 9.119857 6.23538 L 9.164643 6.21719 L 9.209567 6.200102 L 9.254353 6.183979 L 9.29914 6.168821 L 9.344064 6.154627 L 9.38885 6.141398 L 9.433636 6.128995 L 9.47856 6.117558 L 9.523346 6.106671 L 9.568133 6.096749 L 9.613057 6.087378 L 9.657843 6.078697 L 9.702767 6.070704 L 9.747553 6.063263 L 9.792339 6.056373 L 9.837263 6.050034 L 9.88205 6.044246 L 9.926836 6.038872 L 9.97176 6.033911 L 10.016546 6.029363 L 10.061332 6.025229 L 10.106257 6.02137 L 10.151043 6.017925 L 10.195967 6.014756 L 10.240753 6.011724 L 10.285539 6.009106 L 10.330463 6.006763 L 10.37525 6.004558 L 10.420036 6.002491 L 10.46496 6.0007 L 10.509746 5.999046 L 10.554532 5.99753 L 10.599456 5.99629 L 10.644243 5.99505 L 10.689029 5.993947 L 10.733953 5.992983 L 10.778739 5.992018 L 10.823663 5.991329 L 10.913236 5.989951 L 10.95816 5.9894 L 11.002946 5.988849 L 11.047732 5.988435 L 11.092656 5.988022 L 11.137442 5.987609 L 11.182229 5.987333 L 11.227153 5.987057 L 11.271939 5.986782 L 11.316863 5.986644 L 11.361649 5.986368 L 11.406436 5.98623 L 11.45136 5.986093 L 11.540932 5.985817 L 11.585856 5.985679 L 11.630642 5.985679 L 11.675429 5.985541 L 11.720353 5.985404 L 11.810063 5.985404 " transform="matrix(28.346457,0,0,-28.346457,1,256.11811)"/>
<path style="fill:none;stroke-width:0.05;stroke-linecap:butt;stroke-linejoin:miter;stroke:rgb(90%,57%,26%);stroke-opacity:1;stroke-miterlimit:10;" d="M 0.645749 0.378442 L 0.683783 0.43563 L 0.721679 0.492819 L 0.797746 0.607196 L 0.835642 0.664385 L 0.873676 0.721711 L 0.911572 0.7789 L 0.949606 0.836088 L 0.987502 0.893277 L 1.06357 1.007654 L 1.101466 1.06498 L 1.1395 1.122169 L 1.177396 1.179358 L 1.21543 1.236546 L 1.253326 1.293735 L 1.29136 1.350923 L 1.329256 1.40825 L 1.405323 1.522627 L 1.443219 1.579816 L 1.481253 1.637004 L 1.519149 1.694193 L 1.557183 1.751381 L 1.595079 1.808708 L 1.671147 1.923085 L 1.709043 1.980273 L 1.747077 2.037462 L 1.784973 2.094651 L 1.823007 2.151977 L 1.860903 2.209166 L 1.898937 2.266354 L 1.936833 2.323543 L 2.0129 2.43792 L 2.050796 2.495246 L 2.08883 2.552435 L 2.126726 2.609623 L 2.16476 2.666812 L 2.202656 2.724001 L 2.278724 2.838378 L 2.31662 2.895704 L 2.354654 2.952893 L 2.39255 3.010081 L 2.430584 3.06727 L 2.46848 3.124459 L 2.506514 3.181647 L 2.54441 3.238974 L 2.620477 3.353351 L 2.658373 3.410539 L 2.696407 3.467728 L 2.734303 3.524916 L 2.772337 3.582105 L 2.810233 3.639431 L 2.886301 3.753809 L 2.924197 3.810997 L 2.962231 3.868186 L 3.000127 3.925374 L 3.038161 3.982701 L 3.076057 4.039889 L 3.114091 4.097078 L 3.151987 4.154266 L 3.228054 4.268644 L 3.265951 4.32597 L 3.303984 4.383159 L 3.34188 4.440347 L 3.379914 4.497536 L 3.41781 4.554724 L 3.493878 4.669102 L 3.531774 4.726428 L 3.569808 4.783617 L 3.607704 4.840805 L 3.645738 4.897994 L 3.683634 4.955182 L 3.721668 5.012371 L 3.759564 5.069697 L 3.835632 5.184074 L 3.873528 5.241263 L 3.911561 5.298452 L 3.949457 5.35564 L 3.987491 5.412967 L 4.025387 5.470155 L 4.063421 5.527344 L 4.101317 5.584532 L 4.177385 5.69891 L 4.215281 5.756098 L 4.253315 5.813424 L 4.291211 5.870613 L 4.329245 5.927802 L 4.367141 5.98499 L 4.443209 6.099367 L 4.481105 6.156694 L 4.519138 6.213882 L 4.557035 6.271071 L 4.595068 6.32826 L 4.632964 6.385448 L 4.670998 6.442637 L 4.708894 6.499825 L 4.746928 6.557152 L 4.784962 6.61434 L 4.822858 6.671529 L 4.860892 6.728717 L 4.898788 6.785906 L 4.936822 6.843095 L 4.974718 6.900421 L 5.050786 7.014798 L 5.088682 7.071987 L 5.126715 7.129175 L 5.164612 7.186364 L 5.202645 7.24369 L 5.240541 7.300879 L 5.278575 7.358067 L 5.316471 7.415256 L 5.392539 7.529633 L 5.430435 7.586822 L 5.468469 7.644148 L 5.506365 7.701337 L 5.544399 7.758525 L 5.582295 7.815714 L 5.658363 7.930091 L 5.696259 7.987418 L 5.734293 8.044606 L 5.772189 8.101795 L 5.810222 8.158983 L 5.848118 8.216172 L 5.886152 8.27336 L 5.924048 8.330687 L 6.000116 8.445064 L 6.038012 8.502253 L 6.076046 8.559441 L 6.113942 8.61663 L 6.151976 8.66431 L 6.189872 8.692973 L 6.227906 8.702482 L 6.26594 8.692973 L 6.303836 8.66431 L 6.34187 8.61663 L 6.379766 8.559441 L 6.417799 8.502253 L 6.455696 8.445064 L 6.493729 8.387875 L 6.531625 8.330687 L 6.569659 8.27336 L 6.607693 8.216172 L 6.645589 8.158983 L 6.683623 8.101795 L 6.721519 8.044606 L 6.759553 7.987418 L 6.797449 7.930091 L 6.873517 7.815714 L 6.911413 7.758525 L 6.949447 7.701337 L 6.987343 7.644148 L 7.025377 7.586822 L 7.063273 7.529633 L 7.101306 7.472445 L 7.139202 7.415256 L 7.21527 7.300879 L 7.253166 7.24369 L 7.2912 7.186364 L 7.329096 7.129175 L 7.36713 7.071987 L 7.405026 7.014798 L 7.44306 6.95761 L 7.480956 6.900421 L 7.51899 6.843095 L 7.557024 6.785906 L 7.59492 6.728717 L 7.632954 6.671529 L 7.67085 6.61434 L 7.708883 6.557152 L 7.74678 6.499825 L 7.822847 6.385448 L 7.860743 6.32826 L 7.898777 6.271071 L 7.936673 6.213882 L 7.974707 6.156694 L 8.012603 6.099367 L 8.050637 6.042179 L 8.088533 5.98499 L 8.164601 5.870613 L 8.202497 5.813424 L 8.240531 5.756098 L 8.278427 5.69891 L 8.316461 5.641721 L 8.354357 5.584532 L 8.430424 5.470155 L 8.46832 5.412967 L 8.506354 5.35564 L 8.54425 5.298452 L 8.582284 5.241263 L 8.62018 5.184074 L 8.658214 5.126886 L 8.69611 5.069697 L 8.734144 5.012371 L 8.772178 4.955182 L 8.810074 4.897994 L 8.848108 4.840805 L 8.886004 4.783617 L 8.924038 4.726428 L 8.961934 4.669102 L 9.038001 4.554724 L 9.075897 4.497536 L 9.113931 4.440347 L 9.151827 4.383159 L 9.189861 4.32597 L 9.227757 4.268644 L 9.265791 4.211455 L 9.303687 4.154266 L 9.379755 4.039889 L 9.417651 3.982701 L 9.455685 3.925374 L 9.493581 3.868186 L 9.531615 3.810997 L 9.569511 3.753809 L 9.645578 3.639431 L 9.683474 3.582105 L 9.721508 3.524916 L 9.759404 3.467728 L 9.797438 3.410539 L 9.835334 3.353351 L 9.873368 3.296162 L 9.911264 3.238974 L 9.949298 3.181647 L 9.987332 3.124459 L 10.025228 3.06727 L 10.063262 3.010081 L 10.101158 2.952893 L 10.139192 2.895704 L 10.177088 2.838378 L 10.253155 2.724001 L 10.291051 2.666812 L 10.329085 2.609623 L 10.366981 2.552435 L 10.405015 2.495246 L 10.442911 2.43792 L 10.480945 2.380731 L 10.518841 2.323543 L 10.594909 2.209166 L 10.632805 2.151977 L 10.670839 2.094651 L 10.708735 2.037462 L 10.746769 1.980273 L 10.784665 1.923085 L 10.822699 1.865896 L 10.860595 1.808708 L 10.898628 1.751381 L 10.936662 1.694193 L 10.974558 1.637004 L 11.012592 1.579816 L 11.050488 1.522627 L 11.088522 1.465438 L 11.126418 1.40825 L 11.164452 1.350923 L 11.202486 1.293735 L 11.240382 1.236546 L 11.278416 1.179358 L 11.316312 1.122169 L 11.354346 1.06498 L 11.392242 1.007654 L 11.430276 0.950465 L 11.468172 0.893277 L 11.544239 0.7789 L 11.582135 0.721711 L 11.620169 0.664385 L 11.658065 0.607196 L 11.696099 0.550008 L 11.733995 0.492819 L 11.810063 0.378442 " transform="matrix(28.346457,0,0,-28.346457,1,256.11811)"/>
</g>
</svg>
