<?xml version="1.0" encoding="UTF-8"?>
<svg xmlns="http://www.w3.org/2000/svg" xmlns:xlink="http://www.w3.org/1999/xlink" width="342.15748pt" height="257.11811pt" viewBox="0 0 342.15748 257.11811" version="1.1">
<g id="surface1">
<path style=" stroke:none;fill-rule:nonzero;fill:rgb(100%,100%,100%);fill-opacity:1;" d="M -0.417969 257.535156 L 342.574219 257.535156 L 342.574219 -0.417969 L -0.417969 -0.417969 Z M -0.417969 257.535156 "/>
<path style="fill:none;stroke-width:0.02;stroke-linecap:butt;stroke-linejoin:miter;stroke:rgb(0%,0%,0%);stroke-opacity:1;stroke-miterlimit:10;" d="M 0.645749 1.219459 L 0.750755 1.219459 " transform="matrix(28.346457,0,0,-28.346457,1,256.11811)"/>
<path style="fill:none;stroke-width:0.02;stroke-linecap:butt;stroke-linejoin:miter;stroke:rgb(0%,0%,0%);stroke-opacity:1;stroke-miterlimit:10;" d="M 0.645749 2.060337 L 0.750755 2.060337 " transform="matrix(28.346457,0,0,-28.346457,1,256.11811)"/>
<path style="fill:none;stroke-width:0.02;stroke-linecap:butt;stroke-linejoin:miter;stroke:rgb(0%,0%,0%);stroke-opacity:1;stroke-miterlimit:10;" d="M 0.645749 2.901354 L 0.750755 2.901354 " transform="matrix(28.346457,0,0,-28.346457,1,256.11811)"/>
<path style="fill:none;stroke-width:0.02;stroke-linecap:butt;stroke-linejoin:miter;stroke:rgb(0%,0%,0%);stroke-opacity:1;stroke-miterlimit:10;" d="M 0.645749 3.742371 L 0.750755 3.742371 " transform="matrix(28.346457,0,0,-28.346457,1,256.11811)"/>
<path style="fill:none;stroke-width:0.02;stroke-linecap:butt;stroke-linejoin:miter;stroke:rgb(0%,0%,0%);stroke-opacity:1;stroke-miterlimit:10;" d="M 0.645749 4.583388 L 0.750755 4.583388 " transform="matrix(28.346457,0,0,-28.346457,1,256.11811)"/>
<path style="fill:none;stroke-width:0.02;stroke-linecap:butt;stroke-linejoin:miter;stroke:rgb(0%,0%,0%);stroke-opacity:1;stroke-miterlimit:10;" d="M 0.645749 5.424404 L 0.750755 5.424404 " transform="matrix(28.346457,0,0,-28.346457,1,256.11811)"/>
<path style="fill:none;stroke-width:0.02;stroke-linecap:butt;stroke-linejoin:miter;stroke:rgb(0%,0%,0%);stroke-opacity:1;stroke-miterlimit:10;" d="M 0.645749 6.265283 L 0.750755 6.265283 " transform="matrix(28.346457,0,0,-28.346457,1,256.11811)"/>
<path style="fill:none;stroke-width:0.02;stroke-linecap:butt;stroke-linejoin:miter;stroke:rgb(0%,0%,0%);stroke-opacity:1;stroke-miterlimit:10;" d="M 0.645749 7.1063 L 0.750755 7.1063 " transform="matrix(28.346457,0,0,-28.346457,1,256.11811)"/>
<path style="fill:none;stroke-width:0.02;stroke-linecap:butt;stroke-linejoin:miter;stroke:rgb(0%,0%,0%);stroke-opacity:1;stroke-miterlimit:10;" d="M 0.645749 7.947317 L 0.750755 7.947317 " transform="matrix(28.346457,0,0,-28.346457,1,256.11811)"/>
<path style="fill:none;stroke-width:0.02;stroke-linecap:round;stroke-linejoin:miter;stroke:rgb(0%,0%,0%);stroke-opacity:1;stroke-miterlimit:10;" d="M 0.645749 0.378442 L 0.645749 8.788333 " transform="matrix(28.346457,0,0,-28.346457,1,256.11811)"/>
<path style=" stroke:none;fill-rule:nonzero;fill:rgb(0%,0%,0%);fill-opacity:1;" d="M 3.742188 246.03125 L 3.742188 246.476562 L 1.664062 246.476562 L 1.664062 246.03125 Z M 3.742188 246.03125 Z M 3.742188 246.03125 "/>
<path style=" stroke:none;fill-rule:nonzero;fill:rgb(0%,0%,0%);fill-opacity:1;" d="M 6.574219 242.648438 L 6.574219 247.546875 L 6.582031 247.5625 L 7.558594 247.5625 L 7.558594 248 L 4.980469 248 L 4.980469 247.5625 L 5.957031 247.5625 L 5.972656 247.546875 L 5.972656 243.433594 C 5.636719 243.546875 5.289062 243.617188 4.941406 243.609375 L 4.941406 243.164062 C 5.464844 243.171875 6.035156 243.03125 6.433594 242.648438 Z M 6.574219 242.648438 Z M 6.574219 242.648438 "/>
<path style=" stroke:none;fill-rule:nonzero;fill:rgb(0%,0%,0%);fill-opacity:1;" d="M 9.605469 247.363281 L 9.605469 248 L 8.964844 248 L 8.964844 247.363281 Z M 9.605469 247.363281 Z M 9.605469 247.363281 "/>
<path style=" stroke:none;fill-rule:nonzero;fill:rgb(0%,0%,0%);fill-opacity:1;" d="M 12.496094 242.648438 C 13.25 242.707031 13.75 243.394531 13.886719 244.09375 C 13.957031 244.410156 13.972656 244.714844 14.003906 245.03125 L 14.003906 245.839844 C 13.964844 246.664062 13.765625 247.753906 12.871094 248.085938 C 12.089844 248.394531 11.179688 247.910156 10.949219 247.117188 C 10.773438 246.699219 10.757812 246.269531 10.71875 245.839844 L 10.71875 245.03125 C 10.757812 244.207031 10.933594 243.109375 11.820312 242.746094 L 11.859375 242.730469 L 11.894531 242.722656 L 11.933594 242.707031 L 12.050781 242.671875 L 12.125 242.65625 L 12.210938 242.65625 L 12.226562 242.648438 Z M 12.496094 242.648438 Z M 12.25 243.132812 C 11.582031 243.214844 11.386719 244.015625 11.335938 244.554688 L 11.335938 244.769531 L 11.320312 244.785156 L 11.320312 245.886719 C 11.367188 246.460938 11.410156 247.199219 11.933594 247.578125 C 12.417969 247.910156 13.058594 247.539062 13.195312 247.023438 C 13.335938 246.640625 13.371094 246.269531 13.402344 245.886719 L 13.402344 244.785156 C 13.351562 244.207031 13.273438 243.394531 12.605469 243.164062 L 12.550781 243.148438 L 12.535156 243.132812 L 12.464844 243.132812 L 12.449219 243.117188 L 12.265625 243.117188 Z M 12.25 243.132812 Z M 12.25 243.132812 "/>
<path style=" stroke:none;fill-rule:nonzero;fill:rgb(0%,0%,0%);fill-opacity:1;" d="M 3.742188 222.191406 L 3.742188 222.636719 L 1.664062 222.636719 L 1.664062 222.191406 Z M 3.742188 222.191406 Z M 3.742188 222.191406 "/>
<path style=" stroke:none;fill-rule:nonzero;fill:rgb(0%,0%,0%);fill-opacity:1;" d="M 6.328125 218.808594 C 7.082031 218.867188 7.582031 219.554688 7.71875 220.253906 C 7.789062 220.574219 7.804688 220.875 7.835938 221.191406 L 7.835938 222 C 7.796875 222.828125 7.597656 223.914062 6.703125 224.246094 C 5.925781 224.558594 5.011719 224.074219 4.78125 223.277344 C 4.605469 222.859375 4.589844 222.429688 4.550781 222 L 4.550781 221.191406 C 4.589844 220.367188 4.765625 219.269531 5.65625 218.90625 L 5.695312 218.890625 L 5.726562 218.882812 L 5.765625 218.867188 L 5.882812 218.835938 L 5.957031 218.820312 L 6.042969 218.820312 L 6.058594 218.808594 Z M 6.328125 218.808594 Z M 6.082031 219.292969 C 5.417969 219.375 5.21875 220.175781 5.171875 220.714844 L 5.171875 220.929688 L 5.15625 220.945312 L 5.15625 222.046875 C 5.203125 222.621094 5.242188 223.359375 5.765625 223.738281 C 6.25 224.074219 6.894531 223.699219 7.027344 223.183594 C 7.171875 222.804688 7.203125 222.429688 7.234375 222.046875 L 7.234375 220.945312 C 7.1875 220.367188 7.105469 219.554688 6.441406 219.328125 L 6.382812 219.308594 L 6.367188 219.292969 L 6.296875 219.292969 L 6.28125 219.277344 L 6.097656 219.277344 Z M 6.082031 219.292969 Z M 6.082031 219.292969 "/>
<path style=" stroke:none;fill-rule:nonzero;fill:rgb(0%,0%,0%);fill-opacity:1;" d="M 9.605469 223.523438 L 9.605469 224.160156 L 8.964844 224.160156 L 8.964844 223.523438 Z M 9.605469 223.523438 Z M 9.605469 223.523438 "/>
<path style=" stroke:none;fill-rule:nonzero;fill:rgb(0%,0%,0%);fill-opacity:1;" d="M 12.511719 218.808594 C 13.351562 218.84375 14.148438 219.746094 13.8125 220.589844 C 13.671875 220.976562 13.273438 221.214844 12.949219 221.382812 C 13.757812 221.621094 14.25 222.566406 13.886719 223.34375 C 13.503906 224.351562 12.058594 224.667969 11.265625 223.9375 C 10.542969 223.367188 10.519531 222.128906 11.320312 221.621094 C 11.441406 221.492188 11.664062 221.453125 11.765625 221.359375 C 11.074219 221.160156 10.605469 220.359375 10.933594 219.683594 C 11.195312 219.082031 11.871094 218.746094 12.511719 218.808594 Z M 12.511719 218.808594 Z M 12.210938 219.261719 C 11.625 219.277344 11.210938 219.945312 11.410156 220.46875 C 11.640625 221.375 13.15625 221.34375 13.328125 220.414062 C 13.488281 219.898438 13.074219 219.277344 12.511719 219.261719 L 12.496094 219.253906 L 12.226562 219.253906 Z M 12.210938 219.261719 Z M 12.226562 221.621094 C 11.535156 221.667969 11.195312 222.492188 11.378906 223.082031 C 11.496094 223.914062 12.6875 224.160156 13.15625 223.492188 C 13.605469 222.882812 13.386719 221.785156 12.566406 221.621094 L 12.496094 221.621094 L 12.480469 221.605469 L 12.234375 221.605469 Z M 12.226562 221.621094 Z M 12.226562 221.621094 "/>
<path style=" stroke:none;fill-rule:nonzero;fill:rgb(0%,0%,0%);fill-opacity:1;" d="M 3.742188 198.351562 L 3.742188 198.796875 L 1.664062 198.796875 L 1.664062 198.351562 Z M 3.742188 198.351562 Z M 3.742188 198.351562 "/>
<path style=" stroke:none;fill-rule:nonzero;fill:rgb(0%,0%,0%);fill-opacity:1;" d="M 6.328125 194.972656 C 7.082031 195.027344 7.582031 195.71875 7.71875 196.414062 C 7.789062 196.734375 7.804688 197.035156 7.835938 197.351562 L 7.835938 198.160156 C 7.796875 198.988281 7.597656 200.074219 6.703125 200.410156 C 5.925781 200.71875 5.011719 200.234375 4.78125 199.441406 C 4.605469 199.019531 4.589844 198.589844 4.550781 198.160156 L 4.550781 197.351562 C 4.589844 196.527344 4.765625 195.433594 5.65625 195.066406 L 5.695312 195.050781 L 5.726562 195.042969 L 5.765625 195.027344 L 5.882812 194.996094 L 5.957031 194.980469 L 6.042969 194.980469 L 6.058594 194.972656 Z M 6.328125 194.972656 Z M 6.082031 195.457031 C 5.417969 195.535156 5.21875 196.335938 5.171875 196.875 L 5.171875 197.089844 L 5.15625 197.105469 L 5.15625 198.210938 C 5.203125 198.78125 5.242188 199.519531 5.765625 199.898438 C 6.25 200.234375 6.894531 199.859375 7.027344 199.34375 C 7.171875 198.964844 7.203125 198.589844 7.234375 198.210938 L 7.234375 197.105469 C 7.1875 196.527344 7.105469 195.71875 6.441406 195.488281 L 6.382812 195.472656 L 6.367188 195.457031 L 6.296875 195.457031 L 6.28125 195.441406 L 6.097656 195.441406 Z M 6.082031 195.457031 Z M 6.082031 195.457031 "/>
<path style=" stroke:none;fill-rule:nonzero;fill:rgb(0%,0%,0%);fill-opacity:1;" d="M 9.605469 199.6875 L 9.605469 200.320312 L 8.964844 200.320312 L 8.964844 199.6875 Z M 9.605469 199.6875 Z M 9.605469 199.6875 "/>
<path style=" stroke:none;fill-rule:nonzero;fill:rgb(0%,0%,0%);fill-opacity:1;" d="M 13.011719 194.972656 C 13.21875 195.003906 13.457031 195.027344 13.65625 195.121094 L 13.65625 195.582031 C 13.105469 195.34375 12.394531 195.3125 11.964844 195.796875 C 11.582031 196.203125 11.410156 196.804688 11.394531 197.335938 C 11.851562 196.726562 12.894531 196.382812 13.457031 197.019531 C 14.019531 197.671875 14.117188 198.605469 13.863281 199.398438 C 13.582031 200.035156 12.941406 200.613281 12.226562 200.480469 C 11.257812 200.398438 10.820312 199.320312 10.773438 198.496094 C 10.589844 197.328125 10.867188 195.859375 11.980469 195.195312 L 11.996094 195.1875 L 12.164062 195.097656 L 12.210938 195.082031 L 12.234375 195.066406 L 12.480469 194.996094 L 12.550781 194.980469 L 12.640625 194.980469 L 12.65625 194.972656 Z M 13.011719 194.972656 Z M 12.234375 197.179688 C 11.542969 197.296875 11.320312 198.128906 11.410156 198.695312 C 11.449219 199.226562 11.65625 199.933594 12.265625 200.042969 C 12.917969 200.128906 13.335938 199.433594 13.351562 198.867188 C 13.386719 198.296875 13.351562 197.644531 12.851562 197.273438 L 12.742188 197.21875 L 12.65625 197.195312 L 12.582031 197.179688 L 12.566406 197.160156 L 12.25 197.160156 Z M 12.234375 197.179688 Z M 12.234375 197.179688 "/>
<path style=" stroke:none;fill-rule:nonzero;fill:rgb(0%,0%,0%);fill-opacity:1;" d="M 3.742188 174.511719 L 3.742188 174.957031 L 1.664062 174.957031 L 1.664062 174.511719 Z M 3.742188 174.511719 Z M 3.742188 174.511719 "/>
<path style=" stroke:none;fill-rule:nonzero;fill:rgb(0%,0%,0%);fill-opacity:1;" d="M 6.328125 171.132812 C 7.082031 171.1875 7.582031 171.878906 7.71875 172.578125 C 7.789062 172.894531 7.804688 173.195312 7.835938 173.511719 L 7.835938 174.324219 C 7.796875 175.148438 7.597656 176.234375 6.703125 176.570312 C 5.925781 176.878906 5.011719 176.394531 4.78125 175.601562 C 4.605469 175.179688 4.589844 174.75 4.550781 174.324219 L 4.550781 173.511719 C 4.589844 172.6875 4.765625 171.59375 5.65625 171.226562 L 5.695312 171.210938 L 5.726562 171.203125 L 5.765625 171.1875 L 5.882812 171.15625 L 5.957031 171.140625 L 6.042969 171.140625 L 6.058594 171.132812 Z M 6.328125 171.132812 Z M 6.082031 171.617188 C 5.417969 171.695312 5.21875 172.496094 5.171875 173.039062 L 5.171875 173.25 L 5.15625 173.265625 L 5.15625 174.371094 C 5.203125 174.941406 5.242188 175.679688 5.765625 176.0625 C 6.25 176.394531 6.894531 176.023438 7.027344 175.503906 C 7.171875 175.125 7.203125 174.75 7.234375 174.371094 L 7.234375 173.265625 C 7.1875 172.6875 7.105469 171.878906 6.441406 171.648438 L 6.382812 171.632812 L 6.367188 171.617188 L 6.296875 171.617188 L 6.28125 171.601562 L 6.097656 171.601562 Z M 6.082031 171.617188 Z M 6.082031 171.617188 "/>
<path style=" stroke:none;fill-rule:nonzero;fill:rgb(0%,0%,0%);fill-opacity:1;" d="M 9.605469 175.847656 L 9.605469 176.480469 L 8.964844 176.480469 L 8.964844 175.847656 Z M 9.605469 175.847656 Z M 9.605469 175.847656 "/>
<path style=" stroke:none;fill-rule:nonzero;fill:rgb(0%,0%,0%);fill-opacity:1;" d="M 13.3125 171.300781 L 13.3125 174.640625 L 13.328125 174.65625 L 14.117188 174.65625 L 14.117188 175.132812 L 13.328125 175.132812 L 13.3125 175.140625 L 13.3125 176.480469 L 12.710938 176.480469 L 12.710938 175.140625 L 12.695312 175.132812 L 10.597656 175.132812 L 10.597656 174.640625 C 11.265625 173.527344 11.933594 172.410156 12.597656 171.300781 Z M 13.3125 171.300781 Z M 12.726562 171.601562 C 12.566406 172.425781 12.058594 173.132812 11.679688 173.855469 C 11.527344 174.117188 11.328125 174.402344 11.21875 174.65625 L 12.742188 174.65625 L 12.75 174.640625 L 12.75 171.601562 L 12.742188 171.585938 Z M 12.726562 171.601562 Z M 12.726562 171.601562 "/>
<path style=" stroke:none;fill-rule:nonzero;fill:rgb(0%,0%,0%);fill-opacity:1;" d="M 3.742188 150.675781 L 3.742188 151.117188 L 1.664062 151.117188 L 1.664062 150.675781 Z M 3.742188 150.675781 Z M 3.742188 150.675781 "/>
<path style=" stroke:none;fill-rule:nonzero;fill:rgb(0%,0%,0%);fill-opacity:1;" d="M 6.328125 147.292969 C 7.082031 147.347656 7.582031 148.039062 7.71875 148.738281 C 7.789062 149.054688 7.804688 149.355469 7.835938 149.675781 L 7.835938 150.484375 C 7.796875 151.308594 7.597656 152.398438 6.703125 152.730469 C 5.925781 153.039062 5.011719 152.554688 4.78125 151.761719 C 4.605469 151.339844 4.589844 150.914062 4.550781 150.484375 L 4.550781 149.675781 C 4.589844 148.847656 4.765625 147.753906 5.65625 147.386719 L 5.695312 147.371094 L 5.726562 147.363281 L 5.765625 147.347656 L 5.882812 147.316406 L 5.957031 147.300781 L 6.042969 147.300781 L 6.058594 147.292969 Z M 6.328125 147.292969 Z M 6.082031 147.777344 C 5.417969 147.855469 5.21875 148.660156 5.171875 149.199219 L 5.171875 149.414062 L 5.15625 149.429688 L 5.15625 150.53125 C 5.203125 151.101562 5.242188 151.839844 5.765625 152.222656 C 6.25 152.554688 6.894531 152.183594 7.027344 151.667969 C 7.171875 151.285156 7.203125 150.914062 7.234375 150.53125 L 7.234375 149.429688 C 7.1875 148.847656 7.105469 148.039062 6.441406 147.808594 L 6.382812 147.792969 L 6.367188 147.777344 L 6.296875 147.777344 L 6.28125 147.761719 L 6.097656 147.761719 Z M 6.082031 147.777344 Z M 6.082031 147.777344 "/>
<path style=" stroke:none;fill-rule:nonzero;fill:rgb(0%,0%,0%);fill-opacity:1;" d="M 9.605469 152.007812 L 9.605469 152.644531 L 8.964844 152.644531 L 8.964844 152.007812 Z M 9.605469 152.007812 Z M 9.605469 152.007812 "/>
<path style=" stroke:none;fill-rule:nonzero;fill:rgb(0%,0%,0%);fill-opacity:1;" d="M 12.410156 147.292969 C 13.328125 147.316406 14.058594 148.261719 13.917969 149.152344 C 13.820312 150.039062 12.988281 150.546875 12.394531 151.101562 L 12.140625 151.363281 L 12.105469 151.378906 L 11.789062 151.691406 L 11.765625 151.707031 L 11.449219 152.023438 L 11.417969 152.039062 L 11.34375 152.109375 L 11.359375 152.117188 L 13.933594 152.117188 L 13.933594 152.644531 L 10.789062 152.644531 L 10.789062 152.167969 L 12.066406 150.890625 C 12.679688 150.355469 13.394531 149.667969 13.28125 148.792969 C 13.21875 148.285156 12.789062 147.816406 12.265625 147.777344 C 11.734375 147.699219 11.265625 148.117188 11.148438 148.625 L 11.132812 148.652344 L 11.113281 148.707031 L 11.089844 148.792969 L 11.042969 148.96875 L 11.035156 149.007812 C 10.925781 148.871094 10.804688 148.730469 10.71875 148.578125 C 10.878906 147.929688 11.402344 147.316406 12.089844 147.292969 Z M 12.410156 147.292969 Z M 12.410156 147.292969 "/>
<path style=" stroke:none;fill-rule:nonzero;fill:rgb(0%,0%,0%);fill-opacity:1;" d="M 6.328125 123.453125 C 7.082031 123.507812 7.582031 124.199219 7.71875 124.898438 C 7.789062 125.214844 7.804688 125.519531 7.835938 125.835938 L 7.835938 126.644531 C 7.796875 127.46875 7.597656 128.558594 6.703125 128.890625 C 5.925781 129.199219 5.011719 128.714844 4.78125 127.921875 C 4.605469 127.503906 4.589844 127.074219 4.550781 126.644531 L 4.550781 125.835938 C 4.589844 125.011719 4.765625 123.914062 5.65625 123.550781 L 5.695312 123.535156 L 5.726562 123.527344 L 5.765625 123.507812 L 5.882812 123.476562 L 5.957031 123.460938 L 6.042969 123.460938 L 6.058594 123.453125 Z M 6.328125 123.453125 Z M 6.082031 123.9375 C 5.417969 124.019531 5.21875 124.820312 5.171875 125.359375 L 5.171875 125.574219 L 5.15625 125.589844 L 5.15625 126.691406 C 5.203125 127.265625 5.242188 128.003906 5.765625 128.382812 C 6.25 128.714844 6.894531 128.34375 7.027344 127.828125 C 7.171875 127.445312 7.203125 127.074219 7.234375 126.691406 L 7.234375 125.589844 C 7.1875 125.011719 7.105469 124.199219 6.441406 123.96875 L 6.382812 123.953125 L 6.367188 123.9375 L 6.296875 123.9375 L 6.28125 123.921875 L 6.097656 123.921875 Z M 6.082031 123.9375 Z M 6.082031 123.9375 "/>
<path style=" stroke:none;fill-rule:nonzero;fill:rgb(0%,0%,0%);fill-opacity:1;" d="M 9.605469 128.167969 L 9.605469 128.804688 L 8.964844 128.804688 L 8.964844 128.167969 Z M 9.605469 128.167969 Z M 9.605469 128.167969 "/>
<path style=" stroke:none;fill-rule:nonzero;fill:rgb(0%,0%,0%);fill-opacity:1;" d="M 12.496094 123.453125 C 13.25 123.507812 13.75 124.199219 13.886719 124.898438 C 13.957031 125.214844 13.972656 125.519531 14.003906 125.835938 L 14.003906 126.644531 C 13.964844 127.46875 13.765625 128.558594 12.871094 128.890625 C 12.089844 129.199219 11.179688 128.714844 10.949219 127.921875 C 10.773438 127.503906 10.757812 127.074219 10.71875 126.644531 L 10.71875 125.835938 C 10.757812 125.011719 10.933594 123.914062 11.820312 123.550781 L 11.859375 123.535156 L 11.894531 123.527344 L 11.933594 123.507812 L 12.050781 123.476562 L 12.125 123.460938 L 12.210938 123.460938 L 12.226562 123.453125 Z M 12.496094 123.453125 Z M 12.25 123.9375 C 11.582031 124.019531 11.386719 124.820312 11.335938 125.359375 L 11.335938 125.574219 L 11.320312 125.589844 L 11.320312 126.691406 C 11.367188 127.265625 11.410156 128.003906 11.933594 128.382812 C 12.417969 128.714844 13.058594 128.34375 13.195312 127.828125 C 13.335938 127.445312 13.371094 127.074219 13.402344 126.691406 L 13.402344 125.589844 C 13.351562 125.011719 13.273438 124.199219 12.605469 123.96875 L 12.550781 123.953125 L 12.535156 123.9375 L 12.464844 123.9375 L 12.449219 123.921875 L 12.265625 123.921875 Z M 12.25 123.9375 Z M 12.25 123.9375 "/>
<path style=" stroke:none;fill-rule:nonzero;fill:rgb(0%,0%,0%);fill-opacity:1;" d="M 6.328125 99.613281 C 7.082031 99.671875 7.582031 100.359375 7.71875 101.058594 C 7.789062 101.378906 7.804688 101.679688 7.835938 101.996094 L 7.835938 102.804688 C 7.796875 103.632812 7.597656 104.71875 6.703125 105.050781 C 5.925781 105.363281 5.011719 104.878906 4.78125 104.082031 C 4.605469 103.664062 4.589844 103.234375 4.550781 102.804688 L 4.550781 101.996094 C 4.589844 101.171875 4.765625 100.074219 5.65625 99.710938 L 5.695312 99.695312 L 5.726562 99.6875 L 5.765625 99.671875 L 5.882812 99.640625 L 5.957031 99.621094 L 6.042969 99.621094 L 6.058594 99.613281 Z M 6.328125 99.613281 Z M 6.082031 100.097656 C 5.417969 100.179688 5.21875 100.980469 5.171875 101.519531 L 5.171875 101.734375 L 5.15625 101.75 L 5.15625 102.851562 C 5.203125 103.425781 5.242188 104.164062 5.765625 104.542969 C 6.25 104.878906 6.894531 104.503906 7.027344 103.988281 C 7.171875 103.605469 7.203125 103.234375 7.234375 102.851562 L 7.234375 101.75 C 7.1875 101.171875 7.105469 100.359375 6.441406 100.132812 L 6.382812 100.113281 L 6.367188 100.097656 L 6.296875 100.097656 L 6.28125 100.082031 L 6.097656 100.082031 Z M 6.082031 100.097656 Z M 6.082031 100.097656 "/>
<path style=" stroke:none;fill-rule:nonzero;fill:rgb(0%,0%,0%);fill-opacity:1;" d="M 9.605469 104.328125 L 9.605469 104.964844 L 8.964844 104.964844 L 8.964844 104.328125 Z M 9.605469 104.328125 Z M 9.605469 104.328125 "/>
<path style=" stroke:none;fill-rule:nonzero;fill:rgb(0%,0%,0%);fill-opacity:1;" d="M 12.410156 99.613281 C 13.328125 99.640625 14.058594 100.582031 13.917969 101.472656 C 13.820312 102.359375 12.988281 102.871094 12.394531 103.425781 L 12.140625 103.6875 L 12.105469 103.703125 L 11.789062 104.011719 L 11.765625 104.027344 L 11.449219 104.34375 L 11.417969 104.363281 L 11.34375 104.433594 L 11.359375 104.441406 L 13.933594 104.441406 L 13.933594 104.964844 L 10.789062 104.964844 L 10.789062 104.488281 L 12.066406 103.210938 C 12.679688 102.679688 13.394531 101.988281 13.28125 101.113281 C 13.21875 100.605469 12.789062 100.140625 12.265625 100.097656 C 11.734375 100.019531 11.265625 100.441406 11.148438 100.949219 L 11.132812 100.972656 L 11.113281 101.027344 L 11.089844 101.113281 L 11.042969 101.289062 L 11.035156 101.328125 C 10.925781 101.195312 10.804688 101.050781 10.71875 100.902344 C 10.878906 100.25 11.402344 99.640625 12.089844 99.613281 Z M 12.410156 99.613281 Z M 12.410156 99.613281 "/>
<path style=" stroke:none;fill-rule:nonzero;fill:rgb(0%,0%,0%);fill-opacity:1;" d="M 6.328125 75.777344 C 7.082031 75.832031 7.582031 76.523438 7.71875 77.21875 C 7.789062 77.539062 7.804688 77.839844 7.835938 78.15625 L 7.835938 78.964844 C 7.796875 79.792969 7.597656 80.878906 6.703125 81.210938 C 5.925781 81.523438 5.011719 81.039062 4.78125 80.246094 C 4.605469 79.824219 4.589844 79.394531 4.550781 78.964844 L 4.550781 78.15625 C 4.589844 77.332031 4.765625 76.234375 5.65625 75.871094 L 5.695312 75.855469 L 5.726562 75.847656 L 5.765625 75.832031 L 5.882812 75.800781 L 5.957031 75.785156 L 6.042969 75.785156 L 6.058594 75.777344 Z M 6.328125 75.777344 Z M 6.082031 76.261719 C 5.417969 76.339844 5.21875 77.140625 5.171875 77.679688 L 5.171875 77.894531 L 5.15625 77.910156 L 5.15625 79.015625 C 5.203125 79.585938 5.242188 80.324219 5.765625 80.703125 C 6.25 81.039062 6.894531 80.664062 7.027344 80.148438 C 7.171875 79.769531 7.203125 79.394531 7.234375 79.015625 L 7.234375 77.910156 C 7.1875 77.332031 7.105469 76.523438 6.441406 76.292969 L 6.382812 76.277344 L 6.367188 76.261719 L 6.296875 76.261719 L 6.28125 76.246094 L 6.097656 76.246094 Z M 6.082031 76.261719 Z M 6.082031 76.261719 "/>
<path style=" stroke:none;fill-rule:nonzero;fill:rgb(0%,0%,0%);fill-opacity:1;" d="M 9.605469 80.492188 L 9.605469 81.125 L 8.964844 81.125 L 8.964844 80.492188 Z M 9.605469 80.492188 Z M 9.605469 80.492188 "/>
<path style=" stroke:none;fill-rule:nonzero;fill:rgb(0%,0%,0%);fill-opacity:1;" d="M 13.3125 75.941406 L 13.3125 79.285156 L 13.328125 79.300781 L 14.117188 79.300781 L 14.117188 79.777344 L 13.328125 79.777344 L 13.3125 79.785156 L 13.3125 81.125 L 12.710938 81.125 L 12.710938 79.785156 L 12.695312 79.777344 L 10.597656 79.777344 L 10.597656 79.285156 C 11.265625 78.171875 11.933594 77.054688 12.597656 75.941406 Z M 13.3125 75.941406 Z M 12.726562 76.246094 C 12.566406 77.070312 12.058594 77.777344 11.679688 78.5 C 11.527344 78.761719 11.328125 79.046875 11.21875 79.300781 L 12.742188 79.300781 L 12.75 79.285156 L 12.75 76.246094 L 12.742188 76.226562 Z M 12.726562 76.246094 Z M 12.726562 76.246094 "/>
<path style=" stroke:none;fill-rule:nonzero;fill:rgb(0%,0%,0%);fill-opacity:1;" d="M 6.328125 51.9375 C 7.082031 51.992188 7.582031 52.683594 7.71875 53.382812 C 7.789062 53.699219 7.804688 54 7.835938 54.316406 L 7.835938 55.128906 C 7.796875 55.953125 7.597656 57.039062 6.703125 57.375 C 5.925781 57.683594 5.011719 57.199219 4.78125 56.40625 C 4.605469 55.984375 4.589844 55.554688 4.550781 55.128906 L 4.550781 54.316406 C 4.589844 53.492188 4.765625 52.398438 5.65625 52.03125 L 5.695312 52.015625 L 5.726562 52.007812 L 5.765625 51.992188 L 5.882812 51.960938 L 5.957031 51.945312 L 6.042969 51.945312 L 6.058594 51.9375 Z M 6.328125 51.9375 Z M 6.082031 52.421875 C 5.417969 52.5 5.21875 53.300781 5.171875 53.839844 L 5.171875 54.054688 L 5.15625 54.070312 L 5.15625 55.175781 C 5.203125 55.746094 5.242188 56.484375 5.765625 56.867188 C 6.25 57.199219 6.894531 56.824219 7.027344 56.308594 C 7.171875 55.929688 7.203125 55.554688 7.234375 55.175781 L 7.234375 54.070312 C 7.1875 53.492188 7.105469 52.683594 6.441406 52.453125 L 6.382812 52.4375 L 6.367188 52.421875 L 6.296875 52.421875 L 6.28125 52.40625 L 6.097656 52.40625 Z M 6.082031 52.421875 Z M 6.082031 52.421875 "/>
<path style=" stroke:none;fill-rule:nonzero;fill:rgb(0%,0%,0%);fill-opacity:1;" d="M 9.605469 56.652344 L 9.605469 57.285156 L 8.964844 57.285156 L 8.964844 56.652344 Z M 9.605469 56.652344 Z M 9.605469 56.652344 "/>
<path style=" stroke:none;fill-rule:nonzero;fill:rgb(0%,0%,0%);fill-opacity:1;" d="M 13.011719 51.9375 C 13.21875 51.96875 13.457031 51.992188 13.65625 52.085938 L 13.65625 52.546875 C 13.105469 52.308594 12.394531 52.277344 11.964844 52.761719 C 11.582031 53.167969 11.410156 53.769531 11.394531 54.300781 C 11.851562 53.691406 12.894531 53.351562 13.457031 53.984375 C 14.019531 54.636719 14.117188 55.570312 13.863281 56.367188 C 13.582031 57 12.941406 57.582031 12.226562 57.445312 C 11.257812 57.367188 10.820312 56.285156 10.773438 55.460938 C 10.589844 54.292969 10.867188 52.824219 11.980469 52.160156 L 11.996094 52.152344 L 12.164062 52.0625 L 12.210938 52.046875 L 12.234375 52.03125 L 12.480469 51.960938 L 12.550781 51.945312 L 12.640625 51.945312 L 12.65625 51.9375 Z M 13.011719 51.9375 Z M 12.234375 54.144531 C 11.542969 54.261719 11.320312 55.097656 11.410156 55.660156 C 11.449219 56.191406 11.65625 56.898438 12.265625 57.007812 C 12.917969 57.097656 13.335938 56.398438 13.351562 55.832031 C 13.386719 55.261719 13.351562 54.613281 12.851562 54.238281 L 12.742188 54.183594 L 12.65625 54.160156 L 12.582031 54.144531 L 12.566406 54.128906 L 12.25 54.128906 Z M 12.234375 54.144531 Z M 12.234375 54.144531 "/>
<path style=" stroke:none;fill-rule:nonzero;fill:rgb(0%,0%,0%);fill-opacity:1;" d="M 6.328125 28.097656 C 7.082031 28.152344 7.582031 28.84375 7.71875 29.542969 C 7.789062 29.859375 7.804688 30.160156 7.835938 30.480469 L 7.835938 31.289062 C 7.796875 32.113281 7.597656 33.203125 6.703125 33.535156 C 5.925781 33.84375 5.011719 33.359375 4.78125 32.566406 C 4.605469 32.144531 4.589844 31.71875 4.550781 31.289062 L 4.550781 30.480469 C 4.589844 29.652344 4.765625 28.558594 5.65625 28.191406 L 5.695312 28.175781 L 5.726562 28.167969 L 5.765625 28.152344 L 5.882812 28.121094 L 5.957031 28.105469 L 6.042969 28.105469 L 6.058594 28.097656 Z M 6.328125 28.097656 Z M 6.082031 28.582031 C 5.417969 28.660156 5.21875 29.464844 5.171875 30.003906 L 5.171875 30.21875 L 5.15625 30.234375 L 5.15625 31.335938 C 5.203125 31.90625 5.242188 32.644531 5.765625 33.027344 C 6.25 33.359375 6.894531 32.988281 7.027344 32.472656 C 7.171875 32.089844 7.203125 31.71875 7.234375 31.335938 L 7.234375 30.234375 C 7.1875 29.652344 7.105469 28.84375 6.441406 28.613281 L 6.382812 28.597656 L 6.367188 28.582031 L 6.296875 28.582031 L 6.28125 28.566406 L 6.097656 28.566406 Z M 6.082031 28.582031 Z M 6.082031 28.582031 "/>
<path style=" stroke:none;fill-rule:nonzero;fill:rgb(0%,0%,0%);fill-opacity:1;" d="M 9.605469 32.8125 L 9.605469 33.449219 L 8.964844 33.449219 L 8.964844 32.8125 Z M 9.605469 32.8125 Z M 9.605469 32.8125 "/>
<path style=" stroke:none;fill-rule:nonzero;fill:rgb(0%,0%,0%);fill-opacity:1;" d="M 12.511719 28.097656 C 13.351562 28.128906 14.148438 29.035156 13.8125 29.875 C 13.671875 30.265625 13.273438 30.503906 12.949219 30.667969 C 13.757812 30.90625 14.25 31.851562 13.886719 32.628906 C 13.503906 33.636719 12.058594 33.957031 11.265625 33.226562 C 10.542969 32.652344 10.519531 31.414062 11.320312 30.90625 C 11.441406 30.78125 11.664062 30.742188 11.765625 30.644531 C 11.074219 30.445312 10.605469 29.644531 10.933594 28.972656 C 11.195312 28.367188 11.871094 28.035156 12.511719 28.097656 Z M 12.511719 28.097656 Z M 12.210938 28.550781 C 11.625 28.566406 11.210938 29.234375 11.410156 29.757812 C 11.640625 30.660156 13.15625 30.628906 13.328125 29.699219 C 13.488281 29.183594 13.074219 28.566406 12.511719 28.550781 L 12.496094 28.542969 L 12.226562 28.542969 Z M 12.210938 28.550781 Z M 12.226562 30.90625 C 11.535156 30.957031 11.195312 31.78125 11.378906 32.367188 C 11.496094 33.203125 12.6875 33.449219 13.15625 32.78125 C 13.605469 32.167969 13.386719 31.074219 12.566406 30.90625 L 12.496094 30.90625 L 12.480469 30.890625 L 12.234375 30.890625 Z M 12.226562 30.90625 Z M 12.226562 30.90625 "/>
<path style=" stroke:none;fill-rule:nonzero;fill:rgb(0%,0%,0%);fill-opacity:1;" d="M 6.574219 4.257812 L 6.574219 9.15625 L 6.582031 9.171875 L 7.558594 9.171875 L 7.558594 9.609375 L 4.980469 9.609375 L 4.980469 9.171875 L 5.957031 9.171875 L 5.972656 9.15625 L 5.972656 5.042969 C 5.636719 5.15625 5.289062 5.226562 4.941406 5.21875 L 4.941406 4.773438 C 5.464844 4.78125 6.035156 4.640625 6.433594 4.257812 Z M 6.574219 4.257812 Z M 6.574219 4.257812 "/>
<path style=" stroke:none;fill-rule:nonzero;fill:rgb(0%,0%,0%);fill-opacity:1;" d="M 9.605469 8.972656 L 9.605469 9.609375 L 8.964844 9.609375 L 8.964844 8.972656 Z M 9.605469 8.972656 Z M 9.605469 8.972656 "/>
<path style=" stroke:none;fill-rule:nonzero;fill:rgb(0%,0%,0%);fill-opacity:1;" d="M 12.496094 4.257812 C 13.25 4.3125 13.75 5.003906 13.886719 5.703125 C 13.957031 6.019531 13.972656 6.324219 14.003906 6.640625 L 14.003906 7.449219 C 13.964844 8.273438 13.765625 9.363281 12.871094 9.695312 C 12.089844 10.003906 11.179688 9.519531 10.949219 8.726562 C 10.773438 8.304688 10.757812 7.878906 10.71875 7.449219 L 10.71875 6.640625 C 10.757812 5.8125 10.933594 4.71875 11.820312 4.355469 L 11.859375 4.339844 L 11.894531 4.332031 L 11.933594 4.3125 L 12.050781 4.28125 L 12.125 4.265625 L 12.210938 4.265625 L 12.226562 4.257812 Z M 12.496094 4.257812 Z M 12.25 4.742188 C 11.582031 4.820312 11.386719 5.625 11.335938 6.164062 L 11.335938 6.378906 L 11.320312 6.394531 L 11.320312 7.496094 C 11.367188 8.070312 11.410156 8.804688 11.933594 9.1875 C 12.417969 9.519531 13.058594 9.148438 13.195312 8.632812 C 13.335938 8.25 13.371094 7.878906 13.402344 7.496094 L 13.402344 6.394531 C 13.351562 5.8125 13.273438 5.003906 12.605469 4.773438 L 12.550781 4.757812 L 12.535156 4.742188 L 12.464844 4.742188 L 12.449219 4.726562 L 12.265625 4.726562 Z M 12.25 4.742188 Z M 12.25 4.742188 "/>
<path style="fill:none;stroke-width:0.02;stroke-linecap:butt;stroke-linejoin:miter;stroke:rgb(0%,0%,0%);stroke-opacity:1;stroke-miterlimit:10;" d="M 11.810063 1.219459 L 11.705056 1.219459 " transform="matrix(28.346457,0,0,-28.346457,1,256.11811)"/>
<path style="fill:none;stroke-width:0.02;stroke-linecap:butt;stroke-linejoin:miter;stroke:rgb(0%,0%,0%);stroke-opacity:1;stroke-miterlimit:10;" d="M 11.810063 2.060337 L 11.705056 2.060337 " transform="matrix(28.346457,0,0,-28.346457,1,256.11811)"/>
<path style="fill:none;stroke-width:0.02;stroke-linecap:butt;stroke-linejoin:miter;stroke:rgb(0%,0%,0%);stroke-opacity:1;stroke-miterlimit:10;" d="M 11.810063 2.901354 L 11.705056 2.901354 " transform="matrix(28.346457,0,0,-28.346457,1,256.11811)"/>
<path style="fill:none;stroke-width:0.02;stroke-linecap:butt;stroke-linejoin:miter;stroke:rgb(0%,0%,0%);stroke-opacity:1;stroke-miterlimit:10;" d="M 11.810063 3.742371 L 11.705056 3.742371 " transform="matrix(28.346457,0,0,-28.346457,1,256.11811)"/>
<path style="fill:none;stroke-width:0.02;stroke-linecap:butt;stroke-linejoin:miter;stroke:rgb(0%,0%,0%);stroke-opacity:1;stroke-miterlimit:10;" d="M 11.810063 4.583388 L 11.705056 4.583388 " transform="matrix(28.346457,0,0,-28.346457,1,256.11811)"/>
<path style="fill:none;stroke-width:0.02;stroke-linecap:butt;stroke-linejoin:miter;stroke:rgb(0%,0%,0%);stroke-opacity:1;stroke-miterlimit:10;" d="M 11.810063 5.424404 L 11.705056 5.424404 " transform="matrix(28.346457,0,0,-28.346457,1,256.11811)"/>
<path style="fill:none;stroke-width:0.02;stroke-linecap:butt;stroke-linejoin:miter;stroke:rgb(0%,0%,0%);stroke-opacity:1;stroke-miterlimit:10;" d="M 11.810063 6.265283 L 11.705056 6.265283 " transform="matrix(28.346457,0,0,-28.346457,1,256.11811)"/>
<path style="fill:none;stroke-width:0.02;stroke-linecap:butt;stroke-linejoin:miter;stroke:rgb(0%,0%,0%);stroke-opacity:1;stroke-miterlimit:10;" d="M 11.810063 7.1063 L 11.705056 7.1063 " transform="matrix(28.346457,0,0,-28.346457,1,256.11811)"/>
<path style="fill:none;stroke-width:0.02;stroke-linecap:butt;stroke-linejoin:miter;stroke:rgb(0%,0%,0%);stroke-opacity:1;stroke-miterlimit:10;" d="M 11.810063 7.947317 L 11.705056 7.947317 " transform="matrix(28.346457,0,0,-28.346457,1,256.11811)"/>
<path style="fill:none;stroke-width:0.02;stroke-linecap:round;stroke-linejoin:miter;stroke:rgb(0%,0%,0%);stroke-opacity:1;stroke-miterlimit:10;" d="M 11.810063 0.378442 L 11.810063 8.788333 " transform="matrix(28.346457,0,0,-28.346457,1,256.11811)"/>
<path style="fill:none;stroke-width:0.02;stroke-linecap:butt;stroke-linejoin:miter;stroke:rgb(0%,0%,0%);stroke-opacity:1;stroke-miterlimit:10;" d="M 2.506514 0.378442 L 2.506514 0.483448 " transform="matrix(28.346457,0,0,-28.346457,1,256.11811)"/>
<path style="fill:none;stroke-width:0.02;stroke-linecap:butt;stroke-linejoin:miter;stroke:rgb(0%,0%,0%);stroke-opacity:1;stroke-miterlimit:10;" d="M 4.367141 0.378442 L 4.367141 0.483448 " transform="matrix(28.346457,0,0,-28.346457,1,256.11811)"/>
<path style="fill:none;stroke-width:0.02;stroke-linecap:butt;stroke-linejoin:miter;stroke:rgb(0%,0%,0%);stroke-opacity:1;stroke-miterlimit:10;" d="M 6.227906 0.378442 L 6.227906 0.483448 " transform="matrix(28.346457,0,0,-28.346457,1,256.11811)"/>
<path style="fill:none;stroke-width:0.02;stroke-linecap:butt;stroke-linejoin:miter;stroke:rgb(0%,0%,0%);stroke-opacity:1;stroke-miterlimit:10;" d="M 8.088533 0.378442 L 8.088533 0.483448 " transform="matrix(28.346457,0,0,-28.346457,1,256.11811)"/>
<path style="fill:none;stroke-width:0.02;stroke-linecap:butt;stroke-linejoin:miter;stroke:rgb(0%,0%,0%);stroke-opacity:1;stroke-miterlimit:10;" d="M 9.949298 0.378442 L 9.949298 0.483448 " transform="matrix(28.346457,0,0,-28.346457,1,256.11811)"/>
<path style="fill:none;stroke-width:0.02;stroke-linecap:round;stroke-linejoin:miter;stroke:rgb(0%,0%,0%);stroke-opacity:1;stroke-miterlimit:10;" d="M 0.645749 0.378442 L 11.810063 0.378442 " transform="matrix(28.346457,0,0,-28.346457,1,256.11811)"/>
<path style=" stroke:none;fill-rule:nonzero;fill:rgb(0%,0%,0%);fill-opacity:1;" d="M 18.175781 253.589844 L 18.175781 254.035156 L 16.09375 254.035156 L 16.09375 253.589844 Z M 18.175781 253.589844 Z M 18.175781 253.589844 "/>
<path style=" stroke:none;fill-rule:nonzero;fill:rgb(0%,0%,0%);fill-opacity:1;" d="M 20.777344 250.210938 C 21.476562 250.242188 22.207031 250.882812 22.039062 251.621094 C 21.960938 252.121094 21.613281 252.535156 21.175781 252.757812 C 21.882812 252.980469 22.429688 253.726562 22.238281 254.464844 C 22.046875 255.425781 20.945312 255.957031 20.054688 255.664062 C 19.628906 255.535156 19.191406 255.265625 18.984375 254.867188 C 19.03125 254.75 19.015625 254.542969 19.070312 254.464844 C 19.492188 255.082031 20.382812 255.503906 21.078125 255.15625 C 21.84375 254.671875 21.722656 253.257812 20.800781 253.019531 L 20.730469 253.019531 L 20.714844 253.003906 L 19.976562 253.003906 L 19.976562 252.527344 C 20.429688 252.519531 20.992188 252.464844 21.246094 251.996094 C 21.515625 251.589844 21.492188 250.925781 20.976562 250.726562 C 20.367188 250.488281 19.613281 250.875 19.382812 251.496094 C 19.285156 251.359375 19.191406 251.226562 19.097656 251.082031 C 19.421875 250.496094 20.113281 250.144531 20.777344 250.210938 Z M 20.777344 250.210938 Z M 20.777344 250.210938 "/>
<path style=" stroke:none;fill-rule:nonzero;fill:rgb(0%,0%,0%);fill-opacity:1;" d="M 70.917969 253.589844 L 70.917969 254.035156 L 68.839844 254.035156 L 68.839844 253.589844 Z M 70.917969 253.589844 Z M 70.917969 253.589844 "/>
<path style=" stroke:none;fill-rule:nonzero;fill:rgb(0%,0%,0%);fill-opacity:1;" d="M 73.417969 250.210938 C 74.339844 250.234375 75.070312 251.179688 74.925781 252.066406 C 74.832031 252.957031 74 253.464844 73.402344 254.019531 L 73.148438 254.28125 L 73.117188 254.296875 L 72.800781 254.605469 L 72.777344 254.621094 L 72.460938 254.941406 L 72.425781 254.957031 L 72.355469 255.027344 L 72.371094 255.035156 L 74.945312 255.035156 L 74.945312 255.558594 L 71.800781 255.558594 L 71.800781 255.082031 L 73.078125 253.804688 C 73.6875 253.273438 74.402344 252.582031 74.292969 251.710938 C 74.230469 251.203125 73.800781 250.734375 73.277344 250.695312 C 72.746094 250.613281 72.277344 251.035156 72.15625 251.542969 L 72.140625 251.566406 L 72.125 251.621094 L 72.101562 251.710938 L 72.054688 251.882812 L 72.046875 251.925781 C 71.933594 251.789062 71.816406 251.644531 71.730469 251.496094 C 71.886719 250.84375 72.410156 250.234375 73.101562 250.210938 Z M 73.417969 250.210938 Z M 73.417969 250.210938 "/>
<path style=" stroke:none;fill-rule:nonzero;fill:rgb(0%,0%,0%);fill-opacity:1;" d="M 123.664062 253.589844 L 123.664062 254.035156 L 121.585938 254.035156 L 121.585938 253.589844 Z M 123.664062 253.589844 Z M 123.664062 253.589844 "/>
<path style=" stroke:none;fill-rule:nonzero;fill:rgb(0%,0%,0%);fill-opacity:1;" d="M 126.496094 250.210938 L 126.496094 255.105469 L 126.503906 255.121094 L 127.480469 255.121094 L 127.480469 255.558594 L 124.902344 255.558594 L 124.902344 255.121094 L 125.878906 255.121094 L 125.894531 255.105469 L 125.894531 250.996094 C 125.5625 251.105469 125.210938 251.179688 124.863281 251.171875 L 124.863281 250.726562 C 125.386719 250.734375 125.957031 250.589844 126.355469 250.210938 Z M 126.496094 250.210938 Z M 126.496094 250.210938 "/>
<path style=" stroke:none;fill-rule:nonzero;fill:rgb(0%,0%,0%);fill-opacity:1;" d="M 177.671875 250.210938 C 178.429688 250.265625 178.929688 250.957031 179.0625 251.652344 C 179.132812 251.972656 179.148438 252.273438 179.183594 252.589844 L 179.183594 253.398438 C 179.140625 254.226562 178.945312 255.3125 178.046875 255.644531 C 177.269531 255.957031 176.355469 255.472656 176.125 254.679688 C 175.953125 254.257812 175.9375 253.828125 175.894531 253.398438 L 175.894531 252.589844 C 175.9375 251.765625 176.109375 250.667969 177 250.304688 L 177.039062 250.289062 L 177.070312 250.28125 L 177.109375 250.265625 L 177.230469 250.234375 L 177.300781 250.21875 L 177.386719 250.21875 L 177.402344 250.210938 Z M 177.671875 250.210938 Z M 177.429688 250.695312 C 176.761719 250.773438 176.5625 251.574219 176.515625 252.113281 L 176.515625 252.328125 L 176.5 252.34375 L 176.5 253.449219 C 176.546875 254.019531 176.585938 254.757812 177.109375 255.136719 C 177.59375 255.472656 178.238281 255.097656 178.371094 254.582031 C 178.515625 254.203125 178.546875 253.828125 178.578125 253.449219 L 178.578125 252.34375 C 178.53125 251.765625 178.453125 250.957031 177.785156 250.726562 L 177.730469 250.710938 L 177.714844 250.695312 L 177.640625 250.695312 L 177.625 250.679688 L 177.445312 250.679688 Z M 177.429688 250.695312 Z M 177.429688 250.695312 "/>
<path style=" stroke:none;fill-rule:nonzero;fill:rgb(0%,0%,0%);fill-opacity:1;" d="M 230.664062 250.210938 L 230.664062 255.105469 L 230.671875 255.121094 L 231.648438 255.121094 L 231.648438 255.558594 L 229.070312 255.558594 L 229.070312 255.121094 L 230.046875 255.121094 L 230.0625 255.105469 L 230.0625 250.996094 C 229.726562 251.105469 229.378906 251.179688 229.027344 251.171875 L 229.027344 250.726562 C 229.554688 250.734375 230.125 250.589844 230.519531 250.210938 Z M 230.664062 250.210938 Z M 230.664062 250.210938 "/>
<path style=" stroke:none;fill-rule:nonzero;fill:rgb(0%,0%,0%);fill-opacity:1;" d="M 283.074219 250.210938 C 283.996094 250.234375 284.726562 251.179688 284.582031 252.066406 C 284.488281 252.957031 283.65625 253.464844 283.058594 254.019531 L 282.804688 254.28125 L 282.773438 254.296875 L 282.457031 254.605469 L 282.433594 254.621094 L 282.113281 254.941406 L 282.082031 254.957031 L 282.011719 255.027344 L 282.027344 255.035156 L 284.597656 255.035156 L 284.597656 255.558594 L 281.457031 255.558594 L 281.457031 255.082031 L 282.734375 253.804688 C 283.34375 253.273438 284.058594 252.582031 283.949219 251.710938 C 283.882812 251.203125 283.457031 250.734375 282.933594 250.695312 C 282.398438 250.613281 281.933594 251.035156 281.8125 251.542969 L 281.796875 251.566406 L 281.78125 251.621094 L 281.757812 251.710938 L 281.710938 251.882812 L 281.703125 251.925781 C 281.589844 251.789062 281.472656 251.644531 281.382812 251.496094 C 281.542969 250.84375 282.066406 250.234375 282.757812 250.210938 Z M 283.074219 250.210938 Z M 283.074219 250.210938 "/>
<path style=" stroke:none;fill-rule:nonzero;fill:rgb(0%,0%,0%);fill-opacity:1;" d="M 335.921875 250.210938 C 336.621094 250.242188 337.351562 250.882812 337.183594 251.621094 C 337.105469 252.121094 336.753906 252.535156 336.320312 252.757812 C 337.027344 252.980469 337.574219 253.726562 337.382812 254.464844 C 337.191406 255.425781 336.089844 255.957031 335.199219 255.664062 C 334.773438 255.535156 334.335938 255.265625 334.128906 254.867188 C 334.175781 254.75 334.160156 254.542969 334.214844 254.464844 C 334.636719 255.082031 335.527344 255.503906 336.222656 255.15625 C 336.984375 254.671875 336.867188 253.257812 335.945312 253.019531 L 335.875 253.019531 L 335.859375 253.003906 L 335.121094 253.003906 L 335.121094 252.527344 C 335.574219 252.519531 336.136719 252.464844 336.390625 251.996094 C 336.660156 251.589844 336.636719 250.925781 336.121094 250.726562 C 335.507812 250.488281 334.753906 250.875 334.527344 251.496094 C 334.429688 251.359375 334.335938 251.226562 334.238281 251.082031 C 334.566406 250.496094 335.253906 250.144531 335.921875 250.210938 Z M 335.921875 250.210938 Z M 335.921875 250.210938 "/>
<path style="fill:none;stroke-width:0.02;stroke-linecap:butt;stroke-linejoin:miter;stroke:rgb(0%,0%,0%);stroke-opacity:1;stroke-miterlimit:10;" d="M 2.506514 8.788333 L 2.506514 8.683327 " transform="matrix(28.346457,0,0,-28.346457,1,256.11811)"/>
<path style="fill:none;stroke-width:0.02;stroke-linecap:butt;stroke-linejoin:miter;stroke:rgb(0%,0%,0%);stroke-opacity:1;stroke-miterlimit:10;" d="M 4.367141 8.788333 L 4.367141 8.683327 " transform="matrix(28.346457,0,0,-28.346457,1,256.11811)"/>
<path style="fill:none;stroke-width:0.02;stroke-linecap:butt;stroke-linejoin:miter;stroke:rgb(0%,0%,0%);stroke-opacity:1;stroke-miterlimit:10;" d="M 6.227906 8.788333 L 6.227906 8.683327 " transform="matrix(28.346457,0,0,-28.346457,1,256.11811)"/>
<path style="fill:none;stroke-width:0.02;stroke-linecap:butt;stroke-linejoin:miter;stroke:rgb(0%,0%,0%);stroke-opacity:1;stroke-miterlimit:10;" d="M 8.088533 8.788333 L 8.088533 8.683327 " transform="matrix(28.346457,0,0,-28.346457,1,256.11811)"/>
<path style="fill:none;stroke-width:0.02;stroke-linecap:butt;stroke-linejoin:miter;stroke:rgb(0%,0%,0%);stroke-opacity:1;stroke-miterlimit:10;" d="M 9.949298 8.788333 L 9.949298 8.683327 " transform="matrix(28.346457,0,0,-28.346457,1,256.11811)"/>
<path style="fill:none;stroke-width:0.02;stroke-linecap:round;stroke-linejoin:miter;stroke:rgb(0%,0%,0%);stroke-opacity:1;stroke-miterlimit:10;" d="M 0.645749 8.788333 L 11.810063 8.788333 " transform="matrix(28.346457,0,0,-28.346457,1,256.11811)"/>
<path style="fill:none;stroke-width:0.05;stroke-linecap:butt;stroke-linejoin:miter;stroke:rgb(33%,47%,64%);stroke-opacity:1;stroke-miterlimit:10;" d="M 0.645749 3.990004 L 0.683783 3.904842 L 0.721679 3.82023 L 0.759712 3.736032 L 0.797746 3.652385 L 0.835642 3.569014 L 0.873676 3.485918 L 0.911572 3.403373 L 0.949606 3.32138 L 0.987502 3.239938 L 1.025536 3.15891 L 1.06357 3.078432 L 1.101466 2.998368 L 1.1395 2.918993 L 1.177396 2.840583 L 1.21543 2.762999 L 1.253326 2.686242 L 1.29136 2.610037 L 1.329256 2.53452 L 1.367289 2.459693 L 1.405323 2.386106 L 1.443219 2.313621 L 1.481253 2.241963 L 1.519149 2.17127 L 1.557183 2.101265 L 1.595079 2.032363 L 1.633113 1.964702 L 1.671147 1.89828 L 1.709043 1.832961 L 1.747077 1.768607 L 1.784973 1.705355 L 1.823007 1.643205 L 1.860903 1.582434 L 1.898937 1.52304 L 1.936833 1.465025 L 1.974867 1.408112 L 2.0129 1.352439 L 2.050796 1.298007 L 2.08883 1.24509 L 2.126726 1.193827 L 2.16476 1.143804 L 2.202656 1.09516 L 2.24069 1.047893 L 2.278724 1.002004 L 2.31662 0.957769 L 2.354654 0.915188 L 2.39255 0.874122 L 2.430584 0.834435 L 2.46848 0.796263 L 2.506514 0.759745 L 2.54441 0.724743 L 2.582444 0.691532 L 2.620477 0.659975 L 2.658373 0.629934 L 2.696407 0.601408 L 2.734303 0.574674 L 2.772337 0.549594 L 2.810233 0.526168 L 2.848267 0.504532 L 2.886301 0.484551 L 2.924197 0.466223 L 2.962231 0.449549 L 3.000127 0.434666 L 3.038161 0.421574 L 3.076057 0.410137 L 3.114091 0.40049 L 3.151987 0.392636 L 3.190021 0.386434 L 3.228054 0.382025 L 3.265951 0.379269 L 3.302744 0.378442 " transform="matrix(28.346457,0,0,-28.346457,1,256.11811)"/>
<path style="fill:none;stroke-width:0.05;stroke-linecap:butt;stroke-linejoin:miter;stroke:rgb(33%,47%,64%);stroke-opacity:1;stroke-miterlimit:10;" d="M 3.305225 0.378442 L 3.34188 0.379269 L 3.379914 0.381749 L 3.41781 0.386159 L 3.455844 0.392222 L 3.493878 0.399939 L 3.531774 0.409448 L 3.569808 0.420748 L 3.607704 0.433839 L 3.645738 0.448722 L 3.683634 0.46512 L 3.721668 0.483311 L 3.759564 0.503154 L 3.797598 0.524789 L 3.835632 0.548078 L 3.873528 0.573159 L 3.911561 0.599755 L 3.949457 0.628005 L 3.987491 0.657908 L 4.025387 0.689465 L 4.063421 0.722814 L 4.101317 0.757678 L 4.139351 0.794058 L 4.177385 0.831954 L 4.215281 0.871366 L 4.253315 0.912432 L 4.291211 0.955289 L 4.329245 0.999524 L 4.367141 1.045137 L 4.405175 1.092128 L 4.443209 1.140497 L 4.481105 1.19052 L 4.519138 1.242058 L 4.557035 1.294975 L 4.595068 1.349132 L 4.632964 1.404529 L 4.670998 1.461166 L 4.708894 1.51932 L 4.746928 1.578851 L 4.784962 1.63976 L 4.822858 1.701496 L 4.860892 1.764473 L 4.898788 1.828551 L 4.936822 1.894008 L 4.974718 1.960705 L 5.012752 2.028505 L 5.050786 2.097131 L 5.088682 2.166722 L 5.126715 2.237278 L 5.164612 2.308936 L 5.202645 2.381834 L 5.240541 2.455559 L 5.278575 2.529973 L 5.316471 2.605076 L 5.354505 2.681144 L 5.392539 2.758038 L 5.430435 2.835897 L 5.468469 2.914583 L 5.506365 2.993545 L 5.544399 3.073196 L 5.582295 3.153397 L 5.620329 3.234288 L 5.658363 3.316144 L 5.696259 3.398413 L 5.734293 3.480957 L 5.772189 3.563777 L 5.810222 3.647148 L 5.848118 3.730933 L 5.886152 3.815407 L 5.924048 3.900156 L 5.962082 3.985043 L 6.000116 4.070068 L 6.038012 4.155231 L 6.076046 4.240532 L 6.113942 4.326108 L 6.151976 4.411684 L 6.189872 4.497536 L 6.26594 4.669239 L 6.303836 4.754953 L 6.34187 4.840667 L 6.379766 4.926106 L 6.417799 5.011406 L 6.455696 5.096569 L 6.493729 5.181594 L 6.531625 5.266481 L 6.569659 5.351368 L 6.607693 5.435842 L 6.645589 5.519627 L 6.683623 5.60286 L 6.721519 5.68568 L 6.759553 5.768225 L 6.797449 5.850632 L 6.835483 5.932349 L 6.873517 6.013378 L 6.911413 6.09358 L 6.949447 6.173092 L 6.987343 6.252192 L 7.025377 6.330878 L 7.063273 6.408737 L 7.101306 6.485632 L 7.139202 6.561561 L 7.177236 6.636664 L 7.21527 6.711079 L 7.253166 6.784941 L 7.2912 6.857702 L 7.329096 6.92936 L 7.36713 6.999915 L 7.405026 7.069506 L 7.44306 7.138133 L 7.480956 7.205932 L 7.51899 7.272767 L 7.557024 7.338086 L 7.59492 7.402165 L 7.632954 7.465141 L 7.67085 7.527015 L 7.708883 7.587786 L 7.74678 7.647456 L 7.784813 7.705471 L 7.822847 7.762246 L 7.860743 7.817643 L 7.898777 7.871662 L 7.936673 7.924717 L 7.974707 7.976255 L 8.012603 8.02614 L 8.050637 8.074647 L 8.088533 8.121638 L 8.126567 8.167252 L 8.164601 8.211487 L 8.202497 8.254206 L 8.240531 8.295271 L 8.278427 8.334683 L 8.316461 8.372579 L 8.354357 8.408959 L 8.39239 8.443962 L 8.430424 8.477172 L 8.46832 8.508867 L 8.506354 8.538633 L 8.54425 8.566883 L 8.582284 8.593617 L 8.62018 8.618559 L 8.658214 8.641986 L 8.69611 8.663483 L 8.734144 8.683465 L 8.772178 8.701517 L 8.810074 8.718053 L 8.848108 8.732798 L 8.886004 8.74589 L 8.924038 8.75719 L 8.961934 8.766698 L 8.999967 8.774553 L 9.038001 8.780616 L 9.075897 8.784888 L 9.113931 8.787507 L 9.150587 8.788333 " transform="matrix(28.346457,0,0,-28.346457,1,256.11811)"/>
<path style="fill:none;stroke-width:0.05;stroke-linecap:butt;stroke-linejoin:miter;stroke:rgb(33%,47%,64%);stroke-opacity:1;stroke-miterlimit:10;" d="M 9.153067 8.788333 L 9.189861 8.787369 L 9.227757 8.78475 L 9.265791 8.780341 L 9.303687 8.77414 L 9.341721 8.766147 L 9.379755 8.756501 L 9.417651 8.745063 L 9.455685 8.731972 L 9.493581 8.717089 L 9.531615 8.700552 L 9.569511 8.682087 L 9.607544 8.662105 L 9.645578 8.64047 L 9.683474 8.617181 L 9.721508 8.592101 L 9.759404 8.565229 L 9.797438 8.536841 L 9.835334 8.5068 L 9.873368 8.475105 L 9.911264 8.441895 L 9.949298 8.40703 L 9.987332 8.370374 L 10.025228 8.332203 L 10.063262 8.292653 L 10.101158 8.25145 L 10.139192 8.208868 L 10.177088 8.164633 L 10.215122 8.118882 L 10.253155 8.071478 L 10.291051 8.022833 L 10.329085 7.972948 L 10.366981 7.921547 L 10.405015 7.868768 L 10.442911 7.814336 L 10.480945 7.758525 L 10.518841 7.70175 L 10.556875 7.643597 L 10.594909 7.584204 L 10.632805 7.52357 L 10.670839 7.46142 L 10.708735 7.398031 L 10.746769 7.333814 L 10.784665 7.268495 L 10.822699 7.201936 L 10.860595 7.134274 L 10.898628 7.065372 L 10.936662 6.995368 L 10.974558 6.924674 L 11.012592 6.853016 L 11.050488 6.780532 L 11.088522 6.706944 L 11.126418 6.632255 L 11.164452 6.5566 L 11.202486 6.480533 L 11.240382 6.403776 L 11.278416 6.326192 L 11.316312 6.247782 L 11.354346 6.168407 L 11.392242 6.088343 L 11.430276 6.007728 L 11.468172 5.926837 L 11.506206 5.845395 L 11.544239 5.763402 L 11.582135 5.680719 L 11.620169 5.597762 L 11.658065 5.51439 L 11.696099 5.430605 L 11.733995 5.346407 L 11.772029 5.261796 L 11.810063 5.176771 " transform="matrix(28.346457,0,0,-28.346457,1,256.11811)"/>
<path style="fill:none;stroke-width:0.05;stroke-linecap:butt;stroke-linejoin:miter;stroke:rgb(90%,57%,26%);stroke-opacity:1;stroke-miterlimit:10;" d="M 0.645749 3.990004 L 0.873676 3.485918 L 1.101466 2.998368 L 1.329256 2.53452 L 1.557183 2.101265 L 1.784973 1.705355 L 2.0129 1.352439 L 2.24069 1.047893 L 2.46848 0.796263 L 2.696407 0.601408 L 2.924197 0.466223 L 3.151987 0.392636 L 3.379914 0.381749 L 3.607704 0.433839 L 3.835632 0.548078 L 4.063421 0.722814 L 4.291211 0.955289 L 4.519138 1.242058 L 4.746928 1.578851 L 4.974718 1.960705 L 5.202645 2.381834 L 5.430435 2.835897 L 5.658363 3.316144 L 5.886152 3.815407 L 6.113942 4.326108 L 6.34187 4.840667 L 6.569659 5.351368 L 6.797449 5.850632 L 7.025377 6.33074 L 7.253166 6.784941 L 7.480956 7.205932 L 7.708883 7.587786 L 7.936673 7.924717 L 8.164601 8.211487 L 8.39239 8.443962 L 8.62018 8.618559 L 8.848108 8.732798 L 9.075897 8.784888 L 9.303687 8.77414 L 9.531615 8.700552 L 9.759404 8.565229 L 9.987332 8.370374 L 10.215122 8.118882 L 10.442911 7.814336 L 10.670839 7.46142 L 10.898628 7.065372 L 11.126418 6.632255 L 11.354346 6.168407 L 11.582135 5.680719 L 11.810063 5.176771 " transform="matrix(28.346457,0,0,-28.346457,1,256.11811)"/>
</g>
</svg>
