<?xml version="1.0" encoding="UTF-8"?>
<svg xmlns="http://www.w3.org/2000/svg" xmlns:xlink="http://www.w3.org/1999/xlink" width="342.15748pt" height="257.11811pt" viewBox="0 0 342.15748 257.11811" version="1.1">
<g id="surface1">
<path style=" stroke:none;fill-rule:nonzero;fill:rgb(100%,100%,100%);fill-opacity:1;" d="M -0.417969 257.535156 L 342.574219 257.535156 L 342.574219 -0.417969 L -0.417969 -0.417969 Z M -0.417969 257.535156 "/>
<path style="fill:none;stroke-width:0.02;stroke-linecap:butt;stroke-linejoin:miter;stroke:rgb(0%,0%,0%);stroke-opacity:1;stroke-miterlimit:10;" d="M 0.552593 1.219459 L 0.6576 1.219459 " transform="matrix(28.346457,0,0,-28.346457,1,256.11811)"/>
<path style="fill:none;stroke-width:0.02;stroke-linecap:butt;stroke-linejoin:miter;stroke:rgb(0%,0%,0%);stroke-opacity:1;stroke-miterlimit:10;" d="M 0.552593 2.060337 L 0.6576 2.060337 " transform="matrix(28.346457,0,0,-28.346457,1,256.11811)"/>
<path style="fill:none;stroke-width:0.02;stroke-linecap:butt;stroke-linejoin:miter;stroke:rgb(0%,0%,0%);stroke-opacity:1;stroke-miterlimit:10;" d="M 0.552593 2.901354 L 0.6576 2.901354 " transform="matrix(28.346457,0,0,-28.346457,1,256.11811)"/>
<path style="fill:none;stroke-width:0.02;stroke-linecap:butt;stroke-linejoin:miter;stroke:rgb(0%,0%,0%);stroke-opacity:1;stroke-miterlimit:10;" d="M 0.552593 3.742371 L 0.6576 3.742371 " transform="matrix(28.346457,0,0,-28.346457,1,256.11811)"/>
<path style="fill:none;stroke-width:0.02;stroke-linecap:butt;stroke-linejoin:miter;stroke:rgb(0%,0%,0%);stroke-opacity:1;stroke-miterlimit:10;" d="M 0.552593 4.583388 L 0.6576 4.583388 " transform="matrix(28.346457,0,0,-28.346457,1,256.11811)"/>
<path style="fill:none;stroke-width:0.02;stroke-linecap:butt;stroke-linejoin:miter;stroke:rgb(0%,0%,0%);stroke-opacity:1;stroke-miterlimit:10;" d="M 0.552593 5.424404 L 0.6576 5.424404 " transform="matrix(28.346457,0,0,-28.346457,1,256.11811)"/>
<path style="fill:none;stroke-width:0.02;stroke-linecap:butt;stroke-linejoin:miter;stroke:rgb(0%,0%,0%);stroke-opacity:1;stroke-miterlimit:10;" d="M 0.552593 6.265283 L 0.6576 6.265283 " transform="matrix(28.346457,0,0,-28.346457,1,256.11811)"/>
<path style="fill:none;stroke-width:0.02;stroke-linecap:butt;stroke-linejoin:miter;stroke:rgb(0%,0%,0%);stroke-opacity:1;stroke-miterlimit:10;" d="M 0.552593 7.1063 L 0.6576 7.1063 " transform="matrix(28.346457,0,0,-28.346457,1,256.11811)"/>
<path style="fill:none;stroke-width:0.02;stroke-linecap:butt;stroke-linejoin:miter;stroke:rgb(0%,0%,0%);stroke-opacity:1;stroke-miterlimit:10;" d="M 0.552593 7.947317 L 0.6576 7.947317 " transform="matrix(28.346457,0,0,-28.346457,1,256.11811)"/>
<path style="fill:none;stroke-width:0.02;stroke-linecap:round;stroke-linejoin:miter;stroke:rgb(0%,0%,0%);stroke-opacity:1;stroke-miterlimit:10;" d="M 0.552593 0.378442 L 0.552593 8.788333 " transform="matrix(28.346457,0,0,-28.346457,1,256.11811)"/>
<path style=" stroke:none;fill-rule:nonzero;fill:rgb(0%,0%,0%);fill-opacity:1;" d="M 3.6875 242.648438 C 4.441406 242.707031 4.941406 243.394531 5.074219 244.09375 C 5.148438 244.410156 5.164062 244.714844 5.195312 245.03125 L 5.195312 245.839844 C 5.15625 246.664062 4.957031 247.753906 4.058594 248.085938 C 3.28125 248.394531 2.367188 247.910156 2.136719 247.117188 C 1.964844 246.699219 1.949219 246.269531 1.910156 245.839844 L 1.910156 245.03125 C 1.949219 244.207031 2.121094 243.109375 3.011719 242.746094 L 3.050781 242.730469 L 3.082031 242.722656 L 3.121094 242.707031 L 3.242188 242.671875 L 3.3125 242.65625 L 3.398438 242.65625 L 3.417969 242.648438 Z M 3.6875 242.648438 Z M 3.441406 243.132812 C 2.773438 243.214844 2.574219 244.015625 2.527344 244.554688 L 2.527344 244.769531 L 2.511719 244.785156 L 2.511719 245.886719 C 2.558594 246.460938 2.597656 247.199219 3.121094 247.578125 C 3.605469 247.910156 4.25 247.539062 4.382812 247.023438 C 4.527344 246.640625 4.558594 246.269531 4.589844 245.886719 L 4.589844 244.785156 C 4.542969 244.207031 4.464844 243.394531 3.796875 243.164062 L 3.742188 243.148438 L 3.726562 243.132812 L 3.65625 243.132812 L 3.636719 243.117188 L 3.457031 243.117188 Z M 3.441406 243.132812 Z M 3.441406 243.132812 "/>
<path style=" stroke:none;fill-rule:nonzero;fill:rgb(0%,0%,0%);fill-opacity:1;" d="M 6.964844 247.363281 L 6.964844 248 L 6.320312 248 L 6.320312 247.363281 Z M 6.964844 247.363281 Z M 6.964844 247.363281 "/>
<path style=" stroke:none;fill-rule:nonzero;fill:rgb(0%,0%,0%);fill-opacity:1;" d="M 9.851562 242.648438 C 10.605469 242.707031 11.105469 243.394531 11.242188 244.09375 C 11.3125 244.410156 11.328125 244.714844 11.359375 245.03125 L 11.359375 245.839844 C 11.320312 246.664062 11.125 247.753906 10.226562 248.085938 C 9.449219 248.394531 8.535156 247.910156 8.304688 247.117188 C 8.128906 246.699219 8.113281 246.269531 8.074219 245.839844 L 8.074219 245.03125 C 8.113281 244.207031 8.289062 243.109375 9.179688 242.746094 L 9.21875 242.730469 L 9.25 242.722656 L 9.289062 242.707031 L 9.410156 242.671875 L 9.480469 242.65625 L 9.566406 242.65625 L 9.582031 242.648438 Z M 9.851562 242.648438 Z M 9.605469 243.132812 C 8.941406 243.214844 8.742188 244.015625 8.695312 244.554688 L 8.695312 244.769531 L 8.679688 244.785156 L 8.679688 245.886719 C 8.726562 246.460938 8.765625 247.199219 9.289062 247.578125 C 9.773438 247.910156 10.417969 247.539062 10.550781 247.023438 C 10.695312 246.640625 10.726562 246.269531 10.757812 245.886719 L 10.757812 244.785156 C 10.710938 244.207031 10.632812 243.394531 9.964844 243.164062 L 9.910156 243.148438 L 9.894531 243.132812 L 9.820312 243.132812 L 9.804688 243.117188 L 9.621094 243.117188 Z M 9.605469 243.132812 Z M 9.605469 243.132812 "/>
<path style=" stroke:none;fill-rule:nonzero;fill:rgb(0%,0%,0%);fill-opacity:1;" d="M 3.6875 218.808594 C 4.441406 218.867188 4.941406 219.554688 5.074219 220.253906 C 5.148438 220.574219 5.164062 220.875 5.195312 221.191406 L 5.195312 222 C 5.15625 222.828125 4.957031 223.914062 4.058594 224.246094 C 3.28125 224.558594 2.367188 224.074219 2.136719 223.277344 C 1.964844 222.859375 1.949219 222.429688 1.910156 222 L 1.910156 221.191406 C 1.949219 220.367188 2.121094 219.269531 3.011719 218.90625 L 3.050781 218.890625 L 3.082031 218.882812 L 3.121094 218.867188 L 3.242188 218.835938 L 3.3125 218.820312 L 3.398438 218.820312 L 3.417969 218.808594 Z M 3.6875 218.808594 Z M 3.441406 219.292969 C 2.773438 219.375 2.574219 220.175781 2.527344 220.714844 L 2.527344 220.929688 L 2.511719 220.945312 L 2.511719 222.046875 C 2.558594 222.621094 2.597656 223.359375 3.121094 223.738281 C 3.605469 224.074219 4.25 223.699219 4.382812 223.183594 C 4.527344 222.804688 4.558594 222.429688 4.589844 222.046875 L 4.589844 220.945312 C 4.542969 220.367188 4.464844 219.554688 3.796875 219.328125 L 3.742188 219.308594 L 3.726562 219.292969 L 3.65625 219.292969 L 3.636719 219.277344 L 3.457031 219.277344 Z M 3.441406 219.292969 Z M 3.441406 219.292969 "/>
<path style=" stroke:none;fill-rule:nonzero;fill:rgb(0%,0%,0%);fill-opacity:1;" d="M 6.964844 223.523438 L 6.964844 224.160156 L 6.320312 224.160156 L 6.320312 223.523438 Z M 6.964844 223.523438 Z M 6.964844 223.523438 "/>
<path style=" stroke:none;fill-rule:nonzero;fill:rgb(0%,0%,0%);fill-opacity:1;" d="M 10.097656 218.808594 L 10.097656 223.707031 L 10.105469 223.722656 L 11.082031 223.722656 L 11.082031 224.160156 L 8.503906 224.160156 L 8.503906 223.722656 L 9.480469 223.722656 L 9.496094 223.707031 L 9.496094 219.597656 C 9.164062 219.707031 8.8125 219.777344 8.464844 219.769531 L 8.464844 219.328125 C 8.988281 219.335938 9.558594 219.191406 9.957031 218.808594 Z M 10.097656 218.808594 Z M 10.097656 218.808594 "/>
<path style=" stroke:none;fill-rule:nonzero;fill:rgb(0%,0%,0%);fill-opacity:1;" d="M 3.6875 194.972656 C 4.441406 195.027344 4.941406 195.71875 5.074219 196.414062 C 5.148438 196.734375 5.164062 197.035156 5.195312 197.351562 L 5.195312 198.160156 C 5.15625 198.988281 4.957031 200.074219 4.058594 200.410156 C 3.28125 200.71875 2.367188 200.234375 2.136719 199.441406 C 1.964844 199.019531 1.949219 198.589844 1.910156 198.160156 L 1.910156 197.351562 C 1.949219 196.527344 2.121094 195.433594 3.011719 195.066406 L 3.050781 195.050781 L 3.082031 195.042969 L 3.121094 195.027344 L 3.242188 194.996094 L 3.3125 194.980469 L 3.398438 194.980469 L 3.417969 194.972656 Z M 3.6875 194.972656 Z M 3.441406 195.457031 C 2.773438 195.535156 2.574219 196.335938 2.527344 196.875 L 2.527344 197.089844 L 2.511719 197.105469 L 2.511719 198.210938 C 2.558594 198.78125 2.597656 199.519531 3.121094 199.898438 C 3.605469 200.234375 4.25 199.859375 4.382812 199.34375 C 4.527344 198.964844 4.558594 198.589844 4.589844 198.210938 L 4.589844 197.105469 C 4.542969 196.527344 4.464844 195.71875 3.796875 195.488281 L 3.742188 195.472656 L 3.726562 195.457031 L 3.65625 195.457031 L 3.636719 195.441406 L 3.457031 195.441406 Z M 3.441406 195.457031 Z M 3.441406 195.457031 "/>
<path style=" stroke:none;fill-rule:nonzero;fill:rgb(0%,0%,0%);fill-opacity:1;" d="M 6.964844 199.6875 L 6.964844 200.320312 L 6.320312 200.320312 L 6.320312 199.6875 Z M 6.964844 199.6875 Z M 6.964844 199.6875 "/>
<path style=" stroke:none;fill-rule:nonzero;fill:rgb(0%,0%,0%);fill-opacity:1;" d="M 9.765625 194.972656 C 10.6875 194.996094 11.417969 195.941406 11.273438 196.828125 C 11.179688 197.71875 10.34375 198.226562 9.75 198.78125 L 9.496094 199.042969 L 9.464844 199.058594 L 9.148438 199.367188 L 9.121094 199.382812 L 8.804688 199.703125 L 8.773438 199.71875 L 8.703125 199.789062 L 8.71875 199.796875 L 11.289062 199.796875 L 11.289062 200.320312 L 8.148438 200.320312 L 8.148438 199.84375 L 9.425781 198.566406 C 10.035156 198.035156 10.75 197.34375 10.640625 196.472656 C 10.574219 195.964844 10.148438 195.496094 9.621094 195.457031 C 9.089844 195.375 8.621094 195.796875 8.503906 196.304688 L 8.488281 196.328125 L 8.472656 196.382812 L 8.449219 196.472656 L 8.402344 196.644531 L 8.394531 196.6875 C 8.28125 196.550781 8.164062 196.40625 8.074219 196.257812 C 8.234375 195.605469 8.757812 194.996094 9.449219 194.972656 Z M 9.765625 194.972656 Z M 9.765625 194.972656 "/>
<path style=" stroke:none;fill-rule:nonzero;fill:rgb(0%,0%,0%);fill-opacity:1;" d="M 3.6875 171.132812 C 4.441406 171.1875 4.941406 171.878906 5.074219 172.578125 C 5.148438 172.894531 5.164062 173.195312 5.195312 173.511719 L 5.195312 174.324219 C 5.15625 175.148438 4.957031 176.234375 4.058594 176.570312 C 3.28125 176.878906 2.367188 176.394531 2.136719 175.601562 C 1.964844 175.179688 1.949219 174.75 1.910156 174.324219 L 1.910156 173.511719 C 1.949219 172.6875 2.121094 171.59375 3.011719 171.226562 L 3.050781 171.210938 L 3.082031 171.203125 L 3.121094 171.1875 L 3.242188 171.15625 L 3.3125 171.140625 L 3.398438 171.140625 L 3.417969 171.132812 Z M 3.6875 171.132812 Z M 3.441406 171.617188 C 2.773438 171.695312 2.574219 172.496094 2.527344 173.039062 L 2.527344 173.25 L 2.511719 173.265625 L 2.511719 174.371094 C 2.558594 174.941406 2.597656 175.679688 3.121094 176.0625 C 3.605469 176.394531 4.25 176.023438 4.382812 175.503906 C 4.527344 175.125 4.558594 174.75 4.589844 174.371094 L 4.589844 173.265625 C 4.542969 172.6875 4.464844 171.878906 3.796875 171.648438 L 3.742188 171.632812 L 3.726562 171.617188 L 3.65625 171.617188 L 3.636719 171.601562 L 3.457031 171.601562 Z M 3.441406 171.617188 Z M 3.441406 171.617188 "/>
<path style=" stroke:none;fill-rule:nonzero;fill:rgb(0%,0%,0%);fill-opacity:1;" d="M 6.964844 175.847656 L 6.964844 176.480469 L 6.320312 176.480469 L 6.320312 175.847656 Z M 6.964844 175.847656 Z M 6.964844 175.847656 "/>
<path style=" stroke:none;fill-rule:nonzero;fill:rgb(0%,0%,0%);fill-opacity:1;" d="M 9.867188 171.132812 C 10.566406 171.164062 11.296875 171.808594 11.132812 172.546875 C 11.050781 173.046875 10.703125 173.457031 10.265625 173.679688 C 10.972656 173.902344 11.519531 174.648438 11.328125 175.386719 C 11.140625 176.347656 10.035156 176.878906 9.148438 176.585938 C 8.71875 176.457031 8.28125 176.1875 8.074219 175.792969 C 8.121094 175.671875 8.105469 175.464844 8.164062 175.386719 C 8.582031 176.003906 9.472656 176.425781 10.171875 176.078125 C 10.933594 175.59375 10.8125 174.179688 9.894531 173.941406 L 9.820312 173.941406 L 9.804688 173.925781 L 9.066406 173.925781 L 9.066406 173.449219 C 9.519531 173.441406 10.082031 173.386719 10.335938 172.917969 C 10.605469 172.511719 10.582031 171.847656 10.066406 171.648438 C 9.457031 171.410156 8.703125 171.800781 8.472656 172.417969 C 8.375 172.28125 8.28125 172.148438 8.1875 172.003906 C 8.511719 171.417969 9.203125 171.070312 9.867188 171.132812 Z M 9.867188 171.132812 Z M 9.867188 171.132812 "/>
<path style=" stroke:none;fill-rule:nonzero;fill:rgb(0%,0%,0%);fill-opacity:1;" d="M 3.6875 147.292969 C 4.441406 147.347656 4.941406 148.039062 5.074219 148.738281 C 5.148438 149.054688 5.164062 149.355469 5.195312 149.675781 L 5.195312 150.484375 C 5.15625 151.308594 4.957031 152.398438 4.058594 152.730469 C 3.28125 153.039062 2.367188 152.554688 2.136719 151.761719 C 1.964844 151.339844 1.949219 150.914062 1.910156 150.484375 L 1.910156 149.675781 C 1.949219 148.847656 2.121094 147.753906 3.011719 147.386719 L 3.050781 147.371094 L 3.082031 147.363281 L 3.121094 147.347656 L 3.242188 147.316406 L 3.3125 147.300781 L 3.398438 147.300781 L 3.417969 147.292969 Z M 3.6875 147.292969 Z M 3.441406 147.777344 C 2.773438 147.855469 2.574219 148.660156 2.527344 149.199219 L 2.527344 149.414062 L 2.511719 149.429688 L 2.511719 150.53125 C 2.558594 151.101562 2.597656 151.839844 3.121094 152.222656 C 3.605469 152.554688 4.25 152.183594 4.382812 151.667969 C 4.527344 151.285156 4.558594 150.914062 4.589844 150.53125 L 4.589844 149.429688 C 4.542969 148.847656 4.464844 148.039062 3.796875 147.808594 L 3.742188 147.792969 L 3.726562 147.777344 L 3.65625 147.777344 L 3.636719 147.761719 L 3.457031 147.761719 Z M 3.441406 147.777344 Z M 3.441406 147.777344 "/>
<path style=" stroke:none;fill-rule:nonzero;fill:rgb(0%,0%,0%);fill-opacity:1;" d="M 6.964844 152.007812 L 6.964844 152.644531 L 6.320312 152.644531 L 6.320312 152.007812 Z M 6.964844 152.007812 Z M 6.964844 152.007812 "/>
<path style=" stroke:none;fill-rule:nonzero;fill:rgb(0%,0%,0%);fill-opacity:1;" d="M 10.671875 147.460938 L 10.671875 150.800781 L 10.6875 150.816406 L 11.472656 150.816406 L 11.472656 151.292969 L 10.6875 151.292969 L 10.671875 151.300781 L 10.671875 152.644531 L 10.066406 152.644531 L 10.066406 151.300781 L 10.050781 151.292969 L 7.957031 151.292969 L 7.957031 150.800781 C 8.621094 149.691406 9.289062 148.570312 9.957031 147.460938 Z M 10.671875 147.460938 Z M 10.082031 147.761719 C 9.925781 148.585938 9.417969 149.292969 9.035156 150.015625 C 8.886719 150.277344 8.6875 150.5625 8.574219 150.816406 L 10.097656 150.816406 L 10.105469 150.800781 L 10.105469 147.761719 L 10.097656 147.746094 Z M 10.082031 147.761719 Z M 10.082031 147.761719 "/>
<path style=" stroke:none;fill-rule:nonzero;fill:rgb(0%,0%,0%);fill-opacity:1;" d="M 3.6875 123.453125 C 4.441406 123.507812 4.941406 124.199219 5.074219 124.898438 C 5.148438 125.214844 5.164062 125.519531 5.195312 125.835938 L 5.195312 126.644531 C 5.15625 127.46875 4.957031 128.558594 4.058594 128.890625 C 3.28125 129.199219 2.367188 128.714844 2.136719 127.921875 C 1.964844 127.503906 1.949219 127.074219 1.910156 126.644531 L 1.910156 125.835938 C 1.949219 125.011719 2.121094 123.914062 3.011719 123.550781 L 3.050781 123.535156 L 3.082031 123.527344 L 3.121094 123.507812 L 3.242188 123.476562 L 3.3125 123.460938 L 3.398438 123.460938 L 3.417969 123.453125 Z M 3.6875 123.453125 Z M 3.441406 123.9375 C 2.773438 124.019531 2.574219 124.820312 2.527344 125.359375 L 2.527344 125.574219 L 2.511719 125.589844 L 2.511719 126.691406 C 2.558594 127.265625 2.597656 128.003906 3.121094 128.382812 C 3.605469 128.714844 4.25 128.34375 4.382812 127.828125 C 4.527344 127.445312 4.558594 127.074219 4.589844 126.691406 L 4.589844 125.589844 C 4.542969 125.011719 4.464844 124.199219 3.796875 123.96875 L 3.742188 123.953125 L 3.726562 123.9375 L 3.65625 123.9375 L 3.636719 123.921875 L 3.457031 123.921875 Z M 3.441406 123.9375 Z M 3.441406 123.9375 "/>
<path style=" stroke:none;fill-rule:nonzero;fill:rgb(0%,0%,0%);fill-opacity:1;" d="M 6.964844 128.167969 L 6.964844 128.804688 L 6.320312 128.804688 L 6.320312 128.167969 Z M 6.964844 128.167969 Z M 6.964844 128.167969 "/>
<path style=" stroke:none;fill-rule:nonzero;fill:rgb(0%,0%,0%);fill-opacity:1;" d="M 11.027344 123.621094 L 11.027344 124.113281 L 8.964844 124.113281 L 8.949219 124.121094 L 8.949219 125.746094 C 9.140625 125.621094 9.410156 125.453125 9.664062 125.445312 C 10.558594 125.351562 11.25 126.230469 11.289062 127.050781 C 11.417969 128.089844 10.441406 129.121094 9.394531 128.960938 C 8.867188 128.945312 8.359375 128.636719 8.058594 128.207031 C 8.148438 128.089844 8.21875 127.882812 8.320312 127.8125 C 8.695312 128.542969 9.902344 128.835938 10.386719 128.066406 C 10.695312 127.484375 10.6875 126.746094 10.328125 126.191406 C 9.917969 125.660156 9.097656 125.984375 8.910156 126.550781 L 8.394531 126.550781 L 8.394531 123.621094 Z M 11.027344 123.621094 Z M 11.027344 123.621094 "/>
<path style=" stroke:none;fill-rule:nonzero;fill:rgb(0%,0%,0%);fill-opacity:1;" d="M 3.6875 99.613281 C 4.441406 99.671875 4.941406 100.359375 5.074219 101.058594 C 5.148438 101.378906 5.164062 101.679688 5.195312 101.996094 L 5.195312 102.804688 C 5.15625 103.632812 4.957031 104.71875 4.058594 105.050781 C 3.28125 105.363281 2.367188 104.878906 2.136719 104.082031 C 1.964844 103.664062 1.949219 103.234375 1.910156 102.804688 L 1.910156 101.996094 C 1.949219 101.171875 2.121094 100.074219 3.011719 99.710938 L 3.050781 99.695312 L 3.082031 99.6875 L 3.121094 99.671875 L 3.242188 99.640625 L 3.3125 99.621094 L 3.398438 99.621094 L 3.417969 99.613281 Z M 3.6875 99.613281 Z M 3.441406 100.097656 C 2.773438 100.179688 2.574219 100.980469 2.527344 101.519531 L 2.527344 101.734375 L 2.511719 101.75 L 2.511719 102.851562 C 2.558594 103.425781 2.597656 104.164062 3.121094 104.542969 C 3.605469 104.878906 4.25 104.503906 4.382812 103.988281 C 4.527344 103.605469 4.558594 103.234375 4.589844 102.851562 L 4.589844 101.75 C 4.542969 101.171875 4.464844 100.359375 3.796875 100.132812 L 3.742188 100.113281 L 3.726562 100.097656 L 3.65625 100.097656 L 3.636719 100.082031 L 3.457031 100.082031 Z M 3.441406 100.097656 Z M 3.441406 100.097656 "/>
<path style=" stroke:none;fill-rule:nonzero;fill:rgb(0%,0%,0%);fill-opacity:1;" d="M 6.964844 104.328125 L 6.964844 104.964844 L 6.320312 104.964844 L 6.320312 104.328125 Z M 6.964844 104.328125 Z M 6.964844 104.328125 "/>
<path style=" stroke:none;fill-rule:nonzero;fill:rgb(0%,0%,0%);fill-opacity:1;" d="M 10.367188 99.613281 C 10.574219 99.648438 10.8125 99.671875 11.011719 99.765625 L 11.011719 100.226562 C 10.464844 99.988281 9.75 99.957031 9.320312 100.441406 C 8.941406 100.84375 8.765625 101.449219 8.75 101.980469 C 9.210938 101.367188 10.25 101.027344 10.8125 101.664062 C 11.378906 102.3125 11.472656 103.25 11.21875 104.042969 C 10.941406 104.679688 10.296875 105.257812 9.582031 105.125 C 8.613281 105.042969 8.179688 103.964844 8.128906 103.140625 C 7.949219 101.972656 8.226562 100.503906 9.335938 99.835938 L 9.351562 99.828125 L 9.519531 99.742188 L 9.566406 99.726562 L 9.589844 99.710938 L 9.835938 99.640625 L 9.910156 99.621094 L 9.996094 99.621094 L 10.011719 99.613281 Z M 10.367188 99.613281 Z M 9.589844 101.820312 C 8.902344 101.941406 8.679688 102.773438 8.765625 103.335938 C 8.804688 103.871094 9.011719 104.574219 9.621094 104.6875 C 10.273438 104.773438 10.695312 104.074219 10.710938 103.511719 C 10.742188 102.941406 10.710938 102.289062 10.210938 101.917969 L 10.097656 101.859375 L 10.011719 101.835938 L 9.941406 101.820312 L 9.925781 101.804688 L 9.605469 101.804688 Z M 9.589844 101.820312 Z M 9.589844 101.820312 "/>
<path style=" stroke:none;fill-rule:nonzero;fill:rgb(0%,0%,0%);fill-opacity:1;" d="M 3.6875 75.777344 C 4.441406 75.832031 4.941406 76.523438 5.074219 77.21875 C 5.148438 77.539062 5.164062 77.839844 5.195312 78.15625 L 5.195312 78.964844 C 5.15625 79.792969 4.957031 80.878906 4.058594 81.210938 C 3.28125 81.523438 2.367188 81.039062 2.136719 80.246094 C 1.964844 79.824219 1.949219 79.394531 1.910156 78.964844 L 1.910156 78.15625 C 1.949219 77.332031 2.121094 76.234375 3.011719 75.871094 L 3.050781 75.855469 L 3.082031 75.847656 L 3.121094 75.832031 L 3.242188 75.800781 L 3.3125 75.785156 L 3.398438 75.785156 L 3.417969 75.777344 Z M 3.6875 75.777344 Z M 3.441406 76.261719 C 2.773438 76.339844 2.574219 77.140625 2.527344 77.679688 L 2.527344 77.894531 L 2.511719 77.910156 L 2.511719 79.015625 C 2.558594 79.585938 2.597656 80.324219 3.121094 80.703125 C 3.605469 81.039062 4.25 80.664062 4.382812 80.148438 C 4.527344 79.769531 4.558594 79.394531 4.589844 79.015625 L 4.589844 77.910156 C 4.542969 77.332031 4.464844 76.523438 3.796875 76.292969 L 3.742188 76.277344 L 3.726562 76.261719 L 3.65625 76.261719 L 3.636719 76.246094 L 3.457031 76.246094 Z M 3.441406 76.261719 Z M 3.441406 76.261719 "/>
<path style=" stroke:none;fill-rule:nonzero;fill:rgb(0%,0%,0%);fill-opacity:1;" d="M 6.964844 80.492188 L 6.964844 81.125 L 6.320312 81.125 L 6.320312 80.492188 Z M 6.964844 80.492188 Z M 6.964844 80.492188 "/>
<path style=" stroke:none;fill-rule:nonzero;fill:rgb(0%,0%,0%);fill-opacity:1;" d="M 11.359375 75.941406 L 11.359375 76.441406 C 10.234375 77.761719 9.597656 79.539062 9.605469 81.210938 L 8.964844 81.210938 C 8.949219 79.523438 9.640625 77.738281 10.84375 76.492188 L 10.828125 76.472656 L 8.074219 76.472656 L 8.074219 75.941406 L 11.359375 75.941406 L 11.359375 76.441406 Z M 11.359375 75.941406 Z M 11.359375 75.941406 "/>
<path style=" stroke:none;fill-rule:nonzero;fill:rgb(0%,0%,0%);fill-opacity:1;" d="M 3.6875 51.9375 C 4.441406 51.992188 4.941406 52.683594 5.074219 53.382812 C 5.148438 53.699219 5.164062 54 5.195312 54.316406 L 5.195312 55.128906 C 5.15625 55.953125 4.957031 57.039062 4.058594 57.375 C 3.28125 57.683594 2.367188 57.199219 2.136719 56.40625 C 1.964844 55.984375 1.949219 55.554688 1.910156 55.128906 L 1.910156 54.316406 C 1.949219 53.492188 2.121094 52.398438 3.011719 52.03125 L 3.050781 52.015625 L 3.082031 52.007812 L 3.121094 51.992188 L 3.242188 51.960938 L 3.3125 51.945312 L 3.398438 51.945312 L 3.417969 51.9375 Z M 3.6875 51.9375 Z M 3.441406 52.421875 C 2.773438 52.5 2.574219 53.300781 2.527344 53.839844 L 2.527344 54.054688 L 2.511719 54.070312 L 2.511719 55.175781 C 2.558594 55.746094 2.597656 56.484375 3.121094 56.867188 C 3.605469 57.199219 4.25 56.824219 4.382812 56.308594 C 4.527344 55.929688 4.558594 55.554688 4.589844 55.175781 L 4.589844 54.070312 C 4.542969 53.492188 4.464844 52.683594 3.796875 52.453125 L 3.742188 52.4375 L 3.726562 52.421875 L 3.65625 52.421875 L 3.636719 52.40625 L 3.457031 52.40625 Z M 3.441406 52.421875 Z M 3.441406 52.421875 "/>
<path style=" stroke:none;fill-rule:nonzero;fill:rgb(0%,0%,0%);fill-opacity:1;" d="M 6.964844 56.652344 L 6.964844 57.285156 L 6.320312 57.285156 L 6.320312 56.652344 Z M 6.964844 56.652344 Z M 6.964844 56.652344 "/>
<path style=" stroke:none;fill-rule:nonzero;fill:rgb(0%,0%,0%);fill-opacity:1;" d="M 9.867188 51.9375 C 10.710938 51.96875 11.503906 52.875 11.171875 53.714844 C 11.027344 54.105469 10.632812 54.339844 10.304688 54.507812 C 11.113281 54.746094 11.605469 55.691406 11.242188 56.46875 C 10.859375 57.476562 9.417969 57.792969 8.621094 57.0625 C 7.902344 56.492188 7.875 55.253906 8.679688 54.746094 C 8.796875 54.621094 9.019531 54.578125 9.121094 54.484375 C 8.433594 54.285156 7.964844 53.484375 8.289062 52.808594 C 8.550781 52.207031 9.226562 51.875 9.867188 51.9375 Z M 9.867188 51.9375 Z M 9.566406 52.390625 C 8.980469 52.40625 8.566406 53.070312 8.765625 53.597656 C 8.996094 54.5 10.511719 54.46875 10.6875 53.539062 C 10.84375 53.023438 10.433594 52.40625 9.867188 52.390625 L 9.851562 52.382812 L 9.582031 52.382812 Z M 9.566406 52.390625 Z M 9.582031 54.746094 C 8.894531 54.792969 8.550781 55.621094 8.734375 56.207031 C 8.851562 57.039062 10.042969 57.285156 10.511719 56.621094 C 10.964844 56.007812 10.742188 54.914062 9.925781 54.746094 L 9.851562 54.746094 L 9.835938 54.730469 L 9.589844 54.730469 Z M 9.582031 54.746094 Z M 9.582031 54.746094 "/>
<path style=" stroke:none;fill-rule:nonzero;fill:rgb(0%,0%,0%);fill-opacity:1;" d="M 3.6875 28.097656 C 4.441406 28.152344 4.941406 28.84375 5.074219 29.542969 C 5.148438 29.859375 5.164062 30.160156 5.195312 30.480469 L 5.195312 31.289062 C 5.15625 32.113281 4.957031 33.203125 4.058594 33.535156 C 3.28125 33.84375 2.367188 33.359375 2.136719 32.566406 C 1.964844 32.144531 1.949219 31.71875 1.910156 31.289062 L 1.910156 30.480469 C 1.949219 29.652344 2.121094 28.558594 3.011719 28.191406 L 3.050781 28.175781 L 3.082031 28.167969 L 3.121094 28.152344 L 3.242188 28.121094 L 3.3125 28.105469 L 3.398438 28.105469 L 3.417969 28.097656 Z M 3.6875 28.097656 Z M 3.441406 28.582031 C 2.773438 28.660156 2.574219 29.464844 2.527344 30.003906 L 2.527344 30.21875 L 2.511719 30.234375 L 2.511719 31.335938 C 2.558594 31.90625 2.597656 32.644531 3.121094 33.027344 C 3.605469 33.359375 4.25 32.988281 4.382812 32.472656 C 4.527344 32.089844 4.558594 31.71875 4.589844 31.335938 L 4.589844 30.234375 C 4.542969 29.652344 4.464844 28.84375 3.796875 28.613281 L 3.742188 28.597656 L 3.726562 28.582031 L 3.65625 28.582031 L 3.636719 28.566406 L 3.457031 28.566406 Z M 3.441406 28.582031 Z M 3.441406 28.582031 "/>
<path style=" stroke:none;fill-rule:nonzero;fill:rgb(0%,0%,0%);fill-opacity:1;" d="M 6.964844 32.8125 L 6.964844 33.449219 L 6.320312 33.449219 L 6.320312 32.8125 Z M 6.964844 32.8125 Z M 6.964844 32.8125 "/>
<path style=" stroke:none;fill-rule:nonzero;fill:rgb(0%,0%,0%);fill-opacity:1;" d="M 9.886719 28.097656 C 10.835938 28.199219 11.25 29.28125 11.3125 30.105469 C 11.425781 31.175781 11.296875 32.429688 10.425781 33.203125 C 9.878906 33.75 8.910156 33.765625 8.320312 33.273438 C 8.394531 33.136719 8.472656 32.980469 8.558594 32.867188 C 9.074219 33.367188 9.980469 33.226562 10.3125 32.582031 C 10.550781 32.191406 10.695312 31.691406 10.6875 31.265625 C 10.21875 31.867188 9.1875 32.21875 8.621094 31.582031 C 8.050781 30.921875 7.949219 29.964844 8.234375 29.167969 C 8.527344 28.542969 9.15625 28.003906 9.886719 28.097656 Z M 9.886719 28.097656 Z M 9.621094 28.550781 C 9.050781 28.597656 8.757812 29.234375 8.71875 29.734375 C 8.695312 30.296875 8.71875 30.957031 9.21875 31.320312 C 9.773438 31.660156 10.488281 31.25 10.613281 30.644531 C 10.765625 30.058594 10.671875 29.429688 10.367188 28.882812 C 10.203125 28.652344 9.902344 28.488281 9.621094 28.550781 Z M 9.621094 28.550781 Z M 9.621094 28.550781 "/>
<path style=" stroke:none;fill-rule:nonzero;fill:rgb(0%,0%,0%);fill-opacity:1;" d="M 3.933594 4.257812 L 3.933594 9.15625 L 3.941406 9.171875 L 4.917969 9.171875 L 4.917969 9.609375 L 2.335938 9.609375 L 2.335938 9.171875 L 3.3125 9.171875 L 3.328125 9.15625 L 3.328125 5.042969 C 2.996094 5.15625 2.644531 5.226562 2.296875 5.21875 L 2.296875 4.773438 C 2.820312 4.78125 3.390625 4.640625 3.789062 4.257812 Z M 3.933594 4.257812 Z M 3.933594 4.257812 "/>
<path style=" stroke:none;fill-rule:nonzero;fill:rgb(0%,0%,0%);fill-opacity:1;" d="M 6.964844 8.972656 L 6.964844 9.609375 L 6.320312 9.609375 L 6.320312 8.972656 Z M 6.964844 8.972656 Z M 6.964844 8.972656 "/>
<path style=" stroke:none;fill-rule:nonzero;fill:rgb(0%,0%,0%);fill-opacity:1;" d="M 9.851562 4.257812 C 10.605469 4.3125 11.105469 5.003906 11.242188 5.703125 C 11.3125 6.019531 11.328125 6.324219 11.359375 6.640625 L 11.359375 7.449219 C 11.320312 8.273438 11.125 9.363281 10.226562 9.695312 C 9.449219 10.003906 8.535156 9.519531 8.304688 8.726562 C 8.128906 8.304688 8.113281 7.878906 8.074219 7.449219 L 8.074219 6.640625 C 8.113281 5.8125 8.289062 4.71875 9.179688 4.355469 L 9.21875 4.339844 L 9.25 4.332031 L 9.289062 4.3125 L 9.410156 4.28125 L 9.480469 4.265625 L 9.566406 4.265625 L 9.582031 4.257812 Z M 9.851562 4.257812 Z M 9.605469 4.742188 C 8.941406 4.820312 8.742188 5.625 8.695312 6.164062 L 8.695312 6.378906 L 8.679688 6.394531 L 8.679688 7.496094 C 8.726562 8.070312 8.765625 8.804688 9.289062 9.1875 C 9.773438 9.519531 10.417969 9.148438 10.550781 8.632812 C 10.695312 8.25 10.726562 7.878906 10.757812 7.496094 L 10.757812 6.394531 C 10.710938 5.8125 10.632812 5.003906 9.964844 4.773438 L 9.910156 4.757812 L 9.894531 4.742188 L 9.820312 4.742188 L 9.804688 4.726562 L 9.621094 4.726562 Z M 9.605469 4.742188 Z M 9.605469 4.742188 "/>
<path style="fill:none;stroke-width:0.02;stroke-linecap:butt;stroke-linejoin:miter;stroke:rgb(0%,0%,0%);stroke-opacity:1;stroke-miterlimit:10;" d="M 11.810063 1.219459 L 11.705056 1.219459 " transform="matrix(28.346457,0,0,-28.346457,1,256.11811)"/>
<path style="fill:none;stroke-width:0.02;stroke-linecap:butt;stroke-linejoin:miter;stroke:rgb(0%,0%,0%);stroke-opacity:1;stroke-miterlimit:10;" d="M 11.810063 2.060337 L 11.705056 2.060337 " transform="matrix(28.346457,0,0,-28.346457,1,256.11811)"/>
<path style="fill:none;stroke-width:0.02;stroke-linecap:butt;stroke-linejoin:miter;stroke:rgb(0%,0%,0%);stroke-opacity:1;stroke-miterlimit:10;" d="M 11.810063 2.901354 L 11.705056 2.901354 " transform="matrix(28.346457,0,0,-28.346457,1,256.11811)"/>
<path style="fill:none;stroke-width:0.02;stroke-linecap:butt;stroke-linejoin:miter;stroke:rgb(0%,0%,0%);stroke-opacity:1;stroke-miterlimit:10;" d="M 11.810063 3.742371 L 11.705056 3.742371 " transform="matrix(28.346457,0,0,-28.346457,1,256.11811)"/>
<path style="fill:none;stroke-width:0.02;stroke-linecap:butt;stroke-linejoin:miter;stroke:rgb(0%,0%,0%);stroke-opacity:1;stroke-miterlimit:10;" d="M 11.810063 4.583388 L 11.705056 4.583388 " transform="matrix(28.346457,0,0,-28.346457,1,256.11811)"/>
<path style="fill:none;stroke-width:0.02;stroke-linecap:butt;stroke-linejoin:miter;stroke:rgb(0%,0%,0%);stroke-opacity:1;stroke-miterlimit:10;" d="M 11.810063 5.424404 L 11.705056 5.424404 " transform="matrix(28.346457,0,0,-28.346457,1,256.11811)"/>
<path style="fill:none;stroke-width:0.02;stroke-linecap:butt;stroke-linejoin:miter;stroke:rgb(0%,0%,0%);stroke-opacity:1;stroke-miterlimit:10;" d="M 11.810063 6.265283 L 11.705056 6.265283 " transform="matrix(28.346457,0,0,-28.346457,1,256.11811)"/>
<path style="fill:none;stroke-width:0.02;stroke-linecap:butt;stroke-linejoin:miter;stroke:rgb(0%,0%,0%);stroke-opacity:1;stroke-miterlimit:10;" d="M 11.810063 7.1063 L 11.705056 7.1063 " transform="matrix(28.346457,0,0,-28.346457,1,256.11811)"/>
<path style="fill:none;stroke-width:0.02;stroke-linecap:butt;stroke-linejoin:miter;stroke:rgb(0%,0%,0%);stroke-opacity:1;stroke-miterlimit:10;" d="M 11.810063 7.947317 L 11.705056 7.947317 " transform="matrix(28.346457,0,0,-28.346457,1,256.11811)"/>
<path style="fill:none;stroke-width:0.02;stroke-linecap:round;stroke-linejoin:miter;stroke:rgb(0%,0%,0%);stroke-opacity:1;stroke-miterlimit:10;" d="M 11.810063 0.378442 L 11.810063 8.788333 " transform="matrix(28.346457,0,0,-28.346457,1,256.11811)"/>
<path style="fill:none;stroke-width:0.02;stroke-linecap:butt;stroke-linejoin:miter;stroke:rgb(0%,0%,0%);stroke-opacity:1;stroke-miterlimit:10;" d="M 2.428792 0.378442 L 2.428792 0.483448 " transform="matrix(28.346457,0,0,-28.346457,1,256.11811)"/>
<path style="fill:none;stroke-width:0.02;stroke-linecap:butt;stroke-linejoin:miter;stroke:rgb(0%,0%,0%);stroke-opacity:1;stroke-miterlimit:10;" d="M 4.304991 0.378442 L 4.304991 0.483448 " transform="matrix(28.346457,0,0,-28.346457,1,256.11811)"/>
<path style="fill:none;stroke-width:0.02;stroke-linecap:butt;stroke-linejoin:miter;stroke:rgb(0%,0%,0%);stroke-opacity:1;stroke-miterlimit:10;" d="M 6.181328 0.378442 L 6.181328 0.483448 " transform="matrix(28.346457,0,0,-28.346457,1,256.11811)"/>
<path style="fill:none;stroke-width:0.02;stroke-linecap:butt;stroke-linejoin:miter;stroke:rgb(0%,0%,0%);stroke-opacity:1;stroke-miterlimit:10;" d="M 8.057527 0.378442 L 8.057527 0.483448 " transform="matrix(28.346457,0,0,-28.346457,1,256.11811)"/>
<path style="fill:none;stroke-width:0.02;stroke-linecap:butt;stroke-linejoin:miter;stroke:rgb(0%,0%,0%);stroke-opacity:1;stroke-miterlimit:10;" d="M 9.933726 0.378442 L 9.933726 0.483448 " transform="matrix(28.346457,0,0,-28.346457,1,256.11811)"/>
<path style="fill:none;stroke-width:0.02;stroke-linecap:round;stroke-linejoin:miter;stroke:rgb(0%,0%,0%);stroke-opacity:1;stroke-miterlimit:10;" d="M 0.552593 0.378442 L 11.810063 0.378442 " transform="matrix(28.346457,0,0,-28.346457,1,256.11811)"/>
<path style=" stroke:none;fill-rule:nonzero;fill:rgb(0%,0%,0%);fill-opacity:1;" d="M 15.53125 253.589844 L 15.53125 254.035156 L 13.453125 254.035156 L 13.453125 253.589844 Z M 15.53125 253.589844 Z M 15.53125 253.589844 "/>
<path style=" stroke:none;fill-rule:nonzero;fill:rgb(0%,0%,0%);fill-opacity:1;" d="M 18.136719 250.210938 C 18.832031 250.242188 19.5625 250.882812 19.398438 251.621094 C 19.316406 252.121094 18.96875 252.535156 18.53125 252.757812 C 19.238281 252.980469 19.785156 253.726562 19.597656 254.464844 C 19.40625 255.425781 18.300781 255.957031 17.414062 255.664062 C 16.984375 255.535156 16.546875 255.265625 16.339844 254.867188 C 16.390625 254.75 16.375 254.542969 16.429688 254.464844 C 16.851562 255.082031 17.738281 255.503906 18.4375 255.15625 C 19.199219 254.671875 19.078125 253.257812 18.160156 253.019531 L 18.085938 253.019531 L 18.070312 253.003906 L 17.332031 253.003906 L 17.332031 252.527344 C 17.785156 252.519531 18.351562 252.464844 18.605469 251.996094 C 18.875 251.589844 18.851562 250.925781 18.332031 250.726562 C 17.722656 250.488281 16.96875 250.875 16.738281 251.496094 C 16.644531 251.359375 16.546875 251.226562 16.453125 251.082031 C 16.777344 250.496094 17.46875 250.144531 18.136719 250.210938 Z M 18.136719 250.210938 Z M 18.136719 250.210938 "/>
<path style=" stroke:none;fill-rule:nonzero;fill:rgb(0%,0%,0%);fill-opacity:1;" d="M 68.71875 253.589844 L 68.71875 254.035156 L 66.636719 254.035156 L 66.636719 253.589844 Z M 68.71875 253.589844 Z M 68.71875 253.589844 "/>
<path style=" stroke:none;fill-rule:nonzero;fill:rgb(0%,0%,0%);fill-opacity:1;" d="M 71.21875 250.210938 C 72.136719 250.234375 72.867188 251.179688 72.726562 252.066406 C 72.628906 252.957031 71.796875 253.464844 71.199219 254.019531 L 70.945312 254.28125 L 70.914062 254.296875 L 70.597656 254.605469 L 70.574219 254.621094 L 70.257812 254.941406 L 70.226562 254.957031 L 70.152344 255.027344 L 70.167969 255.035156 L 72.742188 255.035156 L 72.742188 255.558594 L 69.597656 255.558594 L 69.597656 255.082031 L 70.875 253.804688 C 71.488281 253.273438 72.203125 252.582031 72.089844 251.710938 C 72.027344 251.203125 71.597656 250.734375 71.074219 250.695312 C 70.542969 250.613281 70.074219 251.035156 69.953125 251.542969 L 69.9375 251.566406 L 69.921875 251.621094 L 69.898438 251.710938 L 69.851562 251.882812 L 69.84375 251.925781 C 69.734375 251.789062 69.613281 251.644531 69.527344 251.496094 C 69.683594 250.84375 70.210938 250.234375 70.898438 250.210938 Z M 71.21875 250.210938 Z M 71.21875 250.210938 "/>
<path style=" stroke:none;fill-rule:nonzero;fill:rgb(0%,0%,0%);fill-opacity:1;" d="M 121.902344 253.589844 L 121.902344 254.035156 L 119.820312 254.035156 L 119.820312 253.589844 Z M 121.902344 253.589844 Z M 121.902344 253.589844 "/>
<path style=" stroke:none;fill-rule:nonzero;fill:rgb(0%,0%,0%);fill-opacity:1;" d="M 124.734375 250.210938 L 124.734375 255.105469 L 124.742188 255.121094 L 125.71875 255.121094 L 125.71875 255.558594 L 123.140625 255.558594 L 123.140625 255.121094 L 124.117188 255.121094 L 124.132812 255.105469 L 124.132812 250.996094 C 123.796875 251.105469 123.449219 251.179688 123.101562 251.171875 L 123.101562 250.726562 C 123.625 250.734375 124.195312 250.589844 124.59375 250.210938 Z M 124.734375 250.210938 Z M 124.734375 250.210938 "/>
<path style=" stroke:none;fill-rule:nonzero;fill:rgb(0%,0%,0%);fill-opacity:1;" d="M 176.351562 250.210938 C 177.105469 250.265625 177.605469 250.957031 177.742188 251.652344 C 177.8125 251.972656 177.828125 252.273438 177.859375 252.589844 L 177.859375 253.398438 C 177.820312 254.226562 177.621094 255.3125 176.726562 255.644531 C 175.949219 255.957031 175.035156 255.472656 174.804688 254.679688 C 174.628906 254.257812 174.613281 253.828125 174.574219 253.398438 L 174.574219 252.589844 C 174.613281 251.765625 174.789062 250.667969 175.675781 250.304688 L 175.71875 250.289062 L 175.75 250.28125 L 175.789062 250.265625 L 175.90625 250.234375 L 175.980469 250.21875 L 176.066406 250.21875 L 176.082031 250.210938 Z M 176.351562 250.210938 Z M 176.105469 250.695312 C 175.441406 250.773438 175.242188 251.574219 175.195312 252.113281 L 175.195312 252.328125 L 175.175781 252.34375 L 175.175781 253.449219 C 175.226562 254.019531 175.265625 254.757812 175.789062 255.136719 C 176.273438 255.472656 176.914062 255.097656 177.050781 254.582031 C 177.195312 254.203125 177.226562 253.828125 177.257812 253.449219 L 177.257812 252.34375 C 177.210938 251.765625 177.128906 250.957031 176.464844 250.726562 L 176.40625 250.710938 L 176.390625 250.695312 L 176.320312 250.695312 L 176.304688 250.679688 L 176.121094 250.679688 Z M 176.105469 250.695312 Z M 176.105469 250.695312 "/>
<path style=" stroke:none;fill-rule:nonzero;fill:rgb(0%,0%,0%);fill-opacity:1;" d="M 229.78125 250.210938 L 229.78125 255.105469 L 229.792969 255.121094 L 230.765625 255.121094 L 230.765625 255.558594 L 228.1875 255.558594 L 228.1875 255.121094 L 229.164062 255.121094 L 229.179688 255.105469 L 229.179688 250.996094 C 228.847656 251.105469 228.496094 251.179688 228.148438 251.171875 L 228.148438 250.726562 C 228.671875 250.734375 229.242188 250.589844 229.640625 250.210938 Z M 229.78125 250.210938 Z M 229.78125 250.210938 "/>
<path style=" stroke:none;fill-rule:nonzero;fill:rgb(0%,0%,0%);fill-opacity:1;" d="M 282.632812 250.210938 C 283.554688 250.234375 284.285156 251.179688 284.140625 252.066406 C 284.046875 252.957031 283.214844 253.464844 282.617188 254.019531 L 282.363281 254.28125 L 282.332031 254.296875 L 282.015625 254.605469 L 281.992188 254.621094 L 281.675781 254.941406 L 281.640625 254.957031 L 281.570312 255.027344 L 281.585938 255.035156 L 284.160156 255.035156 L 284.160156 255.558594 L 281.015625 255.558594 L 281.015625 255.082031 L 282.292969 253.804688 C 282.90625 253.273438 283.617188 252.582031 283.507812 251.710938 C 283.445312 251.203125 283.015625 250.734375 282.492188 250.695312 C 281.960938 250.613281 281.492188 251.035156 281.371094 251.542969 L 281.355469 251.566406 L 281.339844 251.621094 L 281.316406 251.710938 L 281.269531 251.882812 L 281.261719 251.925781 C 281.148438 251.789062 281.03125 251.644531 280.945312 251.496094 C 281.101562 250.84375 281.625 250.234375 282.316406 250.210938 Z M 282.632812 250.210938 Z M 282.632812 250.210938 "/>
<path style=" stroke:none;fill-rule:nonzero;fill:rgb(0%,0%,0%);fill-opacity:1;" d="M 335.921875 250.210938 C 336.621094 250.242188 337.351562 250.882812 337.183594 251.621094 C 337.105469 252.121094 336.753906 252.535156 336.320312 252.757812 C 337.027344 252.980469 337.574219 253.726562 337.382812 254.464844 C 337.191406 255.425781 336.089844 255.957031 335.199219 255.664062 C 334.773438 255.535156 334.335938 255.265625 334.128906 254.867188 C 334.175781 254.75 334.160156 254.542969 334.214844 254.464844 C 334.636719 255.082031 335.527344 255.503906 336.222656 255.15625 C 336.984375 254.671875 336.867188 253.257812 335.945312 253.019531 L 335.875 253.019531 L 335.859375 253.003906 L 335.121094 253.003906 L 335.121094 252.527344 C 335.574219 252.519531 336.136719 252.464844 336.390625 251.996094 C 336.660156 251.589844 336.636719 250.925781 336.121094 250.726562 C 335.507812 250.488281 334.753906 250.875 334.527344 251.496094 C 334.429688 251.359375 334.335938 251.226562 334.238281 251.082031 C 334.566406 250.496094 335.253906 250.144531 335.921875 250.210938 Z M 335.921875 250.210938 Z M 335.921875 250.210938 "/>
<path style="fill:none;stroke-width:0.02;stroke-linecap:butt;stroke-linejoin:miter;stroke:rgb(0%,0%,0%);stroke-opacity:1;stroke-miterlimit:10;" d="M 2.428792 8.788333 L 2.428792 8.683327 " transform="matrix(28.346457,0,0,-28.346457,1,256.11811)"/>
<path style="fill:none;stroke-width:0.02;stroke-linecap:butt;stroke-linejoin:miter;stroke:rgb(0%,0%,0%);stroke-opacity:1;stroke-miterlimit:10;" d="M 4.304991 8.788333 L 4.304991 8.683327 " transform="matrix(28.346457,0,0,-28.346457,1,256.11811)"/>
<path style="fill:none;stroke-width:0.02;stroke-linecap:butt;stroke-linejoin:miter;stroke:rgb(0%,0%,0%);stroke-opacity:1;stroke-miterlimit:10;" d="M 6.181328 8.788333 L 6.181328 8.683327 " transform="matrix(28.346457,0,0,-28.346457,1,256.11811)"/>
<path style="fill:none;stroke-width:0.02;stroke-linecap:butt;stroke-linejoin:miter;stroke:rgb(0%,0%,0%);stroke-opacity:1;stroke-miterlimit:10;" d="M 8.057527 8.788333 L 8.057527 8.683327 " transform="matrix(28.346457,0,0,-28.346457,1,256.11811)"/>
<path style="fill:none;stroke-width:0.02;stroke-linecap:butt;stroke-linejoin:miter;stroke:rgb(0%,0%,0%);stroke-opacity:1;stroke-miterlimit:10;" d="M 9.933726 8.788333 L 9.933726 8.683327 " transform="matrix(28.346457,0,0,-28.346457,1,256.11811)"/>
<path style="fill:none;stroke-width:0.02;stroke-linecap:round;stroke-linejoin:miter;stroke:rgb(0%,0%,0%);stroke-opacity:1;stroke-miterlimit:10;" d="M 0.552593 8.788333 L 11.810063 8.788333 " transform="matrix(28.346457,0,0,-28.346457,1,256.11811)"/>
<path style="fill:none;stroke-width:0.05;stroke-linecap:butt;stroke-linejoin:miter;stroke:rgb(33%,47%,64%);stroke-opacity:1;stroke-miterlimit:10;" d="M 0.552593 0.379406 L 0.597793 0.379544 L 0.642993 0.37982 L 0.688192 0.379958 L 0.823791 0.380785 L 0.95939 0.382025 L 1.004728 0.382576 L 1.049927 0.383127 L 1.140327 0.384505 L 1.275926 0.387399 L 1.321125 0.388639 L 1.366325 0.390017 L 1.411525 0.391533 L 1.456724 0.393187 L 1.501924 0.395116 L 1.547261 0.397321 L 1.592461 0.399664 L 1.637661 0.402282 L 1.68286 0.405176 L 1.72806 0.408483 L 1.77326 0.412066 L 1.818459 0.416062 L 1.863659 0.42061 L 1.908859 0.425433 L 1.954058 0.430945 L 1.999258 0.436871 L 2.044457 0.443485 L 2.089657 0.450789 L 2.134995 0.458781 L 2.180194 0.467463 L 2.225394 0.477109 L 2.270594 0.487582 L 2.315793 0.49902 L 2.360993 0.51156 L 2.406192 0.525203 L 2.451392 0.539948 L 2.496592 0.556209 L 2.541791 0.57371 L 2.586991 0.592727 L 2.632191 0.61326 L 2.67739 0.635584 L 2.722728 0.659562 L 2.767928 0.685607 L 2.813127 0.713581 L 2.858327 0.743622 L 2.903526 0.775868 L 2.948726 0.810595 L 2.993926 0.847664 L 3.039125 0.887489 L 3.084325 0.929933 L 3.129525 0.97527 L 3.174724 1.023502 L 3.219924 1.074902 L 3.265262 1.129473 L 3.310461 1.187488 L 3.355661 1.248949 L 3.40086 1.313854 L 3.44606 1.38248 L 3.49126 1.454965 L 3.536459 1.531309 L 3.581659 1.611648 L 3.626859 1.696122 L 3.672058 1.784592 L 3.717258 1.877334 L 3.762458 1.974348 L 3.807657 2.075634 L 3.852995 2.181329 L 3.898194 2.291297 L 3.943394 2.405674 L 3.988594 2.524461 L 4.033793 2.647382 L 4.078993 2.774712 L 4.124193 2.906177 L 4.169392 3.041776 L 4.214592 3.181372 L 4.259792 3.324963 L 4.304991 3.472275 L 4.350191 3.623033 L 4.395528 3.777373 L 4.440728 3.934883 L 4.485928 4.095286 L 4.531127 4.258446 L 4.576327 4.424086 L 4.621527 4.591931 L 4.666726 4.761706 L 4.711926 4.932858 L 4.757126 5.105251 L 4.802325 5.278608 L 4.847525 5.452241 L 4.892725 5.626149 L 4.937924 5.799506 L 4.983262 5.972174 L 5.028461 6.143602 L 5.073661 6.313515 L 5.118861 6.481222 L 5.16406 6.646449 L 5.20926 6.808644 L 5.25446 6.967394 L 5.299659 7.122147 L 5.344859 7.272629 L 5.390059 7.418288 L 5.435258 7.558572 L 5.480458 7.693344 L 5.525658 7.821777 L 5.570995 7.943872 L 5.616195 8.058938 L 5.661394 8.1667 L 5.706594 8.266746 L 5.751794 8.358937 L 5.796993 8.442859 L 5.842193 8.5181 L 5.887393 8.584521 L 5.932592 8.641848 L 5.977792 8.689941 L 6.022992 8.728664 L 6.068191 8.757879 L 6.113529 8.777309 L 6.158728 8.787093 L 6.203928 8.787093 L 6.249128 8.777309 L 6.294327 8.757879 L 6.339527 8.728664 L 6.384727 8.689941 L 6.429926 8.641848 L 6.475126 8.584521 L 6.520326 8.5181 L 6.565525 8.442859 L 6.610725 8.358937 L 6.655924 8.266746 L 6.701262 8.1667 L 6.746462 8.058938 L 6.791661 7.943872 L 6.836861 7.821777 L 6.882061 7.693344 L 6.92726 7.558572 L 6.97246 7.418288 L 7.01766 7.272629 L 7.062859 7.122147 L 7.108059 6.967394 L 7.153258 6.808644 L 7.198458 6.646449 L 7.243796 6.481222 L 7.288995 6.313515 L 7.334195 6.143602 L 7.379395 5.972174 L 7.424594 5.799506 L 7.469794 5.626149 L 7.514993 5.452241 L 7.560193 5.278608 L 7.605393 5.105251 L 7.650592 4.932858 L 7.695792 4.761706 L 7.740992 4.591931 L 7.786191 4.424086 L 7.831529 4.258446 L 7.876729 4.095286 L 7.921928 3.934883 L 7.967128 3.777373 L 8.012327 3.623033 L 8.057527 3.472275 L 8.102727 3.324963 L 8.147926 3.181372 L 8.193126 3.041776 L 8.238326 2.906177 L 8.283525 2.774712 L 8.328725 2.647382 L 8.374063 2.524461 L 8.419262 2.405674 L 8.464462 2.291297 L 8.509661 2.181329 L 8.554861 2.075634 L 8.600061 1.974348 L 8.64526 1.877334 L 8.69046 1.784592 L 8.73566 1.696122 L 8.780859 1.611648 L 8.826059 1.531309 L 8.871259 1.454965 L 8.916458 1.38248 L 8.961796 1.313854 L 9.006995 1.248949 L 9.052195 1.187488 L 9.097395 1.129473 L 9.142594 1.074902 L 9.187794 1.023502 L 9.232994 0.97527 L 9.278193 0.929933 L 9.323393 0.887489 L 9.368593 0.847664 L 9.413792 0.810595 L 9.458992 0.775868 L 9.504192 0.743622 L 9.549529 0.713581 L 9.594729 0.685607 L 9.639928 0.659562 L 9.685128 0.635584 L 9.730328 0.61326 L 9.775527 0.592727 L 9.820727 0.57371 L 9.865927 0.556209 L 9.911126 0.539948 L 9.956326 0.525203 L 10.001526 0.51156 L 10.046725 0.49902 L 10.092063 0.487582 L 10.137262 0.477109 L 10.182462 0.467463 L 10.227662 0.458781 L 10.272861 0.450789 L 10.318061 0.443485 L 10.363261 0.436871 L 10.40846 0.430945 L 10.45366 0.425433 L 10.49886 0.42061 L 10.544059 0.416062 L 10.589259 0.412066 L 10.634459 0.408483 L 10.679796 0.405176 L 10.724996 0.402282 L 10.770195 0.399664 L 10.815395 0.397321 L 10.860595 0.395116 L 10.905794 0.393187 L 10.950994 0.391533 L 10.996194 0.390017 L 11.041393 0.388639 L 11.086593 0.387399 L 11.176992 0.38547 L 11.22233 0.384505 L 11.312729 0.383127 L 11.403128 0.382025 L 11.538727 0.380785 L 11.674326 0.379958 L 11.719526 0.37982 L 11.764725 0.379544 L 11.810063 0.379406 " transform="matrix(28.346457,0,0,-28.346457,1,256.11811)"/>
<path style="fill:none;stroke-width:0.05;stroke-linecap:butt;stroke-linejoin:miter;stroke:rgb(90%,57%,26%);stroke-opacity:1;stroke-miterlimit:10;" d="M 0.552593 0.378442 L 1.24175 1.40825 L 1.471469 1.751381 L 1.701326 2.094651 L 2.620202 3.467728 L 2.850059 3.810997 L 3.998653 5.527344 L 4.22851 5.870613 L 5.147386 7.24369 L 5.377243 7.586822 L 6.0664 8.61663 L 6.296119 8.61663 L 6.525838 8.27336 L 6.755694 7.930091 L 6.985413 7.586822 L 7.215132 7.24369 L 7.904289 6.213882 L 8.134146 5.870613 L 9.053022 4.497536 L 9.282879 4.154266 L 10.431474 2.43792 L 10.66133 2.094651 L 10.891049 1.751381 L 11.120768 1.40825 L 11.580206 0.721711 L 11.810063 0.378442 " transform="matrix(28.346457,0,0,-28.346457,1,256.11811)"/>
</g>
</svg>
