<?xml version="1.0" encoding="UTF-8"?>
<svg xmlns="http://www.w3.org/2000/svg" xmlns:xlink="http://www.w3.org/1999/xlink" width="342.15748pt" height="257.11811pt" viewBox="0 0 342.15748 257.11811" version="1.1">
<g id="surface1">
<path style=" stroke:none;fill-rule:nonzero;fill:rgb(100%,100%,100%);fill-opacity:1;" d="M -0.417969 257.535156 L 342.574219 257.535156 L 342.574219 -0.417969 L -0.417969 -0.417969 Z M -0.417969 257.535156 "/>
<path style="fill:none;stroke-width:0.02;stroke-linecap:butt;stroke-linejoin:miter;stroke:rgb(0%,0%,0%);stroke-opacity:1;stroke-miterlimit:10;" d="M 0.552593 1.219459 L 0.6576 1.219459 " transform="matrix(28.346457,0,0,-28.346457,1,256.11811)"/>
<path style="fill:none;stroke-width:0.02;stroke-linecap:butt;stroke-linejoin:miter;stroke:rgb(0%,0%,0%);stroke-opacity:1;stroke-miterlimit:10;" d="M 0.552593 2.060337 L 0.6576 2.060337 " transform="matrix(28.346457,0,0,-28.346457,1,256.11811)"/>
<path style="fill:none;stroke-width:0.02;stroke-linecap:butt;stroke-linejoin:miter;stroke:rgb(0%,0%,0%);stroke-opacity:1;stroke-miterlimit:10;" d="M 0.552593 2.901354 L 0.6576 2.901354 " transform="matrix(28.346457,0,0,-28.346457,1,256.11811)"/>
<path style="fill:none;stroke-width:0.02;stroke-linecap:butt;stroke-linejoin:miter;stroke:rgb(0%,0%,0%);stroke-opacity:1;stroke-miterlimit:10;" d="M 0.552593 3.742371 L 0.6576 3.742371 " transform="matrix(28.346457,0,0,-28.346457,1,256.11811)"/>
<path style="fill:none;stroke-width:0.02;stroke-linecap:butt;stroke-linejoin:miter;stroke:rgb(0%,0%,0%);stroke-opacity:1;stroke-miterlimit:10;" d="M 0.552593 4.583388 L 0.6576 4.583388 " transform="matrix(28.346457,0,0,-28.346457,1,256.11811)"/>
<path style="fill:none;stroke-width:0.02;stroke-linecap:butt;stroke-linejoin:miter;stroke:rgb(0%,0%,0%);stroke-opacity:1;stroke-miterlimit:10;" d="M 0.552593 5.424404 L 0.6576 5.424404 " transform="matrix(28.346457,0,0,-28.346457,1,256.11811)"/>
<path style="fill:none;stroke-width:0.02;stroke-linecap:butt;stroke-linejoin:miter;stroke:rgb(0%,0%,0%);stroke-opacity:1;stroke-miterlimit:10;" d="M 0.552593 6.265283 L 0.6576 6.265283 " transform="matrix(28.346457,0,0,-28.346457,1,256.11811)"/>
<path style="fill:none;stroke-width:0.02;stroke-linecap:butt;stroke-linejoin:miter;stroke:rgb(0%,0%,0%);stroke-opacity:1;stroke-miterlimit:10;" d="M 0.552593 7.1063 L 0.6576 7.1063 " transform="matrix(28.346457,0,0,-28.346457,1,256.11811)"/>
<path style="fill:none;stroke-width:0.02;stroke-linecap:butt;stroke-linejoin:miter;stroke:rgb(0%,0%,0%);stroke-opacity:1;stroke-miterlimit:10;" d="M 0.552593 7.947317 L 0.6576 7.947317 " transform="matrix(28.346457,0,0,-28.346457,1,256.11811)"/>
<path style="fill:none;stroke-width:0.02;stroke-linecap:round;stroke-linejoin:miter;stroke:rgb(0%,0%,0%);stroke-opacity:1;stroke-miterlimit:10;" d="M 0.552593 0.378442 L 0.552593 8.788333 " transform="matrix(28.346457,0,0,-28.346457,1,256.11811)"/>
<path style=" stroke:none;fill-rule:nonzero;fill:rgb(0%,0%,0%);fill-opacity:1;" d="M 3.6875 242.648438 C 4.441406 242.707031 4.941406 243.394531 5.074219 244.09375 C 5.148438 244.410156 5.164062 244.714844 5.195312 245.03125 L 5.195312 245.839844 C 5.15625 246.664062 4.957031 247.753906 4.058594 248.085938 C 3.28125 248.394531 2.367188 247.910156 2.136719 247.117188 C 1.964844 246.699219 1.949219 246.269531 1.910156 245.839844 L 1.910156 245.03125 C 1.949219 244.207031 2.121094 243.109375 3.011719 242.746094 L 3.050781 242.730469 L 3.082031 242.722656 L 3.121094 242.707031 L 3.242188 242.671875 L 3.3125 242.65625 L 3.398438 242.65625 L 3.417969 242.648438 Z M 3.6875 242.648438 Z M 3.441406 243.132812 C 2.773438 243.214844 2.574219 244.015625 2.527344 244.554688 L 2.527344 244.769531 L 2.511719 244.785156 L 2.511719 245.886719 C 2.558594 246.460938 2.597656 247.199219 3.121094 247.578125 C 3.605469 247.910156 4.25 247.539062 4.382812 247.023438 C 4.527344 246.640625 4.558594 246.269531 4.589844 245.886719 L 4.589844 244.785156 C 4.542969 244.207031 4.464844 243.394531 3.796875 243.164062 L 3.742188 243.148438 L 3.726562 243.132812 L 3.65625 243.132812 L 3.636719 243.117188 L 3.457031 243.117188 Z M 3.441406 243.132812 Z M 3.441406 243.132812 "/>
<path style=" stroke:none;fill-rule:nonzero;fill:rgb(0%,0%,0%);fill-opacity:1;" d="M 6.964844 247.363281 L 6.964844 248 L 6.320312 248 L 6.320312 247.363281 Z M 6.964844 247.363281 Z M 6.964844 247.363281 "/>
<path style=" stroke:none;fill-rule:nonzero;fill:rgb(0%,0%,0%);fill-opacity:1;" d="M 9.851562 242.648438 C 10.605469 242.707031 11.105469 243.394531 11.242188 244.09375 C 11.3125 244.410156 11.328125 244.714844 11.359375 245.03125 L 11.359375 245.839844 C 11.320312 246.664062 11.125 247.753906 10.226562 248.085938 C 9.449219 248.394531 8.535156 247.910156 8.304688 247.117188 C 8.128906 246.699219 8.113281 246.269531 8.074219 245.839844 L 8.074219 245.03125 C 8.113281 244.207031 8.289062 243.109375 9.179688 242.746094 L 9.21875 242.730469 L 9.25 242.722656 L 9.289062 242.707031 L 9.410156 242.671875 L 9.480469 242.65625 L 9.566406 242.65625 L 9.582031 242.648438 Z M 9.851562 242.648438 Z M 9.605469 243.132812 C 8.941406 243.214844 8.742188 244.015625 8.695312 244.554688 L 8.695312 244.769531 L 8.679688 244.785156 L 8.679688 245.886719 C 8.726562 246.460938 8.765625 247.199219 9.289062 247.578125 C 9.773438 247.910156 10.417969 247.539062 10.550781 247.023438 C 10.695312 246.640625 10.726562 246.269531 10.757812 245.886719 L 10.757812 244.785156 C 10.710938 244.207031 10.632812 243.394531 9.964844 243.164062 L 9.910156 243.148438 L 9.894531 243.132812 L 9.820312 243.132812 L 9.804688 243.117188 L 9.621094 243.117188 Z M 9.605469 243.132812 Z M 9.605469 243.132812 "/>
<path style=" stroke:none;fill-rule:nonzero;fill:rgb(0%,0%,0%);fill-opacity:1;" d="M 3.6875 218.808594 C 4.441406 218.867188 4.941406 219.554688 5.074219 220.253906 C 5.148438 220.574219 5.164062 220.875 5.195312 221.191406 L 5.195312 222 C 5.15625 222.828125 4.957031 223.914062 4.058594 224.246094 C 3.28125 224.558594 2.367188 224.074219 2.136719 223.277344 C 1.964844 222.859375 1.949219 222.429688 1.910156 222 L 1.910156 221.191406 C 1.949219 220.367188 2.121094 219.269531 3.011719 218.90625 L 3.050781 218.890625 L 3.082031 218.882812 L 3.121094 218.867188 L 3.242188 218.835938 L 3.3125 218.820312 L 3.398438 218.820312 L 3.417969 218.808594 Z M 3.6875 218.808594 Z M 3.441406 219.292969 C 2.773438 219.375 2.574219 220.175781 2.527344 220.714844 L 2.527344 220.929688 L 2.511719 220.945312 L 2.511719 222.046875 C 2.558594 222.621094 2.597656 223.359375 3.121094 223.738281 C 3.605469 224.074219 4.25 223.699219 4.382812 223.183594 C 4.527344 222.804688 4.558594 222.429688 4.589844 222.046875 L 4.589844 220.945312 C 4.542969 220.367188 4.464844 219.554688 3.796875 219.328125 L 3.742188 219.308594 L 3.726562 219.292969 L 3.65625 219.292969 L 3.636719 219.277344 L 3.457031 219.277344 Z M 3.441406 219.292969 Z M 3.441406 219.292969 "/>
<path style=" stroke:none;fill-rule:nonzero;fill:rgb(0%,0%,0%);fill-opacity:1;" d="M 6.964844 223.523438 L 6.964844 224.160156 L 6.320312 224.160156 L 6.320312 223.523438 Z M 6.964844 223.523438 Z M 6.964844 223.523438 "/>
<path style=" stroke:none;fill-rule:nonzero;fill:rgb(0%,0%,0%);fill-opacity:1;" d="M 10.097656 218.808594 L 10.097656 223.707031 L 10.105469 223.722656 L 11.082031 223.722656 L 11.082031 224.160156 L 8.503906 224.160156 L 8.503906 223.722656 L 9.480469 223.722656 L 9.496094 223.707031 L 9.496094 219.597656 C 9.164062 219.707031 8.8125 219.777344 8.464844 219.769531 L 8.464844 219.328125 C 8.988281 219.335938 9.558594 219.191406 9.957031 218.808594 Z M 10.097656 218.808594 Z M 10.097656 218.808594 "/>
<path style=" stroke:none;fill-rule:nonzero;fill:rgb(0%,0%,0%);fill-opacity:1;" d="M 3.6875 194.972656 C 4.441406 195.027344 4.941406 195.71875 5.074219 196.414062 C 5.148438 196.734375 5.164062 197.035156 5.195312 197.351562 L 5.195312 198.160156 C 5.15625 198.988281 4.957031 200.074219 4.058594 200.410156 C 3.28125 200.71875 2.367188 200.234375 2.136719 199.441406 C 1.964844 199.019531 1.949219 198.589844 1.910156 198.160156 L 1.910156 197.351562 C 1.949219 196.527344 2.121094 195.433594 3.011719 195.066406 L 3.050781 195.050781 L 3.082031 195.042969 L 3.121094 195.027344 L 3.242188 194.996094 L 3.3125 194.980469 L 3.398438 194.980469 L 3.417969 194.972656 Z M 3.6875 194.972656 Z M 3.441406 195.457031 C 2.773438 195.535156 2.574219 196.335938 2.527344 196.875 L 2.527344 197.089844 L 2.511719 197.105469 L 2.511719 198.210938 C 2.558594 198.78125 2.597656 199.519531 3.121094 199.898438 C 3.605469 200.234375 4.25 199.859375 4.382812 199.34375 C 4.527344 198.964844 4.558594 198.589844 4.589844 198.210938 L 4.589844 197.105469 C 4.542969 196.527344 4.464844 195.71875 3.796875 195.488281 L 3.742188 195.472656 L 3.726562 195.457031 L 3.65625 195.457031 L 3.636719 195.441406 L 3.457031 195.441406 Z M 3.441406 195.457031 Z M 3.441406 195.457031 "/>
<path style=" stroke:none;fill-rule:nonzero;fill:rgb(0%,0%,0%);fill-opacity:1;" d="M 6.964844 199.6875 L 6.964844 200.320312 L 6.320312 200.320312 L 6.320312 199.6875 Z M 6.964844 199.6875 Z M 6.964844 199.6875 "/>
<path style=" stroke:none;fill-rule:nonzero;fill:rgb(0%,0%,0%);fill-opacity:1;" d="M 9.765625 194.972656 C 10.6875 194.996094 11.417969 195.941406 11.273438 196.828125 C 11.179688 197.71875 10.34375 198.226562 9.75 198.78125 L 9.496094 199.042969 L 9.464844 199.058594 L 9.148438 199.367188 L 9.121094 199.382812 L 8.804688 199.703125 L 8.773438 199.71875 L 8.703125 199.789062 L 8.71875 199.796875 L 11.289062 199.796875 L 11.289062 200.320312 L 8.148438 200.320312 L 8.148438 199.84375 L 9.425781 198.566406 C 10.035156 198.035156 10.75 197.34375 10.640625 196.472656 C 10.574219 195.964844 10.148438 195.496094 9.621094 195.457031 C 9.089844 195.375 8.621094 195.796875 8.503906 196.304688 L 8.488281 196.328125 L 8.472656 196.382812 L 8.449219 196.472656 L 8.402344 196.644531 L 8.394531 196.6875 C 8.28125 196.550781 8.164062 196.40625 8.074219 196.257812 C 8.234375 195.605469 8.757812 194.996094 9.449219 194.972656 Z M 9.765625 194.972656 Z M 9.765625 194.972656 "/>
<path style=" stroke:none;fill-rule:nonzero;fill:rgb(0%,0%,0%);fill-opacity:1;" d="M 3.6875 171.132812 C 4.441406 171.1875 4.941406 171.878906 5.074219 172.578125 C 5.148438 172.894531 5.164062 173.195312 5.195312 173.511719 L 5.195312 174.324219 C 5.15625 175.148438 4.957031 176.234375 4.058594 176.570312 C 3.28125 176.878906 2.367188 176.394531 2.136719 175.601562 C 1.964844 175.179688 1.949219 174.75 1.910156 174.324219 L 1.910156 173.511719 C 1.949219 172.6875 2.121094 171.59375 3.011719 171.226562 L 3.050781 171.210938 L 3.082031 171.203125 L 3.121094 171.1875 L 3.242188 171.15625 L 3.3125 171.140625 L 3.398438 171.140625 L 3.417969 171.132812 Z M 3.6875 171.132812 Z M 3.441406 171.617188 C 2.773438 171.695312 2.574219 172.496094 2.527344 173.039062 L 2.527344 173.25 L 2.511719 173.265625 L 2.511719 174.371094 C 2.558594 174.941406 2.597656 175.679688 3.121094 176.0625 C 3.605469 176.394531 4.25 176.023438 4.382812 175.503906 C 4.527344 175.125 4.558594 174.75 4.589844 174.371094 L 4.589844 173.265625 C 4.542969 172.6875 4.464844 171.878906 3.796875 171.648438 L 3.742188 171.632812 L 3.726562 171.617188 L 3.65625 171.617188 L 3.636719 171.601562 L 3.457031 171.601562 Z M 3.441406 171.617188 Z M 3.441406 171.617188 "/>
<path style=" stroke:none;fill-rule:nonzero;fill:rgb(0%,0%,0%);fill-opacity:1;" d="M 6.964844 175.847656 L 6.964844 176.480469 L 6.320312 176.480469 L 6.320312 175.847656 Z M 6.964844 175.847656 Z M 6.964844 175.847656 "/>
<path style=" stroke:none;fill-rule:nonzero;fill:rgb(0%,0%,0%);fill-opacity:1;" d="M 9.867188 171.132812 C 10.566406 171.164062 11.296875 171.808594 11.132812 172.546875 C 11.050781 173.046875 10.703125 173.457031 10.265625 173.679688 C 10.972656 173.902344 11.519531 174.648438 11.328125 175.386719 C 11.140625 176.347656 10.035156 176.878906 9.148438 176.585938 C 8.71875 176.457031 8.28125 176.1875 8.074219 175.792969 C 8.121094 175.671875 8.105469 175.464844 8.164062 175.386719 C 8.582031 176.003906 9.472656 176.425781 10.171875 176.078125 C 10.933594 175.59375 10.8125 174.179688 9.894531 173.941406 L 9.820312 173.941406 L 9.804688 173.925781 L 9.066406 173.925781 L 9.066406 173.449219 C 9.519531 173.441406 10.082031 173.386719 10.335938 172.917969 C 10.605469 172.511719 10.582031 171.847656 10.066406 171.648438 C 9.457031 171.410156 8.703125 171.800781 8.472656 172.417969 C 8.375 172.28125 8.28125 172.148438 8.1875 172.003906 C 8.511719 171.417969 9.203125 171.070312 9.867188 171.132812 Z M 9.867188 171.132812 Z M 9.867188 171.132812 "/>
<path style=" stroke:none;fill-rule:nonzero;fill:rgb(0%,0%,0%);fill-opacity:1;" d="M 3.6875 147.292969 C 4.441406 147.347656 4.941406 148.039062 5.074219 148.738281 C 5.148438 149.054688 5.164062 149.355469 5.195312 149.675781 L 5.195312 150.484375 C 5.15625 151.308594 4.957031 152.398438 4.058594 152.730469 C 3.28125 153.039062 2.367188 152.554688 2.136719 151.761719 C 1.964844 151.339844 1.949219 150.914062 1.910156 150.484375 L 1.910156 149.675781 C 1.949219 148.847656 2.121094 147.753906 3.011719 147.386719 L 3.050781 147.371094 L 3.082031 147.363281 L 3.121094 147.347656 L 3.242188 147.316406 L 3.3125 147.300781 L 3.398438 147.300781 L 3.417969 147.292969 Z M 3.6875 147.292969 Z M 3.441406 147.777344 C 2.773438 147.855469 2.574219 148.660156 2.527344 149.199219 L 2.527344 149.414062 L 2.511719 149.429688 L 2.511719 150.53125 C 2.558594 151.101562 2.597656 151.839844 3.121094 152.222656 C 3.605469 152.554688 4.25 152.183594 4.382812 151.667969 C 4.527344 151.285156 4.558594 150.914062 4.589844 150.53125 L 4.589844 149.429688 C 4.542969 148.847656 4.464844 148.039062 3.796875 147.808594 L 3.742188 147.792969 L 3.726562 147.777344 L 3.65625 147.777344 L 3.636719 147.761719 L 3.457031 147.761719 Z M 3.441406 147.777344 Z M 3.441406 147.777344 "/>
<path style=" stroke:none;fill-rule:nonzero;fill:rgb(0%,0%,0%);fill-opacity:1;" d="M 6.964844 152.007812 L 6.964844 152.644531 L 6.320312 152.644531 L 6.320312 152.007812 Z M 6.964844 152.007812 Z M 6.964844 152.007812 "/>
<path style=" stroke:none;fill-rule:nonzero;fill:rgb(0%,0%,0%);fill-opacity:1;" d="M 10.671875 147.460938 L 10.671875 150.800781 L 10.6875 150.816406 L 11.472656 150.816406 L 11.472656 151.292969 L 10.6875 151.292969 L 10.671875 151.300781 L 10.671875 152.644531 L 10.066406 152.644531 L 10.066406 151.300781 L 10.050781 151.292969 L 7.957031 151.292969 L 7.957031 150.800781 C 8.621094 149.691406 9.289062 148.570312 9.957031 147.460938 Z M 10.671875 147.460938 Z M 10.082031 147.761719 C 9.925781 148.585938 9.417969 149.292969 9.035156 150.015625 C 8.886719 150.277344 8.6875 150.5625 8.574219 150.816406 L 10.097656 150.816406 L 10.105469 150.800781 L 10.105469 147.761719 L 10.097656 147.746094 Z M 10.082031 147.761719 Z M 10.082031 147.761719 "/>
<path style=" stroke:none;fill-rule:nonzero;fill:rgb(0%,0%,0%);fill-opacity:1;" d="M 3.6875 123.453125 C 4.441406 123.507812 4.941406 124.199219 5.074219 124.898438 C 5.148438 125.214844 5.164062 125.519531 5.195312 125.835938 L 5.195312 126.644531 C 5.15625 127.46875 4.957031 128.558594 4.058594 128.890625 C 3.28125 129.199219 2.367188 128.714844 2.136719 127.921875 C 1.964844 127.503906 1.949219 127.074219 1.910156 126.644531 L 1.910156 125.835938 C 1.949219 125.011719 2.121094 123.914062 3.011719 123.550781 L 3.050781 123.535156 L 3.082031 123.527344 L 3.121094 123.507812 L 3.242188 123.476562 L 3.3125 123.460938 L 3.398438 123.460938 L 3.417969 123.453125 Z M 3.6875 123.453125 Z M 3.441406 123.9375 C 2.773438 124.019531 2.574219 124.820312 2.527344 125.359375 L 2.527344 125.574219 L 2.511719 125.589844 L 2.511719 126.691406 C 2.558594 127.265625 2.597656 128.003906 3.121094 128.382812 C 3.605469 128.714844 4.25 128.34375 4.382812 127.828125 C 4.527344 127.445312 4.558594 127.074219 4.589844 126.691406 L 4.589844 125.589844 C 4.542969 125.011719 4.464844 124.199219 3.796875 123.96875 L 3.742188 123.953125 L 3.726562 123.9375 L 3.65625 123.9375 L 3.636719 123.921875 L 3.457031 123.921875 Z M 3.441406 123.9375 Z M 3.441406 123.9375 "/>
<path style=" stroke:none;fill-rule:nonzero;fill:rgb(0%,0%,0%);fill-opacity:1;" d="M 6.964844 128.167969 L 6.964844 128.804688 L 6.320312 128.804688 L 6.320312 128.167969 Z M 6.964844 128.167969 Z M 6.964844 128.167969 "/>
<path style=" stroke:none;fill-rule:nonzero;fill:rgb(0%,0%,0%);fill-opacity:1;" d="M 11.027344 123.621094 L 11.027344 124.113281 L 8.964844 124.113281 L 8.949219 124.121094 L 8.949219 125.746094 C 9.140625 125.621094 9.410156 125.453125 9.664062 125.445312 C 10.558594 125.351562 11.25 126.230469 11.289062 127.050781 C 11.417969 128.089844 10.441406 129.121094 9.394531 128.960938 C 8.867188 128.945312 8.359375 128.636719 8.058594 128.207031 C 8.148438 128.089844 8.21875 127.882812 8.320312 127.8125 C 8.695312 128.542969 9.902344 128.835938 10.386719 128.066406 C 10.695312 127.484375 10.6875 126.746094 10.328125 126.191406 C 9.917969 125.660156 9.097656 125.984375 8.910156 126.550781 L 8.394531 126.550781 L 8.394531 123.621094 Z M 11.027344 123.621094 Z M 11.027344 123.621094 "/>
<path style=" stroke:none;fill-rule:nonzero;fill:rgb(0%,0%,0%);fill-opacity:1;" d="M 3.6875 99.613281 C 4.441406 99.671875 4.941406 100.359375 5.074219 101.058594 C 5.148438 101.378906 5.164062 101.679688 5.195312 101.996094 L 5.195312 102.804688 C 5.15625 103.632812 4.957031 104.71875 4.058594 105.050781 C 3.28125 105.363281 2.367188 104.878906 2.136719 104.082031 C 1.964844 103.664062 1.949219 103.234375 1.910156 102.804688 L 1.910156 101.996094 C 1.949219 101.171875 2.121094 100.074219 3.011719 99.710938 L 3.050781 99.695312 L 3.082031 99.6875 L 3.121094 99.671875 L 3.242188 99.640625 L 3.3125 99.621094 L 3.398438 99.621094 L 3.417969 99.613281 Z M 3.6875 99.613281 Z M 3.441406 100.097656 C 2.773438 100.179688 2.574219 100.980469 2.527344 101.519531 L 2.527344 101.734375 L 2.511719 101.75 L 2.511719 102.851562 C 2.558594 103.425781 2.597656 104.164062 3.121094 104.542969 C 3.605469 104.878906 4.25 104.503906 4.382812 103.988281 C 4.527344 103.605469 4.558594 103.234375 4.589844 102.851562 L 4.589844 101.75 C 4.542969 101.171875 4.464844 100.359375 3.796875 100.132812 L 3.742188 100.113281 L 3.726562 100.097656 L 3.65625 100.097656 L 3.636719 100.082031 L 3.457031 100.082031 Z M 3.441406 100.097656 Z M 3.441406 100.097656 "/>
<path style=" stroke:none;fill-rule:nonzero;fill:rgb(0%,0%,0%);fill-opacity:1;" d="M 6.964844 104.328125 L 6.964844 104.964844 L 6.320312 104.964844 L 6.320312 104.328125 Z M 6.964844 104.328125 Z M 6.964844 104.328125 "/>
<path style=" stroke:none;fill-rule:nonzero;fill:rgb(0%,0%,0%);fill-opacity:1;" d="M 10.367188 99.613281 C 10.574219 99.648438 10.8125 99.671875 11.011719 99.765625 L 11.011719 100.226562 C 10.464844 99.988281 9.75 99.957031 9.320312 100.441406 C 8.941406 100.84375 8.765625 101.449219 8.75 101.980469 C 9.210938 101.367188 10.25 101.027344 10.8125 101.664062 C 11.378906 102.3125 11.472656 103.25 11.21875 104.042969 C 10.941406 104.679688 10.296875 105.257812 9.582031 105.125 C 8.613281 105.042969 8.179688 103.964844 8.128906 103.140625 C 7.949219 101.972656 8.226562 100.503906 9.335938 99.835938 L 9.351562 99.828125 L 9.519531 99.742188 L 9.566406 99.726562 L 9.589844 99.710938 L 9.835938 99.640625 L 9.910156 99.621094 L 9.996094 99.621094 L 10.011719 99.613281 Z M 10.367188 99.613281 Z M 9.589844 101.820312 C 8.902344 101.941406 8.679688 102.773438 8.765625 103.335938 C 8.804688 103.871094 9.011719 104.574219 9.621094 104.6875 C 10.273438 104.773438 10.695312 104.074219 10.710938 103.511719 C 10.742188 102.941406 10.710938 102.289062 10.210938 101.917969 L 10.097656 101.859375 L 10.011719 101.835938 L 9.941406 101.820312 L 9.925781 101.804688 L 9.605469 101.804688 Z M 9.589844 101.820312 Z M 9.589844 101.820312 "/>
<path style=" stroke:none;fill-rule:nonzero;fill:rgb(0%,0%,0%);fill-opacity:1;" d="M 3.6875 75.777344 C 4.441406 75.832031 4.941406 76.523438 5.074219 77.21875 C 5.148438 77.539062 5.164062 77.839844 5.195312 78.15625 L 5.195312 78.964844 C 5.15625 79.792969 4.957031 80.878906 4.058594 81.210938 C 3.28125 81.523438 2.367188 81.039062 2.136719 80.246094 C 1.964844 79.824219 1.949219 79.394531 1.910156 78.964844 L 1.910156 78.15625 C 1.949219 77.332031 2.121094 76.234375 3.011719 75.871094 L 3.050781 75.855469 L 3.082031 75.847656 L 3.121094 75.832031 L 3.242188 75.800781 L 3.3125 75.785156 L 3.398438 75.785156 L 3.417969 75.777344 Z M 3.6875 75.777344 Z M 3.441406 76.261719 C 2.773438 76.339844 2.574219 77.140625 2.527344 77.679688 L 2.527344 77.894531 L 2.511719 77.910156 L 2.511719 79.015625 C 2.558594 79.585938 2.597656 80.324219 3.121094 80.703125 C 3.605469 81.039062 4.25 80.664062 4.382812 80.148438 C 4.527344 79.769531 4.558594 79.394531 4.589844 79.015625 L 4.589844 77.910156 C 4.542969 77.332031 4.464844 76.523438 3.796875 76.292969 L 3.742188 76.277344 L 3.726562 76.261719 L 3.65625 76.261719 L 3.636719 76.246094 L 3.457031 76.246094 Z M 3.441406 76.261719 Z M 3.441406 76.261719 "/>
<path style=" stroke:none;fill-rule:nonzero;fill:rgb(0%,0%,0%);fill-opacity:1;" d="M 6.964844 80.492188 L 6.964844 81.125 L 6.320312 81.125 L 6.320312 80.492188 Z M 6.964844 80.492188 Z M 6.964844 80.492188 "/>
<path style=" stroke:none;fill-rule:nonzero;fill:rgb(0%,0%,0%);fill-opacity:1;" d="M 11.359375 75.941406 L 11.359375 76.441406 C 10.234375 77.761719 9.597656 79.539062 9.605469 81.210938 L 8.964844 81.210938 C 8.949219 79.523438 9.640625 77.738281 10.84375 76.492188 L 10.828125 76.472656 L 8.074219 76.472656 L 8.074219 75.941406 L 11.359375 75.941406 L 11.359375 76.441406 Z M 11.359375 75.941406 Z M 11.359375 75.941406 "/>
<path style=" stroke:none;fill-rule:nonzero;fill:rgb(0%,0%,0%);fill-opacity:1;" d="M 3.6875 51.9375 C 4.441406 51.992188 4.941406 52.683594 5.074219 53.382812 C 5.148438 53.699219 5.164062 54 5.195312 54.316406 L 5.195312 55.128906 C 5.15625 55.953125 4.957031 57.039062 4.058594 57.375 C 3.28125 57.683594 2.367188 57.199219 2.136719 56.40625 C 1.964844 55.984375 1.949219 55.554688 1.910156 55.128906 L 1.910156 54.316406 C 1.949219 53.492188 2.121094 52.398438 3.011719 52.03125 L 3.050781 52.015625 L 3.082031 52.007812 L 3.121094 51.992188 L 3.242188 51.960938 L 3.3125 51.945312 L 3.398438 51.945312 L 3.417969 51.9375 Z M 3.6875 51.9375 Z M 3.441406 52.421875 C 2.773438 52.5 2.574219 53.300781 2.527344 53.839844 L 2.527344 54.054688 L 2.511719 54.070312 L 2.511719 55.175781 C 2.558594 55.746094 2.597656 56.484375 3.121094 56.867188 C 3.605469 57.199219 4.25 56.824219 4.382812 56.308594 C 4.527344 55.929688 4.558594 55.554688 4.589844 55.175781 L 4.589844 54.070312 C 4.542969 53.492188 4.464844 52.683594 3.796875 52.453125 L 3.742188 52.4375 L 3.726562 52.421875 L 3.65625 52.421875 L 3.636719 52.40625 L 3.457031 52.40625 Z M 3.441406 52.421875 Z M 3.441406 52.421875 "/>
<path style=" stroke:none;fill-rule:nonzero;fill:rgb(0%,0%,0%);fill-opacity:1;" d="M 6.964844 56.652344 L 6.964844 57.285156 L 6.320312 57.285156 L 6.320312 56.652344 Z M 6.964844 56.652344 Z M 6.964844 56.652344 "/>
<path style=" stroke:none;fill-rule:nonzero;fill:rgb(0%,0%,0%);fill-opacity:1;" d="M 9.867188 51.9375 C 10.710938 51.96875 11.503906 52.875 11.171875 53.714844 C 11.027344 54.105469 10.632812 54.339844 10.304688 54.507812 C 11.113281 54.746094 11.605469 55.691406 11.242188 56.46875 C 10.859375 57.476562 9.417969 57.792969 8.621094 57.0625 C 7.902344 56.492188 7.875 55.253906 8.679688 54.746094 C 8.796875 54.621094 9.019531 54.578125 9.121094 54.484375 C 8.433594 54.285156 7.964844 53.484375 8.289062 52.808594 C 8.550781 52.207031 9.226562 51.875 9.867188 51.9375 Z M 9.867188 51.9375 Z M 9.566406 52.390625 C 8.980469 52.40625 8.566406 53.070312 8.765625 53.597656 C 8.996094 54.5 10.511719 54.46875 10.6875 53.539062 C 10.84375 53.023438 10.433594 52.40625 9.867188 52.390625 L 9.851562 52.382812 L 9.582031 52.382812 Z M 9.566406 52.390625 Z M 9.582031 54.746094 C 8.894531 54.792969 8.550781 55.621094 8.734375 56.207031 C 8.851562 57.039062 10.042969 57.285156 10.511719 56.621094 C 10.964844 56.007812 10.742188 54.914062 9.925781 54.746094 L 9.851562 54.746094 L 9.835938 54.730469 L 9.589844 54.730469 Z M 9.582031 54.746094 Z M 9.582031 54.746094 "/>
<path style=" stroke:none;fill-rule:nonzero;fill:rgb(0%,0%,0%);fill-opacity:1;" d="M 3.6875 28.097656 C 4.441406 28.152344 4.941406 28.84375 5.074219 29.542969 C 5.148438 29.859375 5.164062 30.160156 5.195312 30.480469 L 5.195312 31.289062 C 5.15625 32.113281 4.957031 33.203125 4.058594 33.535156 C 3.28125 33.84375 2.367188 33.359375 2.136719 32.566406 C 1.964844 32.144531 1.949219 31.71875 1.910156 31.289062 L 1.910156 30.480469 C 1.949219 29.652344 2.121094 28.558594 3.011719 28.191406 L 3.050781 28.175781 L 3.082031 28.167969 L 3.121094 28.152344 L 3.242188 28.121094 L 3.3125 28.105469 L 3.398438 28.105469 L 3.417969 28.097656 Z M 3.6875 28.097656 Z M 3.441406 28.582031 C 2.773438 28.660156 2.574219 29.464844 2.527344 30.003906 L 2.527344 30.21875 L 2.511719 30.234375 L 2.511719 31.335938 C 2.558594 31.90625 2.597656 32.644531 3.121094 33.027344 C 3.605469 33.359375 4.25 32.988281 4.382812 32.472656 C 4.527344 32.089844 4.558594 31.71875 4.589844 31.335938 L 4.589844 30.234375 C 4.542969 29.652344 4.464844 28.84375 3.796875 28.613281 L 3.742188 28.597656 L 3.726562 28.582031 L 3.65625 28.582031 L 3.636719 28.566406 L 3.457031 28.566406 Z M 3.441406 28.582031 Z M 3.441406 28.582031 "/>
<path style=" stroke:none;fill-rule:nonzero;fill:rgb(0%,0%,0%);fill-opacity:1;" d="M 6.964844 32.8125 L 6.964844 33.449219 L 6.320312 33.449219 L 6.320312 32.8125 Z M 6.964844 32.8125 Z M 6.964844 32.8125 "/>
<path style=" stroke:none;fill-rule:nonzero;fill:rgb(0%,0%,0%);fill-opacity:1;" d="M 9.886719 28.097656 C 10.835938 28.199219 11.25 29.28125 11.3125 30.105469 C 11.425781 31.175781 11.296875 32.429688 10.425781 33.203125 C 9.878906 33.75 8.910156 33.765625 8.320312 33.273438 C 8.394531 33.136719 8.472656 32.980469 8.558594 32.867188 C 9.074219 33.367188 9.980469 33.226562 10.3125 32.582031 C 10.550781 32.191406 10.695312 31.691406 10.6875 31.265625 C 10.21875 31.867188 9.1875 32.21875 8.621094 31.582031 C 8.050781 30.921875 7.949219 29.964844 8.234375 29.167969 C 8.527344 28.542969 9.15625 28.003906 9.886719 28.097656 Z M 9.886719 28.097656 Z M 9.621094 28.550781 C 9.050781 28.597656 8.757812 29.234375 8.71875 29.734375 C 8.695312 30.296875 8.71875 30.957031 9.21875 31.320312 C 9.773438 31.660156 10.488281 31.25 10.613281 30.644531 C 10.765625 30.058594 10.671875 29.429688 10.367188 28.882812 C 10.203125 28.652344 9.902344 28.488281 9.621094 28.550781 Z M 9.621094 28.550781 Z M 9.621094 28.550781 "/>
<path style=" stroke:none;fill-rule:nonzero;fill:rgb(0%,0%,0%);fill-opacity:1;" d="M 3.933594 4.257812 L 3.933594 9.15625 L 3.941406 9.171875 L 4.917969 9.171875 L 4.917969 9.609375 L 2.335938 9.609375 L 2.335938 9.171875 L 3.3125 9.171875 L 3.328125 9.15625 L 3.328125 5.042969 C 2.996094 5.15625 2.644531 5.226562 2.296875 5.21875 L 2.296875 4.773438 C 2.820312 4.78125 3.390625 4.640625 3.789062 4.257812 Z M 3.933594 4.257812 Z M 3.933594 4.257812 "/>
<path style=" stroke:none;fill-rule:nonzero;fill:rgb(0%,0%,0%);fill-opacity:1;" d="M 6.964844 8.972656 L 6.964844 9.609375 L 6.320312 9.609375 L 6.320312 8.972656 Z M 6.964844 8.972656 Z M 6.964844 8.972656 "/>
<path style=" stroke:none;fill-rule:nonzero;fill:rgb(0%,0%,0%);fill-opacity:1;" d="M 9.851562 4.257812 C 10.605469 4.3125 11.105469 5.003906 11.242188 5.703125 C 11.3125 6.019531 11.328125 6.324219 11.359375 6.640625 L 11.359375 7.449219 C 11.320312 8.273438 11.125 9.363281 10.226562 9.695312 C 9.449219 10.003906 8.535156 9.519531 8.304688 8.726562 C 8.128906 8.304688 8.113281 7.878906 8.074219 7.449219 L 8.074219 6.640625 C 8.113281 5.8125 8.289062 4.71875 9.179688 4.355469 L 9.21875 4.339844 L 9.25 4.332031 L 9.289062 4.3125 L 9.410156 4.28125 L 9.480469 4.265625 L 9.566406 4.265625 L 9.582031 4.257812 Z M 9.851562 4.257812 Z M 9.605469 4.742188 C 8.941406 4.820312 8.742188 5.625 8.695312 6.164062 L 8.695312 6.378906 L 8.679688 6.394531 L 8.679688 7.496094 C 8.726562 8.070312 8.765625 8.804688 9.289062 9.1875 C 9.773438 9.519531 10.417969 9.148438 10.550781 8.632812 C 10.695312 8.25 10.726562 7.878906 10.757812 7.496094 L 10.757812 6.394531 C 10.710938 5.8125 10.632812 5.003906 9.964844 4.773438 L 9.910156 4.757812 L 9.894531 4.742188 L 9.820312 4.742188 L 9.804688 4.726562 L 9.621094 4.726562 Z M 9.605469 4.742188 Z M 9.605469 4.742188 "/>
<path style="fill:none;stroke-width:0.02;stroke-linecap:butt;stroke-linejoin:miter;stroke:rgb(0%,0%,0%);stroke-opacity:1;stroke-miterlimit:10;" d="M 11.701198 1.219459 L 11.596191 1.219459 " transform="matrix(28.346457,0,0,-28.346457,1,256.11811)"/>
<path style="fill:none;stroke-width:0.02;stroke-linecap:butt;stroke-linejoin:miter;stroke:rgb(0%,0%,0%);stroke-opacity:1;stroke-miterlimit:10;" d="M 11.701198 2.060337 L 11.596191 2.060337 " transform="matrix(28.346457,0,0,-28.346457,1,256.11811)"/>
<path style="fill:none;stroke-width:0.02;stroke-linecap:butt;stroke-linejoin:miter;stroke:rgb(0%,0%,0%);stroke-opacity:1;stroke-miterlimit:10;" d="M 11.701198 2.901354 L 11.596191 2.901354 " transform="matrix(28.346457,0,0,-28.346457,1,256.11811)"/>
<path style="fill:none;stroke-width:0.02;stroke-linecap:butt;stroke-linejoin:miter;stroke:rgb(0%,0%,0%);stroke-opacity:1;stroke-miterlimit:10;" d="M 11.701198 3.742371 L 11.596191 3.742371 " transform="matrix(28.346457,0,0,-28.346457,1,256.11811)"/>
<path style="fill:none;stroke-width:0.02;stroke-linecap:butt;stroke-linejoin:miter;stroke:rgb(0%,0%,0%);stroke-opacity:1;stroke-miterlimit:10;" d="M 11.701198 4.583388 L 11.596191 4.583388 " transform="matrix(28.346457,0,0,-28.346457,1,256.11811)"/>
<path style="fill:none;stroke-width:0.02;stroke-linecap:butt;stroke-linejoin:miter;stroke:rgb(0%,0%,0%);stroke-opacity:1;stroke-miterlimit:10;" d="M 11.701198 5.424404 L 11.596191 5.424404 " transform="matrix(28.346457,0,0,-28.346457,1,256.11811)"/>
<path style="fill:none;stroke-width:0.02;stroke-linecap:butt;stroke-linejoin:miter;stroke:rgb(0%,0%,0%);stroke-opacity:1;stroke-miterlimit:10;" d="M 11.701198 6.265283 L 11.596191 6.265283 " transform="matrix(28.346457,0,0,-28.346457,1,256.11811)"/>
<path style="fill:none;stroke-width:0.02;stroke-linecap:butt;stroke-linejoin:miter;stroke:rgb(0%,0%,0%);stroke-opacity:1;stroke-miterlimit:10;" d="M 11.701198 7.1063 L 11.596191 7.1063 " transform="matrix(28.346457,0,0,-28.346457,1,256.11811)"/>
<path style="fill:none;stroke-width:0.02;stroke-linecap:butt;stroke-linejoin:miter;stroke:rgb(0%,0%,0%);stroke-opacity:1;stroke-miterlimit:10;" d="M 11.701198 7.947317 L 11.596191 7.947317 " transform="matrix(28.346457,0,0,-28.346457,1,256.11811)"/>
<path style="fill:none;stroke-width:0.02;stroke-linecap:round;stroke-linejoin:miter;stroke:rgb(0%,0%,0%);stroke-opacity:1;stroke-miterlimit:10;" d="M 11.701198 0.378442 L 11.701198 8.788333 " transform="matrix(28.346457,0,0,-28.346457,1,256.11811)"/>
<path style="fill:none;stroke-width:0.02;stroke-linecap:butt;stroke-linejoin:miter;stroke:rgb(0%,0%,0%);stroke-opacity:1;stroke-miterlimit:10;" d="M 1.667426 0.378442 L 1.667426 0.483448 " transform="matrix(28.346457,0,0,-28.346457,1,256.11811)"/>
<path style="fill:none;stroke-width:0.02;stroke-linecap:butt;stroke-linejoin:miter;stroke:rgb(0%,0%,0%);stroke-opacity:1;stroke-miterlimit:10;" d="M 2.782259 0.378442 L 2.782259 0.483448 " transform="matrix(28.346457,0,0,-28.346457,1,256.11811)"/>
<path style="fill:none;stroke-width:0.02;stroke-linecap:butt;stroke-linejoin:miter;stroke:rgb(0%,0%,0%);stroke-opacity:1;stroke-miterlimit:10;" d="M 3.897092 0.378442 L 3.897092 0.483448 " transform="matrix(28.346457,0,0,-28.346457,1,256.11811)"/>
<path style="fill:none;stroke-width:0.02;stroke-linecap:butt;stroke-linejoin:miter;stroke:rgb(0%,0%,0%);stroke-opacity:1;stroke-miterlimit:10;" d="M 5.012063 0.378442 L 5.012063 0.483448 " transform="matrix(28.346457,0,0,-28.346457,1,256.11811)"/>
<path style="fill:none;stroke-width:0.02;stroke-linecap:butt;stroke-linejoin:miter;stroke:rgb(0%,0%,0%);stroke-opacity:1;stroke-miterlimit:10;" d="M 6.126896 0.378442 L 6.126896 0.483448 " transform="matrix(28.346457,0,0,-28.346457,1,256.11811)"/>
<path style="fill:none;stroke-width:0.02;stroke-linecap:butt;stroke-linejoin:miter;stroke:rgb(0%,0%,0%);stroke-opacity:1;stroke-miterlimit:10;" d="M 7.241729 0.378442 L 7.241729 0.483448 " transform="matrix(28.346457,0,0,-28.346457,1,256.11811)"/>
<path style="fill:none;stroke-width:0.02;stroke-linecap:butt;stroke-linejoin:miter;stroke:rgb(0%,0%,0%);stroke-opacity:1;stroke-miterlimit:10;" d="M 8.356561 0.378442 L 8.356561 0.483448 " transform="matrix(28.346457,0,0,-28.346457,1,256.11811)"/>
<path style="fill:none;stroke-width:0.02;stroke-linecap:butt;stroke-linejoin:miter;stroke:rgb(0%,0%,0%);stroke-opacity:1;stroke-miterlimit:10;" d="M 9.471532 0.378442 L 9.471532 0.483448 " transform="matrix(28.346457,0,0,-28.346457,1,256.11811)"/>
<path style="fill:none;stroke-width:0.02;stroke-linecap:butt;stroke-linejoin:miter;stroke:rgb(0%,0%,0%);stroke-opacity:1;stroke-miterlimit:10;" d="M 10.586365 0.378442 L 10.586365 0.483448 " transform="matrix(28.346457,0,0,-28.346457,1,256.11811)"/>
<path style="fill:none;stroke-width:0.02;stroke-linecap:round;stroke-linejoin:miter;stroke:rgb(0%,0%,0%);stroke-opacity:1;stroke-miterlimit:10;" d="M 0.552593 0.378442 L 11.701198 0.378442 " transform="matrix(28.346457,0,0,-28.346457,1,256.11811)"/>
<path style=" stroke:none;fill-rule:nonzero;fill:rgb(0%,0%,0%);fill-opacity:1;" d="M 12.449219 253.589844 L 12.449219 254.035156 L 10.367188 254.035156 L 10.367188 253.589844 Z M 12.449219 253.589844 Z M 12.449219 253.589844 "/>
<path style=" stroke:none;fill-rule:nonzero;fill:rgb(0%,0%,0%);fill-opacity:1;" d="M 15.28125 250.210938 L 15.28125 255.105469 L 15.289062 255.121094 L 16.265625 255.121094 L 16.265625 255.558594 L 13.6875 255.558594 L 13.6875 255.121094 L 14.664062 255.121094 L 14.679688 255.105469 L 14.679688 250.996094 C 14.34375 251.105469 13.996094 251.179688 13.648438 251.171875 L 13.648438 250.726562 C 14.171875 250.734375 14.742188 250.589844 15.140625 250.210938 Z M 15.28125 250.210938 Z M 15.28125 250.210938 "/>
<path style=" stroke:none;fill-rule:nonzero;fill:rgb(0%,0%,0%);fill-opacity:1;" d="M 18.3125 254.925781 L 18.3125 255.558594 L 17.671875 255.558594 L 17.671875 254.925781 Z M 18.3125 254.925781 Z M 18.3125 254.925781 "/>
<path style=" stroke:none;fill-rule:nonzero;fill:rgb(0%,0%,0%);fill-opacity:1;" d="M 21.203125 250.210938 C 21.957031 250.265625 22.457031 250.957031 22.59375 251.652344 C 22.664062 251.972656 22.679688 252.273438 22.710938 252.589844 L 22.710938 253.398438 C 22.671875 254.226562 22.472656 255.3125 21.574219 255.644531 C 20.796875 255.957031 19.886719 255.472656 19.65625 254.679688 C 19.480469 254.257812 19.464844 253.828125 19.425781 253.398438 L 19.425781 252.589844 C 19.464844 251.765625 19.640625 250.667969 20.527344 250.304688 L 20.566406 250.289062 L 20.601562 250.28125 L 20.640625 250.265625 L 20.757812 250.234375 L 20.828125 250.21875 L 20.917969 250.21875 L 20.933594 250.210938 Z M 21.203125 250.210938 Z M 20.957031 250.695312 C 20.289062 250.773438 20.09375 251.574219 20.042969 252.113281 L 20.042969 252.328125 L 20.027344 252.34375 L 20.027344 253.449219 C 20.074219 254.019531 20.117188 254.757812 20.640625 255.136719 C 21.125 255.472656 21.765625 255.097656 21.902344 254.582031 C 22.042969 254.203125 22.074219 253.828125 22.109375 253.449219 L 22.109375 252.34375 C 22.058594 251.765625 21.980469 250.957031 21.3125 250.726562 L 21.257812 250.710938 L 21.242188 250.695312 L 21.171875 250.695312 L 21.15625 250.679688 L 20.972656 250.679688 Z M 20.957031 250.695312 Z M 20.957031 250.695312 "/>
<path style=" stroke:none;fill-rule:nonzero;fill:rgb(0%,0%,0%);fill-opacity:1;" d="M 44.050781 253.589844 L 44.050781 254.035156 L 41.972656 254.035156 L 41.972656 253.589844 Z M 44.050781 253.589844 Z M 44.050781 253.589844 "/>
<path style=" stroke:none;fill-rule:nonzero;fill:rgb(0%,0%,0%);fill-opacity:1;" d="M 46.636719 250.210938 C 47.390625 250.265625 47.894531 250.957031 48.027344 251.652344 C 48.097656 251.972656 48.113281 252.273438 48.148438 252.589844 L 48.148438 253.398438 C 48.105469 254.226562 47.910156 255.3125 47.011719 255.644531 C 46.234375 255.957031 45.320312 255.472656 45.089844 254.679688 C 44.917969 254.257812 44.898438 253.828125 44.859375 253.398438 L 44.859375 252.589844 C 44.898438 251.765625 45.074219 250.667969 45.964844 250.304688 L 46.003906 250.289062 L 46.035156 250.28125 L 46.074219 250.265625 L 46.195312 250.234375 L 46.265625 250.21875 L 46.351562 250.21875 L 46.367188 250.210938 Z M 46.636719 250.210938 Z M 46.390625 250.695312 C 45.726562 250.773438 45.527344 251.574219 45.480469 252.113281 L 45.480469 252.328125 L 45.464844 252.34375 L 45.464844 253.449219 C 45.511719 254.019531 45.550781 254.757812 46.074219 255.136719 C 46.558594 255.472656 47.203125 255.097656 47.335938 254.582031 C 47.480469 254.203125 47.511719 253.828125 47.542969 253.449219 L 47.542969 252.34375 C 47.496094 251.765625 47.417969 250.957031 46.75 250.726562 L 46.695312 250.710938 L 46.679688 250.695312 L 46.605469 250.695312 L 46.589844 250.679688 L 46.410156 250.679688 Z M 46.390625 250.695312 Z M 46.390625 250.695312 "/>
<path style=" stroke:none;fill-rule:nonzero;fill:rgb(0%,0%,0%);fill-opacity:1;" d="M 49.917969 254.925781 L 49.917969 255.558594 L 49.273438 255.558594 L 49.273438 254.925781 Z M 49.917969 254.925781 Z M 49.917969 254.925781 "/>
<path style=" stroke:none;fill-rule:nonzero;fill:rgb(0%,0%,0%);fill-opacity:1;" d="M 52.820312 250.210938 C 53.664062 250.242188 54.457031 251.144531 54.125 251.988281 C 53.980469 252.375 53.582031 252.613281 53.257812 252.78125 C 54.066406 253.019531 54.558594 253.964844 54.195312 254.742188 C 53.8125 255.75 52.367188 256.066406 51.574219 255.335938 C 50.851562 254.765625 50.828125 253.527344 51.632812 253.019531 C 51.75 252.890625 51.972656 252.851562 52.074219 252.757812 C 51.386719 252.558594 50.917969 251.757812 51.242188 251.082031 C 51.503906 250.480469 52.179688 250.144531 52.820312 250.210938 Z M 52.820312 250.210938 Z M 52.519531 250.660156 C 51.933594 250.679688 51.519531 251.34375 51.71875 251.867188 C 51.949219 252.773438 53.464844 252.742188 53.640625 251.8125 C 53.796875 251.296875 53.386719 250.679688 52.820312 250.660156 L 52.804688 250.652344 L 52.535156 250.652344 Z M 52.519531 250.660156 Z M 52.535156 253.019531 C 51.84375 253.066406 51.503906 253.890625 51.6875 254.480469 C 51.804688 255.3125 52.996094 255.558594 53.464844 254.890625 C 53.917969 254.28125 53.695312 253.1875 52.878906 253.019531 L 52.804688 253.019531 L 52.789062 253.003906 L 52.542969 253.003906 Z M 52.535156 253.019531 Z M 52.535156 253.019531 "/>
<path style=" stroke:none;fill-rule:nonzero;fill:rgb(0%,0%,0%);fill-opacity:1;" d="M 75.652344 253.589844 L 75.652344 254.035156 L 73.574219 254.035156 L 73.574219 253.589844 Z M 75.652344 253.589844 Z M 75.652344 253.589844 "/>
<path style=" stroke:none;fill-rule:nonzero;fill:rgb(0%,0%,0%);fill-opacity:1;" d="M 78.242188 250.210938 C 78.996094 250.265625 79.496094 250.957031 79.628906 251.652344 C 79.703125 251.972656 79.71875 252.273438 79.75 252.589844 L 79.75 253.398438 C 79.710938 254.226562 79.511719 255.3125 78.613281 255.644531 C 77.835938 255.957031 76.921875 255.472656 76.691406 254.679688 C 76.519531 254.257812 76.503906 253.828125 76.464844 253.398438 L 76.464844 252.589844 C 76.503906 251.765625 76.675781 250.667969 77.566406 250.304688 L 77.605469 250.289062 L 77.636719 250.28125 L 77.675781 250.265625 L 77.796875 250.234375 L 77.867188 250.21875 L 77.957031 250.21875 L 77.972656 250.210938 Z M 78.242188 250.210938 Z M 77.996094 250.695312 C 77.328125 250.773438 77.128906 251.574219 77.082031 252.113281 L 77.082031 252.328125 L 77.066406 252.34375 L 77.066406 253.449219 C 77.113281 254.019531 77.152344 254.757812 77.675781 255.136719 C 78.160156 255.472656 78.804688 255.097656 78.941406 254.582031 C 79.082031 254.203125 79.113281 253.828125 79.144531 253.449219 L 79.144531 252.34375 C 79.097656 251.765625 79.019531 250.957031 78.351562 250.726562 L 78.296875 250.710938 L 78.28125 250.695312 L 78.210938 250.695312 L 78.195312 250.679688 L 78.011719 250.679688 Z M 77.996094 250.695312 Z M 77.996094 250.695312 "/>
<path style=" stroke:none;fill-rule:nonzero;fill:rgb(0%,0%,0%);fill-opacity:1;" d="M 81.519531 254.925781 L 81.519531 255.558594 L 80.875 255.558594 L 80.875 254.925781 Z M 81.519531 254.925781 Z M 81.519531 254.925781 "/>
<path style=" stroke:none;fill-rule:nonzero;fill:rgb(0%,0%,0%);fill-opacity:1;" d="M 84.925781 250.210938 C 85.128906 250.242188 85.367188 250.265625 85.566406 250.359375 L 85.566406 250.820312 C 85.019531 250.582031 84.304688 250.550781 83.875 251.035156 C 83.496094 251.441406 83.320312 252.042969 83.304688 252.574219 C 83.765625 251.964844 84.804688 251.621094 85.367188 252.257812 C 85.933594 252.90625 86.027344 253.84375 85.773438 254.636719 C 85.496094 255.273438 84.851562 255.851562 84.136719 255.71875 C 83.167969 255.636719 82.734375 254.558594 82.6875 253.734375 C 82.503906 252.566406 82.78125 251.097656 83.890625 250.433594 L 83.90625 250.425781 L 84.074219 250.335938 L 84.121094 250.320312 L 84.144531 250.304688 L 84.390625 250.234375 L 84.464844 250.21875 L 84.550781 250.21875 L 84.566406 250.210938 Z M 84.925781 250.210938 Z M 84.144531 252.417969 C 83.457031 252.535156 83.234375 253.367188 83.320312 253.933594 C 83.359375 254.464844 83.566406 255.171875 84.179688 255.28125 C 84.828125 255.367188 85.25 254.671875 85.265625 254.105469 C 85.296875 253.535156 85.265625 252.882812 84.765625 252.511719 L 84.652344 252.457031 L 84.566406 252.433594 L 84.496094 252.417969 L 84.480469 252.398438 L 84.160156 252.398438 Z M 84.144531 252.417969 Z M 84.144531 252.417969 "/>
<path style=" stroke:none;fill-rule:nonzero;fill:rgb(0%,0%,0%);fill-opacity:1;" d="M 107.257812 253.589844 L 107.257812 254.035156 L 105.175781 254.035156 L 105.175781 253.589844 Z M 107.257812 253.589844 Z M 107.257812 253.589844 "/>
<path style=" stroke:none;fill-rule:nonzero;fill:rgb(0%,0%,0%);fill-opacity:1;" d="M 109.84375 250.210938 C 110.597656 250.265625 111.097656 250.957031 111.234375 251.652344 C 111.304688 251.972656 111.320312 252.273438 111.351562 252.589844 L 111.351562 253.398438 C 111.3125 254.226562 111.113281 255.3125 110.214844 255.644531 C 109.4375 255.957031 108.527344 255.472656 108.296875 254.679688 C 108.121094 254.257812 108.105469 253.828125 108.066406 253.398438 L 108.066406 252.589844 C 108.105469 251.765625 108.28125 250.667969 109.167969 250.304688 L 109.207031 250.289062 L 109.242188 250.28125 L 109.28125 250.265625 L 109.398438 250.234375 L 109.46875 250.21875 L 109.558594 250.21875 L 109.574219 250.210938 Z M 109.84375 250.210938 Z M 109.597656 250.695312 C 108.929688 250.773438 108.730469 251.574219 108.683594 252.113281 L 108.683594 252.328125 L 108.667969 252.34375 L 108.667969 253.449219 C 108.714844 254.019531 108.757812 254.757812 109.28125 255.136719 C 109.765625 255.472656 110.40625 255.097656 110.542969 254.582031 C 110.683594 254.203125 110.714844 253.828125 110.75 253.449219 L 110.75 252.34375 C 110.699219 251.765625 110.621094 250.957031 109.953125 250.726562 L 109.898438 250.710938 L 109.882812 250.695312 L 109.8125 250.695312 L 109.796875 250.679688 L 109.613281 250.679688 Z M 109.597656 250.695312 Z M 109.597656 250.695312 "/>
<path style=" stroke:none;fill-rule:nonzero;fill:rgb(0%,0%,0%);fill-opacity:1;" d="M 113.121094 254.925781 L 113.121094 255.558594 L 112.480469 255.558594 L 112.480469 254.925781 Z M 113.121094 254.925781 Z M 113.121094 254.925781 "/>
<path style=" stroke:none;fill-rule:nonzero;fill:rgb(0%,0%,0%);fill-opacity:1;" d="M 116.828125 250.375 L 116.828125 253.71875 L 116.84375 253.734375 L 117.628906 253.734375 L 117.628906 254.210938 L 116.84375 254.210938 L 116.828125 254.21875 L 116.828125 255.558594 L 116.226562 255.558594 L 116.226562 254.21875 L 116.210938 254.210938 L 114.113281 254.210938 L 114.113281 253.71875 C 114.78125 252.605469 115.445312 251.488281 116.113281 250.375 Z M 116.828125 250.375 Z M 116.242188 250.679688 C 116.082031 251.503906 115.574219 252.210938 115.191406 252.933594 C 115.042969 253.195312 114.84375 253.480469 114.734375 253.734375 L 116.257812 253.734375 L 116.265625 253.71875 L 116.265625 250.679688 L 116.257812 250.660156 Z M 116.242188 250.679688 Z M 116.242188 250.679688 "/>
<path style=" stroke:none;fill-rule:nonzero;fill:rgb(0%,0%,0%);fill-opacity:1;" d="M 138.859375 253.589844 L 138.859375 254.035156 L 136.777344 254.035156 L 136.777344 253.589844 Z M 138.859375 253.589844 Z M 138.859375 253.589844 "/>
<path style=" stroke:none;fill-rule:nonzero;fill:rgb(0%,0%,0%);fill-opacity:1;" d="M 141.445312 250.210938 C 142.199219 250.265625 142.699219 250.957031 142.835938 251.652344 C 142.90625 251.972656 142.921875 252.273438 142.953125 252.589844 L 142.953125 253.398438 C 142.914062 254.226562 142.714844 255.3125 141.820312 255.644531 C 141.042969 255.957031 140.128906 255.472656 139.898438 254.679688 C 139.722656 254.257812 139.707031 253.828125 139.667969 253.398438 L 139.667969 252.589844 C 139.707031 251.765625 139.882812 250.667969 140.769531 250.304688 L 140.8125 250.289062 L 140.84375 250.28125 L 140.882812 250.265625 L 141 250.234375 L 141.074219 250.21875 L 141.160156 250.21875 L 141.175781 250.210938 Z M 141.445312 250.210938 Z M 141.199219 250.695312 C 140.535156 250.773438 140.335938 251.574219 140.289062 252.113281 L 140.289062 252.328125 L 140.269531 252.34375 L 140.269531 253.449219 C 140.320312 254.019531 140.359375 254.757812 140.882812 255.136719 C 141.367188 255.472656 142.007812 255.097656 142.144531 254.582031 C 142.289062 254.203125 142.320312 253.828125 142.351562 253.449219 L 142.351562 252.34375 C 142.304688 251.765625 142.222656 250.957031 141.558594 250.726562 L 141.5 250.710938 L 141.484375 250.695312 L 141.414062 250.695312 L 141.398438 250.679688 L 141.214844 250.679688 Z M 141.199219 250.695312 Z M 141.199219 250.695312 "/>
<path style=" stroke:none;fill-rule:nonzero;fill:rgb(0%,0%,0%);fill-opacity:1;" d="M 144.722656 254.925781 L 144.722656 255.558594 L 144.082031 255.558594 L 144.082031 254.925781 Z M 144.722656 254.925781 Z M 144.722656 254.925781 "/>
<path style=" stroke:none;fill-rule:nonzero;fill:rgb(0%,0%,0%);fill-opacity:1;" d="M 147.527344 250.210938 C 148.445312 250.234375 149.175781 251.179688 149.035156 252.066406 C 148.9375 252.957031 148.105469 253.464844 147.511719 254.019531 L 147.257812 254.28125 L 147.222656 254.296875 L 146.90625 254.605469 L 146.882812 254.621094 L 146.566406 254.941406 L 146.535156 254.957031 L 146.460938 255.027344 L 146.476562 255.035156 L 149.050781 255.035156 L 149.050781 255.558594 L 145.90625 255.558594 L 145.90625 255.082031 L 147.183594 253.804688 C 147.796875 253.273438 148.511719 252.582031 148.398438 251.710938 C 148.335938 251.203125 147.90625 250.734375 147.382812 250.695312 C 146.851562 250.613281 146.382812 251.035156 146.265625 251.542969 L 146.246094 251.566406 L 146.230469 251.621094 L 146.207031 251.710938 L 146.160156 251.882812 L 146.152344 251.925781 C 146.042969 251.789062 145.921875 251.644531 145.835938 251.496094 C 145.992188 250.84375 146.519531 250.234375 147.207031 250.210938 Z M 147.527344 250.210938 Z M 147.527344 250.210938 "/>
<path style=" stroke:none;fill-rule:nonzero;fill:rgb(0%,0%,0%);fill-opacity:1;" d="M 171.726562 250.210938 C 172.480469 250.265625 172.980469 250.957031 173.117188 251.652344 C 173.1875 251.972656 173.203125 252.273438 173.234375 252.589844 L 173.234375 253.398438 C 173.195312 254.226562 172.996094 255.3125 172.101562 255.644531 C 171.320312 255.957031 170.410156 255.472656 170.179688 254.679688 C 170.003906 254.257812 169.988281 253.828125 169.949219 253.398438 L 169.949219 252.589844 C 169.988281 251.765625 170.164062 250.667969 171.050781 250.304688 L 171.09375 250.289062 L 171.125 250.28125 L 171.164062 250.265625 L 171.28125 250.234375 L 171.355469 250.21875 L 171.441406 250.21875 L 171.457031 250.210938 Z M 171.726562 250.210938 Z M 171.480469 250.695312 C 170.8125 250.773438 170.617188 251.574219 170.566406 252.113281 L 170.566406 252.328125 L 170.550781 252.34375 L 170.550781 253.449219 C 170.601562 254.019531 170.640625 254.757812 171.164062 255.136719 C 171.648438 255.472656 172.289062 255.097656 172.425781 254.582031 C 172.566406 254.203125 172.601562 253.828125 172.632812 253.449219 L 172.632812 252.34375 C 172.585938 251.765625 172.503906 250.957031 171.839844 250.726562 L 171.78125 250.710938 L 171.765625 250.695312 L 171.695312 250.695312 L 171.679688 250.679688 L 171.496094 250.679688 Z M 171.480469 250.695312 Z M 171.480469 250.695312 "/>
<path style=" stroke:none;fill-rule:nonzero;fill:rgb(0%,0%,0%);fill-opacity:1;" d="M 175.003906 254.925781 L 175.003906 255.558594 L 174.363281 255.558594 L 174.363281 254.925781 Z M 175.003906 254.925781 Z M 175.003906 254.925781 "/>
<path style=" stroke:none;fill-rule:nonzero;fill:rgb(0%,0%,0%);fill-opacity:1;" d="M 177.894531 250.210938 C 178.648438 250.265625 179.148438 250.957031 179.28125 251.652344 C 179.355469 251.972656 179.371094 252.273438 179.402344 252.589844 L 179.402344 253.398438 C 179.363281 254.226562 179.164062 255.3125 178.265625 255.644531 C 177.488281 255.957031 176.578125 255.472656 176.347656 254.679688 C 176.171875 254.257812 176.15625 253.828125 176.117188 253.398438 L 176.117188 252.589844 C 176.15625 251.765625 176.332031 250.667969 177.21875 250.304688 L 177.257812 250.289062 L 177.289062 250.28125 L 177.332031 250.265625 L 177.449219 250.234375 L 177.519531 250.21875 L 177.609375 250.21875 L 177.625 250.210938 Z M 177.894531 250.210938 Z M 177.648438 250.695312 C 176.980469 250.773438 176.78125 251.574219 176.734375 252.113281 L 176.734375 252.328125 L 176.71875 252.34375 L 176.71875 253.449219 C 176.765625 254.019531 176.808594 254.757812 177.332031 255.136719 C 177.816406 255.472656 178.457031 255.097656 178.59375 254.582031 C 178.734375 254.203125 178.765625 253.828125 178.800781 253.449219 L 178.800781 252.34375 C 178.75 251.765625 178.671875 250.957031 178.003906 250.726562 L 177.949219 250.710938 L 177.933594 250.695312 L 177.863281 250.695312 L 177.847656 250.679688 L 177.664062 250.679688 Z M 177.648438 250.695312 Z M 177.648438 250.695312 "/>
<path style=" stroke:none;fill-rule:nonzero;fill:rgb(0%,0%,0%);fill-opacity:1;" d="M 203.328125 250.210938 C 204.082031 250.265625 204.582031 250.957031 204.71875 251.652344 C 204.789062 251.972656 204.804688 252.273438 204.835938 252.589844 L 204.835938 253.398438 C 204.796875 254.226562 204.597656 255.3125 203.703125 255.644531 C 202.925781 255.957031 202.011719 255.472656 201.78125 254.679688 C 201.605469 254.257812 201.589844 253.828125 201.550781 253.398438 L 201.550781 252.589844 C 201.589844 251.765625 201.765625 250.667969 202.65625 250.304688 L 202.695312 250.289062 L 202.726562 250.28125 L 202.765625 250.265625 L 202.886719 250.234375 L 202.957031 250.21875 L 203.042969 250.21875 L 203.058594 250.210938 Z M 203.328125 250.210938 Z M 203.082031 250.695312 C 202.417969 250.773438 202.21875 251.574219 202.171875 252.113281 L 202.171875 252.328125 L 202.15625 252.34375 L 202.15625 253.449219 C 202.203125 254.019531 202.242188 254.757812 202.765625 255.136719 C 203.25 255.472656 203.894531 255.097656 204.027344 254.582031 C 204.171875 254.203125 204.203125 253.828125 204.234375 253.449219 L 204.234375 252.34375 C 204.1875 251.765625 204.105469 250.957031 203.441406 250.726562 L 203.386719 250.710938 L 203.371094 250.695312 L 203.296875 250.695312 L 203.28125 250.679688 L 203.097656 250.679688 Z M 203.082031 250.695312 Z M 203.082031 250.695312 "/>
<path style=" stroke:none;fill-rule:nonzero;fill:rgb(0%,0%,0%);fill-opacity:1;" d="M 206.609375 254.925781 L 206.609375 255.558594 L 205.964844 255.558594 L 205.964844 254.925781 Z M 206.609375 254.925781 Z M 206.609375 254.925781 "/>
<path style=" stroke:none;fill-rule:nonzero;fill:rgb(0%,0%,0%);fill-opacity:1;" d="M 209.410156 250.210938 C 210.328125 250.234375 211.058594 251.179688 210.917969 252.066406 C 210.820312 252.957031 209.988281 253.464844 209.394531 254.019531 L 209.140625 254.28125 L 209.109375 254.296875 L 208.789062 254.605469 L 208.765625 254.621094 L 208.449219 254.941406 L 208.417969 254.957031 L 208.347656 255.027344 L 208.363281 255.035156 L 210.933594 255.035156 L 210.933594 255.558594 L 207.789062 255.558594 L 207.789062 255.082031 L 209.066406 253.804688 C 209.679688 253.273438 210.394531 252.582031 210.28125 251.710938 C 210.21875 251.203125 209.789062 250.734375 209.265625 250.695312 C 208.734375 250.613281 208.265625 251.035156 208.148438 251.542969 L 208.132812 251.566406 L 208.117188 251.621094 L 208.089844 251.710938 L 208.042969 251.882812 L 208.035156 251.925781 C 207.925781 251.789062 207.804688 251.644531 207.71875 251.496094 C 207.878906 250.84375 208.402344 250.234375 209.089844 250.210938 Z M 209.410156 250.210938 Z M 209.410156 250.210938 "/>
<path style=" stroke:none;fill-rule:nonzero;fill:rgb(0%,0%,0%);fill-opacity:1;" d="M 234.933594 250.210938 C 235.6875 250.265625 236.1875 250.957031 236.320312 251.652344 C 236.390625 251.972656 236.410156 252.273438 236.441406 252.589844 L 236.441406 253.398438 C 236.398438 254.226562 236.203125 255.3125 235.304688 255.644531 C 234.527344 255.957031 233.613281 255.472656 233.382812 254.679688 C 233.210938 254.257812 233.195312 253.828125 233.152344 253.398438 L 233.152344 252.589844 C 233.195312 251.765625 233.367188 250.667969 234.257812 250.304688 L 234.296875 250.289062 L 234.328125 250.28125 L 234.367188 250.265625 L 234.488281 250.234375 L 234.558594 250.21875 L 234.644531 250.21875 L 234.664062 250.210938 Z M 234.933594 250.210938 Z M 234.6875 250.695312 C 234.019531 250.773438 233.820312 251.574219 233.773438 252.113281 L 233.773438 252.328125 L 233.757812 252.34375 L 233.757812 253.449219 C 233.804688 254.019531 233.84375 254.757812 234.367188 255.136719 C 234.851562 255.472656 235.496094 255.097656 235.628906 254.582031 C 235.773438 254.203125 235.804688 253.828125 235.835938 253.449219 L 235.835938 252.34375 C 235.789062 251.765625 235.710938 250.957031 235.042969 250.726562 L 234.988281 250.710938 L 234.972656 250.695312 L 234.898438 250.695312 L 234.882812 250.679688 L 234.703125 250.679688 Z M 234.6875 250.695312 Z M 234.6875 250.695312 "/>
<path style=" stroke:none;fill-rule:nonzero;fill:rgb(0%,0%,0%);fill-opacity:1;" d="M 238.210938 254.925781 L 238.210938 255.558594 L 237.566406 255.558594 L 237.566406 254.925781 Z M 238.210938 254.925781 Z M 238.210938 254.925781 "/>
<path style=" stroke:none;fill-rule:nonzero;fill:rgb(0%,0%,0%);fill-opacity:1;" d="M 241.917969 250.375 L 241.917969 253.71875 L 241.933594 253.734375 L 242.71875 253.734375 L 242.71875 254.210938 L 241.933594 254.210938 L 241.917969 254.21875 L 241.917969 255.558594 L 241.3125 255.558594 L 241.3125 254.21875 L 241.296875 254.210938 L 239.203125 254.210938 L 239.203125 253.71875 C 239.867188 252.605469 240.535156 251.488281 241.203125 250.375 Z M 241.917969 250.375 Z M 241.328125 250.679688 C 241.171875 251.503906 240.664062 252.210938 240.28125 252.933594 C 240.128906 253.195312 239.933594 253.480469 239.820312 253.734375 L 241.34375 253.734375 L 241.351562 253.71875 L 241.351562 250.679688 L 241.34375 250.660156 Z M 241.328125 250.679688 Z M 241.328125 250.679688 "/>
<path style=" stroke:none;fill-rule:nonzero;fill:rgb(0%,0%,0%);fill-opacity:1;" d="M 266.535156 250.210938 C 267.289062 250.265625 267.789062 250.957031 267.921875 251.652344 C 267.996094 251.972656 268.011719 252.273438 268.042969 252.589844 L 268.042969 253.398438 C 268.003906 254.226562 267.804688 255.3125 266.90625 255.644531 C 266.128906 255.957031 265.21875 255.472656 264.988281 254.679688 C 264.8125 254.257812 264.796875 253.828125 264.757812 253.398438 L 264.757812 252.589844 C 264.796875 251.765625 264.972656 250.667969 265.859375 250.304688 L 265.898438 250.289062 L 265.929688 250.28125 L 265.972656 250.265625 L 266.089844 250.234375 L 266.160156 250.21875 L 266.25 250.21875 L 266.265625 250.210938 Z M 266.535156 250.210938 Z M 266.289062 250.695312 C 265.621094 250.773438 265.421875 251.574219 265.375 252.113281 L 265.375 252.328125 L 265.359375 252.34375 L 265.359375 253.449219 C 265.40625 254.019531 265.445312 254.757812 265.972656 255.136719 C 266.457031 255.472656 267.097656 255.097656 267.234375 254.582031 C 267.375 254.203125 267.40625 253.828125 267.4375 253.449219 L 267.4375 252.34375 C 267.390625 251.765625 267.3125 250.957031 266.644531 250.726562 L 266.589844 250.710938 L 266.574219 250.695312 L 266.503906 250.695312 L 266.488281 250.679688 L 266.304688 250.679688 Z M 266.289062 250.695312 Z M 266.289062 250.695312 "/>
<path style=" stroke:none;fill-rule:nonzero;fill:rgb(0%,0%,0%);fill-opacity:1;" d="M 269.8125 254.925781 L 269.8125 255.558594 L 269.167969 255.558594 L 269.167969 254.925781 Z M 269.8125 254.925781 Z M 269.8125 254.925781 "/>
<path style=" stroke:none;fill-rule:nonzero;fill:rgb(0%,0%,0%);fill-opacity:1;" d="M 273.21875 250.210938 C 273.425781 250.242188 273.660156 250.265625 273.859375 250.359375 L 273.859375 250.820312 C 273.3125 250.582031 272.597656 250.550781 272.167969 251.035156 C 271.789062 251.441406 271.613281 252.042969 271.597656 252.574219 C 272.058594 251.964844 273.097656 251.621094 273.660156 252.257812 C 274.226562 252.90625 274.320312 253.84375 274.066406 254.636719 C 273.789062 255.273438 273.144531 255.851562 272.433594 255.71875 C 271.464844 255.636719 271.027344 254.558594 270.980469 253.734375 C 270.796875 252.566406 271.074219 251.097656 272.1875 250.433594 L 272.203125 250.425781 L 272.367188 250.335938 L 272.414062 250.320312 L 272.441406 250.304688 L 272.574219 250.265625 L 272.6875 250.234375 L 272.757812 250.21875 L 272.84375 250.21875 L 272.859375 250.210938 Z M 273.21875 250.210938 Z M 272.441406 252.417969 C 271.75 252.535156 271.527344 253.367188 271.613281 253.933594 C 271.652344 254.464844 271.859375 255.171875 272.472656 255.28125 C 273.121094 255.367188 273.542969 254.671875 273.558594 254.105469 C 273.589844 253.535156 273.558594 252.882812 273.058594 252.511719 L 272.949219 252.457031 L 272.859375 252.433594 L 272.789062 252.417969 L 272.773438 252.398438 L 272.457031 252.398438 Z M 272.441406 252.417969 Z M 272.441406 252.417969 "/>
<path style=" stroke:none;fill-rule:nonzero;fill:rgb(0%,0%,0%);fill-opacity:1;" d="M 298.136719 250.210938 C 298.890625 250.265625 299.390625 250.957031 299.527344 251.652344 C 299.597656 251.972656 299.613281 252.273438 299.644531 252.589844 L 299.644531 253.398438 C 299.605469 254.226562 299.40625 255.3125 298.511719 255.644531 C 297.730469 255.957031 296.820312 255.472656 296.589844 254.679688 C 296.414062 254.257812 296.398438 253.828125 296.359375 253.398438 L 296.359375 252.589844 C 296.398438 251.765625 296.574219 250.667969 297.460938 250.304688 L 297.503906 250.289062 L 297.535156 250.28125 L 297.574219 250.265625 L 297.691406 250.234375 L 297.765625 250.21875 L 297.851562 250.21875 L 297.867188 250.210938 Z M 298.136719 250.210938 Z M 297.890625 250.695312 C 297.222656 250.773438 297.027344 251.574219 296.976562 252.113281 L 296.976562 252.328125 L 296.960938 252.34375 L 296.960938 253.449219 C 297.011719 254.019531 297.050781 254.757812 297.574219 255.136719 C 298.058594 255.472656 298.699219 255.097656 298.835938 254.582031 C 298.976562 254.203125 299.011719 253.828125 299.042969 253.449219 L 299.042969 252.34375 C 298.996094 251.765625 298.914062 250.957031 298.25 250.726562 L 298.191406 250.710938 L 298.175781 250.695312 L 298.105469 250.695312 L 298.089844 250.679688 L 297.90625 250.679688 Z M 297.890625 250.695312 Z M 297.890625 250.695312 "/>
<path style=" stroke:none;fill-rule:nonzero;fill:rgb(0%,0%,0%);fill-opacity:1;" d="M 301.414062 254.925781 L 301.414062 255.558594 L 300.773438 255.558594 L 300.773438 254.925781 Z M 301.414062 254.925781 Z M 301.414062 254.925781 "/>
<path style=" stroke:none;fill-rule:nonzero;fill:rgb(0%,0%,0%);fill-opacity:1;" d="M 304.320312 250.210938 C 305.160156 250.242188 305.953125 251.144531 305.621094 251.988281 C 305.480469 252.375 305.082031 252.613281 304.757812 252.78125 C 305.566406 253.019531 306.058594 253.964844 305.691406 254.742188 C 305.3125 255.75 303.867188 256.066406 303.074219 255.335938 C 302.351562 254.765625 302.328125 253.527344 303.128906 253.019531 C 303.25 252.890625 303.46875 252.851562 303.574219 252.757812 C 302.882812 252.558594 302.414062 251.757812 302.742188 251.082031 C 303.003906 250.480469 303.675781 250.144531 304.320312 250.210938 Z M 304.320312 250.210938 Z M 304.019531 250.660156 C 303.429688 250.679688 303.019531 251.34375 303.214844 251.867188 C 303.445312 252.773438 304.960938 252.742188 305.136719 251.8125 C 305.296875 251.296875 304.882812 250.679688 304.320312 250.660156 L 304.304688 250.652344 L 304.035156 250.652344 Z M 304.019531 250.660156 Z M 304.035156 253.019531 C 303.34375 253.066406 303.003906 253.890625 303.183594 254.480469 C 303.304688 255.3125 304.496094 255.558594 304.960938 254.890625 C 305.414062 254.28125 305.191406 253.1875 304.375 253.019531 L 304.304688 253.019531 L 304.289062 253.003906 L 304.042969 253.003906 Z M 304.035156 253.019531 Z M 304.035156 253.019531 "/>
<path style=" stroke:none;fill-rule:nonzero;fill:rgb(0%,0%,0%);fill-opacity:1;" d="M 329.984375 250.210938 L 329.984375 255.105469 L 329.992188 255.121094 L 330.96875 255.121094 L 330.96875 255.558594 L 328.390625 255.558594 L 328.390625 255.121094 L 329.367188 255.121094 L 329.382812 255.105469 L 329.382812 250.996094 C 329.050781 251.105469 328.699219 251.179688 328.351562 251.171875 L 328.351562 250.726562 C 328.875 250.734375 329.445312 250.589844 329.84375 250.210938 Z M 329.984375 250.210938 Z M 329.984375 250.210938 "/>
<path style=" stroke:none;fill-rule:nonzero;fill:rgb(0%,0%,0%);fill-opacity:1;" d="M 333.015625 254.925781 L 333.015625 255.558594 L 332.375 255.558594 L 332.375 254.925781 Z M 333.015625 254.925781 Z M 333.015625 254.925781 "/>
<path style=" stroke:none;fill-rule:nonzero;fill:rgb(0%,0%,0%);fill-opacity:1;" d="M 335.90625 250.210938 C 336.660156 250.265625 337.160156 250.957031 337.296875 251.652344 C 337.367188 251.972656 337.382812 252.273438 337.414062 252.589844 L 337.414062 253.398438 C 337.375 254.226562 337.175781 255.3125 336.28125 255.644531 C 335.5 255.957031 334.589844 255.472656 334.359375 254.679688 C 334.183594 254.257812 334.167969 253.828125 334.128906 253.398438 L 334.128906 252.589844 C 334.167969 251.765625 334.34375 250.667969 335.230469 250.304688 L 335.273438 250.289062 L 335.304688 250.28125 L 335.34375 250.265625 L 335.460938 250.234375 L 335.535156 250.21875 L 335.621094 250.21875 L 335.636719 250.210938 Z M 335.90625 250.210938 Z M 335.660156 250.695312 C 334.992188 250.773438 334.796875 251.574219 334.746094 252.113281 L 334.746094 252.328125 L 334.730469 252.34375 L 334.730469 253.449219 C 334.78125 254.019531 334.820312 254.757812 335.34375 255.136719 C 335.828125 255.472656 336.46875 255.097656 336.605469 254.582031 C 336.746094 254.203125 336.78125 253.828125 336.8125 253.449219 L 336.8125 252.34375 C 336.765625 251.765625 336.683594 250.957031 336.019531 250.726562 L 335.960938 250.710938 L 335.945312 250.695312 L 335.875 250.695312 L 335.859375 250.679688 L 335.675781 250.679688 Z M 335.660156 250.695312 Z M 335.660156 250.695312 "/>
<path style="fill:none;stroke-width:0.02;stroke-linecap:butt;stroke-linejoin:miter;stroke:rgb(0%,0%,0%);stroke-opacity:1;stroke-miterlimit:10;" d="M 1.667426 8.788333 L 1.667426 8.683327 " transform="matrix(28.346457,0,0,-28.346457,1,256.11811)"/>
<path style="fill:none;stroke-width:0.02;stroke-linecap:butt;stroke-linejoin:miter;stroke:rgb(0%,0%,0%);stroke-opacity:1;stroke-miterlimit:10;" d="M 2.782259 8.788333 L 2.782259 8.683327 " transform="matrix(28.346457,0,0,-28.346457,1,256.11811)"/>
<path style="fill:none;stroke-width:0.02;stroke-linecap:butt;stroke-linejoin:miter;stroke:rgb(0%,0%,0%);stroke-opacity:1;stroke-miterlimit:10;" d="M 3.897092 8.788333 L 3.897092 8.683327 " transform="matrix(28.346457,0,0,-28.346457,1,256.11811)"/>
<path style="fill:none;stroke-width:0.02;stroke-linecap:butt;stroke-linejoin:miter;stroke:rgb(0%,0%,0%);stroke-opacity:1;stroke-miterlimit:10;" d="M 5.012063 8.788333 L 5.012063 8.683327 " transform="matrix(28.346457,0,0,-28.346457,1,256.11811)"/>
<path style="fill:none;stroke-width:0.02;stroke-linecap:butt;stroke-linejoin:miter;stroke:rgb(0%,0%,0%);stroke-opacity:1;stroke-miterlimit:10;" d="M 6.126896 8.788333 L 6.126896 8.683327 " transform="matrix(28.346457,0,0,-28.346457,1,256.11811)"/>
<path style="fill:none;stroke-width:0.02;stroke-linecap:butt;stroke-linejoin:miter;stroke:rgb(0%,0%,0%);stroke-opacity:1;stroke-miterlimit:10;" d="M 7.241729 8.788333 L 7.241729 8.683327 " transform="matrix(28.346457,0,0,-28.346457,1,256.11811)"/>
<path style="fill:none;stroke-width:0.02;stroke-linecap:butt;stroke-linejoin:miter;stroke:rgb(0%,0%,0%);stroke-opacity:1;stroke-miterlimit:10;" d="M 8.356561 8.788333 L 8.356561 8.683327 " transform="matrix(28.346457,0,0,-28.346457,1,256.11811)"/>
<path style="fill:none;stroke-width:0.02;stroke-linecap:butt;stroke-linejoin:miter;stroke:rgb(0%,0%,0%);stroke-opacity:1;stroke-miterlimit:10;" d="M 9.471532 8.788333 L 9.471532 8.683327 " transform="matrix(28.346457,0,0,-28.346457,1,256.11811)"/>
<path style="fill:none;stroke-width:0.02;stroke-linecap:butt;stroke-linejoin:miter;stroke:rgb(0%,0%,0%);stroke-opacity:1;stroke-miterlimit:10;" d="M 10.586365 8.788333 L 10.586365 8.683327 " transform="matrix(28.346457,0,0,-28.346457,1,256.11811)"/>
<path style="fill:none;stroke-width:0.02;stroke-linecap:round;stroke-linejoin:miter;stroke:rgb(0%,0%,0%);stroke-opacity:1;stroke-miterlimit:10;" d="M 0.552593 8.788333 L 11.701198 8.788333 " transform="matrix(28.346457,0,0,-28.346457,1,256.11811)"/>
<path style="fill:none;stroke-width:0.05;stroke-linecap:butt;stroke-linejoin:miter;stroke:rgb(33%,47%,64%);stroke-opacity:1;stroke-miterlimit:10;" d="M 0.552593 3.472275 L 0.59738 3.52216 L 0.642166 3.572459 L 0.686814 3.623033 L 0.7316 3.674158 L 0.776387 3.725559 L 0.821173 3.777373 L 0.865959 3.829463 L 0.910745 3.881966 L 0.955532 3.934883 L 1.000318 3.988075 L 1.045104 4.041543 L 1.08989 4.095286 L 1.134677 4.149443 L 1.179325 4.203738 L 1.224111 4.258446 L 1.268898 4.31343 L 1.313684 4.368689 L 1.35847 4.424086 L 1.403256 4.479897 L 1.448043 4.535845 L 1.492829 4.591931 L 1.537615 4.648293 L 1.582401 4.704931 L 1.627188 4.761706 L 1.671836 4.818619 L 1.716622 4.875669 L 1.761408 4.932858 L 1.806195 4.990184 L 1.850981 5.047786 L 1.895767 5.105251 L 1.98534 5.22073 L 2.119698 5.394363 L 2.164347 5.452241 L 2.209133 5.510256 L 2.253919 5.568134 L 2.298706 5.626149 L 2.343492 5.684027 L 2.47785 5.857246 L 2.567423 5.972174 L 2.612209 6.029501 L 2.656858 6.086689 L 2.74643 6.200515 L 2.791216 6.257153 L 2.836003 6.313515 L 2.880789 6.369601 L 2.925575 6.425549 L 2.970361 6.481222 L 3.015148 6.536619 L 3.059934 6.59174 L 3.10472 6.646449 L 3.149368 6.700881 L 3.194155 6.7549 L 3.238941 6.808644 L 3.283727 6.861974 L 3.328513 6.91489 L 3.3733 6.967394 L 3.418086 7.019484 L 3.462872 7.071022 L 3.507658 7.122147 L 3.552445 7.172859 L 3.597231 7.22302 L 3.641879 7.272629 L 3.686666 7.321687 L 3.731452 7.370332 L 3.776238 7.418288 L 3.821024 7.465692 L 3.865811 7.512408 L 3.910597 7.558572 L 3.955383 7.604185 L 4.000169 7.649109 L 4.044956 7.693344 L 4.089742 7.73689 L 4.13439 7.779747 L 4.179176 7.821777 L 4.223963 7.863256 L 4.268749 7.903908 L 4.313535 7.943872 L 4.358321 7.983008 L 4.403108 8.021317 L 4.447894 8.058938 L 4.49268 8.095594 L 4.537466 8.13156 L 4.582253 8.1667 L 4.626901 8.200876 L 4.671687 8.234362 L 4.716474 8.266746 L 4.76126 8.298441 L 4.806046 8.329171 L 4.850832 8.358937 L 4.895618 8.387875 L 4.940405 8.41585 L 4.985191 8.442859 L 5.029977 8.468904 L 5.074763 8.493984 L 5.11955 8.5181 L 5.164198 8.541251 L 5.208984 8.5633 L 5.253771 8.584521 L 5.298557 8.604641 L 5.343343 8.623796 L 5.388129 8.641848 L 5.432916 8.658936 L 5.477702 8.675059 L 5.522488 8.689941 L 5.567274 8.703997 L 5.612061 8.716813 L 5.656709 8.728664 L 5.701495 8.739413 L 5.746281 8.749197 L 5.791068 8.757879 L 5.835854 8.765458 L 5.88064 8.771935 L 5.925426 8.777309 L 5.970213 8.781719 L 6.014999 8.784888 L 6.059785 8.787093 L 6.104571 8.788196 L 6.14922 8.788196 L 6.194006 8.787093 L 6.238792 8.784888 L 6.283579 8.781719 L 6.328365 8.777309 L 6.373151 8.771935 L 6.417937 8.765458 L 6.462724 8.757879 L 6.50751 8.749197 L 6.552296 8.739413 L 6.597082 8.728664 L 6.641731 8.716813 L 6.686517 8.703997 L 6.731303 8.689941 L 6.776089 8.675059 L 6.820876 8.658936 L 6.865662 8.641848 L 6.910448 8.623796 L 6.955234 8.604641 L 7.000021 8.584521 L 7.044807 8.5633 L 7.089593 8.541251 L 7.134242 8.5181 L 7.179028 8.493984 L 7.223814 8.468904 L 7.2686 8.442859 L 7.313387 8.41585 L 7.358173 8.387875 L 7.402959 8.358937 L 7.447745 8.329171 L 7.492531 8.298441 L 7.537318 8.266746 L 7.582104 8.234362 L 7.626752 8.200876 L 7.671539 8.1667 L 7.716325 8.13156 L 7.761111 8.095594 L 7.805897 8.058938 L 7.850684 8.021317 L 7.89547 7.983008 L 7.940256 7.943872 L 7.985042 7.903908 L 8.029829 7.863256 L 8.074615 7.821777 L 8.119263 7.779747 L 8.164049 7.73689 L 8.208836 7.693344 L 8.253622 7.649109 L 8.298408 7.604185 L 8.343194 7.558572 L 8.387981 7.512408 L 8.432767 7.465692 L 8.477553 7.418288 L 8.522339 7.370332 L 8.567126 7.321687 L 8.611774 7.272629 L 8.65656 7.22302 L 8.701347 7.172859 L 8.746133 7.122147 L 8.790919 7.071022 L 8.835705 7.019484 L 8.880492 6.967394 L 8.925278 6.91489 L 8.970064 6.861974 L 9.01485 6.808644 L 9.059637 6.7549 L 9.104285 6.700881 L 9.149071 6.646449 L 9.193857 6.59174 L 9.238644 6.536619 L 9.28343 6.481222 L 9.328216 6.425549 L 9.373002 6.369601 L 9.417789 6.313515 L 9.462575 6.257153 L 9.507361 6.200515 L 9.552147 6.143602 L 9.596796 6.086689 L 9.641582 6.029501 L 9.686368 5.972174 L 9.775941 5.857246 L 9.910299 5.684027 L 9.955086 5.626149 L 9.999872 5.568134 L 10.044658 5.510256 L 10.089307 5.452241 L 10.268452 5.22073 L 10.358024 5.105251 L 10.40281 5.047786 L 10.447597 4.990184 L 10.492383 4.932858 L 10.537169 4.875669 L 10.581817 4.818619 L 10.626604 4.761706 L 10.67139 4.704931 L 10.716176 4.648293 L 10.760962 4.591931 L 10.805749 4.535845 L 10.850535 4.479897 L 10.895321 4.424086 L 10.940107 4.368689 L 10.984894 4.31343 L 11.02968 4.258446 L 11.074328 4.203738 L 11.119115 4.149443 L 11.163901 4.095286 L 11.208687 4.041543 L 11.253473 3.988075 L 11.29826 3.934883 L 11.343046 3.881966 L 11.387832 3.829463 L 11.432618 3.777373 L 11.477405 3.725559 L 11.522191 3.674158 L 11.566839 3.623033 L 11.611625 3.572459 L 11.656412 3.52216 L 11.701198 3.472275 " transform="matrix(28.346457,0,0,-28.346457,1,256.11811)"/>
<path style="fill:none;stroke-width:0.05;stroke-linecap:butt;stroke-linejoin:miter;stroke:rgb(90%,57%,26%);stroke-opacity:1;stroke-miterlimit:10;" d="M 0.552593 0.378442 L 0.704178 0.607196 L 0.742211 0.664385 L 0.780107 0.721711 L 0.893796 0.893277 L 0.931829 0.950465 L 0.969725 1.007654 L 1.007622 1.06498 L 1.12131 1.236546 L 1.159344 1.293735 L 1.19724 1.350923 L 1.235136 1.40825 L 1.310928 1.522627 L 1.348962 1.579816 L 1.46265 1.751381 L 1.500546 1.808708 L 1.538442 1.865896 L 1.576476 1.923085 L 1.690164 2.094651 L 1.72806 2.151977 L 1.765956 2.209166 L 1.80399 2.266354 L 1.917678 2.43792 L 1.955574 2.495246 L 1.993608 2.552435 L 2.183088 2.838378 L 2.221122 2.895704 L 2.410602 3.181647 L 2.448636 3.238974 L 2.60022 3.467728 L 2.638254 3.524916 L 2.67615 3.582105 L 2.714046 3.639431 L 2.827734 3.810997 L 2.865768 3.868186 L 2.903664 3.925374 L 2.94156 3.982701 L 3.017352 4.097078 L 3.055386 4.154266 L 3.131178 4.268644 L 3.169074 4.32597 L 3.244867 4.440347 L 3.2829 4.497536 L 3.396589 4.669102 L 3.434485 4.726428 L 3.472381 4.783617 L 3.510414 4.840805 L 3.624103 5.012371 L 3.661999 5.069697 L 3.700033 5.126886 L 3.851617 5.35564 L 3.889513 5.412967 L 3.927547 5.470155 L 4.079131 5.69891 L 4.117165 5.756098 L 4.155061 5.813424 L 4.306645 6.042179 L 4.344679 6.099367 L 4.382575 6.156694 L 4.534159 6.385448 L 4.572193 6.442637 L 4.610089 6.499825 L 4.647985 6.557152 L 4.723777 6.671529 L 4.761811 6.728717 L 4.837603 6.843095 L 4.875499 6.900421 L 4.951291 7.014798 L 4.989325 7.071987 L 5.065117 7.186364 L 5.103013 7.24369 L 5.140909 7.300879 L 5.178943 7.358067 L 5.330527 7.586822 L 5.368423 7.644148 L 5.406457 7.701337 L 5.558041 7.930091 L 5.595937 7.987418 L 5.633971 8.044606 L 5.785556 8.27336 L 5.823589 8.330687 L 6.01307 8.61663 L 6.051104 8.66431 L 6.089 8.692973 L 6.126896 8.702482 L 6.164792 8.692973 L 6.202688 8.66431 L 6.240584 8.61663 L 6.278618 8.559441 L 6.430202 8.330687 L 6.468236 8.27336 L 6.657716 7.987418 L 6.69575 7.930091 L 6.847334 7.701337 L 6.885368 7.644148 L 6.923264 7.586822 L 7.074848 7.358067 L 7.112882 7.300879 L 7.150778 7.24369 L 7.188674 7.186364 L 7.302362 7.014798 L 7.340396 6.95761 L 7.378292 6.900421 L 7.416188 6.843095 L 7.49198 6.728717 L 7.530014 6.671529 L 7.605806 6.557152 L 7.643702 6.499825 L 7.719494 6.385448 L 7.757528 6.32826 L 7.871216 6.156694 L 7.909112 6.099367 L 7.947146 6.042179 L 8.09873 5.813424 L 8.136627 5.756098 L 8.17466 5.69891 L 8.364141 5.412967 L 8.402174 5.35564 L 8.553759 5.126886 L 8.591793 5.069697 L 8.629689 5.012371 L 8.781273 4.783617 L 8.819307 4.726428 L 8.857203 4.669102 L 8.970891 4.497536 L 9.008925 4.440347 L 9.084717 4.32597 L 9.122613 4.268644 L 9.198405 4.154266 L 9.236439 4.097078 L 9.312231 3.982701 L 9.350127 3.925374 L 9.425919 3.810997 L 9.463953 3.753809 L 9.539745 3.639431 L 9.577641 3.582105 L 9.615537 3.524916 L 9.653571 3.467728 L 9.805155 3.238974 L 9.843051 3.181647 L 9.881085 3.124459 L 10.032669 2.895704 L 10.070565 2.838378 L 10.108599 2.781189 L 10.260183 2.552435 L 10.298217 2.495246 L 10.336113 2.43792 L 10.487697 2.209166 L 10.525731 2.151977 L 10.563627 2.094651 L 10.677316 1.923085 L 10.715349 1.865896 L 10.753245 1.808708 L 10.791141 1.751381 L 10.90483 1.579816 L 10.942863 1.522627 L 11.018656 1.40825 L 11.056552 1.350923 L 11.132344 1.236546 L 11.170378 1.179358 L 11.24617 1.06498 L 11.284066 1.007654 L 11.321962 0.950465 L 11.359996 0.893277 L 11.473684 0.721711 L 11.51158 0.664385 L 11.549476 0.607196 L 11.58751 0.550008 L 11.701198 0.378442 " transform="matrix(28.346457,0,0,-28.346457,1,256.11811)"/>
</g>
</svg>
