<?xml version="1.0" encoding="UTF-8"?>
<svg xmlns="http://www.w3.org/2000/svg" xmlns:xlink="http://www.w3.org/1999/xlink" width="342.15748pt" height="257.11811pt" viewBox="0 0 342.15748 257.11811" version="1.1">
<g id="surface1">
<path style=" stroke:none;fill-rule:nonzero;fill:rgb(100%,100%,100%);fill-opacity:1;" d="M -0.417969 257.535156 L 342.574219 257.535156 L 342.574219 -0.417969 L -0.417969 -0.417969 Z M -0.417969 257.535156 "/>
<path style="fill:none;stroke-width:0.02;stroke-linecap:butt;stroke-linejoin:miter;stroke:rgb(0%,0%,0%);stroke-opacity:1;stroke-miterlimit:10;" d="M 0.645749 1.780044 L 0.750755 1.780044 " transform="matrix(28.346457,0,0,-28.346457,1,256.11811)"/>
<path style="fill:none;stroke-width:0.02;stroke-linecap:butt;stroke-linejoin:miter;stroke:rgb(0%,0%,0%);stroke-opacity:1;stroke-miterlimit:10;" d="M 0.645749 3.181647 L 0.750755 3.181647 " transform="matrix(28.346457,0,0,-28.346457,1,256.11811)"/>
<path style="fill:none;stroke-width:0.02;stroke-linecap:butt;stroke-linejoin:miter;stroke:rgb(0%,0%,0%);stroke-opacity:1;stroke-miterlimit:10;" d="M 0.645749 4.583388 L 0.750755 4.583388 " transform="matrix(28.346457,0,0,-28.346457,1,256.11811)"/>
<path style="fill:none;stroke-width:0.02;stroke-linecap:butt;stroke-linejoin:miter;stroke:rgb(0%,0%,0%);stroke-opacity:1;stroke-miterlimit:10;" d="M 0.645749 5.98499 L 0.750755 5.98499 " transform="matrix(28.346457,0,0,-28.346457,1,256.11811)"/>
<path style="fill:none;stroke-width:0.02;stroke-linecap:butt;stroke-linejoin:miter;stroke:rgb(0%,0%,0%);stroke-opacity:1;stroke-miterlimit:10;" d="M 0.645749 7.386593 L 0.750755 7.386593 " transform="matrix(28.346457,0,0,-28.346457,1,256.11811)"/>
<path style="fill:none;stroke-width:0.02;stroke-linecap:round;stroke-linejoin:miter;stroke:rgb(0%,0%,0%);stroke-opacity:1;stroke-miterlimit:10;" d="M 0.645749 0.378442 L 0.645749 8.788333 " transform="matrix(28.346457,0,0,-28.346457,1,256.11811)"/>
<path style=" stroke:none;fill-rule:nonzero;fill:rgb(0%,0%,0%);fill-opacity:1;" d="M 3.742188 246.03125 L 3.742188 246.476562 L 1.664062 246.476562 L 1.664062 246.03125 Z M 3.742188 246.03125 Z M 3.742188 246.03125 "/>
<path style=" stroke:none;fill-rule:nonzero;fill:rgb(0%,0%,0%);fill-opacity:1;" d="M 6.328125 242.648438 C 7.082031 242.707031 7.582031 243.394531 7.71875 244.09375 C 7.789062 244.410156 7.804688 244.714844 7.835938 245.03125 L 7.835938 245.839844 C 7.796875 246.664062 7.597656 247.753906 6.703125 248.085938 C 5.925781 248.394531 5.011719 247.910156 4.78125 247.117188 C 4.605469 246.699219 4.589844 246.269531 4.550781 245.839844 L 4.550781 245.03125 C 4.589844 244.207031 4.765625 243.109375 5.65625 242.746094 L 5.695312 242.730469 L 5.726562 242.722656 L 5.765625 242.707031 L 5.882812 242.671875 L 5.957031 242.65625 L 6.042969 242.65625 L 6.058594 242.648438 Z M 6.328125 242.648438 Z M 6.082031 243.132812 C 5.417969 243.214844 5.21875 244.015625 5.171875 244.554688 L 5.171875 244.769531 L 5.15625 244.785156 L 5.15625 245.886719 C 5.203125 246.460938 5.242188 247.199219 5.765625 247.578125 C 6.25 247.910156 6.894531 247.539062 7.027344 247.023438 C 7.171875 246.640625 7.203125 246.269531 7.234375 245.886719 L 7.234375 244.785156 C 7.1875 244.207031 7.105469 243.394531 6.441406 243.164062 L 6.382812 243.148438 L 6.367188 243.132812 L 6.296875 243.132812 L 6.28125 243.117188 L 6.097656 243.117188 Z M 6.082031 243.132812 Z M 6.082031 243.132812 "/>
<path style=" stroke:none;fill-rule:nonzero;fill:rgb(0%,0%,0%);fill-opacity:1;" d="M 9.605469 247.363281 L 9.605469 248 L 8.964844 248 L 8.964844 247.363281 Z M 9.605469 247.363281 Z M 9.605469 247.363281 "/>
<path style=" stroke:none;fill-rule:nonzero;fill:rgb(0%,0%,0%);fill-opacity:1;" d="M 12.410156 242.648438 C 13.328125 242.671875 14.058594 243.617188 13.917969 244.507812 C 13.820312 245.394531 12.988281 245.902344 12.394531 246.460938 L 12.140625 246.722656 L 12.105469 246.738281 L 11.789062 247.046875 L 11.765625 247.0625 L 11.449219 247.378906 L 11.417969 247.394531 L 11.34375 247.46875 L 11.359375 247.476562 L 13.933594 247.476562 L 13.933594 248 L 10.789062 248 L 10.789062 247.523438 L 12.066406 246.246094 C 12.679688 245.714844 13.394531 245.023438 13.28125 244.148438 C 13.21875 243.640625 12.789062 243.171875 12.265625 243.132812 C 11.734375 243.054688 11.265625 243.476562 11.148438 243.984375 L 11.132812 244.007812 L 11.113281 244.0625 L 11.089844 244.148438 L 11.042969 244.324219 L 11.035156 244.363281 C 10.925781 244.230469 10.804688 244.085938 10.71875 243.933594 C 10.878906 243.285156 11.402344 242.671875 12.089844 242.648438 Z M 12.410156 242.648438 Z M 12.410156 242.648438 "/>
<path style=" stroke:none;fill-rule:nonzero;fill:rgb(0%,0%,0%);fill-opacity:1;" d="M 6.328125 202.917969 C 7.082031 202.972656 7.582031 203.664062 7.71875 204.363281 C 7.789062 204.679688 7.804688 204.980469 7.835938 205.300781 L 7.835938 206.109375 C 7.796875 206.933594 7.597656 208.019531 6.703125 208.355469 C 5.925781 208.664062 5.011719 208.179688 4.78125 207.386719 C 4.605469 206.964844 4.589844 206.535156 4.550781 206.109375 L 4.550781 205.300781 C 4.589844 204.472656 4.765625 203.378906 5.65625 203.011719 L 5.695312 202.996094 L 5.726562 202.988281 L 5.765625 202.972656 L 5.882812 202.941406 L 5.957031 202.925781 L 6.042969 202.925781 L 6.058594 202.917969 Z M 6.328125 202.917969 Z M 6.082031 203.402344 C 5.417969 203.480469 5.21875 204.28125 5.171875 204.824219 L 5.171875 205.035156 L 5.15625 205.054688 L 5.15625 206.15625 C 5.203125 206.726562 5.242188 207.464844 5.765625 207.847656 C 6.25 208.179688 6.894531 207.808594 7.027344 207.292969 C 7.171875 206.910156 7.203125 206.535156 7.234375 206.15625 L 7.234375 205.054688 C 7.1875 204.472656 7.105469 203.664062 6.441406 203.433594 L 6.382812 203.417969 L 6.367188 203.402344 L 6.296875 203.402344 L 6.28125 203.386719 L 6.097656 203.386719 Z M 6.082031 203.402344 Z M 6.082031 203.402344 "/>
<path style=" stroke:none;fill-rule:nonzero;fill:rgb(0%,0%,0%);fill-opacity:1;" d="M 9.605469 207.632812 L 9.605469 208.265625 L 8.964844 208.265625 L 8.964844 207.632812 Z M 9.605469 207.632812 Z M 9.605469 207.632812 "/>
<path style=" stroke:none;fill-rule:nonzero;fill:rgb(0%,0%,0%);fill-opacity:1;" d="M 12.496094 202.917969 C 13.25 202.972656 13.75 203.664062 13.886719 204.363281 C 13.957031 204.679688 13.972656 204.980469 14.003906 205.300781 L 14.003906 206.109375 C 13.964844 206.933594 13.765625 208.019531 12.871094 208.355469 C 12.089844 208.664062 11.179688 208.179688 10.949219 207.386719 C 10.773438 206.964844 10.757812 206.535156 10.71875 206.109375 L 10.71875 205.300781 C 10.757812 204.472656 10.933594 203.378906 11.820312 203.011719 L 11.859375 202.996094 L 11.894531 202.988281 L 11.933594 202.972656 L 12.050781 202.941406 L 12.125 202.925781 L 12.210938 202.925781 L 12.226562 202.917969 Z M 12.496094 202.917969 Z M 12.25 203.402344 C 11.582031 203.480469 11.386719 204.28125 11.335938 204.824219 L 11.335938 205.035156 L 11.320312 205.054688 L 11.320312 206.15625 C 11.367188 206.726562 11.410156 207.464844 11.933594 207.847656 C 12.417969 208.179688 13.058594 207.808594 13.195312 207.292969 C 13.335938 206.910156 13.371094 206.535156 13.402344 206.15625 L 13.402344 205.054688 C 13.351562 204.472656 13.273438 203.664062 12.605469 203.433594 L 12.550781 203.417969 L 12.535156 203.402344 L 12.464844 203.402344 L 12.449219 203.386719 L 12.265625 203.386719 Z M 12.25 203.402344 Z M 12.25 203.402344 "/>
<path style=" stroke:none;fill-rule:nonzero;fill:rgb(0%,0%,0%);fill-opacity:1;" d="M 6.328125 163.1875 C 7.082031 163.242188 7.582031 163.933594 7.71875 164.628906 C 7.789062 164.949219 7.804688 165.25 7.835938 165.566406 L 7.835938 166.375 C 7.796875 167.203125 7.597656 168.289062 6.703125 168.621094 C 5.925781 168.933594 5.011719 168.449219 4.78125 167.65625 C 4.605469 167.234375 4.589844 166.804688 4.550781 166.375 L 4.550781 165.566406 C 4.589844 164.742188 4.765625 163.644531 5.65625 163.28125 L 5.695312 163.265625 L 5.726562 163.257812 L 5.765625 163.242188 L 5.882812 163.210938 L 5.957031 163.195312 L 6.042969 163.195312 L 6.058594 163.1875 Z M 6.328125 163.1875 Z M 6.082031 163.671875 C 5.417969 163.75 5.21875 164.550781 5.171875 165.089844 L 5.171875 165.304688 L 5.15625 165.320312 L 5.15625 166.425781 C 5.203125 166.996094 5.242188 167.734375 5.765625 168.113281 C 6.25 168.449219 6.894531 168.074219 7.027344 167.558594 C 7.171875 167.179688 7.203125 166.804688 7.234375 166.425781 L 7.234375 165.320312 C 7.1875 164.742188 7.105469 163.933594 6.441406 163.703125 L 6.382812 163.6875 L 6.367188 163.671875 L 6.296875 163.671875 L 6.28125 163.652344 L 6.097656 163.652344 Z M 6.082031 163.671875 Z M 6.082031 163.671875 "/>
<path style=" stroke:none;fill-rule:nonzero;fill:rgb(0%,0%,0%);fill-opacity:1;" d="M 9.605469 167.902344 L 9.605469 168.535156 L 8.964844 168.535156 L 8.964844 167.902344 Z M 9.605469 167.902344 Z M 9.605469 167.902344 "/>
<path style=" stroke:none;fill-rule:nonzero;fill:rgb(0%,0%,0%);fill-opacity:1;" d="M 12.410156 163.1875 C 13.328125 163.210938 14.058594 164.152344 13.917969 165.042969 C 13.820312 165.933594 12.988281 166.441406 12.394531 166.996094 L 12.140625 167.257812 L 12.105469 167.273438 L 11.789062 167.582031 L 11.765625 167.597656 L 11.449219 167.917969 L 11.417969 167.933594 L 11.34375 168.003906 L 11.359375 168.011719 L 13.933594 168.011719 L 13.933594 168.535156 L 10.789062 168.535156 L 10.789062 168.058594 L 12.066406 166.78125 C 12.679688 166.25 13.394531 165.558594 13.28125 164.6875 C 13.21875 164.179688 12.789062 163.710938 12.265625 163.671875 C 11.734375 163.589844 11.265625 164.011719 11.148438 164.519531 L 11.132812 164.542969 L 11.113281 164.597656 L 11.089844 164.6875 L 11.042969 164.859375 L 11.035156 164.898438 C 10.925781 164.765625 10.804688 164.621094 10.71875 164.472656 C 10.878906 163.820312 11.402344 163.210938 12.089844 163.1875 Z M 12.410156 163.1875 Z M 12.410156 163.1875 "/>
<path style=" stroke:none;fill-rule:nonzero;fill:rgb(0%,0%,0%);fill-opacity:1;" d="M 6.328125 123.453125 C 7.082031 123.507812 7.582031 124.199219 7.71875 124.898438 C 7.789062 125.214844 7.804688 125.519531 7.835938 125.835938 L 7.835938 126.644531 C 7.796875 127.46875 7.597656 128.558594 6.703125 128.890625 C 5.925781 129.199219 5.011719 128.714844 4.78125 127.921875 C 4.605469 127.503906 4.589844 127.074219 4.550781 126.644531 L 4.550781 125.835938 C 4.589844 125.011719 4.765625 123.914062 5.65625 123.550781 L 5.695312 123.535156 L 5.726562 123.527344 L 5.765625 123.507812 L 5.882812 123.476562 L 5.957031 123.460938 L 6.042969 123.460938 L 6.058594 123.453125 Z M 6.328125 123.453125 Z M 6.082031 123.9375 C 5.417969 124.019531 5.21875 124.820312 5.171875 125.359375 L 5.171875 125.574219 L 5.15625 125.589844 L 5.15625 126.691406 C 5.203125 127.265625 5.242188 128.003906 5.765625 128.382812 C 6.25 128.714844 6.894531 128.34375 7.027344 127.828125 C 7.171875 127.445312 7.203125 127.074219 7.234375 126.691406 L 7.234375 125.589844 C 7.1875 125.011719 7.105469 124.199219 6.441406 123.96875 L 6.382812 123.953125 L 6.367188 123.9375 L 6.296875 123.9375 L 6.28125 123.921875 L 6.097656 123.921875 Z M 6.082031 123.9375 Z M 6.082031 123.9375 "/>
<path style=" stroke:none;fill-rule:nonzero;fill:rgb(0%,0%,0%);fill-opacity:1;" d="M 9.605469 128.167969 L 9.605469 128.804688 L 8.964844 128.804688 L 8.964844 128.167969 Z M 9.605469 128.167969 Z M 9.605469 128.167969 "/>
<path style=" stroke:none;fill-rule:nonzero;fill:rgb(0%,0%,0%);fill-opacity:1;" d="M 13.3125 123.621094 L 13.3125 126.960938 L 13.328125 126.976562 L 14.117188 126.976562 L 14.117188 127.453125 L 13.328125 127.453125 L 13.3125 127.460938 L 13.3125 128.804688 L 12.710938 128.804688 L 12.710938 127.460938 L 12.695312 127.453125 L 10.597656 127.453125 L 10.597656 126.960938 C 11.265625 125.851562 11.933594 124.730469 12.597656 123.621094 Z M 13.3125 123.621094 Z M 12.726562 123.921875 C 12.566406 124.746094 12.058594 125.453125 11.679688 126.175781 C 11.527344 126.4375 11.328125 126.722656 11.21875 126.976562 L 12.742188 126.976562 L 12.75 126.960938 L 12.75 123.921875 L 12.742188 123.90625 Z M 12.726562 123.921875 Z M 12.726562 123.921875 "/>
<path style=" stroke:none;fill-rule:nonzero;fill:rgb(0%,0%,0%);fill-opacity:1;" d="M 6.328125 83.722656 C 7.082031 83.777344 7.582031 84.46875 7.71875 85.167969 C 7.789062 85.484375 7.804688 85.785156 7.835938 86.101562 L 7.835938 86.914062 C 7.796875 87.738281 7.597656 88.824219 6.703125 89.160156 C 5.925781 89.46875 5.011719 88.984375 4.78125 88.191406 C 4.605469 87.769531 4.589844 87.339844 4.550781 86.914062 L 4.550781 86.101562 C 4.589844 85.277344 4.765625 84.183594 5.65625 83.816406 L 5.695312 83.800781 L 5.726562 83.792969 L 5.765625 83.777344 L 5.882812 83.746094 L 5.957031 83.730469 L 6.042969 83.730469 L 6.058594 83.722656 Z M 6.328125 83.722656 Z M 6.082031 84.207031 C 5.417969 84.285156 5.21875 85.085938 5.171875 85.628906 L 5.171875 85.839844 L 5.15625 85.855469 L 5.15625 86.960938 C 5.203125 87.53125 5.242188 88.269531 5.765625 88.652344 C 6.25 88.984375 6.894531 88.613281 7.027344 88.09375 C 7.171875 87.714844 7.203125 87.339844 7.234375 86.960938 L 7.234375 85.855469 C 7.1875 85.277344 7.105469 84.46875 6.441406 84.238281 L 6.382812 84.222656 L 6.367188 84.207031 L 6.296875 84.207031 L 6.28125 84.191406 L 6.097656 84.191406 Z M 6.082031 84.207031 Z M 6.082031 84.207031 "/>
<path style=" stroke:none;fill-rule:nonzero;fill:rgb(0%,0%,0%);fill-opacity:1;" d="M 9.605469 88.4375 L 9.605469 89.070312 L 8.964844 89.070312 L 8.964844 88.4375 Z M 9.605469 88.4375 Z M 9.605469 88.4375 "/>
<path style=" stroke:none;fill-rule:nonzero;fill:rgb(0%,0%,0%);fill-opacity:1;" d="M 13.011719 83.722656 C 13.21875 83.753906 13.457031 83.777344 13.65625 83.875 L 13.65625 84.332031 C 13.105469 84.09375 12.394531 84.0625 11.964844 84.546875 C 11.582031 84.953125 11.410156 85.554688 11.394531 86.085938 C 11.851562 85.476562 12.894531 85.136719 13.457031 85.769531 C 14.019531 86.421875 14.117188 87.359375 13.863281 88.152344 C 13.582031 88.785156 12.941406 89.367188 12.226562 89.230469 C 11.257812 89.152344 10.820312 88.070312 10.773438 87.246094 C 10.589844 86.078125 10.867188 84.609375 11.980469 83.945312 L 11.996094 83.9375 L 12.164062 83.847656 L 12.210938 83.832031 L 12.234375 83.816406 L 12.480469 83.746094 L 12.550781 83.730469 L 12.640625 83.730469 L 12.65625 83.722656 Z M 13.011719 83.722656 Z M 12.234375 85.929688 C 11.542969 86.046875 11.320312 86.882812 11.410156 87.445312 C 11.449219 87.976562 11.65625 88.683594 12.265625 88.792969 C 12.917969 88.882812 13.335938 88.183594 13.351562 87.621094 C 13.386719 87.046875 13.351562 86.398438 12.851562 86.023438 L 12.742188 85.96875 L 12.65625 85.945312 L 12.582031 85.929688 L 12.566406 85.914062 L 12.25 85.914062 Z M 12.234375 85.929688 Z M 12.234375 85.929688 "/>
<path style=" stroke:none;fill-rule:nonzero;fill:rgb(0%,0%,0%);fill-opacity:1;" d="M 6.328125 43.992188 C 7.082031 44.046875 7.582031 44.738281 7.71875 45.433594 C 7.789062 45.753906 7.804688 46.054688 7.835938 46.371094 L 7.835938 47.179688 C 7.796875 48.007812 7.597656 49.09375 6.703125 49.425781 C 5.925781 49.738281 5.011719 49.253906 4.78125 48.460938 C 4.605469 48.039062 4.589844 47.609375 4.550781 47.179688 L 4.550781 46.371094 C 4.589844 45.546875 4.765625 44.449219 5.65625 44.085938 L 5.695312 44.070312 L 5.726562 44.0625 L 5.765625 44.046875 L 5.882812 44.015625 L 5.957031 44 L 6.042969 44 L 6.058594 43.992188 Z M 6.328125 43.992188 Z M 6.082031 44.476562 C 5.417969 44.554688 5.21875 45.355469 5.171875 45.894531 L 5.171875 46.109375 L 5.15625 46.125 L 5.15625 47.230469 C 5.203125 47.800781 5.242188 48.539062 5.765625 48.917969 C 6.25 49.253906 6.894531 48.878906 7.027344 48.363281 C 7.171875 47.984375 7.203125 47.609375 7.234375 47.230469 L 7.234375 46.125 C 7.1875 45.546875 7.105469 44.738281 6.441406 44.507812 L 6.382812 44.492188 L 6.367188 44.476562 L 6.296875 44.476562 L 6.28125 44.457031 L 6.097656 44.457031 Z M 6.082031 44.476562 Z M 6.082031 44.476562 "/>
<path style=" stroke:none;fill-rule:nonzero;fill:rgb(0%,0%,0%);fill-opacity:1;" d="M 9.605469 48.707031 L 9.605469 49.339844 L 8.964844 49.339844 L 8.964844 48.707031 Z M 9.605469 48.707031 Z M 9.605469 48.707031 "/>
<path style=" stroke:none;fill-rule:nonzero;fill:rgb(0%,0%,0%);fill-opacity:1;" d="M 12.511719 43.992188 C 13.351562 44.023438 14.148438 44.925781 13.8125 45.769531 C 13.671875 46.15625 13.273438 46.394531 12.949219 46.5625 C 13.757812 46.800781 14.25 47.746094 13.886719 48.523438 C 13.503906 49.53125 12.058594 49.847656 11.265625 49.117188 C 10.542969 48.546875 10.519531 47.308594 11.320312 46.800781 C 11.441406 46.671875 11.664062 46.632812 11.765625 46.539062 C 11.074219 46.339844 10.605469 45.539062 10.933594 44.863281 C 11.195312 44.261719 11.871094 43.925781 12.511719 43.992188 Z M 12.511719 43.992188 Z M 12.210938 44.441406 C 11.625 44.457031 11.210938 45.125 11.410156 45.648438 C 11.640625 46.554688 13.15625 46.523438 13.328125 45.59375 C 13.488281 45.078125 13.074219 44.457031 12.511719 44.441406 L 12.496094 44.433594 L 12.226562 44.433594 Z M 12.210938 44.441406 Z M 12.226562 46.800781 C 11.535156 46.847656 11.195312 47.671875 11.378906 48.261719 C 11.496094 49.09375 12.6875 49.339844 13.15625 48.671875 C 13.605469 48.0625 13.386719 46.96875 12.566406 46.800781 L 12.496094 46.800781 L 12.480469 46.785156 L 12.234375 46.785156 Z M 12.226562 46.800781 Z M 12.226562 46.800781 "/>
<path style=" stroke:none;fill-rule:nonzero;fill:rgb(0%,0%,0%);fill-opacity:1;" d="M 6.574219 4.257812 L 6.574219 9.15625 L 6.582031 9.171875 L 7.558594 9.171875 L 7.558594 9.609375 L 4.980469 9.609375 L 4.980469 9.171875 L 5.957031 9.171875 L 5.972656 9.15625 L 5.972656 5.042969 C 5.636719 5.15625 5.289062 5.226562 4.941406 5.21875 L 4.941406 4.773438 C 5.464844 4.78125 6.035156 4.640625 6.433594 4.257812 Z M 6.574219 4.257812 Z M 6.574219 4.257812 "/>
<path style=" stroke:none;fill-rule:nonzero;fill:rgb(0%,0%,0%);fill-opacity:1;" d="M 9.605469 8.972656 L 9.605469 9.609375 L 8.964844 9.609375 L 8.964844 8.972656 Z M 9.605469 8.972656 Z M 9.605469 8.972656 "/>
<path style=" stroke:none;fill-rule:nonzero;fill:rgb(0%,0%,0%);fill-opacity:1;" d="M 12.496094 4.257812 C 13.25 4.3125 13.75 5.003906 13.886719 5.703125 C 13.957031 6.019531 13.972656 6.324219 14.003906 6.640625 L 14.003906 7.449219 C 13.964844 8.273438 13.765625 9.363281 12.871094 9.695312 C 12.089844 10.003906 11.179688 9.519531 10.949219 8.726562 C 10.773438 8.304688 10.757812 7.878906 10.71875 7.449219 L 10.71875 6.640625 C 10.757812 5.8125 10.933594 4.71875 11.820312 4.355469 L 11.859375 4.339844 L 11.894531 4.332031 L 11.933594 4.3125 L 12.050781 4.28125 L 12.125 4.265625 L 12.210938 4.265625 L 12.226562 4.257812 Z M 12.496094 4.257812 Z M 12.25 4.742188 C 11.582031 4.820312 11.386719 5.625 11.335938 6.164062 L 11.335938 6.378906 L 11.320312 6.394531 L 11.320312 7.496094 C 11.367188 8.070312 11.410156 8.804688 11.933594 9.1875 C 12.417969 9.519531 13.058594 9.148438 13.195312 8.632812 C 13.335938 8.25 13.371094 7.878906 13.402344 7.496094 L 13.402344 6.394531 C 13.351562 5.8125 13.273438 5.003906 12.605469 4.773438 L 12.550781 4.757812 L 12.535156 4.742188 L 12.464844 4.742188 L 12.449219 4.726562 L 12.265625 4.726562 Z M 12.25 4.742188 Z M 12.25 4.742188 "/>
<path style="fill:none;stroke-width:0.02;stroke-linecap:butt;stroke-linejoin:miter;stroke:rgb(0%,0%,0%);stroke-opacity:1;stroke-miterlimit:10;" d="M 11.701198 1.780044 L 11.596191 1.780044 " transform="matrix(28.346457,0,0,-28.346457,1,256.11811)"/>
<path style="fill:none;stroke-width:0.02;stroke-linecap:butt;stroke-linejoin:miter;stroke:rgb(0%,0%,0%);stroke-opacity:1;stroke-miterlimit:10;" d="M 11.701198 3.181647 L 11.596191 3.181647 " transform="matrix(28.346457,0,0,-28.346457,1,256.11811)"/>
<path style="fill:none;stroke-width:0.02;stroke-linecap:butt;stroke-linejoin:miter;stroke:rgb(0%,0%,0%);stroke-opacity:1;stroke-miterlimit:10;" d="M 11.701198 4.583388 L 11.596191 4.583388 " transform="matrix(28.346457,0,0,-28.346457,1,256.11811)"/>
<path style="fill:none;stroke-width:0.02;stroke-linecap:butt;stroke-linejoin:miter;stroke:rgb(0%,0%,0%);stroke-opacity:1;stroke-miterlimit:10;" d="M 11.701198 5.98499 L 11.596191 5.98499 " transform="matrix(28.346457,0,0,-28.346457,1,256.11811)"/>
<path style="fill:none;stroke-width:0.02;stroke-linecap:butt;stroke-linejoin:miter;stroke:rgb(0%,0%,0%);stroke-opacity:1;stroke-miterlimit:10;" d="M 11.701198 7.386593 L 11.596191 7.386593 " transform="matrix(28.346457,0,0,-28.346457,1,256.11811)"/>
<path style="fill:none;stroke-width:0.02;stroke-linecap:round;stroke-linejoin:miter;stroke:rgb(0%,0%,0%);stroke-opacity:1;stroke-miterlimit:10;" d="M 11.701198 0.378442 L 11.701198 8.788333 " transform="matrix(28.346457,0,0,-28.346457,1,256.11811)"/>
<path style="fill:none;stroke-width:0.02;stroke-linecap:butt;stroke-linejoin:miter;stroke:rgb(0%,0%,0%);stroke-opacity:1;stroke-miterlimit:10;" d="M 1.751349 0.378442 L 1.751349 0.483448 " transform="matrix(28.346457,0,0,-28.346457,1,256.11811)"/>
<path style="fill:none;stroke-width:0.02;stroke-linecap:butt;stroke-linejoin:miter;stroke:rgb(0%,0%,0%);stroke-opacity:1;stroke-miterlimit:10;" d="M 2.856949 0.378442 L 2.856949 0.483448 " transform="matrix(28.346457,0,0,-28.346457,1,256.11811)"/>
<path style="fill:none;stroke-width:0.02;stroke-linecap:butt;stroke-linejoin:miter;stroke:rgb(0%,0%,0%);stroke-opacity:1;stroke-miterlimit:10;" d="M 3.962411 0.378442 L 3.962411 0.483448 " transform="matrix(28.346457,0,0,-28.346457,1,256.11811)"/>
<path style="fill:none;stroke-width:0.02;stroke-linecap:butt;stroke-linejoin:miter;stroke:rgb(0%,0%,0%);stroke-opacity:1;stroke-miterlimit:10;" d="M 5.068011 0.378442 L 5.068011 0.483448 " transform="matrix(28.346457,0,0,-28.346457,1,256.11811)"/>
<path style="fill:none;stroke-width:0.02;stroke-linecap:butt;stroke-linejoin:miter;stroke:rgb(0%,0%,0%);stroke-opacity:1;stroke-miterlimit:10;" d="M 6.173473 0.378442 L 6.173473 0.483448 " transform="matrix(28.346457,0,0,-28.346457,1,256.11811)"/>
<path style="fill:none;stroke-width:0.02;stroke-linecap:butt;stroke-linejoin:miter;stroke:rgb(0%,0%,0%);stroke-opacity:1;stroke-miterlimit:10;" d="M 7.279073 0.378442 L 7.279073 0.483448 " transform="matrix(28.346457,0,0,-28.346457,1,256.11811)"/>
<path style="fill:none;stroke-width:0.02;stroke-linecap:butt;stroke-linejoin:miter;stroke:rgb(0%,0%,0%);stroke-opacity:1;stroke-miterlimit:10;" d="M 8.384536 0.378442 L 8.384536 0.483448 " transform="matrix(28.346457,0,0,-28.346457,1,256.11811)"/>
<path style="fill:none;stroke-width:0.02;stroke-linecap:butt;stroke-linejoin:miter;stroke:rgb(0%,0%,0%);stroke-opacity:1;stroke-miterlimit:10;" d="M 9.490136 0.378442 L 9.490136 0.483448 " transform="matrix(28.346457,0,0,-28.346457,1,256.11811)"/>
<path style="fill:none;stroke-width:0.02;stroke-linecap:butt;stroke-linejoin:miter;stroke:rgb(0%,0%,0%);stroke-opacity:1;stroke-miterlimit:10;" d="M 10.595736 0.378442 L 10.595736 0.483448 " transform="matrix(28.346457,0,0,-28.346457,1,256.11811)"/>
<path style="fill:none;stroke-width:0.02;stroke-linecap:round;stroke-linejoin:miter;stroke:rgb(0%,0%,0%);stroke-opacity:1;stroke-miterlimit:10;" d="M 0.645749 0.378442 L 11.701198 0.378442 " transform="matrix(28.346457,0,0,-28.346457,1,256.11811)"/>
<path style=" stroke:none;fill-rule:nonzero;fill:rgb(0%,0%,0%);fill-opacity:1;" d="M 15.089844 253.589844 L 15.089844 254.035156 L 13.011719 254.035156 L 13.011719 253.589844 Z M 15.089844 253.589844 Z M 15.089844 253.589844 "/>
<path style=" stroke:none;fill-rule:nonzero;fill:rgb(0%,0%,0%);fill-opacity:1;" d="M 17.925781 250.210938 L 17.925781 255.105469 L 17.933594 255.121094 L 18.910156 255.121094 L 18.910156 255.558594 L 16.328125 255.558594 L 16.328125 255.121094 L 17.304688 255.121094 L 17.320312 255.105469 L 17.320312 250.996094 C 16.988281 251.105469 16.640625 251.179688 16.289062 251.171875 L 16.289062 250.726562 C 16.8125 250.734375 17.386719 250.589844 17.78125 250.210938 Z M 17.925781 250.210938 Z M 17.925781 250.210938 "/>
<path style=" stroke:none;fill-rule:nonzero;fill:rgb(0%,0%,0%);fill-opacity:1;" d="M 20.957031 254.925781 L 20.957031 255.558594 L 20.3125 255.558594 L 20.3125 254.925781 Z M 20.957031 254.925781 Z M 20.957031 254.925781 "/>
<path style=" stroke:none;fill-rule:nonzero;fill:rgb(0%,0%,0%);fill-opacity:1;" d="M 23.847656 250.210938 C 24.601562 250.265625 25.101562 250.957031 25.234375 251.652344 C 25.304688 251.972656 25.324219 252.273438 25.355469 252.589844 L 25.355469 253.398438 C 25.316406 254.226562 25.117188 255.3125 24.21875 255.644531 C 23.441406 255.957031 22.527344 255.472656 22.296875 254.679688 C 22.125 254.257812 22.109375 253.828125 22.066406 253.398438 L 22.066406 252.589844 C 22.109375 251.765625 22.28125 250.667969 23.171875 250.304688 L 23.210938 250.289062 L 23.242188 250.28125 L 23.28125 250.265625 L 23.402344 250.234375 L 23.472656 250.21875 L 23.558594 250.21875 L 23.578125 250.210938 Z M 23.847656 250.210938 Z M 23.601562 250.695312 C 22.933594 250.773438 22.734375 251.574219 22.6875 252.113281 L 22.6875 252.328125 L 22.671875 252.34375 L 22.671875 253.449219 C 22.71875 254.019531 22.757812 254.757812 23.28125 255.136719 C 23.765625 255.472656 24.410156 255.097656 24.542969 254.582031 C 24.6875 254.203125 24.71875 253.828125 24.75 253.449219 L 24.75 252.34375 C 24.703125 251.765625 24.625 250.957031 23.957031 250.726562 L 23.902344 250.710938 L 23.886719 250.695312 L 23.8125 250.695312 L 23.796875 250.679688 L 23.617188 250.679688 Z M 23.601562 250.695312 Z M 23.601562 250.695312 "/>
<path style=" stroke:none;fill-rule:nonzero;fill:rgb(0%,0%,0%);fill-opacity:1;" d="M 46.429688 253.589844 L 46.429688 254.035156 L 44.351562 254.035156 L 44.351562 253.589844 Z M 46.429688 253.589844 Z M 46.429688 253.589844 "/>
<path style=" stroke:none;fill-rule:nonzero;fill:rgb(0%,0%,0%);fill-opacity:1;" d="M 49.015625 250.210938 C 49.769531 250.265625 50.269531 250.957031 50.40625 251.652344 C 50.476562 251.972656 50.492188 252.273438 50.523438 252.589844 L 50.523438 253.398438 C 50.484375 254.226562 50.289062 255.3125 49.390625 255.644531 C 48.613281 255.957031 47.699219 255.472656 47.46875 254.679688 C 47.296875 254.257812 47.277344 253.828125 47.238281 253.398438 L 47.238281 252.589844 C 47.277344 251.765625 47.453125 250.667969 48.34375 250.304688 L 48.382812 250.289062 L 48.414062 250.28125 L 48.453125 250.265625 L 48.574219 250.234375 L 48.644531 250.21875 L 48.730469 250.21875 L 48.746094 250.210938 Z M 49.015625 250.210938 Z M 48.769531 250.695312 C 48.105469 250.773438 47.90625 251.574219 47.859375 252.113281 L 47.859375 252.328125 L 47.84375 252.34375 L 47.84375 253.449219 C 47.890625 254.019531 47.929688 254.757812 48.453125 255.136719 C 48.9375 255.472656 49.582031 255.097656 49.714844 254.582031 C 49.859375 254.203125 49.890625 253.828125 49.921875 253.449219 L 49.921875 252.34375 C 49.875 251.765625 49.796875 250.957031 49.128906 250.726562 L 49.074219 250.710938 L 49.058594 250.695312 L 48.984375 250.695312 L 48.96875 250.679688 L 48.785156 250.679688 Z M 48.769531 250.695312 Z M 48.769531 250.695312 "/>
<path style=" stroke:none;fill-rule:nonzero;fill:rgb(0%,0%,0%);fill-opacity:1;" d="M 52.296875 254.925781 L 52.296875 255.558594 L 51.652344 255.558594 L 51.652344 254.925781 Z M 52.296875 254.925781 Z M 52.296875 254.925781 "/>
<path style=" stroke:none;fill-rule:nonzero;fill:rgb(0%,0%,0%);fill-opacity:1;" d="M 55.199219 250.210938 C 56.042969 250.242188 56.835938 251.144531 56.5 251.988281 C 56.359375 252.375 55.960938 252.613281 55.636719 252.78125 C 56.445312 253.019531 56.9375 253.964844 56.574219 254.742188 C 56.191406 255.75 54.746094 256.066406 53.953125 255.335938 C 53.230469 254.765625 53.207031 253.527344 54.007812 253.019531 C 54.128906 252.890625 54.351562 252.851562 54.453125 252.757812 C 53.761719 252.558594 53.296875 251.757812 53.621094 251.082031 C 53.882812 250.480469 54.558594 250.144531 55.199219 250.210938 Z M 55.199219 250.210938 Z M 54.898438 250.660156 C 54.3125 250.679688 53.898438 251.34375 54.097656 251.867188 C 54.328125 252.773438 55.84375 252.742188 56.019531 251.8125 C 56.175781 251.296875 55.765625 250.679688 55.199219 250.660156 L 55.183594 250.652344 L 54.914062 250.652344 Z M 54.898438 250.660156 Z M 54.914062 253.019531 C 54.222656 253.066406 53.882812 253.890625 54.066406 254.480469 C 54.183594 255.3125 55.375 255.558594 55.84375 254.890625 C 56.296875 254.28125 56.074219 253.1875 55.253906 253.019531 L 55.183594 253.019531 L 55.167969 253.003906 L 54.921875 253.003906 Z M 54.914062 253.019531 Z M 54.914062 253.019531 "/>
<path style=" stroke:none;fill-rule:nonzero;fill:rgb(0%,0%,0%);fill-opacity:1;" d="M 77.769531 253.589844 L 77.769531 254.035156 L 75.6875 254.035156 L 75.6875 253.589844 Z M 77.769531 253.589844 Z M 77.769531 253.589844 "/>
<path style=" stroke:none;fill-rule:nonzero;fill:rgb(0%,0%,0%);fill-opacity:1;" d="M 80.355469 250.210938 C 81.109375 250.265625 81.609375 250.957031 81.746094 251.652344 C 81.816406 251.972656 81.832031 252.273438 81.863281 252.589844 L 81.863281 253.398438 C 81.824219 254.226562 81.625 255.3125 80.726562 255.644531 C 79.949219 255.957031 79.039062 255.472656 78.808594 254.679688 C 78.632812 254.257812 78.617188 253.828125 78.578125 253.398438 L 78.578125 252.589844 C 78.617188 251.765625 78.792969 250.667969 79.679688 250.304688 L 79.71875 250.289062 L 79.753906 250.28125 L 79.792969 250.265625 L 79.910156 250.234375 L 79.980469 250.21875 L 80.070312 250.21875 L 80.085938 250.210938 Z M 80.355469 250.210938 Z M 80.109375 250.695312 C 79.441406 250.773438 79.246094 251.574219 79.195312 252.113281 L 79.195312 252.328125 L 79.179688 252.34375 L 79.179688 253.449219 C 79.226562 254.019531 79.269531 254.757812 79.792969 255.136719 C 80.277344 255.472656 80.917969 255.097656 81.054688 254.582031 C 81.195312 254.203125 81.230469 253.828125 81.261719 253.449219 L 81.261719 252.34375 C 81.210938 251.765625 81.132812 250.957031 80.464844 250.726562 L 80.410156 250.710938 L 80.394531 250.695312 L 80.324219 250.695312 L 80.308594 250.679688 L 80.125 250.679688 Z M 80.109375 250.695312 Z M 80.109375 250.695312 "/>
<path style=" stroke:none;fill-rule:nonzero;fill:rgb(0%,0%,0%);fill-opacity:1;" d="M 83.632812 254.925781 L 83.632812 255.558594 L 82.992188 255.558594 L 82.992188 254.925781 Z M 83.632812 254.925781 Z M 83.632812 254.925781 "/>
<path style=" stroke:none;fill-rule:nonzero;fill:rgb(0%,0%,0%);fill-opacity:1;" d="M 87.039062 250.210938 C 87.246094 250.242188 87.484375 250.265625 87.679688 250.359375 L 87.679688 250.820312 C 87.132812 250.582031 86.417969 250.550781 85.992188 251.035156 C 85.609375 251.441406 85.433594 252.042969 85.417969 252.574219 C 85.878906 251.964844 86.917969 251.621094 87.484375 252.257812 C 88.046875 252.90625 88.140625 253.84375 87.886719 254.636719 C 87.609375 255.273438 86.96875 255.851562 86.253906 255.71875 C 85.285156 255.636719 84.847656 254.558594 84.800781 253.734375 C 84.617188 252.566406 84.894531 251.097656 86.007812 250.433594 L 86.023438 250.425781 L 86.1875 250.335938 L 86.238281 250.320312 L 86.261719 250.304688 L 86.394531 250.265625 L 86.507812 250.234375 L 86.578125 250.21875 L 86.664062 250.21875 L 86.679688 250.210938 Z M 87.039062 250.210938 Z M 86.261719 252.417969 C 85.570312 252.535156 85.347656 253.367188 85.433594 253.933594 C 85.476562 254.464844 85.679688 255.171875 86.292969 255.28125 C 86.941406 255.367188 87.363281 254.671875 87.378906 254.105469 C 87.410156 253.535156 87.378906 252.882812 86.878906 252.511719 L 86.769531 252.457031 L 86.679688 252.433594 L 86.609375 252.417969 L 86.59375 252.398438 L 86.277344 252.398438 Z M 86.261719 252.417969 Z M 86.261719 252.417969 "/>
<path style=" stroke:none;fill-rule:nonzero;fill:rgb(0%,0%,0%);fill-opacity:1;" d="M 109.105469 253.589844 L 109.105469 254.035156 L 107.027344 254.035156 L 107.027344 253.589844 Z M 109.105469 253.589844 Z M 109.105469 253.589844 "/>
<path style=" stroke:none;fill-rule:nonzero;fill:rgb(0%,0%,0%);fill-opacity:1;" d="M 111.695312 250.210938 C 112.449219 250.265625 112.949219 250.957031 113.082031 251.652344 C 113.152344 251.972656 113.171875 252.273438 113.203125 252.589844 L 113.203125 253.398438 C 113.160156 254.226562 112.964844 255.3125 112.066406 255.644531 C 111.289062 255.957031 110.375 255.472656 110.144531 254.679688 C 109.972656 254.257812 109.957031 253.828125 109.914062 253.398438 L 109.914062 252.589844 C 109.957031 251.765625 110.128906 250.667969 111.019531 250.304688 L 111.058594 250.289062 L 111.089844 250.28125 L 111.128906 250.265625 L 111.25 250.234375 L 111.320312 250.21875 L 111.40625 250.21875 L 111.421875 250.210938 Z M 111.695312 250.210938 Z M 111.449219 250.695312 C 110.78125 250.773438 110.582031 251.574219 110.535156 252.113281 L 110.535156 252.328125 L 110.519531 252.34375 L 110.519531 253.449219 C 110.566406 254.019531 110.605469 254.757812 111.128906 255.136719 C 111.613281 255.472656 112.257812 255.097656 112.390625 254.582031 C 112.535156 254.203125 112.566406 253.828125 112.597656 253.449219 L 112.597656 252.34375 C 112.550781 251.765625 112.472656 250.957031 111.804688 250.726562 L 111.75 250.710938 L 111.734375 250.695312 L 111.660156 250.695312 L 111.644531 250.679688 L 111.464844 250.679688 Z M 111.449219 250.695312 Z M 111.449219 250.695312 "/>
<path style=" stroke:none;fill-rule:nonzero;fill:rgb(0%,0%,0%);fill-opacity:1;" d="M 114.972656 254.925781 L 114.972656 255.558594 L 114.328125 255.558594 L 114.328125 254.925781 Z M 114.972656 254.925781 Z M 114.972656 254.925781 "/>
<path style=" stroke:none;fill-rule:nonzero;fill:rgb(0%,0%,0%);fill-opacity:1;" d="M 118.679688 250.375 L 118.679688 253.71875 L 118.695312 253.734375 L 119.480469 253.734375 L 119.480469 254.210938 L 118.695312 254.210938 L 118.679688 254.21875 L 118.679688 255.558594 L 118.074219 255.558594 L 118.074219 254.21875 L 118.058594 254.210938 L 115.964844 254.210938 L 115.964844 253.71875 C 116.628906 252.605469 117.296875 251.488281 117.964844 250.375 Z M 118.679688 250.375 Z M 118.089844 250.679688 C 117.933594 251.503906 117.425781 252.210938 117.042969 252.933594 C 116.890625 253.195312 116.695312 253.480469 116.582031 253.734375 L 118.105469 253.734375 L 118.113281 253.71875 L 118.113281 250.679688 L 118.105469 250.660156 Z M 118.089844 250.679688 Z M 118.089844 250.679688 "/>
<path style=" stroke:none;fill-rule:nonzero;fill:rgb(0%,0%,0%);fill-opacity:1;" d="M 140.445312 253.589844 L 140.445312 254.035156 L 138.363281 254.035156 L 138.363281 253.589844 Z M 140.445312 253.589844 Z M 140.445312 253.589844 "/>
<path style=" stroke:none;fill-rule:nonzero;fill:rgb(0%,0%,0%);fill-opacity:1;" d="M 143.03125 250.210938 C 143.785156 250.265625 144.285156 250.957031 144.421875 251.652344 C 144.492188 251.972656 144.507812 252.273438 144.539062 252.589844 L 144.539062 253.398438 C 144.5 254.226562 144.300781 255.3125 143.40625 255.644531 C 142.628906 255.957031 141.714844 255.472656 141.484375 254.679688 C 141.308594 254.257812 141.292969 253.828125 141.253906 253.398438 L 141.253906 252.589844 C 141.292969 251.765625 141.46875 250.667969 142.355469 250.304688 L 142.398438 250.289062 L 142.429688 250.28125 L 142.46875 250.265625 L 142.585938 250.234375 L 142.660156 250.21875 L 142.746094 250.21875 L 142.761719 250.210938 Z M 143.03125 250.210938 Z M 142.785156 250.695312 C 142.117188 250.773438 141.921875 251.574219 141.871094 252.113281 L 141.871094 252.328125 L 141.855469 252.34375 L 141.855469 253.449219 C 141.90625 254.019531 141.945312 254.757812 142.46875 255.136719 C 142.953125 255.472656 143.59375 255.097656 143.730469 254.582031 C 143.875 254.203125 143.90625 253.828125 143.9375 253.449219 L 143.9375 252.34375 C 143.890625 251.765625 143.808594 250.957031 143.144531 250.726562 L 143.085938 250.710938 L 143.070312 250.695312 L 143 250.695312 L 142.984375 250.679688 L 142.800781 250.679688 Z M 142.785156 250.695312 Z M 142.785156 250.695312 "/>
<path style=" stroke:none;fill-rule:nonzero;fill:rgb(0%,0%,0%);fill-opacity:1;" d="M 146.308594 254.925781 L 146.308594 255.558594 L 145.667969 255.558594 L 145.667969 254.925781 Z M 146.308594 254.925781 Z M 146.308594 254.925781 "/>
<path style=" stroke:none;fill-rule:nonzero;fill:rgb(0%,0%,0%);fill-opacity:1;" d="M 149.113281 250.210938 C 150.03125 250.234375 150.761719 251.179688 150.621094 252.066406 C 150.523438 252.957031 149.691406 253.464844 149.097656 254.019531 L 148.839844 254.28125 L 148.808594 254.296875 L 148.492188 254.605469 L 148.46875 254.621094 L 148.152344 254.941406 L 148.121094 254.957031 L 148.046875 255.027344 L 148.0625 255.035156 L 150.636719 255.035156 L 150.636719 255.558594 L 147.492188 255.558594 L 147.492188 255.082031 L 148.769531 253.804688 C 149.382812 253.273438 150.097656 252.582031 149.984375 251.710938 C 149.921875 251.203125 149.492188 250.734375 148.96875 250.695312 C 148.4375 250.613281 147.96875 251.035156 147.851562 251.542969 L 147.832031 251.566406 L 147.816406 251.621094 L 147.792969 251.710938 L 147.746094 251.882812 L 147.738281 251.925781 C 147.628906 251.789062 147.507812 251.644531 147.421875 251.496094 C 147.578125 250.84375 148.105469 250.234375 148.792969 250.210938 Z M 149.113281 250.210938 Z M 149.113281 250.210938 "/>
<path style=" stroke:none;fill-rule:nonzero;fill:rgb(0%,0%,0%);fill-opacity:1;" d="M 173.046875 250.210938 C 173.800781 250.265625 174.300781 250.957031 174.4375 251.652344 C 174.507812 251.972656 174.523438 252.273438 174.554688 252.589844 L 174.554688 253.398438 C 174.515625 254.226562 174.320312 255.3125 173.421875 255.644531 C 172.644531 255.957031 171.730469 255.472656 171.5 254.679688 C 171.328125 254.257812 171.308594 253.828125 171.269531 253.398438 L 171.269531 252.589844 C 171.308594 251.765625 171.484375 250.667969 172.375 250.304688 L 172.414062 250.289062 L 172.445312 250.28125 L 172.484375 250.265625 L 172.605469 250.234375 L 172.675781 250.21875 L 172.761719 250.21875 L 172.777344 250.210938 Z M 173.046875 250.210938 Z M 172.800781 250.695312 C 172.136719 250.773438 171.9375 251.574219 171.890625 252.113281 L 171.890625 252.328125 L 171.875 252.34375 L 171.875 253.449219 C 171.921875 254.019531 171.960938 254.757812 172.484375 255.136719 C 172.96875 255.472656 173.613281 255.097656 173.746094 254.582031 C 173.890625 254.203125 173.921875 253.828125 173.953125 253.449219 L 173.953125 252.34375 C 173.90625 251.765625 173.828125 250.957031 173.160156 250.726562 L 173.105469 250.710938 L 173.089844 250.695312 L 173.015625 250.695312 L 173 250.679688 L 172.820312 250.679688 Z M 172.800781 250.695312 Z M 172.800781 250.695312 "/>
<path style=" stroke:none;fill-rule:nonzero;fill:rgb(0%,0%,0%);fill-opacity:1;" d="M 176.328125 254.925781 L 176.328125 255.558594 L 175.683594 255.558594 L 175.683594 254.925781 Z M 176.328125 254.925781 Z M 176.328125 254.925781 "/>
<path style=" stroke:none;fill-rule:nonzero;fill:rgb(0%,0%,0%);fill-opacity:1;" d="M 179.214844 250.210938 C 179.96875 250.265625 180.46875 250.957031 180.605469 251.652344 C 180.675781 251.972656 180.691406 252.273438 180.722656 252.589844 L 180.722656 253.398438 C 180.683594 254.226562 180.484375 255.3125 179.589844 255.644531 C 178.8125 255.957031 177.898438 255.472656 177.667969 254.679688 C 177.492188 254.257812 177.476562 253.828125 177.4375 253.398438 L 177.4375 252.589844 C 177.476562 251.765625 177.652344 250.667969 178.539062 250.304688 L 178.582031 250.289062 L 178.613281 250.28125 L 178.652344 250.265625 L 178.769531 250.234375 L 178.84375 250.21875 L 178.929688 250.21875 L 178.945312 250.210938 Z M 179.214844 250.210938 Z M 178.96875 250.695312 C 178.304688 250.773438 178.105469 251.574219 178.058594 252.113281 L 178.058594 252.328125 L 178.039062 252.34375 L 178.039062 253.449219 C 178.089844 254.019531 178.128906 254.757812 178.652344 255.136719 C 179.136719 255.472656 179.777344 255.097656 179.914062 254.582031 C 180.058594 254.203125 180.089844 253.828125 180.121094 253.449219 L 180.121094 252.34375 C 180.074219 251.765625 179.992188 250.957031 179.328125 250.726562 L 179.269531 250.710938 L 179.253906 250.695312 L 179.183594 250.695312 L 179.167969 250.679688 L 178.984375 250.679688 Z M 178.96875 250.695312 Z M 178.96875 250.695312 "/>
<path style=" stroke:none;fill-rule:nonzero;fill:rgb(0%,0%,0%);fill-opacity:1;" d="M 204.386719 250.210938 C 205.140625 250.265625 205.640625 250.957031 205.777344 251.652344 C 205.847656 251.972656 205.863281 252.273438 205.894531 252.589844 L 205.894531 253.398438 C 205.855469 254.226562 205.65625 255.3125 204.761719 255.644531 C 203.980469 255.957031 203.070312 255.472656 202.839844 254.679688 C 202.664062 254.257812 202.648438 253.828125 202.609375 253.398438 L 202.609375 252.589844 C 202.648438 251.765625 202.824219 250.667969 203.710938 250.304688 L 203.75 250.289062 L 203.785156 250.28125 L 203.824219 250.265625 L 203.941406 250.234375 L 204.015625 250.21875 L 204.101562 250.21875 L 204.117188 250.210938 Z M 204.386719 250.210938 Z M 204.140625 250.695312 C 203.472656 250.773438 203.277344 251.574219 203.226562 252.113281 L 203.226562 252.328125 L 203.210938 252.34375 L 203.210938 253.449219 C 203.257812 254.019531 203.300781 254.757812 203.824219 255.136719 C 204.308594 255.472656 204.949219 255.097656 205.085938 254.582031 C 205.226562 254.203125 205.261719 253.828125 205.292969 253.449219 L 205.292969 252.34375 C 205.242188 251.765625 205.164062 250.957031 204.496094 250.726562 L 204.441406 250.710938 L 204.425781 250.695312 L 204.355469 250.695312 L 204.339844 250.679688 L 204.15625 250.679688 Z M 204.140625 250.695312 Z M 204.140625 250.695312 "/>
<path style=" stroke:none;fill-rule:nonzero;fill:rgb(0%,0%,0%);fill-opacity:1;" d="M 207.664062 254.925781 L 207.664062 255.558594 L 207.023438 255.558594 L 207.023438 254.925781 Z M 207.664062 254.925781 Z M 207.664062 254.925781 "/>
<path style=" stroke:none;fill-rule:nonzero;fill:rgb(0%,0%,0%);fill-opacity:1;" d="M 210.464844 250.210938 C 211.386719 250.234375 212.117188 251.179688 211.972656 252.066406 C 211.878906 252.957031 211.046875 253.464844 210.449219 254.019531 L 210.195312 254.28125 L 210.164062 254.296875 L 209.847656 254.605469 L 209.824219 254.621094 L 209.507812 254.941406 L 209.472656 254.957031 L 209.402344 255.027344 L 209.417969 255.035156 L 211.992188 255.035156 L 211.992188 255.558594 L 208.847656 255.558594 L 208.847656 255.082031 L 210.125 253.804688 C 210.738281 253.273438 211.449219 252.582031 211.339844 251.710938 C 211.277344 251.203125 210.847656 250.734375 210.324219 250.695312 C 209.792969 250.613281 209.324219 251.035156 209.203125 251.542969 L 209.1875 251.566406 L 209.171875 251.621094 L 209.148438 251.710938 L 209.101562 251.882812 L 209.09375 251.925781 C 208.980469 251.789062 208.863281 251.644531 208.777344 251.496094 C 208.933594 250.84375 209.457031 250.234375 210.148438 250.210938 Z M 210.464844 250.210938 Z M 210.464844 250.210938 "/>
<path style=" stroke:none;fill-rule:nonzero;fill:rgb(0%,0%,0%);fill-opacity:1;" d="M 235.726562 250.210938 C 236.480469 250.265625 236.980469 250.957031 237.113281 251.652344 C 237.183594 251.972656 237.203125 252.273438 237.234375 252.589844 L 237.234375 253.398438 C 237.191406 254.226562 236.996094 255.3125 236.097656 255.644531 C 235.320312 255.957031 234.40625 255.472656 234.175781 254.679688 C 234.003906 254.257812 233.988281 253.828125 233.945312 253.398438 L 233.945312 252.589844 C 233.988281 251.765625 234.160156 250.667969 235.050781 250.304688 L 235.089844 250.289062 L 235.121094 250.28125 L 235.160156 250.265625 L 235.28125 250.234375 L 235.351562 250.21875 L 235.4375 250.21875 L 235.453125 250.210938 Z M 235.726562 250.210938 Z M 235.480469 250.695312 C 234.8125 250.773438 234.613281 251.574219 234.566406 252.113281 L 234.566406 252.328125 L 234.550781 252.34375 L 234.550781 253.449219 C 234.597656 254.019531 234.636719 254.757812 235.160156 255.136719 C 235.644531 255.472656 236.289062 255.097656 236.421875 254.582031 C 236.566406 254.203125 236.597656 253.828125 236.628906 253.449219 L 236.628906 252.34375 C 236.582031 251.765625 236.503906 250.957031 235.835938 250.726562 L 235.78125 250.710938 L 235.765625 250.695312 L 235.691406 250.695312 L 235.675781 250.679688 L 235.496094 250.679688 Z M 235.480469 250.695312 Z M 235.480469 250.695312 "/>
<path style=" stroke:none;fill-rule:nonzero;fill:rgb(0%,0%,0%);fill-opacity:1;" d="M 239.003906 254.925781 L 239.003906 255.558594 L 238.359375 255.558594 L 238.359375 254.925781 Z M 239.003906 254.925781 Z M 239.003906 254.925781 "/>
<path style=" stroke:none;fill-rule:nonzero;fill:rgb(0%,0%,0%);fill-opacity:1;" d="M 242.710938 250.375 L 242.710938 253.71875 L 242.726562 253.734375 L 243.511719 253.734375 L 243.511719 254.210938 L 242.726562 254.210938 L 242.710938 254.21875 L 242.710938 255.558594 L 242.105469 255.558594 L 242.105469 254.21875 L 242.089844 254.210938 L 239.996094 254.210938 L 239.996094 253.71875 C 240.660156 252.605469 241.328125 251.488281 241.996094 250.375 Z M 242.710938 250.375 Z M 242.121094 250.679688 C 241.964844 251.503906 241.457031 252.210938 241.074219 252.933594 C 240.921875 253.195312 240.726562 253.480469 240.613281 253.734375 L 242.136719 253.734375 L 242.144531 253.71875 L 242.144531 250.679688 L 242.136719 250.660156 Z M 242.121094 250.679688 Z M 242.121094 250.679688 "/>
<path style=" stroke:none;fill-rule:nonzero;fill:rgb(0%,0%,0%);fill-opacity:1;" d="M 267.0625 250.210938 C 267.816406 250.265625 268.316406 250.957031 268.453125 251.652344 C 268.523438 251.972656 268.539062 252.273438 268.570312 252.589844 L 268.570312 253.398438 C 268.53125 254.226562 268.332031 255.3125 267.4375 255.644531 C 266.660156 255.957031 265.746094 255.472656 265.515625 254.679688 C 265.339844 254.257812 265.324219 253.828125 265.285156 253.398438 L 265.285156 252.589844 C 265.324219 251.765625 265.5 250.667969 266.386719 250.304688 L 266.429688 250.289062 L 266.460938 250.28125 L 266.5 250.265625 L 266.617188 250.234375 L 266.691406 250.21875 L 266.777344 250.21875 L 266.792969 250.210938 Z M 267.0625 250.210938 Z M 266.816406 250.695312 C 266.148438 250.773438 265.953125 251.574219 265.90625 252.113281 L 265.90625 252.328125 L 265.886719 252.34375 L 265.886719 253.449219 C 265.9375 254.019531 265.976562 254.757812 266.5 255.136719 C 266.984375 255.472656 267.625 255.097656 267.761719 254.582031 C 267.90625 254.203125 267.9375 253.828125 267.96875 253.449219 L 267.96875 252.34375 C 267.921875 251.765625 267.839844 250.957031 267.175781 250.726562 L 267.117188 250.710938 L 267.101562 250.695312 L 267.03125 250.695312 L 267.015625 250.679688 L 266.832031 250.679688 Z M 266.816406 250.695312 Z M 266.816406 250.695312 "/>
<path style=" stroke:none;fill-rule:nonzero;fill:rgb(0%,0%,0%);fill-opacity:1;" d="M 270.339844 254.925781 L 270.339844 255.558594 L 269.699219 255.558594 L 269.699219 254.925781 Z M 270.339844 254.925781 Z M 270.339844 254.925781 "/>
<path style=" stroke:none;fill-rule:nonzero;fill:rgb(0%,0%,0%);fill-opacity:1;" d="M 273.746094 250.210938 C 273.953125 250.242188 274.191406 250.265625 274.390625 250.359375 L 274.390625 250.820312 C 273.839844 250.582031 273.128906 250.550781 272.699219 251.035156 C 272.316406 251.441406 272.144531 252.042969 272.125 252.574219 C 272.585938 251.964844 273.628906 251.621094 274.191406 252.257812 C 274.753906 252.90625 274.847656 253.84375 274.59375 254.636719 C 274.316406 255.273438 273.675781 255.851562 272.960938 255.71875 C 271.992188 255.636719 271.554688 254.558594 271.507812 253.734375 C 271.324219 252.566406 271.601562 251.097656 272.714844 250.433594 L 272.730469 250.425781 L 272.898438 250.335938 L 272.945312 250.320312 L 272.96875 250.304688 L 273.101562 250.265625 L 273.214844 250.234375 L 273.285156 250.21875 L 273.375 250.21875 L 273.390625 250.210938 Z M 273.746094 250.210938 Z M 272.96875 252.417969 C 272.277344 252.535156 272.054688 253.367188 272.144531 253.933594 C 272.183594 254.464844 272.390625 255.171875 273 255.28125 C 273.652344 255.367188 274.070312 254.671875 274.085938 254.105469 C 274.117188 253.535156 274.085938 252.882812 273.585938 252.511719 L 273.476562 252.457031 L 273.390625 252.433594 L 273.316406 252.417969 L 273.300781 252.398438 L 272.984375 252.398438 Z M 272.96875 252.417969 Z M 272.96875 252.417969 "/>
<path style=" stroke:none;fill-rule:nonzero;fill:rgb(0%,0%,0%);fill-opacity:1;" d="M 298.402344 250.210938 C 299.15625 250.265625 299.65625 250.957031 299.789062 251.652344 C 299.863281 251.972656 299.878906 252.273438 299.910156 252.589844 L 299.910156 253.398438 C 299.871094 254.226562 299.671875 255.3125 298.773438 255.644531 C 297.996094 255.957031 297.082031 255.472656 296.855469 254.679688 C 296.679688 254.257812 296.664062 253.828125 296.625 253.398438 L 296.625 252.589844 C 296.664062 251.765625 296.835938 250.667969 297.726562 250.304688 L 297.765625 250.289062 L 297.796875 250.28125 L 297.835938 250.265625 L 297.957031 250.234375 L 298.027344 250.21875 L 298.117188 250.21875 L 298.132812 250.210938 Z M 298.402344 250.210938 Z M 298.15625 250.695312 C 297.488281 250.773438 297.289062 251.574219 297.242188 252.113281 L 297.242188 252.328125 L 297.226562 252.34375 L 297.226562 253.449219 C 297.273438 254.019531 297.3125 254.757812 297.835938 255.136719 C 298.320312 255.472656 298.964844 255.097656 299.101562 254.582031 C 299.242188 254.203125 299.273438 253.828125 299.304688 253.449219 L 299.304688 252.34375 C 299.257812 251.765625 299.179688 250.957031 298.511719 250.726562 L 298.457031 250.710938 L 298.441406 250.695312 L 298.371094 250.695312 L 298.355469 250.679688 L 298.171875 250.679688 Z M 298.15625 250.695312 Z M 298.15625 250.695312 "/>
<path style=" stroke:none;fill-rule:nonzero;fill:rgb(0%,0%,0%);fill-opacity:1;" d="M 301.679688 254.925781 L 301.679688 255.558594 L 301.035156 255.558594 L 301.035156 254.925781 Z M 301.679688 254.925781 Z M 301.679688 254.925781 "/>
<path style=" stroke:none;fill-rule:nonzero;fill:rgb(0%,0%,0%);fill-opacity:1;" d="M 304.585938 250.210938 C 305.425781 250.242188 306.21875 251.144531 305.886719 251.988281 C 305.742188 252.375 305.347656 252.613281 305.019531 252.78125 C 305.832031 253.019531 306.324219 253.964844 305.957031 254.742188 C 305.578125 255.75 304.132812 256.066406 303.339844 255.335938 C 302.617188 254.765625 302.59375 253.527344 303.394531 253.019531 C 303.511719 252.890625 303.734375 252.851562 303.839844 252.757812 C 303.148438 252.558594 302.679688 251.757812 303.003906 251.082031 C 303.265625 250.480469 303.941406 250.144531 304.585938 250.210938 Z M 304.585938 250.210938 Z M 304.28125 250.660156 C 303.695312 250.679688 303.28125 251.34375 303.480469 251.867188 C 303.710938 252.773438 305.226562 252.742188 305.402344 251.8125 C 305.558594 251.296875 305.148438 250.679688 304.585938 250.660156 L 304.570312 250.652344 L 304.296875 250.652344 Z M 304.28125 250.660156 Z M 304.296875 253.019531 C 303.609375 253.066406 303.265625 253.890625 303.449219 254.480469 C 303.566406 255.3125 304.757812 255.558594 305.226562 254.890625 C 305.679688 254.28125 305.457031 253.1875 304.640625 253.019531 L 304.570312 253.019531 L 304.550781 253.003906 L 304.304688 253.003906 Z M 304.296875 253.019531 Z M 304.296875 253.019531 "/>
<path style=" stroke:none;fill-rule:nonzero;fill:rgb(0%,0%,0%);fill-opacity:1;" d="M 329.984375 250.210938 L 329.984375 255.105469 L 329.992188 255.121094 L 330.96875 255.121094 L 330.96875 255.558594 L 328.390625 255.558594 L 328.390625 255.121094 L 329.367188 255.121094 L 329.382812 255.105469 L 329.382812 250.996094 C 329.050781 251.105469 328.699219 251.179688 328.351562 251.171875 L 328.351562 250.726562 C 328.875 250.734375 329.445312 250.589844 329.84375 250.210938 Z M 329.984375 250.210938 Z M 329.984375 250.210938 "/>
<path style=" stroke:none;fill-rule:nonzero;fill:rgb(0%,0%,0%);fill-opacity:1;" d="M 333.015625 254.925781 L 333.015625 255.558594 L 332.375 255.558594 L 332.375 254.925781 Z M 333.015625 254.925781 Z M 333.015625 254.925781 "/>
<path style=" stroke:none;fill-rule:nonzero;fill:rgb(0%,0%,0%);fill-opacity:1;" d="M 335.90625 250.210938 C 336.660156 250.265625 337.160156 250.957031 337.296875 251.652344 C 337.367188 251.972656 337.382812 252.273438 337.414062 252.589844 L 337.414062 253.398438 C 337.375 254.226562 337.175781 255.3125 336.28125 255.644531 C 335.5 255.957031 334.589844 255.472656 334.359375 254.679688 C 334.183594 254.257812 334.167969 253.828125 334.128906 253.398438 L 334.128906 252.589844 C 334.167969 251.765625 334.34375 250.667969 335.230469 250.304688 L 335.273438 250.289062 L 335.304688 250.28125 L 335.34375 250.265625 L 335.460938 250.234375 L 335.535156 250.21875 L 335.621094 250.21875 L 335.636719 250.210938 Z M 335.90625 250.210938 Z M 335.660156 250.695312 C 334.992188 250.773438 334.796875 251.574219 334.746094 252.113281 L 334.746094 252.328125 L 334.730469 252.34375 L 334.730469 253.449219 C 334.78125 254.019531 334.820312 254.757812 335.34375 255.136719 C 335.828125 255.472656 336.46875 255.097656 336.605469 254.582031 C 336.746094 254.203125 336.78125 253.828125 336.8125 253.449219 L 336.8125 252.34375 C 336.765625 251.765625 336.683594 250.957031 336.019531 250.726562 L 335.960938 250.710938 L 335.945312 250.695312 L 335.875 250.695312 L 335.859375 250.679688 L 335.675781 250.679688 Z M 335.660156 250.695312 Z M 335.660156 250.695312 "/>
<path style="fill:none;stroke-width:0.02;stroke-linecap:butt;stroke-linejoin:miter;stroke:rgb(0%,0%,0%);stroke-opacity:1;stroke-miterlimit:10;" d="M 1.751349 8.788333 L 1.751349 8.683327 " transform="matrix(28.346457,0,0,-28.346457,1,256.11811)"/>
<path style="fill:none;stroke-width:0.02;stroke-linecap:butt;stroke-linejoin:miter;stroke:rgb(0%,0%,0%);stroke-opacity:1;stroke-miterlimit:10;" d="M 2.856949 8.788333 L 2.856949 8.683327 " transform="matrix(28.346457,0,0,-28.346457,1,256.11811)"/>
<path style="fill:none;stroke-width:0.02;stroke-linecap:butt;stroke-linejoin:miter;stroke:rgb(0%,0%,0%);stroke-opacity:1;stroke-miterlimit:10;" d="M 3.962411 8.788333 L 3.962411 8.683327 " transform="matrix(28.346457,0,0,-28.346457,1,256.11811)"/>
<path style="fill:none;stroke-width:0.02;stroke-linecap:butt;stroke-linejoin:miter;stroke:rgb(0%,0%,0%);stroke-opacity:1;stroke-miterlimit:10;" d="M 5.068011 8.788333 L 5.068011 8.683327 " transform="matrix(28.346457,0,0,-28.346457,1,256.11811)"/>
<path style="fill:none;stroke-width:0.02;stroke-linecap:butt;stroke-linejoin:miter;stroke:rgb(0%,0%,0%);stroke-opacity:1;stroke-miterlimit:10;" d="M 6.173473 8.788333 L 6.173473 8.683327 " transform="matrix(28.346457,0,0,-28.346457,1,256.11811)"/>
<path style="fill:none;stroke-width:0.02;stroke-linecap:butt;stroke-linejoin:miter;stroke:rgb(0%,0%,0%);stroke-opacity:1;stroke-miterlimit:10;" d="M 7.279073 8.788333 L 7.279073 8.683327 " transform="matrix(28.346457,0,0,-28.346457,1,256.11811)"/>
<path style="fill:none;stroke-width:0.02;stroke-linecap:butt;stroke-linejoin:miter;stroke:rgb(0%,0%,0%);stroke-opacity:1;stroke-miterlimit:10;" d="M 8.384536 8.788333 L 8.384536 8.683327 " transform="matrix(28.346457,0,0,-28.346457,1,256.11811)"/>
<path style="fill:none;stroke-width:0.02;stroke-linecap:butt;stroke-linejoin:miter;stroke:rgb(0%,0%,0%);stroke-opacity:1;stroke-miterlimit:10;" d="M 9.490136 8.788333 L 9.490136 8.683327 " transform="matrix(28.346457,0,0,-28.346457,1,256.11811)"/>
<path style="fill:none;stroke-width:0.02;stroke-linecap:butt;stroke-linejoin:miter;stroke:rgb(0%,0%,0%);stroke-opacity:1;stroke-miterlimit:10;" d="M 10.595736 8.788333 L 10.595736 8.683327 " transform="matrix(28.346457,0,0,-28.346457,1,256.11811)"/>
<path style="fill:none;stroke-width:0.02;stroke-linecap:round;stroke-linejoin:miter;stroke:rgb(0%,0%,0%);stroke-opacity:1;stroke-miterlimit:10;" d="M 0.645749 8.788333 L 11.701198 8.788333 " transform="matrix(28.346457,0,0,-28.346457,1,256.11811)"/>
<path style="fill:none;stroke-width:0.05;stroke-linecap:butt;stroke-linejoin:miter;stroke:rgb(33%,47%,64%);stroke-opacity:1;stroke-miterlimit:10;" d="M 0.645749 1.780044 L 0.682956 1.798097 L 0.720301 1.816287 L 0.757508 1.834477 L 0.794715 1.852805 L 0.831922 1.871408 L 0.869129 1.889874 L 0.906336 1.907513 L 0.943543 1.924049 L 0.98075 1.940173 L 1.018095 1.954918 L 1.055302 1.967595 L 1.092509 1.979171 L 1.129716 1.988817 L 1.166923 1.995983 L 1.20413 2.00122 L 1.241337 2.004113 L 1.278544 2.004113 L 1.315889 2.001633 L 1.353096 1.996672 L 1.390303 1.988679 L 1.42751 1.977931 L 1.464717 1.964426 L 1.501924 1.948441 L 1.539131 1.929424 L 1.576338 1.908202 L 1.613683 1.884775 L 1.65089 1.85873 L 1.688097 1.830894 L 1.725304 1.801817 L 1.762511 1.770674 L 1.799718 1.738152 L 1.836925 1.705493 L 1.874132 1.672971 L 1.911339 1.640311 L 1.948684 1.607652 L 1.985891 1.574992 L 2.023098 1.543849 L 2.060305 1.515186 L 2.097512 1.487625 L 2.134719 1.462407 L 2.171926 1.440771 L 2.209133 1.421479 L 2.246478 1.405769 L 2.283685 1.394332 L 2.320892 1.386615 L 2.358099 1.383169 L 2.395306 1.384548 L 2.432513 1.390473 L 2.46972 1.401084 L 2.506927 1.416656 L 2.544272 1.437326 L 2.581479 1.462544 L 2.618686 1.49231 L 2.655893 1.527174 L 2.6931 1.566173 L 2.730307 1.608617 L 2.767514 1.655608 L 2.804721 1.705768 L 2.841928 1.757858 L 2.879273 1.813393 L 2.91648 1.871133 L 2.953687 1.92901 L 2.990894 1.98675 L 3.028101 2.044352 L 3.065308 2.101816 L 3.102515 2.159143 L 3.139722 2.213575 L 3.177067 2.263874 L 3.214274 2.311692 L 3.251481 2.355375 L 3.288688 2.39272 L 3.325895 2.425518 L 3.363102 2.452252 L 3.400309 2.471131 L 3.437516 2.483395 L 3.474861 2.488218 L 3.512068 2.484084 L 3.549275 2.471957 L 3.586482 2.451425 L 3.623689 2.421935 L 3.660896 2.38335 L 3.698103 2.336496 L 3.73531 2.281375 L 3.772517 2.21702 L 3.809862 2.145087 L 3.847069 2.066814 L 3.884276 1.979998 L 3.921483 1.887394 L 3.95869 1.791069 L 3.995897 1.687854 L 4.033104 1.580091 L 4.070311 1.472053 L 4.107656 1.363877 L 4.144863 1.25515 L 4.18207 1.146147 L 4.219277 1.03742 L 4.256484 0.933516 L 4.293691 0.836364 L 4.330898 0.742795 L 4.368105 0.656943 L 4.40545 0.582391 L 4.442657 0.515694 L 4.479864 0.46016 L 4.517071 0.419645 L 4.554278 0.390844 L 4.586525 0.378442 " transform="matrix(28.346457,0,0,-28.346457,1,256.11811)"/>
<path style="fill:none;stroke-width:0.05;stroke-linecap:butt;stroke-linejoin:miter;stroke:rgb(33%,47%,64%);stroke-opacity:1;stroke-miterlimit:10;" d="M 4.612156 0.378442 L 4.628692 0.379958 L 4.6659 0.398699 L 4.703244 0.434252 L 4.740451 0.489374 L 4.777658 0.56241 L 4.814865 0.653774 L 4.852072 0.764844 L 4.88928 0.895344 L 4.926487 1.044586 L 4.963694 1.212155 L 5.000901 1.399568 L 5.038245 1.604207 L 5.075452 1.824693 L 5.11266 2.063645 L 5.149867 2.317479 L 5.187074 2.58289 L 5.224281 2.864285 L 5.261488 3.156567 L 5.298695 3.455326 L 5.336039 3.765935 L 5.373247 4.084676 L 5.410454 4.403967 L 5.447661 4.72381 L 5.484868 5.044341 L 5.522075 5.365424 L 5.559282 5.685956 L 5.596489 5.999046 L 5.633834 6.30125 L 5.671041 6.597804 L 5.708248 6.882644 L 5.745455 7.150122 L 5.782662 7.40561 L 5.819869 7.644286 L 5.857076 7.860914 L 5.894283 8.059902 L 5.93149 8.237807 L 5.968835 8.390218 L 6.006042 8.520443 L 6.043249 8.626414 L 6.080456 8.7051 L 6.117663 8.758154 L 6.15487 8.785439 L 6.192077 8.785439 L 6.229284 8.758154 L 6.266629 8.7051 L 6.303836 8.626414 L 6.341043 8.520443 L 6.37825 8.390218 L 6.415457 8.237807 L 6.452664 8.059902 L 6.489871 7.860914 L 6.527078 7.644286 L 6.564423 7.40561 L 6.60163 7.150122 L 6.638837 6.882644 L 6.676044 6.597804 L 6.713251 6.30125 L 6.750458 5.999046 L 6.787665 5.685956 L 6.824872 5.365424 L 6.862079 5.044341 L 6.899424 4.72381 L 6.936631 4.403967 L 6.973838 4.084676 L 7.011045 3.765935 L 7.048252 3.455326 L 7.085459 3.156567 L 7.122666 2.864285 L 7.159873 2.58289 L 7.197218 2.317479 L 7.234425 2.063645 L 7.271632 1.824693 L 7.308839 1.604207 L 7.346046 1.399568 L 7.383253 1.212155 L 7.42046 1.044586 L 7.457667 0.895344 L 7.495012 0.764844 L 7.532219 0.653774 L 7.569426 0.56241 L 7.606633 0.489374 L 7.64384 0.434252 L 7.681047 0.398699 L 7.718254 0.379958 L 7.734791 0.378442 " transform="matrix(28.346457,0,0,-28.346457,1,256.11811)"/>
<path style="fill:none;stroke-width:0.05;stroke-linecap:butt;stroke-linejoin:miter;stroke:rgb(33%,47%,64%);stroke-opacity:1;stroke-miterlimit:10;" d="M 7.76056 0.378442 L 7.792806 0.390844 L 7.830013 0.419645 L 7.86722 0.46016 L 7.904427 0.515694 L 7.941634 0.582391 L 7.978841 0.656943 L 8.016048 0.742795 L 8.053255 0.836364 L 8.090462 0.933516 L 8.127807 1.03742 L 8.165014 1.146147 L 8.202221 1.25515 L 8.239428 1.363877 L 8.276635 1.472053 L 8.313842 1.580091 L 8.351049 1.687854 L 8.388256 1.791069 L 8.425601 1.887394 L 8.462808 1.979998 L 8.500015 2.066814 L 8.537222 2.145087 L 8.574429 2.21702 L 8.611636 2.281375 L 8.648843 2.336496 L 8.68605 2.38335 L 8.723395 2.421935 L 8.760602 2.451425 L 8.797809 2.471957 L 8.835016 2.484084 L 8.872223 2.488218 L 8.90943 2.483395 L 8.946637 2.471131 L 8.983844 2.452252 L 9.021051 2.425518 L 9.058396 2.39272 L 9.095603 2.355375 L 9.13281 2.311692 L 9.170017 2.263874 L 9.207224 2.213575 L 9.244431 2.159143 L 9.281638 2.101816 L 9.318845 2.044352 L 9.35619 1.98675 L 9.393397 1.92901 L 9.430604 1.871133 L 9.467811 1.813393 L 9.505018 1.757858 L 9.542225 1.705768 L 9.579433 1.655608 L 9.61664 1.608617 L 9.653984 1.566173 L 9.691191 1.527174 L 9.728398 1.49231 L 9.765605 1.462544 L 9.802812 1.437326 L 9.84002 1.416656 L 9.877227 1.401084 L 9.914434 1.390473 L 9.951641 1.384548 L 9.988985 1.383169 L 10.026192 1.386615 L 10.0634 1.394332 L 10.100607 1.405769 L 10.137814 1.421479 L 10.175021 1.440771 L 10.212228 1.462407 L 10.249435 1.487625 L 10.28678 1.515186 L 10.323987 1.543849 L 10.361194 1.574992 L 10.472815 1.672971 L 10.510022 1.705493 L 10.547229 1.738152 L 10.584574 1.770674 L 10.621781 1.801817 L 10.658988 1.830894 L 10.696195 1.85873 L 10.733402 1.884775 L 10.770609 1.908202 L 10.807816 1.929424 L 10.845023 1.948441 L 10.882368 1.964426 L 10.919575 1.977931 L 10.956782 1.988679 L 10.993989 1.996672 L 11.031196 2.001633 L 11.068403 2.004113 L 11.10561 2.004113 L 11.142817 2.00122 L 11.180024 1.995983 L 11.217369 1.988817 L 11.254576 1.979171 L 11.291783 1.967595 L 11.32899 1.954918 L 11.366197 1.940173 L 11.403404 1.924049 L 11.440611 1.907513 L 11.477818 1.889874 L 11.515163 1.871408 L 11.55237 1.852805 L 11.589577 1.834477 L 11.663991 1.798097 L 11.701198 1.780044 " transform="matrix(28.346457,0,0,-28.346457,1,256.11811)"/>
</g>
</svg>
