<?xml version="1.0" encoding="UTF-8"?>
<svg xmlns="http://www.w3.org/2000/svg" xmlns:xlink="http://www.w3.org/1999/xlink" width="342.15748pt" height="257.11811pt" viewBox="0 0 342.15748 257.11811" version="1.1">
<g id="surface1">
<path style=" stroke:none;fill-rule:nonzero;fill:rgb(100%,100%,100%);fill-opacity:1;" d="M -0.417969 257.535156 L 342.574219 257.535156 L 342.574219 -0.417969 L -0.417969 -0.417969 Z M -0.417969 257.535156 "/>
<path style="fill:none;stroke-width:0.02;stroke-linecap:butt;stroke-linejoin:miter;stroke:rgb(0%,0%,0%);stroke-opacity:1;stroke-miterlimit:10;" d="M 0.645749 1.780044 L 0.750755 1.780044 " transform="matrix(28.346457,0,0,-28.346457,1,256.11811)"/>
<path style="fill:none;stroke-width:0.02;stroke-linecap:butt;stroke-linejoin:miter;stroke:rgb(0%,0%,0%);stroke-opacity:1;stroke-miterlimit:10;" d="M 0.645749 3.181647 L 0.750755 3.181647 " transform="matrix(28.346457,0,0,-28.346457,1,256.11811)"/>
<path style="fill:none;stroke-width:0.02;stroke-linecap:butt;stroke-linejoin:miter;stroke:rgb(0%,0%,0%);stroke-opacity:1;stroke-miterlimit:10;" d="M 0.645749 4.583388 L 0.750755 4.583388 " transform="matrix(28.346457,0,0,-28.346457,1,256.11811)"/>
<path style="fill:none;stroke-width:0.02;stroke-linecap:butt;stroke-linejoin:miter;stroke:rgb(0%,0%,0%);stroke-opacity:1;stroke-miterlimit:10;" d="M 0.645749 5.98499 L 0.750755 5.98499 " transform="matrix(28.346457,0,0,-28.346457,1,256.11811)"/>
<path style="fill:none;stroke-width:0.02;stroke-linecap:butt;stroke-linejoin:miter;stroke:rgb(0%,0%,0%);stroke-opacity:1;stroke-miterlimit:10;" d="M 0.645749 7.386593 L 0.750755 7.386593 " transform="matrix(28.346457,0,0,-28.346457,1,256.11811)"/>
<path style="fill:none;stroke-width:0.02;stroke-linecap:round;stroke-linejoin:miter;stroke:rgb(0%,0%,0%);stroke-opacity:1;stroke-miterlimit:10;" d="M 0.645749 0.378442 L 0.645749 8.788333 " transform="matrix(28.346457,0,0,-28.346457,1,256.11811)"/>
<path style=" stroke:none;fill-rule:nonzero;fill:rgb(0%,0%,0%);fill-opacity:1;" d="M 3.742188 246.03125 L 3.742188 246.476562 L 1.664062 246.476562 L 1.664062 246.03125 Z M 3.742188 246.03125 Z M 3.742188 246.03125 "/>
<path style=" stroke:none;fill-rule:nonzero;fill:rgb(0%,0%,0%);fill-opacity:1;" d="M 6.574219 242.648438 L 6.574219 247.546875 L 6.582031 247.5625 L 7.558594 247.5625 L 7.558594 248 L 4.980469 248 L 4.980469 247.5625 L 5.957031 247.5625 L 5.972656 247.546875 L 5.972656 243.433594 C 5.636719 243.546875 5.289062 243.617188 4.941406 243.609375 L 4.941406 243.164062 C 5.464844 243.171875 6.035156 243.03125 6.433594 242.648438 Z M 6.574219 242.648438 Z M 6.574219 242.648438 "/>
<path style=" stroke:none;fill-rule:nonzero;fill:rgb(0%,0%,0%);fill-opacity:1;" d="M 9.605469 247.363281 L 9.605469 248 L 8.964844 248 L 8.964844 247.363281 Z M 9.605469 247.363281 Z M 9.605469 247.363281 "/>
<path style=" stroke:none;fill-rule:nonzero;fill:rgb(0%,0%,0%);fill-opacity:1;" d="M 12.496094 242.648438 C 13.25 242.707031 13.75 243.394531 13.886719 244.09375 C 13.957031 244.410156 13.972656 244.714844 14.003906 245.03125 L 14.003906 245.839844 C 13.964844 246.664062 13.765625 247.753906 12.871094 248.085938 C 12.089844 248.394531 11.179688 247.910156 10.949219 247.117188 C 10.773438 246.699219 10.757812 246.269531 10.71875 245.839844 L 10.71875 245.03125 C 10.757812 244.207031 10.933594 243.109375 11.820312 242.746094 L 11.859375 242.730469 L 11.894531 242.722656 L 11.933594 242.707031 L 12.050781 242.671875 L 12.125 242.65625 L 12.210938 242.65625 L 12.226562 242.648438 Z M 12.496094 242.648438 Z M 12.25 243.132812 C 11.582031 243.214844 11.386719 244.015625 11.335938 244.554688 L 11.335938 244.769531 L 11.320312 244.785156 L 11.320312 245.886719 C 11.367188 246.460938 11.410156 247.199219 11.933594 247.578125 C 12.417969 247.910156 13.058594 247.539062 13.195312 247.023438 C 13.335938 246.640625 13.371094 246.269531 13.402344 245.886719 L 13.402344 244.785156 C 13.351562 244.207031 13.273438 243.394531 12.605469 243.164062 L 12.550781 243.148438 L 12.535156 243.132812 L 12.464844 243.132812 L 12.449219 243.117188 L 12.265625 243.117188 Z M 12.25 243.132812 Z M 12.25 243.132812 "/>
<path style=" stroke:none;fill-rule:nonzero;fill:rgb(0%,0%,0%);fill-opacity:1;" d="M 3.742188 206.300781 L 3.742188 206.742188 L 1.664062 206.742188 L 1.664062 206.300781 Z M 3.742188 206.300781 Z M 3.742188 206.300781 "/>
<path style=" stroke:none;fill-rule:nonzero;fill:rgb(0%,0%,0%);fill-opacity:1;" d="M 6.328125 202.917969 C 7.082031 202.972656 7.582031 203.664062 7.71875 204.363281 C 7.789062 204.679688 7.804688 204.980469 7.835938 205.300781 L 7.835938 206.109375 C 7.796875 206.933594 7.597656 208.019531 6.703125 208.355469 C 5.925781 208.664062 5.011719 208.179688 4.78125 207.386719 C 4.605469 206.964844 4.589844 206.535156 4.550781 206.109375 L 4.550781 205.300781 C 4.589844 204.472656 4.765625 203.378906 5.65625 203.011719 L 5.695312 202.996094 L 5.726562 202.988281 L 5.765625 202.972656 L 5.882812 202.941406 L 5.957031 202.925781 L 6.042969 202.925781 L 6.058594 202.917969 Z M 6.328125 202.917969 Z M 6.082031 203.402344 C 5.417969 203.480469 5.21875 204.28125 5.171875 204.824219 L 5.171875 205.035156 L 5.15625 205.054688 L 5.15625 206.15625 C 5.203125 206.726562 5.242188 207.464844 5.765625 207.847656 C 6.25 208.179688 6.894531 207.808594 7.027344 207.292969 C 7.171875 206.910156 7.203125 206.535156 7.234375 206.15625 L 7.234375 205.054688 C 7.1875 204.472656 7.105469 203.664062 6.441406 203.433594 L 6.382812 203.417969 L 6.367188 203.402344 L 6.296875 203.402344 L 6.28125 203.386719 L 6.097656 203.386719 Z M 6.082031 203.402344 Z M 6.082031 203.402344 "/>
<path style=" stroke:none;fill-rule:nonzero;fill:rgb(0%,0%,0%);fill-opacity:1;" d="M 9.605469 207.632812 L 9.605469 208.265625 L 8.964844 208.265625 L 8.964844 207.632812 Z M 9.605469 207.632812 Z M 9.605469 207.632812 "/>
<path style=" stroke:none;fill-rule:nonzero;fill:rgb(0%,0%,0%);fill-opacity:1;" d="M 13.671875 203.085938 L 13.671875 203.578125 L 11.605469 203.578125 L 11.589844 203.585938 L 11.589844 205.210938 C 11.78125 205.085938 12.050781 204.917969 12.304688 204.910156 C 13.203125 204.816406 13.894531 205.695312 13.933594 206.511719 C 14.058594 207.554688 13.082031 208.585938 12.035156 208.425781 C 11.511719 208.410156 11.003906 208.101562 10.703125 207.671875 C 10.789062 207.554688 10.859375 207.347656 10.964844 207.273438 C 11.335938 208.003906 12.542969 208.300781 13.027344 207.527344 C 13.335938 206.949219 13.328125 206.210938 12.972656 205.65625 C 12.558594 205.125 11.742188 205.449219 11.550781 206.011719 L 11.035156 206.011719 L 11.035156 203.085938 Z M 13.671875 203.085938 Z M 13.671875 203.085938 "/>
<path style=" stroke:none;fill-rule:nonzero;fill:rgb(0%,0%,0%);fill-opacity:1;" d="M 6.328125 163.1875 C 7.082031 163.242188 7.582031 163.933594 7.71875 164.628906 C 7.789062 164.949219 7.804688 165.25 7.835938 165.566406 L 7.835938 166.375 C 7.796875 167.203125 7.597656 168.289062 6.703125 168.621094 C 5.925781 168.933594 5.011719 168.449219 4.78125 167.65625 C 4.605469 167.234375 4.589844 166.804688 4.550781 166.375 L 4.550781 165.566406 C 4.589844 164.742188 4.765625 163.644531 5.65625 163.28125 L 5.695312 163.265625 L 5.726562 163.257812 L 5.765625 163.242188 L 5.882812 163.210938 L 5.957031 163.195312 L 6.042969 163.195312 L 6.058594 163.1875 Z M 6.328125 163.1875 Z M 6.082031 163.671875 C 5.417969 163.75 5.21875 164.550781 5.171875 165.089844 L 5.171875 165.304688 L 5.15625 165.320312 L 5.15625 166.425781 C 5.203125 166.996094 5.242188 167.734375 5.765625 168.113281 C 6.25 168.449219 6.894531 168.074219 7.027344 167.558594 C 7.171875 167.179688 7.203125 166.804688 7.234375 166.425781 L 7.234375 165.320312 C 7.1875 164.742188 7.105469 163.933594 6.441406 163.703125 L 6.382812 163.6875 L 6.367188 163.671875 L 6.296875 163.671875 L 6.28125 163.652344 L 6.097656 163.652344 Z M 6.082031 163.671875 Z M 6.082031 163.671875 "/>
<path style=" stroke:none;fill-rule:nonzero;fill:rgb(0%,0%,0%);fill-opacity:1;" d="M 9.605469 167.902344 L 9.605469 168.535156 L 8.964844 168.535156 L 8.964844 167.902344 Z M 9.605469 167.902344 Z M 9.605469 167.902344 "/>
<path style=" stroke:none;fill-rule:nonzero;fill:rgb(0%,0%,0%);fill-opacity:1;" d="M 12.496094 163.1875 C 13.25 163.242188 13.75 163.933594 13.886719 164.628906 C 13.957031 164.949219 13.972656 165.25 14.003906 165.566406 L 14.003906 166.375 C 13.964844 167.203125 13.765625 168.289062 12.871094 168.621094 C 12.089844 168.933594 11.179688 168.449219 10.949219 167.65625 C 10.773438 167.234375 10.757812 166.804688 10.71875 166.375 L 10.71875 165.566406 C 10.757812 164.742188 10.933594 163.644531 11.820312 163.28125 L 11.859375 163.265625 L 11.894531 163.257812 L 11.933594 163.242188 L 12.050781 163.210938 L 12.125 163.195312 L 12.210938 163.195312 L 12.226562 163.1875 Z M 12.496094 163.1875 Z M 12.25 163.671875 C 11.582031 163.75 11.386719 164.550781 11.335938 165.089844 L 11.335938 165.304688 L 11.320312 165.320312 L 11.320312 166.425781 C 11.367188 166.996094 11.410156 167.734375 11.933594 168.113281 C 12.417969 168.449219 13.058594 168.074219 13.195312 167.558594 C 13.335938 167.179688 13.371094 166.804688 13.402344 166.425781 L 13.402344 165.320312 C 13.351562 164.742188 13.273438 163.933594 12.605469 163.703125 L 12.550781 163.6875 L 12.535156 163.671875 L 12.464844 163.671875 L 12.449219 163.652344 L 12.265625 163.652344 Z M 12.25 163.671875 Z M 12.25 163.671875 "/>
<path style=" stroke:none;fill-rule:nonzero;fill:rgb(0%,0%,0%);fill-opacity:1;" d="M 6.328125 123.453125 C 7.082031 123.507812 7.582031 124.199219 7.71875 124.898438 C 7.789062 125.214844 7.804688 125.519531 7.835938 125.835938 L 7.835938 126.644531 C 7.796875 127.46875 7.597656 128.558594 6.703125 128.890625 C 5.925781 129.199219 5.011719 128.714844 4.78125 127.921875 C 4.605469 127.503906 4.589844 127.074219 4.550781 126.644531 L 4.550781 125.835938 C 4.589844 125.011719 4.765625 123.914062 5.65625 123.550781 L 5.695312 123.535156 L 5.726562 123.527344 L 5.765625 123.507812 L 5.882812 123.476562 L 5.957031 123.460938 L 6.042969 123.460938 L 6.058594 123.453125 Z M 6.328125 123.453125 Z M 6.082031 123.9375 C 5.417969 124.019531 5.21875 124.820312 5.171875 125.359375 L 5.171875 125.574219 L 5.15625 125.589844 L 5.15625 126.691406 C 5.203125 127.265625 5.242188 128.003906 5.765625 128.382812 C 6.25 128.714844 6.894531 128.34375 7.027344 127.828125 C 7.171875 127.445312 7.203125 127.074219 7.234375 126.691406 L 7.234375 125.589844 C 7.1875 125.011719 7.105469 124.199219 6.441406 123.96875 L 6.382812 123.953125 L 6.367188 123.9375 L 6.296875 123.9375 L 6.28125 123.921875 L 6.097656 123.921875 Z M 6.082031 123.9375 Z M 6.082031 123.9375 "/>
<path style=" stroke:none;fill-rule:nonzero;fill:rgb(0%,0%,0%);fill-opacity:1;" d="M 9.605469 128.167969 L 9.605469 128.804688 L 8.964844 128.804688 L 8.964844 128.167969 Z M 9.605469 128.167969 Z M 9.605469 128.167969 "/>
<path style=" stroke:none;fill-rule:nonzero;fill:rgb(0%,0%,0%);fill-opacity:1;" d="M 13.671875 123.621094 L 13.671875 124.113281 L 11.605469 124.113281 L 11.589844 124.121094 L 11.589844 125.746094 C 11.78125 125.621094 12.050781 125.453125 12.304688 125.445312 C 13.203125 125.351562 13.894531 126.230469 13.933594 127.050781 C 14.058594 128.089844 13.082031 129.121094 12.035156 128.960938 C 11.511719 128.945312 11.003906 128.636719 10.703125 128.207031 C 10.789062 128.089844 10.859375 127.882812 10.964844 127.8125 C 11.335938 128.542969 12.542969 128.835938 13.027344 128.066406 C 13.335938 127.484375 13.328125 126.746094 12.972656 126.191406 C 12.558594 125.660156 11.742188 125.984375 11.550781 126.550781 L 11.035156 126.550781 L 11.035156 123.621094 Z M 13.671875 123.621094 Z M 13.671875 123.621094 "/>
<path style=" stroke:none;fill-rule:nonzero;fill:rgb(0%,0%,0%);fill-opacity:1;" d="M 6.574219 83.722656 L 6.574219 88.621094 L 6.582031 88.636719 L 7.558594 88.636719 L 7.558594 89.070312 L 4.980469 89.070312 L 4.980469 88.636719 L 5.957031 88.636719 L 5.972656 88.621094 L 5.972656 84.507812 C 5.636719 84.621094 5.289062 84.691406 4.941406 84.683594 L 4.941406 84.238281 C 5.464844 84.246094 6.035156 84.101562 6.433594 83.722656 Z M 6.574219 83.722656 Z M 6.574219 83.722656 "/>
<path style=" stroke:none;fill-rule:nonzero;fill:rgb(0%,0%,0%);fill-opacity:1;" d="M 9.605469 88.4375 L 9.605469 89.070312 L 8.964844 89.070312 L 8.964844 88.4375 Z M 9.605469 88.4375 Z M 9.605469 88.4375 "/>
<path style=" stroke:none;fill-rule:nonzero;fill:rgb(0%,0%,0%);fill-opacity:1;" d="M 12.496094 83.722656 C 13.25 83.777344 13.75 84.46875 13.886719 85.167969 C 13.957031 85.484375 13.972656 85.785156 14.003906 86.101562 L 14.003906 86.914062 C 13.964844 87.738281 13.765625 88.824219 12.871094 89.160156 C 12.089844 89.46875 11.179688 88.984375 10.949219 88.191406 C 10.773438 87.769531 10.757812 87.339844 10.71875 86.914062 L 10.71875 86.101562 C 10.757812 85.277344 10.933594 84.183594 11.820312 83.816406 L 11.859375 83.800781 L 11.894531 83.792969 L 11.933594 83.777344 L 12.050781 83.746094 L 12.125 83.730469 L 12.210938 83.730469 L 12.226562 83.722656 Z M 12.496094 83.722656 Z M 12.25 84.207031 C 11.582031 84.285156 11.386719 85.085938 11.335938 85.628906 L 11.335938 85.839844 L 11.320312 85.855469 L 11.320312 86.960938 C 11.367188 87.53125 11.410156 88.269531 11.933594 88.652344 C 12.417969 88.984375 13.058594 88.613281 13.195312 88.09375 C 13.335938 87.714844 13.371094 87.339844 13.402344 86.960938 L 13.402344 85.855469 C 13.351562 85.277344 13.273438 84.46875 12.605469 84.238281 L 12.550781 84.222656 L 12.535156 84.207031 L 12.464844 84.207031 L 12.449219 84.191406 L 12.265625 84.191406 Z M 12.25 84.207031 Z M 12.25 84.207031 "/>
<path style=" stroke:none;fill-rule:nonzero;fill:rgb(0%,0%,0%);fill-opacity:1;" d="M 6.574219 43.992188 L 6.574219 48.886719 L 6.582031 48.902344 L 7.558594 48.902344 L 7.558594 49.339844 L 4.980469 49.339844 L 4.980469 48.902344 L 5.957031 48.902344 L 5.972656 48.886719 L 5.972656 44.777344 C 5.636719 44.886719 5.289062 44.957031 4.941406 44.949219 L 4.941406 44.507812 C 5.464844 44.515625 6.035156 44.371094 6.433594 43.992188 Z M 6.574219 43.992188 Z M 6.574219 43.992188 "/>
<path style=" stroke:none;fill-rule:nonzero;fill:rgb(0%,0%,0%);fill-opacity:1;" d="M 9.605469 48.707031 L 9.605469 49.339844 L 8.964844 49.339844 L 8.964844 48.707031 Z M 9.605469 48.707031 Z M 9.605469 48.707031 "/>
<path style=" stroke:none;fill-rule:nonzero;fill:rgb(0%,0%,0%);fill-opacity:1;" d="M 13.671875 44.15625 L 13.671875 44.648438 L 11.605469 44.648438 L 11.589844 44.65625 L 11.589844 46.285156 C 11.78125 46.15625 12.050781 45.992188 12.304688 45.984375 C 13.203125 45.886719 13.894531 46.769531 13.933594 47.585938 C 14.058594 48.625 13.082031 49.65625 12.035156 49.5 C 11.511719 49.484375 11.003906 49.171875 10.703125 48.746094 C 10.789062 48.625 10.859375 48.417969 10.964844 48.347656 C 11.335938 49.078125 12.542969 49.371094 13.027344 48.601562 C 13.335938 48.023438 13.328125 47.285156 12.972656 46.730469 C 12.558594 46.195312 11.742188 46.523438 11.550781 47.085938 L 11.035156 47.085938 L 11.035156 44.15625 Z M 13.671875 44.15625 Z M 13.671875 44.15625 "/>
<path style=" stroke:none;fill-rule:nonzero;fill:rgb(0%,0%,0%);fill-opacity:1;" d="M 6.242188 4.257812 C 7.164062 4.28125 7.894531 5.226562 7.75 6.117188 C 7.65625 7.003906 6.820312 7.511719 6.226562 8.070312 L 5.972656 8.332031 L 5.941406 8.347656 L 5.621094 8.65625 L 5.597656 8.671875 L 5.28125 8.988281 L 5.25 9.003906 L 5.179688 9.078125 L 5.195312 9.085938 L 7.765625 9.085938 L 7.765625 9.609375 L 4.621094 9.609375 L 4.621094 9.132812 L 5.902344 7.855469 C 6.511719 7.324219 7.226562 6.632812 7.113281 5.757812 C 7.050781 5.25 6.621094 4.78125 6.097656 4.742188 C 5.566406 4.664062 5.097656 5.085938 4.980469 5.59375 L 4.964844 5.617188 L 4.949219 5.671875 L 4.925781 5.757812 L 4.875 5.933594 L 4.867188 5.972656 C 4.757812 5.839844 4.636719 5.695312 4.550781 5.542969 C 4.710938 4.894531 5.234375 4.28125 5.925781 4.257812 Z M 6.242188 4.257812 Z M 6.242188 4.257812 "/>
<path style=" stroke:none;fill-rule:nonzero;fill:rgb(0%,0%,0%);fill-opacity:1;" d="M 9.605469 8.972656 L 9.605469 9.609375 L 8.964844 9.609375 L 8.964844 8.972656 Z M 9.605469 8.972656 Z M 9.605469 8.972656 "/>
<path style=" stroke:none;fill-rule:nonzero;fill:rgb(0%,0%,0%);fill-opacity:1;" d="M 12.496094 4.257812 C 13.25 4.3125 13.75 5.003906 13.886719 5.703125 C 13.957031 6.019531 13.972656 6.324219 14.003906 6.640625 L 14.003906 7.449219 C 13.964844 8.273438 13.765625 9.363281 12.871094 9.695312 C 12.089844 10.003906 11.179688 9.519531 10.949219 8.726562 C 10.773438 8.304688 10.757812 7.878906 10.71875 7.449219 L 10.71875 6.640625 C 10.757812 5.8125 10.933594 4.71875 11.820312 4.355469 L 11.859375 4.339844 L 11.894531 4.332031 L 11.933594 4.3125 L 12.050781 4.28125 L 12.125 4.265625 L 12.210938 4.265625 L 12.226562 4.257812 Z M 12.496094 4.257812 Z M 12.25 4.742188 C 11.582031 4.820312 11.386719 5.625 11.335938 6.164062 L 11.335938 6.378906 L 11.320312 6.394531 L 11.320312 7.496094 C 11.367188 8.070312 11.410156 8.804688 11.933594 9.1875 C 12.417969 9.519531 13.058594 9.148438 13.195312 8.632812 C 13.335938 8.25 13.371094 7.878906 13.402344 7.496094 L 13.402344 6.394531 C 13.351562 5.8125 13.273438 5.003906 12.605469 4.773438 L 12.550781 4.757812 L 12.535156 4.742188 L 12.464844 4.742188 L 12.449219 4.726562 L 12.265625 4.726562 Z M 12.25 4.742188 Z M 12.25 4.742188 "/>
<path style="fill:none;stroke-width:0.02;stroke-linecap:butt;stroke-linejoin:miter;stroke:rgb(0%,0%,0%);stroke-opacity:1;stroke-miterlimit:10;" d="M 11.810063 1.780044 L 11.705056 1.780044 " transform="matrix(28.346457,0,0,-28.346457,1,256.11811)"/>
<path style="fill:none;stroke-width:0.02;stroke-linecap:butt;stroke-linejoin:miter;stroke:rgb(0%,0%,0%);stroke-opacity:1;stroke-miterlimit:10;" d="M 11.810063 3.181647 L 11.705056 3.181647 " transform="matrix(28.346457,0,0,-28.346457,1,256.11811)"/>
<path style="fill:none;stroke-width:0.02;stroke-linecap:butt;stroke-linejoin:miter;stroke:rgb(0%,0%,0%);stroke-opacity:1;stroke-miterlimit:10;" d="M 11.810063 4.583388 L 11.705056 4.583388 " transform="matrix(28.346457,0,0,-28.346457,1,256.11811)"/>
<path style="fill:none;stroke-width:0.02;stroke-linecap:butt;stroke-linejoin:miter;stroke:rgb(0%,0%,0%);stroke-opacity:1;stroke-miterlimit:10;" d="M 11.810063 5.98499 L 11.705056 5.98499 " transform="matrix(28.346457,0,0,-28.346457,1,256.11811)"/>
<path style="fill:none;stroke-width:0.02;stroke-linecap:butt;stroke-linejoin:miter;stroke:rgb(0%,0%,0%);stroke-opacity:1;stroke-miterlimit:10;" d="M 11.810063 7.386593 L 11.705056 7.386593 " transform="matrix(28.346457,0,0,-28.346457,1,256.11811)"/>
<path style="fill:none;stroke-width:0.02;stroke-linecap:round;stroke-linejoin:miter;stroke:rgb(0%,0%,0%);stroke-opacity:1;stroke-miterlimit:10;" d="M 11.810063 0.378442 L 11.810063 8.788333 " transform="matrix(28.346457,0,0,-28.346457,1,256.11811)"/>
<path style="fill:none;stroke-width:0.02;stroke-linecap:butt;stroke-linejoin:miter;stroke:rgb(0%,0%,0%);stroke-opacity:1;stroke-miterlimit:10;" d="M 2.506514 0.378442 L 2.506514 0.483448 " transform="matrix(28.346457,0,0,-28.346457,1,256.11811)"/>
<path style="fill:none;stroke-width:0.02;stroke-linecap:butt;stroke-linejoin:miter;stroke:rgb(0%,0%,0%);stroke-opacity:1;stroke-miterlimit:10;" d="M 4.367141 0.378442 L 4.367141 0.483448 " transform="matrix(28.346457,0,0,-28.346457,1,256.11811)"/>
<path style="fill:none;stroke-width:0.02;stroke-linecap:butt;stroke-linejoin:miter;stroke:rgb(0%,0%,0%);stroke-opacity:1;stroke-miterlimit:10;" d="M 6.227906 0.378442 L 6.227906 0.483448 " transform="matrix(28.346457,0,0,-28.346457,1,256.11811)"/>
<path style="fill:none;stroke-width:0.02;stroke-linecap:butt;stroke-linejoin:miter;stroke:rgb(0%,0%,0%);stroke-opacity:1;stroke-miterlimit:10;" d="M 8.088533 0.378442 L 8.088533 0.483448 " transform="matrix(28.346457,0,0,-28.346457,1,256.11811)"/>
<path style="fill:none;stroke-width:0.02;stroke-linecap:butt;stroke-linejoin:miter;stroke:rgb(0%,0%,0%);stroke-opacity:1;stroke-miterlimit:10;" d="M 9.949298 0.378442 L 9.949298 0.483448 " transform="matrix(28.346457,0,0,-28.346457,1,256.11811)"/>
<path style="fill:none;stroke-width:0.02;stroke-linecap:round;stroke-linejoin:miter;stroke:rgb(0%,0%,0%);stroke-opacity:1;stroke-miterlimit:10;" d="M 0.645749 0.378442 L 11.810063 0.378442 " transform="matrix(28.346457,0,0,-28.346457,1,256.11811)"/>
<path style=" stroke:none;fill-rule:nonzero;fill:rgb(0%,0%,0%);fill-opacity:1;" d="M 18.175781 253.589844 L 18.175781 254.035156 L 16.09375 254.035156 L 16.09375 253.589844 Z M 18.175781 253.589844 Z M 18.175781 253.589844 "/>
<path style=" stroke:none;fill-rule:nonzero;fill:rgb(0%,0%,0%);fill-opacity:1;" d="M 20.777344 250.210938 C 21.476562 250.242188 22.207031 250.882812 22.039062 251.621094 C 21.960938 252.121094 21.613281 252.535156 21.175781 252.757812 C 21.882812 252.980469 22.429688 253.726562 22.238281 254.464844 C 22.046875 255.425781 20.945312 255.957031 20.054688 255.664062 C 19.628906 255.535156 19.191406 255.265625 18.984375 254.867188 C 19.03125 254.75 19.015625 254.542969 19.070312 254.464844 C 19.492188 255.082031 20.382812 255.503906 21.078125 255.15625 C 21.84375 254.671875 21.722656 253.257812 20.800781 253.019531 L 20.730469 253.019531 L 20.714844 253.003906 L 19.976562 253.003906 L 19.976562 252.527344 C 20.429688 252.519531 20.992188 252.464844 21.246094 251.996094 C 21.515625 251.589844 21.492188 250.925781 20.976562 250.726562 C 20.367188 250.488281 19.613281 250.875 19.382812 251.496094 C 19.285156 251.359375 19.191406 251.226562 19.097656 251.082031 C 19.421875 250.496094 20.113281 250.144531 20.777344 250.210938 Z M 20.777344 250.210938 Z M 20.777344 250.210938 "/>
<path style=" stroke:none;fill-rule:nonzero;fill:rgb(0%,0%,0%);fill-opacity:1;" d="M 70.917969 253.589844 L 70.917969 254.035156 L 68.839844 254.035156 L 68.839844 253.589844 Z M 70.917969 253.589844 Z M 70.917969 253.589844 "/>
<path style=" stroke:none;fill-rule:nonzero;fill:rgb(0%,0%,0%);fill-opacity:1;" d="M 73.417969 250.210938 C 74.339844 250.234375 75.070312 251.179688 74.925781 252.066406 C 74.832031 252.957031 74 253.464844 73.402344 254.019531 L 73.148438 254.28125 L 73.117188 254.296875 L 72.800781 254.605469 L 72.777344 254.621094 L 72.460938 254.941406 L 72.425781 254.957031 L 72.355469 255.027344 L 72.371094 255.035156 L 74.945312 255.035156 L 74.945312 255.558594 L 71.800781 255.558594 L 71.800781 255.082031 L 73.078125 253.804688 C 73.6875 253.273438 74.402344 252.582031 74.292969 251.710938 C 74.230469 251.203125 73.800781 250.734375 73.277344 250.695312 C 72.746094 250.613281 72.277344 251.035156 72.15625 251.542969 L 72.140625 251.566406 L 72.125 251.621094 L 72.101562 251.710938 L 72.054688 251.882812 L 72.046875 251.925781 C 71.933594 251.789062 71.816406 251.644531 71.730469 251.496094 C 71.886719 250.84375 72.410156 250.234375 73.101562 250.210938 Z M 73.417969 250.210938 Z M 73.417969 250.210938 "/>
<path style=" stroke:none;fill-rule:nonzero;fill:rgb(0%,0%,0%);fill-opacity:1;" d="M 123.664062 253.589844 L 123.664062 254.035156 L 121.585938 254.035156 L 121.585938 253.589844 Z M 123.664062 253.589844 Z M 123.664062 253.589844 "/>
<path style=" stroke:none;fill-rule:nonzero;fill:rgb(0%,0%,0%);fill-opacity:1;" d="M 126.496094 250.210938 L 126.496094 255.105469 L 126.503906 255.121094 L 127.480469 255.121094 L 127.480469 255.558594 L 124.902344 255.558594 L 124.902344 255.121094 L 125.878906 255.121094 L 125.894531 255.105469 L 125.894531 250.996094 C 125.5625 251.105469 125.210938 251.179688 124.863281 251.171875 L 124.863281 250.726562 C 125.386719 250.734375 125.957031 250.589844 126.355469 250.210938 Z M 126.496094 250.210938 Z M 126.496094 250.210938 "/>
<path style=" stroke:none;fill-rule:nonzero;fill:rgb(0%,0%,0%);fill-opacity:1;" d="M 177.671875 250.210938 C 178.429688 250.265625 178.929688 250.957031 179.0625 251.652344 C 179.132812 251.972656 179.148438 252.273438 179.183594 252.589844 L 179.183594 253.398438 C 179.140625 254.226562 178.945312 255.3125 178.046875 255.644531 C 177.269531 255.957031 176.355469 255.472656 176.125 254.679688 C 175.953125 254.257812 175.9375 253.828125 175.894531 253.398438 L 175.894531 252.589844 C 175.9375 251.765625 176.109375 250.667969 177 250.304688 L 177.039062 250.289062 L 177.070312 250.28125 L 177.109375 250.265625 L 177.230469 250.234375 L 177.300781 250.21875 L 177.386719 250.21875 L 177.402344 250.210938 Z M 177.671875 250.210938 Z M 177.429688 250.695312 C 176.761719 250.773438 176.5625 251.574219 176.515625 252.113281 L 176.515625 252.328125 L 176.5 252.34375 L 176.5 253.449219 C 176.546875 254.019531 176.585938 254.757812 177.109375 255.136719 C 177.59375 255.472656 178.238281 255.097656 178.371094 254.582031 C 178.515625 254.203125 178.546875 253.828125 178.578125 253.449219 L 178.578125 252.34375 C 178.53125 251.765625 178.453125 250.957031 177.785156 250.726562 L 177.730469 250.710938 L 177.714844 250.695312 L 177.640625 250.695312 L 177.625 250.679688 L 177.445312 250.679688 Z M 177.429688 250.695312 Z M 177.429688 250.695312 "/>
<path style=" stroke:none;fill-rule:nonzero;fill:rgb(0%,0%,0%);fill-opacity:1;" d="M 230.664062 250.210938 L 230.664062 255.105469 L 230.671875 255.121094 L 231.648438 255.121094 L 231.648438 255.558594 L 229.070312 255.558594 L 229.070312 255.121094 L 230.046875 255.121094 L 230.0625 255.105469 L 230.0625 250.996094 C 229.726562 251.105469 229.378906 251.179688 229.027344 251.171875 L 229.027344 250.726562 C 229.554688 250.734375 230.125 250.589844 230.519531 250.210938 Z M 230.664062 250.210938 Z M 230.664062 250.210938 "/>
<path style=" stroke:none;fill-rule:nonzero;fill:rgb(0%,0%,0%);fill-opacity:1;" d="M 283.074219 250.210938 C 283.996094 250.234375 284.726562 251.179688 284.582031 252.066406 C 284.488281 252.957031 283.65625 253.464844 283.058594 254.019531 L 282.804688 254.28125 L 282.773438 254.296875 L 282.457031 254.605469 L 282.433594 254.621094 L 282.113281 254.941406 L 282.082031 254.957031 L 282.011719 255.027344 L 282.027344 255.035156 L 284.597656 255.035156 L 284.597656 255.558594 L 281.457031 255.558594 L 281.457031 255.082031 L 282.734375 253.804688 C 283.34375 253.273438 284.058594 252.582031 283.949219 251.710938 C 283.882812 251.203125 283.457031 250.734375 282.933594 250.695312 C 282.398438 250.613281 281.933594 251.035156 281.8125 251.542969 L 281.796875 251.566406 L 281.78125 251.621094 L 281.757812 251.710938 L 281.710938 251.882812 L 281.703125 251.925781 C 281.589844 251.789062 281.472656 251.644531 281.382812 251.496094 C 281.542969 250.84375 282.066406 250.234375 282.757812 250.210938 Z M 283.074219 250.210938 Z M 283.074219 250.210938 "/>
<path style=" stroke:none;fill-rule:nonzero;fill:rgb(0%,0%,0%);fill-opacity:1;" d="M 335.921875 250.210938 C 336.621094 250.242188 337.351562 250.882812 337.183594 251.621094 C 337.105469 252.121094 336.753906 252.535156 336.320312 252.757812 C 337.027344 252.980469 337.574219 253.726562 337.382812 254.464844 C 337.191406 255.425781 336.089844 255.957031 335.199219 255.664062 C 334.773438 255.535156 334.335938 255.265625 334.128906 254.867188 C 334.175781 254.75 334.160156 254.542969 334.214844 254.464844 C 334.636719 255.082031 335.527344 255.503906 336.222656 255.15625 C 336.984375 254.671875 336.867188 253.257812 335.945312 253.019531 L 335.875 253.019531 L 335.859375 253.003906 L 335.121094 253.003906 L 335.121094 252.527344 C 335.574219 252.519531 336.136719 252.464844 336.390625 251.996094 C 336.660156 251.589844 336.636719 250.925781 336.121094 250.726562 C 335.507812 250.488281 334.753906 250.875 334.527344 251.496094 C 334.429688 251.359375 334.335938 251.226562 334.238281 251.082031 C 334.566406 250.496094 335.253906 250.144531 335.921875 250.210938 Z M 335.921875 250.210938 Z M 335.921875 250.210938 "/>
<path style="fill:none;stroke-width:0.02;stroke-linecap:butt;stroke-linejoin:miter;stroke:rgb(0%,0%,0%);stroke-opacity:1;stroke-miterlimit:10;" d="M 2.506514 8.788333 L 2.506514 8.683327 " transform="matrix(28.346457,0,0,-28.346457,1,256.11811)"/>
<path style="fill:none;stroke-width:0.02;stroke-linecap:butt;stroke-linejoin:miter;stroke:rgb(0%,0%,0%);stroke-opacity:1;stroke-miterlimit:10;" d="M 4.367141 8.788333 L 4.367141 8.683327 " transform="matrix(28.346457,0,0,-28.346457,1,256.11811)"/>
<path style="fill:none;stroke-width:0.02;stroke-linecap:butt;stroke-linejoin:miter;stroke:rgb(0%,0%,0%);stroke-opacity:1;stroke-miterlimit:10;" d="M 6.227906 8.788333 L 6.227906 8.683327 " transform="matrix(28.346457,0,0,-28.346457,1,256.11811)"/>
<path style="fill:none;stroke-width:0.02;stroke-linecap:butt;stroke-linejoin:miter;stroke:rgb(0%,0%,0%);stroke-opacity:1;stroke-miterlimit:10;" d="M 8.088533 8.788333 L 8.088533 8.683327 " transform="matrix(28.346457,0,0,-28.346457,1,256.11811)"/>
<path style="fill:none;stroke-width:0.02;stroke-linecap:butt;stroke-linejoin:miter;stroke:rgb(0%,0%,0%);stroke-opacity:1;stroke-miterlimit:10;" d="M 9.949298 8.788333 L 9.949298 8.683327 " transform="matrix(28.346457,0,0,-28.346457,1,256.11811)"/>
<path style="fill:none;stroke-width:0.02;stroke-linecap:round;stroke-linejoin:miter;stroke:rgb(0%,0%,0%);stroke-opacity:1;stroke-miterlimit:10;" d="M 0.645749 8.788333 L 11.810063 8.788333 " transform="matrix(28.346457,0,0,-28.346457,1,256.11811)"/>
<path style="fill:none;stroke-width:0.05;stroke-linecap:butt;stroke-linejoin:miter;stroke:rgb(33%,47%,64%);stroke-opacity:1;stroke-miterlimit:10;" d="M 0.645749 2.78615 L 0.684609 2.727446 L 0.723332 2.669293 L 0.762055 2.611691 L 0.800916 2.554502 L 0.839639 2.497865 L 0.878362 2.441503 L 0.917084 2.385692 L 0.955945 2.330295 L 0.994668 2.275174 L 1.033391 2.220465 L 1.072252 2.165895 L 1.110974 2.111738 L 1.149697 2.058133 L 1.188558 2.00494 L 1.227281 1.952575 L 1.266004 1.900623 L 1.304864 1.84936 L 1.343587 1.79851 L 1.38231 1.748212 L 1.421033 1.698465 L 1.459894 1.649269 L 1.498617 1.600348 L 1.537339 1.551979 L 1.5762 1.504023 L 1.614923 1.456757 L 1.653646 1.41073 L 1.692507 1.365806 L 1.731229 1.321847 L 1.769952 1.278852 L 1.808675 1.236822 L 1.847536 1.195618 L 1.886259 1.155242 L 1.924982 1.115554 L 1.963842 1.076556 L 2.002565 1.038247 L 2.041288 1.000488 L 2.080149 0.963695 L 2.118872 0.928141 L 2.157594 0.893828 L 2.196317 0.860617 L 2.235178 0.828509 L 2.273901 0.797641 L 2.312624 0.767738 L 2.351484 0.738799 L 2.390207 0.710962 L 2.42893 0.683953 L 2.467791 0.657908 L 2.506514 0.63269 L 2.545237 0.608436 L 2.584097 0.585699 L 2.62282 0.564064 L 2.661543 0.543669 L 2.700266 0.524652 L 2.739127 0.506737 L 2.777849 0.489925 L 2.816572 0.474353 L 2.855433 0.460022 L 2.894156 0.446655 L 2.932879 0.43439 L 2.971739 0.423228 L 3.010462 0.413306 L 3.049185 0.404487 L 3.087908 0.397045 L 3.126769 0.390844 L 3.165492 0.385883 L 3.204214 0.382025 L 3.243075 0.379544 L 3.278353 0.378442 " transform="matrix(28.346457,0,0,-28.346457,1,256.11811)"/>
<path style="fill:none;stroke-width:0.05;stroke-linecap:butt;stroke-linejoin:miter;stroke:rgb(33%,47%,64%);stroke-opacity:1;stroke-miterlimit:10;" d="M 3.325895 0.378442 L 3.359382 0.379406 L 3.398104 0.381749 L 3.436827 0.38547 L 3.47555 0.390155 L 3.514411 0.396081 L 3.553134 0.403247 L 3.591857 0.411515 L 3.630717 0.420885 L 3.66944 0.431496 L 3.708163 0.443347 L 3.747024 0.456439 L 3.785747 0.47077 L 3.824469 0.486342 L 3.863192 0.503292 L 3.902053 0.521344 L 3.940776 0.540637 L 3.979499 0.560894 L 4.018359 0.582116 L 4.057082 0.604302 L 4.095805 0.627591 L 4.134666 0.651982 L 4.173389 0.677476 L 4.212112 0.704072 L 4.250972 0.731909 L 4.289695 0.760985 L 4.328418 0.791164 L 4.367141 0.822859 L 4.406002 0.855381 L 4.444724 0.888592 L 4.483447 0.922629 L 4.522308 0.957493 L 4.561031 0.993185 L 4.599754 1.029703 L 4.638614 1.067185 L 4.677337 1.10577 L 4.71606 1.14532 L 4.754783 1.185972 L 4.793644 1.227865 L 4.832367 1.270859 L 4.871089 1.314681 L 4.90995 1.358916 L 4.948673 1.403702 L 4.987396 1.448902 L 5.026257 1.494791 L 5.064979 1.54123 L 5.103702 1.588497 L 5.142425 1.636453 L 5.181286 1.685373 L 5.220009 1.73512 L 5.258732 1.78597 L 5.297592 1.837784 L 5.375038 1.942515 L 5.413899 1.995156 L 5.452622 2.048073 L 5.491344 2.101265 L 5.530205 2.154733 L 5.568928 2.208752 L 5.607651 2.263322 L 5.646374 2.318444 L 5.685234 2.374255 L 5.723957 2.430754 L 5.76268 2.488218 L 5.801541 2.545958 L 5.840264 2.603698 L 5.878987 2.661576 L 5.917847 2.719315 L 5.95657 2.777193 L 6.034016 2.892673 L 6.072877 2.95055 L 6.111599 3.00829 L 6.150322 3.066168 L 6.189183 3.123907 L 6.227906 3.181647 L 6.266629 3.239525 L 6.305489 3.297265 L 6.344212 3.355142 L 6.421658 3.470622 L 6.460519 3.528499 L 6.499242 3.586239 L 6.537964 3.644117 L 6.576825 3.701857 L 6.615548 3.759596 L 6.654271 3.817474 L 6.693132 3.875214 L 6.731854 3.932678 L 6.770577 3.989178 L 6.8093 4.044988 L 6.848161 4.10011 L 6.886884 4.15468 L 6.925607 4.208699 L 6.964467 4.262167 L 7.00319 4.315359 L 7.041913 4.368276 L 7.080774 4.420779 L 7.119497 4.473282 L 7.158219 4.525648 L 7.19708 4.577462 L 7.235803 4.628312 L 7.274526 4.678059 L 7.313249 4.726841 L 7.352109 4.774935 L 7.390832 4.822202 L 7.429555 4.868641 L 7.468416 4.91453 L 7.507139 4.95973 L 7.545862 5.004516 L 7.584722 5.048751 L 7.623445 5.092573 L 7.662168 5.135567 L 7.700891 5.17746 L 7.739752 5.218112 L 7.778474 5.257662 L 7.817197 5.296109 L 7.856058 5.333729 L 7.894781 5.370247 L 7.933504 5.405939 L 7.972364 5.440803 L 8.011087 5.474703 L 8.04981 5.508051 L 8.088533 5.540573 L 8.127394 5.57213 L 8.166117 5.602447 L 8.204839 5.631523 L 8.2437 5.65936 L 8.282423 5.685956 L 8.321146 5.71145 L 8.360007 5.735841 L 8.398729 5.758992 L 8.437452 5.781316 L 8.476313 5.802538 L 8.515036 5.822657 L 8.553759 5.84195 L 8.592482 5.86014 L 8.631342 5.876952 L 8.670065 5.892662 L 8.708788 5.906993 L 8.747649 5.919947 L 8.786372 5.931936 L 8.825094 5.942547 L 8.863955 5.951917 L 8.902678 5.960186 L 8.941401 5.967214 L 8.980124 5.973139 L 9.018984 5.977962 L 9.057707 5.981545 L 9.09643 5.984026 L 9.135291 5.985128 L 9.174014 5.985128 L 9.212737 5.983888 L 9.251597 5.98127 L 9.29032 5.977549 L 9.329043 5.972588 L 9.367766 5.966387 L 9.406627 5.958808 L 9.445349 5.950126 L 9.484072 5.940066 L 9.522933 5.928904 L 9.561656 5.916777 L 9.600379 5.90341 L 9.639239 5.888941 L 9.677962 5.873369 L 9.716685 5.856695 L 9.755546 5.83878 L 9.794269 5.819763 L 9.832992 5.799368 L 9.871714 5.777733 L 9.910575 5.754858 L 9.949298 5.730742 L 9.988021 5.705524 L 10.026882 5.679479 L 10.065604 5.65247 L 10.104327 5.624495 L 10.143188 5.595694 L 10.181911 5.565791 L 10.220634 5.534785 L 10.259357 5.502815 L 10.298217 5.469604 L 10.33694 5.435291 L 10.375663 5.399737 L 10.414524 5.362806 L 10.453247 5.325186 L 10.491969 5.286876 L 10.53083 5.247878 L 10.569553 5.20819 L 10.608276 5.167814 L 10.646999 5.12661 L 10.685859 5.08458 L 10.724582 5.041585 L 10.763305 4.997626 L 10.802166 4.952702 L 10.840889 4.906538 L 10.879612 4.859409 L 10.918472 4.811453 L 10.957195 4.762946 L 10.995918 4.714163 L 11.034641 4.66483 L 11.073502 4.615082 L 11.112224 4.564922 L 11.150947 4.514072 L 11.189808 4.462809 L 11.228531 4.410857 L 11.267254 4.358354 L 11.306114 4.305299 L 11.344837 4.251556 L 11.38356 4.197399 L 11.422421 4.142967 L 11.461144 4.088258 L 11.499867 4.033137 L 11.538589 3.97774 L 11.57745 3.921791 L 11.616173 3.865567 L 11.654896 3.80893 L 11.693757 3.751742 L 11.732479 3.69414 L 11.771202 3.635986 L 11.810063 3.577282 " transform="matrix(28.346457,0,0,-28.346457,1,256.11811)"/>
<path style="fill:none;stroke-width:0.05;stroke-linecap:butt;stroke-linejoin:miter;stroke:rgb(90%,57%,26%);stroke-opacity:1;stroke-miterlimit:10;" d="M 0.645749 5.589355 L 1.110974 4.915081 L 1.5762 4.307367 L 2.041288 3.803831 L 2.506514 3.436033 L 2.971739 3.226571 L 3.436827 3.188675 L 3.902053 3.324688 L 4.367141 3.626064 L 4.832367 4.074202 L 5.297592 4.64099 L 5.76268 5.291424 L 6.693132 6.678557 L 7.158219 7.328991 L 7.623445 7.895778 L 8.088533 8.343916 L 8.553759 8.645293 L 9.018984 8.781305 L 9.484072 8.743409 L 9.949298 8.534085 L 10.414524 8.166149 L 10.879612 7.662752 L 11.344837 7.054899 L 11.810063 6.380625 " transform="matrix(28.346457,0,0,-28.346457,1,256.11811)"/>
</g>
</svg>
