<?xml version="1.0" encoding="UTF-8"?>
<svg xmlns="http://www.w3.org/2000/svg" xmlns:xlink="http://www.w3.org/1999/xlink" width="342.15748pt" height="257.11811pt" viewBox="0 0 342.15748 257.11811" version="1.1">
<g id="surface1">
<path style=" stroke:none;fill-rule:nonzero;fill:rgb(100%,100%,100%);fill-opacity:1;" d="M -0.417969 257.535156 L 342.574219 257.535156 L 342.574219 -0.417969 L -0.417969 -0.417969 Z M -0.417969 257.535156 "/>
<path style="fill:none;stroke-width:0.02;stroke-linecap:butt;stroke-linejoin:miter;stroke:rgb(0%,0%,0%);stroke-opacity:1;stroke-miterlimit:10;" d="M 0.645749 1.219459 L 0.750755 1.219459 " transform="matrix(28.346457,0,0,-28.346457,1,256.11811)"/>
<path style="fill:none;stroke-width:0.02;stroke-linecap:butt;stroke-linejoin:miter;stroke:rgb(0%,0%,0%);stroke-opacity:1;stroke-miterlimit:10;" d="M 0.645749 2.060337 L 0.750755 2.060337 " transform="matrix(28.346457,0,0,-28.346457,1,256.11811)"/>
<path style="fill:none;stroke-width:0.02;stroke-linecap:butt;stroke-linejoin:miter;stroke:rgb(0%,0%,0%);stroke-opacity:1;stroke-miterlimit:10;" d="M 0.645749 2.901354 L 0.750755 2.901354 " transform="matrix(28.346457,0,0,-28.346457,1,256.11811)"/>
<path style="fill:none;stroke-width:0.02;stroke-linecap:butt;stroke-linejoin:miter;stroke:rgb(0%,0%,0%);stroke-opacity:1;stroke-miterlimit:10;" d="M 0.645749 3.742371 L 0.750755 3.742371 " transform="matrix(28.346457,0,0,-28.346457,1,256.11811)"/>
<path style="fill:none;stroke-width:0.02;stroke-linecap:butt;stroke-linejoin:miter;stroke:rgb(0%,0%,0%);stroke-opacity:1;stroke-miterlimit:10;" d="M 0.645749 4.583388 L 0.750755 4.583388 " transform="matrix(28.346457,0,0,-28.346457,1,256.11811)"/>
<path style="fill:none;stroke-width:0.02;stroke-linecap:butt;stroke-linejoin:miter;stroke:rgb(0%,0%,0%);stroke-opacity:1;stroke-miterlimit:10;" d="M 0.645749 5.424404 L 0.750755 5.424404 " transform="matrix(28.346457,0,0,-28.346457,1,256.11811)"/>
<path style="fill:none;stroke-width:0.02;stroke-linecap:butt;stroke-linejoin:miter;stroke:rgb(0%,0%,0%);stroke-opacity:1;stroke-miterlimit:10;" d="M 0.645749 6.265283 L 0.750755 6.265283 " transform="matrix(28.346457,0,0,-28.346457,1,256.11811)"/>
<path style="fill:none;stroke-width:0.02;stroke-linecap:butt;stroke-linejoin:miter;stroke:rgb(0%,0%,0%);stroke-opacity:1;stroke-miterlimit:10;" d="M 0.645749 7.1063 L 0.750755 7.1063 " transform="matrix(28.346457,0,0,-28.346457,1,256.11811)"/>
<path style="fill:none;stroke-width:0.02;stroke-linecap:butt;stroke-linejoin:miter;stroke:rgb(0%,0%,0%);stroke-opacity:1;stroke-miterlimit:10;" d="M 0.645749 7.947317 L 0.750755 7.947317 " transform="matrix(28.346457,0,0,-28.346457,1,256.11811)"/>
<path style="fill:none;stroke-width:0.02;stroke-linecap:round;stroke-linejoin:miter;stroke:rgb(0%,0%,0%);stroke-opacity:1;stroke-miterlimit:10;" d="M 0.645749 0.378442 L 0.645749 8.788333 " transform="matrix(28.346457,0,0,-28.346457,1,256.11811)"/>
<path style=" stroke:none;fill-rule:nonzero;fill:rgb(0%,0%,0%);fill-opacity:1;" d="M 3.742188 246.03125 L 3.742188 246.476562 L 1.664062 246.476562 L 1.664062 246.03125 Z M 3.742188 246.03125 Z M 3.742188 246.03125 "/>
<path style=" stroke:none;fill-rule:nonzero;fill:rgb(0%,0%,0%);fill-opacity:1;" d="M 6.574219 242.648438 L 6.574219 247.546875 L 6.582031 247.5625 L 7.558594 247.5625 L 7.558594 248 L 4.980469 248 L 4.980469 247.5625 L 5.957031 247.5625 L 5.972656 247.546875 L 5.972656 243.433594 C 5.636719 243.546875 5.289062 243.617188 4.941406 243.609375 L 4.941406 243.164062 C 5.464844 243.171875 6.035156 243.03125 6.433594 242.648438 Z M 6.574219 242.648438 Z M 6.574219 242.648438 "/>
<path style=" stroke:none;fill-rule:nonzero;fill:rgb(0%,0%,0%);fill-opacity:1;" d="M 9.605469 247.363281 L 9.605469 248 L 8.964844 248 L 8.964844 247.363281 Z M 9.605469 247.363281 Z M 9.605469 247.363281 "/>
<path style=" stroke:none;fill-rule:nonzero;fill:rgb(0%,0%,0%);fill-opacity:1;" d="M 12.496094 242.648438 C 13.25 242.707031 13.75 243.394531 13.886719 244.09375 C 13.957031 244.410156 13.972656 244.714844 14.003906 245.03125 L 14.003906 245.839844 C 13.964844 246.664062 13.765625 247.753906 12.871094 248.085938 C 12.089844 248.394531 11.179688 247.910156 10.949219 247.117188 C 10.773438 246.699219 10.757812 246.269531 10.71875 245.839844 L 10.71875 245.03125 C 10.757812 244.207031 10.933594 243.109375 11.820312 242.746094 L 11.859375 242.730469 L 11.894531 242.722656 L 11.933594 242.707031 L 12.050781 242.671875 L 12.125 242.65625 L 12.210938 242.65625 L 12.226562 242.648438 Z M 12.496094 242.648438 Z M 12.25 243.132812 C 11.582031 243.214844 11.386719 244.015625 11.335938 244.554688 L 11.335938 244.769531 L 11.320312 244.785156 L 11.320312 245.886719 C 11.367188 246.460938 11.410156 247.199219 11.933594 247.578125 C 12.417969 247.910156 13.058594 247.539062 13.195312 247.023438 C 13.335938 246.640625 13.371094 246.269531 13.402344 245.886719 L 13.402344 244.785156 C 13.351562 244.207031 13.273438 243.394531 12.605469 243.164062 L 12.550781 243.148438 L 12.535156 243.132812 L 12.464844 243.132812 L 12.449219 243.117188 L 12.265625 243.117188 Z M 12.25 243.132812 Z M 12.25 243.132812 "/>
<path style=" stroke:none;fill-rule:nonzero;fill:rgb(0%,0%,0%);fill-opacity:1;" d="M 3.742188 222.191406 L 3.742188 222.636719 L 1.664062 222.636719 L 1.664062 222.191406 Z M 3.742188 222.191406 Z M 3.742188 222.191406 "/>
<path style=" stroke:none;fill-rule:nonzero;fill:rgb(0%,0%,0%);fill-opacity:1;" d="M 6.328125 218.808594 C 7.082031 218.867188 7.582031 219.554688 7.71875 220.253906 C 7.789062 220.574219 7.804688 220.875 7.835938 221.191406 L 7.835938 222 C 7.796875 222.828125 7.597656 223.914062 6.703125 224.246094 C 5.925781 224.558594 5.011719 224.074219 4.78125 223.277344 C 4.605469 222.859375 4.589844 222.429688 4.550781 222 L 4.550781 221.191406 C 4.589844 220.367188 4.765625 219.269531 5.65625 218.90625 L 5.695312 218.890625 L 5.726562 218.882812 L 5.765625 218.867188 L 5.882812 218.835938 L 5.957031 218.820312 L 6.042969 218.820312 L 6.058594 218.808594 Z M 6.328125 218.808594 Z M 6.082031 219.292969 C 5.417969 219.375 5.21875 220.175781 5.171875 220.714844 L 5.171875 220.929688 L 5.15625 220.945312 L 5.15625 222.046875 C 5.203125 222.621094 5.242188 223.359375 5.765625 223.738281 C 6.25 224.074219 6.894531 223.699219 7.027344 223.183594 C 7.171875 222.804688 7.203125 222.429688 7.234375 222.046875 L 7.234375 220.945312 C 7.1875 220.367188 7.105469 219.554688 6.441406 219.328125 L 6.382812 219.308594 L 6.367188 219.292969 L 6.296875 219.292969 L 6.28125 219.277344 L 6.097656 219.277344 Z M 6.082031 219.292969 Z M 6.082031 219.292969 "/>
<path style=" stroke:none;fill-rule:nonzero;fill:rgb(0%,0%,0%);fill-opacity:1;" d="M 9.605469 223.523438 L 9.605469 224.160156 L 8.964844 224.160156 L 8.964844 223.523438 Z M 9.605469 223.523438 Z M 9.605469 223.523438 "/>
<path style=" stroke:none;fill-rule:nonzero;fill:rgb(0%,0%,0%);fill-opacity:1;" d="M 12.511719 218.808594 C 13.351562 218.84375 14.148438 219.746094 13.8125 220.589844 C 13.671875 220.976562 13.273438 221.214844 12.949219 221.382812 C 13.757812 221.621094 14.25 222.566406 13.886719 223.34375 C 13.503906 224.351562 12.058594 224.667969 11.265625 223.9375 C 10.542969 223.367188 10.519531 222.128906 11.320312 221.621094 C 11.441406 221.492188 11.664062 221.453125 11.765625 221.359375 C 11.074219 221.160156 10.605469 220.359375 10.933594 219.683594 C 11.195312 219.082031 11.871094 218.746094 12.511719 218.808594 Z M 12.511719 218.808594 Z M 12.210938 219.261719 C 11.625 219.277344 11.210938 219.945312 11.410156 220.46875 C 11.640625 221.375 13.15625 221.34375 13.328125 220.414062 C 13.488281 219.898438 13.074219 219.277344 12.511719 219.261719 L 12.496094 219.253906 L 12.226562 219.253906 Z M 12.210938 219.261719 Z M 12.226562 221.621094 C 11.535156 221.667969 11.195312 222.492188 11.378906 223.082031 C 11.496094 223.914062 12.6875 224.160156 13.15625 223.492188 C 13.605469 222.882812 13.386719 221.785156 12.566406 221.621094 L 12.496094 221.621094 L 12.480469 221.605469 L 12.234375 221.605469 Z M 12.226562 221.621094 Z M 12.226562 221.621094 "/>
<path style=" stroke:none;fill-rule:nonzero;fill:rgb(0%,0%,0%);fill-opacity:1;" d="M 3.742188 198.351562 L 3.742188 198.796875 L 1.664062 198.796875 L 1.664062 198.351562 Z M 3.742188 198.351562 Z M 3.742188 198.351562 "/>
<path style=" stroke:none;fill-rule:nonzero;fill:rgb(0%,0%,0%);fill-opacity:1;" d="M 6.328125 194.972656 C 7.082031 195.027344 7.582031 195.71875 7.71875 196.414062 C 7.789062 196.734375 7.804688 197.035156 7.835938 197.351562 L 7.835938 198.160156 C 7.796875 198.988281 7.597656 200.074219 6.703125 200.410156 C 5.925781 200.71875 5.011719 200.234375 4.78125 199.441406 C 4.605469 199.019531 4.589844 198.589844 4.550781 198.160156 L 4.550781 197.351562 C 4.589844 196.527344 4.765625 195.433594 5.65625 195.066406 L 5.695312 195.050781 L 5.726562 195.042969 L 5.765625 195.027344 L 5.882812 194.996094 L 5.957031 194.980469 L 6.042969 194.980469 L 6.058594 194.972656 Z M 6.328125 194.972656 Z M 6.082031 195.457031 C 5.417969 195.535156 5.21875 196.335938 5.171875 196.875 L 5.171875 197.089844 L 5.15625 197.105469 L 5.15625 198.210938 C 5.203125 198.78125 5.242188 199.519531 5.765625 199.898438 C 6.25 200.234375 6.894531 199.859375 7.027344 199.34375 C 7.171875 198.964844 7.203125 198.589844 7.234375 198.210938 L 7.234375 197.105469 C 7.1875 196.527344 7.105469 195.71875 6.441406 195.488281 L 6.382812 195.472656 L 6.367188 195.457031 L 6.296875 195.457031 L 6.28125 195.441406 L 6.097656 195.441406 Z M 6.082031 195.457031 Z M 6.082031 195.457031 "/>
<path style=" stroke:none;fill-rule:nonzero;fill:rgb(0%,0%,0%);fill-opacity:1;" d="M 9.605469 199.6875 L 9.605469 200.320312 L 8.964844 200.320312 L 8.964844 199.6875 Z M 9.605469 199.6875 Z M 9.605469 199.6875 "/>
<path style=" stroke:none;fill-rule:nonzero;fill:rgb(0%,0%,0%);fill-opacity:1;" d="M 13.011719 194.972656 C 13.21875 195.003906 13.457031 195.027344 13.65625 195.121094 L 13.65625 195.582031 C 13.105469 195.34375 12.394531 195.3125 11.964844 195.796875 C 11.582031 196.203125 11.410156 196.804688 11.394531 197.335938 C 11.851562 196.726562 12.894531 196.382812 13.457031 197.019531 C 14.019531 197.671875 14.117188 198.605469 13.863281 199.398438 C 13.582031 200.035156 12.941406 200.613281 12.226562 200.480469 C 11.257812 200.398438 10.820312 199.320312 10.773438 198.496094 C 10.589844 197.328125 10.867188 195.859375 11.980469 195.195312 L 11.996094 195.1875 L 12.164062 195.097656 L 12.210938 195.082031 L 12.234375 195.066406 L 12.480469 194.996094 L 12.550781 194.980469 L 12.640625 194.980469 L 12.65625 194.972656 Z M 13.011719 194.972656 Z M 12.234375 197.179688 C 11.542969 197.296875 11.320312 198.128906 11.410156 198.695312 C 11.449219 199.226562 11.65625 199.933594 12.265625 200.042969 C 12.917969 200.128906 13.335938 199.433594 13.351562 198.867188 C 13.386719 198.296875 13.351562 197.644531 12.851562 197.273438 L 12.742188 197.21875 L 12.65625 197.195312 L 12.582031 197.179688 L 12.566406 197.160156 L 12.25 197.160156 Z M 12.234375 197.179688 Z M 12.234375 197.179688 "/>
<path style=" stroke:none;fill-rule:nonzero;fill:rgb(0%,0%,0%);fill-opacity:1;" d="M 3.742188 174.511719 L 3.742188 174.957031 L 1.664062 174.957031 L 1.664062 174.511719 Z M 3.742188 174.511719 Z M 3.742188 174.511719 "/>
<path style=" stroke:none;fill-rule:nonzero;fill:rgb(0%,0%,0%);fill-opacity:1;" d="M 6.328125 171.132812 C 7.082031 171.1875 7.582031 171.878906 7.71875 172.578125 C 7.789062 172.894531 7.804688 173.195312 7.835938 173.511719 L 7.835938 174.324219 C 7.796875 175.148438 7.597656 176.234375 6.703125 176.570312 C 5.925781 176.878906 5.011719 176.394531 4.78125 175.601562 C 4.605469 175.179688 4.589844 174.75 4.550781 174.324219 L 4.550781 173.511719 C 4.589844 172.6875 4.765625 171.59375 5.65625 171.226562 L 5.695312 171.210938 L 5.726562 171.203125 L 5.765625 171.1875 L 5.882812 171.15625 L 5.957031 171.140625 L 6.042969 171.140625 L 6.058594 171.132812 Z M 6.328125 171.132812 Z M 6.082031 171.617188 C 5.417969 171.695312 5.21875 172.496094 5.171875 173.039062 L 5.171875 173.25 L 5.15625 173.265625 L 5.15625 174.371094 C 5.203125 174.941406 5.242188 175.679688 5.765625 176.0625 C 6.25 176.394531 6.894531 176.023438 7.027344 175.503906 C 7.171875 175.125 7.203125 174.75 7.234375 174.371094 L 7.234375 173.265625 C 7.1875 172.6875 7.105469 171.878906 6.441406 171.648438 L 6.382812 171.632812 L 6.367188 171.617188 L 6.296875 171.617188 L 6.28125 171.601562 L 6.097656 171.601562 Z M 6.082031 171.617188 Z M 6.082031 171.617188 "/>
<path style=" stroke:none;fill-rule:nonzero;fill:rgb(0%,0%,0%);fill-opacity:1;" d="M 9.605469 175.847656 L 9.605469 176.480469 L 8.964844 176.480469 L 8.964844 175.847656 Z M 9.605469 175.847656 Z M 9.605469 175.847656 "/>
<path style=" stroke:none;fill-rule:nonzero;fill:rgb(0%,0%,0%);fill-opacity:1;" d="M 13.3125 171.300781 L 13.3125 174.640625 L 13.328125 174.65625 L 14.117188 174.65625 L 14.117188 175.132812 L 13.328125 175.132812 L 13.3125 175.140625 L 13.3125 176.480469 L 12.710938 176.480469 L 12.710938 175.140625 L 12.695312 175.132812 L 10.597656 175.132812 L 10.597656 174.640625 C 11.265625 173.527344 11.933594 172.410156 12.597656 171.300781 Z M 13.3125 171.300781 Z M 12.726562 171.601562 C 12.566406 172.425781 12.058594 173.132812 11.679688 173.855469 C 11.527344 174.117188 11.328125 174.402344 11.21875 174.65625 L 12.742188 174.65625 L 12.75 174.640625 L 12.75 171.601562 L 12.742188 171.585938 Z M 12.726562 171.601562 Z M 12.726562 171.601562 "/>
<path style=" stroke:none;fill-rule:nonzero;fill:rgb(0%,0%,0%);fill-opacity:1;" d="M 3.742188 150.675781 L 3.742188 151.117188 L 1.664062 151.117188 L 1.664062 150.675781 Z M 3.742188 150.675781 Z M 3.742188 150.675781 "/>
<path style=" stroke:none;fill-rule:nonzero;fill:rgb(0%,0%,0%);fill-opacity:1;" d="M 6.328125 147.292969 C 7.082031 147.347656 7.582031 148.039062 7.71875 148.738281 C 7.789062 149.054688 7.804688 149.355469 7.835938 149.675781 L 7.835938 150.484375 C 7.796875 151.308594 7.597656 152.398438 6.703125 152.730469 C 5.925781 153.039062 5.011719 152.554688 4.78125 151.761719 C 4.605469 151.339844 4.589844 150.914062 4.550781 150.484375 L 4.550781 149.675781 C 4.589844 148.847656 4.765625 147.753906 5.65625 147.386719 L 5.695312 147.371094 L 5.726562 147.363281 L 5.765625 147.347656 L 5.882812 147.316406 L 5.957031 147.300781 L 6.042969 147.300781 L 6.058594 147.292969 Z M 6.328125 147.292969 Z M 6.082031 147.777344 C 5.417969 147.855469 5.21875 148.660156 5.171875 149.199219 L 5.171875 149.414062 L 5.15625 149.429688 L 5.15625 150.53125 C 5.203125 151.101562 5.242188 151.839844 5.765625 152.222656 C 6.25 152.554688 6.894531 152.183594 7.027344 151.667969 C 7.171875 151.285156 7.203125 150.914062 7.234375 150.53125 L 7.234375 149.429688 C 7.1875 148.847656 7.105469 148.039062 6.441406 147.808594 L 6.382812 147.792969 L 6.367188 147.777344 L 6.296875 147.777344 L 6.28125 147.761719 L 6.097656 147.761719 Z M 6.082031 147.777344 Z M 6.082031 147.777344 "/>
<path style=" stroke:none;fill-rule:nonzero;fill:rgb(0%,0%,0%);fill-opacity:1;" d="M 9.605469 152.007812 L 9.605469 152.644531 L 8.964844 152.644531 L 8.964844 152.007812 Z M 9.605469 152.007812 Z M 9.605469 152.007812 "/>
<path style=" stroke:none;fill-rule:nonzero;fill:rgb(0%,0%,0%);fill-opacity:1;" d="M 12.410156 147.292969 C 13.328125 147.316406 14.058594 148.261719 13.917969 149.152344 C 13.820312 150.039062 12.988281 150.546875 12.394531 151.101562 L 12.140625 151.363281 L 12.105469 151.378906 L 11.789062 151.691406 L 11.765625 151.707031 L 11.449219 152.023438 L 11.417969 152.039062 L 11.34375 152.109375 L 11.359375 152.117188 L 13.933594 152.117188 L 13.933594 152.644531 L 10.789062 152.644531 L 10.789062 152.167969 L 12.066406 150.890625 C 12.679688 150.355469 13.394531 149.667969 13.28125 148.792969 C 13.21875 148.285156 12.789062 147.816406 12.265625 147.777344 C 11.734375 147.699219 11.265625 148.117188 11.148438 148.625 L 11.132812 148.652344 L 11.113281 148.707031 L 11.089844 148.792969 L 11.042969 148.96875 L 11.035156 149.007812 C 10.925781 148.871094 10.804688 148.730469 10.71875 148.578125 C 10.878906 147.929688 11.402344 147.316406 12.089844 147.292969 Z M 12.410156 147.292969 Z M 12.410156 147.292969 "/>
<path style=" stroke:none;fill-rule:nonzero;fill:rgb(0%,0%,0%);fill-opacity:1;" d="M 6.328125 123.453125 C 7.082031 123.507812 7.582031 124.199219 7.71875 124.898438 C 7.789062 125.214844 7.804688 125.519531 7.835938 125.835938 L 7.835938 126.644531 C 7.796875 127.46875 7.597656 128.558594 6.703125 128.890625 C 5.925781 129.199219 5.011719 128.714844 4.78125 127.921875 C 4.605469 127.503906 4.589844 127.074219 4.550781 126.644531 L 4.550781 125.835938 C 4.589844 125.011719 4.765625 123.914062 5.65625 123.550781 L 5.695312 123.535156 L 5.726562 123.527344 L 5.765625 123.507812 L 5.882812 123.476562 L 5.957031 123.460938 L 6.042969 123.460938 L 6.058594 123.453125 Z M 6.328125 123.453125 Z M 6.082031 123.9375 C 5.417969 124.019531 5.21875 124.820312 5.171875 125.359375 L 5.171875 125.574219 L 5.15625 125.589844 L 5.15625 126.691406 C 5.203125 127.265625 5.242188 128.003906 5.765625 128.382812 C 6.25 128.714844 6.894531 128.34375 7.027344 127.828125 C 7.171875 127.445312 7.203125 127.074219 7.234375 126.691406 L 7.234375 125.589844 C 7.1875 125.011719 7.105469 124.199219 6.441406 123.96875 L 6.382812 123.953125 L 6.367188 123.9375 L 6.296875 123.9375 L 6.28125 123.921875 L 6.097656 123.921875 Z M 6.082031 123.9375 Z M 6.082031 123.9375 "/>
<path style=" stroke:none;fill-rule:nonzero;fill:rgb(0%,0%,0%);fill-opacity:1;" d="M 9.605469 128.167969 L 9.605469 128.804688 L 8.964844 128.804688 L 8.964844 128.167969 Z M 9.605469 128.167969 Z M 9.605469 128.167969 "/>
<path style=" stroke:none;fill-rule:nonzero;fill:rgb(0%,0%,0%);fill-opacity:1;" d="M 12.496094 123.453125 C 13.25 123.507812 13.75 124.199219 13.886719 124.898438 C 13.957031 125.214844 13.972656 125.519531 14.003906 125.835938 L 14.003906 126.644531 C 13.964844 127.46875 13.765625 128.558594 12.871094 128.890625 C 12.089844 129.199219 11.179688 128.714844 10.949219 127.921875 C 10.773438 127.503906 10.757812 127.074219 10.71875 126.644531 L 10.71875 125.835938 C 10.757812 125.011719 10.933594 123.914062 11.820312 123.550781 L 11.859375 123.535156 L 11.894531 123.527344 L 11.933594 123.507812 L 12.050781 123.476562 L 12.125 123.460938 L 12.210938 123.460938 L 12.226562 123.453125 Z M 12.496094 123.453125 Z M 12.25 123.9375 C 11.582031 124.019531 11.386719 124.820312 11.335938 125.359375 L 11.335938 125.574219 L 11.320312 125.589844 L 11.320312 126.691406 C 11.367188 127.265625 11.410156 128.003906 11.933594 128.382812 C 12.417969 128.714844 13.058594 128.34375 13.195312 127.828125 C 13.335938 127.445312 13.371094 127.074219 13.402344 126.691406 L 13.402344 125.589844 C 13.351562 125.011719 13.273438 124.199219 12.605469 123.96875 L 12.550781 123.953125 L 12.535156 123.9375 L 12.464844 123.9375 L 12.449219 123.921875 L 12.265625 123.921875 Z M 12.25 123.9375 Z M 12.25 123.9375 "/>
<path style=" stroke:none;fill-rule:nonzero;fill:rgb(0%,0%,0%);fill-opacity:1;" d="M 6.328125 99.613281 C 7.082031 99.671875 7.582031 100.359375 7.71875 101.058594 C 7.789062 101.378906 7.804688 101.679688 7.835938 101.996094 L 7.835938 102.804688 C 7.796875 103.632812 7.597656 104.71875 6.703125 105.050781 C 5.925781 105.363281 5.011719 104.878906 4.78125 104.082031 C 4.605469 103.664062 4.589844 103.234375 4.550781 102.804688 L 4.550781 101.996094 C 4.589844 101.171875 4.765625 100.074219 5.65625 99.710938 L 5.695312 99.695312 L 5.726562 99.6875 L 5.765625 99.671875 L 5.882812 99.640625 L 5.957031 99.621094 L 6.042969 99.621094 L 6.058594 99.613281 Z M 6.328125 99.613281 Z M 6.082031 100.097656 C 5.417969 100.179688 5.21875 100.980469 5.171875 101.519531 L 5.171875 101.734375 L 5.15625 101.75 L 5.15625 102.851562 C 5.203125 103.425781 5.242188 104.164062 5.765625 104.542969 C 6.25 104.878906 6.894531 104.503906 7.027344 103.988281 C 7.171875 103.605469 7.203125 103.234375 7.234375 102.851562 L 7.234375 101.75 C 7.1875 101.171875 7.105469 100.359375 6.441406 100.132812 L 6.382812 100.113281 L 6.367188 100.097656 L 6.296875 100.097656 L 6.28125 100.082031 L 6.097656 100.082031 Z M 6.082031 100.097656 Z M 6.082031 100.097656 "/>
<path style=" stroke:none;fill-rule:nonzero;fill:rgb(0%,0%,0%);fill-opacity:1;" d="M 9.605469 104.328125 L 9.605469 104.964844 L 8.964844 104.964844 L 8.964844 104.328125 Z M 9.605469 104.328125 Z M 9.605469 104.328125 "/>
<path style=" stroke:none;fill-rule:nonzero;fill:rgb(0%,0%,0%);fill-opacity:1;" d="M 12.410156 99.613281 C 13.328125 99.640625 14.058594 100.582031 13.917969 101.472656 C 13.820312 102.359375 12.988281 102.871094 12.394531 103.425781 L 12.140625 103.6875 L 12.105469 103.703125 L 11.789062 104.011719 L 11.765625 104.027344 L 11.449219 104.34375 L 11.417969 104.363281 L 11.34375 104.433594 L 11.359375 104.441406 L 13.933594 104.441406 L 13.933594 104.964844 L 10.789062 104.964844 L 10.789062 104.488281 L 12.066406 103.210938 C 12.679688 102.679688 13.394531 101.988281 13.28125 101.113281 C 13.21875 100.605469 12.789062 100.140625 12.265625 100.097656 C 11.734375 100.019531 11.265625 100.441406 11.148438 100.949219 L 11.132812 100.972656 L 11.113281 101.027344 L 11.089844 101.113281 L 11.042969 101.289062 L 11.035156 101.328125 C 10.925781 101.195312 10.804688 101.050781 10.71875 100.902344 C 10.878906 100.25 11.402344 99.640625 12.089844 99.613281 Z M 12.410156 99.613281 Z M 12.410156 99.613281 "/>
<path style=" stroke:none;fill-rule:nonzero;fill:rgb(0%,0%,0%);fill-opacity:1;" d="M 6.328125 75.777344 C 7.082031 75.832031 7.582031 76.523438 7.71875 77.21875 C 7.789062 77.539062 7.804688 77.839844 7.835938 78.15625 L 7.835938 78.964844 C 7.796875 79.792969 7.597656 80.878906 6.703125 81.210938 C 5.925781 81.523438 5.011719 81.039062 4.78125 80.246094 C 4.605469 79.824219 4.589844 79.394531 4.550781 78.964844 L 4.550781 78.15625 C 4.589844 77.332031 4.765625 76.234375 5.65625 75.871094 L 5.695312 75.855469 L 5.726562 75.847656 L 5.765625 75.832031 L 5.882812 75.800781 L 5.957031 75.785156 L 6.042969 75.785156 L 6.058594 75.777344 Z M 6.328125 75.777344 Z M 6.082031 76.261719 C 5.417969 76.339844 5.21875 77.140625 5.171875 77.679688 L 5.171875 77.894531 L 5.15625 77.910156 L 5.15625 79.015625 C 5.203125 79.585938 5.242188 80.324219 5.765625 80.703125 C 6.25 81.039062 6.894531 80.664062 7.027344 80.148438 C 7.171875 79.769531 7.203125 79.394531 7.234375 79.015625 L 7.234375 77.910156 C 7.1875 77.332031 7.105469 76.523438 6.441406 76.292969 L 6.382812 76.277344 L 6.367188 76.261719 L 6.296875 76.261719 L 6.28125 76.246094 L 6.097656 76.246094 Z M 6.082031 76.261719 Z M 6.082031 76.261719 "/>
<path style=" stroke:none;fill-rule:nonzero;fill:rgb(0%,0%,0%);fill-opacity:1;" d="M 9.605469 80.492188 L 9.605469 81.125 L 8.964844 81.125 L 8.964844 80.492188 Z M 9.605469 80.492188 Z M 9.605469 80.492188 "/>
<path style=" stroke:none;fill-rule:nonzero;fill:rgb(0%,0%,0%);fill-opacity:1;" d="M 13.3125 75.941406 L 13.3125 79.285156 L 13.328125 79.300781 L 14.117188 79.300781 L 14.117188 79.777344 L 13.328125 79.777344 L 13.3125 79.785156 L 13.3125 81.125 L 12.710938 81.125 L 12.710938 79.785156 L 12.695312 79.777344 L 10.597656 79.777344 L 10.597656 79.285156 C 11.265625 78.171875 11.933594 77.054688 12.597656 75.941406 Z M 13.3125 75.941406 Z M 12.726562 76.246094 C 12.566406 77.070312 12.058594 77.777344 11.679688 78.5 C 11.527344 78.761719 11.328125 79.046875 11.21875 79.300781 L 12.742188 79.300781 L 12.75 79.285156 L 12.75 76.246094 L 12.742188 76.226562 Z M 12.726562 76.246094 Z M 12.726562 76.246094 "/>
<path style=" stroke:none;fill-rule:nonzero;fill:rgb(0%,0%,0%);fill-opacity:1;" d="M 6.328125 51.9375 C 7.082031 51.992188 7.582031 52.683594 7.71875 53.382812 C 7.789062 53.699219 7.804688 54 7.835938 54.316406 L 7.835938 55.128906 C 7.796875 55.953125 7.597656 57.039062 6.703125 57.375 C 5.925781 57.683594 5.011719 57.199219 4.78125 56.40625 C 4.605469 55.984375 4.589844 55.554688 4.550781 55.128906 L 4.550781 54.316406 C 4.589844 53.492188 4.765625 52.398438 5.65625 52.03125 L 5.695312 52.015625 L 5.726562 52.007812 L 5.765625 51.992188 L 5.882812 51.960938 L 5.957031 51.945312 L 6.042969 51.945312 L 6.058594 51.9375 Z M 6.328125 51.9375 Z M 6.082031 52.421875 C 5.417969 52.5 5.21875 53.300781 5.171875 53.839844 L 5.171875 54.054688 L 5.15625 54.070312 L 5.15625 55.175781 C 5.203125 55.746094 5.242188 56.484375 5.765625 56.867188 C 6.25 57.199219 6.894531 56.824219 7.027344 56.308594 C 7.171875 55.929688 7.203125 55.554688 7.234375 55.175781 L 7.234375 54.070312 C 7.1875 53.492188 7.105469 52.683594 6.441406 52.453125 L 6.382812 52.4375 L 6.367188 52.421875 L 6.296875 52.421875 L 6.28125 52.40625 L 6.097656 52.40625 Z M 6.082031 52.421875 Z M 6.082031 52.421875 "/>
<path style=" stroke:none;fill-rule:nonzero;fill:rgb(0%,0%,0%);fill-opacity:1;" d="M 9.605469 56.652344 L 9.605469 57.285156 L 8.964844 57.285156 L 8.964844 56.652344 Z M 9.605469 56.652344 Z M 9.605469 56.652344 "/>
<path style=" stroke:none;fill-rule:nonzero;fill:rgb(0%,0%,0%);fill-opacity:1;" d="M 13.011719 51.9375 C 13.21875 51.96875 13.457031 51.992188 13.65625 52.085938 L 13.65625 52.546875 C 13.105469 52.308594 12.394531 52.277344 11.964844 52.761719 C 11.582031 53.167969 11.410156 53.769531 11.394531 54.300781 C 11.851562 53.691406 12.894531 53.351562 13.457031 53.984375 C 14.019531 54.636719 14.117188 55.570312 13.863281 56.367188 C 13.582031 57 12.941406 57.582031 12.226562 57.445312 C 11.257812 57.367188 10.820312 56.285156 10.773438 55.460938 C 10.589844 54.292969 10.867188 52.824219 11.980469 52.160156 L 11.996094 52.152344 L 12.164062 52.0625 L 12.210938 52.046875 L 12.234375 52.03125 L 12.480469 51.960938 L 12.550781 51.945312 L 12.640625 51.945312 L 12.65625 51.9375 Z M 13.011719 51.9375 Z M 12.234375 54.144531 C 11.542969 54.261719 11.320312 55.097656 11.410156 55.660156 C 11.449219 56.191406 11.65625 56.898438 12.265625 57.007812 C 12.917969 57.097656 13.335938 56.398438 13.351562 55.832031 C 13.386719 55.261719 13.351562 54.613281 12.851562 54.238281 L 12.742188 54.183594 L 12.65625 54.160156 L 12.582031 54.144531 L 12.566406 54.128906 L 12.25 54.128906 Z M 12.234375 54.144531 Z M 12.234375 54.144531 "/>
<path style=" stroke:none;fill-rule:nonzero;fill:rgb(0%,0%,0%);fill-opacity:1;" d="M 6.328125 28.097656 C 7.082031 28.152344 7.582031 28.84375 7.71875 29.542969 C 7.789062 29.859375 7.804688 30.160156 7.835938 30.480469 L 7.835938 31.289062 C 7.796875 32.113281 7.597656 33.203125 6.703125 33.535156 C 5.925781 33.84375 5.011719 33.359375 4.78125 32.566406 C 4.605469 32.144531 4.589844 31.71875 4.550781 31.289062 L 4.550781 30.480469 C 4.589844 29.652344 4.765625 28.558594 5.65625 28.191406 L 5.695312 28.175781 L 5.726562 28.167969 L 5.765625 28.152344 L 5.882812 28.121094 L 5.957031 28.105469 L 6.042969 28.105469 L 6.058594 28.097656 Z M 6.328125 28.097656 Z M 6.082031 28.582031 C 5.417969 28.660156 5.21875 29.464844 5.171875 30.003906 L 5.171875 30.21875 L 5.15625 30.234375 L 5.15625 31.335938 C 5.203125 31.90625 5.242188 32.644531 5.765625 33.027344 C 6.25 33.359375 6.894531 32.988281 7.027344 32.472656 C 7.171875 32.089844 7.203125 31.71875 7.234375 31.335938 L 7.234375 30.234375 C 7.1875 29.652344 7.105469 28.84375 6.441406 28.613281 L 6.382812 28.597656 L 6.367188 28.582031 L 6.296875 28.582031 L 6.28125 28.566406 L 6.097656 28.566406 Z M 6.082031 28.582031 Z M 6.082031 28.582031 "/>
<path style=" stroke:none;fill-rule:nonzero;fill:rgb(0%,0%,0%);fill-opacity:1;" d="M 9.605469 32.8125 L 9.605469 33.449219 L 8.964844 33.449219 L 8.964844 32.8125 Z M 9.605469 32.8125 Z M 9.605469 32.8125 "/>
<path style=" stroke:none;fill-rule:nonzero;fill:rgb(0%,0%,0%);fill-opacity:1;" d="M 12.511719 28.097656 C 13.351562 28.128906 14.148438 29.035156 13.8125 29.875 C 13.671875 30.265625 13.273438 30.503906 12.949219 30.667969 C 13.757812 30.90625 14.25 31.851562 13.886719 32.628906 C 13.503906 33.636719 12.058594 33.957031 11.265625 33.226562 C 10.542969 32.652344 10.519531 31.414062 11.320312 30.90625 C 11.441406 30.78125 11.664062 30.742188 11.765625 30.644531 C 11.074219 30.445312 10.605469 29.644531 10.933594 28.972656 C 11.195312 28.367188 11.871094 28.035156 12.511719 28.097656 Z M 12.511719 28.097656 Z M 12.210938 28.550781 C 11.625 28.566406 11.210938 29.234375 11.410156 29.757812 C 11.640625 30.660156 13.15625 30.628906 13.328125 29.699219 C 13.488281 29.183594 13.074219 28.566406 12.511719 28.550781 L 12.496094 28.542969 L 12.226562 28.542969 Z M 12.210938 28.550781 Z M 12.226562 30.90625 C 11.535156 30.957031 11.195312 31.78125 11.378906 32.367188 C 11.496094 33.203125 12.6875 33.449219 13.15625 32.78125 C 13.605469 32.167969 13.386719 31.074219 12.566406 30.90625 L 12.496094 30.90625 L 12.480469 30.890625 L 12.234375 30.890625 Z M 12.226562 30.90625 Z M 12.226562 30.90625 "/>
<path style=" stroke:none;fill-rule:nonzero;fill:rgb(0%,0%,0%);fill-opacity:1;" d="M 6.574219 4.257812 L 6.574219 9.15625 L 6.582031 9.171875 L 7.558594 9.171875 L 7.558594 9.609375 L 4.980469 9.609375 L 4.980469 9.171875 L 5.957031 9.171875 L 5.972656 9.15625 L 5.972656 5.042969 C 5.636719 5.15625 5.289062 5.226562 4.941406 5.21875 L 4.941406 4.773438 C 5.464844 4.78125 6.035156 4.640625 6.433594 4.257812 Z M 6.574219 4.257812 Z M 6.574219 4.257812 "/>
<path style=" stroke:none;fill-rule:nonzero;fill:rgb(0%,0%,0%);fill-opacity:1;" d="M 9.605469 8.972656 L 9.605469 9.609375 L 8.964844 9.609375 L 8.964844 8.972656 Z M 9.605469 8.972656 Z M 9.605469 8.972656 "/>
<path style=" stroke:none;fill-rule:nonzero;fill:rgb(0%,0%,0%);fill-opacity:1;" d="M 12.496094 4.257812 C 13.25 4.3125 13.75 5.003906 13.886719 5.703125 C 13.957031 6.019531 13.972656 6.324219 14.003906 6.640625 L 14.003906 7.449219 C 13.964844 8.273438 13.765625 9.363281 12.871094 9.695312 C 12.089844 10.003906 11.179688 9.519531 10.949219 8.726562 C 10.773438 8.304688 10.757812 7.878906 10.71875 7.449219 L 10.71875 6.640625 C 10.757812 5.8125 10.933594 4.71875 11.820312 4.355469 L 11.859375 4.339844 L 11.894531 4.332031 L 11.933594 4.3125 L 12.050781 4.28125 L 12.125 4.265625 L 12.210938 4.265625 L 12.226562 4.257812 Z M 12.496094 4.257812 Z M 12.25 4.742188 C 11.582031 4.820312 11.386719 5.625 11.335938 6.164062 L 11.335938 6.378906 L 11.320312 6.394531 L 11.320312 7.496094 C 11.367188 8.070312 11.410156 8.804688 11.933594 9.1875 C 12.417969 9.519531 13.058594 9.148438 13.195312 8.632812 C 13.335938 8.25 13.371094 7.878906 13.402344 7.496094 L 13.402344 6.394531 C 13.351562 5.8125 13.273438 5.003906 12.605469 4.773438 L 12.550781 4.757812 L 12.535156 4.742188 L 12.464844 4.742188 L 12.449219 4.726562 L 12.265625 4.726562 Z M 12.25 4.742188 Z M 12.25 4.742188 "/>
<path style="fill:none;stroke-width:0.02;stroke-linecap:butt;stroke-linejoin:miter;stroke:rgb(0%,0%,0%);stroke-opacity:1;stroke-miterlimit:10;" d="M 11.701198 1.219459 L 11.596191 1.219459 " transform="matrix(28.346457,0,0,-28.346457,1,256.11811)"/>
<path style="fill:none;stroke-width:0.02;stroke-linecap:butt;stroke-linejoin:miter;stroke:rgb(0%,0%,0%);stroke-opacity:1;stroke-miterlimit:10;" d="M 11.701198 2.060337 L 11.596191 2.060337 " transform="matrix(28.346457,0,0,-28.346457,1,256.11811)"/>
<path style="fill:none;stroke-width:0.02;stroke-linecap:butt;stroke-linejoin:miter;stroke:rgb(0%,0%,0%);stroke-opacity:1;stroke-miterlimit:10;" d="M 11.701198 2.901354 L 11.596191 2.901354 " transform="matrix(28.346457,0,0,-28.346457,1,256.11811)"/>
<path style="fill:none;stroke-width:0.02;stroke-linecap:butt;stroke-linejoin:miter;stroke:rgb(0%,0%,0%);stroke-opacity:1;stroke-miterlimit:10;" d="M 11.701198 3.742371 L 11.596191 3.742371 " transform="matrix(28.346457,0,0,-28.346457,1,256.11811)"/>
<path style="fill:none;stroke-width:0.02;stroke-linecap:butt;stroke-linejoin:miter;stroke:rgb(0%,0%,0%);stroke-opacity:1;stroke-miterlimit:10;" d="M 11.701198 4.583388 L 11.596191 4.583388 " transform="matrix(28.346457,0,0,-28.346457,1,256.11811)"/>
<path style="fill:none;stroke-width:0.02;stroke-linecap:butt;stroke-linejoin:miter;stroke:rgb(0%,0%,0%);stroke-opacity:1;stroke-miterlimit:10;" d="M 11.701198 5.424404 L 11.596191 5.424404 " transform="matrix(28.346457,0,0,-28.346457,1,256.11811)"/>
<path style="fill:none;stroke-width:0.02;stroke-linecap:butt;stroke-linejoin:miter;stroke:rgb(0%,0%,0%);stroke-opacity:1;stroke-miterlimit:10;" d="M 11.701198 6.265283 L 11.596191 6.265283 " transform="matrix(28.346457,0,0,-28.346457,1,256.11811)"/>
<path style="fill:none;stroke-width:0.02;stroke-linecap:butt;stroke-linejoin:miter;stroke:rgb(0%,0%,0%);stroke-opacity:1;stroke-miterlimit:10;" d="M 11.701198 7.1063 L 11.596191 7.1063 " transform="matrix(28.346457,0,0,-28.346457,1,256.11811)"/>
<path style="fill:none;stroke-width:0.02;stroke-linecap:butt;stroke-linejoin:miter;stroke:rgb(0%,0%,0%);stroke-opacity:1;stroke-miterlimit:10;" d="M 11.701198 7.947317 L 11.596191 7.947317 " transform="matrix(28.346457,0,0,-28.346457,1,256.11811)"/>
<path style="fill:none;stroke-width:0.02;stroke-linecap:round;stroke-linejoin:miter;stroke:rgb(0%,0%,0%);stroke-opacity:1;stroke-miterlimit:10;" d="M 11.701198 0.378442 L 11.701198 8.788333 " transform="matrix(28.346457,0,0,-28.346457,1,256.11811)"/>
<path style="fill:none;stroke-width:0.02;stroke-linecap:butt;stroke-linejoin:miter;stroke:rgb(0%,0%,0%);stroke-opacity:1;stroke-miterlimit:10;" d="M 1.751349 0.378442 L 1.751349 0.483448 " transform="matrix(28.346457,0,0,-28.346457,1,256.11811)"/>
<path style="fill:none;stroke-width:0.02;stroke-linecap:butt;stroke-linejoin:miter;stroke:rgb(0%,0%,0%);stroke-opacity:1;stroke-miterlimit:10;" d="M 2.856949 0.378442 L 2.856949 0.483448 " transform="matrix(28.346457,0,0,-28.346457,1,256.11811)"/>
<path style="fill:none;stroke-width:0.02;stroke-linecap:butt;stroke-linejoin:miter;stroke:rgb(0%,0%,0%);stroke-opacity:1;stroke-miterlimit:10;" d="M 3.962411 0.378442 L 3.962411 0.483448 " transform="matrix(28.346457,0,0,-28.346457,1,256.11811)"/>
<path style="fill:none;stroke-width:0.02;stroke-linecap:butt;stroke-linejoin:miter;stroke:rgb(0%,0%,0%);stroke-opacity:1;stroke-miterlimit:10;" d="M 5.068011 0.378442 L 5.068011 0.483448 " transform="matrix(28.346457,0,0,-28.346457,1,256.11811)"/>
<path style="fill:none;stroke-width:0.02;stroke-linecap:butt;stroke-linejoin:miter;stroke:rgb(0%,0%,0%);stroke-opacity:1;stroke-miterlimit:10;" d="M 6.173473 0.378442 L 6.173473 0.483448 " transform="matrix(28.346457,0,0,-28.346457,1,256.11811)"/>
<path style="fill:none;stroke-width:0.02;stroke-linecap:butt;stroke-linejoin:miter;stroke:rgb(0%,0%,0%);stroke-opacity:1;stroke-miterlimit:10;" d="M 7.279073 0.378442 L 7.279073 0.483448 " transform="matrix(28.346457,0,0,-28.346457,1,256.11811)"/>
<path style="fill:none;stroke-width:0.02;stroke-linecap:butt;stroke-linejoin:miter;stroke:rgb(0%,0%,0%);stroke-opacity:1;stroke-miterlimit:10;" d="M 8.384536 0.378442 L 8.384536 0.483448 " transform="matrix(28.346457,0,0,-28.346457,1,256.11811)"/>
<path style="fill:none;stroke-width:0.02;stroke-linecap:butt;stroke-linejoin:miter;stroke:rgb(0%,0%,0%);stroke-opacity:1;stroke-miterlimit:10;" d="M 9.490136 0.378442 L 9.490136 0.483448 " transform="matrix(28.346457,0,0,-28.346457,1,256.11811)"/>
<path style="fill:none;stroke-width:0.02;stroke-linecap:butt;stroke-linejoin:miter;stroke:rgb(0%,0%,0%);stroke-opacity:1;stroke-miterlimit:10;" d="M 10.595736 0.378442 L 10.595736 0.483448 " transform="matrix(28.346457,0,0,-28.346457,1,256.11811)"/>
<path style="fill:none;stroke-width:0.02;stroke-linecap:round;stroke-linejoin:miter;stroke:rgb(0%,0%,0%);stroke-opacity:1;stroke-miterlimit:10;" d="M 0.645749 0.378442 L 11.701198 0.378442 " transform="matrix(28.346457,0,0,-28.346457,1,256.11811)"/>
<path style=" stroke:none;fill-rule:nonzero;fill:rgb(0%,0%,0%);fill-opacity:1;" d="M 15.089844 253.589844 L 15.089844 254.035156 L 13.011719 254.035156 L 13.011719 253.589844 Z M 15.089844 253.589844 Z M 15.089844 253.589844 "/>
<path style=" stroke:none;fill-rule:nonzero;fill:rgb(0%,0%,0%);fill-opacity:1;" d="M 17.925781 250.210938 L 17.925781 255.105469 L 17.933594 255.121094 L 18.910156 255.121094 L 18.910156 255.558594 L 16.328125 255.558594 L 16.328125 255.121094 L 17.304688 255.121094 L 17.320312 255.105469 L 17.320312 250.996094 C 16.988281 251.105469 16.640625 251.179688 16.289062 251.171875 L 16.289062 250.726562 C 16.8125 250.734375 17.386719 250.589844 17.78125 250.210938 Z M 17.925781 250.210938 Z M 17.925781 250.210938 "/>
<path style=" stroke:none;fill-rule:nonzero;fill:rgb(0%,0%,0%);fill-opacity:1;" d="M 20.957031 254.925781 L 20.957031 255.558594 L 20.3125 255.558594 L 20.3125 254.925781 Z M 20.957031 254.925781 Z M 20.957031 254.925781 "/>
<path style=" stroke:none;fill-rule:nonzero;fill:rgb(0%,0%,0%);fill-opacity:1;" d="M 23.847656 250.210938 C 24.601562 250.265625 25.101562 250.957031 25.234375 251.652344 C 25.304688 251.972656 25.324219 252.273438 25.355469 252.589844 L 25.355469 253.398438 C 25.316406 254.226562 25.117188 255.3125 24.21875 255.644531 C 23.441406 255.957031 22.527344 255.472656 22.296875 254.679688 C 22.125 254.257812 22.109375 253.828125 22.066406 253.398438 L 22.066406 252.589844 C 22.109375 251.765625 22.28125 250.667969 23.171875 250.304688 L 23.210938 250.289062 L 23.242188 250.28125 L 23.28125 250.265625 L 23.402344 250.234375 L 23.472656 250.21875 L 23.558594 250.21875 L 23.578125 250.210938 Z M 23.847656 250.210938 Z M 23.601562 250.695312 C 22.933594 250.773438 22.734375 251.574219 22.6875 252.113281 L 22.6875 252.328125 L 22.671875 252.34375 L 22.671875 253.449219 C 22.71875 254.019531 22.757812 254.757812 23.28125 255.136719 C 23.765625 255.472656 24.410156 255.097656 24.542969 254.582031 C 24.6875 254.203125 24.71875 253.828125 24.75 253.449219 L 24.75 252.34375 C 24.703125 251.765625 24.625 250.957031 23.957031 250.726562 L 23.902344 250.710938 L 23.886719 250.695312 L 23.8125 250.695312 L 23.796875 250.679688 L 23.617188 250.679688 Z M 23.601562 250.695312 Z M 23.601562 250.695312 "/>
<path style=" stroke:none;fill-rule:nonzero;fill:rgb(0%,0%,0%);fill-opacity:1;" d="M 46.429688 253.589844 L 46.429688 254.035156 L 44.351562 254.035156 L 44.351562 253.589844 Z M 46.429688 253.589844 Z M 46.429688 253.589844 "/>
<path style=" stroke:none;fill-rule:nonzero;fill:rgb(0%,0%,0%);fill-opacity:1;" d="M 49.015625 250.210938 C 49.769531 250.265625 50.269531 250.957031 50.40625 251.652344 C 50.476562 251.972656 50.492188 252.273438 50.523438 252.589844 L 50.523438 253.398438 C 50.484375 254.226562 50.289062 255.3125 49.390625 255.644531 C 48.613281 255.957031 47.699219 255.472656 47.46875 254.679688 C 47.296875 254.257812 47.277344 253.828125 47.238281 253.398438 L 47.238281 252.589844 C 47.277344 251.765625 47.453125 250.667969 48.34375 250.304688 L 48.382812 250.289062 L 48.414062 250.28125 L 48.453125 250.265625 L 48.574219 250.234375 L 48.644531 250.21875 L 48.730469 250.21875 L 48.746094 250.210938 Z M 49.015625 250.210938 Z M 48.769531 250.695312 C 48.105469 250.773438 47.90625 251.574219 47.859375 252.113281 L 47.859375 252.328125 L 47.84375 252.34375 L 47.84375 253.449219 C 47.890625 254.019531 47.929688 254.757812 48.453125 255.136719 C 48.9375 255.472656 49.582031 255.097656 49.714844 254.582031 C 49.859375 254.203125 49.890625 253.828125 49.921875 253.449219 L 49.921875 252.34375 C 49.875 251.765625 49.796875 250.957031 49.128906 250.726562 L 49.074219 250.710938 L 49.058594 250.695312 L 48.984375 250.695312 L 48.96875 250.679688 L 48.785156 250.679688 Z M 48.769531 250.695312 Z M 48.769531 250.695312 "/>
<path style=" stroke:none;fill-rule:nonzero;fill:rgb(0%,0%,0%);fill-opacity:1;" d="M 52.296875 254.925781 L 52.296875 255.558594 L 51.652344 255.558594 L 51.652344 254.925781 Z M 52.296875 254.925781 Z M 52.296875 254.925781 "/>
<path style=" stroke:none;fill-rule:nonzero;fill:rgb(0%,0%,0%);fill-opacity:1;" d="M 55.199219 250.210938 C 56.042969 250.242188 56.835938 251.144531 56.5 251.988281 C 56.359375 252.375 55.960938 252.613281 55.636719 252.78125 C 56.445312 253.019531 56.9375 253.964844 56.574219 254.742188 C 56.191406 255.75 54.746094 256.066406 53.953125 255.335938 C 53.230469 254.765625 53.207031 253.527344 54.007812 253.019531 C 54.128906 252.890625 54.351562 252.851562 54.453125 252.757812 C 53.761719 252.558594 53.296875 251.757812 53.621094 251.082031 C 53.882812 250.480469 54.558594 250.144531 55.199219 250.210938 Z M 55.199219 250.210938 Z M 54.898438 250.660156 C 54.3125 250.679688 53.898438 251.34375 54.097656 251.867188 C 54.328125 252.773438 55.84375 252.742188 56.019531 251.8125 C 56.175781 251.296875 55.765625 250.679688 55.199219 250.660156 L 55.183594 250.652344 L 54.914062 250.652344 Z M 54.898438 250.660156 Z M 54.914062 253.019531 C 54.222656 253.066406 53.882812 253.890625 54.066406 254.480469 C 54.183594 255.3125 55.375 255.558594 55.84375 254.890625 C 56.296875 254.28125 56.074219 253.1875 55.253906 253.019531 L 55.183594 253.019531 L 55.167969 253.003906 L 54.921875 253.003906 Z M 54.914062 253.019531 Z M 54.914062 253.019531 "/>
<path style=" stroke:none;fill-rule:nonzero;fill:rgb(0%,0%,0%);fill-opacity:1;" d="M 77.769531 253.589844 L 77.769531 254.035156 L 75.6875 254.035156 L 75.6875 253.589844 Z M 77.769531 253.589844 Z M 77.769531 253.589844 "/>
<path style=" stroke:none;fill-rule:nonzero;fill:rgb(0%,0%,0%);fill-opacity:1;" d="M 80.355469 250.210938 C 81.109375 250.265625 81.609375 250.957031 81.746094 251.652344 C 81.816406 251.972656 81.832031 252.273438 81.863281 252.589844 L 81.863281 253.398438 C 81.824219 254.226562 81.625 255.3125 80.726562 255.644531 C 79.949219 255.957031 79.039062 255.472656 78.808594 254.679688 C 78.632812 254.257812 78.617188 253.828125 78.578125 253.398438 L 78.578125 252.589844 C 78.617188 251.765625 78.792969 250.667969 79.679688 250.304688 L 79.71875 250.289062 L 79.753906 250.28125 L 79.792969 250.265625 L 79.910156 250.234375 L 79.980469 250.21875 L 80.070312 250.21875 L 80.085938 250.210938 Z M 80.355469 250.210938 Z M 80.109375 250.695312 C 79.441406 250.773438 79.246094 251.574219 79.195312 252.113281 L 79.195312 252.328125 L 79.179688 252.34375 L 79.179688 253.449219 C 79.226562 254.019531 79.269531 254.757812 79.792969 255.136719 C 80.277344 255.472656 80.917969 255.097656 81.054688 254.582031 C 81.195312 254.203125 81.230469 253.828125 81.261719 253.449219 L 81.261719 252.34375 C 81.210938 251.765625 81.132812 250.957031 80.464844 250.726562 L 80.410156 250.710938 L 80.394531 250.695312 L 80.324219 250.695312 L 80.308594 250.679688 L 80.125 250.679688 Z M 80.109375 250.695312 Z M 80.109375 250.695312 "/>
<path style=" stroke:none;fill-rule:nonzero;fill:rgb(0%,0%,0%);fill-opacity:1;" d="M 83.632812 254.925781 L 83.632812 255.558594 L 82.992188 255.558594 L 82.992188 254.925781 Z M 83.632812 254.925781 Z M 83.632812 254.925781 "/>
<path style=" stroke:none;fill-rule:nonzero;fill:rgb(0%,0%,0%);fill-opacity:1;" d="M 87.039062 250.210938 C 87.246094 250.242188 87.484375 250.265625 87.679688 250.359375 L 87.679688 250.820312 C 87.132812 250.582031 86.417969 250.550781 85.992188 251.035156 C 85.609375 251.441406 85.433594 252.042969 85.417969 252.574219 C 85.878906 251.964844 86.917969 251.621094 87.484375 252.257812 C 88.046875 252.90625 88.140625 253.84375 87.886719 254.636719 C 87.609375 255.273438 86.96875 255.851562 86.253906 255.71875 C 85.285156 255.636719 84.847656 254.558594 84.800781 253.734375 C 84.617188 252.566406 84.894531 251.097656 86.007812 250.433594 L 86.023438 250.425781 L 86.1875 250.335938 L 86.238281 250.320312 L 86.261719 250.304688 L 86.394531 250.265625 L 86.507812 250.234375 L 86.578125 250.21875 L 86.664062 250.21875 L 86.679688 250.210938 Z M 87.039062 250.210938 Z M 86.261719 252.417969 C 85.570312 252.535156 85.347656 253.367188 85.433594 253.933594 C 85.476562 254.464844 85.679688 255.171875 86.292969 255.28125 C 86.941406 255.367188 87.363281 254.671875 87.378906 254.105469 C 87.410156 253.535156 87.378906 252.882812 86.878906 252.511719 L 86.769531 252.457031 L 86.679688 252.433594 L 86.609375 252.417969 L 86.59375 252.398438 L 86.277344 252.398438 Z M 86.261719 252.417969 Z M 86.261719 252.417969 "/>
<path style=" stroke:none;fill-rule:nonzero;fill:rgb(0%,0%,0%);fill-opacity:1;" d="M 109.105469 253.589844 L 109.105469 254.035156 L 107.027344 254.035156 L 107.027344 253.589844 Z M 109.105469 253.589844 Z M 109.105469 253.589844 "/>
<path style=" stroke:none;fill-rule:nonzero;fill:rgb(0%,0%,0%);fill-opacity:1;" d="M 111.695312 250.210938 C 112.449219 250.265625 112.949219 250.957031 113.082031 251.652344 C 113.152344 251.972656 113.171875 252.273438 113.203125 252.589844 L 113.203125 253.398438 C 113.160156 254.226562 112.964844 255.3125 112.066406 255.644531 C 111.289062 255.957031 110.375 255.472656 110.144531 254.679688 C 109.972656 254.257812 109.957031 253.828125 109.914062 253.398438 L 109.914062 252.589844 C 109.957031 251.765625 110.128906 250.667969 111.019531 250.304688 L 111.058594 250.289062 L 111.089844 250.28125 L 111.128906 250.265625 L 111.25 250.234375 L 111.320312 250.21875 L 111.40625 250.21875 L 111.421875 250.210938 Z M 111.695312 250.210938 Z M 111.449219 250.695312 C 110.78125 250.773438 110.582031 251.574219 110.535156 252.113281 L 110.535156 252.328125 L 110.519531 252.34375 L 110.519531 253.449219 C 110.566406 254.019531 110.605469 254.757812 111.128906 255.136719 C 111.613281 255.472656 112.257812 255.097656 112.390625 254.582031 C 112.535156 254.203125 112.566406 253.828125 112.597656 253.449219 L 112.597656 252.34375 C 112.550781 251.765625 112.472656 250.957031 111.804688 250.726562 L 111.75 250.710938 L 111.734375 250.695312 L 111.660156 250.695312 L 111.644531 250.679688 L 111.464844 250.679688 Z M 111.449219 250.695312 Z M 111.449219 250.695312 "/>
<path style=" stroke:none;fill-rule:nonzero;fill:rgb(0%,0%,0%);fill-opacity:1;" d="M 114.972656 254.925781 L 114.972656 255.558594 L 114.328125 255.558594 L 114.328125 254.925781 Z M 114.972656 254.925781 Z M 114.972656 254.925781 "/>
<path style=" stroke:none;fill-rule:nonzero;fill:rgb(0%,0%,0%);fill-opacity:1;" d="M 118.679688 250.375 L 118.679688 253.71875 L 118.695312 253.734375 L 119.480469 253.734375 L 119.480469 254.210938 L 118.695312 254.210938 L 118.679688 254.21875 L 118.679688 255.558594 L 118.074219 255.558594 L 118.074219 254.21875 L 118.058594 254.210938 L 115.964844 254.210938 L 115.964844 253.71875 C 116.628906 252.605469 117.296875 251.488281 117.964844 250.375 Z M 118.679688 250.375 Z M 118.089844 250.679688 C 117.933594 251.503906 117.425781 252.210938 117.042969 252.933594 C 116.890625 253.195312 116.695312 253.480469 116.582031 253.734375 L 118.105469 253.734375 L 118.113281 253.71875 L 118.113281 250.679688 L 118.105469 250.660156 Z M 118.089844 250.679688 Z M 118.089844 250.679688 "/>
<path style=" stroke:none;fill-rule:nonzero;fill:rgb(0%,0%,0%);fill-opacity:1;" d="M 140.445312 253.589844 L 140.445312 254.035156 L 138.363281 254.035156 L 138.363281 253.589844 Z M 140.445312 253.589844 Z M 140.445312 253.589844 "/>
<path style=" stroke:none;fill-rule:nonzero;fill:rgb(0%,0%,0%);fill-opacity:1;" d="M 143.03125 250.210938 C 143.785156 250.265625 144.285156 250.957031 144.421875 251.652344 C 144.492188 251.972656 144.507812 252.273438 144.539062 252.589844 L 144.539062 253.398438 C 144.5 254.226562 144.300781 255.3125 143.40625 255.644531 C 142.628906 255.957031 141.714844 255.472656 141.484375 254.679688 C 141.308594 254.257812 141.292969 253.828125 141.253906 253.398438 L 141.253906 252.589844 C 141.292969 251.765625 141.46875 250.667969 142.355469 250.304688 L 142.398438 250.289062 L 142.429688 250.28125 L 142.46875 250.265625 L 142.585938 250.234375 L 142.660156 250.21875 L 142.746094 250.21875 L 142.761719 250.210938 Z M 143.03125 250.210938 Z M 142.785156 250.695312 C 142.117188 250.773438 141.921875 251.574219 141.871094 252.113281 L 141.871094 252.328125 L 141.855469 252.34375 L 141.855469 253.449219 C 141.90625 254.019531 141.945312 254.757812 142.46875 255.136719 C 142.953125 255.472656 143.59375 255.097656 143.730469 254.582031 C 143.875 254.203125 143.90625 253.828125 143.9375 253.449219 L 143.9375 252.34375 C 143.890625 251.765625 143.808594 250.957031 143.144531 250.726562 L 143.085938 250.710938 L 143.070312 250.695312 L 143 250.695312 L 142.984375 250.679688 L 142.800781 250.679688 Z M 142.785156 250.695312 Z M 142.785156 250.695312 "/>
<path style=" stroke:none;fill-rule:nonzero;fill:rgb(0%,0%,0%);fill-opacity:1;" d="M 146.308594 254.925781 L 146.308594 255.558594 L 145.667969 255.558594 L 145.667969 254.925781 Z M 146.308594 254.925781 Z M 146.308594 254.925781 "/>
<path style=" stroke:none;fill-rule:nonzero;fill:rgb(0%,0%,0%);fill-opacity:1;" d="M 149.113281 250.210938 C 150.03125 250.234375 150.761719 251.179688 150.621094 252.066406 C 150.523438 252.957031 149.691406 253.464844 149.097656 254.019531 L 148.839844 254.28125 L 148.808594 254.296875 L 148.492188 254.605469 L 148.46875 254.621094 L 148.152344 254.941406 L 148.121094 254.957031 L 148.046875 255.027344 L 148.0625 255.035156 L 150.636719 255.035156 L 150.636719 255.558594 L 147.492188 255.558594 L 147.492188 255.082031 L 148.769531 253.804688 C 149.382812 253.273438 150.097656 252.582031 149.984375 251.710938 C 149.921875 251.203125 149.492188 250.734375 148.96875 250.695312 C 148.4375 250.613281 147.96875 251.035156 147.851562 251.542969 L 147.832031 251.566406 L 147.816406 251.621094 L 147.792969 251.710938 L 147.746094 251.882812 L 147.738281 251.925781 C 147.628906 251.789062 147.507812 251.644531 147.421875 251.496094 C 147.578125 250.84375 148.105469 250.234375 148.792969 250.210938 Z M 149.113281 250.210938 Z M 149.113281 250.210938 "/>
<path style=" stroke:none;fill-rule:nonzero;fill:rgb(0%,0%,0%);fill-opacity:1;" d="M 173.046875 250.210938 C 173.800781 250.265625 174.300781 250.957031 174.4375 251.652344 C 174.507812 251.972656 174.523438 252.273438 174.554688 252.589844 L 174.554688 253.398438 C 174.515625 254.226562 174.320312 255.3125 173.421875 255.644531 C 172.644531 255.957031 171.730469 255.472656 171.5 254.679688 C 171.328125 254.257812 171.308594 253.828125 171.269531 253.398438 L 171.269531 252.589844 C 171.308594 251.765625 171.484375 250.667969 172.375 250.304688 L 172.414062 250.289062 L 172.445312 250.28125 L 172.484375 250.265625 L 172.605469 250.234375 L 172.675781 250.21875 L 172.761719 250.21875 L 172.777344 250.210938 Z M 173.046875 250.210938 Z M 172.800781 250.695312 C 172.136719 250.773438 171.9375 251.574219 171.890625 252.113281 L 171.890625 252.328125 L 171.875 252.34375 L 171.875 253.449219 C 171.921875 254.019531 171.960938 254.757812 172.484375 255.136719 C 172.96875 255.472656 173.613281 255.097656 173.746094 254.582031 C 173.890625 254.203125 173.921875 253.828125 173.953125 253.449219 L 173.953125 252.34375 C 173.90625 251.765625 173.828125 250.957031 173.160156 250.726562 L 173.105469 250.710938 L 173.089844 250.695312 L 173.015625 250.695312 L 173 250.679688 L 172.820312 250.679688 Z M 172.800781 250.695312 Z M 172.800781 250.695312 "/>
<path style=" stroke:none;fill-rule:nonzero;fill:rgb(0%,0%,0%);fill-opacity:1;" d="M 176.328125 254.925781 L 176.328125 255.558594 L 175.683594 255.558594 L 175.683594 254.925781 Z M 176.328125 254.925781 Z M 176.328125 254.925781 "/>
<path style=" stroke:none;fill-rule:nonzero;fill:rgb(0%,0%,0%);fill-opacity:1;" d="M 179.214844 250.210938 C 179.96875 250.265625 180.46875 250.957031 180.605469 251.652344 C 180.675781 251.972656 180.691406 252.273438 180.722656 252.589844 L 180.722656 253.398438 C 180.683594 254.226562 180.484375 255.3125 179.589844 255.644531 C 178.8125 255.957031 177.898438 255.472656 177.667969 254.679688 C 177.492188 254.257812 177.476562 253.828125 177.4375 253.398438 L 177.4375 252.589844 C 177.476562 251.765625 177.652344 250.667969 178.539062 250.304688 L 178.582031 250.289062 L 178.613281 250.28125 L 178.652344 250.265625 L 178.769531 250.234375 L 178.84375 250.21875 L 178.929688 250.21875 L 178.945312 250.210938 Z M 179.214844 250.210938 Z M 178.96875 250.695312 C 178.304688 250.773438 178.105469 251.574219 178.058594 252.113281 L 178.058594 252.328125 L 178.039062 252.34375 L 178.039062 253.449219 C 178.089844 254.019531 178.128906 254.757812 178.652344 255.136719 C 179.136719 255.472656 179.777344 255.097656 179.914062 254.582031 C 180.058594 254.203125 180.089844 253.828125 180.121094 253.449219 L 180.121094 252.34375 C 180.074219 251.765625 179.992188 250.957031 179.328125 250.726562 L 179.269531 250.710938 L 179.253906 250.695312 L 179.183594 250.695312 L 179.167969 250.679688 L 178.984375 250.679688 Z M 178.96875 250.695312 Z M 178.96875 250.695312 "/>
<path style=" stroke:none;fill-rule:nonzero;fill:rgb(0%,0%,0%);fill-opacity:1;" d="M 204.386719 250.210938 C 205.140625 250.265625 205.640625 250.957031 205.777344 251.652344 C 205.847656 251.972656 205.863281 252.273438 205.894531 252.589844 L 205.894531 253.398438 C 205.855469 254.226562 205.65625 255.3125 204.761719 255.644531 C 203.980469 255.957031 203.070312 255.472656 202.839844 254.679688 C 202.664062 254.257812 202.648438 253.828125 202.609375 253.398438 L 202.609375 252.589844 C 202.648438 251.765625 202.824219 250.667969 203.710938 250.304688 L 203.75 250.289062 L 203.785156 250.28125 L 203.824219 250.265625 L 203.941406 250.234375 L 204.015625 250.21875 L 204.101562 250.21875 L 204.117188 250.210938 Z M 204.386719 250.210938 Z M 204.140625 250.695312 C 203.472656 250.773438 203.277344 251.574219 203.226562 252.113281 L 203.226562 252.328125 L 203.210938 252.34375 L 203.210938 253.449219 C 203.257812 254.019531 203.300781 254.757812 203.824219 255.136719 C 204.308594 255.472656 204.949219 255.097656 205.085938 254.582031 C 205.226562 254.203125 205.261719 253.828125 205.292969 253.449219 L 205.292969 252.34375 C 205.242188 251.765625 205.164062 250.957031 204.496094 250.726562 L 204.441406 250.710938 L 204.425781 250.695312 L 204.355469 250.695312 L 204.339844 250.679688 L 204.15625 250.679688 Z M 204.140625 250.695312 Z M 204.140625 250.695312 "/>
<path style=" stroke:none;fill-rule:nonzero;fill:rgb(0%,0%,0%);fill-opacity:1;" d="M 207.664062 254.925781 L 207.664062 255.558594 L 207.023438 255.558594 L 207.023438 254.925781 Z M 207.664062 254.925781 Z M 207.664062 254.925781 "/>
<path style=" stroke:none;fill-rule:nonzero;fill:rgb(0%,0%,0%);fill-opacity:1;" d="M 210.464844 250.210938 C 211.386719 250.234375 212.117188 251.179688 211.972656 252.066406 C 211.878906 252.957031 211.046875 253.464844 210.449219 254.019531 L 210.195312 254.28125 L 210.164062 254.296875 L 209.847656 254.605469 L 209.824219 254.621094 L 209.507812 254.941406 L 209.472656 254.957031 L 209.402344 255.027344 L 209.417969 255.035156 L 211.992188 255.035156 L 211.992188 255.558594 L 208.847656 255.558594 L 208.847656 255.082031 L 210.125 253.804688 C 210.738281 253.273438 211.449219 252.582031 211.339844 251.710938 C 211.277344 251.203125 210.847656 250.734375 210.324219 250.695312 C 209.792969 250.613281 209.324219 251.035156 209.203125 251.542969 L 209.1875 251.566406 L 209.171875 251.621094 L 209.148438 251.710938 L 209.101562 251.882812 L 209.09375 251.925781 C 208.980469 251.789062 208.863281 251.644531 208.777344 251.496094 C 208.933594 250.84375 209.457031 250.234375 210.148438 250.210938 Z M 210.464844 250.210938 Z M 210.464844 250.210938 "/>
<path style=" stroke:none;fill-rule:nonzero;fill:rgb(0%,0%,0%);fill-opacity:1;" d="M 235.726562 250.210938 C 236.480469 250.265625 236.980469 250.957031 237.113281 251.652344 C 237.183594 251.972656 237.203125 252.273438 237.234375 252.589844 L 237.234375 253.398438 C 237.191406 254.226562 236.996094 255.3125 236.097656 255.644531 C 235.320312 255.957031 234.40625 255.472656 234.175781 254.679688 C 234.003906 254.257812 233.988281 253.828125 233.945312 253.398438 L 233.945312 252.589844 C 233.988281 251.765625 234.160156 250.667969 235.050781 250.304688 L 235.089844 250.289062 L 235.121094 250.28125 L 235.160156 250.265625 L 235.28125 250.234375 L 235.351562 250.21875 L 235.4375 250.21875 L 235.453125 250.210938 Z M 235.726562 250.210938 Z M 235.480469 250.695312 C 234.8125 250.773438 234.613281 251.574219 234.566406 252.113281 L 234.566406 252.328125 L 234.550781 252.34375 L 234.550781 253.449219 C 234.597656 254.019531 234.636719 254.757812 235.160156 255.136719 C 235.644531 255.472656 236.289062 255.097656 236.421875 254.582031 C 236.566406 254.203125 236.597656 253.828125 236.628906 253.449219 L 236.628906 252.34375 C 236.582031 251.765625 236.503906 250.957031 235.835938 250.726562 L 235.78125 250.710938 L 235.765625 250.695312 L 235.691406 250.695312 L 235.675781 250.679688 L 235.496094 250.679688 Z M 235.480469 250.695312 Z M 235.480469 250.695312 "/>
<path style=" stroke:none;fill-rule:nonzero;fill:rgb(0%,0%,0%);fill-opacity:1;" d="M 239.003906 254.925781 L 239.003906 255.558594 L 238.359375 255.558594 L 238.359375 254.925781 Z M 239.003906 254.925781 Z M 239.003906 254.925781 "/>
<path style=" stroke:none;fill-rule:nonzero;fill:rgb(0%,0%,0%);fill-opacity:1;" d="M 242.710938 250.375 L 242.710938 253.71875 L 242.726562 253.734375 L 243.511719 253.734375 L 243.511719 254.210938 L 242.726562 254.210938 L 242.710938 254.21875 L 242.710938 255.558594 L 242.105469 255.558594 L 242.105469 254.21875 L 242.089844 254.210938 L 239.996094 254.210938 L 239.996094 253.71875 C 240.660156 252.605469 241.328125 251.488281 241.996094 250.375 Z M 242.710938 250.375 Z M 242.121094 250.679688 C 241.964844 251.503906 241.457031 252.210938 241.074219 252.933594 C 240.921875 253.195312 240.726562 253.480469 240.613281 253.734375 L 242.136719 253.734375 L 242.144531 253.71875 L 242.144531 250.679688 L 242.136719 250.660156 Z M 242.121094 250.679688 Z M 242.121094 250.679688 "/>
<path style=" stroke:none;fill-rule:nonzero;fill:rgb(0%,0%,0%);fill-opacity:1;" d="M 267.0625 250.210938 C 267.816406 250.265625 268.316406 250.957031 268.453125 251.652344 C 268.523438 251.972656 268.539062 252.273438 268.570312 252.589844 L 268.570312 253.398438 C 268.53125 254.226562 268.332031 255.3125 267.4375 255.644531 C 266.660156 255.957031 265.746094 255.472656 265.515625 254.679688 C 265.339844 254.257812 265.324219 253.828125 265.285156 253.398438 L 265.285156 252.589844 C 265.324219 251.765625 265.5 250.667969 266.386719 250.304688 L 266.429688 250.289062 L 266.460938 250.28125 L 266.5 250.265625 L 266.617188 250.234375 L 266.691406 250.21875 L 266.777344 250.21875 L 266.792969 250.210938 Z M 267.0625 250.210938 Z M 266.816406 250.695312 C 266.148438 250.773438 265.953125 251.574219 265.90625 252.113281 L 265.90625 252.328125 L 265.886719 252.34375 L 265.886719 253.449219 C 265.9375 254.019531 265.976562 254.757812 266.5 255.136719 C 266.984375 255.472656 267.625 255.097656 267.761719 254.582031 C 267.90625 254.203125 267.9375 253.828125 267.96875 253.449219 L 267.96875 252.34375 C 267.921875 251.765625 267.839844 250.957031 267.175781 250.726562 L 267.117188 250.710938 L 267.101562 250.695312 L 267.03125 250.695312 L 267.015625 250.679688 L 266.832031 250.679688 Z M 266.816406 250.695312 Z M 266.816406 250.695312 "/>
<path style=" stroke:none;fill-rule:nonzero;fill:rgb(0%,0%,0%);fill-opacity:1;" d="M 270.339844 254.925781 L 270.339844 255.558594 L 269.699219 255.558594 L 269.699219 254.925781 Z M 270.339844 254.925781 Z M 270.339844 254.925781 "/>
<path style=" stroke:none;fill-rule:nonzero;fill:rgb(0%,0%,0%);fill-opacity:1;" d="M 273.746094 250.210938 C 273.953125 250.242188 274.191406 250.265625 274.390625 250.359375 L 274.390625 250.820312 C 273.839844 250.582031 273.128906 250.550781 272.699219 251.035156 C 272.316406 251.441406 272.144531 252.042969 272.125 252.574219 C 272.585938 251.964844 273.628906 251.621094 274.191406 252.257812 C 274.753906 252.90625 274.847656 253.84375 274.59375 254.636719 C 274.316406 255.273438 273.675781 255.851562 272.960938 255.71875 C 271.992188 255.636719 271.554688 254.558594 271.507812 253.734375 C 271.324219 252.566406 271.601562 251.097656 272.714844 250.433594 L 272.730469 250.425781 L 272.898438 250.335938 L 272.945312 250.320312 L 272.96875 250.304688 L 273.101562 250.265625 L 273.214844 250.234375 L 273.285156 250.21875 L 273.375 250.21875 L 273.390625 250.210938 Z M 273.746094 250.210938 Z M 272.96875 252.417969 C 272.277344 252.535156 272.054688 253.367188 272.144531 253.933594 C 272.183594 254.464844 272.390625 255.171875 273 255.28125 C 273.652344 255.367188 274.070312 254.671875 274.085938 254.105469 C 274.117188 253.535156 274.085938 252.882812 273.585938 252.511719 L 273.476562 252.457031 L 273.390625 252.433594 L 273.316406 252.417969 L 273.300781 252.398438 L 272.984375 252.398438 Z M 272.96875 252.417969 Z M 272.96875 252.417969 "/>
<path style=" stroke:none;fill-rule:nonzero;fill:rgb(0%,0%,0%);fill-opacity:1;" d="M 298.402344 250.210938 C 299.15625 250.265625 299.65625 250.957031 299.789062 251.652344 C 299.863281 251.972656 299.878906 252.273438 299.910156 252.589844 L 299.910156 253.398438 C 299.871094 254.226562 299.671875 255.3125 298.773438 255.644531 C 297.996094 255.957031 297.082031 255.472656 296.855469 254.679688 C 296.679688 254.257812 296.664062 253.828125 296.625 253.398438 L 296.625 252.589844 C 296.664062 251.765625 296.835938 250.667969 297.726562 250.304688 L 297.765625 250.289062 L 297.796875 250.28125 L 297.835938 250.265625 L 297.957031 250.234375 L 298.027344 250.21875 L 298.117188 250.21875 L 298.132812 250.210938 Z M 298.402344 250.210938 Z M 298.15625 250.695312 C 297.488281 250.773438 297.289062 251.574219 297.242188 252.113281 L 297.242188 252.328125 L 297.226562 252.34375 L 297.226562 253.449219 C 297.273438 254.019531 297.3125 254.757812 297.835938 255.136719 C 298.320312 255.472656 298.964844 255.097656 299.101562 254.582031 C 299.242188 254.203125 299.273438 253.828125 299.304688 253.449219 L 299.304688 252.34375 C 299.257812 251.765625 299.179688 250.957031 298.511719 250.726562 L 298.457031 250.710938 L 298.441406 250.695312 L 298.371094 250.695312 L 298.355469 250.679688 L 298.171875 250.679688 Z M 298.15625 250.695312 Z M 298.15625 250.695312 "/>
<path style=" stroke:none;fill-rule:nonzero;fill:rgb(0%,0%,0%);fill-opacity:1;" d="M 301.679688 254.925781 L 301.679688 255.558594 L 301.035156 255.558594 L 301.035156 254.925781 Z M 301.679688 254.925781 Z M 301.679688 254.925781 "/>
<path style=" stroke:none;fill-rule:nonzero;fill:rgb(0%,0%,0%);fill-opacity:1;" d="M 304.585938 250.210938 C 305.425781 250.242188 306.21875 251.144531 305.886719 251.988281 C 305.742188 252.375 305.347656 252.613281 305.019531 252.78125 C 305.832031 253.019531 306.324219 253.964844 305.957031 254.742188 C 305.578125 255.75 304.132812 256.066406 303.339844 255.335938 C 302.617188 254.765625 302.59375 253.527344 303.394531 253.019531 C 303.511719 252.890625 303.734375 252.851562 303.839844 252.757812 C 303.148438 252.558594 302.679688 251.757812 303.003906 251.082031 C 303.265625 250.480469 303.941406 250.144531 304.585938 250.210938 Z M 304.585938 250.210938 Z M 304.28125 250.660156 C 303.695312 250.679688 303.28125 251.34375 303.480469 251.867188 C 303.710938 252.773438 305.226562 252.742188 305.402344 251.8125 C 305.558594 251.296875 305.148438 250.679688 304.585938 250.660156 L 304.570312 250.652344 L 304.296875 250.652344 Z M 304.28125 250.660156 Z M 304.296875 253.019531 C 303.609375 253.066406 303.265625 253.890625 303.449219 254.480469 C 303.566406 255.3125 304.757812 255.558594 305.226562 254.890625 C 305.679688 254.28125 305.457031 253.1875 304.640625 253.019531 L 304.570312 253.019531 L 304.550781 253.003906 L 304.304688 253.003906 Z M 304.296875 253.019531 Z M 304.296875 253.019531 "/>
<path style=" stroke:none;fill-rule:nonzero;fill:rgb(0%,0%,0%);fill-opacity:1;" d="M 329.984375 250.210938 L 329.984375 255.105469 L 329.992188 255.121094 L 330.96875 255.121094 L 330.96875 255.558594 L 328.390625 255.558594 L 328.390625 255.121094 L 329.367188 255.121094 L 329.382812 255.105469 L 329.382812 250.996094 C 329.050781 251.105469 328.699219 251.179688 328.351562 251.171875 L 328.351562 250.726562 C 328.875 250.734375 329.445312 250.589844 329.84375 250.210938 Z M 329.984375 250.210938 Z M 329.984375 250.210938 "/>
<path style=" stroke:none;fill-rule:nonzero;fill:rgb(0%,0%,0%);fill-opacity:1;" d="M 333.015625 254.925781 L 333.015625 255.558594 L 332.375 255.558594 L 332.375 254.925781 Z M 333.015625 254.925781 Z M 333.015625 254.925781 "/>
<path style=" stroke:none;fill-rule:nonzero;fill:rgb(0%,0%,0%);fill-opacity:1;" d="M 335.90625 250.210938 C 336.660156 250.265625 337.160156 250.957031 337.296875 251.652344 C 337.367188 251.972656 337.382812 252.273438 337.414062 252.589844 L 337.414062 253.398438 C 337.375 254.226562 337.175781 255.3125 336.28125 255.644531 C 335.5 255.957031 334.589844 255.472656 334.359375 254.679688 C 334.183594 254.257812 334.167969 253.828125 334.128906 253.398438 L 334.128906 252.589844 C 334.167969 251.765625 334.34375 250.667969 335.230469 250.304688 L 335.273438 250.289062 L 335.304688 250.28125 L 335.34375 250.265625 L 335.460938 250.234375 L 335.535156 250.21875 L 335.621094 250.21875 L 335.636719 250.210938 Z M 335.90625 250.210938 Z M 335.660156 250.695312 C 334.992188 250.773438 334.796875 251.574219 334.746094 252.113281 L 334.746094 252.328125 L 334.730469 252.34375 L 334.730469 253.449219 C 334.78125 254.019531 334.820312 254.757812 335.34375 255.136719 C 335.828125 255.472656 336.46875 255.097656 336.605469 254.582031 C 336.746094 254.203125 336.78125 253.828125 336.8125 253.449219 L 336.8125 252.34375 C 336.765625 251.765625 336.683594 250.957031 336.019531 250.726562 L 335.960938 250.710938 L 335.945312 250.695312 L 335.875 250.695312 L 335.859375 250.679688 L 335.675781 250.679688 Z M 335.660156 250.695312 Z M 335.660156 250.695312 "/>
<path style="fill:none;stroke-width:0.02;stroke-linecap:butt;stroke-linejoin:miter;stroke:rgb(0%,0%,0%);stroke-opacity:1;stroke-miterlimit:10;" d="M 1.751349 8.788333 L 1.751349 8.683327 " transform="matrix(28.346457,0,0,-28.346457,1,256.11811)"/>
<path style="fill:none;stroke-width:0.02;stroke-linecap:butt;stroke-linejoin:miter;stroke:rgb(0%,0%,0%);stroke-opacity:1;stroke-miterlimit:10;" d="M 2.856949 8.788333 L 2.856949 8.683327 " transform="matrix(28.346457,0,0,-28.346457,1,256.11811)"/>
<path style="fill:none;stroke-width:0.02;stroke-linecap:butt;stroke-linejoin:miter;stroke:rgb(0%,0%,0%);stroke-opacity:1;stroke-miterlimit:10;" d="M 3.962411 8.788333 L 3.962411 8.683327 " transform="matrix(28.346457,0,0,-28.346457,1,256.11811)"/>
<path style="fill:none;stroke-width:0.02;stroke-linecap:butt;stroke-linejoin:miter;stroke:rgb(0%,0%,0%);stroke-opacity:1;stroke-miterlimit:10;" d="M 5.068011 8.788333 L 5.068011 8.683327 " transform="matrix(28.346457,0,0,-28.346457,1,256.11811)"/>
<path style="fill:none;stroke-width:0.02;stroke-linecap:butt;stroke-linejoin:miter;stroke:rgb(0%,0%,0%);stroke-opacity:1;stroke-miterlimit:10;" d="M 6.173473 8.788333 L 6.173473 8.683327 " transform="matrix(28.346457,0,0,-28.346457,1,256.11811)"/>
<path style="fill:none;stroke-width:0.02;stroke-linecap:butt;stroke-linejoin:miter;stroke:rgb(0%,0%,0%);stroke-opacity:1;stroke-miterlimit:10;" d="M 7.279073 8.788333 L 7.279073 8.683327 " transform="matrix(28.346457,0,0,-28.346457,1,256.11811)"/>
<path style="fill:none;stroke-width:0.02;stroke-linecap:butt;stroke-linejoin:miter;stroke:rgb(0%,0%,0%);stroke-opacity:1;stroke-miterlimit:10;" d="M 8.384536 8.788333 L 8.384536 8.683327 " transform="matrix(28.346457,0,0,-28.346457,1,256.11811)"/>
<path style="fill:none;stroke-width:0.02;stroke-linecap:butt;stroke-linejoin:miter;stroke:rgb(0%,0%,0%);stroke-opacity:1;stroke-miterlimit:10;" d="M 9.490136 8.788333 L 9.490136 8.683327 " transform="matrix(28.346457,0,0,-28.346457,1,256.11811)"/>
<path style="fill:none;stroke-width:0.02;stroke-linecap:butt;stroke-linejoin:miter;stroke:rgb(0%,0%,0%);stroke-opacity:1;stroke-miterlimit:10;" d="M 10.595736 8.788333 L 10.595736 8.683327 " transform="matrix(28.346457,0,0,-28.346457,1,256.11811)"/>
<path style="fill:none;stroke-width:0.02;stroke-linecap:round;stroke-linejoin:miter;stroke:rgb(0%,0%,0%);stroke-opacity:1;stroke-miterlimit:10;" d="M 0.645749 8.788333 L 11.701198 8.788333 " transform="matrix(28.346457,0,0,-28.346457,1,256.11811)"/>
<path style="fill:none;stroke-width:0.05;stroke-linecap:butt;stroke-linejoin:miter;stroke:rgb(33%,47%,64%);stroke-opacity:1;stroke-miterlimit:10;" d="M 0.645749 1.044999 L 0.683369 1.060571 L 0.72099 1.07628 L 0.75861 1.092128 L 0.79623 1.108113 L 0.871471 1.140635 L 0.909092 1.157171 L 0.946574 1.173845 L 0.984195 1.190658 L 1.021815 1.207607 L 1.059436 1.224695 L 1.097056 1.242058 L 1.172297 1.277061 L 1.209918 1.294837 L 1.2474 1.312752 L 1.285021 1.330804 L 1.322641 1.348994 L 1.360262 1.367322 L 1.435502 1.404529 L 1.473123 1.42327 L 1.510743 1.442287 L 1.548226 1.461304 L 1.585846 1.480597 L 1.661087 1.519457 L 1.736328 1.558869 L 1.773949 1.578851 L 1.811569 1.59897 L 1.849052 1.619227 L 1.886672 1.639485 L 1.924293 1.660017 L 1.961913 1.680688 L 2.037154 1.722305 L 2.112395 1.764473 L 2.149877 1.785832 L 2.187498 1.807192 L 2.262739 1.850462 L 2.300359 1.872235 L 2.33798 1.894146 L 2.3756 1.916195 L 2.41322 1.938381 L 2.450703 1.960705 L 2.525944 2.005629 L 2.601185 2.051105 L 2.638805 2.07398 L 2.676426 2.096993 L 2.714046 2.120144 L 2.751529 2.143433 L 2.789149 2.166722 L 2.82677 2.190149 L 2.86439 2.213713 L 2.902011 2.237415 L 2.939631 2.261255 L 3.014872 2.309211 L 3.052355 2.333327 L 3.089975 2.357442 L 3.165216 2.406225 L 3.202836 2.430754 L 3.278077 2.480088 L 3.315698 2.504893 L 3.353318 2.529835 L 3.390801 2.554915 L 3.428421 2.579996 L 3.503662 2.630432 L 3.541283 2.655788 L 3.578903 2.681281 L 3.654144 2.732544 L 3.691627 2.758176 L 3.729247 2.783945 L 3.766867 2.809852 L 3.842108 2.861942 L 3.917349 2.914308 L 3.95497 2.940628 L 3.992452 2.966949 L 4.030073 2.993407 L 4.067693 3.020003 L 4.105314 3.046462 L 4.218175 3.126663 L 4.255795 3.153535 L 4.293278 3.180545 L 4.368519 3.234564 L 4.44376 3.288859 L 4.519001 3.343429 L 4.556621 3.370852 L 4.594104 3.398275 L 4.631724 3.425698 L 4.744586 3.50838 L 4.819826 3.563777 L 4.857447 3.591613 L 4.894929 3.61945 L 4.93255 3.647286 L 4.97017 3.67526 L 5.007791 3.703097 L 5.045411 3.731209 L 5.083032 3.759183 L 5.158273 3.815407 L 5.195755 3.843519 L 5.233376 3.871631 L 5.383857 3.98463 L 5.459098 4.041405 L 5.496581 4.069793 L 5.609442 4.154956 L 5.722304 4.240532 L 5.759924 4.268919 L 5.797407 4.297445 L 5.835027 4.326108 L 5.910268 4.383159 L 5.947888 4.411822 L 5.985509 4.440347 L 6.023129 4.46901 L 6.06075 4.497536 L 6.09837 4.526199 L 6.135853 4.554724 L 6.173473 4.583388 L 6.211094 4.611913 L 6.248714 4.640576 L 6.286335 4.669102 L 6.323955 4.697765 L 6.361576 4.72629 L 6.399196 4.754953 L 6.436679 4.783479 L 6.474299 4.812004 L 6.511919 4.840667 L 6.662401 4.954769 L 6.700022 4.983156 L 6.737504 5.011682 L 6.775125 5.040069 L 6.812745 5.068595 L 6.887986 5.12537 L 6.925607 5.15362 L 6.963227 5.182007 L 7.000847 5.210257 L 7.03833 5.238645 L 7.075951 5.266895 L 7.113571 5.295007 L 7.151191 5.323256 L 7.264053 5.407592 L 7.301673 5.435566 L 7.339156 5.463541 L 7.376776 5.491515 L 7.414397 5.519351 L 7.452017 5.547325 L 7.489638 5.575162 L 7.602499 5.658257 L 7.639982 5.685956 L 7.715222 5.741077 L 7.790463 5.795923 L 7.828084 5.823209 L 7.865704 5.850632 L 7.903325 5.877779 L 7.940807 5.905064 L 7.978428 5.932074 L 8.016048 5.959221 L 8.053669 5.98623 L 8.16653 6.066846 L 8.20415 6.09358 L 8.241633 6.120176 L 8.279253 6.146772 L 8.392115 6.226147 L 8.429735 6.25233 L 8.467356 6.27865 L 8.504976 6.304695 L 8.542597 6.330878 L 8.580079 6.356785 L 8.6177 6.382692 L 8.692941 6.434231 L 8.730561 6.459862 L 8.805802 6.51085 L 8.843422 6.536206 L 8.880905 6.561561 L 8.918525 6.58678 L 8.956146 6.61186 L 9.031387 6.661745 L 9.106628 6.711354 L 9.144248 6.735883 L 9.181731 6.760412 L 9.219351 6.784941 L 9.294592 6.833448 L 9.332212 6.857564 L 9.369833 6.881542 L 9.445074 6.929222 L 9.482556 6.952924 L 9.520177 6.976489 L 9.595418 7.023342 L 9.670659 7.069644 L 9.708279 7.092657 L 9.7459 7.115533 L 9.783382 7.138408 L 9.858623 7.183608 L 9.933864 7.228256 L 9.971484 7.250443 L 10.009105 7.272491 L 10.046725 7.294402 L 10.084208 7.316175 L 10.121828 7.337948 L 10.197069 7.380943 L 10.27231 7.423387 L 10.347551 7.465279 L 10.385034 7.486087 L 10.460275 7.527153 L 10.497895 7.547548 L 10.573136 7.587786 L 10.610756 7.607768 L 10.648377 7.627612 L 10.685859 7.64718 L 10.72348 7.666748 L 10.7611 7.686178 L 10.836341 7.724488 L 10.911582 7.762246 L 10.949202 7.78085 L 10.986685 7.799315 L 11.061926 7.835971 L 11.099546 7.854023 L 11.174787 7.889577 L 11.212408 7.907216 L 11.250028 7.924717 L 11.287649 7.941942 L 11.325131 7.95903 L 11.362752 7.976118 L 11.400372 7.99293 L 11.437993 8.009604 L 11.513234 8.042401 L 11.588474 8.074647 L 11.625957 8.090495 L 11.663577 8.106204 L 11.701198 8.121638 " transform="matrix(28.346457,0,0,-28.346457,1,256.11811)"/>
<path style="fill:none;stroke-width:0.05;stroke-linecap:butt;stroke-linejoin:miter;stroke:rgb(90%,57%,26%);stroke-opacity:1;stroke-miterlimit:10;" d="M 0.645749 1.044999 L 0.871471 1.140635 L 1.097056 1.242058 L 1.322641 1.348994 L 1.548226 1.461304 L 1.773949 1.578851 L 1.999533 1.701496 L 2.225118 1.828827 L 2.450703 1.960705 L 2.676426 2.096993 L 2.902011 2.237415 L 3.127595 2.381834 L 3.353318 2.529835 L 3.578903 2.681281 L 3.804488 2.835897 L 4.030073 2.993407 L 4.255795 3.153535 L 4.48138 3.316144 L 4.706965 3.480819 L 4.93255 3.647286 L 5.158273 3.815407 L 5.383857 3.98463 L 5.609442 4.154956 L 5.835027 4.326108 L 6.06075 4.497536 L 6.511919 4.840667 L 6.737504 5.011682 L 6.963227 5.182007 L 7.188812 5.351368 L 7.414397 5.519351 L 7.639982 5.685956 L 7.865704 5.850632 L 8.091289 6.013102 L 8.316874 6.17323 L 8.542597 6.33074 L 8.768181 6.485356 L 8.993766 6.636802 L 9.219351 6.784941 L 9.445074 6.929222 L 9.670659 7.069644 L 9.896243 7.205932 L 10.121828 7.337948 L 10.347551 7.465279 L 10.573136 7.587786 L 10.798721 7.705333 L 11.024306 7.817643 L 11.250028 7.924717 L 11.475613 8.026003 L 11.701198 8.121638 " transform="matrix(28.346457,0,0,-28.346457,1,256.11811)"/>
</g>
</svg>
