<?xml version="1.0" encoding="UTF-8"?>
<svg xmlns="http://www.w3.org/2000/svg" xmlns:xlink="http://www.w3.org/1999/xlink" width="342.15748pt" height="257.11811pt" viewBox="0 0 342.15748 257.11811" version="1.1">
<g id="surface1">
<path style="fill:none;stroke-width:0.02;stroke-linecap:butt;stroke-linejoin:miter;stroke:rgb(0%,0%,0%);stroke-opacity:1;stroke-miterlimit:10;" d="M 0.993979 1.63163 L 1.144047 1.63163 " transform="matrix(28.346457,0,0,-28.346457,1,256.11811)"/>
<path style="fill:none;stroke-width:0.02;stroke-linecap:butt;stroke-linejoin:miter;stroke:rgb(0%,0%,0%);stroke-opacity:1;stroke-miterlimit:10;" d="M 0.993979 2.65124 L 1.144047 2.65124 " transform="matrix(28.346457,0,0,-28.346457,1,256.11811)"/>
<path style="fill:none;stroke-width:0.02;stroke-linecap:butt;stroke-linejoin:miter;stroke:rgb(0%,0%,0%);stroke-opacity:1;stroke-miterlimit:10;" d="M 0.993979 3.670851 L 1.144047 3.670851 " transform="matrix(28.346457,0,0,-28.346457,1,256.11811)"/>
<path style="fill:none;stroke-width:0.02;stroke-linecap:butt;stroke-linejoin:miter;stroke:rgb(0%,0%,0%);stroke-opacity:1;stroke-miterlimit:10;" d="M 0.993979 4.690461 L 1.144047 4.690461 " transform="matrix(28.346457,0,0,-28.346457,1,256.11811)"/>
<path style="fill:none;stroke-width:0.02;stroke-linecap:butt;stroke-linejoin:miter;stroke:rgb(0%,0%,0%);stroke-opacity:1;stroke-miterlimit:10;" d="M 0.993979 5.710072 L 1.144047 5.710072 " transform="matrix(28.346457,0,0,-28.346457,1,256.11811)"/>
<path style="fill:none;stroke-width:0.02;stroke-linecap:butt;stroke-linejoin:miter;stroke:rgb(0%,0%,0%);stroke-opacity:1;stroke-miterlimit:10;" d="M 0.993979 6.729682 L 1.144047 6.729682 " transform="matrix(28.346457,0,0,-28.346457,1,256.11811)"/>
<path style="fill:none;stroke-width:0.02;stroke-linecap:butt;stroke-linejoin:miter;stroke:rgb(0%,0%,0%);stroke-opacity:1;stroke-miterlimit:10;" d="M 0.993979 7.74943 L 1.144047 7.74943 " transform="matrix(28.346457,0,0,-28.346457,1,256.11811)"/>
<path style="fill:none;stroke-width:0.02;stroke-linecap:round;stroke-linejoin:miter;stroke:rgb(0%,0%,0%);stroke-opacity:1;stroke-miterlimit:10;" d="M 0.993979 0.612019 L 0.993979 8.769041 " transform="matrix(28.346457,0,0,-28.346457,1,256.11811)"/>
<path style=" stroke:none;fill-rule:nonzero;fill:rgb(0%,0%,0%);fill-opacity:1;" d="M 6.941406 239.683594 L 6.941406 240.316406 L 3.972656 240.316406 L 3.972656 239.683594 Z M 6.941406 239.683594 Z M 6.941406 239.683594 "/>
<path style=" stroke:none;fill-rule:nonzero;fill:rgb(0%,0%,0%);fill-opacity:1;" d="M 10.511719 234.851562 C 11.828125 234.886719 12.871094 236.234375 12.667969 237.503906 C 12.53125 238.777344 11.339844 239.5 10.492188 240.296875 L 10.128906 240.667969 L 10.082031 240.691406 L 9.628906 241.132812 L 9.59375 241.15625 L 9.140625 241.609375 L 9.097656 241.632812 L 8.992188 241.734375 L 9.015625 241.746094 L 12.691406 241.746094 L 12.691406 242.496094 L 8.199219 242.496094 L 8.199219 241.816406 L 10.027344 239.988281 C 10.898438 239.230469 11.917969 238.242188 11.761719 236.996094 C 11.667969 236.269531 11.058594 235.601562 10.308594 235.542969 C 9.550781 235.429688 8.878906 236.03125 8.710938 236.757812 L 8.6875 236.792969 L 8.664062 236.871094 L 8.632812 236.996094 L 8.5625 237.246094 L 8.550781 237.300781 C 8.394531 237.109375 8.222656 236.90625 8.097656 236.6875 C 8.324219 235.757812 9.074219 234.886719 10.058594 234.851562 Z M 10.511719 234.851562 Z M 10.511719 234.851562 "/>
<path style=" stroke:none;fill-rule:nonzero;fill:rgb(0%,0%,0%);fill-opacity:1;" d="M 15.320312 241.585938 L 15.320312 242.496094 L 14.402344 242.496094 L 14.402344 241.585938 Z M 15.320312 241.585938 Z M 15.320312 241.585938 "/>
<path style=" stroke:none;fill-rule:nonzero;fill:rgb(0%,0%,0%);fill-opacity:1;" d="M 21.125 235.089844 L 21.125 235.792969 L 18.179688 235.792969 L 18.15625 235.804688 L 18.15625 238.128906 C 18.425781 237.949219 18.8125 237.710938 19.175781 237.699219 C 20.457031 237.5625 21.445312 238.820312 21.5 239.988281 C 21.679688 241.472656 20.285156 242.949219 18.789062 242.722656 C 18.042969 242.699219 17.316406 242.257812 16.886719 241.644531 C 17.011719 241.472656 17.113281 241.179688 17.257812 241.078125 C 17.792969 242.121094 19.515625 242.539062 20.207031 241.441406 C 20.648438 240.613281 20.636719 239.558594 20.128906 238.765625 C 19.539062 238.003906 18.371094 238.46875 18.097656 239.273438 L 17.363281 239.273438 L 17.363281 235.089844 Z M 21.125 235.089844 Z M 21.125 235.089844 "/>
<path style=" stroke:none;fill-rule:nonzero;fill:rgb(0%,0%,0%);fill-opacity:1;" d="M 6.941406 210.78125 L 6.941406 211.414062 L 3.972656 211.414062 L 3.972656 210.78125 Z M 6.941406 210.78125 Z M 6.941406 210.78125 "/>
<path style=" stroke:none;fill-rule:nonzero;fill:rgb(0%,0%,0%);fill-opacity:1;" d="M 10.511719 205.949219 C 11.828125 205.984375 12.871094 207.332031 12.667969 208.601562 C 12.53125 209.871094 11.339844 210.597656 10.492188 211.390625 L 10.128906 211.765625 L 10.082031 211.789062 L 9.628906 212.230469 L 9.59375 212.253906 L 9.140625 212.707031 L 9.097656 212.730469 L 8.992188 212.832031 L 9.015625 212.84375 L 12.691406 212.84375 L 12.691406 213.59375 L 8.199219 213.59375 L 8.199219 212.910156 L 10.027344 211.085938 C 10.898438 210.328125 11.917969 209.339844 11.761719 208.09375 C 11.667969 207.367188 11.058594 206.699219 10.308594 206.640625 C 9.550781 206.527344 8.878906 207.128906 8.710938 207.855469 L 8.6875 207.890625 L 8.664062 207.96875 L 8.632812 208.09375 L 8.5625 208.34375 L 8.550781 208.398438 C 8.394531 208.207031 8.222656 208.003906 8.097656 207.785156 C 8.324219 206.855469 9.074219 205.984375 10.058594 205.949219 Z M 10.511719 205.949219 Z M 10.511719 205.949219 "/>
<path style=" stroke:none;fill-rule:nonzero;fill:rgb(0%,0%,0%);fill-opacity:1;" d="M 15.320312 212.683594 L 15.320312 213.59375 L 14.402344 213.59375 L 14.402344 212.683594 Z M 15.320312 212.683594 Z M 15.320312 212.683594 "/>
<path style=" stroke:none;fill-rule:nonzero;fill:rgb(0%,0%,0%);fill-opacity:1;" d="M 19.449219 205.949219 C 20.523438 206.027344 21.238281 207.015625 21.433594 208.011719 C 21.535156 208.46875 21.558594 208.898438 21.601562 209.351562 L 21.601562 210.507812 C 21.546875 211.6875 21.261719 213.242188 19.980469 213.714844 C 18.871094 214.160156 17.566406 213.46875 17.238281 212.332031 C 16.988281 211.734375 16.964844 211.121094 16.90625 210.507812 L 16.90625 209.351562 C 16.964844 208.171875 17.214844 206.609375 18.484375 206.085938 L 18.539062 206.0625 L 18.585938 206.050781 L 18.644531 206.027344 L 18.8125 205.984375 L 18.914062 205.960938 L 19.039062 205.960938 L 19.0625 205.949219 Z M 19.449219 205.949219 Z M 19.097656 206.640625 C 18.144531 206.753906 17.859375 207.898438 17.792969 208.671875 L 17.792969 208.976562 L 17.769531 209 L 17.769531 210.574219 C 17.835938 211.390625 17.894531 212.445312 18.644531 212.992188 C 19.335938 213.46875 20.253906 212.933594 20.445312 212.199219 C 20.648438 211.652344 20.695312 211.121094 20.742188 210.574219 L 20.742188 209 C 20.671875 208.171875 20.558594 207.015625 19.605469 206.6875 L 19.527344 206.664062 L 19.503906 206.640625 L 19.402344 206.640625 L 19.378906 206.617188 L 19.117188 206.617188 Z M 19.097656 206.640625 Z M 19.097656 206.640625 "/>
<path style=" stroke:none;fill-rule:nonzero;fill:rgb(0%,0%,0%);fill-opacity:1;" d="M 6.941406 181.878906 L 6.941406 182.511719 L 3.972656 182.511719 L 3.972656 181.878906 Z M 6.941406 181.878906 Z M 6.941406 181.878906 "/>
<path style=" stroke:none;fill-rule:nonzero;fill:rgb(0%,0%,0%);fill-opacity:1;" d="M 10.988281 177.046875 L 10.988281 184.042969 L 11 184.066406 L 12.394531 184.066406 L 12.394531 184.6875 L 8.710938 184.6875 L 8.710938 184.066406 L 10.105469 184.066406 L 10.128906 184.042969 L 10.128906 178.167969 C 9.652344 178.328125 9.152344 178.429688 8.652344 178.417969 L 8.652344 177.785156 C 9.402344 177.796875 10.21875 177.589844 10.785156 177.046875 Z M 10.988281 177.046875 Z M 10.988281 177.046875 "/>
<path style=" stroke:none;fill-rule:nonzero;fill:rgb(0%,0%,0%);fill-opacity:1;" d="M 15.320312 183.78125 L 15.320312 184.6875 L 14.402344 184.6875 L 14.402344 183.78125 Z M 15.320312 183.78125 Z M 15.320312 183.78125 "/>
<path style=" stroke:none;fill-rule:nonzero;fill:rgb(0%,0%,0%);fill-opacity:1;" d="M 21.125 177.285156 L 21.125 177.988281 L 18.179688 177.988281 L 18.15625 178 L 18.15625 180.324219 C 18.425781 180.140625 18.8125 179.90625 19.175781 179.894531 C 20.457031 179.757812 21.445312 181.015625 21.5 182.183594 C 21.679688 183.667969 20.285156 185.144531 18.789062 184.917969 C 18.042969 184.894531 17.316406 184.453125 16.886719 183.839844 C 17.011719 183.667969 17.113281 183.375 17.257812 183.273438 C 17.792969 184.316406 19.515625 184.734375 20.207031 183.636719 C 20.648438 182.808594 20.636719 181.753906 20.128906 180.957031 C 19.539062 180.199219 18.371094 180.664062 18.097656 181.46875 L 17.363281 181.46875 L 17.363281 177.285156 Z M 21.125 177.285156 Z M 21.125 177.285156 "/>
<path style=" stroke:none;fill-rule:nonzero;fill:rgb(0%,0%,0%);fill-opacity:1;" d="M 6.941406 152.972656 L 6.941406 153.609375 L 3.972656 153.609375 L 3.972656 152.972656 Z M 6.941406 152.972656 Z M 6.941406 152.972656 "/>
<path style=" stroke:none;fill-rule:nonzero;fill:rgb(0%,0%,0%);fill-opacity:1;" d="M 10.988281 148.144531 L 10.988281 155.140625 L 11 155.164062 L 12.394531 155.164062 L 12.394531 155.785156 L 8.710938 155.785156 L 8.710938 155.164062 L 10.105469 155.164062 L 10.128906 155.140625 L 10.128906 149.265625 C 9.652344 149.425781 9.152344 149.527344 8.652344 149.515625 L 8.652344 148.882812 C 9.402344 148.894531 10.21875 148.6875 10.785156 148.144531 Z M 10.988281 148.144531 Z M 10.988281 148.144531 "/>
<path style=" stroke:none;fill-rule:nonzero;fill:rgb(0%,0%,0%);fill-opacity:1;" d="M 15.320312 154.878906 L 15.320312 155.785156 L 14.402344 155.785156 L 14.402344 154.878906 Z M 15.320312 154.878906 Z M 15.320312 154.878906 "/>
<path style=" stroke:none;fill-rule:nonzero;fill:rgb(0%,0%,0%);fill-opacity:1;" d="M 19.449219 148.144531 C 20.523438 148.222656 21.238281 149.210938 21.433594 150.207031 C 21.535156 150.660156 21.558594 151.09375 21.601562 151.546875 L 21.601562 152.703125 C 21.546875 153.882812 21.261719 155.433594 19.980469 155.910156 C 18.871094 156.351562 17.566406 155.660156 17.238281 154.527344 C 16.988281 153.925781 16.964844 153.316406 16.90625 152.703125 L 16.90625 151.546875 C 16.964844 150.367188 17.214844 148.800781 18.484375 148.28125 L 18.539062 148.257812 L 18.585938 148.246094 L 18.644531 148.222656 L 18.8125 148.179688 L 18.914062 148.15625 L 19.039062 148.15625 L 19.0625 148.144531 Z M 19.449219 148.144531 Z M 19.097656 148.835938 C 18.144531 148.949219 17.859375 150.09375 17.792969 150.867188 L 17.792969 151.171875 L 17.769531 151.195312 L 17.769531 152.769531 C 17.835938 153.585938 17.894531 154.640625 18.644531 155.1875 C 19.335938 155.660156 20.253906 155.128906 20.445312 154.390625 C 20.648438 153.847656 20.695312 153.316406 20.742188 152.769531 L 20.742188 151.195312 C 20.671875 150.367188 20.558594 149.210938 19.605469 148.882812 L 19.527344 148.859375 L 19.503906 148.835938 L 19.402344 148.835938 L 19.378906 148.8125 L 19.117188 148.8125 Z M 19.097656 148.835938 Z M 19.097656 148.835938 "/>
<path style=" stroke:none;fill-rule:nonzero;fill:rgb(0%,0%,0%);fill-opacity:1;" d="M 6.941406 124.070312 L 6.941406 124.707031 L 3.972656 124.707031 L 3.972656 124.070312 Z M 6.941406 124.070312 Z M 6.941406 124.070312 "/>
<path style=" stroke:none;fill-rule:nonzero;fill:rgb(0%,0%,0%);fill-opacity:1;" d="M 10.636719 119.242188 C 11.714844 119.320312 12.429688 120.308594 12.621094 121.304688 C 12.722656 121.757812 12.746094 122.191406 12.792969 122.644531 L 12.792969 123.800781 C 12.734375 124.980469 12.453125 126.53125 11.171875 127.007812 C 10.058594 127.449219 8.753906 126.757812 8.425781 125.625 C 8.175781 125.023438 8.15625 124.410156 8.097656 123.800781 L 8.097656 122.644531 C 8.15625 121.464844 8.402344 119.898438 9.675781 119.378906 L 9.730469 119.355469 L 9.777344 119.34375 L 9.832031 119.320312 L 10.003906 119.277344 L 10.105469 119.253906 L 10.230469 119.253906 L 10.253906 119.242188 Z M 10.636719 119.242188 Z M 10.285156 119.933594 C 9.332031 120.046875 9.050781 121.191406 8.980469 121.960938 L 8.980469 122.269531 L 8.960938 122.292969 L 8.960938 123.867188 C 9.027344 124.683594 9.085938 125.738281 9.832031 126.28125 C 10.523438 126.757812 11.441406 126.226562 11.636719 125.488281 C 11.839844 124.945312 11.886719 124.410156 11.929688 123.867188 L 11.929688 122.292969 C 11.863281 121.464844 11.75 120.308594 10.796875 119.980469 L 10.71875 119.957031 L 10.695312 119.933594 L 10.59375 119.933594 L 10.570312 119.910156 L 10.308594 119.910156 Z M 10.285156 119.933594 Z M 10.285156 119.933594 "/>
<path style=" stroke:none;fill-rule:nonzero;fill:rgb(0%,0%,0%);fill-opacity:1;" d="M 15.320312 125.976562 L 15.320312 126.882812 L 14.402344 126.882812 L 14.402344 125.976562 Z M 15.320312 125.976562 Z M 15.320312 125.976562 "/>
<path style=" stroke:none;fill-rule:nonzero;fill:rgb(0%,0%,0%);fill-opacity:1;" d="M 21.125 119.480469 L 21.125 120.183594 L 18.179688 120.183594 L 18.15625 120.195312 L 18.15625 122.519531 C 18.425781 122.335938 18.8125 122.097656 19.175781 122.085938 C 20.457031 121.953125 21.445312 123.210938 21.5 124.378906 C 21.679688 125.863281 20.285156 127.335938 18.789062 127.109375 C 18.042969 127.085938 17.316406 126.644531 16.886719 126.035156 C 17.011719 125.863281 17.113281 125.570312 17.257812 125.464844 C 17.792969 126.507812 19.515625 126.929688 20.207031 125.828125 C 20.648438 125 20.636719 123.945312 20.128906 123.152344 C 19.539062 122.394531 18.371094 122.859375 18.097656 123.664062 L 17.363281 123.664062 L 17.363281 119.480469 Z M 21.125 119.480469 Z M 21.125 119.480469 "/>
<path style=" stroke:none;fill-rule:nonzero;fill:rgb(0%,0%,0%);fill-opacity:1;" d="M 10.636719 90.339844 C 11.714844 90.417969 12.429688 91.40625 12.621094 92.402344 C 12.722656 92.855469 12.746094 93.285156 12.792969 93.742188 L 12.792969 94.898438 C 12.734375 96.074219 12.453125 97.628906 11.171875 98.105469 C 10.058594 98.546875 8.753906 97.855469 8.425781 96.722656 C 8.175781 96.121094 8.15625 95.507812 8.097656 94.898438 L 8.097656 93.742188 C 8.15625 92.5625 8.402344 90.996094 9.675781 90.476562 L 9.730469 90.453125 L 9.777344 90.441406 L 9.832031 90.417969 L 10.003906 90.371094 L 10.105469 90.351562 L 10.230469 90.351562 L 10.253906 90.339844 Z M 10.636719 90.339844 Z M 10.285156 91.03125 C 9.332031 91.144531 9.050781 92.289062 8.980469 93.058594 L 8.980469 93.367188 L 8.960938 93.390625 L 8.960938 94.964844 C 9.027344 95.78125 9.085938 96.835938 9.832031 97.378906 C 10.523438 97.855469 11.441406 97.324219 11.636719 96.585938 C 11.839844 96.042969 11.886719 95.507812 11.929688 94.964844 L 11.929688 93.390625 C 11.863281 92.5625 11.75 91.40625 10.796875 91.074219 L 10.71875 91.054688 L 10.695312 91.03125 L 10.59375 91.03125 L 10.570312 91.007812 L 10.308594 91.007812 Z M 10.285156 91.03125 Z M 10.285156 91.03125 "/>
<path style=" stroke:none;fill-rule:nonzero;fill:rgb(0%,0%,0%);fill-opacity:1;" d="M 15.320312 97.074219 L 15.320312 97.980469 L 14.402344 97.980469 L 14.402344 97.074219 Z M 15.320312 97.074219 Z M 15.320312 97.074219 "/>
<path style=" stroke:none;fill-rule:nonzero;fill:rgb(0%,0%,0%);fill-opacity:1;" d="M 19.449219 90.339844 C 20.523438 90.417969 21.238281 91.40625 21.433594 92.402344 C 21.535156 92.855469 21.558594 93.285156 21.601562 93.742188 L 21.601562 94.898438 C 21.546875 96.074219 21.261719 97.628906 19.980469 98.105469 C 18.871094 98.546875 17.566406 97.855469 17.238281 96.722656 C 16.988281 96.121094 16.964844 95.507812 16.90625 94.898438 L 16.90625 93.742188 C 16.964844 92.5625 17.214844 90.996094 18.484375 90.476562 L 18.539062 90.453125 L 18.585938 90.441406 L 18.644531 90.417969 L 18.8125 90.371094 L 18.914062 90.351562 L 19.039062 90.351562 L 19.0625 90.339844 Z M 19.449219 90.339844 Z M 19.097656 91.03125 C 18.144531 91.144531 17.859375 92.289062 17.792969 93.058594 L 17.792969 93.367188 L 17.769531 93.390625 L 17.769531 94.964844 C 17.835938 95.78125 17.894531 96.835938 18.644531 97.378906 C 19.335938 97.855469 20.253906 97.324219 20.445312 96.585938 C 20.648438 96.042969 20.695312 95.507812 20.742188 94.964844 L 20.742188 93.390625 C 20.671875 92.5625 20.558594 91.40625 19.605469 91.074219 L 19.527344 91.054688 L 19.503906 91.03125 L 19.402344 91.03125 L 19.378906 91.007812 L 19.117188 91.007812 Z M 19.097656 91.03125 Z M 19.097656 91.03125 "/>
<path style=" stroke:none;fill-rule:nonzero;fill:rgb(0%,0%,0%);fill-opacity:1;" d="M 10.636719 61.4375 C 11.714844 61.515625 12.429688 62.5 12.621094 63.5 C 12.722656 63.953125 12.746094 64.382812 12.792969 64.835938 L 12.792969 65.996094 C 12.734375 67.171875 12.453125 68.726562 11.171875 69.203125 C 10.058594 69.644531 8.753906 68.953125 8.425781 67.820312 C 8.175781 67.21875 8.15625 66.605469 8.097656 65.996094 L 8.097656 64.835938 C 8.15625 63.660156 8.402344 62.09375 9.675781 61.570312 L 9.730469 61.550781 L 9.777344 61.539062 L 9.832031 61.515625 L 10.003906 61.46875 L 10.105469 61.449219 L 10.230469 61.449219 L 10.253906 61.4375 Z M 10.636719 61.4375 Z M 10.285156 62.128906 C 9.332031 62.242188 9.050781 63.386719 8.980469 64.15625 L 8.980469 64.464844 L 8.960938 64.484375 L 8.960938 66.0625 C 9.027344 66.878906 9.085938 67.933594 9.832031 68.476562 C 10.523438 68.953125 11.441406 68.421875 11.636719 67.683594 C 11.839844 67.140625 11.886719 66.605469 11.929688 66.0625 L 11.929688 64.484375 C 11.863281 63.660156 11.75 62.5 10.796875 62.171875 L 10.71875 62.152344 L 10.695312 62.128906 L 10.59375 62.128906 L 10.570312 62.105469 L 10.308594 62.105469 Z M 10.285156 62.128906 Z M 10.285156 62.128906 "/>
<path style=" stroke:none;fill-rule:nonzero;fill:rgb(0%,0%,0%);fill-opacity:1;" d="M 15.320312 68.171875 L 15.320312 69.078125 L 14.402344 69.078125 L 14.402344 68.171875 Z M 15.320312 68.171875 Z M 15.320312 68.171875 "/>
<path style=" stroke:none;fill-rule:nonzero;fill:rgb(0%,0%,0%);fill-opacity:1;" d="M 21.125 61.675781 L 21.125 62.378906 L 18.179688 62.378906 L 18.15625 62.386719 L 18.15625 64.714844 C 18.425781 64.53125 18.8125 64.292969 19.175781 64.28125 C 20.457031 64.144531 21.445312 65.40625 21.5 66.574219 C 21.679688 68.058594 20.285156 69.53125 18.789062 69.304688 C 18.042969 69.28125 17.316406 68.839844 16.886719 68.226562 C 17.011719 68.058594 17.113281 67.761719 17.257812 67.660156 C 17.792969 68.703125 19.515625 69.125 20.207031 68.023438 C 20.648438 67.195312 20.636719 66.140625 20.128906 65.347656 C 19.539062 64.589844 18.371094 65.054688 18.097656 65.859375 L 17.363281 65.859375 L 17.363281 61.675781 Z M 21.125 61.675781 Z M 21.125 61.675781 "/>
<path style=" stroke:none;fill-rule:nonzero;fill:rgb(0%,0%,0%);fill-opacity:1;" d="M 10.988281 32.535156 L 10.988281 39.527344 L 11 39.550781 L 12.394531 39.550781 L 12.394531 40.175781 L 8.710938 40.175781 L 8.710938 39.550781 L 10.105469 39.550781 L 10.128906 39.527344 L 10.128906 33.65625 C 9.652344 33.816406 9.152344 33.917969 8.652344 33.90625 L 8.652344 33.269531 C 9.402344 33.28125 10.21875 33.078125 10.785156 32.535156 Z M 10.988281 32.535156 Z M 10.988281 32.535156 "/>
<path style=" stroke:none;fill-rule:nonzero;fill:rgb(0%,0%,0%);fill-opacity:1;" d="M 15.320312 39.269531 L 15.320312 40.175781 L 14.402344 40.175781 L 14.402344 39.269531 Z M 15.320312 39.269531 Z M 15.320312 39.269531 "/>
<path style=" stroke:none;fill-rule:nonzero;fill:rgb(0%,0%,0%);fill-opacity:1;" d="M 19.449219 32.535156 C 20.523438 32.613281 21.238281 33.597656 21.433594 34.597656 C 21.535156 35.050781 21.558594 35.480469 21.601562 35.933594 L 21.601562 37.089844 C 21.546875 38.269531 21.261719 39.824219 19.980469 40.300781 C 18.871094 40.742188 17.566406 40.050781 17.238281 38.917969 C 16.988281 38.316406 16.964844 37.703125 16.90625 37.089844 L 16.90625 35.933594 C 16.964844 34.753906 17.214844 33.191406 18.484375 32.667969 L 18.539062 32.648438 L 18.585938 32.636719 L 18.644531 32.613281 L 18.8125 32.566406 L 18.914062 32.542969 L 19.039062 32.542969 L 19.0625 32.535156 Z M 19.449219 32.535156 Z M 19.097656 33.226562 C 18.144531 33.339844 17.859375 34.484375 17.792969 35.253906 L 17.792969 35.5625 L 17.769531 35.582031 L 17.769531 37.160156 C 17.835938 37.976562 17.894531 39.03125 18.644531 39.574219 C 19.335938 40.050781 20.253906 39.519531 20.445312 38.78125 C 20.648438 38.238281 20.695312 37.703125 20.742188 37.160156 L 20.742188 35.582031 C 20.671875 34.753906 20.558594 33.597656 19.605469 33.269531 L 19.527344 33.246094 L 19.503906 33.226562 L 19.402344 33.226562 L 19.378906 33.203125 L 19.117188 33.203125 Z M 19.097656 33.226562 Z M 19.097656 33.226562 "/>
<path style=" stroke:none;fill-rule:nonzero;fill:rgb(0%,0%,0%);fill-opacity:1;" d="M 10.988281 3.628906 L 10.988281 10.625 L 11 10.648438 L 12.394531 10.648438 L 12.394531 11.273438 L 8.710938 11.273438 L 8.710938 10.648438 L 10.105469 10.648438 L 10.128906 10.625 L 10.128906 4.753906 C 9.652344 4.910156 9.152344 5.015625 8.652344 5.003906 L 8.652344 4.367188 C 9.402344 4.378906 10.21875 4.175781 10.785156 3.628906 Z M 10.988281 3.628906 Z M 10.988281 3.628906 "/>
<path style=" stroke:none;fill-rule:nonzero;fill:rgb(0%,0%,0%);fill-opacity:1;" d="M 15.320312 10.367188 L 15.320312 11.273438 L 14.402344 11.273438 L 14.402344 10.367188 Z M 15.320312 10.367188 Z M 15.320312 10.367188 "/>
<path style=" stroke:none;fill-rule:nonzero;fill:rgb(0%,0%,0%);fill-opacity:1;" d="M 21.125 3.867188 L 21.125 4.570312 L 18.179688 4.570312 L 18.15625 4.582031 L 18.15625 6.90625 C 18.425781 6.726562 18.8125 6.488281 19.175781 6.476562 C 20.457031 6.339844 21.445312 7.597656 21.5 8.765625 C 21.679688 10.253906 20.285156 11.726562 18.789062 11.5 C 18.042969 11.476562 17.316406 11.035156 16.886719 10.421875 C 17.011719 10.253906 17.113281 9.957031 17.257812 9.855469 C 17.792969 10.898438 19.515625 11.316406 20.207031 10.21875 C 20.648438 9.390625 20.636719 8.335938 20.128906 7.542969 C 19.539062 6.78125 18.371094 7.246094 18.097656 8.050781 L 17.363281 8.050781 L 17.363281 3.867188 Z M 21.125 3.867188 Z M 21.125 3.867188 "/>
<path style="fill:none;stroke-width:0.02;stroke-linecap:butt;stroke-linejoin:miter;stroke:rgb(0%,0%,0%);stroke-opacity:1;stroke-miterlimit:10;" d="M 11.644561 1.63163 L 11.49463 1.63163 " transform="matrix(28.346457,0,0,-28.346457,1,256.11811)"/>
<path style="fill:none;stroke-width:0.02;stroke-linecap:butt;stroke-linejoin:miter;stroke:rgb(0%,0%,0%);stroke-opacity:1;stroke-miterlimit:10;" d="M 11.644561 2.65124 L 11.49463 2.65124 " transform="matrix(28.346457,0,0,-28.346457,1,256.11811)"/>
<path style="fill:none;stroke-width:0.02;stroke-linecap:butt;stroke-linejoin:miter;stroke:rgb(0%,0%,0%);stroke-opacity:1;stroke-miterlimit:10;" d="M 11.644561 3.670851 L 11.49463 3.670851 " transform="matrix(28.346457,0,0,-28.346457,1,256.11811)"/>
<path style="fill:none;stroke-width:0.02;stroke-linecap:butt;stroke-linejoin:miter;stroke:rgb(0%,0%,0%);stroke-opacity:1;stroke-miterlimit:10;" d="M 11.644561 4.690461 L 11.49463 4.690461 " transform="matrix(28.346457,0,0,-28.346457,1,256.11811)"/>
<path style="fill:none;stroke-width:0.02;stroke-linecap:butt;stroke-linejoin:miter;stroke:rgb(0%,0%,0%);stroke-opacity:1;stroke-miterlimit:10;" d="M 11.644561 5.710072 L 11.49463 5.710072 " transform="matrix(28.346457,0,0,-28.346457,1,256.11811)"/>
<path style="fill:none;stroke-width:0.02;stroke-linecap:butt;stroke-linejoin:miter;stroke:rgb(0%,0%,0%);stroke-opacity:1;stroke-miterlimit:10;" d="M 11.644561 6.729682 L 11.49463 6.729682 " transform="matrix(28.346457,0,0,-28.346457,1,256.11811)"/>
<path style="fill:none;stroke-width:0.02;stroke-linecap:butt;stroke-linejoin:miter;stroke:rgb(0%,0%,0%);stroke-opacity:1;stroke-miterlimit:10;" d="M 11.644561 7.74943 L 11.49463 7.74943 " transform="matrix(28.346457,0,0,-28.346457,1,256.11811)"/>
<path style="fill:none;stroke-width:0.02;stroke-linecap:round;stroke-linejoin:miter;stroke:rgb(0%,0%,0%);stroke-opacity:1;stroke-miterlimit:10;" d="M 11.644561 0.612019 L 11.644561 8.769041 " transform="matrix(28.346457,0,0,-28.346457,1,256.11811)"/>
<path style="fill:none;stroke-width:0.02;stroke-linecap:butt;stroke-linejoin:miter;stroke:rgb(0%,0%,0%);stroke-opacity:1;stroke-miterlimit:10;" d="M 2.325302 0.612019 L 2.325302 0.76195 " transform="matrix(28.346457,0,0,-28.346457,1,256.11811)"/>
<path style="fill:none;stroke-width:0.02;stroke-linecap:butt;stroke-linejoin:miter;stroke:rgb(0%,0%,0%);stroke-opacity:1;stroke-miterlimit:10;" d="M 3.656624 0.612019 L 3.656624 0.76195 " transform="matrix(28.346457,0,0,-28.346457,1,256.11811)"/>
<path style="fill:none;stroke-width:0.02;stroke-linecap:butt;stroke-linejoin:miter;stroke:rgb(0%,0%,0%);stroke-opacity:1;stroke-miterlimit:10;" d="M 4.987947 0.612019 L 4.987947 0.76195 " transform="matrix(28.346457,0,0,-28.346457,1,256.11811)"/>
<path style="fill:none;stroke-width:0.02;stroke-linecap:butt;stroke-linejoin:miter;stroke:rgb(0%,0%,0%);stroke-opacity:1;stroke-miterlimit:10;" d="M 6.31927 0.612019 L 6.31927 0.76195 " transform="matrix(28.346457,0,0,-28.346457,1,256.11811)"/>
<path style="fill:none;stroke-width:0.02;stroke-linecap:butt;stroke-linejoin:miter;stroke:rgb(0%,0%,0%);stroke-opacity:1;stroke-miterlimit:10;" d="M 7.650592 0.612019 L 7.650592 0.76195 " transform="matrix(28.346457,0,0,-28.346457,1,256.11811)"/>
<path style="fill:none;stroke-width:0.02;stroke-linecap:butt;stroke-linejoin:miter;stroke:rgb(0%,0%,0%);stroke-opacity:1;stroke-miterlimit:10;" d="M 8.981915 0.612019 L 8.981915 0.76195 " transform="matrix(28.346457,0,0,-28.346457,1,256.11811)"/>
<path style="fill:none;stroke-width:0.02;stroke-linecap:butt;stroke-linejoin:miter;stroke:rgb(0%,0%,0%);stroke-opacity:1;stroke-miterlimit:10;" d="M 10.313238 0.612019 L 10.313238 0.76195 " transform="matrix(28.346457,0,0,-28.346457,1,256.11811)"/>
<path style="fill:none;stroke-width:0.02;stroke-linecap:round;stroke-linejoin:miter;stroke:rgb(0%,0%,0%);stroke-opacity:1;stroke-miterlimit:10;" d="M 0.993979 0.612019 L 11.644561 0.612019 " transform="matrix(28.346457,0,0,-28.346457,1,256.11811)"/>
<path style=" stroke:none;fill-rule:nonzero;fill:rgb(0%,0%,0%);fill-opacity:1;" d="M 25.316406 245.652344 L 25.316406 252.648438 L 25.328125 252.671875 L 26.722656 252.671875 L 26.722656 253.292969 L 23.035156 253.292969 L 23.035156 252.671875 L 24.429688 252.671875 L 24.453125 252.648438 L 24.453125 246.773438 C 23.976562 246.933594 23.480469 247.035156 22.980469 247.023438 L 22.980469 246.390625 C 23.726562 246.402344 24.542969 246.195312 25.113281 245.652344 Z M 25.316406 245.652344 Z M 25.316406 245.652344 "/>
<path style=" stroke:none;fill-rule:nonzero;fill:rgb(0%,0%,0%);fill-opacity:1;" d="M 29.648438 252.386719 L 29.648438 253.292969 L 28.726562 253.292969 L 28.726562 252.386719 Z M 29.648438 252.386719 Z M 29.648438 252.386719 "/>
<path style=" stroke:none;fill-rule:nonzero;fill:rgb(0%,0%,0%);fill-opacity:1;" d="M 33.773438 245.652344 C 34.851562 245.730469 35.566406 246.71875 35.757812 247.714844 C 35.859375 248.167969 35.882812 248.601562 35.929688 249.054688 L 35.929688 250.210938 C 35.871094 251.390625 35.589844 252.941406 34.308594 253.417969 C 33.195312 253.863281 31.890625 253.171875 31.5625 252.035156 C 31.3125 251.433594 31.292969 250.824219 31.234375 250.210938 L 31.234375 249.054688 C 31.292969 247.875 31.539062 246.308594 32.808594 245.789062 L 32.867188 245.765625 L 32.914062 245.753906 L 32.96875 245.730469 L 33.140625 245.6875 L 33.242188 245.664062 L 33.367188 245.664062 L 33.386719 245.652344 Z M 33.773438 245.652344 Z M 33.421875 246.34375 C 32.46875 246.457031 32.1875 247.601562 32.117188 248.375 L 32.117188 248.679688 L 32.097656 248.703125 L 32.097656 250.277344 C 32.164062 251.09375 32.222656 252.148438 32.96875 252.695312 C 33.660156 253.171875 34.578125 252.636719 34.773438 251.898438 C 34.976562 251.355469 35.019531 250.824219 35.066406 250.277344 L 35.066406 248.703125 C 35 247.875 34.886719 246.71875 33.933594 246.390625 L 33.855469 246.367188 L 33.832031 246.34375 L 33.730469 246.34375 L 33.707031 246.320312 L 33.445312 246.320312 Z M 33.421875 246.34375 Z M 33.421875 246.34375 "/>
<path style=" stroke:none;fill-rule:nonzero;fill:rgb(0%,0%,0%);fill-opacity:1;" d="M 63.054688 245.652344 L 63.054688 252.648438 L 63.066406 252.671875 L 64.460938 252.671875 L 64.460938 253.292969 L 60.773438 253.292969 L 60.773438 252.671875 L 62.167969 252.671875 L 62.191406 252.648438 L 62.191406 246.773438 C 61.714844 246.933594 61.21875 247.035156 60.71875 247.023438 L 60.71875 246.390625 C 61.464844 246.402344 62.28125 246.195312 62.851562 245.652344 Z M 63.054688 245.652344 Z M 63.054688 245.652344 "/>
<path style=" stroke:none;fill-rule:nonzero;fill:rgb(0%,0%,0%);fill-opacity:1;" d="M 67.386719 252.386719 L 67.386719 253.292969 L 66.46875 253.292969 L 66.46875 252.386719 Z M 67.386719 252.386719 Z M 67.386719 252.386719 "/>
<path style=" stroke:none;fill-rule:nonzero;fill:rgb(0%,0%,0%);fill-opacity:1;" d="M 73.191406 245.890625 L 73.191406 246.59375 L 70.242188 246.59375 L 70.21875 246.605469 L 70.21875 248.929688 C 70.492188 248.746094 70.878906 248.511719 71.242188 248.5 C 72.523438 248.363281 73.507812 249.621094 73.566406 250.789062 C 73.746094 252.273438 72.351562 253.75 70.855469 253.523438 C 70.105469 253.5 69.382812 253.058594 68.949219 252.445312 C 69.074219 252.273438 69.175781 251.980469 69.324219 251.878906 C 69.855469 252.921875 71.582031 253.339844 72.273438 252.242188 C 72.714844 251.414062 72.703125 250.359375 72.191406 249.5625 C 71.601562 248.804688 70.433594 249.269531 70.164062 250.074219 L 69.425781 250.074219 L 69.425781 245.890625 Z M 73.191406 245.890625 Z M 73.191406 245.890625 "/>
<path style=" stroke:none;fill-rule:nonzero;fill:rgb(0%,0%,0%);fill-opacity:1;" d="M 100.316406 245.652344 C 101.632812 245.6875 102.675781 247.035156 102.46875 248.304688 C 102.335938 249.574219 101.144531 250.300781 100.292969 251.09375 L 99.929688 251.46875 L 99.886719 251.492188 L 99.433594 251.933594 L 99.398438 251.957031 L 98.945312 252.410156 L 98.898438 252.433594 L 98.796875 252.535156 L 98.820312 252.546875 L 102.492188 252.546875 L 102.492188 253.292969 L 98.003906 253.292969 L 98.003906 252.613281 L 99.828125 250.789062 C 100.703125 250.027344 101.722656 249.042969 101.5625 247.796875 C 101.472656 247.070312 100.859375 246.402344 100.113281 246.34375 C 99.351562 246.230469 98.683594 246.832031 98.511719 247.558594 L 98.492188 247.589844 L 98.46875 247.671875 L 98.433594 247.796875 L 98.367188 248.046875 L 98.355469 248.101562 C 98.195312 247.910156 98.027344 247.703125 97.902344 247.488281 C 98.128906 246.558594 98.875 245.6875 99.863281 245.652344 Z M 100.316406 245.652344 Z M 100.316406 245.652344 "/>
<path style=" stroke:none;fill-rule:nonzero;fill:rgb(0%,0%,0%);fill-opacity:1;" d="M 105.125 252.386719 L 105.125 253.292969 L 104.207031 253.292969 L 104.207031 252.386719 Z M 105.125 252.386719 Z M 105.125 252.386719 "/>
<path style=" stroke:none;fill-rule:nonzero;fill:rgb(0%,0%,0%);fill-opacity:1;" d="M 109.25 245.652344 C 110.328125 245.730469 111.042969 246.71875 111.234375 247.714844 C 111.335938 248.167969 111.359375 248.601562 111.40625 249.054688 L 111.40625 250.210938 C 111.347656 251.390625 111.066406 252.941406 109.785156 253.417969 C 108.671875 253.863281 107.367188 253.171875 107.039062 252.035156 C 106.789062 251.433594 106.769531 250.824219 106.710938 250.210938 L 106.710938 249.054688 C 106.769531 247.875 107.015625 246.308594 108.285156 245.789062 L 108.34375 245.765625 L 108.390625 245.753906 L 108.445312 245.730469 L 108.617188 245.6875 L 108.71875 245.664062 L 108.84375 245.664062 L 108.867188 245.652344 Z M 109.25 245.652344 Z M 108.898438 246.34375 C 107.945312 246.457031 107.664062 247.601562 107.59375 248.375 L 107.59375 248.679688 L 107.574219 248.703125 L 107.574219 250.277344 C 107.640625 251.09375 107.699219 252.148438 108.445312 252.695312 C 109.136719 253.171875 110.054688 252.636719 110.25 251.898438 C 110.453125 251.355469 110.5 250.824219 110.542969 250.277344 L 110.542969 248.703125 C 110.476562 247.875 110.363281 246.71875 109.410156 246.390625 L 109.332031 246.367188 L 109.308594 246.34375 L 109.207031 246.34375 L 109.183594 246.320312 L 108.921875 246.320312 Z M 108.898438 246.34375 Z M 108.898438 246.34375 "/>
<path style=" stroke:none;fill-rule:nonzero;fill:rgb(0%,0%,0%);fill-opacity:1;" d="M 138.054688 245.652344 C 139.371094 245.6875 140.414062 247.035156 140.207031 248.304688 C 140.074219 249.574219 138.882812 250.300781 138.03125 251.09375 L 137.667969 251.46875 L 137.625 251.492188 L 137.171875 251.933594 L 137.136719 251.957031 L 136.683594 252.410156 L 136.636719 252.433594 L 136.535156 252.535156 L 136.558594 252.546875 L 140.230469 252.546875 L 140.230469 253.292969 L 135.742188 253.292969 L 135.742188 252.613281 L 137.566406 250.789062 C 138.441406 250.027344 139.460938 249.042969 139.300781 247.796875 C 139.210938 247.070312 138.597656 246.402344 137.851562 246.34375 C 137.089844 246.230469 136.421875 246.832031 136.25 247.558594 L 136.230469 247.589844 L 136.207031 247.671875 L 136.171875 247.796875 L 136.105469 248.046875 L 136.09375 248.101562 C 135.933594 247.910156 135.765625 247.703125 135.640625 247.488281 C 135.867188 246.558594 136.613281 245.6875 137.601562 245.652344 Z M 138.054688 245.652344 Z M 138.054688 245.652344 "/>
<path style=" stroke:none;fill-rule:nonzero;fill:rgb(0%,0%,0%);fill-opacity:1;" d="M 142.863281 252.386719 L 142.863281 253.292969 L 141.945312 253.292969 L 141.945312 252.386719 Z M 142.863281 252.386719 Z M 142.863281 252.386719 "/>
<path style=" stroke:none;fill-rule:nonzero;fill:rgb(0%,0%,0%);fill-opacity:1;" d="M 148.667969 245.890625 L 148.667969 246.59375 L 145.71875 246.59375 L 145.695312 246.605469 L 145.695312 248.929688 C 145.96875 248.746094 146.355469 248.511719 146.71875 248.5 C 148 248.363281 148.984375 249.621094 149.042969 250.789062 C 149.222656 252.273438 147.828125 253.75 146.332031 253.523438 C 145.582031 253.5 144.859375 253.058594 144.425781 252.445312 C 144.550781 252.273438 144.652344 251.980469 144.800781 251.878906 C 145.332031 252.921875 147.058594 253.339844 147.75 252.242188 C 148.191406 251.414062 148.179688 250.359375 147.667969 249.5625 C 147.078125 248.804688 145.910156 249.269531 145.640625 250.074219 L 144.902344 250.074219 L 144.902344 245.890625 Z M 148.667969 245.890625 Z M 148.667969 245.890625 "/>
<path style=" stroke:none;fill-rule:nonzero;fill:rgb(0%,0%,0%);fill-opacity:1;" d="M 175.941406 245.652344 C 176.9375 245.699219 177.980469 246.617188 177.742188 247.671875 C 177.628906 248.386719 177.128906 248.976562 176.507812 249.292969 C 177.515625 249.609375 178.296875 250.675781 178.027344 251.730469 C 177.753906 253.101562 176.179688 253.863281 174.910156 253.441406 C 174.296875 253.261719 173.671875 252.875 173.378906 252.308594 C 173.445312 252.136719 173.421875 251.84375 173.503906 251.730469 C 174.101562 252.613281 175.375 253.214844 176.371094 252.714844 C 177.460938 252.023438 177.289062 250.007812 175.972656 249.667969 L 175.871094 249.667969 L 175.847656 249.644531 L 174.796875 249.644531 L 174.796875 248.964844 C 175.441406 248.953125 176.246094 248.871094 176.609375 248.203125 C 176.996094 247.625 176.960938 246.671875 176.222656 246.390625 C 175.351562 246.050781 174.273438 246.605469 173.945312 247.488281 C 173.808594 247.296875 173.671875 247.105469 173.535156 246.898438 C 174 246.0625 174.988281 245.5625 175.941406 245.652344 Z M 175.941406 245.652344 Z M 175.941406 245.652344 "/>
<path style=" stroke:none;fill-rule:nonzero;fill:rgb(0%,0%,0%);fill-opacity:1;" d="M 180.601562 252.386719 L 180.601562 253.292969 L 179.683594 253.292969 L 179.683594 252.386719 Z M 180.601562 252.386719 Z M 180.601562 252.386719 "/>
<path style=" stroke:none;fill-rule:nonzero;fill:rgb(0%,0%,0%);fill-opacity:1;" d="M 184.726562 245.652344 C 185.804688 245.730469 186.519531 246.71875 186.710938 247.714844 C 186.8125 248.167969 186.835938 248.601562 186.882812 249.054688 L 186.882812 250.210938 C 186.824219 251.390625 186.542969 252.941406 185.261719 253.417969 C 184.148438 253.863281 182.84375 253.171875 182.515625 252.035156 C 182.265625 251.433594 182.246094 250.824219 182.1875 250.210938 L 182.1875 249.054688 C 182.246094 247.875 182.492188 246.308594 183.765625 245.789062 L 183.820312 245.765625 L 183.867188 245.753906 L 183.921875 245.730469 L 184.09375 245.6875 L 184.195312 245.664062 L 184.320312 245.664062 L 184.34375 245.652344 Z M 184.726562 245.652344 Z M 184.375 246.34375 C 183.421875 246.457031 183.140625 247.601562 183.070312 248.375 L 183.070312 248.679688 L 183.050781 248.703125 L 183.050781 250.277344 C 183.117188 251.09375 183.175781 252.148438 183.921875 252.695312 C 184.613281 253.171875 185.53125 252.636719 185.726562 251.898438 C 185.929688 251.355469 185.976562 250.824219 186.019531 250.277344 L 186.019531 248.703125 C 185.953125 247.875 185.839844 246.71875 184.886719 246.390625 L 184.808594 246.367188 L 184.785156 246.34375 L 184.683594 246.34375 L 184.660156 246.320312 L 184.398438 246.320312 Z M 184.375 246.34375 Z M 184.375 246.34375 "/>
<path style=" stroke:none;fill-rule:nonzero;fill:rgb(0%,0%,0%);fill-opacity:1;" d="M 213.679688 245.652344 C 214.675781 245.699219 215.71875 246.617188 215.480469 247.671875 C 215.367188 248.386719 214.867188 248.976562 214.246094 249.292969 C 215.253906 249.609375 216.035156 250.675781 215.765625 251.730469 C 215.492188 253.101562 213.917969 253.863281 212.648438 253.441406 C 212.035156 253.261719 211.410156 252.875 211.117188 252.308594 C 211.183594 252.136719 211.160156 251.84375 211.242188 251.730469 C 211.839844 252.613281 213.113281 253.214844 214.109375 252.714844 C 215.199219 252.023438 215.027344 250.007812 213.710938 249.667969 L 213.609375 249.667969 L 213.585938 249.644531 L 212.535156 249.644531 L 212.535156 248.964844 C 213.179688 248.953125 213.984375 248.871094 214.347656 248.203125 C 214.734375 247.625 214.699219 246.671875 213.960938 246.390625 C 213.089844 246.050781 212.011719 246.605469 211.683594 247.488281 C 211.546875 247.296875 211.410156 247.105469 211.273438 246.898438 C 211.738281 246.0625 212.726562 245.5625 213.679688 245.652344 Z M 213.679688 245.652344 Z M 213.679688 245.652344 "/>
<path style=" stroke:none;fill-rule:nonzero;fill:rgb(0%,0%,0%);fill-opacity:1;" d="M 218.339844 252.386719 L 218.339844 253.292969 L 217.421875 253.292969 L 217.421875 252.386719 Z M 218.339844 252.386719 Z M 218.339844 252.386719 "/>
<path style=" stroke:none;fill-rule:nonzero;fill:rgb(0%,0%,0%);fill-opacity:1;" d="M 224.144531 245.890625 L 224.144531 246.59375 L 221.195312 246.59375 L 221.171875 246.605469 L 221.171875 248.929688 C 221.445312 248.746094 221.832031 248.511719 222.195312 248.5 C 223.476562 248.363281 224.460938 249.621094 224.519531 250.789062 C 224.699219 252.273438 223.304688 253.75 221.808594 253.523438 C 221.058594 253.5 220.335938 253.058594 219.902344 252.445312 C 220.027344 252.273438 220.128906 251.980469 220.277344 251.878906 C 220.808594 252.921875 222.535156 253.339844 223.226562 252.242188 C 223.667969 251.414062 223.65625 250.359375 223.144531 249.5625 C 222.554688 248.804688 221.390625 249.269531 221.117188 250.074219 L 220.378906 250.074219 L 220.378906 245.890625 Z M 224.144531 245.890625 Z M 224.144531 245.890625 "/>
<path style=" stroke:none;fill-rule:nonzero;fill:rgb(0%,0%,0%);fill-opacity:1;" d="M 252.5625 245.890625 L 252.5625 250.664062 L 252.585938 250.6875 L 253.707031 250.6875 L 253.707031 251.367188 L 252.585938 251.367188 L 252.5625 251.378906 L 252.5625 253.292969 L 251.699219 253.292969 L 251.699219 251.378906 L 251.675781 251.367188 L 248.683594 251.367188 L 248.683594 250.664062 C 249.636719 249.078125 250.589844 247.476562 251.542969 245.890625 Z M 252.5625 245.890625 Z M 251.722656 246.320312 C 251.496094 247.5 250.769531 248.511719 250.226562 249.542969 C 250.011719 249.914062 249.726562 250.324219 249.570312 250.6875 L 251.746094 250.6875 L 251.757812 250.664062 L 251.757812 246.320312 L 251.746094 246.300781 Z M 251.722656 246.320312 Z M 251.722656 246.320312 "/>
<path style=" stroke:none;fill-rule:nonzero;fill:rgb(0%,0%,0%);fill-opacity:1;" d="M 256.078125 252.386719 L 256.078125 253.292969 L 255.160156 253.292969 L 255.160156 252.386719 Z M 256.078125 252.386719 Z M 256.078125 252.386719 "/>
<path style=" stroke:none;fill-rule:nonzero;fill:rgb(0%,0%,0%);fill-opacity:1;" d="M 260.203125 245.652344 C 261.28125 245.730469 261.996094 246.71875 262.1875 247.714844 C 262.289062 248.167969 262.3125 248.601562 262.359375 249.054688 L 262.359375 250.210938 C 262.300781 251.390625 262.019531 252.941406 260.738281 253.417969 C 259.625 253.863281 258.320312 253.171875 257.992188 252.035156 C 257.742188 251.433594 257.722656 250.824219 257.664062 250.210938 L 257.664062 249.054688 C 257.722656 247.875 257.96875 246.308594 259.242188 245.789062 L 259.296875 245.765625 L 259.34375 245.753906 L 259.398438 245.730469 L 259.570312 245.6875 L 259.671875 245.664062 L 259.796875 245.664062 L 259.820312 245.652344 Z M 260.203125 245.652344 Z M 259.851562 246.34375 C 258.898438 246.457031 258.617188 247.601562 258.546875 248.375 L 258.546875 248.679688 L 258.527344 248.703125 L 258.527344 250.277344 C 258.59375 251.09375 258.652344 252.148438 259.398438 252.695312 C 260.089844 253.171875 261.007812 252.636719 261.203125 251.898438 C 261.40625 251.355469 261.453125 250.824219 261.496094 250.277344 L 261.496094 248.703125 C 261.429688 247.875 261.316406 246.71875 260.363281 246.390625 L 260.285156 246.367188 L 260.261719 246.34375 L 260.160156 246.34375 L 260.136719 246.320312 L 259.875 246.320312 Z M 259.851562 246.34375 Z M 259.851562 246.34375 "/>
<path style=" stroke:none;fill-rule:nonzero;fill:rgb(0%,0%,0%);fill-opacity:1;" d="M 290.300781 245.890625 L 290.300781 250.664062 L 290.324219 250.6875 L 291.445312 250.6875 L 291.445312 251.367188 L 290.324219 251.367188 L 290.300781 251.378906 L 290.300781 253.292969 L 289.4375 253.292969 L 289.4375 251.378906 L 289.414062 251.367188 L 286.421875 251.367188 L 286.421875 250.664062 C 287.375 249.078125 288.328125 247.476562 289.28125 245.890625 Z M 290.300781 245.890625 Z M 289.460938 246.320312 C 289.234375 247.5 288.507812 248.511719 287.964844 249.542969 C 287.75 249.914062 287.464844 250.324219 287.308594 250.6875 L 289.484375 250.6875 L 289.496094 250.664062 L 289.496094 246.320312 L 289.484375 246.300781 Z M 289.460938 246.320312 Z M 289.460938 246.320312 "/>
<path style=" stroke:none;fill-rule:nonzero;fill:rgb(0%,0%,0%);fill-opacity:1;" d="M 293.816406 252.386719 L 293.816406 253.292969 L 292.898438 253.292969 L 292.898438 252.386719 Z M 293.816406 252.386719 Z M 293.816406 252.386719 "/>
<path style=" stroke:none;fill-rule:nonzero;fill:rgb(0%,0%,0%);fill-opacity:1;" d="M 299.621094 245.890625 L 299.621094 246.59375 L 296.671875 246.59375 L 296.648438 246.605469 L 296.648438 248.929688 C 296.921875 248.746094 297.308594 248.511719 297.671875 248.5 C 298.953125 248.363281 299.9375 249.621094 299.996094 250.789062 C 300.175781 252.273438 298.78125 253.75 297.285156 253.523438 C 296.535156 253.5 295.8125 253.058594 295.378906 252.445312 C 295.503906 252.273438 295.605469 251.980469 295.753906 251.878906 C 296.289062 252.921875 298.011719 253.339844 298.703125 252.242188 C 299.144531 251.414062 299.132812 250.359375 298.621094 249.5625 C 298.035156 248.804688 296.867188 249.269531 296.59375 250.074219 L 295.855469 250.074219 L 295.855469 245.890625 Z M 299.621094 245.890625 Z M 299.621094 245.890625 "/>
<path style=" stroke:none;fill-rule:nonzero;fill:rgb(0%,0%,0%);fill-opacity:1;" d="M 328.550781 245.890625 L 328.550781 246.59375 L 325.601562 246.59375 L 325.578125 246.605469 L 325.578125 248.929688 C 325.851562 248.746094 326.234375 248.511719 326.597656 248.5 C 327.878906 248.363281 328.867188 249.621094 328.921875 250.789062 C 329.105469 252.273438 327.710938 253.75 326.214844 253.523438 C 325.464844 253.5 324.738281 253.058594 324.308594 252.445312 C 324.433594 252.273438 324.535156 251.980469 324.683594 251.878906 C 325.214844 252.921875 326.9375 253.339844 327.628906 252.242188 C 328.074219 251.414062 328.0625 250.359375 327.550781 249.5625 C 326.960938 248.804688 325.792969 249.269531 325.523438 250.074219 L 324.785156 250.074219 L 324.785156 245.890625 Z M 328.550781 245.890625 Z M 328.550781 245.890625 "/>
<path style=" stroke:none;fill-rule:nonzero;fill:rgb(0%,0%,0%);fill-opacity:1;" d="M 331.554688 252.386719 L 331.554688 253.292969 L 330.636719 253.292969 L 330.636719 252.386719 Z M 331.554688 252.386719 Z M 331.554688 252.386719 "/>
<path style=" stroke:none;fill-rule:nonzero;fill:rgb(0%,0%,0%);fill-opacity:1;" d="M 335.679688 245.652344 C 336.757812 245.730469 337.472656 246.71875 337.664062 247.714844 C 337.765625 248.167969 337.789062 248.601562 337.835938 249.054688 L 337.835938 250.210938 C 337.777344 251.390625 337.496094 252.941406 336.214844 253.417969 C 335.101562 253.863281 333.796875 253.171875 333.46875 252.035156 C 333.21875 251.433594 333.199219 250.824219 333.140625 250.210938 L 333.140625 249.054688 C 333.199219 247.875 333.445312 246.308594 334.71875 245.789062 L 334.773438 245.765625 L 334.820312 245.753906 L 334.875 245.730469 L 335.046875 245.6875 L 335.148438 245.664062 L 335.273438 245.664062 L 335.296875 245.652344 Z M 335.679688 245.652344 Z M 335.328125 246.34375 C 334.378906 246.457031 334.09375 247.601562 334.027344 248.375 L 334.027344 248.679688 L 334.003906 248.703125 L 334.003906 250.277344 C 334.070312 251.09375 334.128906 252.148438 334.875 252.695312 C 335.566406 253.171875 336.484375 252.636719 336.679688 251.898438 C 336.882812 251.355469 336.929688 250.824219 336.972656 250.277344 L 336.972656 248.703125 C 336.90625 247.875 336.792969 246.71875 335.839844 246.390625 L 335.761719 246.367188 L 335.738281 246.34375 L 335.636719 246.34375 L 335.613281 246.320312 L 335.351562 246.320312 Z M 335.328125 246.34375 Z M 335.328125 246.34375 "/>
<path style="fill:none;stroke-width:0.02;stroke-linecap:butt;stroke-linejoin:miter;stroke:rgb(0%,0%,0%);stroke-opacity:1;stroke-miterlimit:10;" d="M 2.325302 8.769041 L 2.325302 8.618972 " transform="matrix(28.346457,0,0,-28.346457,1,256.11811)"/>
<path style="fill:none;stroke-width:0.02;stroke-linecap:butt;stroke-linejoin:miter;stroke:rgb(0%,0%,0%);stroke-opacity:1;stroke-miterlimit:10;" d="M 3.656624 8.769041 L 3.656624 8.618972 " transform="matrix(28.346457,0,0,-28.346457,1,256.11811)"/>
<path style="fill:none;stroke-width:0.02;stroke-linecap:butt;stroke-linejoin:miter;stroke:rgb(0%,0%,0%);stroke-opacity:1;stroke-miterlimit:10;" d="M 4.987947 8.769041 L 4.987947 8.618972 " transform="matrix(28.346457,0,0,-28.346457,1,256.11811)"/>
<path style="fill:none;stroke-width:0.02;stroke-linecap:butt;stroke-linejoin:miter;stroke:rgb(0%,0%,0%);stroke-opacity:1;stroke-miterlimit:10;" d="M 6.31927 8.769041 L 6.31927 8.618972 " transform="matrix(28.346457,0,0,-28.346457,1,256.11811)"/>
<path style="fill:none;stroke-width:0.02;stroke-linecap:butt;stroke-linejoin:miter;stroke:rgb(0%,0%,0%);stroke-opacity:1;stroke-miterlimit:10;" d="M 7.650592 8.769041 L 7.650592 8.618972 " transform="matrix(28.346457,0,0,-28.346457,1,256.11811)"/>
<path style="fill:none;stroke-width:0.02;stroke-linecap:butt;stroke-linejoin:miter;stroke:rgb(0%,0%,0%);stroke-opacity:1;stroke-miterlimit:10;" d="M 8.981915 8.769041 L 8.981915 8.618972 " transform="matrix(28.346457,0,0,-28.346457,1,256.11811)"/>
<path style="fill:none;stroke-width:0.02;stroke-linecap:butt;stroke-linejoin:miter;stroke:rgb(0%,0%,0%);stroke-opacity:1;stroke-miterlimit:10;" d="M 10.313238 8.769041 L 10.313238 8.618972 " transform="matrix(28.346457,0,0,-28.346457,1,256.11811)"/>
<path style="fill:none;stroke-width:0.02;stroke-linecap:round;stroke-linejoin:miter;stroke:rgb(0%,0%,0%);stroke-opacity:1;stroke-miterlimit:10;" d="M 0.993979 8.769041 L 11.644561 8.769041 " transform="matrix(28.346457,0,0,-28.346457,1,256.11811)"/>
<path style="fill:none;stroke-width:0.05;stroke-linecap:butt;stroke-linejoin:miter;stroke:rgb(33%,47%,64%);stroke-opacity:1;stroke-miterlimit:10;" d="M 0.993979 1.575406 L 3.656624 7.234044 L 6.31927 7.909972 L 8.981915 4.051603 L 11.644561 0.744724 " transform="matrix(28.346457,0,0,-28.346457,1,256.11811)"/>
</g>
</svg>
