<svg xmlns="http://www.w3.org/2000/svg" width="456.21" height="342.824" viewBox="0 0 342.157 257.118"><path style="fill:none;stroke-width:.02;stroke-linecap:butt;stroke-linejoin:miter;stroke:#000;stroke-opacity:1;stroke-miterlimit:10" d="M.994 1.428h.15M.994 2.243h.15M.994 3.06h.15M.994 3.875h.15M.994 4.69h.15M.994 5.506h.15M.994 6.322h.15M.994 7.138h.15M.994 7.953h.15" transform="matrix(28.34646 0 0 -28.34646 1 256.118)"/><path style="fill:none;stroke-width:.02;stroke-linecap:round;stroke-linejoin:miter;stroke:#000;stroke-opacity:1;stroke-miterlimit:10" d="M.994.612v8.157" transform="matrix(28.34646 0 0 -28.34646 1 256.118)"/><path style="stroke:none;fill-rule:nonzero;fill:#000;fill-opacity:1" d="M6.941 239.684v.632H3.973v-.632Zm0 0ZM10.988 234.852v6.996l.012.023h1.395v.625H8.71v-.625h1.394l.024-.023v-5.871c-.477.156-.977.257-1.477.246v-.633c.75.012 1.567-.192 2.133-.738Zm0 0ZM15.32 241.586v.91h-.918v-.91Zm0 0ZM19.45 234.852c1.073.082 1.788 1.066 1.984 2.066.101.453.125.883.168 1.336v1.156c-.055 1.18-.34 2.735-1.622 3.211-1.109.441-2.414-.25-2.742-1.387-.25-.597-.273-1.21-.332-1.824v-1.156c.059-1.18.309-2.742 1.578-3.266l.055-.023.047-.012.059-.02.168-.046.101-.024h.125l.023-.011Zm0 0Zm-.352.691c-.953.113-1.239 1.262-1.305 2.031v.305l-.023.023v1.578c.066.817.125 1.868.875 2.415.69.476 1.609-.06 1.8-.793.203-.547.25-1.079.297-1.622v-1.578c-.07-.828-.183-1.984-1.137-2.312l-.078-.024-.023-.023h-.102l-.023-.02h-.262Zm0 0ZM6.941 216.563v.632H3.973v-.632Zm0 0ZM10.637 211.73c1.078.079 1.793 1.067 1.984 2.063.102.453.125.887.172 1.34v1.156c-.059 1.18-.34 2.73-1.621 3.207-1.113.445-2.418-.25-2.746-1.383-.25-.601-.27-1.21-.328-1.824v-1.156c.058-1.18.304-2.746 1.578-3.266l.054-.023.047-.012.055-.023.172-.043.101-.024h.125l.024-.012Zm0 0Zm-.352.692c-.953.113-1.234 1.258-1.305 2.031v.305l-.02.023v1.574c.067.817.126 1.872.872 2.418.691.473 1.61-.058 1.805-.796.203-.543.25-1.075.293-1.622v-1.574c-.067-.828-.18-1.984-1.133-2.312l-.078-.024-.024-.023h-.101l-.024-.024h-.261Zm0 0ZM15.32 218.465v.906h-.918v-.906Zm0 0ZM19.469 211.73c1.203.047 2.336 1.336 1.863 2.54-.207.554-.773.894-1.238 1.132 1.156.344 1.86 1.692 1.34 2.801-.547 1.442-2.61 1.895-3.743.852-1.03-.817-1.066-2.586.079-3.309.171-.184.488-.238.636-.375-.988-.285-1.656-1.43-1.191-2.394.375-.86 1.336-1.336 2.254-1.247Zm0 0Zm-.43.645c-.84.023-1.43.977-1.144 1.727.328 1.293 2.496 1.246 2.742-.082.226-.735-.36-1.622-1.168-1.645l-.02-.008h-.387Zm0 0Zm.023 3.371c-.988.066-1.472 1.246-1.214 2.086.172 1.188 1.87 1.54 2.543.59.644-.875.328-2.442-.84-2.676h-.102l-.023-.023h-.352Zm0 0ZM6.941 193.438v.636H3.973v-.637Zm0 0ZM10.637 188.61c1.078.077 1.793 1.066 1.984 2.062.102.453.125.883.172 1.336v1.16c-.059 1.176-.34 2.73-1.621 3.207-1.113.441-2.418-.25-2.746-1.383-.25-.601-.27-1.215-.328-1.824v-1.16c.058-1.176.304-2.742 1.578-3.262l.054-.023.047-.012.055-.024.172-.046.101-.02h.125l.024-.012Zm0 0Zm-.352.69c-.953.114-1.234 1.259-1.305 2.028v.309l-.02.023v1.574c.067.817.126 1.871.872 2.414.691.477 1.61-.054 1.805-.793.203-.542.25-1.078.293-1.62v-1.575c-.067-.828-.18-1.984-1.133-2.316l-.078-.02-.024-.023h-.101l-.024-.024h-.261Zm0 0ZM15.32 195.344v.906h-.918v-.906Zm0 0ZM20.184 188.61c.296.042.636.077.918.214v.656c-.782-.34-1.801-.382-2.415.31-.542.577-.792 1.437-.816 2.198.66-.875 2.145-1.363 2.95-.453.804.93.94 2.266.577 3.399-.398.91-1.316 1.734-2.335 1.543-1.383-.114-2.008-1.657-2.075-2.836-.261-1.664.137-3.762 1.723-4.715l.023-.012.239-.125.066-.023.035-.02.192-.059.16-.046.101-.02h.125l.024-.012Zm0 0Zm-1.11 3.152c-.988.168-1.304 1.36-1.18 2.164.06.762.352 1.77 1.223 1.93.93.12 1.531-.876 1.555-1.68.047-.817 0-1.746-.715-2.281l-.156-.079-.125-.035-.102-.02-.023-.023h-.453Zm0 0ZM6.941 170.316v.637H3.973v-.637Zm0 0ZM10.637 165.484c1.078.082 1.793 1.067 1.984 2.067.102.453.125.883.172 1.336v1.156c-.059 1.18-.34 2.734-1.621 3.21-1.113.442-2.418-.25-2.746-1.382-.25-.601-.27-1.215-.328-1.828v-1.156c.058-1.18.304-2.742 1.578-3.266l.054-.023.047-.008.055-.024.172-.046.101-.024h.125l.024-.012Zm0 0Zm-.352.692c-.953.117-1.234 1.262-1.305 2.031v.305l-.02.023v1.578c.067.817.126 1.871.872 2.414.691.477 1.61-.058 1.805-.793.203-.547.25-1.078.293-1.62v-1.579c-.067-.828-.18-1.984-1.133-2.312l-.078-.024-.024-.023h-.101l-.024-.02h-.261Zm0 0ZM15.32 172.223v.906h-.918v-.906Zm0 0ZM20.617 165.723v4.773l.02.024h1.125v.68h-1.125l-.02.01v1.919h-.863v-1.918l-.024-.012h-2.992v-.703c.953-1.586 1.907-3.184 2.856-4.773Zm0 0Zm-.84.433c-.226 1.18-.953 2.188-1.496 3.219-.215.375-.5.781-.66 1.145h2.18l.012-.024v-4.34l-.012-.023Zm0 0ZM6.941 147.195v.633H3.973v-.633Zm0 0ZM10.637 142.363c1.078.078 1.793 1.067 1.984 2.063.102.457.125.887.172 1.34v1.156c-.059 1.18-.34 2.734-1.621 3.207-1.113.445-2.418-.246-2.746-1.383-.25-.601-.27-1.21-.328-1.824v-1.156c.058-1.18.304-2.746 1.578-3.266l.054-.023.047-.012.055-.024.172-.043.101-.023h.125l.024-.012Zm0 0Zm-.352.692c-.953.113-1.234 1.257-1.305 2.03v.306l-.02.023v1.574c.067.817.126 1.871.872 2.418.691.477 1.61-.058 1.805-.793.203-.547.25-1.078.293-1.625v-1.574c-.067-.828-.18-1.984-1.133-2.312l-.078-.024-.024-.023h-.101l-.024-.024h-.261Zm0 0ZM15.32 149.098v.91h-.918v-.91Zm0 0ZM19.324 142.363c1.313.035 2.356 1.383 2.153 2.653-.137 1.27-1.325 1.996-2.176 2.789l-.363.375-.047.023-.453.442-.032.023-.453.453-.047.024-.101.101.023.012H21.5v.75h-4.488v-.684l1.824-1.824c.871-.758 1.894-1.746 1.734-2.992-.09-.727-.703-1.395-1.453-1.453-.758-.114-1.426.488-1.597 1.215l-.024.03-.02.083-.105.375-.008.054c-.16-.19-.332-.394-.457-.613.23-.93.977-1.8 1.965-1.836Zm0 0ZM10.637 119.242c1.078.078 1.793 1.067 1.984 2.063.102.453.125.886.172 1.34v1.156c-.059 1.18-.34 2.73-1.621 3.207-1.113.441-2.418-.25-2.746-1.383-.25-.602-.27-1.215-.328-1.824v-1.156c.058-1.18.304-2.747 1.578-3.266l.054-.024.047-.011.055-.024.172-.043.101-.023h.125l.024-.012Zm0 0Zm-.352.692c-.953.113-1.234 1.257-1.305 2.027v.309l-.02.023v1.574c.067.817.126 1.871.872 2.414.691.477 1.61-.054 1.805-.793.203-.543.25-1.078.293-1.62v-1.575c-.067-.828-.18-1.984-1.133-2.313l-.078-.023-.024-.023h-.101l-.024-.024h-.261Zm0 0ZM15.32 125.977v.906h-.918v-.906Zm0 0ZM19.45 119.242c1.073.078 1.788 1.067 1.984 2.063.101.453.125.886.168 1.34v1.156c-.055 1.18-.34 2.73-1.622 3.207-1.109.441-2.414-.25-2.742-1.383-.25-.602-.273-1.215-.332-1.824v-1.156c.059-1.18.309-2.747 1.578-3.266l.055-.024.047-.011.059-.024.168-.043.101-.023h.125l.023-.012Zm0 0Zm-.352.692c-.953.113-1.239 1.257-1.305 2.027v.309l-.023.023v1.574c.066.817.125 1.871.875 2.414.69.477 1.609-.054 1.8-.793.203-.543.25-1.078.297-1.62v-1.575c-.07-.828-.183-1.984-1.137-2.313l-.078-.023-.023-.023h-.102l-.023-.024h-.262Zm0 0ZM10.637 96.121c1.078.078 1.793 1.063 1.984 2.063.102.453.125.882.172 1.336v1.156c-.059 1.18-.34 2.734-1.621 3.21-1.113.442-2.418-.25-2.746-1.382-.25-.602-.27-1.215-.328-1.828V99.52c.058-1.18.304-2.743 1.578-3.266l.054-.02.047-.011.055-.024.172-.047.101-.023h.125l.024-.008Zm0 0Zm-.352.692c-.953.113-1.234 1.257-1.305 2.027v.308l-.02.02v1.578c.067.817.126 1.871.872 2.414.691.477 1.61-.055 1.805-.793.203-.543.25-1.078.293-1.62v-1.579c-.067-.828-.18-1.984-1.133-2.313l-.078-.023-.024-.02h-.101l-.024-.023h-.261Zm0 0ZM15.32 102.855v.907h-.918v-.907Zm0 0ZM19.324 96.121c1.313.031 2.356 1.383 2.153 2.652-.137 1.27-1.325 1.997-2.176 2.79l-.363.374-.047.02-.453.445-.032.02-.453.457-.047.02-.101.101.023.012H21.5v.75h-4.488v-.68l1.824-1.828c.871-.758 1.894-1.746 1.734-2.992-.09-.727-.703-1.395-1.453-1.45-.758-.113-1.426.485-1.597 1.211l-.024.036-.02.078-.105.375-.008.058c-.16-.195-.332-.398-.457-.613.23-.93.977-1.805 1.965-1.836Zm0 0ZM10.637 72.996c1.078.082 1.793 1.067 1.984 2.067.102.453.125.882.172 1.335v1.157c-.059 1.18-.34 2.734-1.621 3.21-1.113.442-2.418-.25-2.746-1.386-.25-.598-.27-1.211-.328-1.824v-1.157c.058-1.18.304-2.742 1.578-3.265l.054-.024.047-.011.055-.02.172-.047.101-.023h.125l.024-.012Zm0 0Zm-.352.692c-.953.113-1.234 1.261-1.305 2.03v.305l-.02.024v1.578c.067.816.126 1.871.872 2.414.691.477 1.61-.059 1.805-.793.203-.547.25-1.078.293-1.621v-1.578c-.067-.828-.18-1.984-1.133-2.313l-.078-.023-.024-.023h-.101l-.024-.02h-.261Zm0 0ZM15.32 79.73v.91h-.918v-.91Zm0 0ZM20.617 73.234v4.774l.02.023h1.125v.68h-1.125l-.02.012v1.918h-.863v-1.918l-.024-.012h-2.992v-.703c.953-1.586 1.907-3.184 2.856-4.774Zm0 0Zm-.84.434c-.226 1.176-.953 2.187-1.496 3.219-.215.375-.5.781-.66 1.144h2.18l.012-.023v-4.34l-.012-.023Zm0 0ZM10.637 49.875c1.078.078 1.793 1.066 1.984 2.063.102.453.125.886.172 1.34v1.156c-.059 1.18-.34 2.73-1.621 3.207-1.113.445-2.418-.25-2.746-1.383-.25-.602-.27-1.211-.328-1.824v-1.157c.058-1.18.304-2.746 1.578-3.265l.054-.024.047-.011.055-.024.172-.043.101-.023h.125l.024-.012Zm0 0Zm-.352.691c-.953.114-1.234 1.258-1.305 2.032v.304l-.02.024V54.5c.067.816.126 1.871.872 2.418.691.473 1.61-.059 1.805-.797.203-.543.25-1.074.293-1.621v-1.574c-.067-.828-.18-1.985-1.133-2.313l-.078-.023-.024-.024h-.101l-.024-.023h-.261Zm0 0ZM15.32 56.61v.906h-.918v-.907Zm0 0ZM20.184 49.875c.296.047.636.078.918.215v.656c-.782-.34-1.801-.383-2.415.309-.542.578-.792 1.441-.816 2.199.66-.875 2.145-1.36 2.95-.453.804.93.94 2.265.577 3.402-.398.906-1.316 1.734-2.335 1.54-1.383-.114-2.008-1.653-2.075-2.833-.261-1.668.137-3.765 1.723-4.719l.023-.011.239-.125.066-.02.035-.023.192-.059.16-.043.101-.023h.125l.024-.012Zm0 0Zm-1.11 3.152c-.988.168-1.304 1.36-1.18 2.164.06.762.352 1.77 1.223 1.93.93.125 1.531-.875 1.555-1.68.047-.816 0-1.746-.715-2.277l-.156-.082-.125-.031-.102-.024-.023-.023h-.453Zm0 0ZM10.637 26.754c1.078.078 1.793 1.066 1.984 2.062.102.454.125.883.172 1.34v1.157c-.059 1.175-.34 2.73-1.621 3.207-1.113.44-2.418-.25-2.746-1.383-.25-.602-.27-1.215-.328-1.825v-1.156c.058-1.18.304-2.746 1.578-3.265l.054-.024.047-.012.055-.023.172-.047.101-.02h.125l.024-.011Zm0 0Zm-.352.691c-.953.114-1.234 1.258-1.305 2.028v.308l-.02.024v1.574c.067.816.126 1.871.872 2.414.691.477 1.61-.055 1.805-.793.203-.543.25-1.078.293-1.621v-1.574c-.067-.828-.18-1.985-1.133-2.317l-.078-.02-.024-.023h-.101l-.024-.023h-.261Zm0 0ZM15.32 33.488v.907h-.918v-.907Zm0 0ZM19.469 26.754c1.203.043 2.336 1.336 1.863 2.539-.207.555-.773.895-1.238 1.133 1.156.34 1.86 1.691 1.34 2.8-.547 1.442-2.61 1.895-3.743.852-1.03-.816-1.066-2.586.079-3.312.171-.18.488-.239.636-.375-.988-.282-1.656-1.426-1.191-2.391.375-.863 1.336-1.34 2.254-1.246Zm0 0Zm-.43.644c-.84.024-1.43.977-1.144 1.723.328 1.293 2.496 1.25 2.742-.078.226-.738-.36-1.621-1.168-1.645l-.02-.011h-.387Zm0 0Zm.023 3.368c-.988.07-1.472 1.25-1.214 2.086.172 1.191 1.87 1.543 2.543.59.644-.872.328-2.438-.84-2.676h-.102l-.023-.024h-.352Zm0 0ZM10.988 3.629v6.996l.012.023h1.395v.625H8.71v-.625h1.394l.024-.023V4.754c-.477.156-.977.262-1.477.25v-.637c.75.012 1.567-.191 2.133-.738Zm0 0ZM15.32 10.367v.906h-.918v-.906Zm0 0ZM19.45 3.629c1.073.082 1.788 1.066 1.984 2.066.101.453.125.883.168 1.336v1.157c-.055 1.18-.34 2.734-1.622 3.21-1.109.442-2.414-.25-2.742-1.382-.25-.602-.273-1.215-.332-1.829V7.032c.059-1.18.309-2.742 1.578-3.265l.055-.024.047-.008.059-.023.168-.047.101-.023h.125l.023-.012Zm0 0Zm-.352.691c-.953.117-1.239 1.262-1.305 2.032v.304l-.023.024v1.578c.066.816.125 1.87.875 2.414.69.476 1.609-.059 1.8-.793.203-.547.25-1.078.297-1.621V6.68c-.07-.828-.183-1.985-1.137-2.313l-.078-.023-.023-.024h-.102l-.023-.02h-.262Zm0 0Zm0 0"/><path style="fill:none;stroke-width:.02;stroke-linecap:butt;stroke-linejoin:miter;stroke:#000;stroke-opacity:1;stroke-miterlimit:10" d="M11.8 1.428h-.15M11.8 2.243h-.15M11.8 3.06h-.15M11.8 3.875h-.15M11.8 4.69h-.15M11.8 5.506h-.15M11.8 6.322h-.15M11.8 7.138h-.15M11.8 7.953h-.15" transform="matrix(28.34646 0 0 -28.34646 1 256.118)"/><path style="fill:none;stroke-width:.02;stroke-linecap:round;stroke-linejoin:miter;stroke:#000;stroke-opacity:1;stroke-miterlimit:10" d="M11.8.612v8.157" transform="matrix(28.34646 0 0 -28.34646 1 256.118)"/><path style="fill:none;stroke-width:.02;stroke-linecap:butt;stroke-linejoin:miter;stroke:#000;stroke-opacity:1;stroke-miterlimit:10" d="M2.538.612v.15M4.081.612v.15M5.625.612v.15M7.169.612v.15M8.713.612v.15M10.256.612v.15" transform="matrix(28.34646 0 0 -28.34646 1 256.118)"/><path style="fill:none;stroke-width:.02;stroke-linecap:round;stroke-linejoin:miter;stroke:#000;stroke-opacity:1;stroke-miterlimit:10" d="M.994.612H11.8" transform="matrix(28.34646 0 0 -28.34646 1 256.118)"/><path style="stroke:none;fill-rule:nonzero;fill:#000;fill-opacity:1" d="M29.367 245.652c1.078.078 1.793 1.067 1.985 2.063.105.453.125.887.171 1.34v1.156c-.058 1.18-.34 2.73-1.62 3.207-1.114.445-2.415-.246-2.747-1.383-.246-.601-.27-1.21-.328-1.824v-1.156c.059-1.18.309-2.746 1.578-3.266l.055-.023.047-.012.055-.024.171-.042.102-.024h.125l.023-.012Zm0 0Zm-.347.692c-.954.113-1.239 1.258-1.305 2.031v.305l-.024.023v1.574c.067.817.125 1.871.872 2.418.69.477 1.613-.058 1.804-.797.203-.543.25-1.074.293-1.62v-1.575c-.066-.828-.18-1.984-1.133-2.312l-.078-.024-.023-.023h-.102l-.023-.024h-.262Zm0 0ZM73.48 245.652v6.996l.012.024h1.395v.621h-3.688v-.621h1.395l.023-.024v-5.875c-.476.16-.972.262-1.472.25v-.632c.746.011 1.562-.196 2.128-.739Zm0 0ZM116.762 245.652c1.316.036 2.36 1.383 2.156 2.653-.137 1.27-1.328 1.996-2.18 2.789l-.363.375-.043.023-.453.442-.035.023-.453.453-.047.024-.102.101.024.012h3.671v.746h-4.488v-.68l1.824-1.824c.875-.762 1.895-1.746 1.735-2.992-.09-.727-.703-1.395-1.45-1.453-.761-.114-1.43.488-1.597 1.215l-.023.03-.024.083-.035.125-.067.25-.011.055a4.6 4.6 0 0 1-.453-.614c.226-.93.972-1.8 1.96-1.836Zm0 0ZM160.668 245.652c1 .047 2.043.965 1.805 2.02-.114.715-.614 1.305-1.239 1.621 1.012.316 1.793 1.383 1.52 2.437-.27 1.372-1.848 2.133-3.117 1.711-.614-.18-1.235-.566-1.532-1.132.067-.172.047-.465.125-.579.602.883 1.872 1.485 2.868.985 1.09-.692.922-2.707-.395-3.047h-.101l-.024-.023h-1.055v-.68c.645-.012 1.45-.094 1.813-.762.387-.578.351-1.531-.383-1.812-.875-.34-1.953.214-2.281 1.097a19.29 19.29 0 0 1-.406-.59c.464-.835 1.449-1.335 2.402-1.246Zm0 0ZM205.574 245.89v4.774l.02.024h1.125v.68h-1.125l-.02.01v1.915h-.863v-1.914l-.024-.012h-2.992v-.703c.953-1.586 1.903-3.187 2.856-4.773Zm0 0Zm-.84.43c-.226 1.18-.953 2.192-1.496 3.223-.218.371-.5.781-.66 1.144h2.18l.008-.023v-4.344l-.008-.02Zm0 0ZM249.84 245.89v.704h-2.945l-.024.011v2.325c.274-.184.656-.418 1.02-.43 1.28-.137 2.27 1.121 2.324 2.29.183 1.483-1.211 2.96-2.711 2.733-.746-.023-1.473-.464-1.902-1.078.125-.172.226-.465.375-.566.53 1.043 2.253 1.46 2.945.363.441-.828.433-1.883-.078-2.68-.59-.757-1.758-.292-2.031.512h-.735v-4.183Zm0 0ZM292.66 245.652c.293.047.633.078.918.215v.66c-.781-.343-1.805-.386-2.414.305-.547.578-.797 1.441-.816 2.2.656-.872 2.14-1.36 2.945-.454.805.93.941 2.266.578 3.402-.394.907-1.312 1.735-2.336 1.543-1.383-.117-2.004-1.656-2.074-2.835-.262-1.668.137-3.766 1.723-4.72l.023-.011.238-.121.07-.024.032-.023.195-.059.156-.042.102-.024h.125l.023-.012Zm0 0Zm-1.113 3.153c-.985.172-1.305 1.36-1.18 2.164.059.761.352 1.77 1.227 1.93.93.124 1.531-.876 1.554-1.68.043-.817 0-1.746-.714-2.278l-.16-.078-.126-.035-.101-.023-.024-.024h-.453Zm0 0ZM337.836 245.89v.715c-1.61 1.883-2.52 4.422-2.508 6.813h-.918c-.023-2.414.965-4.965 2.688-6.746l-.024-.02h-3.933v-.761h4.695v.714Zm0 0Zm0 0"/><path style="fill:none;stroke-width:.02;stroke-linecap:butt;stroke-linejoin:miter;stroke:#000;stroke-opacity:1;stroke-miterlimit:10" d="M2.538 8.769v-.15M4.081 8.769v-.15M5.625 8.769v-.15M7.169 8.769v-.15M8.713 8.769v-.15M10.256 8.769v-.15" transform="matrix(28.34646 0 0 -28.34646 1 256.118)"/><path style="fill:none;stroke-width:.02;stroke-linecap:round;stroke-linejoin:miter;stroke:#000;stroke-opacity:1;stroke-miterlimit:10" d="M.994 8.769H11.8" transform="matrix(28.34646 0 0 -28.34646 1 256.118)"/><path style="fill:none;stroke-width:.05;stroke-linecap:butt;stroke-linejoin:miter;stroke:#5478a3;stroke-opacity:1;stroke-miterlimit:10" d="m.994 4.69.033.086.032.086.033.086.065.172.032.085.033.085.032.085.033.085.032.084.033.084.033.083.032.083.033.083.032.082.033.081.032.081.033.08.032.08.033.079.032.078.033.077.033.077.032.075.033.075.032.074.033.073.032.072.033.07.032.07.033.07.032.067.033.067.033.065.032.064.033.063.032.062.033.06.032.06.033.058.032.056.033.055.033.054.032.052.033.051.032.05.033.047.032.047.033.045.032.043.033.041.032.04.033.039.033.037.032.035.033.034.032.032.033.03.032.028.033.027.032.025.033.023.033.022.032.02.033.017.032.017.033.014.032.013.033.01.032.01.033.007.032.005.033.004.033.002h.032l.033-.002.032-.004.033-.005.032-.007.033-.01.032-.01.033-.013.032-.014.033-.017.033-.018.032-.02.033-.02.032-.024.033-.025.032-.027.033-.028.032-.03.033-.032.032-.034.033-.035.033-.037.032-.038.033-.04.032-.042.033-.043.032-.045.033-.047.032-.047.033-.05.033-.05.032-.053.033-.054.032-.055.033-.056.032-.058.033-.06.032-.06.033-.062.032-.063.033-.064.033-.065.032-.067.033-.067.032-.07.033-.07.032-.07.033-.072.032-.073.033-.074.032-.075.033-.075.033-.077.032-.077.033-.078.032-.079.033-.08.032-.08.033-.08.032-.082.033-.082.033-.083.032-.083.033-.083.032-.084.033-.084.032-.085.033-.085.065-.17.032-.086.033-.086.033-.086.097-.258.033-.085.032-.086.033-.086.032-.086.033-.085.032-.085.033-.085.033-.085.032-.084.033-.084.032-.083.033-.083.032-.083.033-.082.032-.081.033-.081.033-.08.032-.08.033-.079.032-.078.033-.077.032-.077.033-.075.032-.075.033-.074.032-.073.033-.072.033-.07.032-.07.033-.07.032-.067.033-.067.032-.065.033-.064.032-.063.033-.062.032-.06.033-.06.033-.058.032-.056.033-.055.032-.054.033-.052.032-.051.033-.05.032-.047.033-.047.033-.045.032-.043.033-.042.032-.04.033-.038L7.6.987l.033-.035.032-.034L7.7.887l.032-.03.033-.03.033-.026.032-.025.033-.023.032-.022.033-.02.032-.017.033-.017.032-.014.033-.013.032-.01.033-.01.033-.007.032-.005.033-.004.032-.002h.033l.032.002.033.004.032.005.033.007.033.01.032.01.033.013.032.014.033.017.032.018.033.02.032.02.033.024.032.025.033.027.033.028.032.03.033.032.032.034.033.035.032.037.033.038.032.04.033.042.033.043.032.045.033.047.032.047.033.05.032.05.033.053.032.054.033.055.032.056.033.058.033.06.032.06.033.062.032.063.033.064.032.065.033.067.032.068.033.068.032.07.033.071.033.072.032.073.033.074.032.075.033.075.032.077.033.077.032.078.033.079.033.08.032.08.033.08.032.082.033.082.032.083.033.083.032.083.033.084.032.084.033.085.033.085.032.085.033.085.032.086.033.086.032.086.033.085.032.086" transform="matrix(28.34646 0 0 -28.34646 1 256.118)"/></svg>