<svg xmlns="http://www.w3.org/2000/svg" width="456.21" height="342.824" viewBox="0 0 342.157 257.118"><path style="fill:none;stroke-width:.02;stroke-linecap:butt;stroke-linejoin:miter;stroke:#000;stroke-opacity:1;stroke-miterlimit:10" d="M.86 1.971h.15M.86 3.331h.15M.86 4.69h.15M.86 6.05h.15M.86 7.41h.15" transform="matrix(28.34646 0 0 -28.34646 1 256.118)"/><path style="fill:none;stroke-width:.02;stroke-linecap:round;stroke-linejoin:miter;stroke:#000;stroke-opacity:1;stroke-miterlimit:10" d="M.86.612v8.157" transform="matrix(28.34646 0 0 -28.34646 1 256.118)"/><path style="stroke:none;fill-rule:nonzero;fill:#000;fill-opacity:1" d="M6.863 234.852c1.074.082 1.79 1.066 1.985 2.066.101.453.125.883.168 1.336v1.156c-.055 1.18-.34 2.735-1.621 3.211-1.11.441-2.415-.25-2.743-1.387-.25-.597-.273-1.21-.332-1.824v-1.156c.059-1.18.309-2.742 1.578-3.266l.055-.023.047-.012.059-.02.168-.046.101-.024h.125l.024-.011Zm0 0Zm-.351.691c-.953.113-1.239 1.262-1.305 2.031v.305l-.023.023v1.578c.07.817.125 1.868.875 2.415.691.476 1.609-.06 1.8-.793.204-.547.25-1.079.297-1.622v-1.578c-.07-.828-.183-1.984-1.136-2.312l-.079-.024-.023-.023h-.102l-.023-.02h-.258Zm0 0ZM11.543 241.586v.91h-.918v-.91Zm0 0ZM15.672 234.852c1.078.082 1.793 1.066 1.984 2.066.102.453.125.883.172 1.336v1.156c-.058 1.18-.344 2.735-1.625 3.211-1.11.441-2.414-.25-2.742-1.387-.25-.597-.274-1.21-.328-1.824v-1.156c.055-1.18.305-2.742 1.574-3.266l.059-.023.043-.012.058-.02.172-.046.102-.024h.125l.02-.011Zm0 0Zm-.352.691c-.953.113-1.234 1.262-1.304 2.031v.305l-.024.023v1.578c.07.817.125 1.868.875 2.415.692.476 1.61-.06 1.801-.793.207-.547.25-1.079.297-1.622v-1.578c-.067-.828-.18-1.984-1.133-2.312l-.082-.024-.02-.023h-.105l-.02-.02h-.261Zm0 0ZM6.863 196.316c1.074.079 1.79 1.067 1.985 2.063.101.453.125.883.168 1.34v1.156c-.055 1.18-.34 2.73-1.621 3.207-1.11.441-2.415-.25-2.743-1.383-.25-.601-.273-1.215-.332-1.824v-1.156c.059-1.18.309-2.746 1.578-3.266l.055-.023.047-.012.059-.023.168-.047.101-.02h.125l.024-.012Zm0 0Zm-.351.692c-.953.113-1.239 1.258-1.305 2.027v.309l-.023.023v1.574c.07.817.125 1.871.875 2.414.691.477 1.609-.054 1.8-.792.204-.543.25-1.079.297-1.622v-1.574c-.07-.828-.183-1.984-1.136-2.316l-.079-.02-.023-.023h-.102l-.023-.024h-.258Zm0 0ZM11.543 203.05v.907h-.918v-.906Zm0 0ZM17.352 196.555v.703h-2.95l-.023.012v2.324c.273-.184.66-.422 1.02-.434 1.28-.133 2.269 1.125 2.324 2.293.183 1.484-1.211 2.957-2.707 2.73-.75-.023-1.477-.464-1.907-1.078.125-.167.227-.464.375-.566.532 1.043 2.254 1.465 2.95.363.441-.828.43-1.882-.082-2.675-.59-.758-1.758-.293-2.028.511h-.738v-4.183Zm0 0ZM7.215 157.777v6.996l.012.024H8.62v.625H4.934v-.625h1.394l.024-.024v-5.87c-.477.156-.977.257-1.473.25v-.637c.746.011 1.562-.192 2.129-.739Zm0 0ZM11.543 164.516v.906h-.918v-.906Zm0 0ZM15.672 157.777c1.078.082 1.793 1.067 1.984 2.067.102.453.125.883.172 1.336v1.156c-.058 1.18-.344 2.734-1.625 3.21-1.11.442-2.414-.25-2.742-1.382-.25-.601-.274-1.215-.328-1.828v-1.156c.055-1.18.305-2.743 1.574-3.266l.059-.023.043-.012.058-.02.172-.047.102-.023h.125l.02-.012Zm0 0Zm-.352.692c-.953.113-1.234 1.261-1.304 2.031v.305l-.024.023v1.578c.07.817.125 1.871.875 2.414.692.477 1.61-.058 1.801-.793.207-.547.25-1.078.297-1.62v-1.579c-.067-.828-.18-1.984-1.133-2.312l-.082-.024-.02-.023h-.105l-.02-.02h-.261Zm0 0ZM7.215 119.242v6.996l.012.024H8.62v.62H4.934v-.62h1.394l.024-.024v-5.875c-.477.16-.977.262-1.473.25v-.633c.746.008 1.562-.195 2.129-.738Zm0 0ZM11.543 125.977v.906h-.918v-.906Zm0 0ZM17.352 119.48v.704h-2.95l-.023.011v2.325c.273-.184.66-.422 1.02-.434 1.28-.133 2.269 1.125 2.324 2.293.183 1.484-1.211 2.957-2.707 2.73-.75-.023-1.477-.464-1.907-1.074.125-.172.227-.465.375-.57.532 1.043 2.254 1.465 2.95.363.441-.828.43-1.883-.082-2.676-.59-.757-1.758-.293-2.028.512h-.738v-4.184Zm0 0ZM6.738 80.703c1.313.035 2.36 1.383 2.153 2.656-.137 1.27-1.325 1.993-2.176 2.79l-.363.37-.047.024-.453.441-.032.024-.453.453-.047.023-.101.102.023.012h3.672v.75H4.426v-.68L6.25 85.84c.871-.758 1.895-1.746 1.734-2.992-.09-.727-.703-1.395-1.449-1.453-.762-.114-1.43.488-1.601 1.214l-.024.036-.02.078-.105.375-.008.054c-.16-.191-.332-.394-.457-.609.23-.93.977-1.805 1.965-1.84Zm0 0ZM11.543 87.441v.907h-.918v-.907Zm0 0ZM15.672 80.703c1.078.082 1.793 1.067 1.984 2.067.102.453.125.882.172 1.335v1.157c-.058 1.18-.344 2.734-1.625 3.21-1.11.442-2.414-.25-2.742-1.382-.25-.602-.274-1.215-.328-1.828v-1.157c.055-1.18.305-2.742 1.574-3.265l.059-.024.043-.011.058-.02.172-.047.102-.023h.125l.02-.012Zm0 0Zm-.352.692c-.953.113-1.234 1.261-1.304 2.03v.305l-.024.024v1.578c.07.816.125 1.871.875 2.414.692.477 1.61-.058 1.801-.793.207-.547.25-1.078.297-1.621v-1.578c-.067-.828-.18-1.984-1.133-2.313l-.082-.023-.02-.023h-.105l-.02-.02h-.261Zm0 0ZM6.738 42.168c1.313.035 2.36 1.383 2.153 2.652-.137 1.27-1.325 1.996-2.176 2.79l-.363.374-.047.024-.453.441-.032.024-.453.453-.047.023-.101.102.023.011h3.672v.747H4.426v-.68l1.824-1.824c.871-.762 1.895-1.746 1.734-2.992-.09-.727-.703-1.399-1.449-1.454-.762-.113-1.43.489-1.601 1.215l-.024.031-.02.083-.035.124-.07.247-.008.058a4.63 4.63 0 0 1-.457-.613c.23-.93.977-1.8 1.965-1.836Zm0 0ZM11.543 48.902v.907h-.918v-.907Zm0 0ZM17.352 42.406v.703h-2.95l-.023.012v2.324c.273-.183.66-.422 1.02-.433 1.28-.133 2.269 1.125 2.324 2.293.183 1.484-1.211 2.957-2.707 2.73-.75-.02-1.477-.465-1.907-1.074.125-.172.227-.465.375-.57.532 1.047 2.254 1.464 2.95.363.441-.828.43-1.879-.082-2.676-.59-.758-1.758-.293-2.028.512h-.738v-4.184Zm0 0ZM6.883 3.629c1 .047 2.043.965 1.804 2.02-.113.714-.613 1.304-1.234 1.62 1.008.317 1.79 1.383 1.52 2.438-.274 1.371-1.852 2.133-3.121 1.715-.61-.184-1.235-.57-1.532-1.137.07-.168.047-.465.125-.578.602.887 1.871 1.488 2.871.988 1.086-.691.918-2.71-.398-3.05h-.102l-.023-.024H5.738v-.68c.649-.011 1.453-.09 1.817-.757.383-.582.351-1.532-.387-1.817-.871-.34-1.95.215-2.277 1.102-.137-.196-.274-.387-.41-.59.464-.84 1.453-1.34 2.402-1.25Zm0 0ZM11.543 10.367v.906h-.918v-.906Zm0 0ZM15.672 3.629c1.078.082 1.793 1.066 1.984 2.066.102.453.125.883.172 1.336v1.157c-.058 1.18-.344 2.734-1.625 3.21-1.11.442-2.414-.25-2.742-1.382-.25-.602-.274-1.215-.328-1.829V7.032c.055-1.18.305-2.742 1.574-3.265l.059-.024.043-.008.058-.023.172-.047.102-.023h.125l.02-.012Zm0 0Zm-.352.691c-.953.117-1.234 1.262-1.304 2.032v.304l-.024.024v1.578c.07.816.125 1.87.875 2.414.692.476 1.61-.059 1.801-.793.207-.547.25-1.078.297-1.621V6.68c-.067-.828-.18-1.985-1.133-2.313l-.082-.023-.02-.024h-.105l-.02-.02h-.261Zm0 0Zm0 0"/><path style="fill:none;stroke-width:.02;stroke-linecap:butt;stroke-linejoin:miter;stroke:#000;stroke-opacity:1;stroke-miterlimit:10" d="M11.7 1.971h-.15M11.7 3.331h-.15M11.7 4.69h-.15M11.7 6.05h-.15M11.7 7.41h-.15" transform="matrix(28.34646 0 0 -28.34646 1 256.118)"/><path style="fill:none;stroke-width:.02;stroke-linecap:round;stroke-linejoin:miter;stroke:#000;stroke-opacity:1;stroke-miterlimit:10" d="M11.7.612v8.157" transform="matrix(28.34646 0 0 -28.34646 1 256.118)"/><path style="fill:none;stroke-width:.02;stroke-linecap:butt;stroke-linejoin:miter;stroke:#000;stroke-opacity:1;stroke-miterlimit:10" d="M2.065.612v.15M3.27.612v.15M4.474.612v.15M5.678.612v.15M6.883.612v.15M8.087.612v.15M9.291.612v.15M10.496.612v.15" transform="matrix(28.34646 0 0 -28.34646 1 256.118)"/><path style="fill:none;stroke-width:.02;stroke-linecap:round;stroke-linejoin:miter;stroke:#000;stroke-opacity:1;stroke-miterlimit:10" d="M.86.612H11.7" transform="matrix(28.34646 0 0 -28.34646 1 256.118)"/><path style="stroke:none;fill-rule:nonzero;fill:#000;fill-opacity:1" d="M25.945 245.652v6.996l.012.024h1.395v.621h-3.688v-.621h1.395l.023-.024v-5.875c-.477.16-.973.262-1.473.25v-.632c.75.011 1.567-.196 2.133-.739Zm0 0ZM59.61 245.652c1.312.036 2.355 1.383 2.152 2.653-.137 1.27-1.325 1.996-2.176 2.789l-.363.375-.047.023-.453.442-.035.023-.454.453-.043.024-.101.101.02.012h3.675v.746h-4.492v-.68l1.828-1.824c.871-.762 1.895-1.746 1.734-2.992-.09-.727-.703-1.395-1.453-1.453-.757-.114-1.425.488-1.597 1.215l-.024.03-.023.083-.031.125-.07.25-.012.055c-.157-.192-.329-.399-.454-.614.227-.93.977-1.8 1.965-1.836Zm0 0ZM93.895 245.652c.996.047 2.039.965 1.804 2.02-.117.715-.613 1.305-1.238 1.621 1.008.316 1.793 1.383 1.52 2.437-.274 1.372-1.848 2.133-3.118 1.711-.613-.18-1.238-.566-1.531-1.132.066-.172.047-.465.125-.579.602.883 1.871 1.485 2.867.985 1.09-.692.918-2.707-.394-3.047h-.102l-.023-.023H92.75v-.68c.645-.012 1.45-.094 1.813-.762.386-.578.351-1.531-.383-1.812-.875-.34-1.953.214-2.282 1.097-.136-.191-.273-.383-.406-.59.465-.835 1.45-1.335 2.403-1.246Zm0 0ZM129.18 245.89v4.774l.023.024h1.121v.68h-1.12l-.024.01v1.915h-.864v-1.914l-.023-.012h-2.992v-.703c.953-1.586 1.906-3.187 2.86-4.773Zm0 0Zm-.84.43c-.227 1.18-.953 2.192-1.496 3.223-.215.371-.5.781-.66 1.144h2.18l.011-.023v-4.344l-.012-.02Zm0 0ZM163.828 245.89v.704h-2.95l-.019.011v2.325c.27-.184.657-.418 1.02-.43 1.281-.137 2.266 1.121 2.324 2.29.18 1.483-1.215 2.96-2.71 2.733-.747-.023-1.473-.464-1.907-1.078.125-.172.23-.465.375-.566.535 1.043 2.258 1.46 2.95.363.44-.828.429-1.883-.079-2.68-.59-.757-1.758-.292-2.031.512h-.738v-4.183Zm0 0ZM197.027 245.652c.293.047.633.078.918.215v.66c-.78-.343-1.804-.386-2.414.305-.547.578-.797 1.441-.816 2.2.656-.872 2.14-1.36 2.945-.454.805.93.942 2.266.578 3.402-.394.907-1.312 1.735-2.336 1.543-1.382-.117-2.004-1.656-2.074-2.835-.262-1.668.137-3.766 1.723-4.72l.023-.011.238-.121.07-.024.032-.023.195-.059.157-.042.101-.024h.125l.024-.012Zm0 0Zm-1.113 3.153c-.984.172-1.3 1.36-1.18 2.164.059.761.352 1.77 1.227 1.93.93.124 1.531-.876 1.555-1.68.043-.817 0-1.746-.715-2.278l-.16-.078-.125-.035-.102-.023-.023-.024h-.453Zm0 0ZM232.582 245.89v.715c-1.61 1.883-2.516 4.422-2.504 6.813h-.918c-.023-2.414.961-4.965 2.688-6.746l-.024-.02h-3.933v-.761h4.691v.714Zm0 0ZM264.59 245.652c1.203.047 2.336 1.34 1.86 2.54-.204.554-.77.898-1.235 1.136 1.156.34 1.86 1.688 1.336 2.797-.543 1.441-2.606 1.895-3.742.852-1.032-.817-1.063-2.586.082-3.309.168-.184.488-.238.632-.375-.984-.285-1.652-1.43-1.187-2.395.371-.859 1.336-1.335 2.254-1.246Zm0 0Zm-.43.649c-.84.02-1.43.972-1.144 1.722.328 1.293 2.492 1.247 2.742-.082.226-.734-.363-1.62-1.168-1.64l-.024-.012h-.382Zm0 0Zm.024 3.367c-.989.066-1.477 1.246-1.215 2.086.172 1.187 1.87 1.539 2.539.59.648-.875.328-2.438-.84-2.676h-.102l-.02-.023h-.35Zm0 0ZM298.754 245.652c1.36.149 1.95 1.692 2.039 2.868.16 1.53-.023 3.324-1.27 4.421-.78.786-2.164.809-3.003.106.101-.195.214-.422.34-.578.738.71 2.027.508 2.503-.41.34-.555.547-1.27.535-1.883-.668.863-2.144 1.363-2.949.453-.816-.941-.965-2.313-.554-3.445.418-.895 1.316-1.668 2.359-1.532Zm0 0Zm-.375.649c-.817.066-1.238.972-1.293 1.687-.035.805 0 1.746.715 2.27.793.484 1.812-.106 1.996-.965.215-.84.078-1.734-.352-2.52-.238-.328-.672-.566-1.066-.472Zm0 0ZM330.363 245.652v6.996l.012.024h1.395v.621h-3.684v-.621h1.394l.02-.024v-5.875c-.477.16-.973.262-1.473.25v-.632c.75.011 1.567-.196 2.133-.739Zm0 0ZM335.68 245.652c1.078.078 1.793 1.067 1.984 2.063.102.453.125.887.172 1.34v1.156c-.059 1.18-.34 2.73-1.621 3.207-1.113.445-2.418-.246-2.746-1.383-.25-.601-.27-1.21-.328-1.824v-1.156c.058-1.18.304-2.746 1.578-3.266l.054-.023.047-.012.055-.024.172-.042.101-.024h.125l.024-.012Zm0 0Zm-.352.692c-.95.113-1.234 1.258-1.3 2.031v.305l-.024.023v1.574c.066.817.125 1.871.871 2.418.691.477 1.61-.058 1.805-.797.203-.543.25-1.074.293-1.62v-1.575c-.067-.828-.18-1.984-1.133-2.312l-.078-.024-.024-.023h-.101l-.024-.024h-.261Zm0 0Zm0 0"/><path style="fill:none;stroke-width:.02;stroke-linecap:butt;stroke-linejoin:miter;stroke:#000;stroke-opacity:1;stroke-miterlimit:10" d="M2.065 8.769v-.15M3.27 8.769v-.15M4.474 8.769v-.15M5.678 8.769v-.15M6.883 8.769v-.15M8.087 8.769v-.15M9.291 8.769v-.15M10.496 8.769v-.15" transform="matrix(28.34646 0 0 -28.34646 1 256.118)"/><path style="fill:none;stroke-width:.02;stroke-linecap:round;stroke-linejoin:miter;stroke:#000;stroke-opacity:1;stroke-miterlimit:10" d="M.86 8.769H11.7" transform="matrix(28.34646 0 0 -28.34646 1 256.118)"/><path style="fill:none;stroke-width:.05;stroke-linecap:butt;stroke-linejoin:miter;stroke:#5478a3;stroke-opacity:1;stroke-miterlimit:10" d="M.86 3.331 2.066 6.05 3.27 8.769M5.678 8.769 6.883 6.05l1.204-2.719M10.496.612 11.7 3.331" transform="matrix(28.34646 0 0 -28.34646 1 256.118)"/><path style="fill:none;stroke-width:.05;stroke-linecap:butt;stroke-linejoin:round;stroke:#5478a3;stroke-opacity:1;stroke-miterlimit:10" d="M1.036 3.331c0 .233-.35.233-.35 0s.35-.233.35 0ZM2.24 6.05c0 .233-.35.233-.35 0s.35-.233.35 0ZM3.445 8.769c0 .233-.35.233-.35 0s.35-.233.35 0ZM5.853 8.769c0 .233-.35.233-.35 0s.35-.233.35 0ZM7.058 6.05c0 .233-.35.233-.35 0s.35-.233.35 0ZM8.262 3.331c0 .233-.35.233-.35 0s.35-.233.35 0ZM10.67.612c0 .233-.35.233-.35 0s.35-.233.35 0ZM11.875 3.331c0 .233-.35.233-.35 0s.35-.233.35 0Zm0 0" transform="matrix(28.34646 0 0 -28.34646 1 256.118)"/></svg>