<svg xmlns="http://www.w3.org/2000/svg" width="456.21" height="342.824" viewBox="0 0 342.157 257.118"><path style="fill:none;stroke-width:.02;stroke-linecap:butt;stroke-linejoin:miter;stroke:#000;stroke-opacity:1;stroke-miterlimit:10" d="M.994 1.777h.15M.994 2.943h.15M.994 4.108h.15M.994 5.273h.15M.994 6.438h.15M.994 7.604h.15" transform="matrix(28.34646 0 0 -28.34646 1 256.118)"/><path style="fill:none;stroke-width:.02;stroke-linecap:round;stroke-linejoin:miter;stroke:#000;stroke-opacity:1;stroke-miterlimit:10" d="M.994.612v8.157" transform="matrix(28.34646 0 0 -28.34646 1 256.118)"/><path style="stroke:none;fill-rule:nonzero;fill:#000;fill-opacity:1" d="M6.941 239.684v.632H3.973v-.632Zm0 0ZM10.637 234.852c1.078.082 1.793 1.066 1.984 2.066.102.453.125.883.172 1.336v1.156c-.059 1.18-.34 2.735-1.621 3.211-1.113.441-2.418-.25-2.746-1.387-.25-.597-.27-1.21-.328-1.824v-1.156c.058-1.18.304-2.742 1.578-3.266l.054-.023.047-.012.055-.02.172-.046.101-.024h.125l.024-.011Zm0 0Zm-.352.691c-.953.113-1.234 1.262-1.305 2.031v.305l-.02.023v1.578c.067.817.126 1.868.872 2.415.691.476 1.61-.06 1.805-.793.203-.547.25-1.079.293-1.622v-1.578c-.067-.828-.18-1.984-1.133-2.312l-.078-.024-.024-.023h-.101l-.024-.02h-.261Zm0 0ZM15.32 241.586v.91h-.918v-.91Zm0 0ZM20.617 235.09v4.773l.02.024h1.125v.68h-1.125l-.02.011v1.918h-.863v-1.918l-.024-.012h-2.992v-.703c.953-1.586 1.907-3.183 2.856-4.773Zm0 0Zm-.84.433c-.226 1.176-.953 2.188-1.496 3.22-.215.374-.5.78-.66 1.144h2.18l.012-.024v-4.34l-.012-.023Zm0 0ZM6.941 206.652v.633H3.973v-.633Zm0 0ZM10.637 201.82c1.078.078 1.793 1.067 1.984 2.063.102.457.125.887.172 1.34v1.156c-.059 1.18-.34 2.734-1.621 3.207-1.113.445-2.418-.246-2.746-1.383-.25-.598-.27-1.21-.328-1.824v-1.156c.058-1.18.304-2.746 1.578-3.266l.054-.023.047-.012.055-.024.172-.043.101-.023h.125l.024-.012Zm0 0Zm-.352.692c-.953.113-1.234 1.258-1.305 2.031v.305l-.02.023v1.574c.067.817.126 1.871.872 2.418.691.477 1.61-.058 1.805-.793.203-.547.25-1.078.293-1.625v-1.574c-.067-.828-.18-1.984-1.133-2.312l-.078-.024-.024-.023h-.101l-.024-.024h-.261Zm0 0ZM15.32 208.555v.91h-.918v-.91Zm0 0ZM19.324 201.82c1.313.035 2.356 1.383 2.153 2.653-.137 1.27-1.325 1.996-2.176 2.789l-.363.375-.047.023-.453.442-.032.023-.453.453-.047.024-.101.101.023.012H21.5v.75h-4.488v-.684l1.824-1.824c.871-.758 1.894-1.746 1.734-2.992-.09-.727-.703-1.395-1.453-1.453-.758-.114-1.426.488-1.597 1.215l-.024.035-.02.078-.105.375-.008.055c-.16-.192-.332-.395-.457-.614.23-.93.977-1.8 1.965-1.836Zm0 0ZM10.637 168.79c1.078.077 1.793 1.065 1.984 2.062.102.453.125.886.172 1.34v1.156c-.059 1.18-.34 2.73-1.621 3.207-1.113.445-2.418-.25-2.746-1.383-.25-.602-.27-1.211-.328-1.824v-1.157c.058-1.18.304-2.746 1.578-3.265l.054-.024.047-.011.055-.024.172-.043.101-.023h.125l.024-.012Zm0 0Zm-.352.69c-.953.114-1.234 1.258-1.305 2.032v.304l-.02.024v1.574c.067.816.126 1.871.872 2.418.691.473 1.61-.059 1.805-.797.203-.543.25-1.074.293-1.62v-1.575c-.067-.828-.18-1.985-1.133-2.313l-.078-.023-.024-.024h-.101l-.024-.023h-.261Zm0 0ZM15.32 175.523v.907h-.918v-.907Zm0 0ZM19.45 168.79c1.073.077 1.788 1.065 1.984 2.062.101.453.125.886.168 1.34v1.156c-.055 1.18-.34 2.73-1.622 3.207-1.109.445-2.414-.25-2.742-1.383-.25-.602-.273-1.211-.332-1.824v-1.157c.059-1.18.309-2.746 1.578-3.265l.055-.024.047-.011.059-.024.168-.043.101-.023h.125l.023-.012Zm0 0Zm-.352.69c-.953.114-1.239 1.258-1.305 2.032v.304l-.023.024v1.574c.066.816.125 1.871.875 2.418.69.473 1.609-.059 1.8-.797.203-.543.25-1.074.297-1.62v-1.575c-.07-.828-.183-1.985-1.137-2.313l-.078-.023-.023-.024h-.102l-.023-.023h-.262Zm0 0ZM10.637 135.758c1.078.078 1.793 1.066 1.984 2.062.102.453.125.887.172 1.34v1.156c-.059 1.18-.34 2.73-1.621 3.207-1.113.442-2.418-.25-2.746-1.382-.25-.602-.27-1.211-.328-1.825v-1.156c.058-1.18.304-2.746 1.578-3.265l.054-.024.047-.012.055-.023.172-.043.101-.023h.125l.024-.012Zm0 0Zm-.352.691c-.953.113-1.234 1.258-1.305 2.031v.305l-.02.024v1.574c.067.816.126 1.87.872 2.414.691.476 1.61-.055 1.805-.793.203-.543.25-1.074.293-1.621v-1.574c-.067-.829-.18-1.985-1.133-2.313l-.078-.023-.024-.024h-.101l-.024-.023h-.261Zm0 0ZM15.32 142.492v.906h-.918v-.906Zm0 0ZM19.324 135.758c1.313.035 2.356 1.383 2.153 2.652-.137 1.27-1.325 1.996-2.176 2.79l-.363.374-.047.024-.453.441-.032.024-.453.453-.047.023-.101.102.023.011H21.5v.746h-4.488v-.68l1.824-1.823c.871-.762 1.894-1.747 1.734-2.993-.09-.726-.703-1.398-1.453-1.453-.758-.113-1.426.488-1.597 1.215l-.024.031-.02.082-.035.125-.07.246-.008.059a4.63 4.63 0 0 1-.457-.613c.23-.93.977-1.801 1.965-1.836Zm0 0ZM10.637 102.727c1.078.078 1.793 1.066 1.984 2.062.102.453.125.883.172 1.34v1.156c-.059 1.18-.34 2.73-1.621 3.207-1.113.442-2.418-.25-2.746-1.383-.25-.601-.27-1.214-.328-1.824v-1.156c.058-1.18.304-2.746 1.578-3.266l.054-.023.047-.012.055-.023.172-.047.101-.02h.125l.024-.011Zm0 0Zm-.352.691c-.953.113-1.234 1.258-1.305 2.027v.309l-.02.023v1.575c.067.816.126 1.87.872 2.414.691.476 1.61-.055 1.805-.793.203-.543.25-1.078.293-1.621v-1.575c-.067-.828-.18-1.984-1.133-2.316l-.078-.02-.024-.023h-.101l-.024-.023h-.261Zm0 0ZM15.32 109.46v.907h-.918v-.906Zm0 0ZM20.617 102.965v4.773l.02.024h1.125v.68h-1.125l-.02.011v1.914h-.863v-1.914l-.024-.012h-2.992v-.703c.953-1.59 1.907-3.187 2.856-4.773Zm0 0Zm-.84.43c-.226 1.18-.953 2.187-1.496 3.218-.215.375-.5.785-.66 1.149h2.18l.012-.024v-4.343l-.012-.024Zm0 0ZM10.637 69.695c1.078.078 1.793 1.067 1.984 2.063.102.453.125.883.172 1.336v1.16c-.059 1.176-.34 2.73-1.621 3.207-1.113.441-2.418-.25-2.746-1.383-.25-.601-.27-1.215-.328-1.824v-1.16c.058-1.176.304-2.742 1.578-3.266l.054-.02.047-.011.055-.024.172-.046.101-.02h.125l.024-.012Zm0 0Zm-.352.692c-.953.113-1.234 1.258-1.305 2.027v.309l-.02.02v1.577c.067.817.126 1.871.872 2.414.691.477 1.61-.054 1.805-.793.203-.543.25-1.078.293-1.62v-1.579c-.067-.824-.18-1.98-1.133-2.312l-.078-.02-.024-.023h-.101l-.024-.024h-.261Zm0 0ZM15.32 76.43v.906h-.918v-.906Zm0 0ZM20.184 69.695c.296.043.636.078.918.215v.656c-.782-.34-1.801-.386-2.415.309-.542.578-.792 1.438-.816 2.2.66-.876 2.145-1.364 2.95-.454.804.93.94 2.266.577 3.399-.398.91-1.316 1.734-2.335 1.543-1.383-.114-2.008-1.657-2.075-2.836-.261-1.665.137-3.762 1.723-4.715l.023-.012.239-.125.066-.023.035-.024.192-.055.16-.046.101-.02h.125l.024-.012Zm0 0Zm-1.11 3.153c-.988.168-1.304 1.359-1.18 2.164.06.758.352 1.77 1.223 1.925.93.126 1.531-.87 1.555-1.675.047-.817 0-1.746-.715-2.282l-.156-.078-.125-.035-.102-.02-.023-.023h-.453Zm0 0ZM10.637 36.664c1.078.078 1.793 1.063 1.984 2.063.102.453.125.882.172 1.336v1.156c-.059 1.18-.34 2.734-1.621 3.21-1.113.442-2.418-.25-2.746-1.382-.25-.602-.27-1.215-.328-1.828v-1.157c.058-1.18.304-2.742 1.578-3.265l.054-.02.047-.011.055-.024.172-.047.101-.023h.125l.024-.008Zm0 0Zm-.352.691c-.953.114-1.234 1.258-1.305 2.028v.308l-.02.02v1.578c.067.816.126 1.871.872 2.414.691.477 1.61-.055 1.805-.793.203-.543.25-1.078.293-1.62v-1.58c-.067-.827-.18-1.983-1.133-2.312l-.078-.023-.024-.02h-.101l-.024-.023h-.261Zm0 0ZM15.32 43.398v.907h-.918v-.907Zm0 0ZM19.469 36.664c1.203.043 2.336 1.336 1.863 2.54-.207.554-.773.894-1.238 1.132 1.156.34 1.86 1.691 1.34 2.8-.547 1.442-2.61 1.895-3.743.852-1.03-.816-1.066-2.586.079-3.312.171-.18.488-.239.636-.375-.988-.281-1.656-1.426-1.191-2.39.375-.864 1.336-1.34 2.254-1.247Zm0 0Zm-.43.645c-.84.023-1.43.976-1.144 1.722.328 1.293 2.496 1.246 2.742-.078.226-.738-.36-1.621-1.168-1.644l-.02-.012h-.387Zm0 0Zm.023 3.367c-.988.07-1.472 1.246-1.214 2.086.172 1.191 1.87 1.543 2.543.59.644-.872.328-2.438-.84-2.676h-.102l-.023-.024h-.352Zm0 0ZM10.988 3.629v6.996l.012.023h1.395v.625H8.71v-.625h1.394l.024-.023V4.754c-.477.156-.977.262-1.477.25v-.637c.75.012 1.567-.191 2.133-.738Zm0 0ZM15.32 10.367v.906h-.918v-.906Zm0 0ZM19.45 3.629c1.073.082 1.788 1.066 1.984 2.066.101.453.125.883.168 1.336v1.157c-.055 1.18-.34 2.734-1.622 3.21-1.109.442-2.414-.25-2.742-1.382-.25-.602-.273-1.215-.332-1.829V7.032c.059-1.18.309-2.742 1.578-3.265l.055-.024.047-.008.059-.023.168-.047.101-.023h.125l.023-.012Zm0 0Zm-.352.691c-.953.117-1.239 1.262-1.305 2.032v.304l-.023.024v1.578c.066.816.125 1.87.875 2.414.69.476 1.609-.059 1.8-.793.203-.547.25-1.078.297-1.621V6.68c-.07-.828-.183-1.985-1.137-2.313l-.078-.023-.023-.024h-.102l-.023-.02h-.262Zm0 0Zm0 0"/><path style="fill:none;stroke-width:.02;stroke-linecap:butt;stroke-linejoin:miter;stroke:#000;stroke-opacity:1;stroke-miterlimit:10" d="M11.645 1.777h-.15M11.645 2.943h-.15M11.645 4.108h-.15M11.645 5.273h-.15M11.645 6.438h-.15M11.645 7.604h-.15" transform="matrix(28.34646 0 0 -28.34646 1 256.118)"/><path style="fill:none;stroke-width:.02;stroke-linecap:round;stroke-linejoin:miter;stroke:#000;stroke-opacity:1;stroke-miterlimit:10" d="M11.645.612v8.157" transform="matrix(28.34646 0 0 -28.34646 1 256.118)"/><path style="fill:none;stroke-width:.02;stroke-linecap:butt;stroke-linejoin:miter;stroke:#000;stroke-opacity:1;stroke-miterlimit:10" d="M2.325.612v.15M3.657.612v.15M4.988.612v.15M6.32.612v.15M7.65.612v.15M8.982.612v.15M10.313.612v.15" transform="matrix(28.34646 0 0 -28.34646 1 256.118)"/><path style="fill:none;stroke-width:.02;stroke-linecap:round;stroke-linejoin:miter;stroke:#000;stroke-opacity:1;stroke-miterlimit:10" d="M.994.612h10.65" transform="matrix(28.34646 0 0 -28.34646 1 256.118)"/><path style="stroke:none;fill-rule:nonzero;fill:#000;fill-opacity:1" d="M23.156 250.484v.633h-2.972v-.633Zm0 0ZM26.727 245.652c1.316.036 2.359 1.383 2.156 2.653-.137 1.27-1.328 1.996-2.18 2.789l-.363.375-.043.023-.453.442-.035.023-.454.453-.046.024-.102.101.023.012h3.672v.746h-4.488v-.68l1.824-1.824c.875-.762 1.895-1.746 1.735-2.992-.09-.727-.7-1.395-1.45-1.453-.761-.114-1.43.488-1.597 1.215l-.024.03-.023.083-.035.125-.067.25-.011.055a4.6 4.6 0 0 1-.453-.614c.226-.93.976-1.8 1.96-1.836Zm0 0ZM31.535 252.387v.906h-.918v-.906Zm0 0ZM35.66 245.652c1.078.078 1.793 1.067 1.985 2.063.105.453.125.887.171 1.34v1.156c-.058 1.18-.34 2.73-1.62 3.207-1.114.445-2.415-.246-2.747-1.383-.246-.601-.27-1.21-.328-1.824v-1.156c.059-1.18.309-2.746 1.578-3.266l.055-.023.047-.012.054-.024.172-.042.102-.024h.125l.023-.012Zm0 0Zm-.347.692c-.954.113-1.239 1.258-1.305 2.031v.305l-.024.023v1.574c.067.817.125 1.871.871 2.418.692.477 1.614-.058 1.805-.797.203-.543.25-1.074.293-1.62v-1.575c-.066-.828-.18-1.984-1.133-2.312l-.078-.024-.023-.023h-.102l-.023-.024h-.262Zm0 0ZM60.895 250.484v.633h-2.973v-.633Zm0 0ZM64.941 245.652v6.996l.012.024h1.395v.621h-3.684v-.621h1.395l.023-.024v-5.875c-.477.16-.977.262-1.477.25v-.632c.75.011 1.567-.196 2.133-.739Zm0 0ZM69.273 252.387v.906h-.918v-.906Zm0 0ZM75.078 245.89v.704h-2.95l-.019.011v2.325c.27-.184.657-.418 1.02-.43 1.281-.137 2.266 1.121 2.324 2.29.18 1.483-1.215 2.96-2.71 2.733-.747-.023-1.473-.464-1.907-1.078.125-.172.23-.465.375-.566.535 1.043 2.258 1.46 2.95.363.44-.828.429-1.883-.079-2.68-.59-.757-1.758-.292-2.031.512h-.739v-4.183Zm0 0ZM98.633 250.484v.633H95.66v-.633Zm0 0ZM102.68 245.652v6.996l.011.024h1.395v.621h-3.684v-.621h1.395l.023-.024v-5.875c-.476.16-.976.262-1.476.25v-.632c.75.011 1.566-.196 2.133-.739Zm0 0ZM107.012 252.387v.906h-.918v-.906Zm0 0ZM111.14 245.652c1.075.078 1.79 1.067 1.981 2.063.106.453.125.887.172 1.34v1.156c-.055 1.18-.34 2.73-1.621 3.207-1.113.445-2.414-.246-2.746-1.383-.246-.601-.27-1.21-.328-1.824v-1.156c.058-1.18.308-2.746 1.578-3.266l.054-.023.047-.012.055-.024.172-.042.101-.024h.125l.024-.012Zm0 0Zm-.35.692c-.954.113-1.24 1.258-1.306 2.031v.305l-.023.023v1.574c.066.817.125 1.871.871 2.418.691.477 1.613-.058 1.805-.797.203-.543.25-1.074.293-1.62v-1.575c-.067-.828-.18-1.984-1.133-2.312l-.078-.024-.024-.023h-.101l-.024-.024h-.261Zm0 0ZM136.371 250.484v.633h-2.973v-.633Zm0 0ZM140.066 245.652c1.079.078 1.793 1.067 1.985 2.063.101.453.125.887.172 1.34v1.156c-.059 1.18-.34 2.73-1.621 3.207-1.114.445-2.418-.246-2.747-1.383-.25-.601-.273-1.21-.328-1.824v-1.156c.055-1.18.305-2.746 1.575-3.266l.058-.023.047-.012.055-.024.172-.042.101-.024h.125l.02-.012Zm0 0Zm-.351.692c-.953.113-1.235 1.258-1.305 2.031v.305l-.02.023v1.574c.067.817.122 1.871.872 2.418.691.477 1.61-.058 1.804-.797.204-.543.246-1.074.293-1.62v-1.575c-.066-.828-.18-1.984-1.132-2.312l-.082-.024-.02-.023h-.102l-.023-.024h-.262Zm0 0ZM144.75 252.387v.906h-.918v-.906Zm0 0ZM150.555 245.89v.704h-2.95l-.02.011v2.325c.27-.184.657-.418 1.02-.43 1.282-.137 2.266 1.121 2.325 2.29.18 1.483-1.215 2.96-2.711 2.733-.746-.023-1.473-.464-1.903-1.078.121-.172.227-.465.371-.566.536 1.043 2.258 1.46 2.95.363.441-.828.43-1.883-.078-2.68-.59-.757-1.758-.292-2.032.512h-.738v-4.183Zm0 0ZM175.918 245.652c1.078.078 1.789 1.067 1.984 2.063.102.453.125.887.168 1.34v1.156c-.054 1.18-.34 2.73-1.62 3.207-1.11.445-2.415-.246-2.743-1.383-.25-.601-.273-1.21-.328-1.824v-1.156c.055-1.18.305-2.746 1.574-3.266l.059-.023.043-.012.058-.024.168-.042.102-.024h.125l.023-.012Zm0 0Zm-.352.692c-.953.113-1.234 1.258-1.304 2.031v.305l-.024.023v1.574c.07.817.125 1.871.875 2.418.692.477 1.61-.058 1.801-.797.207-.543.25-1.074.297-1.62v-1.575c-.07-.828-.184-1.984-1.133-2.312l-.082-.024-.023-.023h-.102l-.023-.024h-.258Zm0 0ZM180.602 252.387v.906h-.918v-.906Zm0 0ZM184.727 245.652c1.078.078 1.793 1.067 1.984 2.063.101.453.125.887.172 1.34v1.156c-.059 1.18-.34 2.73-1.621 3.207-1.114.445-2.418-.246-2.746-1.383-.25-.601-.27-1.21-.328-1.824v-1.156c.058-1.18.304-2.746 1.578-3.266l.054-.023.047-.012.055-.024.172-.042.101-.024h.125l.024-.012Zm0 0Zm-.352.692c-.953.113-1.234 1.258-1.305 2.031v.305l-.02.023v1.574c.067.817.126 1.871.872 2.418.691.477 1.61-.058 1.805-.797.203-.543.25-1.074.293-1.62v-1.575c-.067-.828-.18-1.984-1.133-2.312l-.078-.024-.024-.023h-.101l-.024-.024h-.262Zm0 0ZM213.656 245.652c1.078.078 1.793 1.067 1.985 2.063.101.453.125.887.168 1.34v1.156c-.055 1.18-.34 2.73-1.621 3.207-1.11.445-2.415-.246-2.743-1.383-.25-.601-.273-1.21-.328-1.824v-1.156c.055-1.18.305-2.746 1.574-3.266l.059-.023.043-.012.059-.024.168-.042.101-.024h.125l.024-.012Zm0 0Zm-.351.692c-.953.113-1.235 1.258-1.305 2.031v.305l-.023.023v1.574c.07.817.125 1.871.875 2.418.691.477 1.609-.058 1.8-.797.207-.543.25-1.074.297-1.62v-1.575c-.07-.828-.183-1.984-1.133-2.312l-.082-.024-.023-.023h-.102l-.023-.024h-.258Zm0 0ZM218.34 252.387v.906h-.918v-.906Zm0 0ZM224.145 245.89v.704h-2.95l-.023.011v2.325c.273-.184.66-.418 1.023-.43 1.282-.137 2.266 1.121 2.325 2.29.18 1.483-1.215 2.96-2.711 2.733-.75-.023-1.473-.464-1.907-1.078.125-.172.227-.465.375-.566.532 1.043 2.258 1.46 2.95.363.441-.828.43-1.883-.082-2.68-.59-.757-1.754-.292-2.028.512h-.738v-4.183Zm0 0ZM251.746 245.652v6.996l.012.024h1.394v.621h-3.687v-.621h1.394l.024-.024v-5.875c-.477.16-.973.262-1.473.25v-.632c.75.011 1.567-.196 2.133-.739Zm0 0ZM256.078 252.387v.906h-.918v-.906Zm0 0ZM260.203 245.652c1.078.078 1.793 1.067 1.985 2.063.101.453.125.887.171 1.34v1.156c-.058 1.18-.34 2.73-1.62 3.207-1.114.445-2.419-.246-2.747-1.383-.25-.601-.27-1.21-.328-1.824v-1.156c.059-1.18.305-2.746 1.578-3.266l.055-.023.047-.012.054-.024.172-.042.102-.024h.125l.023-.012Zm0 0Zm-.351.692c-.954.113-1.235 1.258-1.305 2.031v.305l-.02.023v1.574c.067.817.125 1.871.871 2.418.692.477 1.61-.058 1.805-.797.203-.543.25-1.074.293-1.62v-1.575c-.066-.828-.18-1.984-1.133-2.312l-.078-.024-.023-.023h-.102l-.023-.024h-.262Zm0 0ZM289.484 245.652v6.996l.012.024h1.395v.621h-3.688v-.621h1.395l.023-.024v-5.875c-.476.16-.973.262-1.473.25v-.632c.75.011 1.567-.196 2.133-.739Zm0 0ZM293.816 252.387v.906h-.918v-.906Zm0 0ZM299.621 245.89v.704h-2.95l-.023.011v2.325c.274-.184.66-.418 1.024-.43 1.281-.137 2.265 1.121 2.324 2.29.18 1.483-1.215 2.96-2.71 2.733-.75-.023-1.474-.464-1.907-1.078.125-.172.226-.465.375-.566.535 1.043 2.258 1.46 2.95.363.44-.828.429-1.883-.083-2.68-.586-.757-1.754-.292-2.027.512h-.739v-4.183Zm0 0ZM326.746 245.652c1.317.036 2.36 1.383 2.156 2.653-.136 1.27-1.328 1.996-2.18 2.789l-.363.375-.043.023-.453.442-.035.023-.453.453-.047.024-.101.101.023.012h3.672v.746h-4.488v-.68l1.824-1.824c.875-.762 1.894-1.746 1.734-2.992-.09-.727-.703-1.395-1.449-1.453-.762-.114-1.43.488-1.602 1.215l-.02.03-.023.083-.035.125-.066.25-.012.055a4.6 4.6 0 0 1-.453-.614c.227-.93.973-1.8 1.961-1.836Zm0 0ZM331.555 252.387v.906h-.918v-.906Zm0 0ZM335.68 245.652c1.078.078 1.793 1.067 1.984 2.063.102.453.125.887.172 1.34v1.156c-.059 1.18-.34 2.73-1.621 3.207-1.113.445-2.418-.246-2.746-1.383-.25-.601-.27-1.21-.328-1.824v-1.156c.058-1.18.304-2.746 1.578-3.266l.054-.023.047-.012.055-.024.172-.042.101-.024h.125l.024-.012Zm0 0Zm-.352.692c-.95.113-1.234 1.258-1.3 2.031v.305l-.024.023v1.574c.066.817.125 1.871.871 2.418.691.477 1.61-.058 1.805-.797.203-.543.25-1.074.293-1.62v-1.575c-.067-.828-.18-1.984-1.133-2.312l-.078-.024-.024-.023h-.101l-.024-.024h-.261Zm0 0Zm0 0"/><path style="fill:none;stroke-width:.02;stroke-linecap:butt;stroke-linejoin:miter;stroke:#000;stroke-opacity:1;stroke-miterlimit:10" d="M2.325 8.769v-.15M3.657 8.769v-.15M4.988 8.769v-.15M6.32 8.769v-.15M7.65 8.769v-.15M8.982 8.769v-.15M10.313 8.769v-.15" transform="matrix(28.34646 0 0 -28.34646 1 256.118)"/><path style="fill:none;stroke-width:.02;stroke-linecap:round;stroke-linejoin:miter;stroke:#000;stroke-opacity:1;stroke-miterlimit:10" d="M.994 8.769h10.65" transform="matrix(28.34646 0 0 -28.34646 1 256.118)"/><path style="fill:none;stroke-width:.05;stroke-linecap:butt;stroke-linejoin:miter;stroke:#5478a3;stroke-opacity:1;stroke-miterlimit:10" d="m.994 2.943.037-.047.038-.045.037-.045.037-.045.038-.043.037-.043.038-.042.037-.042.037-.042.038-.04.037-.042.037-.04.038-.04.037-.04.038-.041.037-.04.037-.038.038-.038.037-.036.037-.036.038-.035.037-.033.037-.033.038-.033.037-.031.038-.031.037-.03.037-.03.038-.03.037-.028.037-.027.038-.023.037-.02.038-.016.037-.013.037-.01.038-.009.037-.005.037-.003h.075l.038.004.037.005.037.007.038.007.037.01.037.014.038.016.037.02.037.023.038.026.037.028.038.033.037.035.037.038.038.041.037.044.037.048.038.05.037.053.038.056.037.057.037.059.038.06.037.064.037.065.038.068.037.07.038.074.037.077.037.08.038.083.037.086.037.091.038.095.037.097.038.098.037.098.037.1.038.099.037.1.037.101.038.102.037.103.037.103.038.104.037.105.038.106.037.106.037.107.038.108.037.11.037.11.038.11.037.112.038.112.074.224.038.112.037.112.037.112.038.11.037.11.038.11.037.108.037.107.038.104.037.102.037.1.038.097.037.096.037.095.038.092.037.091.038.09.037.088.037.087.038.087.037.085.038.084.037.082.037.076.038.072.037.068.037.063.038.06.037.055.037.052.038.048.037.045.038.042.037.04.037.036.038.034.037.031.037.029.038.025.037.02.037.016.038.013.015.003M6.398 8.769l.015-.003.037-.013.038-.016.037-.02.037-.025.038-.029.037-.031.037-.034.038-.037.037-.039.037-.042.038-.045.037-.048.038-.052.037-.055.037-.06.038-.063.037-.068.037-.072.038-.076.037-.082.037-.084.038-.085.037-.087.038-.087.037-.088.037-.09.038-.09.037-.093.038-.095.037-.096.037-.097.038-.1.037-.102.037-.104.038-.107.037-.108.037-.11.038-.11.037-.11.038-.112.037-.112.112-.336.037-.112.038-.111.037-.111.037-.11.038-.11.037-.108.038-.107.037-.106.037-.106.038-.105.037-.104.038-.103.037-.103.037-.102.038-.1.037-.101.037-.1.038-.099.037-.098.037-.098.038-.097.037-.095.038-.09.037-.087.037-.084.038-.08.037-.076.037-.074.038-.07.037-.068.037-.065.038-.063.037-.061.038-.06.037-.056.037-.056.038-.053.037-.05.038-.048.037-.044.037-.041.038-.038.037-.035.037-.033.038-.028.037-.026.037-.023.038-.02.037-.016.038-.013.037-.01.037-.008.038-.007.037-.005.037-.003.038-.002.037.001.037.003.038.005.037.008.038.01.037.014.037.016.038.02.037.023.038.027.037.029.037.029.038.03.037.03.037.03.038.032.037.033.037.033.038.033.037.035.038.036.037.036.037.038.038.038.037.04.037.04.038.04.074.081.038.041.037.041.038.042.037.042.037.042.038.043.037.043.038.045.037.045.037.045.038.047" transform="matrix(28.34646 0 0 -28.34646 1 256.118)"/><path style="fill:none;stroke-width:.05;stroke-linecap:butt;stroke-linejoin:miter;stroke:#e69142;stroke-opacity:1;stroke-miterlimit:10" d="m.994 2.943.56-.503.561.223.56.778.561.172.56-.988.561-.937.56.965.562 2.979.56 2.721h.56l.561-2.721.56-2.98.561-.964.56.937.561.988.56-.172.562-.778.56-.223.56.503" transform="matrix(28.34646 0 0 -28.34646 1 256.118)"/></svg>