<svg xmlns="http://www.w3.org/2000/svg" width="456.21" height="342.824" viewBox="0 0 342.157 257.118"><path style="fill:none;stroke-width:.02;stroke-linecap:butt;stroke-linejoin:miter;stroke:#000;stroke-opacity:1;stroke-miterlimit:10" d="M.994 1.428h.15M.994 2.243h.15M.994 3.06h.15M.994 3.875h.15M.994 4.69h.15M.994 5.506h.15M.994 6.322h.15M.994 7.138h.15M.994 7.953h.15" transform="matrix(28.34646 0 0 -28.34646 1 256.118)"/><path style="fill:none;stroke-width:.02;stroke-linecap:round;stroke-linejoin:miter;stroke:#000;stroke-opacity:1;stroke-miterlimit:10" d="M.994.612v8.157" transform="matrix(28.34646 0 0 -28.34646 1 256.118)"/><path style="stroke:none;fill-rule:nonzero;fill:#000;fill-opacity:1" d="M6.941 239.684v.632H3.973v-.632Zm0 0ZM10.988 234.852v6.996l.012.023h1.395v.625H8.71v-.625h1.394l.024-.023v-5.871c-.477.156-.977.257-1.477.246v-.633c.75.012 1.567-.192 2.133-.738Zm0 0ZM15.32 241.586v.91h-.918v-.91Zm0 0ZM19.45 234.852c1.073.082 1.788 1.066 1.984 2.066.101.453.125.883.168 1.336v1.156c-.055 1.18-.34 2.735-1.622 3.211-1.109.441-2.414-.25-2.742-1.387-.25-.597-.273-1.21-.332-1.824v-1.156c.059-1.18.309-2.742 1.578-3.266l.055-.023.047-.012.059-.02.168-.046.101-.024h.125l.023-.011Zm0 0Zm-.352.691c-.953.113-1.239 1.262-1.305 2.031v.305l-.023.023v1.578c.066.817.125 1.868.875 2.415.69.476 1.609-.06 1.8-.793.203-.547.25-1.079.297-1.622v-1.578c-.07-.828-.183-1.984-1.137-2.312l-.078-.024-.023-.023h-.102l-.023-.02h-.262Zm0 0ZM6.941 216.563v.632H3.973v-.632Zm0 0ZM10.637 211.73c1.078.079 1.793 1.067 1.984 2.063.102.453.125.887.172 1.34v1.156c-.059 1.18-.34 2.73-1.621 3.207-1.113.445-2.418-.25-2.746-1.383-.25-.601-.27-1.21-.328-1.824v-1.156c.058-1.18.304-2.746 1.578-3.266l.054-.023.047-.012.055-.023.172-.043.101-.024h.125l.024-.012Zm0 0Zm-.352.692c-.953.113-1.234 1.258-1.305 2.031v.305l-.02.023v1.574c.067.817.126 1.872.872 2.418.691.473 1.61-.058 1.805-.796.203-.543.25-1.075.293-1.622v-1.574c-.067-.828-.18-1.984-1.133-2.312l-.078-.024-.024-.023h-.101l-.024-.024h-.261Zm0 0ZM15.32 218.465v.906h-.918v-.906Zm0 0ZM19.469 211.73c1.203.047 2.336 1.336 1.863 2.54-.207.554-.773.894-1.238 1.132 1.156.344 1.86 1.692 1.34 2.801-.547 1.442-2.61 1.895-3.743.852-1.03-.817-1.066-2.586.079-3.309.171-.184.488-.238.636-.375-.988-.285-1.656-1.43-1.191-2.394.375-.86 1.336-1.336 2.254-1.247Zm0 0Zm-.43.645c-.84.023-1.43.977-1.144 1.727.328 1.293 2.496 1.246 2.742-.082.226-.735-.36-1.622-1.168-1.645l-.02-.008h-.387Zm0 0Zm.023 3.371c-.988.066-1.472 1.246-1.214 2.086.172 1.188 1.87 1.54 2.543.59.644-.875.328-2.442-.84-2.676h-.102l-.023-.023h-.352Zm0 0ZM6.941 193.438v.636H3.973v-.637Zm0 0ZM10.637 188.61c1.078.077 1.793 1.066 1.984 2.062.102.453.125.883.172 1.336v1.16c-.059 1.176-.34 2.73-1.621 3.207-1.113.441-2.418-.25-2.746-1.383-.25-.601-.27-1.215-.328-1.824v-1.16c.058-1.176.304-2.742 1.578-3.262l.054-.023.047-.012.055-.024.172-.046.101-.02h.125l.024-.012Zm0 0Zm-.352.69c-.953.114-1.234 1.259-1.305 2.028v.309l-.02.023v1.574c.067.817.126 1.871.872 2.414.691.477 1.61-.054 1.805-.793.203-.542.25-1.078.293-1.62v-1.575c-.067-.828-.18-1.984-1.133-2.316l-.078-.02-.024-.023h-.101l-.024-.024h-.261Zm0 0ZM15.32 195.344v.906h-.918v-.906Zm0 0ZM20.184 188.61c.296.042.636.077.918.214v.656c-.782-.34-1.801-.382-2.415.31-.542.577-.792 1.437-.816 2.198.66-.875 2.145-1.363 2.95-.453.804.93.94 2.266.577 3.399-.398.91-1.316 1.734-2.335 1.543-1.383-.114-2.008-1.657-2.075-2.836-.261-1.664.137-3.762 1.723-4.715l.023-.012.239-.125.066-.023.035-.02.192-.059.16-.046.101-.02h.125l.024-.012Zm0 0Zm-1.11 3.152c-.988.168-1.304 1.36-1.18 2.164.06.762.352 1.77 1.223 1.93.93.12 1.531-.876 1.555-1.68.047-.817 0-1.746-.715-2.281l-.156-.079-.125-.035-.102-.02-.023-.023h-.453Zm0 0ZM6.941 170.316v.637H3.973v-.637Zm0 0ZM10.637 165.484c1.078.082 1.793 1.067 1.984 2.067.102.453.125.883.172 1.336v1.156c-.059 1.18-.34 2.734-1.621 3.21-1.113.442-2.418-.25-2.746-1.382-.25-.601-.27-1.215-.328-1.828v-1.156c.058-1.18.304-2.742 1.578-3.266l.054-.023.047-.008.055-.024.172-.046.101-.024h.125l.024-.012Zm0 0Zm-.352.692c-.953.117-1.234 1.262-1.305 2.031v.305l-.02.023v1.578c.067.817.126 1.871.872 2.414.691.477 1.61-.058 1.805-.793.203-.547.25-1.078.293-1.62v-1.579c-.067-.828-.18-1.984-1.133-2.312l-.078-.024-.024-.023h-.101l-.024-.02h-.261Zm0 0ZM15.32 172.223v.906h-.918v-.906Zm0 0ZM20.617 165.723v4.773l.02.024h1.125v.68h-1.125l-.02.01v1.919h-.863v-1.918l-.024-.012h-2.992v-.703c.953-1.586 1.907-3.184 2.856-4.773Zm0 0Zm-.84.433c-.226 1.18-.953 2.188-1.496 3.219-.215.375-.5.781-.66 1.145h2.18l.012-.024v-4.34l-.012-.023Zm0 0ZM6.941 147.195v.633H3.973v-.633Zm0 0ZM10.637 142.363c1.078.078 1.793 1.067 1.984 2.063.102.457.125.887.172 1.34v1.156c-.059 1.18-.34 2.734-1.621 3.207-1.113.445-2.418-.246-2.746-1.383-.25-.601-.27-1.21-.328-1.824v-1.156c.058-1.18.304-2.746 1.578-3.266l.054-.023.047-.012.055-.024.172-.043.101-.023h.125l.024-.012Zm0 0Zm-.352.692c-.953.113-1.234 1.257-1.305 2.03v.306l-.02.023v1.574c.067.817.126 1.871.872 2.418.691.477 1.61-.058 1.805-.793.203-.547.25-1.078.293-1.625v-1.574c-.067-.828-.18-1.984-1.133-2.312l-.078-.024-.024-.023h-.101l-.024-.024h-.261Zm0 0ZM15.32 149.098v.91h-.918v-.91Zm0 0ZM19.324 142.363c1.313.035 2.356 1.383 2.153 2.653-.137 1.27-1.325 1.996-2.176 2.789l-.363.375-.047.023-.453.442-.032.023-.453.453-.047.024-.101.101.023.012H21.5v.75h-4.488v-.684l1.824-1.824c.871-.758 1.894-1.746 1.734-2.992-.09-.727-.703-1.395-1.453-1.453-.758-.114-1.426.488-1.597 1.215l-.024.03-.02.083-.105.375-.008.054c-.16-.19-.332-.394-.457-.613.23-.93.977-1.8 1.965-1.836Zm0 0ZM10.637 119.242c1.078.078 1.793 1.067 1.984 2.063.102.453.125.886.172 1.34v1.156c-.059 1.18-.34 2.73-1.621 3.207-1.113.441-2.418-.25-2.746-1.383-.25-.602-.27-1.215-.328-1.824v-1.156c.058-1.18.304-2.747 1.578-3.266l.054-.024.047-.011.055-.024.172-.043.101-.023h.125l.024-.012Zm0 0Zm-.352.692c-.953.113-1.234 1.257-1.305 2.027v.309l-.02.023v1.574c.067.817.126 1.871.872 2.414.691.477 1.61-.054 1.805-.793.203-.543.25-1.078.293-1.62v-1.575c-.067-.828-.18-1.984-1.133-2.313l-.078-.023-.024-.023h-.101l-.024-.024h-.261Zm0 0ZM15.32 125.977v.906h-.918v-.906Zm0 0ZM19.45 119.242c1.073.078 1.788 1.067 1.984 2.063.101.453.125.886.168 1.34v1.156c-.055 1.18-.34 2.73-1.622 3.207-1.109.441-2.414-.25-2.742-1.383-.25-.602-.273-1.215-.332-1.824v-1.156c.059-1.18.309-2.747 1.578-3.266l.055-.024.047-.011.059-.024.168-.043.101-.023h.125l.023-.012Zm0 0Zm-.352.692c-.953.113-1.239 1.257-1.305 2.027v.309l-.023.023v1.574c.066.817.125 1.871.875 2.414.69.477 1.609-.054 1.8-.793.203-.543.25-1.078.297-1.62v-1.575c-.07-.828-.183-1.984-1.137-2.313l-.078-.023-.023-.023h-.102l-.023-.024h-.262Zm0 0ZM10.637 96.121c1.078.078 1.793 1.063 1.984 2.063.102.453.125.882.172 1.336v1.156c-.059 1.18-.34 2.734-1.621 3.21-1.113.442-2.418-.25-2.746-1.382-.25-.602-.27-1.215-.328-1.828V99.52c.058-1.18.304-2.743 1.578-3.266l.054-.02.047-.011.055-.024.172-.047.101-.023h.125l.024-.008Zm0 0Zm-.352.692c-.953.113-1.234 1.257-1.305 2.027v.308l-.02.02v1.578c.067.817.126 1.871.872 2.414.691.477 1.61-.055 1.805-.793.203-.543.25-1.078.293-1.62v-1.579c-.067-.828-.18-1.984-1.133-2.313l-.078-.023-.024-.02h-.101l-.024-.023h-.261Zm0 0ZM15.32 102.855v.907h-.918v-.907Zm0 0ZM19.324 96.121c1.313.031 2.356 1.383 2.153 2.652-.137 1.27-1.325 1.997-2.176 2.79l-.363.374-.047.02-.453.445-.032.02-.453.457-.047.02-.101.101.023.012H21.5v.75h-4.488v-.68l1.824-1.828c.871-.758 1.894-1.746 1.734-2.992-.09-.727-.703-1.395-1.453-1.45-.758-.113-1.426.485-1.597 1.211l-.024.036-.02.078-.105.375-.008.058c-.16-.195-.332-.398-.457-.613.23-.93.977-1.805 1.965-1.836Zm0 0ZM10.637 72.996c1.078.082 1.793 1.067 1.984 2.067.102.453.125.882.172 1.335v1.157c-.059 1.18-.34 2.734-1.621 3.21-1.113.442-2.418-.25-2.746-1.386-.25-.598-.27-1.211-.328-1.824v-1.157c.058-1.18.304-2.742 1.578-3.265l.054-.024.047-.011.055-.02.172-.047.101-.023h.125l.024-.012Zm0 0Zm-.352.692c-.953.113-1.234 1.261-1.305 2.03v.305l-.02.024v1.578c.067.816.126 1.871.872 2.414.691.477 1.61-.059 1.805-.793.203-.547.25-1.078.293-1.621v-1.578c-.067-.828-.18-1.984-1.133-2.313l-.078-.023-.024-.023h-.101l-.024-.02h-.261Zm0 0ZM15.32 79.73v.91h-.918v-.91Zm0 0ZM20.617 73.234v4.774l.02.023h1.125v.68h-1.125l-.02.012v1.918h-.863v-1.918l-.024-.012h-2.992v-.703c.953-1.586 1.907-3.184 2.856-4.774Zm0 0Zm-.84.434c-.226 1.176-.953 2.187-1.496 3.219-.215.375-.5.781-.66 1.144h2.18l.012-.023v-4.34l-.012-.023Zm0 0ZM10.637 49.875c1.078.078 1.793 1.066 1.984 2.063.102.453.125.886.172 1.34v1.156c-.059 1.18-.34 2.73-1.621 3.207-1.113.445-2.418-.25-2.746-1.383-.25-.602-.27-1.211-.328-1.824v-1.157c.058-1.18.304-2.746 1.578-3.265l.054-.024.047-.011.055-.024.172-.043.101-.023h.125l.024-.012Zm0 0Zm-.352.691c-.953.114-1.234 1.258-1.305 2.032v.304l-.02.024V54.5c.067.816.126 1.871.872 2.418.691.473 1.61-.059 1.805-.797.203-.543.25-1.074.293-1.621v-1.574c-.067-.828-.18-1.985-1.133-2.313l-.078-.023-.024-.024h-.101l-.024-.023h-.261Zm0 0ZM15.32 56.61v.906h-.918v-.907Zm0 0ZM20.184 49.875c.296.047.636.078.918.215v.656c-.782-.34-1.801-.383-2.415.309-.542.578-.792 1.441-.816 2.199.66-.875 2.145-1.36 2.95-.453.804.93.94 2.265.577 3.402-.398.906-1.316 1.734-2.335 1.54-1.383-.114-2.008-1.653-2.075-2.833-.261-1.668.137-3.765 1.723-4.719l.023-.011.239-.125.066-.02.035-.023.192-.059.16-.043.101-.023h.125l.024-.012Zm0 0Zm-1.11 3.152c-.988.168-1.304 1.36-1.18 2.164.06.762.352 1.77 1.223 1.93.93.125 1.531-.875 1.555-1.68.047-.816 0-1.746-.715-2.277l-.156-.082-.125-.031-.102-.024-.023-.023h-.453Zm0 0ZM10.637 26.754c1.078.078 1.793 1.066 1.984 2.062.102.454.125.883.172 1.34v1.157c-.059 1.175-.34 2.73-1.621 3.207-1.113.44-2.418-.25-2.746-1.383-.25-.602-.27-1.215-.328-1.825v-1.156c.058-1.18.304-2.746 1.578-3.265l.054-.024.047-.012.055-.023.172-.047.101-.02h.125l.024-.011Zm0 0Zm-.352.691c-.953.114-1.234 1.258-1.305 2.028v.308l-.02.024v1.574c.067.816.126 1.871.872 2.414.691.477 1.61-.055 1.805-.793.203-.543.25-1.078.293-1.621v-1.574c-.067-.828-.18-1.985-1.133-2.317l-.078-.02-.024-.023h-.101l-.024-.023h-.261Zm0 0ZM15.32 33.488v.907h-.918v-.907Zm0 0ZM19.469 26.754c1.203.043 2.336 1.336 1.863 2.539-.207.555-.773.895-1.238 1.133 1.156.34 1.86 1.691 1.34 2.8-.547 1.442-2.61 1.895-3.743.852-1.03-.816-1.066-2.586.079-3.312.171-.18.488-.239.636-.375-.988-.282-1.656-1.426-1.191-2.391.375-.863 1.336-1.34 2.254-1.246Zm0 0Zm-.43.644c-.84.024-1.43.977-1.144 1.723.328 1.293 2.496 1.25 2.742-.078.226-.738-.36-1.621-1.168-1.645l-.02-.011h-.387Zm0 0Zm.023 3.368c-.988.07-1.472 1.25-1.214 2.086.172 1.191 1.87 1.543 2.543.59.644-.872.328-2.438-.84-2.676h-.102l-.023-.024h-.352Zm0 0ZM10.988 3.629v6.996l.012.023h1.395v.625H8.71v-.625h1.394l.024-.023V4.754c-.477.156-.977.262-1.477.25v-.637c.75.012 1.567-.191 2.133-.738Zm0 0ZM15.32 10.367v.906h-.918v-.906Zm0 0ZM19.45 3.629c1.073.082 1.788 1.066 1.984 2.066.101.453.125.883.168 1.336v1.157c-.055 1.18-.34 2.734-1.622 3.21-1.109.442-2.414-.25-2.742-1.382-.25-.602-.273-1.215-.332-1.829V7.032c.059-1.18.309-2.742 1.578-3.265l.055-.024.047-.008.059-.023.168-.047.101-.023h.125l.023-.012Zm0 0Zm-.352.691c-.953.117-1.239 1.262-1.305 2.032v.304l-.023.024v1.578c.066.816.125 1.87.875 2.414.69.476 1.609-.059 1.8-.793.203-.547.25-1.078.297-1.621V6.68c-.07-.828-.183-1.985-1.137-2.313l-.078-.023-.023-.024h-.102l-.023-.02h-.262Zm0 0Zm0 0"/><path style="fill:none;stroke-width:.02;stroke-linecap:butt;stroke-linejoin:miter;stroke:#000;stroke-opacity:1;stroke-miterlimit:10" d="M11.6 1.428h-.15M11.6 2.243h-.15M11.6 3.06h-.15M11.6 3.875h-.15M11.6 4.69h-.15M11.6 5.506h-.15M11.6 6.322h-.15M11.6 7.138h-.15M11.6 7.953h-.15" transform="matrix(28.34646 0 0 -28.34646 1 256.118)"/><path style="fill:none;stroke-width:.02;stroke-linecap:round;stroke-linejoin:miter;stroke:#000;stroke-opacity:1;stroke-miterlimit:10" d="M11.6.612v8.157" transform="matrix(28.34646 0 0 -28.34646 1 256.118)"/><path style="fill:none;stroke-width:.02;stroke-linecap:butt;stroke-linejoin:miter;stroke:#000;stroke-opacity:1;stroke-miterlimit:10" d="M2.055.612v.15M3.115.612v.15M4.176.612v.15M5.236.612v.15M6.297.612v.15M7.358.612v.15M8.418.612v.15M9.479.612v.15M10.54.612v.15" transform="matrix(28.34646 0 0 -28.34646 1 256.118)"/><path style="fill:none;stroke-width:.02;stroke-linecap:round;stroke-linejoin:miter;stroke:#000;stroke-opacity:1;stroke-miterlimit:10" d="M.994.612H11.6" transform="matrix(28.34646 0 0 -28.34646 1 256.118)"/><path style="stroke:none;fill-rule:nonzero;fill:#000;fill-opacity:1" d="M29.367 245.652c1.078.078 1.793 1.067 1.985 2.063.105.453.125.887.171 1.34v1.156c-.058 1.18-.34 2.73-1.62 3.207-1.114.445-2.415-.246-2.747-1.383-.246-.601-.27-1.21-.328-1.824v-1.156c.059-1.18.309-2.746 1.578-3.266l.055-.023.047-.012.055-.024.171-.042.102-.024h.125l.023-.012Zm0 0Zm-.347.692c-.954.113-1.239 1.258-1.305 2.031v.305l-.024.023v1.574c.067.817.125 1.871.872 2.418.69.477 1.613-.058 1.804-.797.203-.543.25-1.074.293-1.62v-1.575c-.066-.828-.18-1.984-1.133-2.312l-.078-.024-.023-.023h-.102l-.023-.024h-.262Zm0 0ZM56.95 245.652v6.996l.01.024h1.395v.621h-3.683v-.621h1.394l.024-.024v-5.875c-.477.16-.977.262-1.477.25v-.632c.75.011 1.567-.196 2.133-.739Zm0 0ZM62.27 245.652c1.074.078 1.789 1.067 1.984 2.063.101.453.125.887.168 1.34v1.156c-.055 1.18-.34 2.73-1.621 3.207-1.11.445-2.414-.246-2.742-1.383-.25-.601-.274-1.21-.332-1.824v-1.156c.058-1.18.308-2.746 1.578-3.266l.054-.023.047-.012.059-.024.168-.042.101-.024h.125l.024-.012Zm0 0Zm-.352.692c-.953.113-1.238 1.258-1.305 2.031v.305l-.023.023v1.574c.066.817.125 1.871.875 2.418.691.477 1.61-.058 1.8-.797.204-.543.25-1.074.297-1.62v-1.575c-.07-.828-.183-1.984-1.136-2.312l-.078-.024-.024-.023h-.101l-.024-.024h-.261Zm0 0ZM86.54 245.652c1.315.036 2.358 1.383 2.151 2.653-.136 1.27-1.324 1.996-2.175 2.789l-.364.375-.047.023-.453.442-.03.023-.454.453-.047.024-.101.101.023.012h3.672v.746h-4.488v-.68l1.824-1.824c.87-.762 1.894-1.746 1.734-2.992-.09-.727-.703-1.395-1.45-1.453-.76-.114-1.429.488-1.6 1.215l-.024.03-.02.083-.035.125-.066.25-.012.055a4.283 4.283 0 0 1-.453-.614c.227-.93.973-1.8 1.96-1.836Zm0 0ZM92.332 245.652c1.078.078 1.793 1.067 1.984 2.063.102.453.125.887.172 1.34v1.156c-.058 1.18-.343 2.73-1.625 3.207-1.11.445-2.414-.246-2.742-1.383-.25-.601-.273-1.21-.328-1.824v-1.156c.055-1.18.305-2.746 1.574-3.266l.059-.023.043-.012.058-.024.172-.042.102-.024h.125l.02-.012Zm0 0Zm-.352.692c-.953.113-1.234 1.258-1.304 2.031v.305l-.024.023v1.574c.07.817.125 1.871.875 2.418.692.477 1.61-.058 1.805-.797.203-.543.246-1.074.293-1.62v-1.575c-.066-.828-.18-1.984-1.133-2.312l-.082-.024-.02-.023h-.105l-.02-.024h-.261Zm0 0ZM116.75 245.652c.996.047 2.04.965 1.805 2.02-.118.715-.614 1.305-1.239 1.621 1.008.316 1.793 1.383 1.52 2.437-.273 1.372-1.848 2.133-3.117 1.711-.614-.18-1.239-.566-1.531-1.132.066-.172.046-.465.124-.579.602.883 1.872 1.485 2.868.985 1.09-.692.918-2.707-.395-3.047h-.101l-.024-.023h-1.055v-.68c.645-.012 1.45-.094 1.813-.762.387-.578.352-1.531-.383-1.812-.875-.34-1.953.214-2.281 1.097-.137-.191-.274-.383-.406-.59.465-.835 1.449-1.335 2.402-1.246Zm0 0ZM122.398 245.652c1.075.078 1.79 1.067 1.98 2.063.106.453.126.887.173 1.34v1.156c-.055 1.18-.34 2.73-1.621 3.207-1.114.445-2.414-.246-2.746-1.383-.246-.601-.27-1.21-.329-1.824v-1.156c.06-1.18.31-2.746 1.579-3.266l.054-.023.047-.012.055-.024.172-.042.101-.024h.125l.024-.012Zm0 0Zm-.351.692c-.953.113-1.238 1.258-1.305 2.031v.305l-.023.023v1.574c.066.817.125 1.871.87 2.418.692.477 1.614-.058 1.806-.797.203-.543.25-1.074.293-1.62v-1.575c-.067-.828-.18-1.984-1.133-2.312l-.078-.024-.024-.023h-.101l-.024-.024h-.262Zm0 0ZM147.96 245.89v4.774l.02.024h1.125v.68h-1.125l-.02.01v1.915h-.862v-1.914l-.024-.012h-2.992v-.703c.953-1.586 1.906-3.187 2.856-4.773Zm0 0Zm-.839.43c-.226 1.18-.953 2.192-1.496 3.223-.219.371-.5.781-.66 1.144h2.18l.011-.023v-4.344l-.011-.02Zm0 0ZM152.46 245.652c1.08.078 1.794 1.067 1.985 2.063.102.453.125.887.168 1.34v1.156c-.054 1.18-.34 2.73-1.62 3.207-1.11.445-2.415-.246-2.743-1.383-.25-.601-.273-1.21-.328-1.824v-1.156c.055-1.18.305-2.746 1.574-3.266l.059-.023.043-.012.058-.024.168-.042.106-.024h.12l.024-.012Zm0 0Zm-.35.692c-.954.113-1.235 1.258-1.305 2.031v.305l-.024.023v1.574c.07.817.125 1.871.875 2.418.692.477 1.61-.058 1.801-.797.207-.543.25-1.074.297-1.62v-1.575c-.07-.828-.184-1.984-1.133-2.312l-.082-.024-.023-.023h-.102l-.02-.024h-.261Zm0 0ZM178.535 245.89v.704h-2.95l-.023.011v2.325c.274-.184.66-.418 1.02-.43 1.281-.137 2.27 1.121 2.324 2.29.184 1.483-1.21 2.96-2.707 2.733-.75-.023-1.476-.464-1.906-1.078.125-.172.227-.465.375-.566.531 1.043 2.254 1.46 2.95.363.44-.828.429-1.883-.083-2.68-.59-.757-1.758-.292-2.027.512h-.738v-4.183Zm0 0ZM182.523 245.652c1.079.078 1.793 1.067 1.985 2.063.105.453.125.887.172 1.34v1.156c-.059 1.18-.34 2.73-1.621 3.207-1.114.445-2.414-.246-2.746-1.383-.247-.601-.27-1.21-.329-1.824v-1.156c.059-1.18.309-2.746 1.578-3.266l.055-.023.047-.012.055-.024.172-.042.101-.024h.125l.024-.012Zm0 0Zm-.351.692c-.95.113-1.234 1.258-1.3 2.031v.305l-.024.023v1.574c.066.817.125 1.871.87 2.418.692.477 1.614-.058 1.805-.797.204-.543.25-1.074.293-1.62v-1.575c-.066-.828-.18-1.984-1.132-2.312l-.079-.024-.023-.023h-.102l-.023-.024h-.262Zm0 0ZM207.656 245.652c.297.047.637.078.918.215v.66c-.781-.343-1.8-.386-2.414.305-.543.578-.793 1.441-.816 2.2.656-.872 2.144-1.36 2.949-.454.805.93.941 2.266.578 3.402-.398.907-1.316 1.735-2.336 1.543-1.383-.117-2.008-1.656-2.074-2.835-.262-1.668.133-3.766 1.723-4.72l.023-.011.238-.121.067-.024.035-.023.191-.059.16-.042.102-.024h.125l.023-.012Zm0 0Zm-1.11 3.153c-.987.172-1.304 1.36-1.179 2.164.055.761.352 1.77 1.223 1.93.93.124 1.531-.876 1.555-1.68.046-.817 0-1.746-.715-2.278l-.157-.078-.125-.035-.105-.023-.02-.024h-.453Zm0 0ZM212.59 245.652c1.078.078 1.789 1.067 1.984 2.063.102.453.125.887.168 1.34v1.156c-.054 1.18-.34 2.73-1.62 3.207-1.11.445-2.415-.246-2.743-1.383-.25-.601-.274-1.21-.328-1.824v-1.156c.054-1.18.304-2.746 1.574-3.266l.059-.023.043-.012.058-.024.168-.042.102-.024h.125l.023-.012Zm0 0Zm-.352.692c-.953.113-1.238 1.258-1.304 2.031v.305l-.024.023v1.574c.07.817.125 1.871.875 2.418.692.477 1.61-.058 1.8-.797.208-.543.25-1.074.298-1.62v-1.575c-.07-.828-.184-1.984-1.137-2.312l-.078-.024-.023-.023h-.102l-.023-.024h-.258Zm0 0ZM239.137 245.89v.715c-1.61 1.883-2.516 4.422-2.504 6.813h-.918c-.024-2.414.965-4.965 2.687-6.746l-.023-.02h-3.934v-.761h4.692v.714Zm0 0ZM242.652 245.652c1.078.078 1.793 1.067 1.985 2.063.101.453.125.887.172 1.34v1.156c-.059 1.18-.34 2.73-1.621 3.207-1.114.445-2.418-.246-2.747-1.383-.25-.601-.27-1.21-.328-1.824v-1.156c.059-1.18.305-2.746 1.578-3.266l.055-.023.047-.012.055-.024.172-.042.101-.024h.125l.024-.012Zm0 0Zm-.351.692c-.953.113-1.235 1.258-1.301 2.031v.305l-.023.023v1.574c.066.817.125 1.871.87 2.418.692.477 1.61-.058 1.805-.797.203-.543.25-1.074.293-1.62v-1.575c-.066-.828-.18-1.984-1.132-2.312l-.079-.024-.023-.023h-.102l-.023-.024h-.262Zm0 0ZM267.07 245.652c1.203.047 2.336 1.34 1.86 2.54-.203.554-.77.898-1.235 1.136 1.157.34 1.86 1.688 1.336 2.797-.543 1.441-2.605 1.895-3.738.852-1.035-.817-1.066-2.586.078-3.309.168-.184.488-.238.633-.375-.984-.285-1.652-1.43-1.188-2.395.372-.859 1.336-1.335 2.254-1.246Zm0 0Zm-.43.649c-.84.02-1.43.972-1.144 1.722.328 1.293 2.492 1.247 2.742-.082.227-.734-.363-1.62-1.168-1.64l-.023-.012h-.383Zm0 0Zm.024 3.367c-.988.066-1.476 1.246-1.215 2.086.172 1.187 1.871 1.539 2.54.59.648-.875.331-2.438-.837-2.676h-.105l-.02-.023h-.351Zm0 0ZM272.719 245.652c1.078.078 1.789 1.067 1.984 2.063.102.453.125.887.168 1.34v1.156c-.055 1.18-.34 2.73-1.621 3.207-1.11.445-2.414-.246-2.742-1.383-.25-.601-.274-1.21-.328-1.824v-1.156c.054-1.18.304-2.746 1.574-3.266l.058-.023.043-.012.06-.024.167-.042.102-.024h.125l.023-.012Zm0 0Zm-.352.692c-.953.113-1.238 1.258-1.305 2.031v.305l-.023.023v1.574c.07.817.125 1.871.875 2.418.691.477 1.61-.058 1.8-.797.204-.543.25-1.074.298-1.62v-1.575c-.07-.828-.184-1.984-1.137-2.312l-.078-.024-.024-.023h-.101l-.024-.024h-.257Zm0 0ZM297.156 245.652c1.364.149 1.953 1.692 2.043 2.868.16 1.53-.023 3.324-1.27 4.421-.78.786-2.167.809-3.003.106.101-.195.215-.422.34-.578.734.71 2.027.508 2.504-.41.34-.555.546-1.27.535-1.883-.672.863-2.145 1.363-2.95.453-.816-.941-.964-2.313-.554-3.445.418-.895 1.312-1.668 2.355-1.532Zm0 0Zm-.37.649c-.817.066-1.24.972-1.294 1.687-.035.805 0 1.746.715 2.27.793.484 1.813-.106 1.996-.965.215-.84.078-1.734-.351-2.52-.239-.328-.672-.566-1.067-.472Zm0 0ZM302.781 245.652c1.078.078 1.793 1.067 1.985 2.063.101.453.125.887.171 1.34v1.156c-.058 1.18-.34 2.73-1.62 3.207-1.114.445-2.419-.246-2.747-1.383-.25-.601-.27-1.21-.328-1.824v-1.156c.059-1.18.305-2.746 1.574-3.266l.059-.023.047-.012.055-.024.171-.042.102-.024h.125l.023-.012Zm0 0Zm-.351.692c-.953.113-1.235 1.258-1.305 2.031v.305l-.02.023v1.574c.067.817.125 1.871.872 2.418.691.477 1.609-.058 1.804-.797.203-.543.246-1.074.293-1.62v-1.575c-.066-.828-.18-1.984-1.133-2.312l-.078-.024-.023-.023h-.102l-.023-.024h-.262Zm0 0ZM324.695 245.652v6.996l.012.024h1.395v.621h-3.688v-.621h1.395l.023-.024v-5.875c-.477.16-.977.262-1.473.25v-.632c.746.011 1.563-.196 2.13-.739Zm0 0ZM330.012 245.652c1.078.078 1.793 1.067 1.984 2.063.102.453.125.887.168 1.34v1.156c-.055 1.18-.34 2.73-1.621 3.207-1.11.445-2.414-.246-2.742-1.383-.25-.601-.274-1.21-.328-1.824v-1.156c.054-1.18.304-2.746 1.574-3.266l.058-.023.043-.012.059-.024.168-.042.105-.024h.122l.023-.012Zm0 0Zm-.352.692c-.953.113-1.234 1.258-1.305 2.031v.305l-.023.023v1.574c.07.817.125 1.871.875 2.418.691.477 1.61-.058 1.8-.797.208-.543.25-1.074.298-1.62v-1.575c-.07-.828-.184-1.984-1.133-2.312l-.082-.024-.024-.023h-.101l-.02-.024h-.261Zm0 0ZM335.68 245.652c1.078.078 1.793 1.067 1.984 2.063.102.453.125.887.172 1.34v1.156c-.059 1.18-.34 2.73-1.621 3.207-1.113.445-2.418-.246-2.746-1.383-.25-.601-.27-1.21-.328-1.824v-1.156c.058-1.18.304-2.746 1.578-3.266l.054-.023.047-.012.055-.024.172-.042.101-.024h.125l.024-.012Zm0 0Zm-.352.692c-.95.113-1.234 1.258-1.3 2.031v.305l-.024.023v1.574c.066.817.125 1.871.871 2.418.691.477 1.61-.058 1.805-.797.203-.543.25-1.074.293-1.62v-1.575c-.067-.828-.18-1.984-1.133-2.312l-.078-.024-.024-.023h-.101l-.024-.024h-.261Zm0 0Zm0 0"/><path style="fill:none;stroke-width:.02;stroke-linecap:butt;stroke-linejoin:miter;stroke:#000;stroke-opacity:1;stroke-miterlimit:10" d="M2.055 8.769v-.15M3.115 8.769v-.15M4.176 8.769v-.15M5.236 8.769v-.15M6.297 8.769v-.15M7.358 8.769v-.15M8.418 8.769v-.15M9.479 8.769v-.15M10.54 8.769v-.15" transform="matrix(28.34646 0 0 -28.34646 1 256.118)"/><path style="fill:none;stroke-width:.02;stroke-linecap:round;stroke-linejoin:miter;stroke:#000;stroke-opacity:1;stroke-miterlimit:10" d="M.994 8.769H11.6" transform="matrix(28.34646 0 0 -28.34646 1 256.118)"/><path style="fill:none;stroke-width:.05;stroke-linecap:butt;stroke-linejoin:miter;stroke:#5478a3;stroke-opacity:1;stroke-miterlimit:10" d="m1.1 1.259.035.014.036.015.035.016.035.015.036.016.035.015.036.016.035.016.035.016.036.017.035.016.035.017.036.016.035.017.035.017.036.017.035.018.035.017.036.018.035.017.035.018.036.018.035.019.036.018.035.018.035.019.036.019.035.018.035.02.036.019.035.019.035.02.036.019.035.02.035.019.036.02.035.02.036.02.035.02.035.02.036.021.035.02.035.022.036.02.035.021.07.043.036.021.035.022.036.021.035.022.035.022.036.022.035.022.07.044.036.022.036.023.035.023.035.022.036.023.035.023.035.023.036.023.035.023.07.047.036.023.035.024.036.024.035.023.035.024.036.024.035.024.036.024.035.024.035.025.036.024.035.025.035.024.036.025.035.025.035.024.036.025.035.025.035.025.036.025.035.025.036.026.035.025.035.026.036.025.035.025.035.026.036.026.035.026.07.051.036.026.035.026.036.026.035.026.035.026.036.026.035.027.036.026.035.026.07.053.036.027.035.027.036.026.035.027.035.026.036.027.035.027.035.027.036.027.035.027.036.027.035.027.035.027.035.027.036.027.035.027.036.027.035.027.035.027.036.027.035.028.035.027.036.027.035.028.035.027.036.027.035.028.035.027.036.027.07.055.036.028.035.027.036.027.035.028.035.027.036.028.035.027.035.028.036.027.035.028.035.027.036.028.035.027.035.027.036.028.035.027.036.028.035.027.07.055.036.027.035.028.036.027.035.027.035.028.036.027.035.027.035.028.036.027.07.054.036.027.035.027.036.027.035.027.035.027.036.028.035.026.035.027.036.027.035.027.035.027.036.027.035.026.035.027.036.027.035.026.036.027.035.026.035.026.036.027.035.026.035.026.036.027.035.026.035.026.036.026.035.026.035.026.036.026.07.051.036.026.035.026.035.025.036.026.035.025.036.025.035.025.035.026.036.025.035.025.035.025.036.025.035.024.035.025.036.025.035.024.035.025.036.024.07.049.036.024.035.024.036.024.035.024.035.023.036.024.035.024.035.023.036.024.035.023.035.023.036.023.035.023.035.023.036.023.035.022.036.023.035.022.035.023.036.022.035.022.035.022.036.022.035.022.035.022.036.021.035.022.035.021.036.021.07.043.036.02.035.021.035.02.036.021.035.02.036.02.035.021.035.02.036.02.035.02.035.02.036.019.035.02.035.019.036.019.035.019.035.018.036.02.035.018.035.018.036.018.035.019.036.018.035.017.035.018.036.018.035.017.035.018.036.017.035.017.035.017.036.016.035.017.035.016.036.017.035.016.036.016.035.016.035.015.036.016.035.015.035.015.036.016.035.014" transform="matrix(28.34646 0 0 -28.34646 1 256.118)"/><path style="fill:none;stroke-width:.05;stroke-linecap:butt;stroke-linejoin:miter;stroke:#e69142;stroke-opacity:1;stroke-miterlimit:10" d="m1.1 6.894.035.023.036.023.035.023.07.045.036.023.036.022.035.023.035.022.036.022.035.022.035.022.036.022.035.021.07.043.036.022.035.02.036.022.035.02.035.022.036.02.035.021.071.041.035.02.036.02.035.02.035.02.036.02.035.02.035.019.036.02.035.018.035.02.036.019.035.018.036.019.035.019.035.018.036.018.035.018.035.018.036.018.035.018.035.017.036.018.035.017.035.017.036.017.035.017.035.017.036.016.035.017.07.032.036.016.036.016.035.015.035.016.036.015.035.015.035.015.036.015.035.015.035.015.036.014.035.014.035.014.036.014.035.014.035.014.036.013.035.013.036.014.035.013.035.012.036.013.035.012.035.013.036.012.035.012.035.012.036.011.035.012.035.011.036.011.07.022.036.01.035.011.036.01.035.01.035.01.036.01.035.01.035.01.036.008.035.01.035.008.036.01.035.008.035.008.036.008.035.008.036.008.035.008.035.007.036.008.035.007.035.007.036.006.035.007.035.006.036.007.035.006.035.006.036.005.035.006.036.005.035.005.035.005.035.005.036.005.035.004.036.004.035.004.035.004.036.004.035.003.035.004.036.003.035.003.035.003.036.002.035.003.035.002.036.002.035.002.036.001.035.002.035.001.036.001.035.001h.035l.036.001h.035l.035.001H6.438l.036-.001h.035l.035-.002.036-.001.035-.001.036-.002.035-.001.035-.002.036-.002.035-.002.035-.003.036-.002.035-.003.035-.003.036-.003.035-.004.035-.003.036-.004.035-.004.036-.004.035-.004.035-.004.036-.005.035-.005.035-.005.036-.005.035-.005.035-.006.036-.005.035-.006.035-.006.036-.007.035-.006.035-.007.036-.006.035-.007.036-.007.035-.008.07-.015.036-.008.035-.008.036-.008.035-.008.035-.009.036-.009.035-.008.035-.01.036-.009.07-.019.036-.01.035-.01.035-.01.036-.01.035-.01.036-.011.035-.01.035-.012.036-.01.035-.012.035-.012.036-.011.035-.012.035-.012.036-.012.035-.013.035-.012.036-.013.035-.012.036-.013.035-.014.035-.013.036-.013.035-.014.035-.014.036-.014.035-.014.035-.014.036-.014.035-.015.035-.015.036-.015.035-.015.035-.015.036-.015.035-.016.036-.015.035-.016.035-.016.036-.016.035-.016.035-.017.036-.016.035-.017.035-.017.036-.017.035-.017.035-.017.036-.018.035-.017.036-.018.035-.018.035-.018.035-.018.036-.018.035-.018.036-.019.035-.019.035-.018.036-.02.07-.038.036-.019.035-.02.035-.02.036-.019.035-.02.035-.02.036-.02.035-.02.035-.02.036-.02.035-.021.036-.021.035-.021.035-.021.036-.021.035-.021.035-.022.036-.021.035-.022.035-.021.036-.022.035-.022.035-.022.036-.022.035-.022.036-.023.035-.022.035-.023.036-.022.035-.023.035-.023.036-.023.035-.023" transform="matrix(28.34646 0 0 -28.34646 1 256.118)"/></svg>