<svg xmlns="http://www.w3.org/2000/svg" width="456.21" height="342.824" viewBox="0 0 342.157 257.118"><path style="fill:none;stroke-width:.02;stroke-linecap:butt;stroke-linejoin:miter;stroke:#000;stroke-opacity:1;stroke-miterlimit:10" d="M.994 1.777h.15M.994 2.943h.15M.994 4.108h.15M.994 5.273h.15M.994 6.438h.15M.994 7.604h.15" transform="matrix(28.34646 0 0 -28.34646 1 256.118)"/><path style="fill:none;stroke-width:.02;stroke-linecap:round;stroke-linejoin:miter;stroke:#000;stroke-opacity:1;stroke-miterlimit:10" d="M.994.612v8.157" transform="matrix(28.34646 0 0 -28.34646 1 256.118)"/><path style="stroke:none;fill-rule:nonzero;fill:#000;fill-opacity:1" d="M6.941 239.684v.632H3.973v-.632Zm0 0ZM10.637 234.852c1.078.082 1.793 1.066 1.984 2.066.102.453.125.883.172 1.336v1.156c-.059 1.18-.34 2.735-1.621 3.211-1.113.441-2.418-.25-2.746-1.387-.25-.597-.27-1.21-.328-1.824v-1.156c.058-1.18.304-2.742 1.578-3.266l.054-.023.047-.012.055-.02.172-.046.101-.024h.125l.024-.011Zm0 0Zm-.352.691c-.953.113-1.234 1.262-1.305 2.031v.305l-.02.023v1.578c.067.817.126 1.868.872 2.415.691.476 1.61-.06 1.805-.793.203-.547.25-1.079.293-1.622v-1.578c-.067-.828-.18-1.984-1.133-2.312l-.078-.024-.024-.023h-.101l-.024-.02h-.261Zm0 0ZM15.32 241.586v.91h-.918v-.91Zm0 0ZM20.617 235.09v4.773l.02.024h1.125v.68h-1.125l-.02.011v1.918h-.863v-1.918l-.024-.012h-2.992v-.703c.953-1.586 1.907-3.183 2.856-4.773Zm0 0Zm-.84.433c-.226 1.176-.953 2.188-1.496 3.22-.215.374-.5.78-.66 1.144h2.18l.012-.024v-4.34l-.012-.023Zm0 0ZM6.941 206.652v.633H3.973v-.633Zm0 0ZM10.637 201.82c1.078.078 1.793 1.067 1.984 2.063.102.457.125.887.172 1.34v1.156c-.059 1.18-.34 2.734-1.621 3.207-1.113.445-2.418-.246-2.746-1.383-.25-.598-.27-1.21-.328-1.824v-1.156c.058-1.18.304-2.746 1.578-3.266l.054-.023.047-.012.055-.024.172-.043.101-.023h.125l.024-.012Zm0 0Zm-.352.692c-.953.113-1.234 1.258-1.305 2.031v.305l-.02.023v1.574c.067.817.126 1.871.872 2.418.691.477 1.61-.058 1.805-.793.203-.547.25-1.078.293-1.625v-1.574c-.067-.828-.18-1.984-1.133-2.312l-.078-.024-.024-.023h-.101l-.024-.024h-.261Zm0 0ZM15.32 208.555v.91h-.918v-.91Zm0 0ZM19.324 201.82c1.313.035 2.356 1.383 2.153 2.653-.137 1.27-1.325 1.996-2.176 2.789l-.363.375-.047.023-.453.442-.032.023-.453.453-.047.024-.101.101.023.012H21.5v.75h-4.488v-.684l1.824-1.824c.871-.758 1.894-1.746 1.734-2.992-.09-.727-.703-1.395-1.453-1.453-.758-.114-1.426.488-1.597 1.215l-.024.035-.02.078-.105.375-.008.055c-.16-.192-.332-.395-.457-.614.23-.93.977-1.8 1.965-1.836Zm0 0ZM10.637 168.79c1.078.077 1.793 1.065 1.984 2.062.102.453.125.886.172 1.34v1.156c-.059 1.18-.34 2.73-1.621 3.207-1.113.445-2.418-.25-2.746-1.383-.25-.602-.27-1.211-.328-1.824v-1.157c.058-1.18.304-2.746 1.578-3.265l.054-.024.047-.011.055-.024.172-.043.101-.023h.125l.024-.012Zm0 0Zm-.352.69c-.953.114-1.234 1.258-1.305 2.032v.304l-.02.024v1.574c.067.816.126 1.871.872 2.418.691.473 1.61-.059 1.805-.797.203-.543.25-1.074.293-1.62v-1.575c-.067-.828-.18-1.985-1.133-2.313l-.078-.023-.024-.024h-.101l-.024-.023h-.261Zm0 0ZM15.32 175.523v.907h-.918v-.907Zm0 0ZM19.45 168.79c1.073.077 1.788 1.065 1.984 2.062.101.453.125.886.168 1.34v1.156c-.055 1.18-.34 2.73-1.622 3.207-1.109.445-2.414-.25-2.742-1.383-.25-.602-.273-1.211-.332-1.824v-1.157c.059-1.18.309-2.746 1.578-3.265l.055-.024.047-.011.059-.024.168-.043.101-.023h.125l.023-.012Zm0 0Zm-.352.69c-.953.114-1.239 1.258-1.305 2.032v.304l-.023.024v1.574c.066.816.125 1.871.875 2.418.69.473 1.609-.059 1.8-.797.203-.543.25-1.074.297-1.62v-1.575c-.07-.828-.183-1.985-1.137-2.313l-.078-.023-.023-.024h-.102l-.023-.023h-.262Zm0 0ZM10.637 135.758c1.078.078 1.793 1.066 1.984 2.062.102.453.125.887.172 1.34v1.156c-.059 1.18-.34 2.73-1.621 3.207-1.113.442-2.418-.25-2.746-1.382-.25-.602-.27-1.211-.328-1.825v-1.156c.058-1.18.304-2.746 1.578-3.265l.054-.024.047-.012.055-.023.172-.043.101-.023h.125l.024-.012Zm0 0Zm-.352.691c-.953.113-1.234 1.258-1.305 2.031v.305l-.02.024v1.574c.067.816.126 1.87.872 2.414.691.476 1.61-.055 1.805-.793.203-.543.25-1.074.293-1.621v-1.574c-.067-.829-.18-1.985-1.133-2.313l-.078-.023-.024-.024h-.101l-.024-.023h-.261Zm0 0ZM15.32 142.492v.906h-.918v-.906Zm0 0ZM19.324 135.758c1.313.035 2.356 1.383 2.153 2.652-.137 1.27-1.325 1.996-2.176 2.79l-.363.374-.047.024-.453.441-.032.024-.453.453-.047.023-.101.102.023.011H21.5v.746h-4.488v-.68l1.824-1.823c.871-.762 1.894-1.747 1.734-2.993-.09-.726-.703-1.398-1.453-1.453-.758-.113-1.426.488-1.597 1.215l-.024.031-.02.082-.035.125-.07.246-.008.059a4.63 4.63 0 0 1-.457-.613c.23-.93.977-1.801 1.965-1.836Zm0 0ZM10.637 102.727c1.078.078 1.793 1.066 1.984 2.062.102.453.125.883.172 1.34v1.156c-.059 1.18-.34 2.73-1.621 3.207-1.113.442-2.418-.25-2.746-1.383-.25-.601-.27-1.214-.328-1.824v-1.156c.058-1.18.304-2.746 1.578-3.266l.054-.023.047-.012.055-.023.172-.047.101-.02h.125l.024-.011Zm0 0Zm-.352.691c-.953.113-1.234 1.258-1.305 2.027v.309l-.02.023v1.575c.067.816.126 1.87.872 2.414.691.476 1.61-.055 1.805-.793.203-.543.25-1.078.293-1.621v-1.575c-.067-.828-.18-1.984-1.133-2.316l-.078-.02-.024-.023h-.101l-.024-.023h-.261Zm0 0ZM15.32 109.46v.907h-.918v-.906Zm0 0ZM20.617 102.965v4.773l.02.024h1.125v.68h-1.125l-.02.011v1.914h-.863v-1.914l-.024-.012h-2.992v-.703c.953-1.59 1.907-3.187 2.856-4.773Zm0 0Zm-.84.43c-.226 1.18-.953 2.187-1.496 3.218-.215.375-.5.785-.66 1.149h2.18l.012-.024v-4.343l-.012-.024Zm0 0ZM10.637 69.695c1.078.078 1.793 1.067 1.984 2.063.102.453.125.883.172 1.336v1.16c-.059 1.176-.34 2.73-1.621 3.207-1.113.441-2.418-.25-2.746-1.383-.25-.601-.27-1.215-.328-1.824v-1.16c.058-1.176.304-2.742 1.578-3.266l.054-.02.047-.011.055-.024.172-.046.101-.02h.125l.024-.012Zm0 0Zm-.352.692c-.953.113-1.234 1.258-1.305 2.027v.309l-.02.02v1.577c.067.817.126 1.871.872 2.414.691.477 1.61-.054 1.805-.793.203-.543.25-1.078.293-1.62v-1.579c-.067-.824-.18-1.98-1.133-2.312l-.078-.02-.024-.023h-.101l-.024-.024h-.261Zm0 0ZM15.32 76.43v.906h-.918v-.906Zm0 0ZM20.184 69.695c.296.043.636.078.918.215v.656c-.782-.34-1.801-.386-2.415.309-.542.578-.792 1.438-.816 2.2.66-.876 2.145-1.364 2.95-.454.804.93.94 2.266.577 3.399-.398.91-1.316 1.734-2.335 1.543-1.383-.114-2.008-1.657-2.075-2.836-.261-1.665.137-3.762 1.723-4.715l.023-.012.239-.125.066-.023.035-.024.192-.055.16-.046.101-.02h.125l.024-.012Zm0 0Zm-1.11 3.153c-.988.168-1.304 1.359-1.18 2.164.06.758.352 1.77 1.223 1.925.93.126 1.531-.87 1.555-1.675.047-.817 0-1.746-.715-2.282l-.156-.078-.125-.035-.102-.02-.023-.023h-.453Zm0 0ZM10.637 36.664c1.078.078 1.793 1.063 1.984 2.063.102.453.125.882.172 1.336v1.156c-.059 1.18-.34 2.734-1.621 3.21-1.113.442-2.418-.25-2.746-1.382-.25-.602-.27-1.215-.328-1.828v-1.157c.058-1.18.304-2.742 1.578-3.265l.054-.02.047-.011.055-.024.172-.047.101-.023h.125l.024-.008Zm0 0Zm-.352.691c-.953.114-1.234 1.258-1.305 2.028v.308l-.02.02v1.578c.067.816.126 1.871.872 2.414.691.477 1.61-.055 1.805-.793.203-.543.25-1.078.293-1.62v-1.58c-.067-.827-.18-1.983-1.133-2.312l-.078-.023-.024-.02h-.101l-.024-.023h-.261Zm0 0ZM15.32 43.398v.907h-.918v-.907Zm0 0ZM19.469 36.664c1.203.043 2.336 1.336 1.863 2.54-.207.554-.773.894-1.238 1.132 1.156.34 1.86 1.691 1.34 2.8-.547 1.442-2.61 1.895-3.743.852-1.03-.816-1.066-2.586.079-3.312.171-.18.488-.239.636-.375-.988-.281-1.656-1.426-1.191-2.39.375-.864 1.336-1.34 2.254-1.247Zm0 0Zm-.43.645c-.84.023-1.43.976-1.144 1.722.328 1.293 2.496 1.246 2.742-.078.226-.738-.36-1.621-1.168-1.644l-.02-.012h-.387Zm0 0Zm.023 3.367c-.988.07-1.472 1.246-1.214 2.086.172 1.191 1.87 1.543 2.543.59.644-.872.328-2.438-.84-2.676h-.102l-.023-.024h-.352Zm0 0ZM10.988 3.629v6.996l.012.023h1.395v.625H8.71v-.625h1.394l.024-.023V4.754c-.477.156-.977.262-1.477.25v-.637c.75.012 1.567-.191 2.133-.738Zm0 0ZM15.32 10.367v.906h-.918v-.906Zm0 0ZM19.45 3.629c1.073.082 1.788 1.066 1.984 2.066.101.453.125.883.168 1.336v1.157c-.055 1.18-.34 2.734-1.622 3.21-1.109.442-2.414-.25-2.742-1.382-.25-.602-.273-1.215-.332-1.829V7.032c.059-1.18.309-2.742 1.578-3.265l.055-.024.047-.008.059-.023.168-.047.101-.023h.125l.023-.012Zm0 0Zm-.352.691c-.953.117-1.239 1.262-1.305 2.032v.304l-.023.024v1.578c.066.816.125 1.87.875 2.414.69.476 1.609-.059 1.8-.793.203-.547.25-1.078.297-1.621V6.68c-.07-.828-.183-1.985-1.137-2.313l-.078-.023-.023-.024h-.102l-.023-.02h-.262Zm0 0Zm0 0"/><path style="fill:none;stroke-width:.02;stroke-linecap:butt;stroke-linejoin:miter;stroke:#000;stroke-opacity:1;stroke-miterlimit:10" d="M11.645 1.777h-.15M11.645 2.943h-.15M11.645 4.108h-.15M11.645 5.273h-.15M11.645 6.438h-.15M11.645 7.604h-.15" transform="matrix(28.34646 0 0 -28.34646 1 256.118)"/><path style="fill:none;stroke-width:.02;stroke-linecap:round;stroke-linejoin:miter;stroke:#000;stroke-opacity:1;stroke-miterlimit:10" d="M11.645.612v8.157" transform="matrix(28.34646 0 0 -28.34646 1 256.118)"/><path style="fill:none;stroke-width:.02;stroke-linecap:butt;stroke-linejoin:miter;stroke:#000;stroke-opacity:1;stroke-miterlimit:10" d="M2.325.612v.15M3.657.612v.15M4.988.612v.15M6.32.612v.15M7.65.612v.15M8.982.612v.15M10.313.612v.15" transform="matrix(28.34646 0 0 -28.34646 1 256.118)"/><path style="fill:none;stroke-width:.02;stroke-linecap:round;stroke-linejoin:miter;stroke:#000;stroke-opacity:1;stroke-miterlimit:10" d="M.994.612h10.65" transform="matrix(28.34646 0 0 -28.34646 1 256.118)"/><path style="stroke:none;fill-rule:nonzero;fill:#000;fill-opacity:1" d="M23.156 250.484v.633h-2.972v-.633Zm0 0ZM26.727 245.652c1.316.036 2.359 1.383 2.156 2.653-.137 1.27-1.328 1.996-2.18 2.789l-.363.375-.043.023-.453.442-.035.023-.454.453-.046.024-.102.101.023.012h3.672v.746h-4.488v-.68l1.824-1.824c.875-.762 1.895-1.746 1.735-2.992-.09-.727-.7-1.395-1.45-1.453-.761-.114-1.43.488-1.597 1.215l-.024.03-.023.083-.035.125-.067.25-.011.055a4.6 4.6 0 0 1-.453-.614c.226-.93.976-1.8 1.96-1.836Zm0 0ZM31.535 252.387v.906h-.918v-.906Zm0 0ZM35.66 245.652c1.078.078 1.793 1.067 1.985 2.063.105.453.125.887.171 1.34v1.156c-.058 1.18-.34 2.73-1.62 3.207-1.114.445-2.415-.246-2.747-1.383-.246-.601-.27-1.21-.328-1.824v-1.156c.059-1.18.309-2.746 1.578-3.266l.055-.023.047-.012.054-.024.172-.042.102-.024h.125l.023-.012Zm0 0Zm-.347.692c-.954.113-1.239 1.258-1.305 2.031v.305l-.024.023v1.574c.067.817.125 1.871.871 2.418.692.477 1.614-.058 1.805-.797.203-.543.25-1.074.293-1.62v-1.575c-.066-.828-.18-1.984-1.133-2.312l-.078-.024-.023-.023h-.102l-.023-.024h-.262Zm0 0ZM60.895 250.484v.633h-2.973v-.633Zm0 0ZM64.941 245.652v6.996l.012.024h1.395v.621h-3.684v-.621h1.395l.023-.024v-5.875c-.477.16-.977.262-1.477.25v-.632c.75.011 1.567-.196 2.133-.739Zm0 0ZM69.273 252.387v.906h-.918v-.906Zm0 0ZM75.078 245.89v.704h-2.95l-.019.011v2.325c.27-.184.657-.418 1.02-.43 1.281-.137 2.266 1.121 2.324 2.29.18 1.483-1.215 2.96-2.71 2.733-.747-.023-1.473-.464-1.907-1.078.125-.172.23-.465.375-.566.535 1.043 2.258 1.46 2.95.363.44-.828.429-1.883-.079-2.68-.59-.757-1.758-.292-2.031.512h-.739v-4.183Zm0 0ZM98.633 250.484v.633H95.66v-.633Zm0 0ZM102.68 245.652v6.996l.011.024h1.395v.621h-3.684v-.621h1.395l.023-.024v-5.875c-.476.16-.976.262-1.476.25v-.632c.75.011 1.566-.196 2.133-.739Zm0 0ZM107.012 252.387v.906h-.918v-.906Zm0 0ZM111.14 245.652c1.075.078 1.79 1.067 1.981 2.063.106.453.125.887.172 1.34v1.156c-.055 1.18-.34 2.73-1.621 3.207-1.113.445-2.414-.246-2.746-1.383-.246-.601-.27-1.21-.328-1.824v-1.156c.058-1.18.308-2.746 1.578-3.266l.054-.023.047-.012.055-.024.172-.042.101-.024h.125l.024-.012Zm0 0Zm-.35.692c-.954.113-1.24 1.258-1.306 2.031v.305l-.023.023v1.574c.066.817.125 1.871.871 2.418.691.477 1.613-.058 1.805-.797.203-.543.25-1.074.293-1.62v-1.575c-.067-.828-.18-1.984-1.133-2.312l-.078-.024-.024-.023h-.101l-.024-.024h-.261Zm0 0ZM136.371 250.484v.633h-2.973v-.633Zm0 0ZM140.066 245.652c1.079.078 1.793 1.067 1.985 2.063.101.453.125.887.172 1.34v1.156c-.059 1.18-.34 2.73-1.621 3.207-1.114.445-2.418-.246-2.747-1.383-.25-.601-.273-1.21-.328-1.824v-1.156c.055-1.18.305-2.746 1.575-3.266l.058-.023.047-.012.055-.024.172-.042.101-.024h.125l.02-.012Zm0 0Zm-.351.692c-.953.113-1.235 1.258-1.305 2.031v.305l-.02.023v1.574c.067.817.122 1.871.872 2.418.691.477 1.61-.058 1.804-.797.204-.543.246-1.074.293-1.62v-1.575c-.066-.828-.18-1.984-1.132-2.312l-.082-.024-.02-.023h-.102l-.023-.024h-.262Zm0 0ZM144.75 252.387v.906h-.918v-.906Zm0 0ZM150.555 245.89v.704h-2.95l-.02.011v2.325c.27-.184.657-.418 1.02-.43 1.282-.137 2.266 1.121 2.325 2.29.18 1.483-1.215 2.96-2.711 2.733-.746-.023-1.473-.464-1.903-1.078.121-.172.227-.465.371-.566.536 1.043 2.258 1.46 2.95.363.441-.828.43-1.883-.078-2.68-.59-.757-1.758-.292-2.032.512h-.738v-4.183Zm0 0ZM175.918 245.652c1.078.078 1.789 1.067 1.984 2.063.102.453.125.887.168 1.34v1.156c-.054 1.18-.34 2.73-1.62 3.207-1.11.445-2.415-.246-2.743-1.383-.25-.601-.273-1.21-.328-1.824v-1.156c.055-1.18.305-2.746 1.574-3.266l.059-.023.043-.012.058-.024.168-.042.102-.024h.125l.023-.012Zm0 0Zm-.352.692c-.953.113-1.234 1.258-1.304 2.031v.305l-.024.023v1.574c.07.817.125 1.871.875 2.418.692.477 1.61-.058 1.801-.797.207-.543.25-1.074.297-1.62v-1.575c-.07-.828-.184-1.984-1.133-2.312l-.082-.024-.023-.023h-.102l-.023-.024h-.258Zm0 0ZM180.602 252.387v.906h-.918v-.906Zm0 0ZM184.727 245.652c1.078.078 1.793 1.067 1.984 2.063.101.453.125.887.172 1.34v1.156c-.059 1.18-.34 2.73-1.621 3.207-1.114.445-2.418-.246-2.746-1.383-.25-.601-.27-1.21-.328-1.824v-1.156c.058-1.18.304-2.746 1.578-3.266l.054-.023.047-.012.055-.024.172-.042.101-.024h.125l.024-.012Zm0 0Zm-.352.692c-.953.113-1.234 1.258-1.305 2.031v.305l-.02.023v1.574c.067.817.126 1.871.872 2.418.691.477 1.61-.058 1.805-.797.203-.543.25-1.074.293-1.62v-1.575c-.067-.828-.18-1.984-1.133-2.312l-.078-.024-.024-.023h-.101l-.024-.024h-.262Zm0 0ZM213.656 245.652c1.078.078 1.793 1.067 1.985 2.063.101.453.125.887.168 1.34v1.156c-.055 1.18-.34 2.73-1.621 3.207-1.11.445-2.415-.246-2.743-1.383-.25-.601-.273-1.21-.328-1.824v-1.156c.055-1.18.305-2.746 1.574-3.266l.059-.023.043-.012.059-.024.168-.042.101-.024h.125l.024-.012Zm0 0Zm-.351.692c-.953.113-1.235 1.258-1.305 2.031v.305l-.023.023v1.574c.07.817.125 1.871.875 2.418.691.477 1.609-.058 1.8-.797.207-.543.25-1.074.297-1.62v-1.575c-.07-.828-.183-1.984-1.133-2.312l-.082-.024-.023-.023h-.102l-.023-.024h-.258Zm0 0ZM218.34 252.387v.906h-.918v-.906Zm0 0ZM224.145 245.89v.704h-2.95l-.023.011v2.325c.273-.184.66-.418 1.023-.43 1.282-.137 2.266 1.121 2.325 2.29.18 1.483-1.215 2.96-2.711 2.733-.75-.023-1.473-.464-1.907-1.078.125-.172.227-.465.375-.566.532 1.043 2.258 1.46 2.95.363.441-.828.43-1.883-.082-2.68-.59-.757-1.754-.292-2.028.512h-.738v-4.183Zm0 0ZM251.746 245.652v6.996l.012.024h1.394v.621h-3.687v-.621h1.394l.024-.024v-5.875c-.477.16-.973.262-1.473.25v-.632c.75.011 1.567-.196 2.133-.739Zm0 0ZM256.078 252.387v.906h-.918v-.906Zm0 0ZM260.203 245.652c1.078.078 1.793 1.067 1.985 2.063.101.453.125.887.171 1.34v1.156c-.058 1.18-.34 2.73-1.62 3.207-1.114.445-2.419-.246-2.747-1.383-.25-.601-.27-1.21-.328-1.824v-1.156c.059-1.18.305-2.746 1.578-3.266l.055-.023.047-.012.054-.024.172-.042.102-.024h.125l.023-.012Zm0 0Zm-.351.692c-.954.113-1.235 1.258-1.305 2.031v.305l-.02.023v1.574c.067.817.125 1.871.871 2.418.692.477 1.61-.058 1.805-.797.203-.543.25-1.074.293-1.62v-1.575c-.066-.828-.18-1.984-1.133-2.312l-.078-.024-.023-.023h-.102l-.023-.024h-.262Zm0 0ZM289.484 245.652v6.996l.012.024h1.395v.621h-3.688v-.621h1.395l.023-.024v-5.875c-.476.16-.973.262-1.473.25v-.632c.75.011 1.567-.196 2.133-.739Zm0 0ZM293.816 252.387v.906h-.918v-.906Zm0 0ZM299.621 245.89v.704h-2.95l-.023.011v2.325c.274-.184.66-.418 1.024-.43 1.281-.137 2.265 1.121 2.324 2.29.18 1.483-1.215 2.96-2.71 2.733-.75-.023-1.474-.464-1.907-1.078.125-.172.226-.465.375-.566.535 1.043 2.258 1.46 2.95.363.44-.828.429-1.883-.083-2.68-.586-.757-1.754-.292-2.027.512h-.739v-4.183Zm0 0ZM326.746 245.652c1.317.036 2.36 1.383 2.156 2.653-.136 1.27-1.328 1.996-2.18 2.789l-.363.375-.043.023-.453.442-.035.023-.453.453-.047.024-.101.101.023.012h3.672v.746h-4.488v-.68l1.824-1.824c.875-.762 1.894-1.746 1.734-2.992-.09-.727-.703-1.395-1.449-1.453-.762-.114-1.43.488-1.602 1.215l-.02.03-.023.083-.035.125-.066.25-.012.055a4.6 4.6 0 0 1-.453-.614c.227-.93.973-1.8 1.961-1.836Zm0 0ZM331.555 252.387v.906h-.918v-.906Zm0 0ZM335.68 245.652c1.078.078 1.793 1.067 1.984 2.063.102.453.125.887.172 1.34v1.156c-.059 1.18-.34 2.73-1.621 3.207-1.113.445-2.418-.246-2.746-1.383-.25-.601-.27-1.21-.328-1.824v-1.156c.058-1.18.304-2.746 1.578-3.266l.054-.023.047-.012.055-.024.172-.042.101-.024h.125l.024-.012Zm0 0Zm-.352.692c-.95.113-1.234 1.258-1.3 2.031v.305l-.024.023v1.574c.066.817.125 1.871.871 2.418.691.477 1.61-.058 1.805-.797.203-.543.25-1.074.293-1.62v-1.575c-.067-.828-.18-1.984-1.133-2.312l-.078-.024-.024-.023h-.101l-.024-.024h-.261Zm0 0Zm0 0"/><path style="fill:none;stroke-width:.02;stroke-linecap:butt;stroke-linejoin:miter;stroke:#000;stroke-opacity:1;stroke-miterlimit:10" d="M2.325 8.769v-.15M3.657 8.769v-.15M4.988 8.769v-.15M6.32 8.769v-.15M7.65 8.769v-.15M8.982 8.769v-.15M10.313 8.769v-.15" transform="matrix(28.34646 0 0 -28.34646 1 256.118)"/><path style="fill:none;stroke-width:.02;stroke-linecap:round;stroke-linejoin:miter;stroke:#000;stroke-opacity:1;stroke-miterlimit:10" d="M.994 8.769h10.65" transform="matrix(28.34646 0 0 -28.34646 1 256.118)"/><path style="fill:none;stroke-width:.001;stroke-linecap:butt;stroke-linejoin:miter;stroke:#5478a3;stroke-opacity:1;stroke-miterlimit:10" d="m.994 2.943.036-.04.036-.04.036-.04.035-.041.036-.04.036-.042.036-.041.036-.042.072-.083.036-.04.035-.042.036-.04.036-.041.036-.04.036-.04.036-.038.035-.039.036-.037.036-.037.036-.036.036-.035.036-.033.036-.033.036-.032.035-.03.036-.03.036-.027.036-.026.036-.025.036-.023.035-.022.036-.02.036-.018.036-.016.036-.014.036-.012.036-.01.036-.009.035-.006.036-.004.036-.002h.036l.036.003.036.005.036.008.035.01.036.012.036.015.036.017.036.02.036.022.036.025.036.027.035.03.036.033.036.035.036.038.036.04.036.043.035.046.036.048.036.05.036.054.036.055.036.059.036.06.036.063.035.066.036.068.036.07.036.072.036.075.036.077.035.079.036.081.036.083.036.085.036.087.036.089.036.09.036.093.035.093.036.096.036.096.036.098.036.1.036.1.036.102.035.103.036.103.036.105.036.105.036.106.036.106.036.107.035.107.036.107.072.215.036.108.036.107.036.107.036.107.035.106.036.105.036.105.036.104.036.103.036.102.036.101.035.1.036.098.036.097.036.096.036.094.036.092.036.09.035.089.036.086.036.085.036.082.036.08.036.077.036.075.035.073.036.07.036.067.036.065.036.062.036.059.036.056.036.053.035.05.036.047.036.044.036.04.036.038.036.034.035.031.036.028.036.024.036.02.036.018.036.014.036.01.036.007.035.004h.036l.036-.004.036-.007.036-.01.036-.014.035-.017.036-.021.036-.024.036-.028.036-.03.036-.035.036-.037.036-.04.035-.045.036-.047.036-.05.036-.053.036-.056.036-.059.036-.062.035-.065.036-.067.036-.07.036-.073.036-.075.036-.077.036-.08.036-.082.035-.085.036-.086.036-.089.036-.09.036-.092.036-.094.035-.096.036-.097.036-.098.036-.1.036-.1.036-.103.036-.103.036-.104.035-.105.036-.105.036-.106.036-.107.036-.107.036-.107.035-.108.036-.107.072-.215.036-.107.036-.107.036-.106.036-.106.035-.105.036-.105.036-.103.036-.103.036-.102.036-.1.036-.1.035-.098.036-.096.036-.096.036-.093.036-.093.036-.09.036-.089.035-.087.036-.085.036-.083.036-.081.036-.079.036-.077.036-.075.035-.072.036-.07.036-.068.036-.066.036-.063.036-.06.036-.059.036-.055.035-.053.036-.051.036-.048.036-.046.036-.043.036-.04.036-.038.035-.035.036-.033.036-.03.036-.027.036-.025.036-.022.036-.02.035-.017.036-.015.036-.012.036-.01.036-.008.036-.005.036-.003h.036l.035.002.036.004.036.006.036.008.036.01.036.013.035.014.036.016.036.018.036.02.036.022.036.023.036.025.036.026.035.028.036.029.036.03.036.032.036.033.036.033.035.035.036.036.036.037.036.037.036.039.036.038.036.04.036.04.035.04.036.041.036.041.036.041.072.083.036.042.035.04.036.042.036.041.036.04.036.041.036.04.036.04" transform="matrix(28.34646 0 0 -28.34646 1 256.118)"/><path style="fill:none;stroke-width:.01;stroke-linecap:butt;stroke-linejoin:miter;stroke:#e69142;stroke-opacity:1;stroke-miterlimit:10" d="m.994 2.943.036-.04.036-.04.036-.04.035-.038.036-.04.036-.037.036-.037.036-.035.036-.034.036-.032.036-.029.035-.027.036-.025.036-.02.036-.019.036-.015.036-.011.035-.008.036-.005h.036l.036.003.036.007.036.011.036.015.036.019.035.022.036.026.036.03.036.033.036.036.036.04.035.041.036.045.036.047.036.048.036.05.036.053.036.052.036.053.035.053.036.054.036.053.036.052.036.05.036.05.036.047.035.045.036.042.036.039.036.035.036.032.036.028.036.023.036.019.035.014.036.009.036.003.036-.001.036-.007.036-.013.035-.018.036-.023.036-.03.036-.034.036-.04.036-.045.036-.05.036-.055.035-.06.036-.063.036-.067.036-.071.036-.074.036-.076.035-.08.036-.081.072-.164.036-.082.036-.083.036-.082.036-.08.035-.077.036-.076.036-.072.036-.067.036-.063.036-.059.036-.052.035-.046.036-.04.036-.032.036-.025.036-.017.036-.007h.036l.035.01.036.02.036.03.036.04.036.05.036.06.036.07.036.08.035.092.036.1.036.112.036.122.036.13.036.14.036.15.035.158.036.166.036.174.036.182.036.186.036.194.036.2.035.202.036.207.036.212.036.212.036.214.036.214.036.215.035.214.036.212.036.21.036.206.036.203.036.196.036.191.036.185.035.176.036.169.036.16.036.15.036.14.036.13.035.117.036.107.036.094.036.08.036.07.036.054.036.042.036.027.035.014h.036l.036-.014.036-.027.036-.042.036-.055.035-.068.036-.08.036-.095.036-.107.036-.117.036-.13.036-.14.036-.15.035-.16.036-.17.036-.175.036-.185.036-.191.036-.196.036-.203.035-.207.036-.209.036-.212.036-.214.036-.215.036-.214.036-.214.036-.212.035-.212.036-.207.036-.203.036-.199.036-.194.036-.186.035-.182.036-.174.036-.166.036-.158.036-.15.036-.14.036-.13.036-.122.035-.111.036-.101.036-.092.036-.08.036-.07.036-.06.035-.05.036-.04.036-.03.036-.02.036-.01h.036l.036.007.036.017.035.025.036.032.036.04.036.046.036.052.036.059.036.063.035.067.036.072.036.076.036.077.036.08.107.247.036.082.036.082.036.081.036.08.036.076.036.074.035.071.036.067.036.064.036.06.036.054.036.05.036.045.036.04.035.035.036.029.036.023.036.018.036.013.036.007.036.001.035-.003.036-.01.036-.013.036-.02.036-.022.036-.028.036-.032.035-.035.036-.04.036-.041.036-.045.036-.047.036-.05.036-.05.036-.052.035-.053.036-.054.036-.053.036-.053.036-.052.036-.053.035-.05.036-.048.036-.047.036-.045.036-.042.036-.039.036-.036.036-.033.035-.03.036-.026.036-.022.036-.019.036-.015.036-.01.035-.008.036-.003h.036l.036.005.036.008.036.01.036.016.036.018.035.021.036.025.036.027.036.03.036.03.036.035.036.035.035.037.036.038.036.039.036.039.036.04.036.039.036.04" transform="matrix(28.34646 0 0 -28.34646 1 256.118)"/><path style="fill:none;stroke-width:.05;stroke-linecap:butt;stroke-linejoin:miter;stroke:#d15e5c;stroke-opacity:1;stroke-miterlimit:10" d="m.994 2.943.036-.04.036-.04.036-.038.035-.036.036-.035.036-.034.036-.03.036-.025.036-.022.036-.017.036-.012.035-.007.036-.002.036.003.036.01.036.014.036.02.035.025.036.03.036.032.036.039.036.041.036.043.036.046.036.047.035.047.036.047.036.046.036.044.036.043.036.04.035.034.036.03.036.027.036.02.036.013.036.009h.036l.036-.005.035-.012.036-.019.036-.025.036-.032.036-.036.036-.044.036-.047.035-.05.036-.056.036-.058.036-.059.036-.058.036-.059.036-.057.036-.058.035-.054.036-.048.036-.044.036-.04.036-.03.036-.026.035-.017.036-.01h.036l.036.008.036.016.036.026.036.033.036.041.035.05.036.057.036.062.036.07.036.074.036.076.035.078.036.08.036.08.036.079.036.076.036.07.036.07.036.061.035.052.036.045.036.036.036.024.036.013.036.002.036-.01.035-.024.036-.035.036-.047.036-.06.036-.072.036-.081.036-.094.035-.101.036-.108.036-.115.036-.123.036-.122.036-.122.036-.121.036-.12.035-.12.036-.112.036-.099.036-.092.036-.08.036-.063.036-.049.035-.032.036-.01.036.007.036.029.036.052.036.075.036.097.035.121.036.146.036.166.036.189.036.211.036.232.036.246.035.268.036.283.036.29.036.308.036.317.036.318.036.319.036.319.035.318.036.32.036.307.036.292.036.283.036.267.035.243.036.227.036.204.036.175.036.15.036.124.036.09.036.063.035.032h.036l.036-.032.036-.062.036-.091.036-.124.035-.15.036-.175.036-.204.036-.227.036-.243.036-.267.036-.283.036-.292.035-.308.036-.319.036-.318.036-.32.036-.318.036-.318.036-.317.035-.307.036-.291.036-.283.036-.268.036-.246.036-.232.036-.211.036-.189.035-.166.036-.146.036-.12.036-.098.036-.075.036-.052.035-.029.036-.008.036.01.036.033.036.05.036.061.036.08.036.093.035.099.036.111.036.12.036.12.036.122.036.122.035.122.036.123.036.115.036.108.036.101.036.094.036.08.036.072.035.061.036.047.036.035.036.024.036.01.036-.002.036-.013.035-.024.036-.036.036-.045.036-.052.036-.061.036-.07.036-.07.035-.076.036-.08.036-.08.036-.079.036-.078.036-.076.036-.075.035-.069.036-.062.036-.056.036-.05.036-.042.036-.033.036-.026.036-.016.035-.008h.036l.036.01.036.017.036.026.036.03.036.04.035.044.036.048.036.054.036.058.036.057.036.059.036.058.035.059.036.058.036.055.036.05.036.048.036.044.036.036.036.032.035.025.036.019.036.012.036.006.036-.001.036-.009.035-.014.036-.02.036-.025.036-.031.036-.034.036-.04.036-.043.036-.044.035-.046.036-.047.036-.047.036-.047.036-.046.036-.043.035-.041.036-.039.036-.033.036-.03.036-.024.036-.02.036-.014.036-.01.035-.003.036.002.036.007.036.012.036.017.036.022.036.025.035.03.036.034.036.035.036.036.036.038.036.04.036.04" transform="matrix(28.34646 0 0 -28.34646 1 256.118)"/><path style="fill:none;stroke-width:.1;stroke-linecap:butt;stroke-linejoin:miter;stroke:#82b3b0;stroke-opacity:1;stroke-miterlimit:10" d="m.994 2.943.036-.041.036-.038.036-.037.035-.033.036-.03.036-.027.036-.02.036-.014.036-.007h.036l.036.006.035.015.036.02.036.026.036.033.036.04.036.04.035.041.036.045.036.045.036.044.036.04.036.037.036.035.036.028.035.02.036.012.036.006.036-.003.036-.012.036-.019.035-.026.036-.035.036-.041.036-.044L2.285 3l.036-.051.036-.053.036-.052.035-.048.036-.047.036-.044.036-.037.036-.028.036-.02.036-.014.035-.002.036.008.036.017.036.025.036.037.036.044.036.049.036.056.035.061.036.063.036.062.036.06.036.058.036.058.035.05.036.04.036.031.036.023.036.01.036-.003.036-.012.036-.024.035-.038.036-.048.036-.054.036-.067.036-.075.036-.076.035-.076.036-.076.036-.077.036-.077.036-.068.036-.057.036-.05.036-.038.035-.021.036-.009.036.006.036.022.036.039.036.051.036.064.035.08.036.094.036.096.036.1.036.105.036.107.036.105.035.097.036.088.036.08.036.067.036.044.036.028.036.01.036-.015.035-.038.036-.057.036-.078.036-.103.036-.12.036-.133.036-.148.035-.162.036-.164.036-.161.036-.158.036-.153.036-.15.036-.13.035-.1.036-.081.036-.053.036-.012.036.02.036.057.036.1.035.143.036.18.036.221.036.266.036.299.036.326.036.367.036.396.035.404.036.414.036.425.036.43.036.427.036.408.035.39.036.376.036.342.036.294.036.26.036.217.036.158.036.11.035.058h.036l.036-.058.036-.11.036-.158.036-.217.035-.26.036-.294.036-.342.036-.377.036-.389.036-.408.036-.426.036-.43.035-.426.036-.414.036-.404.036-.396.036-.367.036-.326.036-.3.035-.265.036-.22.036-.181.036-.143.036-.1.036-.057.036-.02.036.012.035.053.036.081.036.1.036.13.036.15.036.153.035.158.036.161.036.164.036.162.036.148.036.132.036.121.036.103.035.078.036.057.036.038.036.014.036-.01.036-.027.035-.044.036-.066.036-.081.036-.088.036-.097.036-.105.036-.107.036-.105.035-.1.036-.096.036-.093.036-.08.036-.065.036-.051.036-.04.035-.021.036-.006.036.009.036.021.036.039.036.05.036.056.035.068.036.077.036.077.036.076.036.076.036.076.036.075.035.067.036.054.036.048.036.038.036.024.036.012.036.002.036-.01.035-.022.036-.032.036-.039.036-.05.036-.058.036-.059.036-.06.035-.061.036-.063.036-.061.036-.056.036-.049.036-.044.036-.037.035-.025.036-.017.036-.008.036.002.036.013.036.021.036.028.036.037.035.044.036.047.036.048.036.052.036.053.036.051.035.049.036.044.036.041.036.035.036.026.036.019.036.012.036.003.035-.006.036-.013.036-.02.036-.027.036-.035.036-.036.035-.041.036-.044.036-.045.036-.045.036-.042.036-.04.036-.039.036-.033.035-.026.036-.02.036-.015.036-.007.036.001.036.007.036.013.035.021.036.027.036.03.036.033.036.037.036.038.036.04" transform="matrix(28.34646 0 0 -28.34646 1 256.118)"/><path style="fill:none;stroke-width:.02;stroke-linecap:butt;stroke-linejoin:miter;stroke:#6b9e59;stroke-opacity:1;stroke-miterlimit:10" d="M.994 2.943 1.03 2.9l.036-.037.036-.034.035-.03.036-.023.036-.019.036-.01.036-.001.036.009.036.016.036.023.035.033.036.04.036.04.036.041.036.041.036.042.035.041.036.035.036.024.036.019.036.01h.036l.036-.012.036-.019.035-.027.036-.038.036-.046.036-.045.036-.046.036-.046.035-.047.036-.046.036-.038.036-.027.036-.02.036-.01.036.002.036.015.035.023.036.031.036.045.036.052.072.106.036.052.035.053.036.052.036.044.036.03.036.02.036.01.036-.003.036-.018.035-.029.036-.038.036-.052.036-.062.036-.062.036-.062.035-.061.036-.061.036-.06.036-.05.036-.034.036-.023.036-.011.036.006.035.023.036.036.036.046.036.064.036.074.036.075.035.075.036.073.036.074.036.072.036.06.036.039.036.026.036.012.035-.009.036-.03.036-.045.036-.06.036-.079.036-.093.036-.095.035-.093.036-.093.036-.092.036-.09.036-.076.036-.049.036-.033.035-.014.036.013.036.04.036.06.036.078.036.107.036.126.036.125.035.126.036.125.036.125.036.125.036.102.036.068.036.048.035.02.036-.018.036-.056.036-.084.036-.113.036-.157.036-.185.035-.19.036-.192.036-.198.036-.2.036-.198.036-.166.036-.122.035-.096.036-.05.036.021.036.076.036.131.036.2.036.274.036.326.035.374.036.445.036.495.036.504.036.514.036.526.035.532.036.526.036.485.036.431.036.398.036.334.036.24.036.17.035.093h.036l.036-.093.036-.17.036-.24.036-.334.035-.398.036-.431.036-.485.036-.526.036-.532.036-.526.036-.514.036-.504.035-.495.036-.445.036-.374.036-.326.036-.273.036-.2.036-.132.035-.076.036-.02.036.049.036.096.036.122.036.166.036.198.036.2.035.198.036.193.036.189.036.185.036.157.036.113.035.084.036.056.036.019.036-.021.036-.048.036-.068.036-.102.036-.125.035-.125.036-.125.036-.126.036-.125.036-.126.036-.107.035-.078.036-.06.036-.04.036-.013.036.014.036.033.036.05.036.074.035.091.036.092.036.093.036.093.036.095.036.093.036.08.035.059.036.045.036.03.036.01.036-.013.036-.026.036-.04.035-.06.036-.071.036-.074.036-.073.036-.075.036-.075.036-.074.035-.064.036-.046.036-.036.036-.023.036-.006.036.01.036.024.036.033.035.05.036.06.036.062.036.061.036.062.036.062.036.062.035.052.036.038.036.029.036.018.036.004.036-.011.036-.02.035-.03.036-.044.036-.052.072-.105.072-.106.036-.052.035-.045.036-.031.036-.023.036-.015.036-.002.036.01.035.02.036.027.036.038.036.046.036.047.036.046.036.046.036.045.035.046.036.038.036.027.036.02.036.01.036.001.035-.01.036-.019.036-.024.036-.035.036-.041.036-.042.036-.04.036-.042.035-.04.036-.04.036-.033.036-.023.036-.016.036-.01.036.001.035.011.036.019.036.024.036.03.036.033.036.037.036.042" transform="matrix(28.34646 0 0 -28.34646 1 256.118)"/></svg>