<svg xmlns="http://www.w3.org/2000/svg" width="456.21" height="342.824" viewBox="0 0 342.157 257.118"><path style="fill:none;stroke-width:.02;stroke-linecap:butt;stroke-linejoin:miter;stroke:#000;stroke-opacity:1;stroke-miterlimit:10" d="M.994 1.518h.15M.994 2.425h.15M.994 3.331h.15M.994 4.237h.15M.994 5.144h.15M.994 6.05h.15M.994 6.956h.15M.994 7.863h.15" transform="matrix(28.34646 0 0 -28.34646 1 256.118)"/><path style="fill:none;stroke-width:.02;stroke-linecap:round;stroke-linejoin:miter;stroke:#000;stroke-opacity:1;stroke-miterlimit:10" d="M.994.612v8.157" transform="matrix(28.34646 0 0 -28.34646 1 256.118)"/><path style="stroke:none;fill-rule:nonzero;fill:#000;fill-opacity:1" d="M6.941 239.684v.632H3.973v-.632Zm0 0ZM10.66 234.852c1 .046 2.043.964 1.805 2.02-.113.714-.613 1.304-1.238 1.62 1.011.317 1.793 1.383 1.52 2.438-.27 1.37-1.849 2.132-3.118 1.71-.613-.18-1.234-.566-1.531-1.132.066-.168.047-.465.125-.578.601.886 1.87 1.484 2.867.988 1.09-.691.918-2.711-.395-3.05h-.101l-.024-.024H9.516v-.68c.644-.012 1.449-.09 1.812-.762.387-.578.352-1.527-.383-1.812-.875-.34-1.953.215-2.28 1.097-.138-.19-.27-.382-.407-.585.465-.84 1.449-1.34 2.402-1.25Zm0 0ZM15.32 241.586v.91h-.918v-.91Zm0 0ZM19.45 234.852c1.073.082 1.788 1.066 1.984 2.066.101.453.125.883.168 1.336v1.156c-.055 1.18-.34 2.735-1.622 3.211-1.109.441-2.414-.25-2.742-1.387-.25-.597-.273-1.21-.332-1.824v-1.156c.059-1.18.309-2.742 1.578-3.266l.055-.023.047-.012.059-.02.168-.046.101-.024h.125l.023-.011Zm0 0Zm-.352.691c-.953.113-1.239 1.262-1.305 2.031v.305l-.023.023v1.578c.066.817.125 1.868.875 2.415.69.476 1.609-.06 1.8-.793.203-.547.25-1.079.297-1.622v-1.578c-.07-.828-.183-1.984-1.137-2.312l-.078-.024-.023-.023h-.102l-.023-.02h-.262Zm0 0ZM6.941 213.992v.633H3.973v-.633Zm0 0ZM10.512 209.16c1.316.035 2.36 1.383 2.156 2.656-.137 1.27-1.328 1.993-2.176 2.79l-.363.37-.047.024-.453.441-.035.024-.453.453-.043.023-.106.102.024.012h3.675v.75H8.2v-.68l1.828-1.828c.871-.758 1.891-1.746 1.735-2.992-.094-.727-.703-1.395-1.453-1.453-.758-.114-1.43.488-1.598 1.214l-.024.036-.023.078-.031.125-.07.25-.012.054c-.156-.191-.328-.394-.453-.609.226-.934.976-1.805 1.96-1.84Zm0 0ZM15.32 215.895v.91h-.918v-.91Zm0 0ZM21.125 209.398v.704H18.18l-.024.011v2.325c.27-.18.657-.418 1.02-.43 1.281-.137 2.27 1.12 2.324 2.289.18 1.484-1.215 2.96-2.71 2.734-.747-.023-1.474-.465-1.903-1.078.125-.172.226-.465.37-.566.536 1.043 2.259 1.46 2.95.363.441-.828.43-1.883-.078-2.676-.59-.762-1.758-.297-2.031.508h-.735v-4.184Zm0 0ZM6.941 188.3v.634H3.973v-.633Zm0 0ZM10.512 183.469c1.316.035 2.36 1.383 2.156 2.656-.137 1.27-1.328 1.992-2.176 2.79l-.363.37-.047.024-.453.441-.035.023-.453.454-.043.023-.106.102.024.011h3.675v.75H8.2v-.68l1.828-1.828c.871-.757 1.891-1.746 1.735-2.992-.094-.726-.703-1.394-1.453-1.453-.758-.113-1.43.488-1.598 1.215l-.024.035-.023.078-.031.125-.07.25-.012.055c-.156-.191-.328-.395-.453-.61.226-.93.976-1.804 1.96-1.84Zm0 0ZM15.32 190.203v.91h-.918v-.91Zm0 0ZM19.45 183.469c1.073.082 1.788 1.066 1.984 2.066.101.453.125.883.168 1.336v1.156c-.055 1.18-.34 2.735-1.622 3.211-1.109.442-2.414-.25-2.742-1.383-.25-.601-.273-1.214-.332-1.828v-1.156c.059-1.18.309-2.742 1.578-3.266l.055-.023.047-.012.059-.02.168-.046.101-.024h.125l.023-.011Zm0 0Zm-.352.691c-.953.113-1.239 1.262-1.305 2.031v.305l-.023.024v1.578c.066.816.125 1.87.875 2.414.69.476 1.609-.059 1.8-.793.203-.547.25-1.078.297-1.621v-1.578c-.07-.829-.183-1.985-1.137-2.313l-.078-.023-.023-.024h-.102l-.023-.02h-.262Zm0 0ZM6.941 162.61v.632H3.973v-.633Zm0 0ZM10.988 157.777v6.996l.012.024h1.395v.625H8.71v-.625h1.394l.024-.024v-5.87a4.543 4.543 0 0 1-1.477.25v-.637c.75.011 1.567-.192 2.133-.739Zm0 0ZM15.32 164.516v.906h-.918v-.906Zm0 0ZM21.125 158.016v.703H18.18l-.024.011v2.325c.27-.18.657-.418 1.02-.43 1.281-.137 2.27 1.121 2.324 2.29.18 1.483-1.215 2.96-2.71 2.733-.747-.023-1.474-.464-1.903-1.078.125-.172.226-.465.37-.566.536 1.043 2.259 1.46 2.95.363.441-.828.43-1.883-.078-2.676-.59-.761-1.758-.296-2.031.508h-.735v-4.183Zm0 0ZM6.941 136.918v.633H3.973v-.633Zm0 0ZM10.988 132.086v6.996l.012.023h1.395v.625H8.71v-.625h1.394l.024-.023v-5.871a4.543 4.543 0 0 1-1.477.25v-.637c.75.012 1.567-.191 2.133-.738Zm0 0ZM15.32 138.824v.906h-.918v-.906Zm0 0ZM19.45 132.086c1.073.082 1.788 1.066 1.984 2.066.101.453.125.883.168 1.336v1.157c-.055 1.18-.34 2.734-1.622 3.21-1.109.442-2.414-.25-2.742-1.382-.25-.602-.273-1.215-.332-1.828v-1.157c.059-1.18.309-2.742 1.578-3.265l.055-.024.047-.012.059-.019.168-.047.101-.023h.125l.023-.012Zm0 0Zm-.352.691c-.953.114-1.239 1.262-1.305 2.032v.304l-.023.024v1.578c.066.816.125 1.87.875 2.414.69.476 1.609-.059 1.8-.793.203-.547.25-1.078.297-1.621v-1.578c-.07-.828-.183-1.985-1.137-2.313l-.078-.023-.023-.024h-.102l-.023-.02h-.262Zm0 0ZM6.941 111.227v.632H3.973v-.632Zm0 0ZM10.637 106.395c1.078.082 1.793 1.066 1.984 2.066.102.453.125.883.172 1.336v1.156c-.059 1.18-.34 2.734-1.621 3.211-1.113.441-2.418-.25-2.746-1.383-.25-.601-.27-1.215-.328-1.828v-1.156c.058-1.18.304-2.742 1.578-3.266l.054-.023.047-.012.055-.02.172-.046.101-.024h.125l.024-.011Zm0 0Zm-.352.69c-.953.114-1.234 1.263-1.305 2.032v.305l-.02.023v1.578c.067.817.126 1.872.872 2.415.691.476 1.61-.06 1.805-.793.203-.547.25-1.079.293-1.622v-1.578c-.067-.828-.18-1.984-1.133-2.312l-.078-.024-.024-.023h-.101l-.024-.02h-.261Zm0 0ZM15.32 113.133v.906h-.918v-.906Zm0 0ZM21.125 106.633v.703H18.18l-.024.012v2.324c.27-.18.657-.418 1.02-.43 1.281-.137 2.27 1.121 2.324 2.29.18 1.488-1.215 2.96-2.71 2.734-.747-.024-1.474-.465-1.903-1.079.125-.167.226-.464.37-.566.536 1.043 2.259 1.461 2.95.363.441-.828.43-1.882-.078-2.675-.59-.762-1.758-.297-2.031.507h-.735v-4.183Zm0 0ZM10.637 80.703c1.078.082 1.793 1.067 1.984 2.067.102.453.125.882.172 1.335v1.157c-.059 1.18-.34 2.734-1.621 3.21-1.113.442-2.418-.25-2.746-1.382-.25-.602-.27-1.215-.328-1.828v-1.157c.058-1.18.304-2.742 1.578-3.265l.054-.024.047-.011.055-.02.172-.047.101-.023h.125l.024-.012Zm0 0Zm-.352.692c-.953.113-1.234 1.261-1.305 2.03v.305l-.02.024v1.578c.067.816.126 1.871.872 2.414.691.477 1.61-.058 1.805-.793.203-.547.25-1.078.293-1.621v-1.578c-.067-.828-.18-1.984-1.133-2.313l-.078-.023-.024-.023h-.101l-.024-.02h-.261Zm0 0ZM15.32 87.441v.907h-.918v-.907Zm0 0ZM19.45 80.703c1.073.082 1.788 1.067 1.984 2.067.101.453.125.882.168 1.335v1.157c-.055 1.18-.34 2.734-1.622 3.21-1.109.442-2.414-.25-2.742-1.382-.25-.602-.273-1.215-.332-1.828v-1.157c.059-1.18.309-2.742 1.578-3.265l.055-.024.047-.011.059-.02.168-.047.101-.023h.125l.023-.012Zm0 0Zm-.352.692c-.953.113-1.239 1.261-1.305 2.03v.305l-.023.024v1.578c.066.816.125 1.871.875 2.414.69.477 1.609-.058 1.8-.793.203-.547.25-1.078.297-1.621v-1.578c-.07-.828-.183-1.984-1.137-2.313l-.078-.023-.023-.023h-.102l-.023-.02h-.262Zm0 0ZM10.637 55.012c1.078.082 1.793 1.066 1.984 2.066.102.453.125.883.172 1.336v1.156c-.059 1.18-.34 2.735-1.621 3.211-1.113.442-2.418-.25-2.746-1.383-.25-.601-.27-1.214-.328-1.828v-1.156c.058-1.18.304-2.742 1.578-3.266l.054-.023.047-.008.055-.023.172-.047.101-.024h.125l.024-.011Zm0 0Zm-.352.691c-.953.113-1.234 1.262-1.305 2.031v.305l-.02.023v1.579c.067.816.126 1.87.872 2.414.691.476 1.61-.059 1.805-.793.203-.547.25-1.078.293-1.621v-1.578c-.067-.829-.18-1.985-1.133-2.313l-.078-.023-.024-.024h-.101l-.024-.02h-.261Zm0 0ZM15.32 61.75v.906h-.918v-.906Zm0 0ZM21.125 55.25v.703H18.18l-.024.012v2.324c.27-.18.657-.418 1.02-.43 1.281-.136 2.27 1.121 2.324 2.29.18 1.488-1.215 2.96-2.71 2.734-.747-.024-1.474-.465-1.903-1.078.125-.168.226-.465.37-.567.536 1.043 2.259 1.461 2.95.364.441-.829.43-1.883-.078-2.676-.59-.762-1.758-.297-2.031.508h-.735V55.25Zm0 0ZM10.988 29.32v6.996l.012.024h1.395v.625H8.71v-.625h1.394l.024-.024v-5.87c-.477.156-.977.261-1.477.25v-.637c.75.011 1.567-.192 2.133-.739Zm0 0ZM15.32 36.059v.906h-.918v-.906Zm0 0ZM19.45 29.32c1.073.082 1.788 1.067 1.984 2.067.101.453.125.883.168 1.336v1.156c-.055 1.18-.34 2.734-1.622 3.21-1.109.442-2.414-.25-2.742-1.382-.25-.602-.273-1.215-.332-1.828v-1.156c.059-1.18.309-2.743 1.578-3.266l.055-.023.047-.008.059-.024.168-.047.101-.023h.125l.023-.012Zm0 0Zm-.352.692c-.953.113-1.239 1.261-1.305 2.031v.305l-.023.023v1.578c.066.817.125 1.871.875 2.414.69.477 1.609-.058 1.8-.793.203-.547.25-1.078.297-1.62V32.37c-.07-.828-.183-1.984-1.137-2.312l-.078-.024-.023-.023h-.102l-.023-.02h-.262Zm0 0ZM10.988 3.629v6.996l.012.023h1.395v.625H8.71v-.625h1.394l.024-.023V4.754c-.477.156-.977.262-1.477.25v-.637c.75.012 1.567-.191 2.133-.738Zm0 0ZM15.32 10.367v.906h-.918v-.906Zm0 0ZM21.125 3.867v.703H18.18l-.024.012v2.324c.27-.18.657-.418 1.02-.43 1.281-.136 2.27 1.122 2.324 2.29.18 1.488-1.215 2.96-2.71 2.734-.747-.023-1.474-.465-1.903-1.078.125-.168.226-.465.37-.567.536 1.043 2.259 1.461 2.95.364.441-.828.43-1.883-.078-2.676-.59-.762-1.758-.297-2.031.508h-.735V3.867Zm0 0Zm0 0"/><path style="fill:none;stroke-width:.02;stroke-linecap:butt;stroke-linejoin:miter;stroke:#000;stroke-opacity:1;stroke-miterlimit:10" d="M11.7 1.518h-.15M11.7 2.425h-.15M11.7 3.331h-.15M11.7 4.237h-.15M11.7 5.144h-.15M11.7 6.05h-.15M11.7 6.956h-.15M11.7 7.863h-.15" transform="matrix(28.34646 0 0 -28.34646 1 256.118)"/><path style="fill:none;stroke-width:.02;stroke-linecap:round;stroke-linejoin:miter;stroke:#000;stroke-opacity:1;stroke-miterlimit:10" d="M11.7.612v8.157" transform="matrix(28.34646 0 0 -28.34646 1 256.118)"/><path style="fill:none;stroke-width:.02;stroke-linecap:butt;stroke-linejoin:miter;stroke:#000;stroke-opacity:1;stroke-miterlimit:10" d="M2.184.612v.15M3.373.612v.15M4.563.612v.15M5.752.612v.15M6.942.612v.15M8.131.612v.15M9.32.612v.15M10.51.612v.15" transform="matrix(28.34646 0 0 -28.34646 1 256.118)"/><path style="fill:none;stroke-width:.02;stroke-linecap:round;stroke-linejoin:miter;stroke:#000;stroke-opacity:1;stroke-miterlimit:10" d="M.994.612H11.7" transform="matrix(28.34646 0 0 -28.34646 1 256.118)"/><path style="stroke:none;fill-rule:nonzero;fill:#000;fill-opacity:1" d="M29.719 245.652v6.996l.011.024h1.395v.621h-3.684v-.621h1.395l.023-.024v-5.875c-.476.16-.976.262-1.472.25v-.632c.746.011 1.562-.196 2.129-.739Zm0 0ZM62.965 245.652c1.316.036 2.36 1.383 2.152 2.653-.137 1.27-1.324 1.996-2.176 2.789l-.363.375-.043.023-.457.442-.031.023-.453.453-.047.024-.102.101.024.012h3.672v.746h-4.489v-.68l1.825-1.824c.87-.762 1.894-1.746 1.734-2.992-.09-.727-.703-1.395-1.45-1.453-.761-.114-1.429.488-1.6 1.215l-.024.03-.02.083-.035.125-.066.25-.012.055a4.283 4.283 0 0 1-.453-.614c.226-.93.972-1.8 1.96-1.836Zm0 0ZM96.832 245.652c.996.047 2.04.965 1.8 2.02-.112.715-.609 1.305-1.234 1.621 1.008.316 1.793 1.383 1.52 2.437-.273 1.372-1.848 2.133-3.117 1.711-.614-.18-1.239-.566-1.531-1.132.066-.172.043-.465.125-.579.601.883 1.87 1.485 2.867.985 1.09-.692.918-2.707-.399-3.047h-.101l-.02-.023h-1.055v-.68c.645-.012 1.45-.094 1.813-.762.387-.578.352-1.531-.387-1.812-.87-.34-1.949.214-2.277 1.097-.137-.191-.273-.383-.41-.59.465-.835 1.453-1.335 2.406-1.246Zm0 0ZM131.695 245.89v4.774l.024.024h1.12v.68h-1.12l-.024.01v1.915h-.86v-1.914l-.023-.012h-2.996v-.703c.954-1.586 1.907-3.187 2.86-4.773Zm0 0Zm-.84.43c-.226 1.18-.949 2.192-1.496 3.223-.214.371-.496.781-.656 1.144h2.176l.012-.023v-4.344l-.012-.02Zm0 0ZM165.926 245.89v.704h-2.95l-.019.011v2.325c.27-.184.656-.418 1.02-.43 1.28-.137 2.265 1.121 2.324 2.29.18 1.483-1.215 2.96-2.711 2.733-.746-.023-1.473-.464-1.906-1.078.125-.172.23-.465.375-.566.535 1.043 2.257 1.46 2.949.363.441-.828.43-1.883-.078-2.68-.59-.757-1.758-.292-2.032.512h-.738v-4.183Zm0 0ZM198.703 245.652c.297.047.637.078.918.215v.66c-.781-.343-1.8-.386-2.414.305-.543.578-.793 1.441-.816 2.2.66-.872 2.144-1.36 2.949-.454.805.93.941 2.266.578 3.402-.398.907-1.316 1.735-2.336 1.543-1.383-.117-2.008-1.656-2.074-2.835-.262-1.668.137-3.766 1.722-4.72l.024-.011.238-.121.067-.024.035-.023.191-.059.16-.042.102-.024h.125l.023-.012Zm0 0Zm-1.11 3.153c-.988.172-1.304 1.36-1.179 2.164.059.761.352 1.77 1.227 1.93.93.124 1.527-.876 1.55-1.68.047-.817 0-1.746-.714-2.278l-.157-.078-.125-.035-.101-.023-.024-.024h-.453Zm0 0ZM233.84 245.89v.715c-1.61 1.883-2.516 4.422-2.504 6.813h-.918c-.023-2.414.965-4.965 2.687-6.746l-.023-.02h-3.934v-.761h4.692v.714Zm0 0ZM265.43 245.652c1.203.047 2.336 1.34 1.86 2.54-.204.554-.77.898-1.235 1.136 1.156.34 1.86 1.688 1.336 2.797-.543 1.441-2.606 1.895-3.743.852-1.03-.817-1.066-2.586.082-3.309.168-.184.485-.238.633-.375-.984-.285-1.656-1.43-1.191-2.395.375-.859 1.34-1.335 2.258-1.246Zm0 0Zm-.43.649c-.84.02-1.43.972-1.145 1.722.329 1.293 2.493 1.247 2.743-.082.226-.734-.364-1.62-1.168-1.64l-.024-.012h-.386Zm0 0Zm.02 3.367c-.985.066-1.473 1.246-1.211 2.086.168 1.187 1.87 1.539 2.539.59.648-.875.328-2.438-.84-2.676h-.102l-.023-.023h-.352Zm0 0ZM299.172 245.652c1.36.149 1.95 1.692 2.043 2.868.156 1.53-.024 3.324-1.274 4.421-.78.786-2.164.809-3.003.106.101-.195.214-.422.34-.578.738.71 2.03.508 2.507-.41.34-.555.543-1.27.531-1.883-.668.863-2.14 1.363-2.949.453-.812-.941-.96-2.313-.555-3.445.422-.895 1.317-1.668 2.36-1.532Zm0 0Zm-.375.649c-.817.066-1.235.972-1.293 1.687-.031.805 0 1.746.715 2.27.793.484 1.816-.106 1.996-.965.215-.84.078-1.734-.352-2.52-.238-.328-.668-.566-1.066-.472Zm0 0ZM330.363 245.652v6.996l.012.024h1.395v.621h-3.684v-.621h1.394l.02-.024v-5.875c-.477.16-.973.262-1.473.25v-.632c.75.011 1.567-.196 2.133-.739Zm0 0ZM335.68 245.652c1.078.078 1.793 1.067 1.984 2.063.102.453.125.887.172 1.34v1.156c-.059 1.18-.34 2.73-1.621 3.207-1.113.445-2.418-.246-2.746-1.383-.25-.601-.27-1.21-.328-1.824v-1.156c.058-1.18.304-2.746 1.578-3.266l.054-.023.047-.012.055-.024.172-.042.101-.024h.125l.024-.012Zm0 0Zm-.352.692c-.95.113-1.234 1.258-1.3 2.031v.305l-.024.023v1.574c.066.817.125 1.871.871 2.418.691.477 1.61-.058 1.805-.797.203-.543.25-1.074.293-1.62v-1.575c-.067-.828-.18-1.984-1.133-2.312l-.078-.024-.024-.023h-.101l-.024-.024h-.261Zm0 0Zm0 0"/><path style="fill:none;stroke-width:.02;stroke-linecap:butt;stroke-linejoin:miter;stroke:#000;stroke-opacity:1;stroke-miterlimit:10" d="M2.184 8.769v-.15M3.373 8.769v-.15M4.563 8.769v-.15M5.752 8.769v-.15M6.942 8.769v-.15M8.131 8.769v-.15M9.32 8.769v-.15M10.51 8.769v-.15" transform="matrix(28.34646 0 0 -28.34646 1 256.118)"/><path style="fill:none;stroke-width:.02;stroke-linecap:round;stroke-linejoin:miter;stroke:#000;stroke-opacity:1;stroke-miterlimit:10" d="M.994 8.769H11.7" transform="matrix(28.34646 0 0 -28.34646 1 256.118)"/><path style="fill:none;stroke-width:.1;stroke-linecap:butt;stroke-linejoin:miter;stroke:violet;stroke-opacity:1;stroke-miterlimit:10" d="m.994 4.66 1.19-.017 1.19 1.11 1.189 1.894 1.19.026L6.941 6.45l1.19-1.378L9.32 6.754l1.19-2.042L11.7 6.004" transform="matrix(28.34646 0 0 -28.34646 1 256.118)"/><path style="fill:none;stroke-width:.1;stroke-linecap:butt;stroke-linejoin:miter;stroke:navy;stroke-opacity:1;stroke-miterlimit:10" d="m.994 7.505 1.19-.489 1.19.369 1.189-1.696 1.19 1.022 1.189-1.678 1.19-.451L9.32 7.004 10.51 4.3l1.189.75" transform="matrix(28.34646 0 0 -28.34646 1 256.118)"/><path style="fill:none;stroke-width:.1;stroke-linecap:butt;stroke-linejoin:miter;stroke:orange;stroke-opacity:1;stroke-miterlimit:10" d="m.994 6.557 1.19 2.212 1.19-2.706 1.189.176 1.19-2.293L6.941.851l1.19 2.762 1.189.12 1.19-.81 1.189.634" transform="matrix(28.34646 0 0 -28.34646 1 256.118)"/></svg>