<?xml version="1.0" encoding="UTF-8"?>
<svg xmlns="http://www.w3.org/2000/svg" xmlns:xlink="http://www.w3.org/1999/xlink" width="342.15748pt" height="257.11811pt" viewBox="0 0 342.15748 257.11811" version="1.1">
<g id="surface1">
<path style="fill:none;stroke-width:0.02;stroke-linecap:butt;stroke-linejoin:miter;stroke:rgb(0%,0%,0%);stroke-opacity:1;stroke-miterlimit:10;" d="M 0.993979 1.777288 L 1.144047 1.777288 " transform="matrix(28.346457,0,0,-28.346457,1,256.11811)"/>
<path style="fill:none;stroke-width:0.02;stroke-linecap:butt;stroke-linejoin:miter;stroke:rgb(0%,0%,0%);stroke-opacity:1;stroke-miterlimit:10;" d="M 0.993979 2.942558 L 1.144047 2.942558 " transform="matrix(28.346457,0,0,-28.346457,1,256.11811)"/>
<path style="fill:none;stroke-width:0.02;stroke-linecap:butt;stroke-linejoin:miter;stroke:rgb(0%,0%,0%);stroke-opacity:1;stroke-miterlimit:10;" d="M 0.993979 4.107827 L 1.144047 4.107827 " transform="matrix(28.346457,0,0,-28.346457,1,256.11811)"/>
<path style="fill:none;stroke-width:0.02;stroke-linecap:butt;stroke-linejoin:miter;stroke:rgb(0%,0%,0%);stroke-opacity:1;stroke-miterlimit:10;" d="M 0.993979 5.273096 L 1.144047 5.273096 " transform="matrix(28.346457,0,0,-28.346457,1,256.11811)"/>
<path style="fill:none;stroke-width:0.02;stroke-linecap:butt;stroke-linejoin:miter;stroke:rgb(0%,0%,0%);stroke-opacity:1;stroke-miterlimit:10;" d="M 0.993979 6.438365 L 1.144047 6.438365 " transform="matrix(28.346457,0,0,-28.346457,1,256.11811)"/>
<path style="fill:none;stroke-width:0.02;stroke-linecap:butt;stroke-linejoin:miter;stroke:rgb(0%,0%,0%);stroke-opacity:1;stroke-miterlimit:10;" d="M 0.993979 7.603772 L 1.144047 7.603772 " transform="matrix(28.346457,0,0,-28.346457,1,256.11811)"/>
<path style="fill:none;stroke-width:0.02;stroke-linecap:round;stroke-linejoin:miter;stroke:rgb(0%,0%,0%);stroke-opacity:1;stroke-miterlimit:10;" d="M 0.993979 0.612019 L 0.993979 8.769041 " transform="matrix(28.346457,0,0,-28.346457,1,256.11811)"/>
<path style=" stroke:none;fill-rule:nonzero;fill:rgb(0%,0%,0%);fill-opacity:1;" d="M 6.941406 239.683594 L 6.941406 240.316406 L 3.972656 240.316406 L 3.972656 239.683594 Z M 6.941406 239.683594 Z M 6.941406 239.683594 "/>
<path style=" stroke:none;fill-rule:nonzero;fill:rgb(0%,0%,0%);fill-opacity:1;" d="M 10.636719 234.851562 C 11.714844 234.933594 12.429688 235.917969 12.621094 236.917969 C 12.722656 237.371094 12.746094 237.800781 12.792969 238.253906 L 12.792969 239.410156 C 12.734375 240.589844 12.453125 242.144531 11.171875 242.621094 C 10.058594 243.0625 8.753906 242.371094 8.425781 241.234375 C 8.175781 240.636719 8.15625 240.023438 8.097656 239.410156 L 8.097656 238.253906 C 8.15625 237.074219 8.402344 235.511719 9.675781 234.988281 L 9.730469 234.964844 L 9.777344 234.953125 L 9.832031 234.933594 L 10.003906 234.886719 L 10.105469 234.863281 L 10.230469 234.863281 L 10.253906 234.851562 Z M 10.636719 234.851562 Z M 10.285156 235.542969 C 9.332031 235.65625 9.050781 236.804688 8.980469 237.574219 L 8.980469 237.878906 L 8.960938 237.902344 L 8.960938 239.480469 C 9.027344 240.296875 9.085938 241.347656 9.832031 241.894531 C 10.523438 242.371094 11.441406 241.835938 11.636719 241.101562 C 11.839844 240.554688 11.886719 240.023438 11.929688 239.480469 L 11.929688 237.902344 C 11.863281 237.074219 11.75 235.917969 10.796875 235.589844 L 10.71875 235.566406 L 10.695312 235.542969 L 10.59375 235.542969 L 10.570312 235.523438 L 10.308594 235.523438 Z M 10.285156 235.542969 Z M 10.285156 235.542969 "/>
<path style=" stroke:none;fill-rule:nonzero;fill:rgb(0%,0%,0%);fill-opacity:1;" d="M 15.320312 241.585938 L 15.320312 242.496094 L 14.402344 242.496094 L 14.402344 241.585938 Z M 15.320312 241.585938 Z M 15.320312 241.585938 "/>
<path style=" stroke:none;fill-rule:nonzero;fill:rgb(0%,0%,0%);fill-opacity:1;" d="M 20.617188 235.089844 L 20.617188 239.863281 L 20.636719 239.886719 L 21.761719 239.886719 L 21.761719 240.566406 L 20.636719 240.566406 L 20.617188 240.578125 L 20.617188 242.496094 L 19.753906 242.496094 L 19.753906 240.578125 L 19.730469 240.566406 L 16.738281 240.566406 L 16.738281 239.863281 C 17.691406 238.277344 18.644531 236.679688 19.59375 235.089844 Z M 20.617188 235.089844 Z M 19.777344 235.523438 C 19.550781 236.699219 18.824219 237.710938 18.28125 238.742188 C 18.066406 239.117188 17.78125 239.523438 17.621094 239.886719 L 19.800781 239.886719 L 19.8125 239.863281 L 19.8125 235.523438 L 19.800781 235.5 Z M 19.777344 235.523438 Z M 19.777344 235.523438 "/>
<path style=" stroke:none;fill-rule:nonzero;fill:rgb(0%,0%,0%);fill-opacity:1;" d="M 6.941406 206.652344 L 6.941406 207.285156 L 3.972656 207.285156 L 3.972656 206.652344 Z M 6.941406 206.652344 Z M 6.941406 206.652344 "/>
<path style=" stroke:none;fill-rule:nonzero;fill:rgb(0%,0%,0%);fill-opacity:1;" d="M 10.636719 201.820312 C 11.714844 201.898438 12.429688 202.886719 12.621094 203.882812 C 12.722656 204.339844 12.746094 204.769531 12.792969 205.222656 L 12.792969 206.378906 C 12.734375 207.558594 12.453125 209.113281 11.171875 209.585938 C 10.058594 210.03125 8.753906 209.339844 8.425781 208.203125 C 8.175781 207.605469 8.15625 206.992188 8.097656 206.378906 L 8.097656 205.222656 C 8.15625 204.042969 8.402344 202.476562 9.675781 201.957031 L 9.730469 201.933594 L 9.777344 201.921875 L 9.832031 201.898438 L 10.003906 201.855469 L 10.105469 201.832031 L 10.230469 201.832031 L 10.253906 201.820312 Z M 10.636719 201.820312 Z M 10.285156 202.511719 C 9.332031 202.625 9.050781 203.769531 8.980469 204.542969 L 8.980469 204.847656 L 8.960938 204.871094 L 8.960938 206.445312 C 9.027344 207.261719 9.085938 208.316406 9.832031 208.863281 C 10.523438 209.339844 11.441406 208.804688 11.636719 208.070312 C 11.839844 207.523438 11.886719 206.992188 11.929688 206.445312 L 11.929688 204.871094 C 11.863281 204.042969 11.75 202.886719 10.796875 202.558594 L 10.71875 202.535156 L 10.695312 202.511719 L 10.59375 202.511719 L 10.570312 202.488281 L 10.308594 202.488281 Z M 10.285156 202.511719 Z M 10.285156 202.511719 "/>
<path style=" stroke:none;fill-rule:nonzero;fill:rgb(0%,0%,0%);fill-opacity:1;" d="M 15.320312 208.554688 L 15.320312 209.464844 L 14.402344 209.464844 L 14.402344 208.554688 Z M 15.320312 208.554688 Z M 15.320312 208.554688 "/>
<path style=" stroke:none;fill-rule:nonzero;fill:rgb(0%,0%,0%);fill-opacity:1;" d="M 19.324219 201.820312 C 20.636719 201.855469 21.679688 203.203125 21.476562 204.472656 C 21.339844 205.742188 20.152344 206.46875 19.300781 207.261719 L 18.9375 207.636719 L 18.890625 207.660156 L 18.4375 208.101562 L 18.40625 208.125 L 17.953125 208.578125 L 17.90625 208.601562 L 17.804688 208.703125 L 17.828125 208.714844 L 21.5 208.714844 L 21.5 209.464844 L 17.011719 209.464844 L 17.011719 208.78125 L 18.835938 206.957031 C 19.707031 206.199219 20.730469 205.210938 20.570312 203.964844 C 20.480469 203.238281 19.867188 202.570312 19.117188 202.511719 C 18.359375 202.398438 17.691406 203 17.519531 203.726562 L 17.496094 203.761719 L 17.476562 203.839844 L 17.371094 204.214844 L 17.363281 204.269531 C 17.203125 204.078125 17.03125 203.875 16.90625 203.65625 C 17.136719 202.726562 17.882812 201.855469 18.871094 201.820312 Z M 19.324219 201.820312 Z M 19.324219 201.820312 "/>
<path style=" stroke:none;fill-rule:nonzero;fill:rgb(0%,0%,0%);fill-opacity:1;" d="M 10.636719 168.789062 C 11.714844 168.867188 12.429688 169.855469 12.621094 170.851562 C 12.722656 171.304688 12.746094 171.738281 12.792969 172.191406 L 12.792969 173.347656 C 12.734375 174.527344 12.453125 176.078125 11.171875 176.554688 C 10.058594 177 8.753906 176.304688 8.425781 175.171875 C 8.175781 174.570312 8.15625 173.960938 8.097656 173.347656 L 8.097656 172.191406 C 8.15625 171.011719 8.402344 169.445312 9.675781 168.925781 L 9.730469 168.902344 L 9.777344 168.890625 L 9.832031 168.867188 L 10.003906 168.824219 L 10.105469 168.800781 L 10.230469 168.800781 L 10.253906 168.789062 Z M 10.636719 168.789062 Z M 10.285156 169.480469 C 9.332031 169.59375 9.050781 170.738281 8.980469 171.511719 L 8.980469 171.816406 L 8.960938 171.839844 L 8.960938 173.414062 C 9.027344 174.230469 9.085938 175.285156 9.832031 175.832031 C 10.523438 176.304688 11.441406 175.773438 11.636719 175.035156 C 11.839844 174.492188 11.886719 173.960938 11.929688 173.414062 L 11.929688 171.839844 C 11.863281 171.011719 11.75 169.855469 10.796875 169.527344 L 10.71875 169.503906 L 10.695312 169.480469 L 10.59375 169.480469 L 10.570312 169.457031 L 10.308594 169.457031 Z M 10.285156 169.480469 Z M 10.285156 169.480469 "/>
<path style=" stroke:none;fill-rule:nonzero;fill:rgb(0%,0%,0%);fill-opacity:1;" d="M 15.320312 175.523438 L 15.320312 176.429688 L 14.402344 176.429688 L 14.402344 175.523438 Z M 15.320312 175.523438 Z M 15.320312 175.523438 "/>
<path style=" stroke:none;fill-rule:nonzero;fill:rgb(0%,0%,0%);fill-opacity:1;" d="M 19.449219 168.789062 C 20.523438 168.867188 21.238281 169.855469 21.433594 170.851562 C 21.535156 171.304688 21.558594 171.738281 21.601562 172.191406 L 21.601562 173.347656 C 21.546875 174.527344 21.261719 176.078125 19.980469 176.554688 C 18.871094 177 17.566406 176.304688 17.238281 175.171875 C 16.988281 174.570312 16.964844 173.960938 16.90625 173.347656 L 16.90625 172.191406 C 16.964844 171.011719 17.214844 169.445312 18.484375 168.925781 L 18.539062 168.902344 L 18.585938 168.890625 L 18.644531 168.867188 L 18.8125 168.824219 L 18.914062 168.800781 L 19.039062 168.800781 L 19.0625 168.789062 Z M 19.449219 168.789062 Z M 19.097656 169.480469 C 18.144531 169.59375 17.859375 170.738281 17.792969 171.511719 L 17.792969 171.816406 L 17.769531 171.839844 L 17.769531 173.414062 C 17.835938 174.230469 17.894531 175.285156 18.644531 175.832031 C 19.335938 176.304688 20.253906 175.773438 20.445312 175.035156 C 20.648438 174.492188 20.695312 173.960938 20.742188 173.414062 L 20.742188 171.839844 C 20.671875 171.011719 20.558594 169.855469 19.605469 169.527344 L 19.527344 169.503906 L 19.503906 169.480469 L 19.402344 169.480469 L 19.378906 169.457031 L 19.117188 169.457031 Z M 19.097656 169.480469 Z M 19.097656 169.480469 "/>
<path style=" stroke:none;fill-rule:nonzero;fill:rgb(0%,0%,0%);fill-opacity:1;" d="M 10.636719 135.757812 C 11.714844 135.835938 12.429688 136.824219 12.621094 137.820312 C 12.722656 138.273438 12.746094 138.707031 12.792969 139.160156 L 12.792969 140.316406 C 12.734375 141.496094 12.453125 143.046875 11.171875 143.523438 C 10.058594 143.964844 8.753906 143.273438 8.425781 142.140625 C 8.175781 141.539062 8.15625 140.929688 8.097656 140.316406 L 8.097656 139.160156 C 8.15625 137.980469 8.402344 136.414062 9.675781 135.894531 L 9.730469 135.871094 L 9.777344 135.859375 L 9.832031 135.835938 L 10.003906 135.792969 L 10.105469 135.769531 L 10.230469 135.769531 L 10.253906 135.757812 Z M 10.636719 135.757812 Z M 10.285156 136.449219 C 9.332031 136.5625 9.050781 137.707031 8.980469 138.480469 L 8.980469 138.785156 L 8.960938 138.808594 L 8.960938 140.382812 C 9.027344 141.199219 9.085938 142.253906 9.832031 142.796875 C 10.523438 143.273438 11.441406 142.742188 11.636719 142.003906 C 11.839844 141.460938 11.886719 140.929688 11.929688 140.382812 L 11.929688 138.808594 C 11.863281 137.980469 11.75 136.824219 10.796875 136.496094 L 10.71875 136.472656 L 10.695312 136.449219 L 10.59375 136.449219 L 10.570312 136.425781 L 10.308594 136.425781 Z M 10.285156 136.449219 Z M 10.285156 136.449219 "/>
<path style=" stroke:none;fill-rule:nonzero;fill:rgb(0%,0%,0%);fill-opacity:1;" d="M 15.320312 142.492188 L 15.320312 143.398438 L 14.402344 143.398438 L 14.402344 142.492188 Z M 15.320312 142.492188 Z M 15.320312 142.492188 "/>
<path style=" stroke:none;fill-rule:nonzero;fill:rgb(0%,0%,0%);fill-opacity:1;" d="M 19.324219 135.757812 C 20.636719 135.792969 21.679688 137.140625 21.476562 138.410156 C 21.339844 139.679688 20.152344 140.40625 19.300781 141.199219 L 18.9375 141.574219 L 18.890625 141.597656 L 18.4375 142.039062 L 18.40625 142.0625 L 17.953125 142.515625 L 17.90625 142.539062 L 17.804688 142.640625 L 17.828125 142.652344 L 21.5 142.652344 L 21.5 143.398438 L 17.011719 143.398438 L 17.011719 142.71875 L 18.835938 140.894531 C 19.707031 140.132812 20.730469 139.148438 20.570312 137.902344 C 20.480469 137.175781 19.867188 136.503906 19.117188 136.449219 C 18.359375 136.335938 17.691406 136.9375 17.519531 137.664062 L 17.496094 137.695312 L 17.476562 137.777344 L 17.441406 137.902344 L 17.371094 138.148438 L 17.363281 138.207031 C 17.203125 138.015625 17.03125 137.808594 16.90625 137.59375 C 17.136719 136.664062 17.882812 135.792969 18.871094 135.757812 Z M 19.324219 135.757812 Z M 19.324219 135.757812 "/>
<path style=" stroke:none;fill-rule:nonzero;fill:rgb(0%,0%,0%);fill-opacity:1;" d="M 10.636719 102.726562 C 11.714844 102.804688 12.429688 103.792969 12.621094 104.789062 C 12.722656 105.242188 12.746094 105.671875 12.792969 106.128906 L 12.792969 107.285156 C 12.734375 108.464844 12.453125 110.015625 11.171875 110.492188 C 10.058594 110.933594 8.753906 110.242188 8.425781 109.109375 C 8.175781 108.507812 8.15625 107.894531 8.097656 107.285156 L 8.097656 106.128906 C 8.15625 104.949219 8.402344 103.382812 9.675781 102.863281 L 9.730469 102.839844 L 9.777344 102.828125 L 9.832031 102.804688 L 10.003906 102.757812 L 10.105469 102.738281 L 10.230469 102.738281 L 10.253906 102.726562 Z M 10.636719 102.726562 Z M 10.285156 103.417969 C 9.332031 103.53125 9.050781 104.675781 8.980469 105.445312 L 8.980469 105.753906 L 8.960938 105.777344 L 8.960938 107.351562 C 9.027344 108.167969 9.085938 109.222656 9.832031 109.765625 C 10.523438 110.242188 11.441406 109.710938 11.636719 108.972656 C 11.839844 108.429688 11.886719 107.894531 11.929688 107.351562 L 11.929688 105.777344 C 11.863281 104.949219 11.75 103.792969 10.796875 103.460938 L 10.71875 103.441406 L 10.695312 103.417969 L 10.59375 103.417969 L 10.570312 103.394531 L 10.308594 103.394531 Z M 10.285156 103.417969 Z M 10.285156 103.417969 "/>
<path style=" stroke:none;fill-rule:nonzero;fill:rgb(0%,0%,0%);fill-opacity:1;" d="M 15.320312 109.460938 L 15.320312 110.367188 L 14.402344 110.367188 L 14.402344 109.460938 Z M 15.320312 109.460938 Z M 15.320312 109.460938 "/>
<path style=" stroke:none;fill-rule:nonzero;fill:rgb(0%,0%,0%);fill-opacity:1;" d="M 20.617188 102.964844 L 20.617188 107.738281 L 20.636719 107.761719 L 21.761719 107.761719 L 21.761719 108.441406 L 20.636719 108.441406 L 20.617188 108.453125 L 20.617188 110.367188 L 19.753906 110.367188 L 19.753906 108.453125 L 19.730469 108.441406 L 16.738281 108.441406 L 16.738281 107.738281 C 17.691406 106.148438 18.644531 104.550781 19.59375 102.964844 Z M 20.617188 102.964844 Z M 19.777344 103.394531 C 19.550781 104.574219 18.824219 105.582031 18.28125 106.613281 C 18.066406 106.988281 17.78125 107.398438 17.621094 107.761719 L 19.800781 107.761719 L 19.8125 107.738281 L 19.8125 103.394531 L 19.800781 103.371094 Z M 19.777344 103.394531 Z M 19.777344 103.394531 "/>
<path style=" stroke:none;fill-rule:nonzero;fill:rgb(0%,0%,0%);fill-opacity:1;" d="M 10.636719 69.695312 C 11.714844 69.773438 12.429688 70.761719 12.621094 71.757812 C 12.722656 72.210938 12.746094 72.640625 12.792969 73.09375 L 12.792969 74.253906 C 12.734375 75.429688 12.453125 76.984375 11.171875 77.460938 C 10.058594 77.902344 8.753906 77.210938 8.425781 76.078125 C 8.175781 75.476562 8.15625 74.863281 8.097656 74.253906 L 8.097656 73.09375 C 8.15625 71.917969 8.402344 70.351562 9.675781 69.828125 L 9.730469 69.808594 L 9.777344 69.796875 L 9.832031 69.773438 L 10.003906 69.726562 L 10.105469 69.707031 L 10.230469 69.707031 L 10.253906 69.695312 Z M 10.636719 69.695312 Z M 10.285156 70.386719 C 9.332031 70.5 9.050781 71.644531 8.980469 72.414062 L 8.980469 72.722656 L 8.960938 72.742188 L 8.960938 74.320312 C 9.027344 75.136719 9.085938 76.191406 9.832031 76.734375 C 10.523438 77.210938 11.441406 76.679688 11.636719 75.941406 C 11.839844 75.398438 11.886719 74.863281 11.929688 74.320312 L 11.929688 72.742188 C 11.863281 71.917969 11.75 70.761719 10.796875 70.429688 L 10.71875 70.410156 L 10.695312 70.386719 L 10.59375 70.386719 L 10.570312 70.363281 L 10.308594 70.363281 Z M 10.285156 70.386719 Z M 10.285156 70.386719 "/>
<path style=" stroke:none;fill-rule:nonzero;fill:rgb(0%,0%,0%);fill-opacity:1;" d="M 15.320312 76.429688 L 15.320312 77.335938 L 14.402344 77.335938 L 14.402344 76.429688 Z M 15.320312 76.429688 Z M 15.320312 76.429688 "/>
<path style=" stroke:none;fill-rule:nonzero;fill:rgb(0%,0%,0%);fill-opacity:1;" d="M 20.183594 69.695312 C 20.480469 69.738281 20.820312 69.773438 21.101562 69.910156 L 21.101562 70.566406 C 20.320312 70.226562 19.300781 70.179688 18.6875 70.875 C 18.144531 71.453125 17.894531 72.3125 17.871094 73.074219 C 18.53125 72.199219 20.015625 71.710938 20.820312 72.621094 C 21.625 73.550781 21.761719 74.886719 21.398438 76.019531 C 21 76.929688 20.082031 77.753906 19.0625 77.5625 C 17.679688 77.449219 17.054688 75.90625 16.988281 74.726562 C 16.726562 73.0625 17.125 70.964844 18.710938 70.011719 L 18.734375 70 L 18.972656 69.875 L 19.039062 69.851562 L 19.074219 69.828125 L 19.265625 69.773438 L 19.425781 69.726562 L 19.527344 69.707031 L 19.652344 69.707031 L 19.675781 69.695312 Z M 20.183594 69.695312 Z M 19.074219 72.847656 C 18.085938 73.015625 17.769531 74.207031 17.894531 75.011719 C 17.953125 75.769531 18.246094 76.78125 19.117188 76.9375 C 20.046875 77.0625 20.648438 76.066406 20.671875 75.261719 C 20.71875 74.445312 20.671875 73.515625 19.957031 72.980469 L 19.800781 72.902344 L 19.675781 72.867188 L 19.574219 72.847656 L 19.550781 72.824219 L 19.097656 72.824219 Z M 19.074219 72.847656 Z M 19.074219 72.847656 "/>
<path style=" stroke:none;fill-rule:nonzero;fill:rgb(0%,0%,0%);fill-opacity:1;" d="M 10.636719 36.664062 C 11.714844 36.742188 12.429688 37.726562 12.621094 38.726562 C 12.722656 39.179688 12.746094 39.609375 12.792969 40.0625 L 12.792969 41.21875 C 12.734375 42.398438 12.453125 43.953125 11.171875 44.429688 C 10.058594 44.871094 8.753906 44.179688 8.425781 43.046875 C 8.175781 42.445312 8.15625 41.832031 8.097656 41.21875 L 8.097656 40.0625 C 8.15625 38.882812 8.402344 37.320312 9.675781 36.796875 L 9.730469 36.777344 L 9.777344 36.765625 L 9.832031 36.742188 L 10.003906 36.695312 L 10.105469 36.671875 L 10.230469 36.671875 L 10.253906 36.664062 Z M 10.636719 36.664062 Z M 10.285156 37.355469 C 9.332031 37.46875 9.050781 38.613281 8.980469 39.382812 L 8.980469 39.691406 L 8.960938 39.710938 L 8.960938 41.289062 C 9.027344 42.105469 9.085938 43.160156 9.832031 43.703125 C 10.523438 44.179688 11.441406 43.648438 11.636719 42.910156 C 11.839844 42.367188 11.886719 41.832031 11.929688 41.289062 L 11.929688 39.710938 C 11.863281 38.882812 11.75 37.726562 10.796875 37.398438 L 10.71875 37.375 L 10.695312 37.355469 L 10.59375 37.355469 L 10.570312 37.332031 L 10.308594 37.332031 Z M 10.285156 37.355469 Z M 10.285156 37.355469 "/>
<path style=" stroke:none;fill-rule:nonzero;fill:rgb(0%,0%,0%);fill-opacity:1;" d="M 15.320312 43.398438 L 15.320312 44.304688 L 14.402344 44.304688 L 14.402344 43.398438 Z M 15.320312 43.398438 Z M 15.320312 43.398438 "/>
<path style=" stroke:none;fill-rule:nonzero;fill:rgb(0%,0%,0%);fill-opacity:1;" d="M 19.46875 36.664062 C 20.671875 36.707031 21.804688 38 21.332031 39.203125 C 21.125 39.757812 20.558594 40.097656 20.09375 40.335938 C 21.25 40.675781 21.953125 42.027344 21.433594 43.136719 C 20.886719 44.578125 18.824219 45.03125 17.691406 43.988281 C 16.660156 43.171875 16.625 41.402344 17.769531 40.675781 C 17.941406 40.496094 18.257812 40.4375 18.40625 40.300781 C 17.417969 40.019531 16.75 38.875 17.214844 37.910156 C 17.589844 37.046875 18.550781 36.570312 19.46875 36.664062 Z M 19.46875 36.664062 Z M 19.039062 37.308594 C 18.199219 37.332031 17.609375 38.285156 17.894531 39.03125 C 18.222656 40.324219 20.390625 40.277344 20.636719 38.953125 C 20.863281 38.214844 20.277344 37.332031 19.46875 37.308594 L 19.449219 37.296875 L 19.0625 37.296875 Z M 19.039062 37.308594 Z M 19.0625 40.675781 C 18.074219 40.746094 17.589844 41.921875 17.847656 42.761719 C 18.019531 43.953125 19.71875 44.304688 20.390625 43.351562 C 21.035156 42.480469 20.71875 40.914062 19.550781 40.675781 L 19.449219 40.675781 L 19.425781 40.652344 L 19.074219 40.652344 Z M 19.0625 40.675781 Z M 19.0625 40.675781 "/>
<path style=" stroke:none;fill-rule:nonzero;fill:rgb(0%,0%,0%);fill-opacity:1;" d="M 10.988281 3.628906 L 10.988281 10.625 L 11 10.648438 L 12.394531 10.648438 L 12.394531 11.273438 L 8.710938 11.273438 L 8.710938 10.648438 L 10.105469 10.648438 L 10.128906 10.625 L 10.128906 4.753906 C 9.652344 4.910156 9.152344 5.015625 8.652344 5.003906 L 8.652344 4.367188 C 9.402344 4.378906 10.21875 4.175781 10.785156 3.628906 Z M 10.988281 3.628906 Z M 10.988281 3.628906 "/>
<path style=" stroke:none;fill-rule:nonzero;fill:rgb(0%,0%,0%);fill-opacity:1;" d="M 15.320312 10.367188 L 15.320312 11.273438 L 14.402344 11.273438 L 14.402344 10.367188 Z M 15.320312 10.367188 Z M 15.320312 10.367188 "/>
<path style=" stroke:none;fill-rule:nonzero;fill:rgb(0%,0%,0%);fill-opacity:1;" d="M 19.449219 3.628906 C 20.523438 3.710938 21.238281 4.695312 21.433594 5.695312 C 21.535156 6.148438 21.558594 6.578125 21.601562 7.03125 L 21.601562 8.1875 C 21.546875 9.367188 21.261719 10.921875 19.980469 11.398438 C 18.871094 11.839844 17.566406 11.148438 17.238281 10.015625 C 16.988281 9.414062 16.964844 8.800781 16.90625 8.1875 L 16.90625 7.03125 C 16.964844 5.851562 17.214844 4.289062 18.484375 3.765625 L 18.539062 3.742188 L 18.585938 3.734375 L 18.644531 3.710938 L 18.8125 3.664062 L 18.914062 3.640625 L 19.039062 3.640625 L 19.0625 3.628906 Z M 19.449219 3.628906 Z M 19.097656 4.320312 C 18.144531 4.4375 17.859375 5.582031 17.792969 6.351562 L 17.792969 6.65625 L 17.769531 6.679688 L 17.769531 8.257812 C 17.835938 9.074219 17.894531 10.128906 18.644531 10.671875 C 19.335938 11.148438 20.253906 10.613281 20.445312 9.878906 C 20.648438 9.332031 20.695312 8.800781 20.742188 8.257812 L 20.742188 6.679688 C 20.671875 5.851562 20.558594 4.695312 19.605469 4.367188 L 19.527344 4.34375 L 19.503906 4.320312 L 19.402344 4.320312 L 19.378906 4.300781 L 19.117188 4.300781 Z M 19.097656 4.320312 Z M 19.097656 4.320312 "/>
<path style="fill:none;stroke-width:0.02;stroke-linecap:butt;stroke-linejoin:miter;stroke:rgb(0%,0%,0%);stroke-opacity:1;stroke-miterlimit:10;" d="M 11.644561 1.777288 L 11.49463 1.777288 " transform="matrix(28.346457,0,0,-28.346457,1,256.11811)"/>
<path style="fill:none;stroke-width:0.02;stroke-linecap:butt;stroke-linejoin:miter;stroke:rgb(0%,0%,0%);stroke-opacity:1;stroke-miterlimit:10;" d="M 11.644561 2.942558 L 11.49463 2.942558 " transform="matrix(28.346457,0,0,-28.346457,1,256.11811)"/>
<path style="fill:none;stroke-width:0.02;stroke-linecap:butt;stroke-linejoin:miter;stroke:rgb(0%,0%,0%);stroke-opacity:1;stroke-miterlimit:10;" d="M 11.644561 4.107827 L 11.49463 4.107827 " transform="matrix(28.346457,0,0,-28.346457,1,256.11811)"/>
<path style="fill:none;stroke-width:0.02;stroke-linecap:butt;stroke-linejoin:miter;stroke:rgb(0%,0%,0%);stroke-opacity:1;stroke-miterlimit:10;" d="M 11.644561 5.273096 L 11.49463 5.273096 " transform="matrix(28.346457,0,0,-28.346457,1,256.11811)"/>
<path style="fill:none;stroke-width:0.02;stroke-linecap:butt;stroke-linejoin:miter;stroke:rgb(0%,0%,0%);stroke-opacity:1;stroke-miterlimit:10;" d="M 11.644561 6.438365 L 11.49463 6.438365 " transform="matrix(28.346457,0,0,-28.346457,1,256.11811)"/>
<path style="fill:none;stroke-width:0.02;stroke-linecap:butt;stroke-linejoin:miter;stroke:rgb(0%,0%,0%);stroke-opacity:1;stroke-miterlimit:10;" d="M 11.644561 7.603772 L 11.49463 7.603772 " transform="matrix(28.346457,0,0,-28.346457,1,256.11811)"/>
<path style="fill:none;stroke-width:0.02;stroke-linecap:round;stroke-linejoin:miter;stroke:rgb(0%,0%,0%);stroke-opacity:1;stroke-miterlimit:10;" d="M 11.644561 0.612019 L 11.644561 8.769041 " transform="matrix(28.346457,0,0,-28.346457,1,256.11811)"/>
<path style="fill:none;stroke-width:0.02;stroke-linecap:butt;stroke-linejoin:miter;stroke:rgb(0%,0%,0%);stroke-opacity:1;stroke-miterlimit:10;" d="M 2.325302 0.612019 L 2.325302 0.76195 " transform="matrix(28.346457,0,0,-28.346457,1,256.11811)"/>
<path style="fill:none;stroke-width:0.02;stroke-linecap:butt;stroke-linejoin:miter;stroke:rgb(0%,0%,0%);stroke-opacity:1;stroke-miterlimit:10;" d="M 3.656624 0.612019 L 3.656624 0.76195 " transform="matrix(28.346457,0,0,-28.346457,1,256.11811)"/>
<path style="fill:none;stroke-width:0.02;stroke-linecap:butt;stroke-linejoin:miter;stroke:rgb(0%,0%,0%);stroke-opacity:1;stroke-miterlimit:10;" d="M 4.987947 0.612019 L 4.987947 0.76195 " transform="matrix(28.346457,0,0,-28.346457,1,256.11811)"/>
<path style="fill:none;stroke-width:0.02;stroke-linecap:butt;stroke-linejoin:miter;stroke:rgb(0%,0%,0%);stroke-opacity:1;stroke-miterlimit:10;" d="M 6.31927 0.612019 L 6.31927 0.76195 " transform="matrix(28.346457,0,0,-28.346457,1,256.11811)"/>
<path style="fill:none;stroke-width:0.02;stroke-linecap:butt;stroke-linejoin:miter;stroke:rgb(0%,0%,0%);stroke-opacity:1;stroke-miterlimit:10;" d="M 7.650592 0.612019 L 7.650592 0.76195 " transform="matrix(28.346457,0,0,-28.346457,1,256.11811)"/>
<path style="fill:none;stroke-width:0.02;stroke-linecap:butt;stroke-linejoin:miter;stroke:rgb(0%,0%,0%);stroke-opacity:1;stroke-miterlimit:10;" d="M 8.981915 0.612019 L 8.981915 0.76195 " transform="matrix(28.346457,0,0,-28.346457,1,256.11811)"/>
<path style="fill:none;stroke-width:0.02;stroke-linecap:butt;stroke-linejoin:miter;stroke:rgb(0%,0%,0%);stroke-opacity:1;stroke-miterlimit:10;" d="M 10.313238 0.612019 L 10.313238 0.76195 " transform="matrix(28.346457,0,0,-28.346457,1,256.11811)"/>
<path style="fill:none;stroke-width:0.02;stroke-linecap:round;stroke-linejoin:miter;stroke:rgb(0%,0%,0%);stroke-opacity:1;stroke-miterlimit:10;" d="M 0.993979 0.612019 L 11.644561 0.612019 " transform="matrix(28.346457,0,0,-28.346457,1,256.11811)"/>
<path style=" stroke:none;fill-rule:nonzero;fill:rgb(0%,0%,0%);fill-opacity:1;" d="M 23.15625 250.484375 L 23.15625 251.117188 L 20.183594 251.117188 L 20.183594 250.484375 Z M 23.15625 250.484375 Z M 23.15625 250.484375 "/>
<path style=" stroke:none;fill-rule:nonzero;fill:rgb(0%,0%,0%);fill-opacity:1;" d="M 26.726562 245.652344 C 28.042969 245.6875 29.085938 247.035156 28.882812 248.304688 C 28.746094 249.574219 27.554688 250.300781 26.703125 251.09375 L 26.339844 251.46875 L 26.296875 251.492188 L 25.84375 251.933594 L 25.808594 251.957031 L 25.355469 252.410156 L 25.308594 252.433594 L 25.207031 252.535156 L 25.230469 252.546875 L 28.902344 252.546875 L 28.902344 253.292969 L 24.414062 253.292969 L 24.414062 252.613281 L 26.238281 250.789062 C 27.113281 250.027344 28.132812 249.042969 27.972656 247.796875 C 27.882812 247.070312 27.273438 246.402344 26.523438 246.34375 C 25.761719 246.230469 25.09375 246.832031 24.925781 247.558594 L 24.902344 247.589844 L 24.878906 247.671875 L 24.84375 247.796875 L 24.777344 248.046875 L 24.765625 248.101562 C 24.605469 247.910156 24.4375 247.703125 24.3125 247.488281 C 24.539062 246.558594 25.289062 245.6875 26.273438 245.652344 Z M 26.726562 245.652344 Z M 26.726562 245.652344 "/>
<path style=" stroke:none;fill-rule:nonzero;fill:rgb(0%,0%,0%);fill-opacity:1;" d="M 31.535156 252.386719 L 31.535156 253.292969 L 30.617188 253.292969 L 30.617188 252.386719 Z M 31.535156 252.386719 Z M 31.535156 252.386719 "/>
<path style=" stroke:none;fill-rule:nonzero;fill:rgb(0%,0%,0%);fill-opacity:1;" d="M 35.660156 245.652344 C 36.738281 245.730469 37.453125 246.71875 37.644531 247.714844 C 37.75 248.167969 37.769531 248.601562 37.816406 249.054688 L 37.816406 250.210938 C 37.757812 251.390625 37.476562 252.941406 36.195312 253.417969 C 35.082031 253.863281 33.78125 253.171875 33.449219 252.035156 C 33.203125 251.433594 33.179688 250.824219 33.121094 250.210938 L 33.121094 249.054688 C 33.179688 247.875 33.429688 246.308594 34.699219 245.789062 L 34.753906 245.765625 L 34.800781 245.753906 L 34.855469 245.730469 L 35.027344 245.6875 L 35.128906 245.664062 L 35.253906 245.664062 L 35.277344 245.652344 Z M 35.660156 245.652344 Z M 35.3125 246.34375 C 34.359375 246.457031 34.074219 247.601562 34.007812 248.375 L 34.007812 248.679688 L 33.984375 248.703125 L 33.984375 250.277344 C 34.050781 251.09375 34.109375 252.148438 34.855469 252.695312 C 35.546875 253.171875 36.46875 252.636719 36.660156 251.898438 C 36.863281 251.355469 36.910156 250.824219 36.953125 250.277344 L 36.953125 248.703125 C 36.886719 247.875 36.773438 246.71875 35.820312 246.390625 L 35.742188 246.367188 L 35.71875 246.34375 L 35.617188 246.34375 L 35.59375 246.320312 L 35.332031 246.320312 Z M 35.3125 246.34375 Z M 35.3125 246.34375 "/>
<path style=" stroke:none;fill-rule:nonzero;fill:rgb(0%,0%,0%);fill-opacity:1;" d="M 60.894531 250.484375 L 60.894531 251.117188 L 57.921875 251.117188 L 57.921875 250.484375 Z M 60.894531 250.484375 Z M 60.894531 250.484375 "/>
<path style=" stroke:none;fill-rule:nonzero;fill:rgb(0%,0%,0%);fill-opacity:1;" d="M 64.941406 245.652344 L 64.941406 252.648438 L 64.953125 252.671875 L 66.347656 252.671875 L 66.347656 253.292969 L 62.664062 253.292969 L 62.664062 252.671875 L 64.058594 252.671875 L 64.082031 252.648438 L 64.082031 246.773438 C 63.605469 246.933594 63.105469 247.035156 62.605469 247.023438 L 62.605469 246.390625 C 63.355469 246.402344 64.171875 246.195312 64.738281 245.652344 Z M 64.941406 245.652344 Z M 64.941406 245.652344 "/>
<path style=" stroke:none;fill-rule:nonzero;fill:rgb(0%,0%,0%);fill-opacity:1;" d="M 69.273438 252.386719 L 69.273438 253.292969 L 68.355469 253.292969 L 68.355469 252.386719 Z M 69.273438 252.386719 Z M 69.273438 252.386719 "/>
<path style=" stroke:none;fill-rule:nonzero;fill:rgb(0%,0%,0%);fill-opacity:1;" d="M 75.078125 245.890625 L 75.078125 246.59375 L 72.128906 246.59375 L 72.109375 246.605469 L 72.109375 248.929688 C 72.378906 248.746094 72.765625 248.511719 73.128906 248.5 C 74.410156 248.363281 75.394531 249.621094 75.453125 250.789062 C 75.632812 252.273438 74.238281 253.75 72.742188 253.523438 C 71.996094 253.5 71.269531 253.058594 70.835938 252.445312 C 70.960938 252.273438 71.066406 251.980469 71.210938 251.878906 C 71.746094 252.921875 73.46875 253.339844 74.160156 252.242188 C 74.601562 251.414062 74.589844 250.359375 74.082031 249.5625 C 73.492188 248.804688 72.324219 249.269531 72.050781 250.074219 L 71.3125 250.074219 L 71.3125 245.890625 Z M 75.078125 245.890625 Z M 75.078125 245.890625 "/>
<path style=" stroke:none;fill-rule:nonzero;fill:rgb(0%,0%,0%);fill-opacity:1;" d="M 98.632812 250.484375 L 98.632812 251.117188 L 95.660156 251.117188 L 95.660156 250.484375 Z M 98.632812 250.484375 Z M 98.632812 250.484375 "/>
<path style=" stroke:none;fill-rule:nonzero;fill:rgb(0%,0%,0%);fill-opacity:1;" d="M 102.679688 245.652344 L 102.679688 252.648438 L 102.691406 252.671875 L 104.085938 252.671875 L 104.085938 253.292969 L 100.402344 253.292969 L 100.402344 252.671875 L 101.796875 252.671875 L 101.820312 252.648438 L 101.820312 246.773438 C 101.34375 246.933594 100.84375 247.035156 100.34375 247.023438 L 100.34375 246.390625 C 101.09375 246.402344 101.910156 246.195312 102.476562 245.652344 Z M 102.679688 245.652344 Z M 102.679688 245.652344 "/>
<path style=" stroke:none;fill-rule:nonzero;fill:rgb(0%,0%,0%);fill-opacity:1;" d="M 107.011719 252.386719 L 107.011719 253.292969 L 106.09375 253.292969 L 106.09375 252.386719 Z M 107.011719 252.386719 Z M 107.011719 252.386719 "/>
<path style=" stroke:none;fill-rule:nonzero;fill:rgb(0%,0%,0%);fill-opacity:1;" d="M 111.140625 245.652344 C 112.214844 245.730469 112.929688 246.71875 113.121094 247.714844 C 113.226562 248.167969 113.246094 248.601562 113.292969 249.054688 L 113.292969 250.210938 C 113.238281 251.390625 112.953125 252.941406 111.671875 253.417969 C 110.558594 253.863281 109.257812 253.171875 108.925781 252.035156 C 108.679688 251.433594 108.65625 250.824219 108.597656 250.210938 L 108.597656 249.054688 C 108.65625 247.875 108.90625 246.308594 110.175781 245.789062 L 110.230469 245.765625 L 110.277344 245.753906 L 110.332031 245.730469 L 110.503906 245.6875 L 110.605469 245.664062 L 110.730469 245.664062 L 110.753906 245.652344 Z M 111.140625 245.652344 Z M 110.789062 246.34375 C 109.835938 246.457031 109.550781 247.601562 109.484375 248.375 L 109.484375 248.679688 L 109.460938 248.703125 L 109.460938 250.277344 C 109.527344 251.09375 109.585938 252.148438 110.332031 252.695312 C 111.023438 253.171875 111.945312 252.636719 112.136719 251.898438 C 112.339844 251.355469 112.386719 250.824219 112.429688 250.277344 L 112.429688 248.703125 C 112.363281 247.875 112.25 246.71875 111.296875 246.390625 L 111.21875 246.367188 L 111.195312 246.34375 L 111.09375 246.34375 L 111.070312 246.320312 L 110.808594 246.320312 Z M 110.789062 246.34375 Z M 110.789062 246.34375 "/>
<path style=" stroke:none;fill-rule:nonzero;fill:rgb(0%,0%,0%);fill-opacity:1;" d="M 136.371094 250.484375 L 136.371094 251.117188 L 133.398438 251.117188 L 133.398438 250.484375 Z M 136.371094 250.484375 Z M 136.371094 250.484375 "/>
<path style=" stroke:none;fill-rule:nonzero;fill:rgb(0%,0%,0%);fill-opacity:1;" d="M 140.066406 245.652344 C 141.144531 245.730469 141.859375 246.71875 142.050781 247.714844 C 142.152344 248.167969 142.175781 248.601562 142.222656 249.054688 L 142.222656 250.210938 C 142.164062 251.390625 141.882812 252.941406 140.601562 253.417969 C 139.488281 253.863281 138.183594 253.171875 137.855469 252.035156 C 137.605469 251.433594 137.582031 250.824219 137.527344 250.210938 L 137.527344 249.054688 C 137.582031 247.875 137.832031 246.308594 139.101562 245.789062 L 139.160156 245.765625 L 139.207031 245.753906 L 139.261719 245.730469 L 139.433594 245.6875 L 139.535156 245.664062 L 139.660156 245.664062 L 139.679688 245.652344 Z M 140.066406 245.652344 Z M 139.714844 246.34375 C 138.761719 246.457031 138.480469 247.601562 138.410156 248.375 L 138.410156 248.679688 L 138.390625 248.703125 L 138.390625 250.277344 C 138.457031 251.09375 138.511719 252.148438 139.261719 252.695312 C 139.953125 253.171875 140.871094 252.636719 141.066406 251.898438 C 141.269531 251.355469 141.3125 250.824219 141.359375 250.277344 L 141.359375 248.703125 C 141.292969 247.875 141.179688 246.71875 140.226562 246.390625 L 140.144531 246.367188 L 140.125 246.34375 L 140.023438 246.34375 L 140 246.320312 L 139.738281 246.320312 Z M 139.714844 246.34375 Z M 139.714844 246.34375 "/>
<path style=" stroke:none;fill-rule:nonzero;fill:rgb(0%,0%,0%);fill-opacity:1;" d="M 144.75 252.386719 L 144.75 253.292969 L 143.832031 253.292969 L 143.832031 252.386719 Z M 144.75 252.386719 Z M 144.75 252.386719 "/>
<path style=" stroke:none;fill-rule:nonzero;fill:rgb(0%,0%,0%);fill-opacity:1;" d="M 150.554688 245.890625 L 150.554688 246.59375 L 147.605469 246.59375 L 147.585938 246.605469 L 147.585938 248.929688 C 147.855469 248.746094 148.242188 248.511719 148.605469 248.5 C 149.886719 248.363281 150.871094 249.621094 150.929688 250.789062 C 151.109375 252.273438 149.714844 253.75 148.21875 253.523438 C 147.472656 253.5 146.746094 253.058594 146.316406 252.445312 C 146.4375 252.273438 146.542969 251.980469 146.6875 251.878906 C 147.222656 252.921875 148.945312 253.339844 149.636719 252.242188 C 150.078125 251.414062 150.066406 250.359375 149.558594 249.5625 C 148.96875 248.804688 147.800781 249.269531 147.527344 250.074219 L 146.789062 250.074219 L 146.789062 245.890625 Z M 150.554688 245.890625 Z M 150.554688 245.890625 "/>
<path style=" stroke:none;fill-rule:nonzero;fill:rgb(0%,0%,0%);fill-opacity:1;" d="M 175.917969 245.652344 C 176.996094 245.730469 177.707031 246.71875 177.902344 247.714844 C 178.003906 248.167969 178.027344 248.601562 178.070312 249.054688 L 178.070312 250.210938 C 178.015625 251.390625 177.730469 252.941406 176.449219 253.417969 C 175.339844 253.863281 174.035156 253.171875 173.707031 252.035156 C 173.457031 251.433594 173.433594 250.824219 173.378906 250.210938 L 173.378906 249.054688 C 173.433594 247.875 173.683594 246.308594 174.953125 245.789062 L 175.011719 245.765625 L 175.054688 245.753906 L 175.113281 245.730469 L 175.28125 245.6875 L 175.382812 245.664062 L 175.507812 245.664062 L 175.53125 245.652344 Z M 175.917969 245.652344 Z M 175.566406 246.34375 C 174.613281 246.457031 174.332031 247.601562 174.261719 248.375 L 174.261719 248.679688 L 174.238281 248.703125 L 174.238281 250.277344 C 174.308594 251.09375 174.363281 252.148438 175.113281 252.695312 C 175.804688 253.171875 176.722656 252.636719 176.914062 251.898438 C 177.121094 251.355469 177.164062 250.824219 177.210938 250.277344 L 177.210938 248.703125 C 177.140625 247.875 177.027344 246.71875 176.078125 246.390625 L 175.996094 246.367188 L 175.972656 246.34375 L 175.871094 246.34375 L 175.847656 246.320312 L 175.589844 246.320312 Z M 175.566406 246.34375 Z M 175.566406 246.34375 "/>
<path style=" stroke:none;fill-rule:nonzero;fill:rgb(0%,0%,0%);fill-opacity:1;" d="M 180.601562 252.386719 L 180.601562 253.292969 L 179.683594 253.292969 L 179.683594 252.386719 Z M 180.601562 252.386719 Z M 180.601562 252.386719 "/>
<path style=" stroke:none;fill-rule:nonzero;fill:rgb(0%,0%,0%);fill-opacity:1;" d="M 184.726562 245.652344 C 185.804688 245.730469 186.519531 246.71875 186.710938 247.714844 C 186.8125 248.167969 186.835938 248.601562 186.882812 249.054688 L 186.882812 250.210938 C 186.824219 251.390625 186.542969 252.941406 185.261719 253.417969 C 184.148438 253.863281 182.84375 253.171875 182.515625 252.035156 C 182.265625 251.433594 182.246094 250.824219 182.1875 250.210938 L 182.1875 249.054688 C 182.246094 247.875 182.492188 246.308594 183.765625 245.789062 L 183.820312 245.765625 L 183.867188 245.753906 L 183.921875 245.730469 L 184.09375 245.6875 L 184.195312 245.664062 L 184.320312 245.664062 L 184.34375 245.652344 Z M 184.726562 245.652344 Z M 184.375 246.34375 C 183.421875 246.457031 183.140625 247.601562 183.070312 248.375 L 183.070312 248.679688 L 183.050781 248.703125 L 183.050781 250.277344 C 183.117188 251.09375 183.175781 252.148438 183.921875 252.695312 C 184.613281 253.171875 185.53125 252.636719 185.726562 251.898438 C 185.929688 251.355469 185.976562 250.824219 186.019531 250.277344 L 186.019531 248.703125 C 185.953125 247.875 185.839844 246.71875 184.886719 246.390625 L 184.808594 246.367188 L 184.785156 246.34375 L 184.683594 246.34375 L 184.660156 246.320312 L 184.398438 246.320312 Z M 184.375 246.34375 Z M 184.375 246.34375 "/>
<path style=" stroke:none;fill-rule:nonzero;fill:rgb(0%,0%,0%);fill-opacity:1;" d="M 213.65625 245.652344 C 214.734375 245.730469 215.449219 246.71875 215.640625 247.714844 C 215.742188 248.167969 215.765625 248.601562 215.808594 249.054688 L 215.808594 250.210938 C 215.753906 251.390625 215.46875 252.941406 214.1875 253.417969 C 213.078125 253.863281 211.773438 253.171875 211.445312 252.035156 C 211.195312 251.433594 211.171875 250.824219 211.117188 250.210938 L 211.117188 249.054688 C 211.171875 247.875 211.421875 246.308594 212.691406 245.789062 L 212.75 245.765625 L 212.792969 245.753906 L 212.851562 245.730469 L 213.019531 245.6875 L 213.121094 245.664062 L 213.246094 245.664062 L 213.269531 245.652344 Z M 213.65625 245.652344 Z M 213.304688 246.34375 C 212.351562 246.457031 212.070312 247.601562 212 248.375 L 212 248.679688 L 211.976562 248.703125 L 211.976562 250.277344 C 212.046875 251.09375 212.101562 252.148438 212.851562 252.695312 C 213.542969 253.171875 214.460938 252.636719 214.652344 251.898438 C 214.859375 251.355469 214.902344 250.824219 214.949219 250.277344 L 214.949219 248.703125 C 214.878906 247.875 214.765625 246.71875 213.816406 246.390625 L 213.734375 246.367188 L 213.710938 246.34375 L 213.609375 246.34375 L 213.585938 246.320312 L 213.328125 246.320312 Z M 213.304688 246.34375 Z M 213.304688 246.34375 "/>
<path style=" stroke:none;fill-rule:nonzero;fill:rgb(0%,0%,0%);fill-opacity:1;" d="M 218.339844 252.386719 L 218.339844 253.292969 L 217.421875 253.292969 L 217.421875 252.386719 Z M 218.339844 252.386719 Z M 218.339844 252.386719 "/>
<path style=" stroke:none;fill-rule:nonzero;fill:rgb(0%,0%,0%);fill-opacity:1;" d="M 224.144531 245.890625 L 224.144531 246.59375 L 221.195312 246.59375 L 221.171875 246.605469 L 221.171875 248.929688 C 221.445312 248.746094 221.832031 248.511719 222.195312 248.5 C 223.476562 248.363281 224.460938 249.621094 224.519531 250.789062 C 224.699219 252.273438 223.304688 253.75 221.808594 253.523438 C 221.058594 253.5 220.335938 253.058594 219.902344 252.445312 C 220.027344 252.273438 220.128906 251.980469 220.277344 251.878906 C 220.808594 252.921875 222.535156 253.339844 223.226562 252.242188 C 223.667969 251.414062 223.65625 250.359375 223.144531 249.5625 C 222.554688 248.804688 221.390625 249.269531 221.117188 250.074219 L 220.378906 250.074219 L 220.378906 245.890625 Z M 224.144531 245.890625 Z M 224.144531 245.890625 "/>
<path style=" stroke:none;fill-rule:nonzero;fill:rgb(0%,0%,0%);fill-opacity:1;" d="M 251.746094 245.652344 L 251.746094 252.648438 L 251.757812 252.671875 L 253.152344 252.671875 L 253.152344 253.292969 L 249.464844 253.292969 L 249.464844 252.671875 L 250.859375 252.671875 L 250.882812 252.648438 L 250.882812 246.773438 C 250.40625 246.933594 249.910156 247.035156 249.410156 247.023438 L 249.410156 246.390625 C 250.160156 246.402344 250.976562 246.195312 251.542969 245.652344 Z M 251.746094 245.652344 Z M 251.746094 245.652344 "/>
<path style=" stroke:none;fill-rule:nonzero;fill:rgb(0%,0%,0%);fill-opacity:1;" d="M 256.078125 252.386719 L 256.078125 253.292969 L 255.160156 253.292969 L 255.160156 252.386719 Z M 256.078125 252.386719 Z M 256.078125 252.386719 "/>
<path style=" stroke:none;fill-rule:nonzero;fill:rgb(0%,0%,0%);fill-opacity:1;" d="M 260.203125 245.652344 C 261.28125 245.730469 261.996094 246.71875 262.1875 247.714844 C 262.289062 248.167969 262.3125 248.601562 262.359375 249.054688 L 262.359375 250.210938 C 262.300781 251.390625 262.019531 252.941406 260.738281 253.417969 C 259.625 253.863281 258.320312 253.171875 257.992188 252.035156 C 257.742188 251.433594 257.722656 250.824219 257.664062 250.210938 L 257.664062 249.054688 C 257.722656 247.875 257.96875 246.308594 259.242188 245.789062 L 259.296875 245.765625 L 259.34375 245.753906 L 259.398438 245.730469 L 259.570312 245.6875 L 259.671875 245.664062 L 259.796875 245.664062 L 259.820312 245.652344 Z M 260.203125 245.652344 Z M 259.851562 246.34375 C 258.898438 246.457031 258.617188 247.601562 258.546875 248.375 L 258.546875 248.679688 L 258.527344 248.703125 L 258.527344 250.277344 C 258.59375 251.09375 258.652344 252.148438 259.398438 252.695312 C 260.089844 253.171875 261.007812 252.636719 261.203125 251.898438 C 261.40625 251.355469 261.453125 250.824219 261.496094 250.277344 L 261.496094 248.703125 C 261.429688 247.875 261.316406 246.71875 260.363281 246.390625 L 260.285156 246.367188 L 260.261719 246.34375 L 260.160156 246.34375 L 260.136719 246.320312 L 259.875 246.320312 Z M 259.851562 246.34375 Z M 259.851562 246.34375 "/>
<path style=" stroke:none;fill-rule:nonzero;fill:rgb(0%,0%,0%);fill-opacity:1;" d="M 289.484375 245.652344 L 289.484375 252.648438 L 289.496094 252.671875 L 290.890625 252.671875 L 290.890625 253.292969 L 287.203125 253.292969 L 287.203125 252.671875 L 288.597656 252.671875 L 288.621094 252.648438 L 288.621094 246.773438 C 288.144531 246.933594 287.648438 247.035156 287.148438 247.023438 L 287.148438 246.390625 C 287.898438 246.402344 288.714844 246.195312 289.28125 245.652344 Z M 289.484375 245.652344 Z M 289.484375 245.652344 "/>
<path style=" stroke:none;fill-rule:nonzero;fill:rgb(0%,0%,0%);fill-opacity:1;" d="M 293.816406 252.386719 L 293.816406 253.292969 L 292.898438 253.292969 L 292.898438 252.386719 Z M 293.816406 252.386719 Z M 293.816406 252.386719 "/>
<path style=" stroke:none;fill-rule:nonzero;fill:rgb(0%,0%,0%);fill-opacity:1;" d="M 299.621094 245.890625 L 299.621094 246.59375 L 296.671875 246.59375 L 296.648438 246.605469 L 296.648438 248.929688 C 296.921875 248.746094 297.308594 248.511719 297.671875 248.5 C 298.953125 248.363281 299.9375 249.621094 299.996094 250.789062 C 300.175781 252.273438 298.78125 253.75 297.285156 253.523438 C 296.535156 253.5 295.8125 253.058594 295.378906 252.445312 C 295.503906 252.273438 295.605469 251.980469 295.753906 251.878906 C 296.289062 252.921875 298.011719 253.339844 298.703125 252.242188 C 299.144531 251.414062 299.132812 250.359375 298.621094 249.5625 C 298.035156 248.804688 296.867188 249.269531 296.59375 250.074219 L 295.855469 250.074219 L 295.855469 245.890625 Z M 299.621094 245.890625 Z M 299.621094 245.890625 "/>
<path style=" stroke:none;fill-rule:nonzero;fill:rgb(0%,0%,0%);fill-opacity:1;" d="M 326.746094 245.652344 C 328.0625 245.6875 329.105469 247.035156 328.902344 248.304688 C 328.765625 249.574219 327.574219 250.300781 326.722656 251.09375 L 326.359375 251.46875 L 326.316406 251.492188 L 325.863281 251.933594 L 325.828125 251.957031 L 325.375 252.410156 L 325.328125 252.433594 L 325.226562 252.535156 L 325.25 252.546875 L 328.921875 252.546875 L 328.921875 253.292969 L 324.433594 253.292969 L 324.433594 252.613281 L 326.257812 250.789062 C 327.132812 250.027344 328.152344 249.042969 327.992188 247.796875 C 327.902344 247.070312 327.289062 246.402344 326.542969 246.34375 C 325.78125 246.230469 325.113281 246.832031 324.941406 247.558594 L 324.921875 247.589844 L 324.898438 247.671875 L 324.863281 247.796875 L 324.796875 248.046875 L 324.785156 248.101562 C 324.625 247.910156 324.457031 247.703125 324.332031 247.488281 C 324.558594 246.558594 325.304688 245.6875 326.292969 245.652344 Z M 326.746094 245.652344 Z M 326.746094 245.652344 "/>
<path style=" stroke:none;fill-rule:nonzero;fill:rgb(0%,0%,0%);fill-opacity:1;" d="M 331.554688 252.386719 L 331.554688 253.292969 L 330.636719 253.292969 L 330.636719 252.386719 Z M 331.554688 252.386719 Z M 331.554688 252.386719 "/>
<path style=" stroke:none;fill-rule:nonzero;fill:rgb(0%,0%,0%);fill-opacity:1;" d="M 335.679688 245.652344 C 336.757812 245.730469 337.472656 246.71875 337.664062 247.714844 C 337.765625 248.167969 337.789062 248.601562 337.835938 249.054688 L 337.835938 250.210938 C 337.777344 251.390625 337.496094 252.941406 336.214844 253.417969 C 335.101562 253.863281 333.796875 253.171875 333.46875 252.035156 C 333.21875 251.433594 333.199219 250.824219 333.140625 250.210938 L 333.140625 249.054688 C 333.199219 247.875 333.445312 246.308594 334.71875 245.789062 L 334.773438 245.765625 L 334.820312 245.753906 L 334.875 245.730469 L 335.046875 245.6875 L 335.148438 245.664062 L 335.273438 245.664062 L 335.296875 245.652344 Z M 335.679688 245.652344 Z M 335.328125 246.34375 C 334.378906 246.457031 334.09375 247.601562 334.027344 248.375 L 334.027344 248.679688 L 334.003906 248.703125 L 334.003906 250.277344 C 334.070312 251.09375 334.128906 252.148438 334.875 252.695312 C 335.566406 253.171875 336.484375 252.636719 336.679688 251.898438 C 336.882812 251.355469 336.929688 250.824219 336.972656 250.277344 L 336.972656 248.703125 C 336.90625 247.875 336.792969 246.71875 335.839844 246.390625 L 335.761719 246.367188 L 335.738281 246.34375 L 335.636719 246.34375 L 335.613281 246.320312 L 335.351562 246.320312 Z M 335.328125 246.34375 Z M 335.328125 246.34375 "/>
<path style="fill:none;stroke-width:0.02;stroke-linecap:butt;stroke-linejoin:miter;stroke:rgb(0%,0%,0%);stroke-opacity:1;stroke-miterlimit:10;" d="M 2.325302 8.769041 L 2.325302 8.618972 " transform="matrix(28.346457,0,0,-28.346457,1,256.11811)"/>
<path style="fill:none;stroke-width:0.02;stroke-linecap:butt;stroke-linejoin:miter;stroke:rgb(0%,0%,0%);stroke-opacity:1;stroke-miterlimit:10;" d="M 3.656624 8.769041 L 3.656624 8.618972 " transform="matrix(28.346457,0,0,-28.346457,1,256.11811)"/>
<path style="fill:none;stroke-width:0.02;stroke-linecap:butt;stroke-linejoin:miter;stroke:rgb(0%,0%,0%);stroke-opacity:1;stroke-miterlimit:10;" d="M 4.987947 8.769041 L 4.987947 8.618972 " transform="matrix(28.346457,0,0,-28.346457,1,256.11811)"/>
<path style="fill:none;stroke-width:0.02;stroke-linecap:butt;stroke-linejoin:miter;stroke:rgb(0%,0%,0%);stroke-opacity:1;stroke-miterlimit:10;" d="M 6.31927 8.769041 L 6.31927 8.618972 " transform="matrix(28.346457,0,0,-28.346457,1,256.11811)"/>
<path style="fill:none;stroke-width:0.02;stroke-linecap:butt;stroke-linejoin:miter;stroke:rgb(0%,0%,0%);stroke-opacity:1;stroke-miterlimit:10;" d="M 7.650592 8.769041 L 7.650592 8.618972 " transform="matrix(28.346457,0,0,-28.346457,1,256.11811)"/>
<path style="fill:none;stroke-width:0.02;stroke-linecap:butt;stroke-linejoin:miter;stroke:rgb(0%,0%,0%);stroke-opacity:1;stroke-miterlimit:10;" d="M 8.981915 8.769041 L 8.981915 8.618972 " transform="matrix(28.346457,0,0,-28.346457,1,256.11811)"/>
<path style="fill:none;stroke-width:0.02;stroke-linecap:butt;stroke-linejoin:miter;stroke:rgb(0%,0%,0%);stroke-opacity:1;stroke-miterlimit:10;" d="M 10.313238 8.769041 L 10.313238 8.618972 " transform="matrix(28.346457,0,0,-28.346457,1,256.11811)"/>
<path style="fill:none;stroke-width:0.02;stroke-linecap:round;stroke-linejoin:miter;stroke:rgb(0%,0%,0%);stroke-opacity:1;stroke-miterlimit:10;" d="M 0.993979 8.769041 L 11.644561 8.769041 " transform="matrix(28.346457,0,0,-28.346457,1,256.11811)"/>
<path style="fill:none;stroke-width:0.05;stroke-linecap:butt;stroke-linejoin:miter;stroke:rgb(39.215686%,58.431373%,92.941176%);stroke-opacity:1;stroke-miterlimit:10;" d="M 0.993979 2.942558 L 1.029808 2.903008 L 1.065775 2.863183 L 1.101604 2.822806 L 1.137433 2.782016 L 1.173262 2.741088 L 1.209229 2.699885 L 1.245058 2.658544 L 1.280887 2.617065 L 1.352544 2.534383 L 1.388511 2.493179 L 1.42434 2.452114 L 1.460169 2.411324 L 1.495998 2.370947 L 1.531965 2.330984 L 1.567794 2.291434 L 1.603623 2.252712 L 1.639452 2.214402 L 1.675419 2.176782 L 1.711248 2.140264 L 1.747077 2.104297 L 1.782906 2.069295 L 1.818735 2.035533 L 1.854702 2.002735 L 1.890531 1.971041 L 1.92636 1.940724 L 1.962189 1.911647 L 1.998155 1.883811 L 2.033984 1.857766 L 2.069813 1.832961 L 2.105642 1.809672 L 2.141471 1.788313 L 2.177438 1.768469 L 2.213267 1.750417 L 2.249096 1.734294 L 2.284925 1.719962 L 2.320892 1.70756 L 2.356721 1.697224 L 2.39255 1.688956 L 2.428379 1.682755 L 2.464346 1.678759 L 2.500175 1.676967 L 2.536004 1.677381 L 2.571833 1.680137 L 2.607662 1.685235 L 2.643628 1.692677 L 2.679457 1.702599 L 2.715286 1.714863 L 2.751115 1.729608 L 2.787082 1.746972 L 2.822911 1.766678 L 2.85874 1.789002 L 2.894569 1.813806 L 2.930536 1.841229 L 2.966365 1.871271 L 3.002194 1.90393 L 3.038023 1.93907 L 3.073852 1.976828 L 3.109819 2.017205 L 3.145648 2.0602 L 3.181477 2.105813 L 3.217306 2.153906 L 3.253273 2.204618 L 3.289102 2.25781 L 3.324931 2.313483 L 3.36076 2.371636 L 3.396726 2.432408 L 3.432555 2.495384 L 3.468384 2.560979 L 3.504213 2.628778 L 3.540042 2.69892 L 3.576009 2.771405 L 3.611838 2.846233 L 3.647667 2.922989 L 3.683496 3.001951 L 3.719463 3.083117 L 3.755292 3.166075 L 3.791121 3.251238 L 3.82695 3.338192 L 3.862917 3.4268 L 3.898746 3.517337 L 3.934575 3.609528 L 3.970404 3.703235 L 4.006233 3.798595 L 4.042199 3.895333 L 4.078028 3.993312 L 4.113857 4.092806 L 4.149686 4.193403 L 4.185653 4.294964 L 4.221482 4.397628 L 4.257311 4.501394 L 4.29314 4.605712 L 4.328969 4.710856 L 4.364936 4.816689 L 4.400765 4.922936 L 4.436594 5.029872 L 4.472423 5.137083 L 4.50839 5.244433 L 4.580048 5.459131 L 4.615877 5.566618 L 4.651844 5.673967 L 4.687673 5.781041 L 4.723502 5.887563 L 4.759331 5.993672 L 4.79516 6.099367 L 4.831126 6.203961 L 4.866955 6.30814 L 4.902784 6.411217 L 4.938613 6.513192 L 4.97458 6.614202 L 5.010409 6.71411 L 5.046238 6.812364 L 5.082067 6.909378 L 5.118034 7.005014 L 5.153863 7.098721 L 5.189692 7.190911 L 5.225521 7.281311 L 5.26135 7.369643 L 5.297317 7.456184 L 5.333146 7.54052 L 5.368975 7.622651 L 5.404804 7.702577 L 5.44077 7.780161 L 5.476599 7.855264 L 5.512428 7.927886 L 5.548257 7.998028 L 5.584224 8.065414 L 5.620053 8.130044 L 5.655882 8.192056 L 5.691711 8.251036 L 5.72754 8.307122 L 5.763507 8.360315 L 5.799336 8.410337 L 5.835165 8.457329 L 5.870994 8.50115 L 5.906961 8.541802 L 5.94279 8.579285 L 5.978619 8.61346 L 6.014448 8.644191 L 6.050277 8.671751 L 6.086243 8.695867 L 6.122072 8.716538 L 6.157901 8.733901 L 6.19373 8.747681 L 6.229697 8.758154 L 6.265526 8.765044 L 6.301355 8.768627 L 6.337184 8.768627 L 6.373151 8.765044 L 6.40898 8.758154 L 6.444809 8.747681 L 6.480638 8.733901 L 6.516467 8.716538 L 6.552434 8.695867 L 6.588263 8.671751 L 6.624092 8.644191 L 6.659921 8.61346 L 6.695888 8.579285 L 6.731717 8.541802 L 6.767546 8.50115 L 6.803375 8.457329 L 6.839341 8.410337 L 6.87517 8.360315 L 6.910999 8.307122 L 6.946828 8.251036 L 6.982657 8.192056 L 7.018624 8.130044 L 7.054453 8.065414 L 7.090282 7.998028 L 7.126111 7.927886 L 7.162078 7.855264 L 7.197907 7.780161 L 7.233736 7.702577 L 7.269565 7.622651 L 7.305532 7.54052 L 7.341361 7.456184 L 7.37719 7.369643 L 7.413019 7.281311 L 7.448848 7.190911 L 7.484814 7.098721 L 7.520643 7.005014 L 7.556472 6.909378 L 7.592301 6.812364 L 7.628268 6.71411 L 7.664097 6.614202 L 7.699926 6.513192 L 7.735755 6.411217 L 7.771722 6.30814 L 7.807551 6.203961 L 7.84338 6.099367 L 7.879209 5.993672 L 7.915038 5.887563 L 7.951005 5.781041 L 7.986834 5.673967 L 8.022663 5.566618 L 8.058492 5.459131 L 8.094459 5.351782 L 8.166117 5.137083 L 8.201946 5.029872 L 8.237775 4.922936 L 8.273741 4.816689 L 8.30957 4.710856 L 8.345399 4.605712 L 8.381228 4.501394 L 8.417195 4.397628 L 8.453024 4.294964 L 8.488853 4.193403 L 8.524682 4.092806 L 8.560649 3.993312 L 8.596478 3.895333 L 8.632307 3.798595 L 8.668136 3.703235 L 8.703965 3.609528 L 8.739932 3.517337 L 8.775761 3.4268 L 8.81159 3.338192 L 8.847419 3.251238 L 8.883385 3.166075 L 8.919214 3.083117 L 8.955043 3.001951 L 8.990872 2.922989 L 9.026839 2.846233 L 9.062668 2.771405 L 9.098497 2.69892 L 9.134326 2.628778 L 9.170155 2.560979 L 9.206122 2.495384 L 9.241951 2.432408 L 9.27778 2.371636 L 9.313609 2.313483 L 9.349576 2.25781 L 9.385405 2.204618 L 9.421234 2.153906 L 9.457063 2.105813 L 9.49303 2.0602 L 9.528859 2.017205 L 9.564687 1.976828 L 9.600516 1.93907 L 9.636345 1.90393 L 9.672312 1.871271 L 9.708141 1.841229 L 9.74397 1.813806 L 9.779799 1.789002 L 9.815766 1.766678 L 9.851595 1.746972 L 9.887424 1.729608 L 9.923253 1.714863 L 9.95922 1.702599 L 9.995049 1.692677 L 10.030878 1.685235 L 10.066707 1.680137 L 10.102536 1.677381 L 10.138503 1.676967 L 10.174332 1.678759 L 10.210161 1.682755 L 10.24599 1.688956 L 10.281956 1.697224 L 10.317785 1.70756 L 10.353614 1.719962 L 10.389443 1.734294 L 10.425272 1.750417 L 10.461239 1.768469 L 10.497068 1.788313 L 10.532897 1.809672 L 10.568726 1.832961 L 10.604693 1.857766 L 10.640522 1.883811 L 10.676351 1.911647 L 10.71218 1.940724 L 10.748147 1.971041 L 10.783976 2.002735 L 10.819805 2.035533 L 10.855634 2.069295 L 10.891463 2.104297 L 10.927429 2.140264 L 10.963258 2.176782 L 10.999087 2.214402 L 11.034916 2.252712 L 11.070883 2.291434 L 11.106712 2.330984 L 11.142541 2.370947 L 11.17837 2.411324 L 11.214337 2.452114 L 11.250166 2.493179 L 11.285995 2.534383 L 11.357653 2.617065 L 11.39362 2.658544 L 11.429449 2.699885 L 11.465278 2.741088 L 11.501107 2.782016 L 11.537074 2.822806 L 11.572903 2.863183 L 11.608732 2.903008 L 11.644561 2.942558 " transform="matrix(28.346457,0,0,-28.346457,1,256.11811)"/>
<path style="fill:none;stroke-width:0.05;stroke-linecap:butt;stroke-linejoin:miter;stroke:rgb(13.333333%,54.509804%,13.333333%);stroke-opacity:1;stroke-miterlimit:10;" d="M 0.993979 2.942558 L 1.029808 2.902732 L 1.065775 2.863183 L 1.101604 2.823771 L 1.137433 2.784634 L 1.173262 2.745911 L 1.209229 2.707602 L 1.245058 2.670671 L 1.280887 2.635806 L 1.316715 2.601906 L 1.352544 2.570074 L 1.388511 2.540997 L 1.42434 2.513988 L 1.460169 2.489459 L 1.495998 2.468375 L 1.531965 2.450047 L 1.567794 2.434888 L 1.603623 2.423588 L 1.639452 2.415596 L 1.675419 2.411186 L 1.711248 2.410635 L 1.747077 2.413942 L 1.782906 2.421108 L 1.818735 2.432132 L 1.854702 2.447015 L 1.890531 2.465756 L 1.92636 2.488081 L 1.962189 2.514263 L 1.998155 2.544029 L 2.033984 2.576688 L 2.069813 2.613069 L 2.105642 2.652343 L 2.141471 2.693959 L 2.177438 2.738746 L 2.213267 2.785599 L 2.249096 2.83383 L 2.284925 2.884404 L 2.320892 2.936632 L 2.356721 2.989135 L 2.39255 3.041914 L 2.428379 3.095106 L 2.464346 3.148574 L 2.500175 3.201766 L 2.536004 3.253719 L 2.571833 3.304293 L 2.607662 3.353764 L 2.643628 3.401169 L 2.679457 3.445541 L 2.715286 3.487709 L 2.751115 3.526984 L 2.787082 3.561986 L 2.822911 3.593956 L 2.85874 3.621793 L 2.894569 3.644944 L 2.930536 3.663685 L 2.966365 3.677879 L 3.002194 3.686698 L 3.038023 3.690419 L 3.073852 3.689041 L 3.109819 3.681875 L 3.145648 3.669335 L 3.181477 3.65142 L 3.217306 3.627856 L 3.253273 3.598504 L 3.289102 3.564053 L 3.324931 3.524365 L 3.36076 3.479028 L 3.396726 3.428867 L 3.432555 3.374435 L 3.468384 3.314766 L 3.504213 3.2511 L 3.540042 3.184128 L 3.576009 3.112883 L 3.611838 3.038607 L 3.647667 2.962539 L 3.683496 2.883164 L 3.719463 2.801584 L 3.791121 2.637873 L 3.82695 2.555604 L 3.862917 2.473336 L 3.898746 2.391067 L 3.934575 2.311003 L 3.970404 2.23397 L 4.006233 2.158454 L 4.042199 2.086382 L 4.078028 2.01941 L 4.113857 1.955744 L 4.149686 1.897178 L 4.185653 1.845363 L 4.221482 1.798786 L 4.257311 1.758823 L 4.29314 1.727128 L 4.328969 1.702185 L 4.364936 1.685235 L 4.400765 1.677794 L 4.436594 1.678483 L 4.472423 1.688405 L 4.50839 1.708524 L 4.544219 1.738014 L 4.580048 1.777288 L 4.615877 1.827173 L 4.651844 1.887256 L 4.687673 1.957536 L 4.723502 2.038289 L 4.759331 2.129515 L 4.79516 2.230801 L 4.831126 2.342008 L 4.866955 2.463551 L 4.902784 2.594741 L 4.938613 2.734612 L 4.97458 2.884266 L 5.010409 3.042465 L 5.046238 3.207968 L 5.082067 3.382289 L 5.118034 3.563502 L 5.153863 3.750226 L 5.189692 3.944116 L 5.225521 4.143242 L 5.26135 4.345676 L 5.297317 4.553346 L 5.333146 4.765013 L 5.368975 4.977369 L 5.404804 5.190551 L 5.44077 5.404974 L 5.476599 5.619948 L 5.512428 5.834371 L 5.548257 6.046313 L 5.584224 6.255224 L 5.620053 6.462343 L 5.655882 6.664914 L 5.691711 6.860596 L 5.72754 7.052005 L 5.763507 7.236938 L 5.799336 7.412776 L 5.835165 7.581861 L 5.870994 7.742265 L 5.906961 7.891644 L 5.94279 8.032066 L 5.978619 8.161877 L 6.014448 8.279286 L 6.050277 8.385671 L 6.086243 8.480066 L 6.122072 8.560819 L 6.157901 8.62917 L 6.19373 8.684429 L 6.229697 8.725633 L 6.265526 8.753331 L 6.301355 8.767387 L 6.337184 8.767387 L 6.373151 8.753331 L 6.40898 8.725633 L 6.444809 8.684429 L 6.480638 8.62917 L 6.516467 8.560819 L 6.552434 8.480066 L 6.588263 8.385671 L 6.624092 8.279286 L 6.659921 8.161877 L 6.695888 8.032066 L 6.731717 7.891644 L 6.767546 7.742265 L 6.803375 7.581861 L 6.839341 7.412776 L 6.87517 7.236938 L 6.910999 7.052005 L 6.946828 6.860596 L 6.982657 6.664914 L 7.018624 6.462343 L 7.054453 6.255224 L 7.090282 6.046313 L 7.126111 5.834371 L 7.162078 5.619948 L 7.197907 5.404974 L 7.233736 5.190551 L 7.269565 4.977369 L 7.305532 4.765013 L 7.341361 4.553346 L 7.37719 4.345676 L 7.413019 4.143242 L 7.448848 3.944116 L 7.484814 3.750226 L 7.520643 3.563502 L 7.556472 3.382289 L 7.592301 3.207968 L 7.628268 3.042465 L 7.664097 2.884266 L 7.699926 2.734612 L 7.735755 2.594741 L 7.771722 2.463551 L 7.807551 2.342008 L 7.84338 2.230801 L 7.879209 2.129515 L 7.915038 2.038289 L 7.951005 1.957536 L 7.986834 1.887256 L 8.022663 1.827173 L 8.058492 1.777288 L 8.094459 1.738014 L 8.130288 1.708524 L 8.166117 1.688405 L 8.201946 1.678483 L 8.237775 1.677794 L 8.273741 1.685235 L 8.30957 1.702185 L 8.345399 1.727128 L 8.381228 1.758823 L 8.417195 1.798786 L 8.453024 1.845363 L 8.488853 1.897178 L 8.524682 1.955744 L 8.560649 2.01941 L 8.596478 2.086382 L 8.632307 2.158454 L 8.668136 2.23397 L 8.703965 2.311003 L 8.739932 2.391067 L 8.847419 2.637873 L 8.883385 2.719729 L 8.919214 2.801584 L 8.955043 2.883164 L 8.990872 2.962539 L 9.026839 3.038607 L 9.062668 3.112883 L 9.098497 3.184128 L 9.134326 3.2511 L 9.170155 3.314766 L 9.206122 3.374435 L 9.241951 3.428867 L 9.27778 3.479028 L 9.313609 3.524365 L 9.349576 3.564053 L 9.385405 3.598504 L 9.421234 3.627856 L 9.457063 3.65142 L 9.49303 3.669335 L 9.528859 3.681875 L 9.564687 3.689041 L 9.600516 3.690419 L 9.636345 3.686698 L 9.672312 3.677879 L 9.708141 3.663685 L 9.74397 3.644944 L 9.779799 3.621793 L 9.815766 3.593956 L 9.851595 3.561986 L 9.887424 3.526984 L 9.923253 3.487709 L 9.95922 3.445541 L 9.995049 3.401169 L 10.030878 3.353764 L 10.066707 3.304293 L 10.102536 3.253719 L 10.138503 3.201766 L 10.174332 3.148574 L 10.210161 3.095106 L 10.24599 3.041914 L 10.281956 2.989135 L 10.317785 2.936632 L 10.353614 2.884404 L 10.389443 2.83383 L 10.425272 2.785599 L 10.461239 2.738746 L 10.497068 2.693959 L 10.532897 2.652343 L 10.568726 2.613069 L 10.604693 2.576688 L 10.640522 2.544029 L 10.676351 2.514263 L 10.71218 2.488081 L 10.748147 2.465756 L 10.783976 2.447015 L 10.819805 2.432132 L 10.855634 2.421108 L 10.891463 2.413942 L 10.927429 2.410635 L 10.963258 2.411186 L 10.999087 2.415596 L 11.034916 2.423588 L 11.070883 2.434888 L 11.106712 2.450047 L 11.142541 2.468375 L 11.17837 2.489459 L 11.214337 2.513988 L 11.250166 2.540997 L 11.285995 2.570074 L 11.321824 2.601906 L 11.357653 2.635806 L 11.39362 2.670671 L 11.429449 2.707602 L 11.465278 2.745911 L 11.501107 2.784634 L 11.537074 2.823771 L 11.572903 2.863183 L 11.608732 2.902732 L 11.644561 2.942558 " transform="matrix(28.346457,0,0,-28.346457,1,256.11811)"/>
<path style="fill:none;stroke-width:0.05;stroke-linecap:butt;stroke-linejoin:miter;stroke:rgb(29.411765%,0%,50.980392%);stroke-opacity:1;stroke-miterlimit:10;" d="M 0.993979 2.942558 L 1.029808 2.902319 L 1.065775 2.863458 L 1.101604 2.825286 L 1.137433 2.788631 L 1.173262 2.753766 L 1.209229 2.72028 L 1.245058 2.690377 L 1.280887 2.665158 L 1.316715 2.643248 L 1.352544 2.625747 L 1.388511 2.613758 L 1.42434 2.60673 L 1.460169 2.604663 L 1.495998 2.608245 L 1.531965 2.617616 L 1.567794 2.632086 L 1.603623 2.651516 L 1.639452 2.676734 L 1.675419 2.706362 L 1.711248 2.739435 L 1.747077 2.777606 L 1.782906 2.819361 L 1.818735 2.862493 L 1.854702 2.907555 L 1.890531 2.954546 L 1.92636 3.001951 L 1.962189 3.048942 L 1.998155 3.094555 L 2.033984 3.13879 L 2.069813 3.182061 L 2.105642 3.22161 L 2.141471 3.255786 L 2.177438 3.286791 L 2.213267 3.312836 L 2.249096 3.332267 L 2.284925 3.346461 L 2.320892 3.354591 L 2.356721 3.355693 L 2.39255 3.349906 L 2.428379 3.337917 L 2.464346 3.319451 L 2.500175 3.293682 L 2.536004 3.262125 L 2.571833 3.225607 L 2.607662 3.182336 L 2.643628 3.134656 L 2.679457 3.08422 L 2.715286 3.028961 L 2.751115 2.970532 L 2.787082 2.911965 L 2.822911 2.853536 L 2.85874 2.795383 L 2.894569 2.737505 L 2.930536 2.679903 L 2.966365 2.626298 L 3.002194 2.57848 L 3.038023 2.533969 L 3.073852 2.494833 L 3.109819 2.463689 L 3.145648 2.438471 L 3.181477 2.420694 L 3.217306 2.411875 L 3.253273 2.411186 L 3.289102 2.418627 L 3.324931 2.435026 L 3.36076 2.460795 L 3.396726 2.494282 L 3.432555 2.535485 L 3.468384 2.585646 L 3.504213 2.642421 L 3.540042 2.704157 L 3.576009 2.773472 L 3.611838 2.8483 L 3.647667 2.924367 L 3.683496 3.001951 L 3.719463 3.081326 L 3.755292 3.161528 L 3.791121 3.240903 L 3.82695 3.316557 L 3.862917 3.387939 L 3.898746 3.456566 L 3.934575 3.518164 L 3.970404 3.569978 L 4.006233 3.61504 L 4.042199 3.651007 L 4.078028 3.674571 L 4.113857 3.688076 L 4.149686 3.690419 L 4.185653 3.67967 L 4.221482 3.656243 L 4.257311 3.621241 L 4.29314 3.573975 L 4.328969 3.513341 L 4.364936 3.441821 L 4.400765 3.36093 L 4.436594 3.267499 L 4.472423 3.165524 L 4.50839 3.058451 L 4.544219 2.942558 L 4.580048 2.820463 L 4.615877 2.697818 L 4.651844 2.575724 L 4.687673 2.454594 L 4.723502 2.334154 L 4.759331 2.214402 L 4.79516 2.102919 L 4.831126 2.003976 L 4.866955 1.911647 L 4.902784 1.831445 L 4.938613 1.769296 L 4.97458 1.719962 L 5.010409 1.687578 L 5.046238 1.677243 L 5.082067 1.685235 L 5.118034 1.713761 L 5.153863 1.766402 L 5.189692 1.841229 L 5.225521 1.938381 L 5.26135 2.059373 L 5.297317 2.204618 L 5.333146 2.371498 L 5.368975 2.559601 L 5.404804 2.771405 L 5.44077 3.002502 L 5.476599 3.249309 L 5.512428 3.517337 L 5.548257 3.799559 L 5.584224 4.090601 L 5.620053 4.397628 L 5.655882 4.715404 L 5.691711 5.033455 L 5.72754 5.351782 L 5.763507 5.670522 L 5.799336 5.9894 L 5.835165 6.30814 L 5.870994 6.615856 L 5.906961 6.907587 L 5.94279 7.190911 L 5.978619 7.458251 L 6.014448 7.701475 L 6.050277 7.927886 L 6.086243 8.131974 L 6.122072 8.306709 L 6.157901 8.457329 L 6.19373 8.580663 L 6.229697 8.671889 L 6.265526 8.733901 L 6.301355 8.766009 L 6.337184 8.766009 L 6.373151 8.733901 L 6.40898 8.671889 L 6.444809 8.580663 L 6.480638 8.457329 L 6.516467 8.306709 L 6.552434 8.131974 L 6.588263 7.927886 L 6.624092 7.701475 L 6.659921 7.458251 L 6.695888 7.190911 L 6.731717 6.907587 L 6.767546 6.615856 L 6.803375 6.30814 L 6.839341 5.9894 L 6.87517 5.670522 L 6.910999 5.351782 L 6.946828 5.033455 L 6.982657 4.715404 L 7.018624 4.397628 L 7.054453 4.090601 L 7.090282 3.799559 L 7.126111 3.517337 L 7.162078 3.249309 L 7.197907 3.002502 L 7.233736 2.771405 L 7.269565 2.559601 L 7.305532 2.371498 L 7.341361 2.204618 L 7.37719 2.059373 L 7.413019 1.938381 L 7.448848 1.841229 L 7.484814 1.766402 L 7.520643 1.713761 L 7.556472 1.685235 L 7.592301 1.677243 L 7.628268 1.687578 L 7.664097 1.719962 L 7.699926 1.769296 L 7.735755 1.831445 L 7.771722 1.911647 L 7.807551 2.003976 L 7.84338 2.102919 L 7.879209 2.214402 L 7.915038 2.334154 L 7.951005 2.454594 L 7.986834 2.575724 L 8.022663 2.697818 L 8.058492 2.820463 L 8.094459 2.942558 L 8.130288 3.058451 L 8.166117 3.165524 L 8.201946 3.267499 L 8.237775 3.36093 L 8.273741 3.441821 L 8.30957 3.513341 L 8.345399 3.573975 L 8.381228 3.621241 L 8.417195 3.656243 L 8.453024 3.67967 L 8.488853 3.690419 L 8.524682 3.688076 L 8.560649 3.674571 L 8.596478 3.651007 L 8.632307 3.61504 L 8.668136 3.569978 L 8.703965 3.518164 L 8.739932 3.456566 L 8.775761 3.387939 L 8.81159 3.316557 L 8.847419 3.240903 L 8.883385 3.161528 L 8.919214 3.081326 L 8.955043 3.001951 L 8.990872 2.924367 L 9.026839 2.8483 L 9.062668 2.773472 L 9.098497 2.704157 L 9.134326 2.642421 L 9.170155 2.585646 L 9.206122 2.535485 L 9.241951 2.494282 L 9.27778 2.460795 L 9.313609 2.435026 L 9.349576 2.418627 L 9.385405 2.411186 L 9.421234 2.411875 L 9.457063 2.420694 L 9.49303 2.438471 L 9.528859 2.463689 L 9.564687 2.494833 L 9.600516 2.533969 L 9.636345 2.57848 L 9.672312 2.626298 L 9.708141 2.679903 L 9.74397 2.737505 L 9.779799 2.795383 L 9.815766 2.853536 L 9.851595 2.911965 L 9.887424 2.970532 L 9.923253 3.028961 L 9.95922 3.08422 L 9.995049 3.134656 L 10.030878 3.182336 L 10.066707 3.225607 L 10.102536 3.262125 L 10.138503 3.293682 L 10.174332 3.319451 L 10.210161 3.337917 L 10.24599 3.349906 L 10.281956 3.355693 L 10.317785 3.354591 L 10.353614 3.346461 L 10.389443 3.332267 L 10.425272 3.312836 L 10.461239 3.286791 L 10.497068 3.255786 L 10.532897 3.22161 L 10.568726 3.182061 L 10.604693 3.13879 L 10.640522 3.094555 L 10.676351 3.048942 L 10.71218 3.001951 L 10.748147 2.954546 L 10.783976 2.907555 L 10.819805 2.862493 L 10.855634 2.819361 L 10.891463 2.777606 L 10.927429 2.739435 L 10.963258 2.706362 L 10.999087 2.676734 L 11.034916 2.651516 L 11.070883 2.632086 L 11.106712 2.617616 L 11.142541 2.608245 L 11.17837 2.604663 L 11.214337 2.60673 L 11.250166 2.613758 L 11.285995 2.625747 L 11.321824 2.643248 L 11.357653 2.665158 L 11.39362 2.690377 L 11.429449 2.72028 L 11.465278 2.753766 L 11.501107 2.788631 L 11.537074 2.825286 L 11.572903 2.863458 L 11.608732 2.902319 L 11.644561 2.942558 " transform="matrix(28.346457,0,0,-28.346457,1,256.11811)"/>
<path style="fill:none;stroke-width:0.05;stroke-linecap:butt;stroke-linejoin:miter;stroke:rgb(50%,70%,20%);stroke-opacity:1;stroke-miterlimit:10;" d="M 0.993979 2.942558 L 1.029808 2.901768 L 1.065775 2.863734 L 1.101604 2.827491 L 1.137433 2.794005 L 1.173262 2.764102 L 1.209229 2.73723 L 1.245058 2.716284 L 1.280887 2.703054 L 1.316715 2.696026 L 1.352544 2.695337 L 1.388511 2.701952 L 1.42434 2.716559 L 1.460169 2.737092 L 1.495998 2.762861 L 1.531965 2.796348 L 1.567794 2.835071 L 1.603623 2.875447 L 1.639452 2.917477 L 1.675419 2.961574 L 1.711248 3.006636 L 1.747077 3.050871 L 1.782906 3.091523 L 1.818735 3.128455 L 1.854702 3.16263 L 1.890531 3.190742 L 1.92636 3.210173 L 1.962189 3.222988 L 1.998155 3.228914 L 2.033984 3.225882 L 2.069813 3.213893 L 2.105642 3.195014 L 2.141471 3.169107 L 2.177438 3.134105 L 2.213267 3.092764 L 2.249096 3.048529 L 2.284925 3.000435 L 2.320892 2.948896 L 2.356721 2.896118 L 2.39255 2.844441 L 2.428379 2.795521 L 2.464346 2.749357 L 2.500175 2.705122 L 2.536004 2.667777 L 2.571833 2.640078 L 2.607662 2.61927 L 2.643628 2.606454 L 2.679457 2.604387 L 2.715286 2.61238 L 2.751115 2.628916 L 2.787082 2.65441 L 2.822911 2.690928 L 2.85874 2.735025 L 2.894569 2.783945 L 2.930536 2.839894 L 2.966365 2.901492 L 3.002194 2.963779 L 3.038023 3.025515 L 3.073852 3.08546 L 3.109819 3.144302 L 3.145648 3.201904 L 3.181477 3.252065 L 3.217306 3.291063 L 3.253273 3.323034 L 3.289102 3.345909 L 3.324931 3.355418 L 3.36076 3.353488 L 3.396726 3.340948 L 3.432555 3.316557 L 3.468384 3.278661 L 3.504213 3.231394 L 3.540042 3.176824 L 3.576009 3.109851 L 3.611838 3.034748 L 3.647667 2.959232 L 3.683496 2.883302 L 3.719463 2.806683 L 3.755292 2.729651 L 3.791121 2.653032 L 3.82695 2.584543 L 3.862917 2.528181 L 3.898746 2.47871 L 3.934575 2.4404 L 3.970404 2.418765 L 4.006233 2.410497 L 4.042199 2.415871 L 4.078028 2.437644 L 4.113857 2.476505 L 4.149686 2.528457 L 4.185653 2.592122 L 4.221482 2.672875 L 4.257311 2.765617 L 4.29314 2.861942 L 4.328969 2.962263 L 4.364936 3.067132 L 4.400765 3.174344 L 4.436594 3.27935 L 4.472423 3.376226 L 4.50839 3.463732 L 4.544219 3.544898 L 4.580048 3.610768 L 4.615877 3.654728 L 4.651844 3.68284 L 4.687673 3.692348 L 4.723502 3.677741 L 4.759331 3.64012 L 4.79516 3.582932 L 4.831126 3.505211 L 4.866955 3.402133 L 4.902784 3.281279 L 4.938613 3.149263 L 4.97458 3.000849 L 5.010409 2.83948 L 5.046238 2.675494 L 5.082067 2.513712 L 5.118034 2.356478 L 5.153863 2.202964 L 5.189692 2.052345 L 5.225521 1.922534 L 5.26135 1.823315 L 5.297317 1.742011 L 5.333146 1.689094 L 5.368975 1.677243 L 5.404804 1.697362 L 5.44077 1.753586 L 5.476599 1.854183 L 5.512428 1.99681 L 5.548257 2.177471 L 5.584224 2.397957 L 5.620053 2.663643 L 5.655882 2.962815 L 5.691711 3.289134 L 5.72754 3.656243 L 5.763507 4.051603 L 5.799336 4.455643 L 5.835165 4.869744 L 5.870994 5.29542 L 5.906961 5.725919 L 5.94279 6.151733 L 5.978619 6.560183 L 6.014448 6.949341 L 6.050277 7.325684 L 6.086243 7.668126 L 6.122072 7.961648 L 6.157901 8.221822 L 6.19373 8.438725 L 6.229697 8.597337 L 6.265526 8.706616 L 6.301355 8.764907 L 6.337184 8.764907 L 6.373151 8.706616 L 6.40898 8.597337 L 6.444809 8.438725 L 6.480638 8.221822 L 6.516467 7.961648 L 6.552434 7.668126 L 6.588263 7.325684 L 6.624092 6.949341 L 6.659921 6.560183 L 6.695888 6.151733 L 6.731717 5.725919 L 6.767546 5.29542 L 6.803375 4.869744 L 6.839341 4.455643 L 6.87517 4.051603 L 6.910999 3.656243 L 6.946828 3.289134 L 6.982657 2.962815 L 7.018624 2.663643 L 7.054453 2.397957 L 7.090282 2.177471 L 7.126111 1.99681 L 7.162078 1.854183 L 7.197907 1.753586 L 7.233736 1.697362 L 7.269565 1.677243 L 7.305532 1.689094 L 7.341361 1.742011 L 7.37719 1.823315 L 7.413019 1.922534 L 7.448848 2.052345 L 7.484814 2.202964 L 7.520643 2.356478 L 7.556472 2.513712 L 7.592301 2.675494 L 7.628268 2.83948 L 7.664097 3.000849 L 7.699926 3.149263 L 7.735755 3.281279 L 7.771722 3.402133 L 7.807551 3.505211 L 7.84338 3.582932 L 7.879209 3.64012 L 7.915038 3.677741 L 7.951005 3.692348 L 7.986834 3.68284 L 8.022663 3.654728 L 8.058492 3.610768 L 8.094459 3.544898 L 8.130288 3.463732 L 8.166117 3.376226 L 8.201946 3.27935 L 8.237775 3.174344 L 8.273741 3.067132 L 8.30957 2.962263 L 8.345399 2.861942 L 8.381228 2.765617 L 8.417195 2.672875 L 8.453024 2.592122 L 8.488853 2.528457 L 8.524682 2.476505 L 8.560649 2.437644 L 8.596478 2.415871 L 8.632307 2.410497 L 8.668136 2.418765 L 8.703965 2.4404 L 8.739932 2.47871 L 8.775761 2.528181 L 8.81159 2.584543 L 8.847419 2.653032 L 8.883385 2.729651 L 8.919214 2.806683 L 8.955043 2.883302 L 8.990872 2.959232 L 9.026839 3.034748 L 9.062668 3.109851 L 9.098497 3.176824 L 9.134326 3.231394 L 9.170155 3.278661 L 9.206122 3.316557 L 9.241951 3.340948 L 9.27778 3.353488 L 9.313609 3.355418 L 9.349576 3.345909 L 9.385405 3.323034 L 9.421234 3.291063 L 9.457063 3.252065 L 9.49303 3.201904 L 9.528859 3.144302 L 9.564687 3.08546 L 9.600516 3.025515 L 9.636345 2.963779 L 9.672312 2.901492 L 9.708141 2.839894 L 9.74397 2.783945 L 9.779799 2.735025 L 9.815766 2.690928 L 9.851595 2.65441 L 9.887424 2.628916 L 9.923253 2.61238 L 9.95922 2.604387 L 9.995049 2.606454 L 10.030878 2.61927 L 10.066707 2.640078 L 10.102536 2.667777 L 10.138503 2.705122 L 10.174332 2.749357 L 10.210161 2.795521 L 10.24599 2.844441 L 10.281956 2.896118 L 10.317785 2.948896 L 10.353614 3.000435 L 10.389443 3.048529 L 10.425272 3.092764 L 10.461239 3.134105 L 10.497068 3.169107 L 10.532897 3.195014 L 10.568726 3.213893 L 10.604693 3.225882 L 10.640522 3.228914 L 10.676351 3.222988 L 10.71218 3.210173 L 10.748147 3.190742 L 10.783976 3.16263 L 10.819805 3.128455 L 10.855634 3.091523 L 10.891463 3.050871 L 10.927429 3.006636 L 10.963258 2.961574 L 10.999087 2.917477 L 11.034916 2.875447 L 11.070883 2.835071 L 11.106712 2.796348 L 11.142541 2.762861 L 11.17837 2.737092 L 11.214337 2.716559 L 11.250166 2.701952 L 11.285995 2.695337 L 11.321824 2.696026 L 11.357653 2.703054 L 11.39362 2.716284 L 11.429449 2.73723 L 11.465278 2.764102 L 11.501107 2.794005 L 11.537074 2.827491 L 11.572903 2.863734 L 11.608732 2.901768 L 11.644561 2.942558 " transform="matrix(28.346457,0,0,-28.346457,1,256.11811)"/>
</g>
</svg>
