<svg xmlns="http://www.w3.org/2000/svg" width="456.21" height="342.824" viewBox="0 0 342.157 257.118"><path style="fill:none;stroke-width:.02;stroke-linecap:butt;stroke-linejoin:miter;stroke:#000;stroke-opacity:1;stroke-miterlimit:10" d="M.994 1.777h.15M.994 2.943h.15M.994 4.108h.15M.994 5.273h.15M.994 6.438h.15M.994 7.604h.15" transform="matrix(28.34646 0 0 -28.34646 1 256.118)"/><path style="fill:none;stroke-width:.02;stroke-linecap:round;stroke-linejoin:miter;stroke:#000;stroke-opacity:1;stroke-miterlimit:10" d="M.994.612v8.157" transform="matrix(28.34646 0 0 -28.34646 1 256.118)"/><path style="stroke:none;fill-rule:nonzero;fill:#000;fill-opacity:1" d="M6.941 239.684v.632H3.973v-.632Zm0 0ZM10.637 234.852c1.078.082 1.793 1.066 1.984 2.066.102.453.125.883.172 1.336v1.156c-.059 1.18-.34 2.735-1.621 3.211-1.113.441-2.418-.25-2.746-1.387-.25-.597-.27-1.21-.328-1.824v-1.156c.058-1.18.304-2.742 1.578-3.266l.054-.023.047-.012.055-.02.172-.046.101-.024h.125l.024-.011Zm0 0Zm-.352.691c-.953.113-1.234 1.262-1.305 2.031v.305l-.02.023v1.578c.067.817.126 1.868.872 2.415.691.476 1.61-.06 1.805-.793.203-.547.25-1.079.293-1.622v-1.578c-.067-.828-.18-1.984-1.133-2.312l-.078-.024-.024-.023h-.101l-.024-.02h-.261Zm0 0ZM15.32 241.586v.91h-.918v-.91Zm0 0ZM20.617 235.09v4.773l.02.024h1.125v.68h-1.125l-.02.011v1.918h-.863v-1.918l-.024-.012h-2.992v-.703c.953-1.586 1.907-3.183 2.856-4.773Zm0 0Zm-.84.433c-.226 1.176-.953 2.188-1.496 3.22-.215.374-.5.78-.66 1.144h2.18l.012-.024v-4.34l-.012-.023Zm0 0ZM6.941 206.652v.633H3.973v-.633Zm0 0ZM10.637 201.82c1.078.078 1.793 1.067 1.984 2.063.102.457.125.887.172 1.34v1.156c-.059 1.18-.34 2.734-1.621 3.207-1.113.445-2.418-.246-2.746-1.383-.25-.598-.27-1.21-.328-1.824v-1.156c.058-1.18.304-2.746 1.578-3.266l.054-.023.047-.012.055-.024.172-.043.101-.023h.125l.024-.012Zm0 0Zm-.352.692c-.953.113-1.234 1.258-1.305 2.031v.305l-.02.023v1.574c.067.817.126 1.871.872 2.418.691.477 1.61-.058 1.805-.793.203-.547.25-1.078.293-1.625v-1.574c-.067-.828-.18-1.984-1.133-2.312l-.078-.024-.024-.023h-.101l-.024-.024h-.261Zm0 0ZM15.32 208.555v.91h-.918v-.91Zm0 0ZM19.324 201.82c1.313.035 2.356 1.383 2.153 2.653-.137 1.27-1.325 1.996-2.176 2.789l-.363.375-.047.023-.453.442-.032.023-.453.453-.047.024-.101.101.023.012H21.5v.75h-4.488v-.684l1.824-1.824c.871-.758 1.894-1.746 1.734-2.992-.09-.727-.703-1.395-1.453-1.453-.758-.114-1.426.488-1.597 1.215l-.024.035-.02.078-.105.375-.008.055c-.16-.192-.332-.395-.457-.614.23-.93.977-1.8 1.965-1.836Zm0 0ZM10.637 168.79c1.078.077 1.793 1.065 1.984 2.062.102.453.125.886.172 1.34v1.156c-.059 1.18-.34 2.73-1.621 3.207-1.113.445-2.418-.25-2.746-1.383-.25-.602-.27-1.211-.328-1.824v-1.157c.058-1.18.304-2.746 1.578-3.265l.054-.024.047-.011.055-.024.172-.043.101-.023h.125l.024-.012Zm0 0Zm-.352.69c-.953.114-1.234 1.258-1.305 2.032v.304l-.02.024v1.574c.067.816.126 1.871.872 2.418.691.473 1.61-.059 1.805-.797.203-.543.25-1.074.293-1.62v-1.575c-.067-.828-.18-1.985-1.133-2.313l-.078-.023-.024-.024h-.101l-.024-.023h-.261Zm0 0ZM15.32 175.523v.907h-.918v-.907Zm0 0ZM19.45 168.79c1.073.077 1.788 1.065 1.984 2.062.101.453.125.886.168 1.34v1.156c-.055 1.18-.34 2.73-1.622 3.207-1.109.445-2.414-.25-2.742-1.383-.25-.602-.273-1.211-.332-1.824v-1.157c.059-1.18.309-2.746 1.578-3.265l.055-.024.047-.011.059-.024.168-.043.101-.023h.125l.023-.012Zm0 0Zm-.352.69c-.953.114-1.239 1.258-1.305 2.032v.304l-.023.024v1.574c.066.816.125 1.871.875 2.418.69.473 1.609-.059 1.8-.797.203-.543.25-1.074.297-1.62v-1.575c-.07-.828-.183-1.985-1.137-2.313l-.078-.023-.023-.024h-.102l-.023-.023h-.262Zm0 0ZM10.637 135.758c1.078.078 1.793 1.066 1.984 2.062.102.453.125.887.172 1.34v1.156c-.059 1.18-.34 2.73-1.621 3.207-1.113.442-2.418-.25-2.746-1.382-.25-.602-.27-1.211-.328-1.825v-1.156c.058-1.18.304-2.746 1.578-3.265l.054-.024.047-.012.055-.023.172-.043.101-.023h.125l.024-.012Zm0 0Zm-.352.691c-.953.113-1.234 1.258-1.305 2.031v.305l-.02.024v1.574c.067.816.126 1.87.872 2.414.691.476 1.61-.055 1.805-.793.203-.543.25-1.074.293-1.621v-1.574c-.067-.829-.18-1.985-1.133-2.313l-.078-.023-.024-.024h-.101l-.024-.023h-.261Zm0 0ZM15.32 142.492v.906h-.918v-.906Zm0 0ZM19.324 135.758c1.313.035 2.356 1.383 2.153 2.652-.137 1.27-1.325 1.996-2.176 2.79l-.363.374-.047.024-.453.441-.032.024-.453.453-.047.023-.101.102.023.011H21.5v.746h-4.488v-.68l1.824-1.823c.871-.762 1.894-1.747 1.734-2.993-.09-.726-.703-1.398-1.453-1.453-.758-.113-1.426.488-1.597 1.215l-.024.031-.02.082-.035.125-.07.246-.008.059a4.63 4.63 0 0 1-.457-.613c.23-.93.977-1.801 1.965-1.836Zm0 0ZM10.637 102.727c1.078.078 1.793 1.066 1.984 2.062.102.453.125.883.172 1.34v1.156c-.059 1.18-.34 2.73-1.621 3.207-1.113.442-2.418-.25-2.746-1.383-.25-.601-.27-1.214-.328-1.824v-1.156c.058-1.18.304-2.746 1.578-3.266l.054-.023.047-.012.055-.023.172-.047.101-.02h.125l.024-.011Zm0 0Zm-.352.691c-.953.113-1.234 1.258-1.305 2.027v.309l-.02.023v1.575c.067.816.126 1.87.872 2.414.691.476 1.61-.055 1.805-.793.203-.543.25-1.078.293-1.621v-1.575c-.067-.828-.18-1.984-1.133-2.316l-.078-.02-.024-.023h-.101l-.024-.023h-.261Zm0 0ZM15.32 109.46v.907h-.918v-.906Zm0 0ZM20.617 102.965v4.773l.02.024h1.125v.68h-1.125l-.02.011v1.914h-.863v-1.914l-.024-.012h-2.992v-.703c.953-1.59 1.907-3.187 2.856-4.773Zm0 0Zm-.84.43c-.226 1.18-.953 2.187-1.496 3.218-.215.375-.5.785-.66 1.149h2.18l.012-.024v-4.343l-.012-.024Zm0 0ZM10.637 69.695c1.078.078 1.793 1.067 1.984 2.063.102.453.125.883.172 1.336v1.16c-.059 1.176-.34 2.73-1.621 3.207-1.113.441-2.418-.25-2.746-1.383-.25-.601-.27-1.215-.328-1.824v-1.16c.058-1.176.304-2.742 1.578-3.266l.054-.02.047-.011.055-.024.172-.046.101-.02h.125l.024-.012Zm0 0Zm-.352.692c-.953.113-1.234 1.258-1.305 2.027v.309l-.02.02v1.577c.067.817.126 1.871.872 2.414.691.477 1.61-.054 1.805-.793.203-.543.25-1.078.293-1.62v-1.579c-.067-.824-.18-1.98-1.133-2.312l-.078-.02-.024-.023h-.101l-.024-.024h-.261Zm0 0ZM15.32 76.43v.906h-.918v-.906Zm0 0ZM20.184 69.695c.296.043.636.078.918.215v.656c-.782-.34-1.801-.386-2.415.309-.542.578-.792 1.438-.816 2.2.66-.876 2.145-1.364 2.95-.454.804.93.94 2.266.577 3.399-.398.91-1.316 1.734-2.335 1.543-1.383-.114-2.008-1.657-2.075-2.836-.261-1.665.137-3.762 1.723-4.715l.023-.012.239-.125.066-.023.035-.024.192-.055.16-.046.101-.02h.125l.024-.012Zm0 0Zm-1.11 3.153c-.988.168-1.304 1.359-1.18 2.164.06.758.352 1.77 1.223 1.925.93.126 1.531-.87 1.555-1.675.047-.817 0-1.746-.715-2.282l-.156-.078-.125-.035-.102-.02-.023-.023h-.453Zm0 0ZM10.637 36.664c1.078.078 1.793 1.063 1.984 2.063.102.453.125.882.172 1.336v1.156c-.059 1.18-.34 2.734-1.621 3.21-1.113.442-2.418-.25-2.746-1.382-.25-.602-.27-1.215-.328-1.828v-1.157c.058-1.18.304-2.742 1.578-3.265l.054-.02.047-.011.055-.024.172-.047.101-.023h.125l.024-.008Zm0 0Zm-.352.691c-.953.114-1.234 1.258-1.305 2.028v.308l-.02.02v1.578c.067.816.126 1.871.872 2.414.691.477 1.61-.055 1.805-.793.203-.543.25-1.078.293-1.62v-1.58c-.067-.827-.18-1.983-1.133-2.312l-.078-.023-.024-.02h-.101l-.024-.023h-.261Zm0 0ZM15.32 43.398v.907h-.918v-.907Zm0 0ZM19.469 36.664c1.203.043 2.336 1.336 1.863 2.54-.207.554-.773.894-1.238 1.132 1.156.34 1.86 1.691 1.34 2.8-.547 1.442-2.61 1.895-3.743.852-1.03-.816-1.066-2.586.079-3.312.171-.18.488-.239.636-.375-.988-.281-1.656-1.426-1.191-2.39.375-.864 1.336-1.34 2.254-1.247Zm0 0Zm-.43.645c-.84.023-1.43.976-1.144 1.722.328 1.293 2.496 1.246 2.742-.078.226-.738-.36-1.621-1.168-1.644l-.02-.012h-.387Zm0 0Zm.023 3.367c-.988.07-1.472 1.246-1.214 2.086.172 1.191 1.87 1.543 2.543.59.644-.872.328-2.438-.84-2.676h-.102l-.023-.024h-.352Zm0 0ZM10.988 3.629v6.996l.012.023h1.395v.625H8.71v-.625h1.394l.024-.023V4.754c-.477.156-.977.262-1.477.25v-.637c.75.012 1.567-.191 2.133-.738Zm0 0ZM15.32 10.367v.906h-.918v-.906Zm0 0ZM19.45 3.629c1.073.082 1.788 1.066 1.984 2.066.101.453.125.883.168 1.336v1.157c-.055 1.18-.34 2.734-1.622 3.21-1.109.442-2.414-.25-2.742-1.382-.25-.602-.273-1.215-.332-1.829V7.032c.059-1.18.309-2.742 1.578-3.265l.055-.024.047-.008.059-.023.168-.047.101-.023h.125l.023-.012Zm0 0Zm-.352.691c-.953.117-1.239 1.262-1.305 2.032v.304l-.023.024v1.578c.066.816.125 1.87.875 2.414.69.476 1.609-.059 1.8-.793.203-.547.25-1.078.297-1.621V6.68c-.07-.828-.183-1.985-1.137-2.313l-.078-.023-.023-.024h-.102l-.023-.02h-.262Zm0 0Zm0 0"/><path style="fill:none;stroke-width:.02;stroke-linecap:butt;stroke-linejoin:miter;stroke:#000;stroke-opacity:1;stroke-miterlimit:10" d="M11.645 1.777h-.15M11.645 2.943h-.15M11.645 4.108h-.15M11.645 5.273h-.15M11.645 6.438h-.15M11.645 7.604h-.15" transform="matrix(28.34646 0 0 -28.34646 1 256.118)"/><path style="fill:none;stroke-width:.02;stroke-linecap:round;stroke-linejoin:miter;stroke:#000;stroke-opacity:1;stroke-miterlimit:10" d="M11.645.612v8.157" transform="matrix(28.34646 0 0 -28.34646 1 256.118)"/><path style="fill:none;stroke-width:.02;stroke-linecap:butt;stroke-linejoin:miter;stroke:#000;stroke-opacity:1;stroke-miterlimit:10" d="M2.77.612v.15M4.544.612v.15M6.32.612v.15M8.094.612v.15M9.87.612v.15" transform="matrix(28.34646 0 0 -28.34646 1 256.118)"/><path style="fill:none;stroke-width:.02;stroke-linecap:round;stroke-linejoin:miter;stroke:#000;stroke-opacity:1;stroke-miterlimit:10" d="M.994.612h10.65" transform="matrix(28.34646 0 0 -28.34646 1 256.118)"/><path style="stroke:none;fill-rule:nonzero;fill:#000;fill-opacity:1" d="M24.965 245.652c1.078.078 1.789 1.067 1.984 2.063.102.453.125.887.168 1.34v1.156c-.055 1.18-.34 2.73-1.62 3.207-1.11.445-2.415-.246-2.743-1.383-.25-.601-.274-1.21-.328-1.824v-1.156c.054-1.18.304-2.746 1.574-3.266l.059-.023.043-.012.058-.024.168-.042.102-.024h.125l.023-.012Zm0 0Zm-.352.692c-.953.113-1.238 1.258-1.304 2.031v.305l-.024.023v1.574c.07.817.125 1.871.875 2.418.692.477 1.61-.058 1.8-.797.204-.543.25-1.074.298-1.62v-1.575c-.07-.828-.184-1.984-1.137-2.312l-.078-.024-.023-.023h-.102l-.023-.024h-.258Zm0 0ZM29.648 252.387v.906h-.921v-.906Zm0 0ZM33.773 245.652c1.079.078 1.793 1.067 1.985 2.063.101.453.125.887.172 1.34v1.156c-.059 1.18-.34 2.73-1.621 3.207-1.114.445-2.418-.246-2.746-1.383-.25-.601-.27-1.21-.329-1.824v-1.156c.059-1.18.305-2.746 1.575-3.266l.058-.023.047-.012.055-.024.172-.042.101-.024h.125l.02-.012Zm0 0Zm-.351.692c-.953.113-1.234 1.258-1.305 2.031v.305l-.02.023v1.574c.067.817.126 1.871.872 2.418.691.477 1.61-.058 1.804-.797.204-.543.247-1.074.293-1.62v-1.575c-.066-.828-.18-1.984-1.132-2.312l-.079-.024-.023-.023h-.102l-.023-.024h-.262Zm0 0ZM75.281 245.652c1.078.078 1.793 1.067 1.985 2.063.101.453.125.887.171 1.34v1.156c-.058 1.18-.34 2.73-1.62 3.207-1.114.445-2.419-.246-2.747-1.383-.25-.601-.273-1.21-.328-1.824v-1.156c.055-1.18.305-2.746 1.574-3.266l.059-.023.047-.012.055-.024.171-.042.102-.024h.125l.02-.012Zm0 0Zm-.351.692c-.953.113-1.235 1.258-1.305 2.031v.305l-.02.023v1.574c.067.817.122 1.871.872 2.418.691.477 1.609-.058 1.804-.797.203-.543.246-1.074.293-1.62v-1.575c-.066-.828-.18-1.984-1.133-2.312l-.082-.024-.02-.023h-.1l-.024-.024h-.262Zm0 0ZM79.965 252.387v.906h-.918v-.906Zm0 0ZM85.77 245.89v.704h-2.95l-.02.011v2.325c.27-.184.657-.418 1.02-.43 1.282-.137 2.266 1.121 2.325 2.29.18 1.483-1.215 2.96-2.711 2.733-.746-.023-1.473-.464-1.903-1.078.121-.172.227-.465.371-.566.535 1.043 2.258 1.46 2.95.363.441-.828.43-1.883-.079-2.68-.59-.757-1.757-.292-2.03.512h-.74v-4.183Zm0 0ZM125.953 245.652v6.996l.008.024h1.394v.621h-3.683v-.621h1.394l.024-.024v-5.875c-.477.16-.977.262-1.473.25v-.632c.746.011 1.563-.196 2.13-.739Zm0 0ZM130.281 252.387v.906h-.918v-.906Zm0 0ZM134.41 245.652c1.078.078 1.793 1.067 1.985 2.063.101.453.125.887.167 1.34v1.156c-.054 1.18-.34 2.73-1.62 3.207-1.11.445-2.415-.246-2.743-1.383-.25-.601-.273-1.21-.328-1.824v-1.156c.055-1.18.305-2.746 1.574-3.266l.059-.023.043-.012.058-.024.168-.042.102-.024H134l.023-.012Zm0 0Zm-.351.692c-.954.113-1.235 1.258-1.305 2.031v.305l-.024.023v1.574c.07.817.125 1.871.875 2.418.692.477 1.61-.058 1.801-.797.207-.543.25-1.074.297-1.62v-1.575c-.07-.828-.183-1.984-1.133-2.312l-.082-.024-.023-.023h-.102l-.023-.024h-.258Zm0 0ZM176.27 245.652v6.996l.011.024h1.395v.621h-3.688v-.621h1.395l.023-.024v-5.875c-.476.16-.972.262-1.472.25v-.632c.746.011 1.562-.196 2.132-.739Zm0 0ZM180.602 252.387v.906h-.918v-.906Zm0 0ZM186.406 245.89v.704h-2.949l-.023.011v2.325c.273-.184.66-.418 1.023-.43 1.281-.137 2.266 1.121 2.324 2.29.18 1.483-1.215 2.96-2.71 2.733-.75-.023-1.473-.464-1.907-1.078.125-.172.227-.465.375-.566.531 1.043 2.258 1.46 2.95.363.44-.828.429-1.883-.083-2.68-.59-.757-1.754-.292-2.027.512h-.738v-4.183Zm0 0ZM226.11 245.652c1.316.036 2.359 1.383 2.156 2.653-.137 1.27-1.328 1.996-2.18 2.789l-.36.375-.046.023-.453.442-.036.023-.453.453-.047.024-.101.101.023.012h3.676v.746h-4.492v-.68l1.824-1.824c.875-.762 1.895-1.746 1.738-2.992-.093-.727-.703-1.395-1.453-1.453-.758-.114-1.43.488-1.597 1.215l-.024.03-.023.083-.035.125-.067.25-.012.055c-.156-.192-.328-.399-.453-.614.227-.93.977-1.8 1.961-1.836Zm0 0ZM230.918 252.387v.906H230v-.906Zm0 0ZM235.047 245.652c1.074.078 1.789 1.067 1.984 2.063.102.453.125.887.168 1.34v1.156c-.054 1.18-.34 2.73-1.62 3.207-1.11.445-2.415-.246-2.743-1.383-.25-.601-.274-1.21-.332-1.824v-1.156c.059-1.18.309-2.746 1.578-3.266l.055-.023.047-.012.058-.024.168-.042.102-.024h.125l.023-.012Zm0 0Zm-.352.692c-.953.113-1.238 1.258-1.304 2.031v.305l-.024.023v1.574c.067.817.125 1.871.875 2.418.692.477 1.61-.058 1.801-.797.203-.543.25-1.074.297-1.62v-1.575c-.07-.828-.184-1.984-1.137-2.312l-.078-.024-.023-.023H235l-.023-.024h-.262Zm0 0ZM276.43 245.652c1.312.036 2.355 1.383 2.152 2.653-.137 1.27-1.324 1.996-2.176 2.789l-.363.375-.047.023-.453.442-.031.023-.457.453-.043.024-.102.101.024.012h3.671v.746h-4.488v-.68l1.824-1.824c.872-.762 1.895-1.746 1.735-2.992-.09-.727-.703-1.395-1.453-1.453-.758-.114-1.426.488-1.598 1.215l-.023.03-.02.083-.105.375-.012.055c-.156-.192-.328-.399-.453-.614.226-.93.976-1.8 1.965-1.836Zm0 0ZM281.234 252.387v.906h-.918v-.906Zm0 0ZM287.043 245.89v.704h-2.95l-.023.011v2.325c.274-.184.657-.418 1.02-.43 1.281-.137 2.27 1.121 2.324 2.29.184 1.483-1.21 2.96-2.707 2.733-.75-.023-1.477-.464-1.906-1.078.125-.172.226-.465.375-.566.531 1.043 2.254 1.46 2.945.363.445-.828.434-1.883-.078-2.68-.59-.757-1.758-.292-2.027.512h-.739v-4.183Zm0 0ZM326.895 245.652c.996.047 2.039.965 1.8 2.02-.113.715-.61 1.305-1.234 1.621 1.008.316 1.793 1.383 1.52 2.437-.274 1.372-1.848 2.133-3.118 1.711-.613-.18-1.238-.566-1.531-1.132.066-.172.043-.465.125-.579.602.883 1.871 1.485 2.867.985 1.09-.692.918-2.707-.398-3.047h-.102l-.02-.023h-1.054v-.68c.645-.012 1.45-.094 1.813-.762.386-.578.351-1.531-.387-1.812-.871-.34-1.95.214-2.278 1.097-.136-.191-.273-.383-.41-.59.465-.835 1.453-1.335 2.407-1.246Zm0 0ZM331.555 252.387v.906h-.918v-.906Zm0 0ZM335.68 245.652c1.078.078 1.793 1.067 1.984 2.063.102.453.125.887.172 1.34v1.156c-.059 1.18-.34 2.73-1.621 3.207-1.113.445-2.418-.246-2.746-1.383-.25-.601-.27-1.21-.328-1.824v-1.156c.058-1.18.304-2.746 1.578-3.266l.054-.023.047-.012.055-.024.172-.042.101-.024h.125l.024-.012Zm0 0Zm-.352.692c-.95.113-1.234 1.258-1.3 2.031v.305l-.024.023v1.574c.066.817.125 1.871.871 2.418.691.477 1.61-.058 1.805-.797.203-.543.25-1.074.293-1.62v-1.575c-.067-.828-.18-1.984-1.133-2.312l-.078-.024-.024-.023h-.101l-.024-.024h-.261Zm0 0Zm0 0"/><path style="fill:none;stroke-width:.02;stroke-linecap:butt;stroke-linejoin:miter;stroke:#000;stroke-opacity:1;stroke-miterlimit:10" d="M2.77 8.769v-.15M4.544 8.769v-.15M6.32 8.769v-.15M8.094 8.769v-.15M9.87 8.769v-.15" transform="matrix(28.34646 0 0 -28.34646 1 256.118)"/><path style="fill:none;stroke-width:.02;stroke-linecap:round;stroke-linejoin:miter;stroke:#000;stroke-opacity:1;stroke-miterlimit:10" d="M.994 8.769h10.65" transform="matrix(28.34646 0 0 -28.34646 1 256.118)"/><path style="fill:none;stroke-width:.05;stroke-linecap:butt;stroke-linejoin:miter;stroke:#5478a3;stroke-opacity:1;stroke-miterlimit:10" d="m.994 8.769.036-.001.035-.003.036-.005.035-.007.035-.008.036-.01.036-.013.035-.014.036-.016.035-.018.036-.02.035-.022.035-.024.036-.025.036-.027.035-.029.036-.03.035-.033.036-.034.035-.037.035-.038.036-.04.036-.04.035-.043.036-.043.035-.046.036-.047.035-.049.036-.05.035-.053.036-.054.035-.055.036-.056.035-.057.036-.058.035-.06.036-.06.035-.062.036-.064.035-.066.036-.067.035-.067.036-.067.035-.069.036-.069.035-.07.036-.07.035-.073.036-.073.035-.075.036-.076.035-.076.036-.076.035-.076.036-.077.035-.076.036-.078.035-.078.036-.078.035-.079.036-.079.035-.08.036-.08.035-.079.036-.08.035-.08.036-.08.035-.08.036-.079.035-.079.036-.079.035-.079.036-.078.035-.079.036-.078.035-.078.036-.077.035-.078.036-.077.035-.078.036-.076.035-.076.036-.074.035-.074.036-.072.035-.072.036-.071.035-.07.036-.07.035-.07.036-.07.035-.067.036-.066.035-.066.036-.063.035-.063.036-.062.035-.061.036-.06.035-.06.036-.058.035-.057.036-.055.035-.054.036-.052.035-.051.036-.05.035-.05.036-.047.035-.046.036-.046.035-.043.036-.043.035-.04.036-.04.035-.038.036-.036.035-.036.036-.033.035-.033.036-.031.035-.03.036-.028.035-.027.036-.025.035-.024.036-.022.035-.021.036-.02.035-.018.036-.016.035-.016.036-.014.035-.012.036-.012.035-.01.036-.008.035-.008.036-.005.035-.004L6 1.68l.035-.002H6.106l.036.001.035.003.036.004.035.005.036.007.035.008.036.01.035.01.036.01.035.012.036.013.035.013.036.015.035.016.036.017.035.018.036.02.035.019.036.02.035.02.036.022.035.022.036.023.035.023.036.025.035.026.036.026.035.027.036.026.035.027.036.027.035.028.036.028.035.029.036.029.035.03.036.03.035.03.036.031.035.03.036.03.035.031.036.03.035.031.036.03.035.03.036.031.035.03.036.03.035.03.036.031.035.03.036.03.035.03.071.06.036.03.035.03.036.027.035.028.036.027.035.027.036.027.035.026.036.026.035.026.036.025.035.024.036.024.035.023.036.022.035.022.036.021.035.021.036.02.035.02.036.02.035.018.036.017.036.017.035.016.035.015.036.014.035.014.036.013.035.013.036.012.036.01.035.011.035.01.036.008.035.008.036.007.035.006.036.006.036.004.035.005.035.003.036.003.035.001.036.002H9.763l.036-.002.035-.002.036-.003.035-.003.035-.004.036-.005.035-.005.036-.006.036-.006.035-.008.036-.008.035-.008.035-.01.036-.01.035-.01.036-.012.036-.01.035-.013.036-.012.035-.013.036-.014.035-.014.035-.015.072-.03.035-.016.036-.016.035-.017.036-.016.035-.017.035-.017.036-.019.036-.018.035-.019.036-.019.035-.019.036-.019.035-.019.036-.02.035-.018.036-.02.035-.02.071-.038.036-.02.035-.02.036-.02.035-.02.036-.019.035-.02.036-.02.035-.02.036-.02" transform="matrix(28.34646 0 0 -28.34646 1 256.118)"/></svg>