<svg xmlns="http://www.w3.org/2000/svg" width="456.21" height="342.824" viewBox="0 0 342.157 257.118"><path style="fill:none;stroke-width:.02;stroke-linecap:butt;stroke-linejoin:miter;stroke:#000;stroke-opacity:1;stroke-miterlimit:10" d="M.994 1.632h.15M.994 2.651h.15M.994 3.67h.15M.994 4.69h.15M.994 5.71h.15M.994 6.73h.15M.994 7.75h.15" transform="matrix(28.34646 0 0 -28.34646 1 256.118)"/><path style="fill:none;stroke-width:.02;stroke-linecap:round;stroke-linejoin:miter;stroke:#000;stroke-opacity:1;stroke-miterlimit:10" d="M.994.612v8.157" transform="matrix(28.34646 0 0 -28.34646 1 256.118)"/><path style="stroke:none;fill-rule:nonzero;fill:#000;fill-opacity:1" d="M6.941 239.684v.632H3.973v-.632Zm0 0ZM10.512 234.852c1.316.035 2.36 1.382 2.156 2.652-.137 1.273-1.328 1.996-2.176 2.793l-.363.371-.047.023-.453.442-.035.023-.453.453-.043.024-.106.101.024.012h3.675v.75H8.2v-.68l1.828-1.828c.871-.758 1.891-1.746 1.735-2.992-.094-.726-.703-1.394-1.453-1.453-.758-.113-1.43.488-1.598 1.215l-.024.035-.023.078-.031.125-.07.25-.012.055c-.156-.192-.328-.395-.453-.613.226-.93.976-1.801 1.96-1.836Zm0 0ZM15.32 241.586v.91h-.918v-.91Zm0 0ZM19.45 234.852c1.073.082 1.788 1.066 1.984 2.066.101.453.125.883.168 1.336v1.156c-.055 1.18-.34 2.735-1.622 3.211-1.109.441-2.414-.25-2.742-1.387-.25-.597-.273-1.21-.332-1.824v-1.156c.059-1.18.309-2.742 1.578-3.266l.055-.023.047-.012.059-.02.168-.046.101-.024h.125l.023-.011Zm0 0Zm-.352.691c-.953.113-1.239 1.262-1.305 2.031v.305l-.023.023v1.578c.066.817.125 1.868.875 2.415.69.476 1.609-.06 1.8-.793.203-.547.25-1.079.297-1.622v-1.578c-.07-.828-.183-1.984-1.137-2.312l-.078-.024-.023-.023h-.102l-.023-.02h-.262Zm0 0ZM6.941 210.781v.633H3.973v-.633Zm0 0ZM10.988 205.95v6.995l.012.024h1.395v.625H8.71v-.625h1.394l.024-.024v-5.87c-.477.155-.977.257-1.477.245v-.632c.75.011 1.567-.196 2.133-.739Zm0 0ZM15.32 212.684v.91h-.918v-.91Zm0 0ZM21.125 206.188v.703H18.18l-.024.011v2.325c.27-.18.657-.418 1.02-.43 1.281-.137 2.27 1.121 2.324 2.289.18 1.484-1.215 2.96-2.71 2.734-.747-.023-1.474-.465-1.903-1.078.125-.172.226-.465.37-.566.536 1.043 2.259 1.46 2.95.363.441-.828.43-1.883-.078-2.676-.59-.761-1.758-.297-2.031.508h-.735v-4.184Zm0 0ZM6.941 181.879v.633H3.973v-.633Zm0 0ZM10.988 177.047v6.996l.012.023h1.395v.621H8.71v-.62h1.394l.024-.024v-5.875c-.477.16-.977.262-1.477.25v-.633c.75.012 1.567-.195 2.133-.738Zm0 0ZM15.32 183.781v.906h-.918v-.906Zm0 0ZM19.45 177.047c1.073.078 1.788 1.066 1.984 2.062.101.453.125.887.168 1.34v1.156c-.055 1.18-.34 2.73-1.622 3.208-1.109.445-2.414-.247-2.742-1.383-.25-.602-.273-1.211-.332-1.825v-1.156c.059-1.18.309-2.746 1.578-3.265l.055-.024.047-.012.059-.023.168-.043.101-.023h.125l.023-.012Zm0 0Zm-.352.691c-.953.114-1.239 1.258-1.305 2.032v.304l-.023.024v1.574c.066.816.125 1.871.875 2.418.69.476 1.609-.059 1.8-.797.203-.543.25-1.074.297-1.621v-1.574c-.07-.828-.183-1.985-1.137-2.313l-.078-.023-.023-.024h-.102l-.023-.023h-.262Zm0 0ZM6.941 152.973v.636H3.973v-.636Zm0 0ZM10.637 148.145c1.078.078 1.793 1.066 1.984 2.062.102.453.125.887.172 1.34v1.156c-.059 1.18-.34 2.73-1.621 3.207-1.113.442-2.418-.25-2.746-1.383-.25-.601-.27-1.21-.328-1.824v-1.156c.058-1.18.304-2.746 1.578-3.266l.054-.023.047-.012.055-.023.172-.043.101-.024h.125l.024-.011Zm0 0Zm-.352.69c-.953.114-1.234 1.259-1.305 2.032v.305l-.02.023v1.575c.067.816.126 1.87.872 2.417.691.473 1.61-.058 1.805-.796.203-.543.25-1.075.293-1.621v-1.575c-.067-.828-.18-1.984-1.133-2.312l-.078-.024-.024-.023h-.101l-.024-.024h-.261Zm0 0ZM15.32 154.879v.906h-.918v-.906Zm0 0ZM21.125 148.383v.703H18.18l-.024.012v2.324c.27-.184.657-.422 1.02-.43 1.281-.137 2.27 1.121 2.324 2.29.18 1.484-1.215 2.956-2.71 2.73-.747-.02-1.474-.465-1.903-1.075.125-.171.226-.464.37-.566.536 1.043 2.259 1.461 2.95.36.441-.825.43-1.88-.078-2.676-.59-.758-1.758-.293-2.031.511h-.735v-4.183Zm0 0ZM10.637 119.242c1.078.078 1.793 1.067 1.984 2.063.102.453.125.886.172 1.34v1.156c-.059 1.18-.34 2.73-1.621 3.207-1.113.441-2.418-.25-2.746-1.383-.25-.602-.27-1.215-.328-1.824v-1.156c.058-1.18.304-2.747 1.578-3.266l.054-.024.047-.011.055-.024.172-.043.101-.023h.125l.024-.012Zm0 0Zm-.352.692c-.953.113-1.234 1.257-1.305 2.027v.309l-.02.023v1.574c.067.817.126 1.871.872 2.414.691.477 1.61-.054 1.805-.793.203-.543.25-1.078.293-1.62v-1.575c-.067-.828-.18-1.984-1.133-2.313l-.078-.023-.024-.023h-.101l-.024-.024h-.261Zm0 0ZM15.32 125.977v.906h-.918v-.906Zm0 0ZM19.45 119.242c1.073.078 1.788 1.067 1.984 2.063.101.453.125.886.168 1.34v1.156c-.055 1.18-.34 2.73-1.622 3.207-1.109.441-2.414-.25-2.742-1.383-.25-.602-.273-1.215-.332-1.824v-1.156c.059-1.18.309-2.747 1.578-3.266l.055-.024.047-.011.059-.024.168-.043.101-.023h.125l.023-.012Zm0 0Zm-.352.692c-.953.113-1.239 1.257-1.305 2.027v.309l-.023.023v1.574c.066.817.125 1.871.875 2.414.69.477 1.609-.054 1.8-.793.203-.543.25-1.078.297-1.62v-1.575c-.07-.828-.183-1.984-1.137-2.313l-.078-.023-.023-.023h-.102l-.023-.024h-.262Zm0 0ZM10.637 90.34c1.078.078 1.793 1.066 1.984 2.062.102.453.125.883.172 1.34v1.156c-.059 1.176-.34 2.73-1.621 3.207-1.113.442-2.418-.25-2.746-1.382-.25-.602-.27-1.215-.328-1.825v-1.156c.058-1.18.304-2.746 1.578-3.265l.054-.024.047-.012.055-.023.172-.047.101-.02h.125l.024-.011Zm0 0Zm-.352.691c-.953.114-1.234 1.258-1.305 2.028v.308l-.02.024v1.574c.067.816.126 1.87.872 2.414.691.476 1.61-.055 1.805-.793.203-.543.25-1.078.293-1.621V93.39c-.067-.829-.18-1.985-1.133-2.317l-.078-.02-.024-.023h-.101l-.024-.023h-.261Zm0 0ZM15.32 97.074v.906h-.918v-.906Zm0 0ZM21.125 90.578v.703H18.18l-.024.012v2.324c.27-.183.657-.422 1.02-.433 1.281-.137 2.27 1.125 2.324 2.293.18 1.484-1.215 2.957-2.71 2.73-.747-.023-1.474-.465-1.903-1.078.125-.168.226-.465.37-.567.536 1.043 2.259 1.465 2.95.364.441-.828.43-1.883-.078-2.676-.59-.758-1.758-.293-2.031.512h-.735v-4.184Zm0 0ZM10.988 61.438v6.996l.012.02h1.395v.624H8.71v-.625h1.394l.024-.02V62.56c-.477.16-.977.261-1.477.25v-.637c.75.012 1.567-.192 2.133-.734Zm0 0ZM15.32 68.172v.906h-.918v-.906Zm0 0ZM19.45 61.438c1.073.078 1.788 1.062 1.984 2.062.101.453.125.883.168 1.336v1.16c-.055 1.176-.34 2.73-1.622 3.207-1.109.442-2.414-.25-2.742-1.383-.25-.601-.273-1.215-.332-1.824v-1.16c.059-1.176.309-2.742 1.578-3.266l.055-.02.047-.01.059-.024.168-.047.101-.02h.125l.023-.011Zm0 0Zm-.352.69c-.953.114-1.239 1.259-1.305 2.028v.309l-.023.02v1.578c.066.816.125 1.87.875 2.414.69.476 1.609-.055 1.8-.793.203-.543.25-1.079.297-1.621v-1.579c-.07-.824-.183-1.984-1.137-2.312l-.078-.02-.023-.023h-.102l-.023-.024h-.262Zm0 0ZM10.988 32.535v6.992l.012.024h1.395v.625H8.71v-.625h1.394l.024-.024v-5.87c-.477.16-.977.261-1.477.25v-.637c.75.011 1.567-.192 2.133-.735Zm0 0ZM15.32 39.27v.906h-.918v-.906Zm0 0ZM21.125 32.77v.703H18.18l-.024.011v2.325c.27-.18.657-.418 1.02-.43 1.281-.137 2.27 1.121 2.324 2.289.18 1.488-1.215 2.96-2.71 2.734-.747-.023-1.474-.465-1.903-1.078.125-.168.226-.465.37-.566.536 1.043 2.259 1.465 2.95.363.441-.828.43-1.883-.078-2.676-.59-.761-1.758-.297-2.031.512h-.735V32.77Zm0 0ZM10.512 3.629c1.316.035 2.36 1.387 2.156 2.656-.137 1.27-1.328 1.996-2.176 2.79l-.363.37-.047.024-.453.445-.035.02-.453.453-.043.023-.106.102.024.011h3.675v.75H8.2v-.68l1.828-1.827c.871-.758 1.891-1.746 1.735-2.993-.094-.726-.703-1.394-1.453-1.453-.758-.113-1.43.489-1.598 1.215l-.024.035-.023.078-.031.125-.07.25-.012.055c-.156-.191-.328-.394-.453-.61.226-.929.976-1.804 1.96-1.84Zm0 0ZM15.32 10.367v.906h-.918v-.906Zm0 0ZM19.45 3.629c1.073.082 1.788 1.066 1.984 2.066.101.453.125.883.168 1.336v1.157c-.055 1.18-.34 2.734-1.622 3.21-1.109.442-2.414-.25-2.742-1.382-.25-.602-.273-1.215-.332-1.829V7.032c.059-1.18.309-2.742 1.578-3.265l.055-.024.047-.008.059-.023.168-.047.101-.023h.125l.023-.012Zm0 0Zm-.352.691c-.953.117-1.239 1.262-1.305 2.032v.304l-.023.024v1.578c.066.816.125 1.87.875 2.414.69.476 1.609-.059 1.8-.793.203-.547.25-1.078.297-1.621V6.68c-.07-.828-.183-1.985-1.137-2.313l-.078-.023-.023-.024h-.102l-.023-.02h-.262Zm0 0Zm0 0"/><path style="fill:none;stroke-width:.02;stroke-linecap:butt;stroke-linejoin:miter;stroke:#000;stroke-opacity:1;stroke-miterlimit:10" d="M11.645 1.632h-.15M11.645 2.651h-.15M11.645 3.67h-.15M11.645 4.69h-.15M11.645 5.71h-.15M11.645 6.73h-.15M11.645 7.75h-.15" transform="matrix(28.34646 0 0 -28.34646 1 256.118)"/><path style="fill:none;stroke-width:.02;stroke-linecap:round;stroke-linejoin:miter;stroke:#000;stroke-opacity:1;stroke-miterlimit:10" d="M11.645.612v8.157" transform="matrix(28.34646 0 0 -28.34646 1 256.118)"/><path style="fill:none;stroke-width:.02;stroke-linecap:butt;stroke-linejoin:miter;stroke:#000;stroke-opacity:1;stroke-miterlimit:10" d="M2.325.612v.15M3.657.612v.15M4.988.612v.15M6.32.612v.15M7.65.612v.15M8.982.612v.15M10.313.612v.15" transform="matrix(28.34646 0 0 -28.34646 1 256.118)"/><path style="fill:none;stroke-width:.02;stroke-linecap:round;stroke-linejoin:miter;stroke:#000;stroke-opacity:1;stroke-miterlimit:10" d="M.994.612h10.65" transform="matrix(28.34646 0 0 -28.34646 1 256.118)"/><path style="stroke:none;fill-rule:nonzero;fill:#000;fill-opacity:1" d="M25.316 245.652v6.996l.012.024h1.395v.621h-3.688v-.621h1.395l.023-.024v-5.875c-.476.16-.973.262-1.473.25v-.632c.747.011 1.563-.196 2.133-.739Zm0 0ZM29.648 252.387v.906h-.921v-.906Zm0 0ZM33.773 245.652c1.079.078 1.793 1.067 1.985 2.063.101.453.125.887.172 1.34v1.156c-.059 1.18-.34 2.73-1.621 3.207-1.114.445-2.418-.246-2.746-1.383-.25-.601-.27-1.21-.329-1.824v-1.156c.059-1.18.305-2.746 1.575-3.266l.058-.023.047-.012.055-.024.172-.042.101-.024h.125l.02-.012Zm0 0Zm-.351.692c-.953.113-1.234 1.258-1.305 2.031v.305l-.02.023v1.574c.067.817.126 1.871.872 2.418.691.477 1.61-.058 1.804-.797.204-.543.247-1.074.293-1.62v-1.575c-.066-.828-.18-1.984-1.132-2.312l-.079-.024-.023-.023h-.102l-.023-.024h-.262Zm0 0ZM63.055 245.652v6.996l.011.024h1.395v.621h-3.688v-.621h1.395l.023-.024v-5.875c-.476.16-.972.262-1.472.25v-.632c.746.011 1.562-.196 2.133-.739Zm0 0ZM67.387 252.387v.906h-.918v-.906Zm0 0ZM73.191 245.89v.704h-2.949l-.023.011v2.325c.273-.184.66-.418 1.023-.43 1.281-.137 2.266 1.121 2.324 2.29.18 1.483-1.214 2.96-2.71 2.733-.75-.023-1.473-.464-1.907-1.078.125-.172.227-.465.375-.566.531 1.043 2.258 1.46 2.95.363.44-.828.43-1.883-.083-2.68-.59-.757-1.757-.292-2.027.512h-.738v-4.183Zm0 0ZM100.316 245.652c1.317.036 2.36 1.383 2.153 2.653-.133 1.27-1.324 1.996-2.176 2.789l-.363.375-.043.023-.453.442-.036.023-.453.453-.047.024-.101.101.023.012h3.672v.746h-4.488v-.68l1.824-1.824c.875-.762 1.895-1.746 1.734-2.992-.09-.727-.703-1.395-1.449-1.453-.761-.114-1.43.488-1.601 1.215l-.02.03-.023.083-.035.125-.067.25-.012.055a4.6 4.6 0 0 1-.453-.614c.227-.93.973-1.8 1.961-1.836Zm0 0ZM105.125 252.387v.906h-.918v-.906Zm0 0ZM109.25 245.652c1.078.078 1.793 1.067 1.984 2.063.102.453.125.887.172 1.34v1.156c-.058 1.18-.34 2.73-1.62 3.207-1.114.445-2.419-.246-2.747-1.383-.25-.601-.27-1.21-.328-1.824v-1.156c.059-1.18.305-2.746 1.574-3.266l.059-.023.047-.012.054-.024.172-.042.102-.024h.125l.023-.012Zm0 0Zm-.352.692c-.953.113-1.234 1.258-1.304 2.031v.305l-.02.023v1.574c.067.817.125 1.871.871 2.418.692.477 1.61-.058 1.805-.797.203-.543.25-1.074.293-1.62v-1.575c-.066-.828-.18-1.984-1.133-2.312l-.078-.024-.023-.023h-.102l-.023-.024h-.262Zm0 0ZM138.055 245.652c1.316.036 2.36 1.383 2.152 2.653-.133 1.27-1.324 1.996-2.176 2.789l-.363.375-.043.023-.453.442-.035.023-.453.453-.047.024-.102.101.024.012h3.671v.746h-4.488v-.68l1.824-1.824c.875-.762 1.895-1.746 1.735-2.992-.09-.727-.703-1.395-1.45-1.453-.761-.114-1.43.488-1.601 1.215l-.02.03-.023.083-.035.125-.067.25-.011.055a4.6 4.6 0 0 1-.453-.614c.226-.93.972-1.8 1.96-1.836Zm0 0ZM142.863 252.387v.906h-.918v-.906Zm0 0ZM148.668 245.89v.704h-2.95l-.023.011v2.325c.274-.184.66-.418 1.024-.43 1.281-.137 2.265 1.121 2.324 2.29.18 1.483-1.215 2.96-2.711 2.733-.75-.023-1.473-.464-1.906-1.078.125-.172.226-.465.375-.566.531 1.043 2.258 1.46 2.949.363.441-.828.43-1.883-.082-2.68-.59-.757-1.758-.292-2.027.512h-.739v-4.183Zm0 0ZM175.941 245.652c.996.047 2.04.965 1.801 2.02-.113.715-.613 1.305-1.234 1.621 1.008.316 1.789 1.383 1.52 2.437-.274 1.372-1.848 2.133-3.118 1.711-.613-.18-1.238-.566-1.531-1.132.066-.172.043-.465.125-.579.598.883 1.871 1.485 2.867.985 1.09-.692.918-2.707-.398-3.047h-.102l-.023-.023h-1.051v-.68c.644-.012 1.45-.094 1.812-.762.387-.578.352-1.531-.386-1.812-.871-.34-1.95.214-2.278 1.097-.136-.191-.273-.383-.41-.59.465-.835 1.453-1.335 2.406-1.246Zm0 0ZM180.602 252.387v.906h-.918v-.906Zm0 0ZM184.727 245.652c1.078.078 1.793 1.067 1.984 2.063.101.453.125.887.172 1.34v1.156c-.059 1.18-.34 2.73-1.621 3.207-1.114.445-2.418-.246-2.746-1.383-.25-.601-.27-1.21-.328-1.824v-1.156c.058-1.18.304-2.746 1.578-3.266l.054-.023.047-.012.055-.024.172-.042.101-.024h.125l.024-.012Zm0 0Zm-.352.692c-.953.113-1.234 1.258-1.305 2.031v.305l-.02.023v1.574c.067.817.126 1.871.872 2.418.691.477 1.61-.058 1.805-.797.203-.543.25-1.074.293-1.62v-1.575c-.067-.828-.18-1.984-1.133-2.312l-.078-.024-.024-.023h-.101l-.024-.024h-.262Zm0 0ZM213.68 245.652c.996.047 2.039.965 1.8 2.02-.113.715-.613 1.305-1.234 1.621 1.008.316 1.79 1.383 1.52 2.437-.274 1.372-1.848 2.133-3.118 1.711-.613-.18-1.238-.566-1.53-1.132.066-.172.042-.465.124-.579.598.883 1.871 1.485 2.867.985 1.09-.692.918-2.707-.398-3.047h-.102l-.023-.023h-1.05v-.68c.644-.012 1.448-.094 1.812-.762.386-.578.351-1.531-.387-1.812-.871-.34-1.95.214-2.277 1.097-.137-.191-.274-.383-.41-.59.464-.835 1.453-1.335 2.406-1.246Zm0 0ZM218.34 252.387v.906h-.918v-.906Zm0 0ZM224.145 245.89v.704h-2.95l-.023.011v2.325c.273-.184.66-.418 1.023-.43 1.282-.137 2.266 1.121 2.325 2.29.18 1.483-1.215 2.96-2.711 2.733-.75-.023-1.473-.464-1.907-1.078.125-.172.227-.465.375-.566.532 1.043 2.258 1.46 2.95.363.441-.828.43-1.883-.082-2.68-.59-.757-1.754-.292-2.028.512h-.738v-4.183Zm0 0ZM252.563 245.89v4.774l.023.024h1.121v.68h-1.121l-.024.01v1.915h-.863v-1.914l-.023-.012h-2.992v-.703c.953-1.586 1.906-3.187 2.859-4.773Zm0 0Zm-.84.43c-.227 1.18-.953 2.192-1.496 3.223-.215.371-.5.781-.657 1.144h2.176l.012-.023v-4.344l-.012-.02Zm0 0ZM256.078 252.387v.906h-.918v-.906Zm0 0ZM260.203 245.652c1.078.078 1.793 1.067 1.985 2.063.101.453.125.887.171 1.34v1.156c-.058 1.18-.34 2.73-1.62 3.207-1.114.445-2.419-.246-2.747-1.383-.25-.601-.27-1.21-.328-1.824v-1.156c.059-1.18.305-2.746 1.578-3.266l.055-.023.047-.012.054-.024.172-.042.102-.024h.125l.023-.012Zm0 0Zm-.351.692c-.954.113-1.235 1.258-1.305 2.031v.305l-.02.023v1.574c.067.817.125 1.871.871 2.418.692.477 1.61-.058 1.805-.797.203-.543.25-1.074.293-1.62v-1.575c-.066-.828-.18-1.984-1.133-2.312l-.078-.024-.023-.023h-.102l-.023-.024h-.262Zm0 0ZM290.3 245.89v4.774l.024.024h1.121v.68h-1.12l-.024.01v1.915h-.863v-1.914l-.024-.012h-2.992v-.703c.953-1.586 1.906-3.187 2.86-4.773Zm0 0Zm-.84.43c-.226 1.18-.952 2.192-1.495 3.223-.215.371-.5.781-.656 1.144h2.175l.012-.023v-4.344l-.012-.02Zm0 0ZM293.816 252.387v.906h-.918v-.906Zm0 0ZM299.621 245.89v.704h-2.95l-.023.011v2.325c.274-.184.66-.418 1.024-.43 1.281-.137 2.265 1.121 2.324 2.29.18 1.483-1.215 2.96-2.71 2.733-.75-.023-1.474-.464-1.907-1.078.125-.172.226-.465.375-.566.535 1.043 2.258 1.46 2.95.363.44-.828.429-1.883-.083-2.68-.586-.757-1.754-.292-2.027.512h-.739v-4.183Zm0 0ZM328.55 245.89v.704h-2.948l-.024.011v2.325c.274-.184.656-.418 1.02-.43 1.28-.137 2.27 1.121 2.324 2.29.183 1.483-1.211 2.96-2.707 2.733-.75-.023-1.477-.464-1.906-1.078.125-.172.226-.465.375-.566.53 1.043 2.253 1.46 2.945.363.445-.828.433-1.883-.078-2.68-.59-.757-1.758-.292-2.028.512h-.738v-4.183Zm0 0ZM331.555 252.387v.906h-.918v-.906Zm0 0ZM335.68 245.652c1.078.078 1.793 1.067 1.984 2.063.102.453.125.887.172 1.34v1.156c-.059 1.18-.34 2.73-1.621 3.207-1.113.445-2.418-.246-2.746-1.383-.25-.601-.27-1.21-.328-1.824v-1.156c.058-1.18.304-2.746 1.578-3.266l.054-.023.047-.012.055-.024.172-.042.101-.024h.125l.024-.012Zm0 0Zm-.352.692c-.95.113-1.234 1.258-1.3 2.031v.305l-.024.023v1.574c.066.817.125 1.871.871 2.418.691.477 1.61-.058 1.805-.797.203-.543.25-1.074.293-1.62v-1.575c-.067-.828-.18-1.984-1.133-2.312l-.078-.024-.024-.023h-.101l-.024-.024h-.261Zm0 0Zm0 0"/><path style="fill:none;stroke-width:.02;stroke-linecap:butt;stroke-linejoin:miter;stroke:#000;stroke-opacity:1;stroke-miterlimit:10" d="M2.325 8.769v-.15M3.657 8.769v-.15M4.988 8.769v-.15M6.32 8.769v-.15M7.65 8.769v-.15M8.982 8.769v-.15M10.313 8.769v-.15" transform="matrix(28.34646 0 0 -28.34646 1 256.118)"/><path style="fill:none;stroke-width:.02;stroke-linecap:round;stroke-linejoin:miter;stroke:#000;stroke-opacity:1;stroke-miterlimit:10" d="M.994 8.769h10.65" transform="matrix(28.34646 0 0 -28.34646 1 256.118)"/><path style="fill:none;stroke-width:.05;stroke-linecap:butt;stroke-linejoin:miter;stroke:#5478a3;stroke-opacity:1;stroke-miterlimit:10" d="m.994 7.93 2.663-4.081L6.319.95l2.663 3.84 2.663-2.56" transform="matrix(28.34646 0 0 -28.34646 1 256.118)"/></svg>