<svg xmlns="http://www.w3.org/2000/svg" width="456.21" height="342.824" viewBox="0 0 342.157 257.118"><path style="fill:none;stroke-width:.02;stroke-linecap:butt;stroke-linejoin:miter;stroke:#000;stroke-opacity:1;stroke-miterlimit:10" d="M.55 1.971H.7M.55 3.331H.7M.55 4.69H.7M.55 6.05H.7M.55 7.41H.7" transform="matrix(28.34646 0 0 -28.34646 1 256.118)"/><path style="fill:none;stroke-width:.02;stroke-linecap:round;stroke-linejoin:miter;stroke:#000;stroke-opacity:1;stroke-miterlimit:10" d="M.55.612v8.157" transform="matrix(28.34646 0 0 -28.34646 1 256.118)"/><path style="stroke:none;fill-rule:nonzero;fill:#000;fill-opacity:1" d="M6.863 234.852c1.074.082 1.79 1.066 1.985 2.066.101.453.125.883.168 1.336v1.156c-.055 1.18-.34 2.735-1.621 3.211-1.11.441-2.415-.25-2.743-1.387-.25-.597-.273-1.21-.332-1.824v-1.156c.059-1.18.309-2.742 1.578-3.266l.055-.023.047-.012.059-.02.168-.046.101-.024h.125l.024-.011Zm0 0Zm-.351.691c-.953.113-1.239 1.262-1.305 2.031v.305l-.023.023v1.578c.07.817.125 1.868.875 2.415.691.476 1.609-.06 1.8-.793.204-.547.25-1.079.297-1.622v-1.578c-.07-.828-.183-1.984-1.136-2.312l-.079-.024-.023-.023h-.102l-.023-.02h-.258Zm0 0ZM7.215 196.316v6.996l.012.024H8.62v.621H4.934v-.621h1.394l.024-.024v-5.875c-.477.16-.977.262-1.473.25v-.636c.746.012 1.562-.192 2.129-.735Zm0 0ZM6.738 157.777c1.313.036 2.36 1.383 2.153 2.657-.137 1.27-1.325 1.992-2.176 2.789l-.363.37-.047.024-.453.442-.032.023-.453.453-.047.024-.101.101.023.012h3.672v.75H4.426v-.68l1.824-1.828c.871-.758 1.895-1.746 1.734-2.992-.09-.727-.703-1.395-1.449-1.453-.762-.114-1.43.488-1.601 1.215l-.024.035-.02.078-.105.375-.008.055c-.16-.192-.332-.395-.457-.61.23-.93.977-1.804 1.965-1.84Zm0 0ZM6.883 119.242c1 .043 2.043.965 1.804 2.02-.113.71-.613 1.3-1.234 1.62 1.008.317 1.79 1.384 1.52 2.438-.274 1.371-1.852 2.13-3.121 1.711-.61-.18-1.235-.566-1.532-1.133.07-.171.047-.464.125-.578.602.883 1.871 1.485 2.871.985 1.086-.692.918-2.711-.398-3.051h-.102l-.023-.02H5.738v-.683c.649-.008 1.453-.09 1.817-.758.383-.578.351-1.531-.387-1.813-.871-.343-1.95.215-2.277 1.098a25.714 25.714 0 0 1-.41-.59c.464-.84 1.453-1.336 2.402-1.246Zm0 0ZM8.031 80.941v4.774l.02.023h1.125v.68H8.05l-.02.012v1.918h-.863V86.43l-.023-.012H4.152v-.703c.953-1.586 1.907-3.184 2.856-4.774Zm0 0Zm-.84.434c-.226 1.18-.953 2.188-1.496 3.219-.215.375-.5.781-.66 1.144h2.18l.012-.023v-4.34l-.012-.023Zm0 0ZM8.54 42.406v.703H5.593l-.024.012v2.324c.27-.183.657-.422 1.02-.433 1.281-.133 2.27 1.125 2.324 2.293.184 1.484-1.215 2.957-2.71 2.73-.747-.02-1.474-.465-1.903-1.074.125-.172.226-.465.37-.57.536 1.047 2.259 1.464 2.95.363.441-.828.43-1.879-.078-2.676-.59-.758-1.758-.293-2.031.512h-.735v-4.184Zm0 0ZM7.598 3.629c.297.047.636.082.918.219v.656c-.782-.34-1.801-.387-2.414.305-.543.578-.793 1.441-.817 2.199.66-.871 2.145-1.36 2.95-.453.804.93.94 2.27.578 3.402-.399.906-1.317 1.734-2.336 1.543-1.383-.113-2.008-1.656-2.075-2.836C4.141 7 4.54 4.902 6.125 3.95l.023-.011.239-.126.066-.023.035-.023.192-.055.16-.047.101-.023h.125l.024-.012Zm0 0ZM6.488 6.78c-.988.172-1.304 1.364-1.18 2.168.06.758.352 1.77 1.227 1.926.93.125 1.527-.871 1.55-1.676.048-.816 0-1.746-.714-2.281l-.156-.078-.125-.035-.102-.024-.023-.02h-.453Zm0 0Zm0 0"/><path style="fill:none;stroke-width:.02;stroke-linecap:butt;stroke-linejoin:miter;stroke:#000;stroke-opacity:1;stroke-miterlimit:10" d="M11.645 1.971h-.15M11.645 3.331h-.15M11.645 4.69h-.15M11.645 6.05h-.15M11.645 7.41h-.15" transform="matrix(28.34646 0 0 -28.34646 1 256.118)"/><path style="fill:none;stroke-width:.02;stroke-linecap:round;stroke-linejoin:miter;stroke:#000;stroke-opacity:1;stroke-miterlimit:10" d="M11.645.612v8.157" transform="matrix(28.34646 0 0 -28.34646 1 256.118)"/><path style="fill:none;stroke-width:.02;stroke-linecap:butt;stroke-linejoin:miter;stroke:#000;stroke-opacity:1;stroke-miterlimit:10" d="M1.66.612v.15M2.769.612v.15M3.878.612v.15M4.988.612v.15M6.097.612v.15M7.207.612v.15M8.316.612v.15M9.426.612v.15M10.535.612v.15" transform="matrix(28.34646 0 0 -28.34646 1 256.118)"/><path style="fill:none;stroke-width:.02;stroke-linecap:round;stroke-linejoin:miter;stroke:#000;stroke-opacity:1;stroke-miterlimit:10" d="M.55.612h11.095" transform="matrix(28.34646 0 0 -28.34646 1 256.118)"/><path style="stroke:none;fill-rule:nonzero;fill:#000;fill-opacity:1" d="M12.73 245.652v6.996l.012.024h1.395v.621h-3.688v-.621h1.395l.023-.024v-5.875c-.476.16-.972.262-1.472.25v-.632c.746.011 1.562-.196 2.132-.739Zm0 0ZM17.063 252.387v.906h-.918v-.906Zm0 0ZM21.188 245.652c1.078.078 1.792 1.067 1.984 2.063.101.453.125.887.172 1.34v1.156c-.059 1.18-.34 2.73-1.621 3.207-1.114.445-2.418-.246-2.746-1.383-.25-.601-.27-1.21-.329-1.824v-1.156c.059-1.18.305-2.746 1.575-3.266l.058-.023.047-.012.055-.024.172-.042.101-.024h.125l.024-.012Zm0 0Zm-.352.692c-.953.113-1.234 1.258-1.305 2.031v.305l-.02.023v1.574c.067.817.126 1.871.872 2.418.691.477 1.61-.058 1.805-.797.203-.543.25-1.074.292-1.62v-1.575c-.066-.828-.18-1.984-1.132-2.312l-.078-.024-.024-.023h-.101l-.024-.024h-.262Zm0 0ZM44.18 245.652v6.996l.011.024h1.395v.621h-3.688v-.621h1.395l.023-.024v-5.875c-.476.16-.972.262-1.472.25v-.632c.746.011 1.562-.196 2.133-.739Zm0 0ZM48.512 252.387v.906h-.918v-.906Zm0 0ZM54.316 245.89v.704h-2.949l-.023.011v2.325c.273-.184.66-.418 1.023-.43 1.281-.137 2.266 1.121 2.324 2.29.18 1.483-1.214 2.96-2.71 2.733-.75-.023-1.473-.464-1.907-1.078.125-.172.227-.465.375-.566.531 1.043 2.258 1.46 2.95.363.44-.828.43-1.883-.083-2.68-.59-.757-1.757-.292-2.027.512h-.738v-4.183Zm0 0ZM75.152 245.652c1.317.036 2.36 1.383 2.153 2.653-.133 1.27-1.325 1.996-2.176 2.789l-.363.375-.043.023-.453.442-.036.023-.453.453-.047.024-.101.101.023.012h3.672v.746H72.84v-.68l1.824-1.824c.875-.762 1.895-1.746 1.734-2.992-.09-.727-.703-1.395-1.449-1.453-.761-.114-1.43.488-1.601 1.215l-.02.03-.023.083-.035.125-.067.25-.012.055a4.6 4.6 0 0 1-.453-.614c.227-.93.973-1.8 1.961-1.836Zm0 0ZM79.96 252.387v.906h-.917v-.906Zm0 0ZM84.086 245.652c1.078.078 1.793 1.067 1.984 2.063.102.453.125.887.172 1.34v1.156c-.058 1.18-.34 2.73-1.62 3.207-1.114.445-2.419-.246-2.747-1.383-.25-.601-.27-1.21-.328-1.824v-1.156c.058-1.18.305-2.746 1.578-3.266l.055-.023.047-.012.054-.024.172-.042.102-.024h.125l.023-.012Zm0 0Zm-.352.692c-.953.113-1.234 1.258-1.304 2.031v.305l-.02.023v1.574c.067.817.125 1.871.871 2.418.692.477 1.61-.058 1.805-.797.203-.543.25-1.074.293-1.62v-1.575c-.067-.828-.18-1.984-1.133-2.312l-.078-.024-.023-.023h-.102l-.023-.024h-.262Zm0 0ZM106.602 245.652c1.316.036 2.359 1.383 2.152 2.653-.133 1.27-1.324 1.996-2.176 2.789l-.363.375-.043.023-.453.442-.035.023-.454.453-.046.024-.102.101.023.012h3.672v.746h-4.488v-.68l1.824-1.824c.875-.762 1.895-1.746 1.735-2.992-.09-.727-.703-1.395-1.45-1.453-.761-.114-1.43.488-1.601 1.215l-.02.03-.023.083-.035.125-.067.25-.011.055a4.6 4.6 0 0 1-.454-.614c.227-.93.973-1.8 1.961-1.836Zm0 0ZM111.41 252.387v.906h-.918v-.906Zm0 0ZM117.215 245.89v.704h-2.95l-.023.011v2.325c.274-.184.66-.418 1.024-.43 1.28-.137 2.265 1.121 2.324 2.29.18 1.483-1.215 2.96-2.711 2.733-.75-.023-1.473-.464-1.906-1.078.125-.172.226-.465.375-.566.53 1.043 2.257 1.46 2.949.363.441-.828.43-1.883-.082-2.68-.59-.757-1.758-.292-2.028.512h-.738v-4.183Zm0 0ZM138.2 245.652c.995.047 2.038.965 1.8 2.02-.113.715-.613 1.305-1.234 1.621 1.007.316 1.789 1.383 1.52 2.437-.274 1.372-1.849 2.133-3.118 1.711-.613-.18-1.238-.566-1.531-1.132.066-.172.043-.465.125-.579.597.883 1.87 1.485 2.867.985 1.09-.692.918-2.707-.399-3.047h-.101l-.024-.023h-1.05v-.68c.644-.012 1.449-.094 1.812-.762.387-.578.352-1.531-.387-1.812-.87-.34-1.949.214-2.277 1.097a19.285 19.285 0 0 1-.41-.59c.465-.835 1.453-1.335 2.406-1.246Zm0 0ZM142.86 252.387v.906h-.919v-.906Zm0 0ZM146.984 245.652c1.078.078 1.793 1.067 1.985 2.063.101.453.125.887.172 1.34v1.156c-.059 1.18-.34 2.73-1.621 3.207-1.114.445-2.418-.246-2.747-1.383-.25-.601-.27-1.21-.328-1.824v-1.156c.059-1.18.305-2.746 1.578-3.266l.055-.023.047-.012.055-.024.172-.042.101-.024h.125l.024-.012Zm0 0Zm-.351.692c-.953.113-1.235 1.258-1.305 2.031v.305l-.02.023v1.574c.067.817.126 1.871.872 2.418.691.477 1.61-.058 1.804-.797.203-.543.25-1.074.293-1.62v-1.575c-.066-.828-.18-1.984-1.132-2.312l-.079-.024-.023-.023h-.102l-.023-.024h-.262Zm0 0ZM169.648 245.652c.997.047 2.04.965 1.801 2.02-.113.715-.613 1.305-1.234 1.621 1.008.316 1.789 1.383 1.52 2.437-.274 1.372-1.848 2.133-3.118 1.711-.613-.18-1.238-.566-1.531-1.132.066-.172.043-.465.125-.579.598.883 1.871 1.485 2.867.985 1.09-.692.918-2.707-.398-3.047h-.102l-.023-.023h-1.051v-.68c.644-.012 1.45-.094 1.812-.762.387-.578.352-1.531-.386-1.812-.871-.34-1.95.214-2.278 1.097-.136-.191-.273-.383-.41-.59.465-.835 1.453-1.335 2.406-1.246Zm0 0ZM174.309 252.387v.906h-.918v-.906Zm0 0ZM180.113 245.89v.704h-2.949l-.023.011v2.325c.273-.184.66-.418 1.023-.43 1.281-.137 2.266 1.121 2.324 2.29.18 1.483-1.215 2.96-2.71 2.733-.75-.023-1.473-.464-1.907-1.078.125-.172.227-.465.375-.566.531 1.043 2.258 1.46 2.95.363.44-.828.429-1.883-.083-2.68-.59-.757-1.754-.292-2.027.512h-.738v-4.183Zm0 0ZM202.242 245.89v4.774l.024.024h1.12v.68h-1.12l-.024.01v1.915h-.863v-1.914l-.024-.012h-2.992v-.703c.953-1.586 1.907-3.187 2.86-4.773Zm0 0Zm-.84.43c-.226 1.18-.953 2.192-1.496 3.223-.215.371-.5.781-.656 1.144h2.176l.012-.023v-4.344l-.012-.02Zm0 0ZM205.758 252.387v.906h-.918v-.906Zm0 0ZM209.883 245.652c1.078.078 1.793 1.067 1.984 2.063.102.453.125.887.172 1.34v1.156c-.059 1.18-.34 2.73-1.621 3.207-1.113.445-2.418-.246-2.746-1.383-.25-.601-.27-1.21-.328-1.824v-1.156c.058-1.18.304-2.746 1.578-3.266l.055-.023.046-.012.055-.024.172-.042.102-.024h.125l.023-.012Zm0 0Zm-.352.692c-.953.113-1.234 1.258-1.304 2.031v.305l-.02.023v1.574c.066.817.125 1.871.871 2.418.692.477 1.61-.058 1.805-.797.203-.543.25-1.074.293-1.62v-1.575c-.067-.828-.18-1.984-1.133-2.312l-.078-.024-.024-.023h-.101l-.024-.024h-.261Zm0 0ZM233.691 245.89v4.774l.024.024h1.12v.68h-1.12l-.024.01v1.915h-.863v-1.914l-.023-.012h-2.993v-.703c.954-1.586 1.907-3.187 2.86-4.773Zm0 0Zm-.84.43c-.226 1.18-.953 2.192-1.496 3.223-.214.371-.5.781-.656 1.144h2.176l.012-.023v-4.344l-.012-.02Zm0 0ZM237.207 252.387v.906h-.918v-.906Zm0 0ZM243.012 245.89v.704h-2.95l-.023.011v2.325c.274-.184.66-.418 1.024-.43 1.28-.137 2.265 1.121 2.324 2.29.18 1.483-1.215 2.96-2.711 2.733-.75-.023-1.473-.464-1.906-1.078.125-.172.226-.465.375-.566.53 1.043 2.257 1.46 2.949.363.441-.828.43-1.883-.082-2.68-.586-.757-1.754-.292-2.028.512h-.738v-4.183Zm0 0ZM265.652 245.89v.704h-2.949l-.023.011v2.325c.273-.184.656-.418 1.02-.43 1.28-.137 2.269 1.121 2.323 2.29.184 1.483-1.21 2.96-2.707 2.733-.75-.023-1.476-.464-1.906-1.078.125-.172.227-.465.375-.566.531 1.043 2.254 1.46 2.945.363.446-.828.434-1.883-.078-2.68-.59-.757-1.757-.292-2.027.512h-.738v-4.183Zm0 0ZM268.656 252.387v.906h-.918v-.906Zm0 0ZM272.781 245.652c1.078.078 1.793 1.067 1.985 2.063.101.453.125.887.171 1.34v1.156c-.058 1.18-.34 2.73-1.62 3.207-1.114.445-2.419-.246-2.747-1.383-.25-.601-.27-1.21-.328-1.824v-1.156c.059-1.18.305-2.746 1.578-3.266l.055-.023.047-.012.055-.024.171-.042.102-.024h.125l.023-.012Zm0 0Zm-.351.692c-.953.113-1.235 1.258-1.301 2.031v.305l-.024.023v1.574c.067.817.125 1.871.872 2.418.691.477 1.609-.058 1.804-.797.203-.543.25-1.074.293-1.62v-1.575c-.066-.828-.18-1.984-1.133-2.312l-.078-.024-.023-.023h-.102l-.023-.024h-.262Zm0 0ZM297.102 245.89v.704h-2.95l-.023.011v2.325c.273-.184.656-.418 1.02-.43 1.28-.137 2.269 1.121 2.324 2.29.183 1.483-1.211 2.96-2.707 2.733-.75-.023-1.477-.464-1.907-1.078.125-.172.227-.465.375-.566.532 1.043 2.254 1.46 2.946.363.445-.828.433-1.883-.078-2.68-.59-.757-1.758-.292-2.028.512h-.738v-4.183Zm0 0ZM300.105 252.387v.906h-.918v-.906Zm0 0ZM305.91 245.89v.704h-2.95l-.022.011v2.325c.273-.184.66-.418 1.023-.43 1.281-.137 2.266 1.121 2.324 2.29.18 1.483-1.215 2.96-2.71 2.733-.75-.023-1.473-.464-1.907-1.078.125-.172.227-.465.375-.566.535 1.043 2.258 1.46 2.95.363.44-.828.429-1.883-.083-2.68-.586-.757-1.754-.292-2.027.512h-.738v-4.183Zm0 0ZM327.61 245.652c.292.047.632.078.917.215v.66c-.785-.343-1.804-.386-2.418.305-.543.578-.793 1.441-.816 2.2.66-.872 2.144-1.36 2.95-.454.804.93.94 2.266.577 3.402-.394.907-1.316 1.735-2.336 1.543-1.382-.117-2.007-1.656-2.074-2.835-.262-1.668.137-3.766 1.723-4.72l.023-.011.239-.121.066-.024.035-.023.192-.059.16-.042.101-.024h.125l.024-.012Zm0 0Zm-1.114 3.153c-.984.172-1.305 1.36-1.18 2.164.059.761.352 1.77 1.227 1.93.93.124 1.531-.876 1.55-1.68.048-.817 0-1.746-.71-2.278l-.16-.078-.125-.035-.102-.023-.023-.024h-.453Zm0 0ZM331.555 252.387v.906h-.918v-.906Zm0 0ZM335.68 245.652c1.078.078 1.793 1.067 1.984 2.063.102.453.125.887.172 1.34v1.156c-.059 1.18-.34 2.73-1.621 3.207-1.113.445-2.418-.246-2.746-1.383-.25-.601-.27-1.21-.328-1.824v-1.156c.058-1.18.304-2.746 1.578-3.266l.054-.023.047-.012.055-.024.172-.042.101-.024h.125l.024-.012Zm0 0Zm-.352.692c-.95.113-1.234 1.258-1.3 2.031v.305l-.024.023v1.574c.066.817.125 1.871.871 2.418.691.477 1.61-.058 1.805-.797.203-.543.25-1.074.293-1.62v-1.575c-.067-.828-.18-1.984-1.133-2.312l-.078-.024-.024-.023h-.101l-.024-.024h-.261Zm0 0Zm0 0"/><path style="fill:none;stroke-width:.02;stroke-linecap:butt;stroke-linejoin:miter;stroke:#000;stroke-opacity:1;stroke-miterlimit:10" d="M1.66 8.769v-.15M2.769 8.769v-.15M3.878 8.769v-.15M4.988 8.769v-.15M6.097 8.769v-.15M7.207 8.769v-.15M8.316 8.769v-.15M9.426 8.769v-.15M10.535 8.769v-.15" transform="matrix(28.34646 0 0 -28.34646 1 256.118)"/><path style="fill:none;stroke-width:.02;stroke-linecap:round;stroke-linejoin:miter;stroke:#000;stroke-opacity:1;stroke-miterlimit:10" d="M.55 8.769h11.095" transform="matrix(28.34646 0 0 -28.34646 1 256.118)"/><path style="fill:none;stroke-width:.05;stroke-linecap:butt;stroke-linejoin:miter;stroke:#5478a3;stroke-opacity:1;stroke-miterlimit:10" d="m.55 1.971 2.219 1.36L4.988.612 7.207 6.05l2.219 1.36 2.219 1.359" transform="matrix(28.34646 0 0 -28.34646 1 256.118)"/><path style="fill-rule:nonzero;fill:#5478a3;fill-opacity:1;stroke-width:.05;stroke-linecap:butt;stroke-linejoin:round;stroke:#5478a3;stroke-opacity:1;stroke-miterlimit:10" d="M.725 1.971c0 .234-.35.234-.35 0 0-.233.35-.233.35 0ZM2.944 3.331c0 .233-.35.233-.35 0s.35-.233.35 0ZM5.163.612c0 .233-.35.233-.35 0s.35-.233.35 0ZM7.382 6.05c0 .233-.35.233-.35 0s.35-.233.35 0ZM9.6 7.41c0 .233-.35.233-.35 0 0-.234.35-.234.35 0ZM11.82 8.769c0 .233-.35.233-.35 0s.35-.233.35 0Zm0 0" transform="matrix(28.34646 0 0 -28.34646 1 256.118)"/></svg>