<?xml version="1.0" encoding="UTF-8"?>
<svg xmlns="http://www.w3.org/2000/svg" xmlns:xlink="http://www.w3.org/1999/xlink" width="342.15748pt" height="257.11811pt" viewBox="0 0 342.15748 257.11811" version="1.1">
<g id="surface1">
<path style="fill:none;stroke-width:0.02;stroke-linecap:butt;stroke-linejoin:miter;stroke:rgb(0%,0%,0%);stroke-opacity:1;stroke-miterlimit:10;" d="M 0.683231 2.118904 L 0.833162 2.118904 " transform="matrix(28.346457,0,0,-28.346457,1,256.11811)"/>
<path style="fill:none;stroke-width:0.02;stroke-linecap:butt;stroke-linejoin:miter;stroke:rgb(0%,0%,0%);stroke-opacity:1;stroke-miterlimit:10;" d="M 0.683231 3.625789 L 0.833162 3.625789 " transform="matrix(28.346457,0,0,-28.346457,1,256.11811)"/>
<path style="fill:none;stroke-width:0.02;stroke-linecap:butt;stroke-linejoin:miter;stroke:rgb(0%,0%,0%);stroke-opacity:1;stroke-miterlimit:10;" d="M 0.683231 5.132674 L 0.833162 5.132674 " transform="matrix(28.346457,0,0,-28.346457,1,256.11811)"/>
<path style="fill:none;stroke-width:0.02;stroke-linecap:butt;stroke-linejoin:miter;stroke:rgb(0%,0%,0%);stroke-opacity:1;stroke-miterlimit:10;" d="M 0.683231 6.639696 L 0.833162 6.639696 " transform="matrix(28.346457,0,0,-28.346457,1,256.11811)"/>
<path style="fill:none;stroke-width:0.02;stroke-linecap:butt;stroke-linejoin:miter;stroke:rgb(0%,0%,0%);stroke-opacity:1;stroke-miterlimit:10;" d="M 0.683231 8.146581 L 0.833162 8.146581 " transform="matrix(28.346457,0,0,-28.346457,1,256.11811)"/>
<path style="fill:none;stroke-width:0.02;stroke-linecap:round;stroke-linejoin:miter;stroke:rgb(0%,0%,0%);stroke-opacity:1;stroke-miterlimit:10;" d="M 0.683231 0.612019 L 0.683231 8.899954 " transform="matrix(28.346457,0,0,-28.346457,1,256.11811)"/>
<path style=" stroke:none;fill-rule:nonzero;fill:rgb(0%,0%,0%);fill-opacity:1;" d="M 6.941406 239.683594 L 6.941406 240.316406 L 3.972656 240.316406 L 3.972656 239.683594 Z M 6.941406 239.683594 Z M 6.941406 239.683594 "/>
<path style=" stroke:none;fill-rule:nonzero;fill:rgb(0%,0%,0%);fill-opacity:1;" d="M 10.511719 234.851562 C 11.828125 234.886719 12.871094 236.234375 12.667969 237.503906 C 12.53125 238.777344 11.339844 239.5 10.492188 240.296875 L 10.128906 240.667969 L 10.082031 240.691406 L 9.628906 241.132812 L 9.59375 241.15625 L 9.140625 241.609375 L 9.097656 241.632812 L 8.992188 241.734375 L 9.015625 241.746094 L 12.691406 241.746094 L 12.691406 242.496094 L 8.199219 242.496094 L 8.199219 241.816406 L 10.027344 239.988281 C 10.898438 239.230469 11.917969 238.242188 11.761719 236.996094 C 11.667969 236.269531 11.058594 235.601562 10.308594 235.542969 C 9.550781 235.429688 8.878906 236.03125 8.710938 236.757812 L 8.6875 236.792969 L 8.664062 236.871094 L 8.632812 236.996094 L 8.5625 237.246094 L 8.550781 237.300781 C 8.394531 237.109375 8.222656 236.90625 8.097656 236.6875 C 8.324219 235.757812 9.074219 234.886719 10.058594 234.851562 Z M 10.511719 234.851562 Z M 10.511719 234.851562 "/>
<path style=" stroke:none;fill-rule:nonzero;fill:rgb(0%,0%,0%);fill-opacity:1;" d="M 6.941406 196.96875 L 6.941406 197.601562 L 3.972656 197.601562 L 3.972656 196.96875 Z M 6.941406 196.96875 Z M 6.941406 196.96875 "/>
<path style=" stroke:none;fill-rule:nonzero;fill:rgb(0%,0%,0%);fill-opacity:1;" d="M 10.988281 192.136719 L 10.988281 199.132812 L 11 199.15625 L 12.394531 199.15625 L 12.394531 199.777344 L 8.710938 199.777344 L 8.710938 199.15625 L 10.105469 199.15625 L 10.128906 199.132812 L 10.128906 193.257812 C 9.652344 193.417969 9.152344 193.519531 8.652344 193.507812 L 8.652344 192.875 C 9.402344 192.886719 10.21875 192.679688 10.785156 192.136719 Z M 10.988281 192.136719 Z M 10.988281 192.136719 "/>
<path style=" stroke:none;fill-rule:nonzero;fill:rgb(0%,0%,0%);fill-opacity:1;" d="M 10.636719 149.421875 C 11.714844 149.5 12.429688 150.488281 12.621094 151.484375 C 12.722656 151.9375 12.746094 152.371094 12.792969 152.824219 L 12.792969 153.980469 C 12.734375 155.160156 12.453125 156.710938 11.171875 157.1875 C 10.058594 157.628906 8.753906 156.9375 8.425781 155.804688 C 8.175781 155.203125 8.15625 154.59375 8.097656 153.980469 L 8.097656 152.824219 C 8.15625 151.644531 8.402344 150.078125 9.675781 149.558594 L 9.730469 149.535156 L 9.777344 149.523438 L 9.832031 149.5 L 10.003906 149.457031 L 10.105469 149.433594 L 10.230469 149.433594 L 10.253906 149.421875 Z M 10.636719 149.421875 Z M 10.285156 150.113281 C 9.332031 150.226562 9.050781 151.371094 8.980469 152.144531 L 8.980469 152.449219 L 8.960938 152.472656 L 8.960938 154.046875 C 9.027344 154.863281 9.085938 155.917969 9.832031 156.460938 C 10.523438 156.9375 11.441406 156.40625 11.636719 155.667969 C 11.839844 155.125 11.886719 154.59375 11.929688 154.046875 L 11.929688 152.472656 C 11.863281 151.644531 11.75 150.488281 10.796875 150.160156 L 10.71875 150.136719 L 10.695312 150.113281 L 10.59375 150.113281 L 10.570312 150.089844 L 10.308594 150.089844 Z M 10.285156 150.113281 Z M 10.285156 150.113281 "/>
<path style=" stroke:none;fill-rule:nonzero;fill:rgb(0%,0%,0%);fill-opacity:1;" d="M 10.988281 106.707031 L 10.988281 113.703125 L 11 113.722656 L 12.394531 113.722656 L 12.394531 114.347656 L 8.710938 114.347656 L 8.710938 113.722656 L 10.105469 113.722656 L 10.128906 113.703125 L 10.128906 107.828125 C 9.652344 107.988281 9.152344 108.089844 8.652344 108.078125 L 8.652344 107.441406 C 9.402344 107.453125 10.21875 107.25 10.785156 106.707031 Z M 10.988281 106.707031 Z M 10.988281 106.707031 "/>
<path style=" stroke:none;fill-rule:nonzero;fill:rgb(0%,0%,0%);fill-opacity:1;" d="M 10.511719 63.992188 C 11.828125 64.023438 12.871094 65.375 12.667969 66.644531 C 12.53125 67.914062 11.339844 68.640625 10.492188 69.433594 L 10.128906 69.808594 L 10.082031 69.828125 L 9.628906 70.273438 L 9.59375 70.292969 L 9.140625 70.75 L 9.097656 70.769531 L 8.992188 70.871094 L 9.015625 70.882812 L 12.691406 70.882812 L 12.691406 71.632812 L 8.199219 71.632812 L 8.199219 70.953125 L 10.027344 69.125 C 10.898438 68.367188 11.917969 67.378906 11.761719 66.132812 C 11.667969 65.40625 11.058594 64.738281 10.308594 64.683594 C 9.550781 64.570312 8.878906 65.167969 8.710938 65.894531 L 8.6875 65.929688 L 8.664062 66.007812 L 8.632812 66.132812 L 8.5625 66.382812 L 8.550781 66.441406 C 8.394531 66.246094 8.222656 66.042969 8.097656 65.828125 C 8.324219 64.898438 9.074219 64.023438 10.058594 63.992188 Z M 10.511719 63.992188 Z M 10.511719 63.992188 "/>
<path style=" stroke:none;fill-rule:nonzero;fill:rgb(0%,0%,0%);fill-opacity:1;" d="M 10.660156 21.273438 C 11.660156 21.320312 12.703125 22.238281 12.464844 23.292969 C 12.351562 24.007812 11.851562 24.597656 11.226562 24.914062 C 12.238281 25.230469 13.019531 26.296875 12.746094 27.351562 C 12.476562 28.722656 10.898438 29.484375 9.628906 29.066406 C 9.015625 28.882812 8.394531 28.496094 8.097656 27.929688 C 8.164062 27.761719 8.144531 27.464844 8.222656 27.351562 C 8.824219 28.238281 10.09375 28.835938 11.089844 28.339844 C 12.179688 27.648438 12.007812 25.628906 10.695312 25.289062 L 10.59375 25.289062 L 10.570312 25.265625 L 9.515625 25.265625 L 9.515625 24.585938 C 10.160156 24.574219 10.964844 24.496094 11.328125 23.824219 C 11.714844 23.246094 11.679688 22.296875 10.945312 22.011719 C 10.070312 21.671875 8.992188 22.226562 8.664062 23.113281 C 8.527344 22.917969 8.394531 22.726562 8.257812 22.523438 C 8.722656 21.683594 9.707031 21.183594 10.660156 21.273438 Z M 10.660156 21.273438 Z M 10.660156 21.273438 "/>
<path style="fill:none;stroke-width:0.02;stroke-linecap:butt;stroke-linejoin:miter;stroke:rgb(0%,0%,0%);stroke-opacity:1;stroke-miterlimit:10;" d="M 11.699958 2.118904 L 11.550027 2.118904 " transform="matrix(28.346457,0,0,-28.346457,1,256.11811)"/>
<path style="fill:none;stroke-width:0.02;stroke-linecap:butt;stroke-linejoin:miter;stroke:rgb(0%,0%,0%);stroke-opacity:1;stroke-miterlimit:10;" d="M 11.699958 3.625789 L 11.550027 3.625789 " transform="matrix(28.346457,0,0,-28.346457,1,256.11811)"/>
<path style="fill:none;stroke-width:0.02;stroke-linecap:butt;stroke-linejoin:miter;stroke:rgb(0%,0%,0%);stroke-opacity:1;stroke-miterlimit:10;" d="M 11.699958 5.132674 L 11.550027 5.132674 " transform="matrix(28.346457,0,0,-28.346457,1,256.11811)"/>
<path style="fill:none;stroke-width:0.02;stroke-linecap:butt;stroke-linejoin:miter;stroke:rgb(0%,0%,0%);stroke-opacity:1;stroke-miterlimit:10;" d="M 11.699958 6.639696 L 11.550027 6.639696 " transform="matrix(28.346457,0,0,-28.346457,1,256.11811)"/>
<path style="fill:none;stroke-width:0.02;stroke-linecap:butt;stroke-linejoin:miter;stroke:rgb(0%,0%,0%);stroke-opacity:1;stroke-miterlimit:10;" d="M 11.699958 8.146581 L 11.550027 8.146581 " transform="matrix(28.346457,0,0,-28.346457,1,256.11811)"/>
<path style="fill:none;stroke-width:0.02;stroke-linecap:round;stroke-linejoin:miter;stroke:rgb(0%,0%,0%);stroke-opacity:1;stroke-miterlimit:10;" d="M 11.699958 0.612019 L 11.699958 8.899954 " transform="matrix(28.346457,0,0,-28.346457,1,256.11811)"/>
<path style="fill:none;stroke-width:0.02;stroke-linecap:butt;stroke-linejoin:miter;stroke:rgb(0%,0%,0%);stroke-opacity:1;stroke-miterlimit:10;" d="M 1.907343 0.612019 L 1.907343 0.76195 " transform="matrix(28.346457,0,0,-28.346457,1,256.11811)"/>
<path style="fill:none;stroke-width:0.02;stroke-linecap:butt;stroke-linejoin:miter;stroke:rgb(0%,0%,0%);stroke-opacity:1;stroke-miterlimit:10;" d="M 3.131316 0.612019 L 3.131316 0.76195 " transform="matrix(28.346457,0,0,-28.346457,1,256.11811)"/>
<path style="fill:none;stroke-width:0.02;stroke-linecap:butt;stroke-linejoin:miter;stroke:rgb(0%,0%,0%);stroke-opacity:1;stroke-miterlimit:10;" d="M 4.355428 0.612019 L 4.355428 0.76195 " transform="matrix(28.346457,0,0,-28.346457,1,256.11811)"/>
<path style="fill:none;stroke-width:0.02;stroke-linecap:butt;stroke-linejoin:miter;stroke:rgb(0%,0%,0%);stroke-opacity:1;stroke-miterlimit:10;" d="M 5.579539 0.612019 L 5.579539 0.76195 " transform="matrix(28.346457,0,0,-28.346457,1,256.11811)"/>
<path style="fill:none;stroke-width:0.02;stroke-linecap:butt;stroke-linejoin:miter;stroke:rgb(0%,0%,0%);stroke-opacity:1;stroke-miterlimit:10;" d="M 6.80365 0.612019 L 6.80365 0.76195 " transform="matrix(28.346457,0,0,-28.346457,1,256.11811)"/>
<path style="fill:none;stroke-width:0.02;stroke-linecap:butt;stroke-linejoin:miter;stroke:rgb(0%,0%,0%);stroke-opacity:1;stroke-miterlimit:10;" d="M 8.027762 0.612019 L 8.027762 0.76195 " transform="matrix(28.346457,0,0,-28.346457,1,256.11811)"/>
<path style="fill:none;stroke-width:0.02;stroke-linecap:butt;stroke-linejoin:miter;stroke:rgb(0%,0%,0%);stroke-opacity:1;stroke-miterlimit:10;" d="M 9.251873 0.612019 L 9.251873 0.76195 " transform="matrix(28.346457,0,0,-28.346457,1,256.11811)"/>
<path style="fill:none;stroke-width:0.02;stroke-linecap:butt;stroke-linejoin:miter;stroke:rgb(0%,0%,0%);stroke-opacity:1;stroke-miterlimit:10;" d="M 10.475846 0.612019 L 10.475846 0.76195 " transform="matrix(28.346457,0,0,-28.346457,1,256.11811)"/>
<path style="fill:none;stroke-width:0.02;stroke-linecap:round;stroke-linejoin:miter;stroke:rgb(0%,0%,0%);stroke-opacity:1;stroke-miterlimit:10;" d="M 0.683231 0.612019 L 11.699958 0.612019 " transform="matrix(28.346457,0,0,-28.346457,1,256.11811)"/>
<path style=" stroke:none;fill-rule:nonzero;fill:rgb(0%,0%,0%);fill-opacity:1;" d="M 20.910156 245.652344 L 20.910156 252.648438 L 20.921875 252.671875 L 22.316406 252.671875 L 22.316406 253.292969 L 18.632812 253.292969 L 18.632812 252.671875 L 20.027344 252.671875 L 20.046875 252.648438 L 20.046875 246.773438 C 19.574219 246.933594 19.074219 247.035156 18.574219 247.023438 L 18.574219 246.390625 C 19.324219 246.402344 20.140625 246.195312 20.707031 245.652344 Z M 20.910156 245.652344 Z M 20.910156 245.652344 "/>
<path style=" stroke:none;fill-rule:nonzero;fill:rgb(0%,0%,0%);fill-opacity:1;" d="M 55.132812 245.652344 C 56.449219 245.6875 57.492188 247.035156 57.289062 248.304688 C 57.152344 249.574219 55.960938 250.300781 55.109375 251.09375 L 54.746094 251.46875 L 54.703125 251.492188 L 54.25 251.933594 L 54.214844 251.957031 L 53.761719 252.410156 L 53.714844 252.433594 L 53.613281 252.535156 L 53.636719 252.546875 L 57.308594 252.546875 L 57.308594 253.292969 L 52.820312 253.292969 L 52.820312 252.613281 L 54.644531 250.789062 C 55.519531 250.027344 56.539062 249.042969 56.378906 247.796875 C 56.289062 247.070312 55.675781 246.402344 54.929688 246.34375 C 54.167969 246.230469 53.5 246.832031 53.332031 247.558594 L 53.308594 247.589844 L 53.285156 247.671875 L 53.25 247.796875 L 53.183594 248.046875 L 53.171875 248.101562 C 53.011719 247.910156 52.84375 247.703125 52.71875 247.488281 C 52.945312 246.558594 53.691406 245.6875 54.679688 245.652344 Z M 55.132812 245.652344 Z M 55.132812 245.652344 "/>
<path style=" stroke:none;fill-rule:nonzero;fill:rgb(0%,0%,0%);fill-opacity:1;" d="M 89.980469 245.652344 C 90.976562 245.699219 92.019531 246.617188 91.78125 247.671875 C 91.667969 248.386719 91.167969 248.976562 90.546875 249.292969 C 91.554688 249.609375 92.335938 250.675781 92.066406 251.730469 C 91.792969 253.101562 90.21875 253.863281 88.945312 253.441406 C 88.335938 253.261719 87.710938 252.875 87.417969 252.308594 C 87.484375 252.136719 87.460938 251.84375 87.542969 251.730469 C 88.140625 252.613281 89.410156 253.214844 90.410156 252.714844 C 91.5 252.023438 91.328125 250.007812 90.011719 249.667969 L 89.910156 249.667969 L 89.886719 249.644531 L 88.832031 249.644531 L 88.832031 248.964844 C 89.480469 248.953125 90.285156 248.871094 90.648438 248.203125 C 91.035156 247.625 91 246.671875 90.261719 246.390625 C 89.390625 246.050781 88.3125 246.605469 87.984375 247.488281 C 87.847656 247.296875 87.710938 247.105469 87.574219 246.898438 C 88.039062 246.0625 89.027344 245.5625 89.980469 245.652344 Z M 89.980469 245.652344 Z M 89.980469 245.652344 "/>
<path style=" stroke:none;fill-rule:nonzero;fill:rgb(0%,0%,0%);fill-opacity:1;" d="M 125.824219 245.890625 L 125.824219 250.664062 L 125.84375 250.6875 L 126.96875 250.6875 L 126.96875 251.367188 L 125.84375 251.367188 L 125.824219 251.378906 L 125.824219 253.292969 L 124.960938 253.292969 L 124.960938 251.378906 L 124.9375 251.367188 L 121.945312 251.367188 L 121.945312 250.664062 C 122.898438 249.078125 123.851562 247.476562 124.800781 245.890625 Z M 125.824219 245.890625 Z M 124.984375 246.320312 C 124.757812 247.5 124.03125 248.511719 123.488281 249.542969 C 123.273438 249.914062 122.988281 250.324219 122.828125 250.6875 L 125.007812 250.6875 L 125.019531 250.664062 L 125.019531 246.320312 L 125.007812 246.300781 Z M 124.984375 246.320312 Z M 124.984375 246.320312 "/>
<path style=" stroke:none;fill-rule:nonzero;fill:rgb(0%,0%,0%);fill-opacity:1;" d="M 161.03125 245.890625 L 161.03125 246.59375 L 158.082031 246.59375 L 158.0625 246.605469 L 158.0625 248.929688 C 158.332031 248.746094 158.71875 248.511719 159.082031 248.5 C 160.363281 248.363281 161.347656 249.621094 161.40625 250.789062 C 161.585938 252.273438 160.191406 253.75 158.695312 253.523438 C 157.949219 253.5 157.222656 253.058594 156.789062 252.445312 C 156.914062 252.273438 157.019531 251.980469 157.164062 251.878906 C 157.699219 252.921875 159.421875 253.339844 160.113281 252.242188 C 160.554688 251.414062 160.542969 250.359375 160.035156 249.5625 C 159.445312 248.804688 158.277344 249.269531 158.003906 250.074219 L 157.265625 250.074219 L 157.265625 245.890625 Z M 161.03125 245.890625 Z M 161.03125 245.890625 "/>
<path style=" stroke:none;fill-rule:nonzero;fill:rgb(0%,0%,0%);fill-opacity:1;" d="M 194.789062 245.652344 C 195.082031 245.699219 195.425781 245.730469 195.707031 245.867188 L 195.707031 246.527344 C 194.925781 246.183594 193.90625 246.140625 193.292969 246.832031 C 192.746094 247.410156 192.5 248.273438 192.476562 249.03125 C 193.132812 248.160156 194.617188 247.671875 195.425781 248.578125 C 196.230469 249.507812 196.363281 250.84375 196.003906 251.980469 C 195.605469 252.886719 194.6875 253.714844 193.667969 253.523438 C 192.28125 253.40625 191.660156 251.867188 191.589844 250.6875 C 191.332031 249.019531 191.726562 246.921875 193.316406 245.96875 L 193.335938 245.957031 L 193.574219 245.835938 L 193.644531 245.8125 L 193.679688 245.789062 L 193.871094 245.730469 L 194.027344 245.6875 L 194.132812 245.664062 L 194.257812 245.664062 L 194.277344 245.652344 Z M 194.789062 245.652344 Z M 193.679688 248.804688 C 192.691406 248.976562 192.375 250.164062 192.5 250.96875 C 192.554688 251.730469 192.851562 252.738281 193.722656 252.898438 C 194.652344 253.023438 195.253906 252.023438 195.277344 251.21875 C 195.320312 250.402344 195.277344 249.472656 194.5625 248.941406 L 194.402344 248.863281 L 194.277344 248.828125 L 194.175781 248.804688 L 194.152344 248.78125 L 193.699219 248.78125 Z M 193.679688 248.804688 Z M 193.679688 248.804688 "/>
<path style=" stroke:none;fill-rule:nonzero;fill:rgb(0%,0%,0%);fill-opacity:1;" d="M 230.90625 245.890625 L 230.90625 246.605469 C 229.292969 248.488281 228.386719 251.027344 228.398438 253.417969 L 227.480469 253.417969 C 227.457031 251.003906 228.445312 248.453125 230.167969 246.671875 L 230.144531 246.652344 L 226.210938 246.652344 L 226.210938 245.890625 L 230.90625 245.890625 L 230.90625 246.605469 Z M 230.90625 245.890625 Z M 230.90625 245.890625 "/>
<path style=" stroke:none;fill-rule:nonzero;fill:rgb(0%,0%,0%);fill-opacity:1;" d="M 263.472656 245.652344 C 264.671875 245.699219 265.808594 246.992188 265.332031 248.191406 C 265.128906 248.746094 264.558594 249.089844 264.09375 249.328125 C 265.253906 249.667969 265.953125 251.015625 265.433594 252.125 C 264.890625 253.566406 262.824219 254.019531 261.691406 252.976562 C 260.660156 252.160156 260.625 250.390625 261.769531 249.667969 C 261.941406 249.484375 262.257812 249.429688 262.40625 249.292969 C 261.417969 249.007812 260.75 247.863281 261.214844 246.898438 C 261.589844 246.039062 262.554688 245.5625 263.472656 245.652344 Z M 263.472656 245.652344 Z M 263.039062 246.300781 C 262.203125 246.320312 261.613281 247.273438 261.894531 248.023438 C 262.222656 249.316406 264.390625 249.269531 264.640625 247.941406 C 264.867188 247.207031 264.277344 246.320312 263.472656 246.300781 L 263.449219 246.289062 L 263.0625 246.289062 Z M 263.039062 246.300781 Z M 263.0625 249.667969 C 262.078125 249.734375 261.589844 250.914062 261.851562 251.753906 C 262.019531 252.941406 263.722656 253.292969 264.390625 252.34375 C 265.035156 251.46875 264.71875 249.90625 263.550781 249.667969 L 263.449219 249.667969 L 263.425781 249.644531 L 263.074219 249.644531 Z M 263.0625 249.667969 Z M 263.0625 249.667969 "/>
<path style=" stroke:none;fill-rule:nonzero;fill:rgb(0%,0%,0%);fill-opacity:1;" d="M 298.191406 245.652344 C 299.554688 245.800781 300.144531 247.34375 300.234375 248.519531 C 300.394531 250.050781 300.210938 251.84375 298.964844 252.941406 C 298.183594 253.726562 296.796875 253.75 295.960938 253.046875 C 296.0625 252.851562 296.175781 252.625 296.300781 252.46875 C 297.035156 253.179688 298.328125 252.976562 298.804688 252.058594 C 299.144531 251.503906 299.347656 250.789062 299.339844 250.175781 C 298.667969 251.039062 297.195312 251.539062 296.390625 250.628906 C 295.574219 249.6875 295.425781 248.316406 295.835938 247.183594 C 296.253906 246.289062 297.148438 245.515625 298.191406 245.652344 Z M 298.191406 245.652344 Z M 297.820312 246.300781 C 297.003906 246.367188 296.582031 247.273438 296.527344 247.988281 C 296.492188 248.792969 296.527344 249.734375 297.242188 250.257812 C 298.035156 250.742188 299.054688 250.152344 299.234375 249.292969 C 299.453125 248.453125 299.316406 247.558594 298.882812 246.773438 C 298.648438 246.445312 298.214844 246.207031 297.820312 246.300781 Z M 297.820312 246.300781 Z M 297.820312 246.300781 "/>
<path style=" stroke:none;fill-rule:nonzero;fill:rgb(0%,0%,0%);fill-opacity:1;" d="M 330.363281 245.652344 L 330.363281 252.648438 L 330.375 252.671875 L 331.769531 252.671875 L 331.769531 253.292969 L 328.085938 253.292969 L 328.085938 252.671875 L 329.480469 252.671875 L 329.5 252.648438 L 329.5 246.773438 C 329.023438 246.933594 328.527344 247.035156 328.027344 247.023438 L 328.027344 246.390625 C 328.777344 246.402344 329.59375 246.195312 330.160156 245.652344 Z M 330.363281 245.652344 Z M 330.363281 245.652344 "/>
<path style=" stroke:none;fill-rule:nonzero;fill:rgb(0%,0%,0%);fill-opacity:1;" d="M 335.679688 245.652344 C 336.757812 245.730469 337.472656 246.71875 337.664062 247.714844 C 337.765625 248.167969 337.789062 248.601562 337.835938 249.054688 L 337.835938 250.210938 C 337.777344 251.390625 337.496094 252.941406 336.214844 253.417969 C 335.101562 253.863281 333.796875 253.171875 333.46875 252.035156 C 333.21875 251.433594 333.199219 250.824219 333.140625 250.210938 L 333.140625 249.054688 C 333.199219 247.875 333.445312 246.308594 334.71875 245.789062 L 334.773438 245.765625 L 334.820312 245.753906 L 334.875 245.730469 L 335.046875 245.6875 L 335.148438 245.664062 L 335.273438 245.664062 L 335.296875 245.652344 Z M 335.679688 245.652344 Z M 335.328125 246.34375 C 334.378906 246.457031 334.09375 247.601562 334.027344 248.375 L 334.027344 248.679688 L 334.003906 248.703125 L 334.003906 250.277344 C 334.070312 251.09375 334.128906 252.148438 334.875 252.695312 C 335.566406 253.171875 336.484375 252.636719 336.679688 251.898438 C 336.882812 251.355469 336.929688 250.824219 336.972656 250.277344 L 336.972656 248.703125 C 336.90625 247.875 336.792969 246.71875 335.839844 246.390625 L 335.761719 246.367188 L 335.738281 246.34375 L 335.636719 246.34375 L 335.613281 246.320312 L 335.351562 246.320312 Z M 335.328125 246.34375 Z M 335.328125 246.34375 "/>
<path style="fill:none;stroke-width:0.02;stroke-linecap:butt;stroke-linejoin:miter;stroke:rgb(0%,0%,0%);stroke-opacity:1;stroke-miterlimit:10;" d="M 1.907343 8.899954 L 1.907343 8.750024 " transform="matrix(28.346457,0,0,-28.346457,1,256.11811)"/>
<path style="fill:none;stroke-width:0.02;stroke-linecap:butt;stroke-linejoin:miter;stroke:rgb(0%,0%,0%);stroke-opacity:1;stroke-miterlimit:10;" d="M 3.131316 8.899954 L 3.131316 8.750024 " transform="matrix(28.346457,0,0,-28.346457,1,256.11811)"/>
<path style="fill:none;stroke-width:0.02;stroke-linecap:butt;stroke-linejoin:miter;stroke:rgb(0%,0%,0%);stroke-opacity:1;stroke-miterlimit:10;" d="M 4.355428 8.899954 L 4.355428 8.750024 " transform="matrix(28.346457,0,0,-28.346457,1,256.11811)"/>
<path style="fill:none;stroke-width:0.02;stroke-linecap:butt;stroke-linejoin:miter;stroke:rgb(0%,0%,0%);stroke-opacity:1;stroke-miterlimit:10;" d="M 5.579539 8.899954 L 5.579539 8.750024 " transform="matrix(28.346457,0,0,-28.346457,1,256.11811)"/>
<path style="fill:none;stroke-width:0.02;stroke-linecap:butt;stroke-linejoin:miter;stroke:rgb(0%,0%,0%);stroke-opacity:1;stroke-miterlimit:10;" d="M 6.80365 8.899954 L 6.80365 8.750024 " transform="matrix(28.346457,0,0,-28.346457,1,256.11811)"/>
<path style="fill:none;stroke-width:0.02;stroke-linecap:butt;stroke-linejoin:miter;stroke:rgb(0%,0%,0%);stroke-opacity:1;stroke-miterlimit:10;" d="M 8.027762 8.899954 L 8.027762 8.750024 " transform="matrix(28.346457,0,0,-28.346457,1,256.11811)"/>
<path style="fill:none;stroke-width:0.02;stroke-linecap:butt;stroke-linejoin:miter;stroke:rgb(0%,0%,0%);stroke-opacity:1;stroke-miterlimit:10;" d="M 9.251873 8.899954 L 9.251873 8.750024 " transform="matrix(28.346457,0,0,-28.346457,1,256.11811)"/>
<path style="fill:none;stroke-width:0.02;stroke-linecap:butt;stroke-linejoin:miter;stroke:rgb(0%,0%,0%);stroke-opacity:1;stroke-miterlimit:10;" d="M 10.475846 8.899954 L 10.475846 8.750024 " transform="matrix(28.346457,0,0,-28.346457,1,256.11811)"/>
<path style="fill:none;stroke-width:0.02;stroke-linecap:round;stroke-linejoin:miter;stroke:rgb(0%,0%,0%);stroke-opacity:1;stroke-miterlimit:10;" d="M 0.683231 8.899954 L 11.699958 8.899954 " transform="matrix(28.346457,0,0,-28.346457,1,256.11811)"/>
<path style="fill:none;stroke-width:0.1;stroke-linecap:butt;stroke-linejoin:miter;stroke:rgb(93.333333%,50.980392%,93.333333%);stroke-opacity:1;stroke-miterlimit:10;" d="M 0.683231 3.540626 L 1.907343 4.62404 L 3.131316 5.474014 L 4.355428 8.255859 L 5.579539 3.627305 L 6.80365 2.637184 L 8.027762 4.738417 L 9.251873 6.859769 L 10.475846 4.220275 L 11.699958 4.620181 " transform="matrix(28.346457,0,0,-28.346457,1,256.11811)"/>
<path style="fill:none;stroke-width:0.1;stroke-linecap:butt;stroke-linejoin:miter;stroke:rgb(0%,0%,50.196078%);stroke-opacity:1;stroke-miterlimit:10;" d="M 0.683231 2.794694 L 1.907343 1.829103 L 3.131316 4.562855 L 4.355428 3.191431 L 5.579539 3.498458 L 6.80365 3.152433 L 8.027762 4.937819 L 9.251873 4.969238 L 10.475846 4.622937 L 11.699958 7.192703 " transform="matrix(28.346457,0,0,-28.346457,1,256.11811)"/>
<path style="fill:none;stroke-width:0.1;stroke-linecap:butt;stroke-linejoin:miter;stroke:rgb(100%,64.705882%,0%);stroke-opacity:1;stroke-miterlimit:10;" d="M 0.683231 4.286283 L 1.907343 2.909622 L 3.131316 3.189226 L 4.355428 1.188728 L 5.579539 3.330062 L 6.80365 8.049154 L 8.027762 2.08211 L 9.251873 1.82428 L 10.475846 5.682235 L 11.699958 4.741862 " transform="matrix(28.346457,0,0,-28.346457,1,256.11811)"/>
</g>
</svg>
