<svg xmlns="http://www.w3.org/2000/svg" width="456.21" height="342.824" viewBox="0 0 342.157 257.118"><path style="fill:none;stroke-width:.02;stroke-linecap:butt;stroke-linejoin:miter;stroke:#000;stroke-opacity:1;stroke-miterlimit:10" d="M.994 1.428h.15M.994 2.243h.15M.994 3.06h.15M.994 3.875h.15M.994 4.69h.15M.994 5.506h.15M.994 6.322h.15M.994 7.138h.15M.994 7.953h.15" transform="matrix(28.34646 0 0 -28.34646 1 256.118)"/><path style="fill:none;stroke-width:.02;stroke-linecap:round;stroke-linejoin:miter;stroke:#000;stroke-opacity:1;stroke-miterlimit:10" d="M.994.612v8.157" transform="matrix(28.34646 0 0 -28.34646 1 256.118)"/><path style="stroke:none;fill-rule:nonzero;fill:#000;fill-opacity:1" d="M6.941 239.684v.632H3.973v-.632Zm0 0ZM10.988 234.852v6.996l.012.023h1.395v.625H8.71v-.625h1.394l.024-.023v-5.871c-.477.156-.977.257-1.477.246v-.633c.75.012 1.567-.192 2.133-.738Zm0 0ZM15.32 241.586v.91h-.918v-.91Zm0 0ZM19.45 234.852c1.073.082 1.788 1.066 1.984 2.066.101.453.125.883.168 1.336v1.156c-.055 1.18-.34 2.735-1.622 3.211-1.109.441-2.414-.25-2.742-1.387-.25-.597-.273-1.21-.332-1.824v-1.156c.059-1.18.309-2.742 1.578-3.266l.055-.023.047-.012.059-.02.168-.046.101-.024h.125l.023-.011Zm0 0Zm-.352.691c-.953.113-1.239 1.262-1.305 2.031v.305l-.023.023v1.578c.066.817.125 1.868.875 2.415.69.476 1.609-.06 1.8-.793.203-.547.25-1.079.297-1.622v-1.578c-.07-.828-.183-1.984-1.137-2.312l-.078-.024-.023-.023h-.102l-.023-.02h-.262Zm0 0ZM6.941 216.563v.632H3.973v-.632Zm0 0ZM10.637 211.73c1.078.079 1.793 1.067 1.984 2.063.102.453.125.887.172 1.34v1.156c-.059 1.18-.34 2.73-1.621 3.207-1.113.445-2.418-.25-2.746-1.383-.25-.601-.27-1.21-.328-1.824v-1.156c.058-1.18.304-2.746 1.578-3.266l.054-.023.047-.012.055-.023.172-.043.101-.024h.125l.024-.012Zm0 0Zm-.352.692c-.953.113-1.234 1.258-1.305 2.031v.305l-.02.023v1.574c.067.817.126 1.872.872 2.418.691.473 1.61-.058 1.805-.796.203-.543.25-1.075.293-1.622v-1.574c-.067-.828-.18-1.984-1.133-2.312l-.078-.024-.024-.023h-.101l-.024-.024h-.261Zm0 0ZM15.32 218.465v.906h-.918v-.906Zm0 0ZM19.469 211.73c1.203.047 2.336 1.336 1.863 2.54-.207.554-.773.894-1.238 1.132 1.156.344 1.86 1.692 1.34 2.801-.547 1.442-2.61 1.895-3.743.852-1.03-.817-1.066-2.586.079-3.309.171-.184.488-.238.636-.375-.988-.285-1.656-1.43-1.191-2.394.375-.86 1.336-1.336 2.254-1.247Zm0 0Zm-.43.645c-.84.023-1.43.977-1.144 1.727.328 1.293 2.496 1.246 2.742-.082.226-.735-.36-1.622-1.168-1.645l-.02-.008h-.387Zm0 0Zm.023 3.371c-.988.066-1.472 1.246-1.214 2.086.172 1.188 1.87 1.54 2.543.59.644-.875.328-2.442-.84-2.676h-.102l-.023-.023h-.352Zm0 0ZM6.941 193.438v.636H3.973v-.637Zm0 0ZM10.637 188.61c1.078.077 1.793 1.066 1.984 2.062.102.453.125.883.172 1.336v1.16c-.059 1.176-.34 2.73-1.621 3.207-1.113.441-2.418-.25-2.746-1.383-.25-.601-.27-1.215-.328-1.824v-1.16c.058-1.176.304-2.742 1.578-3.262l.054-.023.047-.012.055-.024.172-.046.101-.02h.125l.024-.012Zm0 0Zm-.352.69c-.953.114-1.234 1.259-1.305 2.028v.309l-.02.023v1.574c.067.817.126 1.871.872 2.414.691.477 1.61-.054 1.805-.793.203-.542.25-1.078.293-1.62v-1.575c-.067-.828-.18-1.984-1.133-2.316l-.078-.02-.024-.023h-.101l-.024-.024h-.261Zm0 0ZM15.32 195.344v.906h-.918v-.906Zm0 0ZM20.184 188.61c.296.042.636.077.918.214v.656c-.782-.34-1.801-.382-2.415.31-.542.577-.792 1.437-.816 2.198.66-.875 2.145-1.363 2.95-.453.804.93.94 2.266.577 3.399-.398.91-1.316 1.734-2.335 1.543-1.383-.114-2.008-1.657-2.075-2.836-.261-1.664.137-3.762 1.723-4.715l.023-.012.239-.125.066-.023.035-.02.192-.059.16-.046.101-.02h.125l.024-.012Zm0 0Zm-1.11 3.152c-.988.168-1.304 1.36-1.18 2.164.06.762.352 1.77 1.223 1.93.93.12 1.531-.876 1.555-1.68.047-.817 0-1.746-.715-2.281l-.156-.079-.125-.035-.102-.02-.023-.023h-.453Zm0 0ZM6.941 170.316v.637H3.973v-.637Zm0 0ZM10.637 165.484c1.078.082 1.793 1.067 1.984 2.067.102.453.125.883.172 1.336v1.156c-.059 1.18-.34 2.734-1.621 3.21-1.113.442-2.418-.25-2.746-1.382-.25-.601-.27-1.215-.328-1.828v-1.156c.058-1.18.304-2.742 1.578-3.266l.054-.023.047-.008.055-.024.172-.046.101-.024h.125l.024-.012Zm0 0Zm-.352.692c-.953.117-1.234 1.262-1.305 2.031v.305l-.02.023v1.578c.067.817.126 1.871.872 2.414.691.477 1.61-.058 1.805-.793.203-.547.25-1.078.293-1.62v-1.579c-.067-.828-.18-1.984-1.133-2.312l-.078-.024-.024-.023h-.101l-.024-.02h-.261Zm0 0ZM15.32 172.223v.906h-.918v-.906Zm0 0ZM20.617 165.723v4.773l.02.024h1.125v.68h-1.125l-.02.01v1.919h-.863v-1.918l-.024-.012h-2.992v-.703c.953-1.586 1.907-3.184 2.856-4.773Zm0 0Zm-.84.433c-.226 1.18-.953 2.188-1.496 3.219-.215.375-.5.781-.66 1.145h2.18l.012-.024v-4.34l-.012-.023Zm0 0ZM6.941 147.195v.633H3.973v-.633Zm0 0ZM10.637 142.363c1.078.078 1.793 1.067 1.984 2.063.102.457.125.887.172 1.34v1.156c-.059 1.18-.34 2.734-1.621 3.207-1.113.445-2.418-.246-2.746-1.383-.25-.601-.27-1.21-.328-1.824v-1.156c.058-1.18.304-2.746 1.578-3.266l.054-.023.047-.012.055-.024.172-.043.101-.023h.125l.024-.012Zm0 0Zm-.352.692c-.953.113-1.234 1.257-1.305 2.03v.306l-.02.023v1.574c.067.817.126 1.871.872 2.418.691.477 1.61-.058 1.805-.793.203-.547.25-1.078.293-1.625v-1.574c-.067-.828-.18-1.984-1.133-2.312l-.078-.024-.024-.023h-.101l-.024-.024h-.261Zm0 0ZM15.32 149.098v.91h-.918v-.91Zm0 0ZM19.324 142.363c1.313.035 2.356 1.383 2.153 2.653-.137 1.27-1.325 1.996-2.176 2.789l-.363.375-.047.023-.453.442-.032.023-.453.453-.047.024-.101.101.023.012H21.5v.75h-4.488v-.684l1.824-1.824c.871-.758 1.894-1.746 1.734-2.992-.09-.727-.703-1.395-1.453-1.453-.758-.114-1.426.488-1.597 1.215l-.024.03-.02.083-.105.375-.008.054c-.16-.19-.332-.394-.457-.613.23-.93.977-1.8 1.965-1.836Zm0 0ZM10.637 119.242c1.078.078 1.793 1.067 1.984 2.063.102.453.125.886.172 1.34v1.156c-.059 1.18-.34 2.73-1.621 3.207-1.113.441-2.418-.25-2.746-1.383-.25-.602-.27-1.215-.328-1.824v-1.156c.058-1.18.304-2.747 1.578-3.266l.054-.024.047-.011.055-.024.172-.043.101-.023h.125l.024-.012Zm0 0Zm-.352.692c-.953.113-1.234 1.257-1.305 2.027v.309l-.02.023v1.574c.067.817.126 1.871.872 2.414.691.477 1.61-.054 1.805-.793.203-.543.25-1.078.293-1.62v-1.575c-.067-.828-.18-1.984-1.133-2.313l-.078-.023-.024-.023h-.101l-.024-.024h-.261Zm0 0ZM15.32 125.977v.906h-.918v-.906Zm0 0ZM19.45 119.242c1.073.078 1.788 1.067 1.984 2.063.101.453.125.886.168 1.34v1.156c-.055 1.18-.34 2.73-1.622 3.207-1.109.441-2.414-.25-2.742-1.383-.25-.602-.273-1.215-.332-1.824v-1.156c.059-1.18.309-2.747 1.578-3.266l.055-.024.047-.011.059-.024.168-.043.101-.023h.125l.023-.012Zm0 0Zm-.352.692c-.953.113-1.239 1.257-1.305 2.027v.309l-.023.023v1.574c.066.817.125 1.871.875 2.414.69.477 1.609-.054 1.8-.793.203-.543.25-1.078.297-1.62v-1.575c-.07-.828-.183-1.984-1.137-2.313l-.078-.023-.023-.023h-.102l-.023-.024h-.262Zm0 0ZM10.637 96.121c1.078.078 1.793 1.063 1.984 2.063.102.453.125.882.172 1.336v1.156c-.059 1.18-.34 2.734-1.621 3.21-1.113.442-2.418-.25-2.746-1.382-.25-.602-.27-1.215-.328-1.828V99.52c.058-1.18.304-2.743 1.578-3.266l.054-.02.047-.011.055-.024.172-.047.101-.023h.125l.024-.008Zm0 0Zm-.352.692c-.953.113-1.234 1.257-1.305 2.027v.308l-.02.02v1.578c.067.817.126 1.871.872 2.414.691.477 1.61-.055 1.805-.793.203-.543.25-1.078.293-1.62v-1.579c-.067-.828-.18-1.984-1.133-2.313l-.078-.023-.024-.02h-.101l-.024-.023h-.261Zm0 0ZM15.32 102.855v.907h-.918v-.907Zm0 0ZM19.324 96.121c1.313.031 2.356 1.383 2.153 2.652-.137 1.27-1.325 1.997-2.176 2.79l-.363.374-.047.02-.453.445-.032.02-.453.457-.047.02-.101.101.023.012H21.5v.75h-4.488v-.68l1.824-1.828c.871-.758 1.894-1.746 1.734-2.992-.09-.727-.703-1.395-1.453-1.45-.758-.113-1.426.485-1.597 1.211l-.024.036-.02.078-.105.375-.008.058c-.16-.195-.332-.398-.457-.613.23-.93.977-1.805 1.965-1.836Zm0 0ZM10.637 72.996c1.078.082 1.793 1.067 1.984 2.067.102.453.125.882.172 1.335v1.157c-.059 1.18-.34 2.734-1.621 3.21-1.113.442-2.418-.25-2.746-1.386-.25-.598-.27-1.211-.328-1.824v-1.157c.058-1.18.304-2.742 1.578-3.265l.054-.024.047-.011.055-.02.172-.047.101-.023h.125l.024-.012Zm0 0Zm-.352.692c-.953.113-1.234 1.261-1.305 2.03v.305l-.02.024v1.578c.067.816.126 1.871.872 2.414.691.477 1.61-.059 1.805-.793.203-.547.25-1.078.293-1.621v-1.578c-.067-.828-.18-1.984-1.133-2.313l-.078-.023-.024-.023h-.101l-.024-.02h-.261Zm0 0ZM15.32 79.73v.91h-.918v-.91Zm0 0ZM20.617 73.234v4.774l.02.023h1.125v.68h-1.125l-.02.012v1.918h-.863v-1.918l-.024-.012h-2.992v-.703c.953-1.586 1.907-3.184 2.856-4.774Zm0 0Zm-.84.434c-.226 1.176-.953 2.187-1.496 3.219-.215.375-.5.781-.66 1.144h2.18l.012-.023v-4.34l-.012-.023Zm0 0ZM10.637 49.875c1.078.078 1.793 1.066 1.984 2.063.102.453.125.886.172 1.34v1.156c-.059 1.18-.34 2.73-1.621 3.207-1.113.445-2.418-.25-2.746-1.383-.25-.602-.27-1.211-.328-1.824v-1.157c.058-1.18.304-2.746 1.578-3.265l.054-.024.047-.011.055-.024.172-.043.101-.023h.125l.024-.012Zm0 0Zm-.352.691c-.953.114-1.234 1.258-1.305 2.032v.304l-.02.024V54.5c.067.816.126 1.871.872 2.418.691.473 1.61-.059 1.805-.797.203-.543.25-1.074.293-1.621v-1.574c-.067-.828-.18-1.985-1.133-2.313l-.078-.023-.024-.024h-.101l-.024-.023h-.261Zm0 0ZM15.32 56.61v.906h-.918v-.907Zm0 0ZM20.184 49.875c.296.047.636.078.918.215v.656c-.782-.34-1.801-.383-2.415.309-.542.578-.792 1.441-.816 2.199.66-.875 2.145-1.36 2.95-.453.804.93.94 2.265.577 3.402-.398.906-1.316 1.734-2.335 1.54-1.383-.114-2.008-1.653-2.075-2.833-.261-1.668.137-3.765 1.723-4.719l.023-.011.239-.125.066-.02.035-.023.192-.059.16-.043.101-.023h.125l.024-.012Zm0 0Zm-1.11 3.152c-.988.168-1.304 1.36-1.18 2.164.06.762.352 1.77 1.223 1.93.93.125 1.531-.875 1.555-1.68.047-.816 0-1.746-.715-2.277l-.156-.082-.125-.031-.102-.024-.023-.023h-.453Zm0 0ZM10.637 26.754c1.078.078 1.793 1.066 1.984 2.062.102.454.125.883.172 1.34v1.157c-.059 1.175-.34 2.73-1.621 3.207-1.113.44-2.418-.25-2.746-1.383-.25-.602-.27-1.215-.328-1.825v-1.156c.058-1.18.304-2.746 1.578-3.265l.054-.024.047-.012.055-.023.172-.047.101-.02h.125l.024-.011Zm0 0Zm-.352.691c-.953.114-1.234 1.258-1.305 2.028v.308l-.02.024v1.574c.067.816.126 1.871.872 2.414.691.477 1.61-.055 1.805-.793.203-.543.25-1.078.293-1.621v-1.574c-.067-.828-.18-1.985-1.133-2.317l-.078-.02-.024-.023h-.101l-.024-.023h-.261Zm0 0ZM15.32 33.488v.907h-.918v-.907Zm0 0ZM19.469 26.754c1.203.043 2.336 1.336 1.863 2.539-.207.555-.773.895-1.238 1.133 1.156.34 1.86 1.691 1.34 2.8-.547 1.442-2.61 1.895-3.743.852-1.03-.816-1.066-2.586.079-3.312.171-.18.488-.239.636-.375-.988-.282-1.656-1.426-1.191-2.391.375-.863 1.336-1.34 2.254-1.246Zm0 0Zm-.43.644c-.84.024-1.43.977-1.144 1.723.328 1.293 2.496 1.25 2.742-.078.226-.738-.36-1.621-1.168-1.645l-.02-.011h-.387Zm0 0Zm.023 3.368c-.988.07-1.472 1.25-1.214 2.086.172 1.191 1.87 1.543 2.543.59.644-.872.328-2.438-.84-2.676h-.102l-.023-.024h-.352Zm0 0ZM10.988 3.629v6.996l.012.023h1.395v.625H8.71v-.625h1.394l.024-.023V4.754c-.477.156-.977.262-1.477.25v-.637c.75.012 1.567-.191 2.133-.738Zm0 0ZM15.32 10.367v.906h-.918v-.906Zm0 0ZM19.45 3.629c1.073.082 1.788 1.066 1.984 2.066.101.453.125.883.168 1.336v1.157c-.055 1.18-.34 2.734-1.622 3.21-1.109.442-2.414-.25-2.742-1.382-.25-.602-.273-1.215-.332-1.829V7.032c.059-1.18.309-2.742 1.578-3.265l.055-.024.047-.008.059-.023.168-.047.101-.023h.125l.023-.012Zm0 0Zm-.352.691c-.953.117-1.239 1.262-1.305 2.032v.304l-.023.024v1.578c.066.816.125 1.87.875 2.414.69.476 1.609-.059 1.8-.793.203-.547.25-1.078.297-1.621V6.68c-.07-.828-.183-1.985-1.137-2.313l-.078-.023-.023-.024h-.102l-.023-.02h-.262Zm0 0Zm0 0"/><path style="fill:none;stroke-width:.02;stroke-linecap:butt;stroke-linejoin:miter;stroke:#000;stroke-opacity:1;stroke-miterlimit:10" d="M11.645 1.428h-.15M11.645 2.243h-.15M11.645 3.06h-.15M11.645 3.875h-.15M11.645 4.69h-.15M11.645 5.506h-.15M11.645 6.322h-.15M11.645 7.138h-.15M11.645 7.953h-.15" transform="matrix(28.34646 0 0 -28.34646 1 256.118)"/><path style="fill:none;stroke-width:.02;stroke-linecap:round;stroke-linejoin:miter;stroke:#000;stroke-opacity:1;stroke-miterlimit:10" d="M11.645.612v8.157" transform="matrix(28.34646 0 0 -28.34646 1 256.118)"/><path style="fill:none;stroke-width:.02;stroke-linecap:butt;stroke-linejoin:miter;stroke:#000;stroke-opacity:1;stroke-miterlimit:10" d="M2.06.612v.15M3.124.612v.15M4.19.612v.15M5.254.612v.15M6.32.612v.15M7.384.612v.15M8.45.612v.15M9.515.612v.15M10.58.612v.15" transform="matrix(28.34646 0 0 -28.34646 1 256.118)"/><path style="fill:none;stroke-width:.02;stroke-linecap:round;stroke-linejoin:miter;stroke:#000;stroke-opacity:1;stroke-miterlimit:10" d="M.994.612h10.65" transform="matrix(28.34646 0 0 -28.34646 1 256.118)"/><path style="stroke:none;fill-rule:nonzero;fill:#000;fill-opacity:1" d="M23.156 250.484v.633h-2.972v-.633Zm0 0ZM27.203 245.652v6.996l.012.024h1.394v.621h-3.683v-.621h1.394l.02-.024v-5.875c-.473.16-.973.262-1.473.25v-.632c.75.011 1.567-.196 2.133-.739Zm0 0ZM31.535 252.387v.906h-.918v-.906Zm0 0ZM35.66 245.652c1.078.078 1.793 1.067 1.985 2.063.105.453.125.887.171 1.34v1.156c-.058 1.18-.34 2.73-1.62 3.207-1.114.445-2.415-.246-2.747-1.383-.246-.601-.27-1.21-.328-1.824v-1.156c.059-1.18.309-2.746 1.578-3.266l.055-.023.047-.012.054-.024.172-.042.102-.024h.125l.023-.012Zm0 0Zm-.347.692c-.954.113-1.239 1.258-1.305 2.031v.305l-.024.023v1.574c.067.817.125 1.871.871 2.418.692.477 1.614-.058 1.805-.797.203-.543.25-1.074.293-1.62v-1.575c-.066-.828-.18-1.984-1.133-2.312l-.078-.024-.023-.023h-.102l-.023-.024h-.262Zm0 0ZM53.348 250.484v.633h-2.973v-.633Zm0 0ZM57.043 245.652c1.078.078 1.793 1.067 1.984 2.063.102.453.125.887.168 1.34v1.156c-.054 1.18-.34 2.73-1.62 3.207-1.11.445-2.415-.246-2.743-1.383-.25-.601-.273-1.21-.328-1.824v-1.156c.055-1.18.305-2.746 1.574-3.266l.059-.023.043-.012.058-.024.168-.042.102-.024h.125l.023-.012Zm0 0Zm-.352.692c-.953.113-1.234 1.258-1.304 2.031v.305l-.024.023v1.574c.07.817.125 1.871.875 2.418.692.477 1.61-.058 1.801-.797.207-.543.25-1.074.297-1.62v-1.575c-.07-.828-.184-1.984-1.133-2.312l-.082-.024-.023-.023h-.102l-.02-.024h-.261Zm0 0ZM61.727 252.387v.906h-.918v-.906Zm0 0ZM65.875 245.652c1.203.047 2.336 1.34 1.86 2.54-.204.554-.77.898-1.235 1.136 1.156.34 1.86 1.688 1.336 2.797-.543 1.441-2.606 1.895-3.742.852-1.031-.817-1.063-2.586.082-3.309.168-.184.488-.238.633-.375-.985-.285-1.657-1.43-1.192-2.395.375-.859 1.34-1.335 2.258-1.246Zm0 0Zm-.43.649c-.84.02-1.43.972-1.144 1.722.328 1.293 2.492 1.247 2.742-.082.227-.734-.363-1.62-1.168-1.64l-.023-.012h-.383Zm0 0Zm.024 3.367c-.989.066-1.477 1.246-1.215 2.086.172 1.187 1.871 1.539 2.539.59.648-.875.328-2.438-.84-2.676h-.101l-.024-.023h-.348Zm0 0ZM83.535 250.484v.633h-2.969v-.633Zm0 0ZM87.234 245.652c1.075.078 1.79 1.067 1.985 2.063.101.453.125.887.168 1.34v1.156c-.055 1.18-.34 2.73-1.621 3.207-1.11.445-2.414-.246-2.743-1.383-.25-.601-.273-1.21-.328-1.824v-1.156c.055-1.18.305-2.746 1.575-3.266l.058-.023.043-.012.059-.024.168-.042.101-.024h.125l.024-.012Zm0 0Zm-.351.692c-.953.113-1.238 1.258-1.305 2.031v.305l-.023.023v1.574c.07.817.125 1.871.875 2.418.691.477 1.61-.058 1.8-.797.204-.543.25-1.074.297-1.62v-1.575c-.07-.828-.183-1.984-1.136-2.312l-.079-.024-.023-.023h-.102l-.023-.024h-.258Zm0 0ZM91.918 252.387v.906h-.922v-.906Zm0 0ZM96.781 245.652c.293.047.633.078.918.215v.66c-.781-.343-1.804-.386-2.414.305-.547.578-.797 1.441-.816 2.2.656-.872 2.14-1.36 2.945-.454.805.93.941 2.266.578 3.402-.394.907-1.312 1.735-2.336 1.543-1.383-.117-2.004-1.656-2.074-2.835-.262-1.668.137-3.766 1.723-4.72l.023-.011.238-.121.07-.024.032-.023.195-.059.157-.042.101-.024h.125l.024-.012Zm0 0Zm-1.113 3.153c-.984.172-1.3 1.36-1.18 2.164.059.761.352 1.77 1.227 1.93.93.124 1.531-.876 1.555-1.68.043-.817 0-1.746-.715-2.278l-.16-.078-.125-.035-.102-.023-.023-.024h-.454Zm0 0ZM113.727 250.484v.633h-2.97v-.633Zm0 0ZM117.426 245.652c1.074.078 1.789 1.067 1.984 2.063.102.453.121.887.168 1.34v1.156c-.055 1.18-.34 2.73-1.621 3.207-1.11.445-2.414-.246-2.742-1.383-.25-.601-.274-1.21-.332-1.824v-1.156c.058-1.18.308-2.746 1.578-3.266l.055-.023.046-.012.055-.024.172-.042.102-.024h.125l.023-.012Zm0 0Zm-.352.692c-.953.113-1.238 1.258-1.304 2.031v.305l-.024.023v1.574c.067.817.125 1.871.871 2.418.695.477 1.613-.058 1.805-.797.203-.543.25-1.074.293-1.62v-1.575c-.067-.828-.18-1.984-1.133-2.312l-.078-.024-.024-.023h-.101l-.024-.024h-.261Zm0 0ZM122.105 252.387v.906h-.918v-.906Zm0 0ZM127.402 245.89v4.774l.024.024h1.12v.68h-1.12l-.024.01v1.915h-.863v-1.914l-.023-.012h-2.993v-.703c.954-1.586 1.907-3.187 2.86-4.773Zm0 0Zm-.84.43c-.226 1.18-.953 2.192-1.496 3.223-.214.371-.5.781-.656 1.144h2.176l.012-.023v-4.344l-.012-.02Zm0 0ZM143.918 250.484v.633h-2.969v-.633Zm0 0ZM147.613 245.652c1.078.078 1.793 1.067 1.985 2.063.101.453.125.887.172 1.34v1.156c-.06 1.18-.34 2.73-1.622 3.207-1.113.445-2.414-.246-2.746-1.383-.25-.601-.27-1.21-.328-1.824v-1.156c.059-1.18.309-2.746 1.578-3.266l.055-.023.047-.012.055-.024.171-.042.102-.024h.125l.023-.012Zm0 0Zm-.351.692c-.95.113-1.235 1.258-1.301 2.031v.305l-.024.023v1.574c.067.817.125 1.871.872 2.418.691.477 1.609-.058 1.804-.797.203-.543.25-1.074.293-1.62v-1.575c-.066-.828-.18-1.984-1.133-2.312l-.078-.024-.023-.023h-.102l-.023-.024h-.262Zm0 0ZM152.297 252.387v.906h-.918v-.906Zm0 0ZM156.3 245.652c1.317.036 2.36 1.383 2.153 2.653-.137 1.27-1.324 1.996-2.176 2.789l-.363.375-.043.023-.457.442-.031.023-.453.453-.047.024-.102.101.024.012h3.672v.746h-4.489v-.68l1.825-1.824c.87-.762 1.894-1.746 1.734-2.992-.09-.727-.703-1.395-1.45-1.453-.761-.114-1.429.488-1.6 1.215l-.024.03-.02.083-.035.125-.066.25-.012.055a4.283 4.283 0 0 1-.453-.614c.226-.93.972-1.8 1.96-1.836Zm0 0ZM175.918 245.652c1.078.078 1.789 1.067 1.984 2.063.102.453.125.887.168 1.34v1.156c-.054 1.18-.34 2.73-1.62 3.207-1.11.445-2.415-.246-2.743-1.383-.25-.601-.273-1.21-.328-1.824v-1.156c.055-1.18.305-2.746 1.574-3.266l.059-.023.043-.012.058-.024.168-.042.102-.024h.125l.023-.012Zm0 0Zm-.352.692c-.953.113-1.234 1.258-1.304 2.031v.305l-.024.023v1.574c.07.817.125 1.871.875 2.418.692.477 1.61-.058 1.801-.797.207-.543.25-1.074.297-1.62v-1.575c-.07-.828-.184-1.984-1.133-2.312l-.082-.024-.023-.023h-.102l-.023-.024h-.258Zm0 0ZM180.602 252.387v.906h-.918v-.906Zm0 0ZM184.727 245.652c1.078.078 1.793 1.067 1.984 2.063.101.453.125.887.172 1.34v1.156c-.059 1.18-.34 2.73-1.621 3.207-1.114.445-2.418-.246-2.746-1.383-.25-.601-.27-1.21-.328-1.824v-1.156c.058-1.18.304-2.746 1.578-3.266l.054-.023.047-.012.055-.024.172-.042.101-.024h.125l.024-.012Zm0 0Zm-.352.692c-.953.113-1.234 1.258-1.305 2.031v.305l-.02.023v1.574c.067.817.126 1.871.872 2.418.691.477 1.61-.058 1.805-.797.203-.543.25-1.074.293-1.62v-1.575c-.067-.828-.18-1.984-1.133-2.312l-.078-.024-.024-.023h-.101l-.024-.024h-.262Zm0 0ZM206.11 245.652c1.074.078 1.788 1.067 1.984 2.063.101.453.125.887.168 1.34v1.156c-.055 1.18-.34 2.73-1.621 3.207-1.11.445-2.414-.246-2.743-1.383-.25-.601-.273-1.21-.332-1.824v-1.156c.059-1.18.309-2.746 1.579-3.266l.054-.023.047-.012.059-.024.168-.042.101-.024h.125l.024-.012Zm0 0Zm-.352.692c-.953.113-1.238 1.258-1.305 2.031v.305l-.023.023v1.574c.07.817.125 1.871.875 2.418.691.477 1.61-.058 1.8-.797.204-.543.25-1.074.297-1.62v-1.575c-.07-.828-.183-1.984-1.136-2.312l-.078-.024-.024-.023h-.101l-.024-.024h-.258Zm0 0ZM210.79 252.387v.906h-.919v-.906Zm0 0ZM214.793 245.652c1.316.036 2.36 1.383 2.156 2.653-.137 1.27-1.328 1.996-2.18 2.789l-.363.375-.043.023-.453.442-.035.023-.453.453-.047.024-.102.101.024.012h3.672v.746h-4.489v-.68l1.825-1.824c.875-.762 1.894-1.746 1.734-2.992-.09-.727-.703-1.395-1.45-1.453-.76-.114-1.429.488-1.597 1.215l-.023.03-.024.083-.035.125-.066.25-.012.055a4.6 4.6 0 0 1-.453-.614c.226-.93.973-1.8 1.96-1.836Zm0 0ZM236.3 245.652c1.075.078 1.79 1.067 1.981 2.063.106.453.125.887.172 1.34v1.156c-.058 1.18-.34 2.73-1.621 3.207-1.113.445-2.414-.246-2.746-1.383-.246-.601-.27-1.21-.328-1.824v-1.156c.058-1.18.308-2.746 1.578-3.266l.055-.023.047-.012.054-.024.172-.042.102-.024h.125l.023-.012Zm0 0Zm-.35.692c-.954.113-1.24 1.258-1.305 2.031v.305l-.024.023v1.574c.066.817.125 1.871.871 2.418.692.477 1.613-.058 1.805-.797.203-.543.25-1.074.293-1.62v-1.575c-.067-.828-.18-1.984-1.133-2.312l-.078-.024-.024-.023h-.101l-.024-.024h-.261Zm0 0ZM240.98 252.387v.906h-.917v-.906Zm0 0ZM246.277 245.89v4.774l.024.024h1.12v.68h-1.12l-.024.01v1.915h-.863v-1.914l-.023-.012h-2.993v-.703c.954-1.586 1.907-3.187 2.86-4.773Zm0 0Zm-.84.43c-.226 1.18-.953 2.192-1.496 3.223-.214.371-.5.781-.656 1.144h2.176l.012-.023v-4.344l-.012-.02Zm0 0ZM266.488 245.652c1.078.078 1.793 1.067 1.985 2.063.101.453.125.887.172 1.34v1.156c-.06 1.18-.34 2.73-1.622 3.207-1.113.445-2.418-.246-2.746-1.383-.25-.601-.27-1.21-.328-1.824v-1.156c.059-1.18.305-2.746 1.578-3.266l.055-.023.047-.012.055-.024.171-.042.102-.024h.125l.023-.012Zm0 0Zm-.351.692c-.95.113-1.235 1.258-1.301 2.031v.305l-.024.023v1.574c.067.817.125 1.871.872 2.418.691.477 1.609-.058 1.804-.797.203-.543.25-1.074.293-1.62v-1.575c-.066-.828-.18-1.984-1.133-2.312l-.078-.024-.023-.023h-.102l-.023-.024h-.262Zm0 0ZM271.172 252.387v.906h-.918v-.906Zm0 0ZM276.035 245.652c.297.047.637.078.918.215v.66c-.781-.343-1.8-.386-2.414.305-.543.578-.793 1.441-.816 2.2.66-.872 2.144-1.36 2.949-.454.805.93.941 2.266.578 3.402-.398.907-1.316 1.735-2.336 1.543-1.383-.117-2.008-1.656-2.074-2.835-.262-1.668.137-3.766 1.723-4.72l.023-.011.238-.121.067-.024.035-.023.191-.059.16-.042.102-.024h.125l.023-.012Zm0 0Zm-1.11 3.153c-.988.172-1.304 1.36-1.179 2.164.059.761.352 1.77 1.227 1.93.93.124 1.527-.876 1.55-1.68.047-.817 0-1.746-.714-2.278l-.157-.078-.125-.035-.101-.023-.024-.024h-.453Zm0 0ZM296.68 245.652c1.078.078 1.793 1.067 1.984 2.063.102.453.125.887.172 1.34v1.156c-.059 1.18-.34 2.73-1.621 3.207-1.113.445-2.418-.246-2.746-1.383-.25-.601-.274-1.21-.328-1.824v-1.156c.054-1.18.304-2.746 1.574-3.266l.058-.023.047-.012.055-.024.172-.042.101-.024h.125l.02-.012Zm0 0Zm-.352.692c-.953.113-1.234 1.258-1.305 2.031v.305l-.02.023v1.574c.067.817.122 1.871.872 2.418.691.477 1.61-.058 1.805-.797.203-.543.246-1.074.293-1.62v-1.575c-.067-.828-.18-1.984-1.133-2.312l-.082-.024-.02-.023h-.101l-.024-.024h-.261Zm0 0ZM301.363 252.387v.906h-.918v-.906Zm0 0ZM305.512 245.652c1.203.047 2.336 1.34 1.86 2.54-.204.554-.77.898-1.235 1.136 1.156.34 1.86 1.688 1.336 2.797-.543 1.441-2.606 1.895-3.739.852-1.035-.817-1.066-2.586.079-3.309.167-.184.488-.238.632-.375-.984-.285-1.652-1.43-1.187-2.395.37-.859 1.336-1.335 2.254-1.246Zm0 0Zm-.43.649c-.84.02-1.43.972-1.144 1.722.328 1.293 2.492 1.247 2.742-.082.226-.734-.364-1.62-1.168-1.64l-.02-.012h-.387Zm0 0Zm.023 3.367c-.988.066-1.476 1.246-1.214 2.086.171 1.187 1.87 1.539 2.539.59.648-.875.332-2.438-.836-2.676h-.102l-.023-.023h-.352Zm0 0ZM327.223 245.652v6.996l.011.024h1.395v.621h-3.688v-.621h1.399l.02-.024v-5.875c-.477.16-.973.262-1.473.25v-.632c.75.011 1.566-.196 2.133-.739Zm0 0ZM331.555 252.387v.906h-.918v-.906Zm0 0ZM335.68 245.652c1.078.078 1.793 1.067 1.984 2.063.102.453.125.887.172 1.34v1.156c-.059 1.18-.34 2.73-1.621 3.207-1.113.445-2.418-.246-2.746-1.383-.25-.601-.27-1.21-.328-1.824v-1.156c.058-1.18.304-2.746 1.578-3.266l.054-.023.047-.012.055-.024.172-.042.101-.024h.125l.024-.012Zm0 0Zm-.352.692c-.95.113-1.234 1.258-1.3 2.031v.305l-.024.023v1.574c.066.817.125 1.871.871 2.418.691.477 1.61-.058 1.805-.797.203-.543.25-1.074.293-1.62v-1.575c-.067-.828-.18-1.984-1.133-2.312l-.078-.024-.024-.023h-.101l-.024-.024h-.261Zm0 0Zm0 0"/><path style="fill:none;stroke-width:.02;stroke-linecap:butt;stroke-linejoin:miter;stroke:#000;stroke-opacity:1;stroke-miterlimit:10" d="M2.06 8.769v-.15M3.124 8.769v-.15M4.19 8.769v-.15M5.254 8.769v-.15M6.32 8.769v-.15M7.384 8.769v-.15M8.45 8.769v-.15M9.515 8.769v-.15M10.58 8.769v-.15" transform="matrix(28.34646 0 0 -28.34646 1 256.118)"/><path style="fill:none;stroke-width:.02;stroke-linecap:round;stroke-linejoin:miter;stroke:#000;stroke-opacity:1;stroke-miterlimit:10" d="M.994 8.769h10.65" transform="matrix(28.34646 0 0 -28.34646 1 256.118)"/><path style="fill:none;stroke-width:.05;stroke-linecap:butt;stroke-linejoin:miter;stroke:#5478a3;stroke-opacity:1;stroke-miterlimit:10" d="m.994 1.259.036.014.036.015.071.031.036.016.036.015.036.016.036.016.036.016.036.017.036.016.071.033.036.017.036.017.072.035.035.017.036.018.036.017.036.018.036.018.036.019.036.018.036.018.035.019.036.019.036.018.036.02.072.038.035.02.036.019.036.02.036.019.036.02.036.02.036.02.036.02.035.02.036.021.036.02.072.043.036.02.036.022.035.02.036.022.036.022.036.021.072.044.036.022.036.022.071.044.036.022.036.023.036.023.071.045.036.023.036.023.036.023.072.046.036.024.071.047.072.047.036.024.072.048.035.024.036.024.036.025.036.024.036.025.036.024.072.05.035.024.036.025.036.025.036.025.036.025.036.025.036.026.035.025.036.026.036.025.036.025.036.026.036.026.071.051.036.026.036.026.072.052.036.026.072.052.071.053.036.026.072.053.036.027.036.027.071.053.036.026.036.027.036.027.036.027.071.054.036.027.108.08.036.028.107.081.036.027.036.027.108.082.036.028.071.054.036.028.036.027.036.027.107.083.036.027.036.027.036.028.036.027.036.028.036.027.035.028.036.027.036.028.036.027.107.082.036.028.108.082.036.028.072.054.035.028.036.027.144.11.036.027.107.081.036.027.072.054.036.027.036.027.035.028.108.08.036.027.036.027.035.027.036.026.036.027.072.053.036.027.036.026.036.026.107.08.036.026.072.052.035.026.036.026.072.052.072.051.036.026.036.026.071.05.036.026.036.025.072.05.036.026.035.025.036.025.072.05.036.024.036.025.036.024.035.025.036.024.072.049.036.024.036.024.036.024.035.024.072.047.036.024.072.047.036.023.036.023.035.023.036.023.036.023.036.023.072.045.071.045.036.022.036.022.036.022.036.022.036.022.071.043.036.022.036.021.036.021.072.043.036.02.036.021.071.041.036.02.036.02.036.021.036.02.071.04.036.02.036.019.072.039.036.019.036.019.035.018.036.02.036.018.036.018.036.018.036.019.035.018.036.017.036.018.036.018.036.017.036.018.072.034.035.017.036.016.036.017.072.033.036.016.036.016.035.016.072.03.036.016.072.03.036.015" transform="matrix(28.34646 0 0 -28.34646 1 256.118)"/><path style="fill:none;stroke-width:.05;stroke-linecap:butt;stroke-linejoin:miter;stroke:#e69142;stroke-opacity:1;stroke-miterlimit:10" d="m.994 6.894.036.023.036.023.036.023.071.045.036.023.036.022.036.023.072.044.036.022.107.065.036.022.036.021.071.043.036.021.072.042.072.041.036.02.036.021.035.02.036.02.036.02.036.02.036.02.071.039.036.02.072.038.036.019.036.018.072.038.035.018.036.018.072.036.072.036.036.017.071.035.036.017.036.017.072.034.036.016.036.017.071.032.036.016.036.016.036.015.036.016.035.015.036.015.036.015.036.015.036.015.036.015.036.014.036.014.035.014.036.014.036.014.036.014.072.026.035.014.036.013.036.012.036.013.036.012.036.013.036.012.071.024.036.011.036.012.036.011.036.011.036.011.036.011.035.01.036.011.072.02.036.01.036.01.071.02.036.008.036.01.072.017.036.009.072.016.035.008.036.008.036.008.036.007.036.008.036.007.036.007.035.006.036.007.036.006.036.007.036.006.072.011.035.006.036.005.036.005.036.005.036.005.036.005.036.004.035.004.036.004.036.004.036.004.036.003.036.004.036.003.036.003.035.003.072.005.036.002.036.002.036.002.035.001.036.002.036.001.036.001.036.001h.036l.036.001.071.001H6.41l.072-.002h.035l.036-.002.036-.001.036-.002.036-.001.036-.002.036-.002.036-.002.035-.003.036-.002.036-.003.036-.003.036-.003.036-.004.036-.003.035-.004.036-.004.036-.004.036-.004.036-.004.072-.01.036-.005.071-.01.036-.006.036-.005.036-.006.036-.006.035-.007.036-.006.036-.007.036-.006.036-.007.036-.007.036-.008.071-.015.036-.008.036-.008.036-.008.036-.008.036-.009.035-.009.036-.008.036-.01.036-.009.072-.019.036-.01.036-.01.071-.02.036-.01.036-.011.072-.022.036-.01.035-.012.036-.012.036-.011.036-.012.036-.012.072-.025.035-.012.036-.013.036-.012.036-.013.036-.014.036-.013.036-.013.035-.014.036-.014.036-.014.036-.014.072-.028.036-.015.036-.015.035-.015.036-.015.036-.015.036-.015.072-.031.036-.016.035-.016.036-.016.036-.016.036-.017.036-.016.036-.017.036-.017.035-.017.036-.017.036-.017.036-.018.036-.017.072-.036.036-.018.035-.018.072-.036.036-.019.036-.019.071-.037.036-.02.036-.019.036-.019.072-.04.036-.019.036-.02.035-.02.036-.02.036-.02.072-.04.071-.042.036-.021.036-.021.036-.021.036-.021.036-.022.072-.043.035-.021.036-.022.036-.022.036-.022.072-.044.036-.023.071-.045.036-.022.036-.023.072-.046.036-.023" transform="matrix(28.34646 0 0 -28.34646 1 256.118)"/><path style="fill:none;stroke-width:.05;stroke-linecap:butt;stroke-linejoin:miter;stroke:#d15e5c;stroke-opacity:1;stroke-miterlimit:10" d="m.994 4.69.036-.054.036-.055.036-.054.035-.053.036-.053.036-.053.036-.053.036-.052.036-.052.036-.051.036-.051.035-.051.036-.05.036-.05.036-.05.036-.049.036-.049.035-.048.036-.048.036-.048.036-.048.036-.046.036-.047.036-.046.036-.046.035-.046.036-.045.036-.044.036-.045.036-.044.036-.044.035-.043.036-.043.036-.042.036-.042.036-.042.036-.042.036-.04.036-.041.035-.04.036-.04.036-.04.036-.04.036-.038.036-.039.036-.038.035-.038.036-.037.036-.037.036-.037.036-.036.036-.036.036-.035.036-.035.035-.035.036-.035.036-.034.036-.033.036-.034.036-.032.035-.033.036-.032.036-.032.036-.031.036-.032.036-.03.036-.03.036-.03.035-.03.036-.03.036-.028.036-.029.036-.028.036-.027.035-.028.036-.027.036-.027.036-.026.036-.026.036-.025.036-.025.036-.025.035-.025.036-.024.036-.023.036-.024.036-.022.036-.023.036-.022.035-.022.036-.022.036-.02.036-.021.036-.02.036-.02.036-.02.035-.02.036-.018.036-.019.036-.018.036-.018.036-.017.036-.017.036-.017.035-.016.036-.016.036-.016.036-.015.036-.014.036-.015.036-.014.035-.014.036-.013.036-.013.036-.012.036-.013.036-.011.036-.012.035-.011.036-.01.036-.011.036-.01.036-.01.036-.009.036-.009.035-.008.036-.009.036-.007.036-.008.036-.007.036-.006.036-.007.036-.006.035-.005.036-.005.036-.005.036-.005.036-.004.036-.003.035-.004.036-.003.036-.002.036-.002.036-.002.036-.002h.036l.036-.002H6.373l.036.001.036.001.036.002.035.002.036.002.036.002.036.003.036.004.036.003.036.004.036.005.035.005.036.005.036.005.036.006.036.007.036.006.036.007.035.008.036.007.036.009.036.008.036.009.036.01.036.009.036.01.035.01.036.011.036.011.036.012.036.011.036.013.035.012.036.013.036.013.036.014.036.014.036.015.036.014.036.015.035.016.036.016.036.016.036.017.036.017.036.017.035.018.036.018.036.019.036.018.036.02.036.02.036.02.036.02.035.02.036.021.036.022.036.022.036.022.036.023.036.022.035.024.036.023.036.024.036.025.036.025.036.025.036.025.035.026.036.026.036.027.036.027.036.028.036.027.036.028.035.029.036.029.036.029.036.03.036.03.036.03.036.03.036.032.035.031.036.032.036.032.036.033.036.032.036.034.036.033.035.034.036.035.036.035.036.035.036.035.036.036.036.036.035.037.036.037.036.037.036.038.036.038.036.039.036.039.036.039.035.04.036.04.036.04.036.04.036.041.036.042.035.042.036.042.036.042.036.043.036.043.036.044.036.044.036.045.035.044.036.045.036.046.036.046.036.046.036.047.035.046.036.048.036.048.036.048.036.048.036.049.036.05.036.049.035.05.036.05.036.05.036.052.036.051.036.052.036.052.035.053.036.053.036.053.036.053.036.054.036.055.036.054" transform="matrix(28.34646 0 0 -28.34646 1 256.118)"/></svg>