<?xml version="1.0" encoding="UTF-8"?>
<svg xmlns="http://www.w3.org/2000/svg" xmlns:xlink="http://www.w3.org/1999/xlink" width="342.15748pt" height="257.11811pt" viewBox="0 0 342.15748 257.11811" version="1.1">
<g id="surface1">
<path style=" stroke:none;fill-rule:nonzero;fill:rgb(100%,100%,100%);fill-opacity:1;" d="M -0.417969 257.535156 L 342.574219 257.535156 L 342.574219 -0.417969 L -0.417969 -0.417969 Z M -0.417969 257.535156 "/>
<path style="fill:none;stroke-width:0.02;stroke-linecap:butt;stroke-linejoin:miter;stroke:rgb(0%,0%,0%);stroke-opacity:1;stroke-miterlimit:10;" d="M 0.645749 1.579816 L 0.750755 1.579816 " transform="matrix(28.346457,0,0,-28.346457,1,256.11811)"/>
<path style="fill:none;stroke-width:0.02;stroke-linecap:butt;stroke-linejoin:miter;stroke:rgb(0%,0%,0%);stroke-opacity:1;stroke-miterlimit:10;" d="M 0.645749 2.781189 L 0.750755 2.781189 " transform="matrix(28.346457,0,0,-28.346457,1,256.11811)"/>
<path style="fill:none;stroke-width:0.02;stroke-linecap:butt;stroke-linejoin:miter;stroke:rgb(0%,0%,0%);stroke-opacity:1;stroke-miterlimit:10;" d="M 0.645749 3.982701 L 0.750755 3.982701 " transform="matrix(28.346457,0,0,-28.346457,1,256.11811)"/>
<path style="fill:none;stroke-width:0.02;stroke-linecap:butt;stroke-linejoin:miter;stroke:rgb(0%,0%,0%);stroke-opacity:1;stroke-miterlimit:10;" d="M 0.645749 5.184074 L 0.750755 5.184074 " transform="matrix(28.346457,0,0,-28.346457,1,256.11811)"/>
<path style="fill:none;stroke-width:0.02;stroke-linecap:butt;stroke-linejoin:miter;stroke:rgb(0%,0%,0%);stroke-opacity:1;stroke-miterlimit:10;" d="M 0.645749 6.385448 L 0.750755 6.385448 " transform="matrix(28.346457,0,0,-28.346457,1,256.11811)"/>
<path style="fill:none;stroke-width:0.02;stroke-linecap:butt;stroke-linejoin:miter;stroke:rgb(0%,0%,0%);stroke-opacity:1;stroke-miterlimit:10;" d="M 0.645749 7.586822 L 0.750755 7.586822 " transform="matrix(28.346457,0,0,-28.346457,1,256.11811)"/>
<path style="fill:none;stroke-width:0.02;stroke-linecap:round;stroke-linejoin:miter;stroke:rgb(0%,0%,0%);stroke-opacity:1;stroke-miterlimit:10;" d="M 0.645749 0.378442 L 0.645749 8.788333 " transform="matrix(28.346457,0,0,-28.346457,1,256.11811)"/>
<path style=" stroke:none;fill-rule:nonzero;fill:rgb(0%,0%,0%);fill-opacity:1;" d="M 3.742188 246.03125 L 3.742188 246.476562 L 1.664062 246.476562 L 1.664062 246.03125 Z M 3.742188 246.03125 Z M 3.742188 246.03125 "/>
<path style=" stroke:none;fill-rule:nonzero;fill:rgb(0%,0%,0%);fill-opacity:1;" d="M 6.328125 242.648438 C 7.082031 242.707031 7.582031 243.394531 7.71875 244.09375 C 7.789062 244.410156 7.804688 244.714844 7.835938 245.03125 L 7.835938 245.839844 C 7.796875 246.664062 7.597656 247.753906 6.703125 248.085938 C 5.925781 248.394531 5.011719 247.910156 4.78125 247.117188 C 4.605469 246.699219 4.589844 246.269531 4.550781 245.839844 L 4.550781 245.03125 C 4.589844 244.207031 4.765625 243.109375 5.65625 242.746094 L 5.695312 242.730469 L 5.726562 242.722656 L 5.765625 242.707031 L 5.882812 242.671875 L 5.957031 242.65625 L 6.042969 242.65625 L 6.058594 242.648438 Z M 6.328125 242.648438 Z M 6.082031 243.132812 C 5.417969 243.214844 5.21875 244.015625 5.171875 244.554688 L 5.171875 244.769531 L 5.15625 244.785156 L 5.15625 245.886719 C 5.203125 246.460938 5.242188 247.199219 5.765625 247.578125 C 6.25 247.910156 6.894531 247.539062 7.027344 247.023438 C 7.171875 246.640625 7.203125 246.269531 7.234375 245.886719 L 7.234375 244.785156 C 7.1875 244.207031 7.105469 243.394531 6.441406 243.164062 L 6.382812 243.148438 L 6.367188 243.132812 L 6.296875 243.132812 L 6.28125 243.117188 L 6.097656 243.117188 Z M 6.082031 243.132812 Z M 6.082031 243.132812 "/>
<path style=" stroke:none;fill-rule:nonzero;fill:rgb(0%,0%,0%);fill-opacity:1;" d="M 9.605469 247.363281 L 9.605469 248 L 8.964844 248 L 8.964844 247.363281 Z M 9.605469 247.363281 Z M 9.605469 247.363281 "/>
<path style=" stroke:none;fill-rule:nonzero;fill:rgb(0%,0%,0%);fill-opacity:1;" d="M 13.3125 242.816406 L 13.3125 246.15625 L 13.328125 246.171875 L 14.117188 246.171875 L 14.117188 246.648438 L 13.328125 246.648438 L 13.3125 246.65625 L 13.3125 248 L 12.710938 248 L 12.710938 246.65625 L 12.695312 246.648438 L 10.597656 246.648438 L 10.597656 246.15625 C 11.265625 245.046875 11.933594 243.925781 12.597656 242.816406 Z M 13.3125 242.816406 Z M 12.726562 243.117188 C 12.566406 243.941406 12.058594 244.648438 11.679688 245.371094 C 11.527344 245.632812 11.328125 245.917969 11.21875 246.171875 L 12.742188 246.171875 L 12.75 246.15625 L 12.75 243.117188 L 12.742188 243.101562 Z M 12.726562 243.117188 Z M 12.726562 243.117188 "/>
<path style=" stroke:none;fill-rule:nonzero;fill:rgb(0%,0%,0%);fill-opacity:1;" d="M 3.742188 211.976562 L 3.742188 212.417969 L 1.664062 212.417969 L 1.664062 211.976562 Z M 3.742188 211.976562 Z M 3.742188 211.976562 "/>
<path style=" stroke:none;fill-rule:nonzero;fill:rgb(0%,0%,0%);fill-opacity:1;" d="M 6.328125 208.59375 C 7.082031 208.648438 7.582031 209.339844 7.71875 210.039062 C 7.789062 210.355469 7.804688 210.65625 7.835938 210.976562 L 7.835938 211.785156 C 7.796875 212.609375 7.597656 213.695312 6.703125 214.03125 C 5.925781 214.339844 5.011719 213.855469 4.78125 213.0625 C 4.605469 212.640625 4.589844 212.214844 4.550781 211.785156 L 4.550781 210.976562 C 4.589844 210.148438 4.765625 209.054688 5.65625 208.6875 L 5.695312 208.671875 L 5.726562 208.664062 L 5.765625 208.648438 L 5.882812 208.617188 L 5.957031 208.601562 L 6.042969 208.601562 L 6.058594 208.59375 Z M 6.328125 208.59375 Z M 6.082031 209.078125 C 5.417969 209.15625 5.21875 209.957031 5.171875 210.5 L 5.171875 210.714844 L 5.15625 210.730469 L 5.15625 211.832031 C 5.203125 212.402344 5.242188 213.140625 5.765625 213.523438 C 6.25 213.855469 6.894531 213.484375 7.027344 212.96875 C 7.171875 212.585938 7.203125 212.214844 7.234375 211.832031 L 7.234375 210.730469 C 7.1875 210.148438 7.105469 209.339844 6.441406 209.109375 L 6.382812 209.09375 L 6.367188 209.078125 L 6.296875 209.078125 L 6.28125 209.0625 L 6.097656 209.0625 Z M 6.082031 209.078125 Z M 6.082031 209.078125 "/>
<path style=" stroke:none;fill-rule:nonzero;fill:rgb(0%,0%,0%);fill-opacity:1;" d="M 9.605469 213.308594 L 9.605469 213.941406 L 8.964844 213.941406 L 8.964844 213.308594 Z M 9.605469 213.308594 Z M 9.605469 213.308594 "/>
<path style=" stroke:none;fill-rule:nonzero;fill:rgb(0%,0%,0%);fill-opacity:1;" d="M 12.410156 208.59375 C 13.328125 208.617188 14.058594 209.5625 13.917969 210.449219 C 13.820312 211.339844 12.988281 211.847656 12.394531 212.402344 L 12.140625 212.664062 L 12.105469 212.679688 L 11.789062 212.992188 L 11.765625 213.007812 L 11.449219 213.324219 L 11.417969 213.339844 L 11.34375 213.410156 L 11.359375 213.417969 L 13.933594 213.417969 L 13.933594 213.941406 L 10.789062 213.941406 L 10.789062 213.46875 L 12.066406 212.1875 C 12.679688 211.65625 13.394531 210.96875 13.28125 210.09375 C 13.21875 209.585938 12.789062 209.117188 12.265625 209.078125 C 11.734375 209 11.265625 209.417969 11.148438 209.925781 L 11.132812 209.949219 L 11.113281 210.007812 L 11.089844 210.09375 L 11.042969 210.269531 L 11.035156 210.308594 C 10.925781 210.171875 10.804688 210.03125 10.71875 209.878906 C 10.878906 209.230469 11.402344 208.617188 12.089844 208.59375 Z M 12.410156 208.59375 Z M 12.410156 208.59375 "/>
<path style=" stroke:none;fill-rule:nonzero;fill:rgb(0%,0%,0%);fill-opacity:1;" d="M 6.328125 174.539062 C 7.082031 174.59375 7.582031 175.285156 7.71875 175.984375 C 7.789062 176.300781 7.804688 176.601562 7.835938 176.917969 L 7.835938 177.730469 C 7.796875 178.554688 7.597656 179.640625 6.703125 179.976562 C 5.925781 180.285156 5.011719 179.800781 4.78125 179.007812 C 4.605469 178.585938 4.589844 178.15625 4.550781 177.730469 L 4.550781 176.917969 C 4.589844 176.09375 4.765625 175 5.65625 174.632812 L 5.695312 174.617188 L 5.726562 174.609375 L 5.765625 174.59375 L 5.882812 174.5625 L 5.957031 174.546875 L 6.042969 174.546875 L 6.058594 174.539062 Z M 6.328125 174.539062 Z M 6.082031 175.023438 C 5.417969 175.101562 5.21875 175.902344 5.171875 176.441406 L 5.171875 176.65625 L 5.15625 176.671875 L 5.15625 177.777344 C 5.203125 178.347656 5.242188 179.085938 5.765625 179.464844 C 6.25 179.800781 6.894531 179.425781 7.027344 178.910156 C 7.171875 178.53125 7.203125 178.15625 7.234375 177.777344 L 7.234375 176.671875 C 7.1875 176.09375 7.105469 175.285156 6.441406 175.054688 L 6.382812 175.039062 L 6.367188 175.023438 L 6.296875 175.023438 L 6.28125 175.007812 L 6.097656 175.007812 Z M 6.082031 175.023438 Z M 6.082031 175.023438 "/>
<path style=" stroke:none;fill-rule:nonzero;fill:rgb(0%,0%,0%);fill-opacity:1;" d="M 9.605469 179.253906 L 9.605469 179.886719 L 8.964844 179.886719 L 8.964844 179.253906 Z M 9.605469 179.253906 Z M 9.605469 179.253906 "/>
<path style=" stroke:none;fill-rule:nonzero;fill:rgb(0%,0%,0%);fill-opacity:1;" d="M 12.496094 174.539062 C 13.25 174.59375 13.75 175.285156 13.886719 175.984375 C 13.957031 176.300781 13.972656 176.601562 14.003906 176.917969 L 14.003906 177.730469 C 13.964844 178.554688 13.765625 179.640625 12.871094 179.976562 C 12.089844 180.285156 11.179688 179.800781 10.949219 179.007812 C 10.773438 178.585938 10.757812 178.15625 10.71875 177.730469 L 10.71875 176.917969 C 10.757812 176.09375 10.933594 175 11.820312 174.632812 L 11.859375 174.617188 L 11.894531 174.609375 L 11.933594 174.59375 L 12.050781 174.5625 L 12.125 174.546875 L 12.210938 174.546875 L 12.226562 174.539062 Z M 12.496094 174.539062 Z M 12.25 175.023438 C 11.582031 175.101562 11.386719 175.902344 11.335938 176.441406 L 11.335938 176.65625 L 11.320312 176.671875 L 11.320312 177.777344 C 11.367188 178.347656 11.410156 179.085938 11.933594 179.464844 C 12.417969 179.800781 13.058594 179.425781 13.195312 178.910156 C 13.335938 178.53125 13.371094 178.15625 13.402344 177.777344 L 13.402344 176.671875 C 13.351562 176.09375 13.273438 175.285156 12.605469 175.054688 L 12.550781 175.039062 L 12.535156 175.023438 L 12.464844 175.023438 L 12.449219 175.007812 L 12.265625 175.007812 Z M 12.25 175.023438 Z M 12.25 175.023438 "/>
<path style=" stroke:none;fill-rule:nonzero;fill:rgb(0%,0%,0%);fill-opacity:1;" d="M 6.328125 140.480469 C 7.082031 140.539062 7.582031 141.226562 7.71875 141.925781 C 7.789062 142.242188 7.804688 142.546875 7.835938 142.863281 L 7.835938 143.671875 C 7.796875 144.5 7.597656 145.585938 6.703125 145.917969 C 5.925781 146.226562 5.011719 145.746094 4.78125 144.949219 C 4.605469 144.53125 4.589844 144.101562 4.550781 143.671875 L 4.550781 142.863281 C 4.589844 142.039062 4.765625 140.941406 5.65625 140.578125 L 5.695312 140.5625 L 5.726562 140.554688 L 5.765625 140.539062 L 5.882812 140.507812 L 5.957031 140.488281 L 6.042969 140.488281 L 6.058594 140.480469 Z M 6.328125 140.480469 Z M 6.082031 140.964844 C 5.417969 141.046875 5.21875 141.847656 5.171875 142.386719 L 5.171875 142.601562 L 5.15625 142.617188 L 5.15625 143.71875 C 5.203125 144.292969 5.242188 145.03125 5.765625 145.410156 C 6.25 145.746094 6.894531 145.371094 7.027344 144.855469 C 7.171875 144.472656 7.203125 144.101562 7.234375 143.71875 L 7.234375 142.617188 C 7.1875 142.039062 7.105469 141.226562 6.441406 140.996094 L 6.382812 140.980469 L 6.367188 140.964844 L 6.296875 140.964844 L 6.28125 140.949219 L 6.097656 140.949219 Z M 6.082031 140.964844 Z M 6.082031 140.964844 "/>
<path style=" stroke:none;fill-rule:nonzero;fill:rgb(0%,0%,0%);fill-opacity:1;" d="M 9.605469 145.195312 L 9.605469 145.832031 L 8.964844 145.832031 L 8.964844 145.195312 Z M 9.605469 145.195312 Z M 9.605469 145.195312 "/>
<path style=" stroke:none;fill-rule:nonzero;fill:rgb(0%,0%,0%);fill-opacity:1;" d="M 12.410156 140.480469 C 13.328125 140.507812 14.058594 141.449219 13.917969 142.339844 C 13.820312 143.226562 12.988281 143.734375 12.394531 144.292969 L 12.140625 144.554688 L 12.105469 144.570312 L 11.789062 144.878906 L 11.765625 144.894531 L 11.449219 145.210938 L 11.417969 145.226562 L 11.34375 145.300781 L 11.359375 145.308594 L 13.933594 145.308594 L 13.933594 145.832031 L 10.789062 145.832031 L 10.789062 145.355469 L 12.066406 144.078125 C 12.679688 143.546875 13.394531 142.855469 13.28125 141.980469 C 13.21875 141.472656 12.789062 141.007812 12.265625 140.964844 C 11.734375 140.886719 11.265625 141.308594 11.148438 141.816406 L 11.132812 141.839844 L 11.113281 141.894531 L 11.089844 141.980469 L 11.042969 142.15625 L 11.035156 142.195312 C 10.925781 142.0625 10.804688 141.917969 10.71875 141.769531 C 10.878906 141.117188 11.402344 140.507812 12.089844 140.480469 Z M 12.410156 140.480469 Z M 12.410156 140.480469 "/>
<path style=" stroke:none;fill-rule:nonzero;fill:rgb(0%,0%,0%);fill-opacity:1;" d="M 6.328125 106.425781 C 7.082031 106.480469 7.582031 107.171875 7.71875 107.871094 C 7.789062 108.1875 7.804688 108.488281 7.835938 108.808594 L 7.835938 109.617188 C 7.796875 110.441406 7.597656 111.53125 6.703125 111.863281 C 5.925781 112.171875 5.011719 111.6875 4.78125 110.894531 C 4.605469 110.472656 4.589844 110.046875 4.550781 109.617188 L 4.550781 108.808594 C 4.589844 107.980469 4.765625 106.886719 5.65625 106.519531 L 5.695312 106.503906 L 5.726562 106.496094 L 5.765625 106.480469 L 5.882812 106.449219 L 5.957031 106.433594 L 6.042969 106.433594 L 6.058594 106.425781 Z M 6.328125 106.425781 Z M 6.082031 106.910156 C 5.417969 106.988281 5.21875 107.792969 5.171875 108.332031 L 5.171875 108.546875 L 5.15625 108.5625 L 5.15625 109.664062 C 5.203125 110.234375 5.242188 110.972656 5.765625 111.355469 C 6.25 111.6875 6.894531 111.316406 7.027344 110.800781 C 7.171875 110.417969 7.203125 110.046875 7.234375 109.664062 L 7.234375 108.5625 C 7.1875 107.980469 7.105469 107.171875 6.441406 106.941406 L 6.382812 106.925781 L 6.367188 106.910156 L 6.296875 106.910156 L 6.28125 106.894531 L 6.097656 106.894531 Z M 6.082031 106.910156 Z M 6.082031 106.910156 "/>
<path style=" stroke:none;fill-rule:nonzero;fill:rgb(0%,0%,0%);fill-opacity:1;" d="M 9.605469 111.140625 L 9.605469 111.777344 L 8.964844 111.777344 L 8.964844 111.140625 Z M 9.605469 111.140625 Z M 9.605469 111.140625 "/>
<path style=" stroke:none;fill-rule:nonzero;fill:rgb(0%,0%,0%);fill-opacity:1;" d="M 13.3125 106.59375 L 13.3125 109.933594 L 13.328125 109.949219 L 14.117188 109.949219 L 14.117188 110.425781 L 13.328125 110.425781 L 13.3125 110.433594 L 13.3125 111.777344 L 12.710938 111.777344 L 12.710938 110.433594 L 12.695312 110.425781 L 10.597656 110.425781 L 10.597656 109.933594 C 11.265625 108.824219 11.933594 107.703125 12.597656 106.59375 Z M 13.3125 106.59375 Z M 12.726562 106.894531 C 12.566406 107.71875 12.058594 108.425781 11.679688 109.148438 C 11.527344 109.410156 11.328125 109.695312 11.21875 109.949219 L 12.742188 109.949219 L 12.75 109.933594 L 12.75 106.894531 L 12.742188 106.878906 Z M 12.726562 106.894531 Z M 12.726562 106.894531 "/>
<path style=" stroke:none;fill-rule:nonzero;fill:rgb(0%,0%,0%);fill-opacity:1;" d="M 6.328125 72.371094 C 7.082031 72.425781 7.582031 73.117188 7.71875 73.816406 C 7.789062 74.132812 7.804688 74.433594 7.835938 74.75 L 7.835938 75.5625 C 7.796875 76.386719 7.597656 77.472656 6.703125 77.808594 C 5.925781 78.117188 5.011719 77.632812 4.78125 76.839844 C 4.605469 76.417969 4.589844 75.988281 4.550781 75.5625 L 4.550781 74.75 C 4.589844 73.925781 4.765625 72.832031 5.65625 72.464844 L 5.695312 72.449219 L 5.726562 72.441406 L 5.765625 72.425781 L 5.882812 72.394531 L 5.957031 72.378906 L 6.042969 72.378906 L 6.058594 72.371094 Z M 6.328125 72.371094 Z M 6.082031 72.855469 C 5.417969 72.933594 5.21875 73.734375 5.171875 74.273438 L 5.171875 74.488281 L 5.15625 74.503906 L 5.15625 75.609375 C 5.203125 76.179688 5.242188 76.917969 5.765625 77.300781 C 6.25 77.632812 6.894531 77.257812 7.027344 76.742188 C 7.171875 76.363281 7.203125 75.988281 7.234375 75.609375 L 7.234375 74.503906 C 7.1875 73.925781 7.105469 73.117188 6.441406 72.886719 L 6.382812 72.871094 L 6.367188 72.855469 L 6.296875 72.855469 L 6.28125 72.839844 L 6.097656 72.839844 Z M 6.082031 72.855469 Z M 6.082031 72.855469 "/>
<path style=" stroke:none;fill-rule:nonzero;fill:rgb(0%,0%,0%);fill-opacity:1;" d="M 9.605469 77.085938 L 9.605469 77.71875 L 8.964844 77.71875 L 8.964844 77.085938 Z M 9.605469 77.085938 Z M 9.605469 77.085938 "/>
<path style=" stroke:none;fill-rule:nonzero;fill:rgb(0%,0%,0%);fill-opacity:1;" d="M 13.011719 72.371094 C 13.21875 72.402344 13.457031 72.425781 13.65625 72.519531 L 13.65625 72.980469 C 13.105469 72.742188 12.394531 72.710938 11.964844 73.195312 C 11.582031 73.601562 11.410156 74.203125 11.394531 74.734375 C 11.851562 74.125 12.894531 73.78125 13.457031 74.417969 C 14.019531 75.070312 14.117188 76.003906 13.863281 76.800781 C 13.582031 77.433594 12.941406 78.011719 12.226562 77.878906 C 11.257812 77.800781 10.820312 76.71875 10.773438 75.894531 C 10.589844 74.726562 10.867188 73.257812 11.980469 72.59375 L 11.996094 72.585938 L 12.164062 72.496094 L 12.210938 72.480469 L 12.234375 72.464844 L 12.480469 72.394531 L 12.550781 72.378906 L 12.640625 72.378906 L 12.65625 72.371094 Z M 13.011719 72.371094 Z M 12.234375 74.578125 C 11.542969 74.695312 11.320312 75.53125 11.410156 76.09375 C 11.449219 76.625 11.65625 77.332031 12.265625 77.441406 C 12.917969 77.53125 13.335938 76.832031 13.351562 76.265625 C 13.386719 75.695312 13.351562 75.046875 12.851562 74.671875 L 12.742188 74.617188 L 12.65625 74.59375 L 12.582031 74.578125 L 12.566406 74.5625 L 12.25 74.5625 Z M 12.234375 74.578125 Z M 12.234375 74.578125 "/>
<path style=" stroke:none;fill-rule:nonzero;fill:rgb(0%,0%,0%);fill-opacity:1;" d="M 6.328125 38.316406 C 7.082031 38.371094 7.582031 39.0625 7.71875 39.757812 C 7.789062 40.078125 7.804688 40.378906 7.835938 40.695312 L 7.835938 41.503906 C 7.796875 42.332031 7.597656 43.417969 6.703125 43.75 C 5.925781 44.0625 5.011719 43.578125 4.78125 42.78125 C 4.605469 42.363281 4.589844 41.933594 4.550781 41.503906 L 4.550781 40.695312 C 4.589844 39.871094 4.765625 38.773438 5.65625 38.410156 L 5.695312 38.394531 L 5.726562 38.386719 L 5.765625 38.371094 L 5.882812 38.339844 L 5.957031 38.324219 L 6.042969 38.324219 L 6.058594 38.316406 Z M 6.328125 38.316406 Z M 6.082031 38.796875 C 5.417969 38.878906 5.21875 39.679688 5.171875 40.21875 L 5.171875 40.433594 L 5.15625 40.449219 L 5.15625 41.554688 C 5.203125 42.125 5.242188 42.863281 5.765625 43.242188 C 6.25 43.578125 6.894531 43.203125 7.027344 42.6875 C 7.171875 42.308594 7.203125 41.933594 7.234375 41.554688 L 7.234375 40.449219 C 7.1875 39.871094 7.105469 39.0625 6.441406 38.832031 L 6.382812 38.816406 L 6.367188 38.796875 L 6.296875 38.796875 L 6.28125 38.78125 L 6.097656 38.78125 Z M 6.082031 38.796875 Z M 6.082031 38.796875 "/>
<path style=" stroke:none;fill-rule:nonzero;fill:rgb(0%,0%,0%);fill-opacity:1;" d="M 9.605469 43.027344 L 9.605469 43.664062 L 8.964844 43.664062 L 8.964844 43.027344 Z M 9.605469 43.027344 Z M 9.605469 43.027344 "/>
<path style=" stroke:none;fill-rule:nonzero;fill:rgb(0%,0%,0%);fill-opacity:1;" d="M 12.511719 38.316406 C 13.351562 38.347656 14.148438 39.25 13.8125 40.09375 C 13.671875 40.480469 13.273438 40.71875 12.949219 40.886719 C 13.757812 41.125 14.25 42.070312 13.886719 42.847656 C 13.503906 43.855469 12.058594 44.171875 11.265625 43.441406 C 10.542969 42.871094 10.519531 41.632812 11.320312 41.125 C 11.441406 40.996094 11.664062 40.957031 11.765625 40.863281 C 11.074219 40.664062 10.605469 39.863281 10.933594 39.1875 C 11.195312 38.585938 11.871094 38.25 12.511719 38.316406 Z M 12.511719 38.316406 Z M 12.210938 38.765625 C 11.625 38.78125 11.210938 39.449219 11.410156 39.972656 C 11.640625 40.878906 13.15625 40.847656 13.328125 39.917969 C 13.488281 39.402344 13.074219 38.78125 12.511719 38.765625 L 12.496094 38.757812 L 12.226562 38.757812 Z M 12.210938 38.765625 Z M 12.226562 41.125 C 11.535156 41.171875 11.195312 41.996094 11.378906 42.585938 C 11.496094 43.417969 12.6875 43.664062 13.15625 42.996094 C 13.605469 42.386719 13.386719 41.289062 12.566406 41.125 L 12.496094 41.125 L 12.480469 41.109375 L 12.234375 41.109375 Z M 12.226562 41.125 Z M 12.226562 41.125 "/>
<path style=" stroke:none;fill-rule:nonzero;fill:rgb(0%,0%,0%);fill-opacity:1;" d="M 6.574219 4.257812 L 6.574219 9.15625 L 6.582031 9.171875 L 7.558594 9.171875 L 7.558594 9.609375 L 4.980469 9.609375 L 4.980469 9.171875 L 5.957031 9.171875 L 5.972656 9.15625 L 5.972656 5.042969 C 5.636719 5.15625 5.289062 5.226562 4.941406 5.21875 L 4.941406 4.773438 C 5.464844 4.78125 6.035156 4.640625 6.433594 4.257812 Z M 6.574219 4.257812 Z M 6.574219 4.257812 "/>
<path style=" stroke:none;fill-rule:nonzero;fill:rgb(0%,0%,0%);fill-opacity:1;" d="M 9.605469 8.972656 L 9.605469 9.609375 L 8.964844 9.609375 L 8.964844 8.972656 Z M 9.605469 8.972656 Z M 9.605469 8.972656 "/>
<path style=" stroke:none;fill-rule:nonzero;fill:rgb(0%,0%,0%);fill-opacity:1;" d="M 12.496094 4.257812 C 13.25 4.3125 13.75 5.003906 13.886719 5.703125 C 13.957031 6.019531 13.972656 6.324219 14.003906 6.640625 L 14.003906 7.449219 C 13.964844 8.273438 13.765625 9.363281 12.871094 9.695312 C 12.089844 10.003906 11.179688 9.519531 10.949219 8.726562 C 10.773438 8.304688 10.757812 7.878906 10.71875 7.449219 L 10.71875 6.640625 C 10.757812 5.8125 10.933594 4.71875 11.820312 4.355469 L 11.859375 4.339844 L 11.894531 4.332031 L 11.933594 4.3125 L 12.050781 4.28125 L 12.125 4.265625 L 12.210938 4.265625 L 12.226562 4.257812 Z M 12.496094 4.257812 Z M 12.25 4.742188 C 11.582031 4.820312 11.386719 5.625 11.335938 6.164062 L 11.335938 6.378906 L 11.320312 6.394531 L 11.320312 7.496094 C 11.367188 8.070312 11.410156 8.804688 11.933594 9.1875 C 12.417969 9.519531 13.058594 9.148438 13.195312 8.632812 C 13.335938 8.25 13.371094 7.878906 13.402344 7.496094 L 13.402344 6.394531 C 13.351562 5.8125 13.273438 5.003906 12.605469 4.773438 L 12.550781 4.757812 L 12.535156 4.742188 L 12.464844 4.742188 L 12.449219 4.726562 L 12.265625 4.726562 Z M 12.25 4.742188 Z M 12.25 4.742188 "/>
<path style="fill:none;stroke-width:0.02;stroke-linecap:butt;stroke-linejoin:miter;stroke:rgb(0%,0%,0%);stroke-opacity:1;stroke-miterlimit:10;" d="M 11.701198 1.579816 L 11.596191 1.579816 " transform="matrix(28.346457,0,0,-28.346457,1,256.11811)"/>
<path style="fill:none;stroke-width:0.02;stroke-linecap:butt;stroke-linejoin:miter;stroke:rgb(0%,0%,0%);stroke-opacity:1;stroke-miterlimit:10;" d="M 11.701198 2.781189 L 11.596191 2.781189 " transform="matrix(28.346457,0,0,-28.346457,1,256.11811)"/>
<path style="fill:none;stroke-width:0.02;stroke-linecap:butt;stroke-linejoin:miter;stroke:rgb(0%,0%,0%);stroke-opacity:1;stroke-miterlimit:10;" d="M 11.701198 3.982701 L 11.596191 3.982701 " transform="matrix(28.346457,0,0,-28.346457,1,256.11811)"/>
<path style="fill:none;stroke-width:0.02;stroke-linecap:butt;stroke-linejoin:miter;stroke:rgb(0%,0%,0%);stroke-opacity:1;stroke-miterlimit:10;" d="M 11.701198 5.184074 L 11.596191 5.184074 " transform="matrix(28.346457,0,0,-28.346457,1,256.11811)"/>
<path style="fill:none;stroke-width:0.02;stroke-linecap:butt;stroke-linejoin:miter;stroke:rgb(0%,0%,0%);stroke-opacity:1;stroke-miterlimit:10;" d="M 11.701198 6.385448 L 11.596191 6.385448 " transform="matrix(28.346457,0,0,-28.346457,1,256.11811)"/>
<path style="fill:none;stroke-width:0.02;stroke-linecap:butt;stroke-linejoin:miter;stroke:rgb(0%,0%,0%);stroke-opacity:1;stroke-miterlimit:10;" d="M 11.701198 7.586822 L 11.596191 7.586822 " transform="matrix(28.346457,0,0,-28.346457,1,256.11811)"/>
<path style="fill:none;stroke-width:0.02;stroke-linecap:round;stroke-linejoin:miter;stroke:rgb(0%,0%,0%);stroke-opacity:1;stroke-miterlimit:10;" d="M 11.701198 0.378442 L 11.701198 8.788333 " transform="matrix(28.346457,0,0,-28.346457,1,256.11811)"/>
<path style="fill:none;stroke-width:0.02;stroke-linecap:butt;stroke-linejoin:miter;stroke:rgb(0%,0%,0%);stroke-opacity:1;stroke-miterlimit:10;" d="M 2.027783 0.378442 L 2.027783 0.483448 " transform="matrix(28.346457,0,0,-28.346457,1,256.11811)"/>
<path style="fill:none;stroke-width:0.02;stroke-linecap:butt;stroke-linejoin:miter;stroke:rgb(0%,0%,0%);stroke-opacity:1;stroke-miterlimit:10;" d="M 3.40968 0.378442 L 3.40968 0.483448 " transform="matrix(28.346457,0,0,-28.346457,1,256.11811)"/>
<path style="fill:none;stroke-width:0.02;stroke-linecap:butt;stroke-linejoin:miter;stroke:rgb(0%,0%,0%);stroke-opacity:1;stroke-miterlimit:10;" d="M 4.791577 0.378442 L 4.791577 0.483448 " transform="matrix(28.346457,0,0,-28.346457,1,256.11811)"/>
<path style="fill:none;stroke-width:0.02;stroke-linecap:butt;stroke-linejoin:miter;stroke:rgb(0%,0%,0%);stroke-opacity:1;stroke-miterlimit:10;" d="M 6.173473 0.378442 L 6.173473 0.483448 " transform="matrix(28.346457,0,0,-28.346457,1,256.11811)"/>
<path style="fill:none;stroke-width:0.02;stroke-linecap:butt;stroke-linejoin:miter;stroke:rgb(0%,0%,0%);stroke-opacity:1;stroke-miterlimit:10;" d="M 7.55537 0.378442 L 7.55537 0.483448 " transform="matrix(28.346457,0,0,-28.346457,1,256.11811)"/>
<path style="fill:none;stroke-width:0.02;stroke-linecap:butt;stroke-linejoin:miter;stroke:rgb(0%,0%,0%);stroke-opacity:1;stroke-miterlimit:10;" d="M 8.937405 0.378442 L 8.937405 0.483448 " transform="matrix(28.346457,0,0,-28.346457,1,256.11811)"/>
<path style="fill:none;stroke-width:0.02;stroke-linecap:butt;stroke-linejoin:miter;stroke:rgb(0%,0%,0%);stroke-opacity:1;stroke-miterlimit:10;" d="M 10.319301 0.378442 L 10.319301 0.483448 " transform="matrix(28.346457,0,0,-28.346457,1,256.11811)"/>
<path style="fill:none;stroke-width:0.02;stroke-linecap:round;stroke-linejoin:miter;stroke:rgb(0%,0%,0%);stroke-opacity:1;stroke-miterlimit:10;" d="M 0.645749 0.378442 L 11.701198 0.378442 " transform="matrix(28.346457,0,0,-28.346457,1,256.11811)"/>
<path style=" stroke:none;fill-rule:nonzero;fill:rgb(0%,0%,0%);fill-opacity:1;" d="M 15.089844 253.589844 L 15.089844 254.035156 L 13.011719 254.035156 L 13.011719 253.589844 Z M 15.089844 253.589844 Z M 15.089844 253.589844 "/>
<path style=" stroke:none;fill-rule:nonzero;fill:rgb(0%,0%,0%);fill-opacity:1;" d="M 17.589844 250.210938 C 18.511719 250.234375 19.242188 251.179688 19.101562 252.066406 C 19.003906 252.957031 18.171875 253.464844 17.574219 254.019531 L 17.320312 254.28125 L 17.289062 254.296875 L 16.972656 254.605469 L 16.949219 254.621094 L 16.632812 254.941406 L 16.601562 254.957031 L 16.527344 255.027344 L 16.542969 255.035156 L 19.117188 255.035156 L 19.117188 255.558594 L 15.972656 255.558594 L 15.972656 255.082031 L 17.25 253.804688 C 17.863281 253.273438 18.574219 252.582031 18.464844 251.710938 C 18.402344 251.203125 17.972656 250.734375 17.449219 250.695312 C 16.917969 250.613281 16.449219 251.035156 16.328125 251.542969 L 16.3125 251.566406 L 16.296875 251.621094 L 16.273438 251.710938 L 16.226562 251.882812 L 16.21875 251.925781 C 16.109375 251.789062 15.988281 251.644531 15.902344 251.496094 C 16.058594 250.84375 16.582031 250.234375 17.273438 250.210938 Z M 17.589844 250.210938 Z M 17.589844 250.210938 "/>
<path style=" stroke:none;fill-rule:nonzero;fill:rgb(0%,0%,0%);fill-opacity:1;" d="M 20.957031 254.925781 L 20.957031 255.558594 L 20.3125 255.558594 L 20.3125 254.925781 Z M 20.957031 254.925781 Z M 20.957031 254.925781 "/>
<path style=" stroke:none;fill-rule:nonzero;fill:rgb(0%,0%,0%);fill-opacity:1;" d="M 23.847656 250.210938 C 24.601562 250.265625 25.101562 250.957031 25.234375 251.652344 C 25.304688 251.972656 25.324219 252.273438 25.355469 252.589844 L 25.355469 253.398438 C 25.316406 254.226562 25.117188 255.3125 24.21875 255.644531 C 23.441406 255.957031 22.527344 255.472656 22.296875 254.679688 C 22.125 254.257812 22.109375 253.828125 22.066406 253.398438 L 22.066406 252.589844 C 22.109375 251.765625 22.28125 250.667969 23.171875 250.304688 L 23.210938 250.289062 L 23.242188 250.28125 L 23.28125 250.265625 L 23.402344 250.234375 L 23.472656 250.21875 L 23.558594 250.21875 L 23.578125 250.210938 Z M 23.847656 250.210938 Z M 23.601562 250.695312 C 22.933594 250.773438 22.734375 251.574219 22.6875 252.113281 L 22.6875 252.328125 L 22.671875 252.34375 L 22.671875 253.449219 C 22.71875 254.019531 22.757812 254.757812 23.28125 255.136719 C 23.765625 255.472656 24.410156 255.097656 24.542969 254.582031 C 24.6875 254.203125 24.71875 253.828125 24.75 253.449219 L 24.75 252.34375 C 24.703125 251.765625 24.625 250.957031 23.957031 250.726562 L 23.902344 250.710938 L 23.886719 250.695312 L 23.8125 250.695312 L 23.796875 250.679688 L 23.617188 250.679688 Z M 23.601562 250.695312 Z M 23.601562 250.695312 "/>
<path style=" stroke:none;fill-rule:nonzero;fill:rgb(0%,0%,0%);fill-opacity:1;" d="M 54.265625 253.589844 L 54.265625 254.035156 L 52.183594 254.035156 L 52.183594 253.589844 Z M 54.265625 253.589844 Z M 54.265625 253.589844 "/>
<path style=" stroke:none;fill-rule:nonzero;fill:rgb(0%,0%,0%);fill-opacity:1;" d="M 57.097656 250.210938 L 57.097656 255.105469 L 57.105469 255.121094 L 58.082031 255.121094 L 58.082031 255.558594 L 55.503906 255.558594 L 55.503906 255.121094 L 56.480469 255.121094 L 56.496094 255.105469 L 56.496094 250.996094 C 56.160156 251.105469 55.8125 251.179688 55.460938 251.171875 L 55.460938 250.726562 C 55.988281 250.734375 56.558594 250.589844 56.953125 250.210938 Z M 57.097656 250.210938 Z M 57.097656 250.210938 "/>
<path style=" stroke:none;fill-rule:nonzero;fill:rgb(0%,0%,0%);fill-opacity:1;" d="M 60.128906 254.925781 L 60.128906 255.558594 L 59.488281 255.558594 L 59.488281 254.925781 Z M 60.128906 254.925781 Z M 60.128906 254.925781 "/>
<path style=" stroke:none;fill-rule:nonzero;fill:rgb(0%,0%,0%);fill-opacity:1;" d="M 64.195312 250.375 L 64.195312 250.867188 L 62.128906 250.867188 L 62.113281 250.875 L 62.113281 252.503906 C 62.304688 252.375 62.574219 252.210938 62.828125 252.203125 C 63.726562 252.105469 64.414062 252.988281 64.457031 253.804688 C 64.582031 254.84375 63.605469 255.875 62.558594 255.71875 C 62.035156 255.703125 61.527344 255.390625 61.226562 254.964844 C 61.3125 254.84375 61.382812 254.636719 61.488281 254.566406 C 61.859375 255.296875 63.066406 255.589844 63.550781 254.820312 C 63.859375 254.242188 63.851562 253.503906 63.496094 252.949219 C 63.082031 252.417969 62.265625 252.742188 62.074219 253.304688 L 61.558594 253.304688 L 61.558594 250.375 Z M 64.195312 250.375 Z M 64.195312 250.375 "/>
<path style=" stroke:none;fill-rule:nonzero;fill:rgb(0%,0%,0%);fill-opacity:1;" d="M 93.4375 253.589844 L 93.4375 254.035156 L 91.359375 254.035156 L 91.359375 253.589844 Z M 93.4375 253.589844 Z M 93.4375 253.589844 "/>
<path style=" stroke:none;fill-rule:nonzero;fill:rgb(0%,0%,0%);fill-opacity:1;" d="M 96.269531 250.210938 L 96.269531 255.105469 L 96.277344 255.121094 L 97.253906 255.121094 L 97.253906 255.558594 L 94.675781 255.558594 L 94.675781 255.121094 L 95.652344 255.121094 L 95.667969 255.105469 L 95.667969 250.996094 C 95.335938 251.105469 94.984375 251.179688 94.636719 251.171875 L 94.636719 250.726562 C 95.160156 250.734375 95.730469 250.589844 96.128906 250.210938 Z M 96.269531 250.210938 Z M 96.269531 250.210938 "/>
<path style=" stroke:none;fill-rule:nonzero;fill:rgb(0%,0%,0%);fill-opacity:1;" d="M 99.300781 254.925781 L 99.300781 255.558594 L 98.660156 255.558594 L 98.660156 254.925781 Z M 99.300781 254.925781 Z M 99.300781 254.925781 "/>
<path style=" stroke:none;fill-rule:nonzero;fill:rgb(0%,0%,0%);fill-opacity:1;" d="M 102.191406 250.210938 C 102.945312 250.265625 103.445312 250.957031 103.582031 251.652344 C 103.652344 251.972656 103.667969 252.273438 103.699219 252.589844 L 103.699219 253.398438 C 103.660156 254.226562 103.460938 255.3125 102.566406 255.644531 C 101.785156 255.957031 100.875 255.472656 100.644531 254.679688 C 100.46875 254.257812 100.453125 253.828125 100.414062 253.398438 L 100.414062 252.589844 C 100.453125 251.765625 100.628906 250.667969 101.515625 250.304688 L 101.558594 250.289062 L 101.589844 250.28125 L 101.628906 250.265625 L 101.746094 250.234375 L 101.820312 250.21875 L 101.90625 250.21875 L 101.921875 250.210938 Z M 102.191406 250.210938 Z M 101.945312 250.695312 C 101.277344 250.773438 101.082031 251.574219 101.03125 252.113281 L 101.03125 252.328125 L 101.015625 252.34375 L 101.015625 253.449219 C 101.066406 254.019531 101.105469 254.757812 101.628906 255.136719 C 102.113281 255.472656 102.753906 255.097656 102.890625 254.582031 C 103.03125 254.203125 103.066406 253.828125 103.097656 253.449219 L 103.097656 252.34375 C 103.046875 251.765625 102.96875 250.957031 102.300781 250.726562 L 102.246094 250.710938 L 102.230469 250.695312 L 102.160156 250.695312 L 102.144531 250.679688 L 101.960938 250.679688 Z M 101.945312 250.695312 Z M 101.945312 250.695312 "/>
<path style=" stroke:none;fill-rule:nonzero;fill:rgb(0%,0%,0%);fill-opacity:1;" d="M 132.609375 253.589844 L 132.609375 254.035156 L 130.53125 254.035156 L 130.53125 253.589844 Z M 132.609375 253.589844 Z M 132.609375 253.589844 "/>
<path style=" stroke:none;fill-rule:nonzero;fill:rgb(0%,0%,0%);fill-opacity:1;" d="M 135.199219 250.210938 C 135.953125 250.265625 136.453125 250.957031 136.585938 251.652344 C 136.65625 251.972656 136.671875 252.273438 136.707031 252.589844 L 136.707031 253.398438 C 136.664062 254.226562 136.46875 255.3125 135.570312 255.644531 C 134.792969 255.957031 133.878906 255.472656 133.648438 254.679688 C 133.476562 254.257812 133.460938 253.828125 133.417969 253.398438 L 133.417969 252.589844 C 133.460938 251.765625 133.632812 250.667969 134.523438 250.304688 L 134.5625 250.289062 L 134.59375 250.28125 L 134.632812 250.265625 L 134.753906 250.234375 L 134.824219 250.21875 L 134.910156 250.21875 L 134.925781 250.210938 Z M 135.199219 250.210938 Z M 134.953125 250.695312 C 134.285156 250.773438 134.085938 251.574219 134.039062 252.113281 L 134.039062 252.328125 L 134.023438 252.34375 L 134.023438 253.449219 C 134.070312 254.019531 134.109375 254.757812 134.632812 255.136719 C 135.117188 255.472656 135.761719 255.097656 135.894531 254.582031 C 136.039062 254.203125 136.070312 253.828125 136.101562 253.449219 L 136.101562 252.34375 C 136.054688 251.765625 135.976562 250.957031 135.308594 250.726562 L 135.253906 250.710938 L 135.238281 250.695312 L 135.164062 250.695312 L 135.148438 250.679688 L 134.96875 250.679688 Z M 134.953125 250.695312 Z M 134.953125 250.695312 "/>
<path style=" stroke:none;fill-rule:nonzero;fill:rgb(0%,0%,0%);fill-opacity:1;" d="M 138.476562 254.925781 L 138.476562 255.558594 L 137.832031 255.558594 L 137.832031 254.925781 Z M 138.476562 254.925781 Z M 138.476562 254.925781 "/>
<path style=" stroke:none;fill-rule:nonzero;fill:rgb(0%,0%,0%);fill-opacity:1;" d="M 142.539062 250.375 L 142.539062 250.867188 L 140.476562 250.867188 L 140.460938 250.875 L 140.460938 252.503906 C 140.648438 252.375 140.917969 252.210938 141.175781 252.203125 C 142.070312 252.105469 142.761719 252.988281 142.800781 253.804688 C 142.929688 254.84375 141.953125 255.875 140.902344 255.71875 C 140.378906 255.703125 139.871094 255.390625 139.570312 254.964844 C 139.65625 254.84375 139.730469 254.636719 139.832031 254.566406 C 140.207031 255.296875 141.410156 255.589844 141.894531 254.820312 C 142.207031 254.242188 142.199219 253.503906 141.839844 252.949219 C 141.429688 252.417969 140.609375 252.742188 140.417969 253.304688 L 139.902344 253.304688 L 139.902344 250.375 Z M 142.539062 250.375 Z M 142.539062 250.375 "/>
<path style=" stroke:none;fill-rule:nonzero;fill:rgb(0%,0%,0%);fill-opacity:1;" d="M 173.046875 250.210938 C 173.800781 250.265625 174.300781 250.957031 174.4375 251.652344 C 174.507812 251.972656 174.523438 252.273438 174.554688 252.589844 L 174.554688 253.398438 C 174.515625 254.226562 174.320312 255.3125 173.421875 255.644531 C 172.644531 255.957031 171.730469 255.472656 171.5 254.679688 C 171.328125 254.257812 171.308594 253.828125 171.269531 253.398438 L 171.269531 252.589844 C 171.308594 251.765625 171.484375 250.667969 172.375 250.304688 L 172.414062 250.289062 L 172.445312 250.28125 L 172.484375 250.265625 L 172.605469 250.234375 L 172.675781 250.21875 L 172.761719 250.21875 L 172.777344 250.210938 Z M 173.046875 250.210938 Z M 172.800781 250.695312 C 172.136719 250.773438 171.9375 251.574219 171.890625 252.113281 L 171.890625 252.328125 L 171.875 252.34375 L 171.875 253.449219 C 171.921875 254.019531 171.960938 254.757812 172.484375 255.136719 C 172.96875 255.472656 173.613281 255.097656 173.746094 254.582031 C 173.890625 254.203125 173.921875 253.828125 173.953125 253.449219 L 173.953125 252.34375 C 173.90625 251.765625 173.828125 250.957031 173.160156 250.726562 L 173.105469 250.710938 L 173.089844 250.695312 L 173.015625 250.695312 L 173 250.679688 L 172.820312 250.679688 Z M 172.800781 250.695312 Z M 172.800781 250.695312 "/>
<path style=" stroke:none;fill-rule:nonzero;fill:rgb(0%,0%,0%);fill-opacity:1;" d="M 176.328125 254.925781 L 176.328125 255.558594 L 175.683594 255.558594 L 175.683594 254.925781 Z M 176.328125 254.925781 Z M 176.328125 254.925781 "/>
<path style=" stroke:none;fill-rule:nonzero;fill:rgb(0%,0%,0%);fill-opacity:1;" d="M 179.214844 250.210938 C 179.96875 250.265625 180.46875 250.957031 180.605469 251.652344 C 180.675781 251.972656 180.691406 252.273438 180.722656 252.589844 L 180.722656 253.398438 C 180.683594 254.226562 180.484375 255.3125 179.589844 255.644531 C 178.8125 255.957031 177.898438 255.472656 177.667969 254.679688 C 177.492188 254.257812 177.476562 253.828125 177.4375 253.398438 L 177.4375 252.589844 C 177.476562 251.765625 177.652344 250.667969 178.539062 250.304688 L 178.582031 250.289062 L 178.613281 250.28125 L 178.652344 250.265625 L 178.769531 250.234375 L 178.84375 250.21875 L 178.929688 250.21875 L 178.945312 250.210938 Z M 179.214844 250.210938 Z M 178.96875 250.695312 C 178.304688 250.773438 178.105469 251.574219 178.058594 252.113281 L 178.058594 252.328125 L 178.039062 252.34375 L 178.039062 253.449219 C 178.089844 254.019531 178.128906 254.757812 178.652344 255.136719 C 179.136719 255.472656 179.777344 255.097656 179.914062 254.582031 C 180.058594 254.203125 180.089844 253.828125 180.121094 253.449219 L 180.121094 252.34375 C 180.074219 251.765625 179.992188 250.957031 179.328125 250.726562 L 179.269531 250.710938 L 179.253906 250.695312 L 179.183594 250.695312 L 179.167969 250.679688 L 178.984375 250.679688 Z M 178.96875 250.695312 Z M 178.96875 250.695312 "/>
<path style=" stroke:none;fill-rule:nonzero;fill:rgb(0%,0%,0%);fill-opacity:1;" d="M 212.222656 250.210938 C 212.976562 250.265625 213.476562 250.957031 213.609375 251.652344 C 213.683594 251.972656 213.699219 252.273438 213.730469 252.589844 L 213.730469 253.398438 C 213.691406 254.226562 213.492188 255.3125 212.59375 255.644531 C 211.816406 255.957031 210.902344 255.472656 210.671875 254.679688 C 210.5 254.257812 210.484375 253.828125 210.445312 253.398438 L 210.445312 252.589844 C 210.484375 251.765625 210.65625 250.667969 211.546875 250.304688 L 211.585938 250.289062 L 211.617188 250.28125 L 211.65625 250.265625 L 211.777344 250.234375 L 211.847656 250.21875 L 211.9375 250.21875 L 211.953125 250.210938 Z M 212.222656 250.210938 Z M 211.976562 250.695312 C 211.308594 250.773438 211.109375 251.574219 211.0625 252.113281 L 211.0625 252.328125 L 211.046875 252.34375 L 211.046875 253.449219 C 211.09375 254.019531 211.132812 254.757812 211.65625 255.136719 C 212.140625 255.472656 212.785156 255.097656 212.917969 254.582031 C 213.0625 254.203125 213.09375 253.828125 213.125 253.449219 L 213.125 252.34375 C 213.078125 251.765625 213 250.957031 212.332031 250.726562 L 212.277344 250.710938 L 212.261719 250.695312 L 212.191406 250.695312 L 212.171875 250.679688 L 211.992188 250.679688 Z M 211.976562 250.695312 Z M 211.976562 250.695312 "/>
<path style=" stroke:none;fill-rule:nonzero;fill:rgb(0%,0%,0%);fill-opacity:1;" d="M 215.5 254.925781 L 215.5 255.558594 L 214.855469 255.558594 L 214.855469 254.925781 Z M 215.5 254.925781 Z M 215.5 254.925781 "/>
<path style=" stroke:none;fill-rule:nonzero;fill:rgb(0%,0%,0%);fill-opacity:1;" d="M 219.5625 250.375 L 219.5625 250.867188 L 217.5 250.867188 L 217.484375 250.875 L 217.484375 252.503906 C 217.675781 252.375 217.945312 252.210938 218.199219 252.203125 C 219.09375 252.105469 219.785156 252.988281 219.824219 253.804688 C 219.953125 254.84375 218.976562 255.875 217.929688 255.71875 C 217.402344 255.703125 216.894531 255.390625 216.59375 254.964844 C 216.683594 254.84375 216.753906 254.636719 216.855469 254.566406 C 217.230469 255.296875 218.4375 255.589844 218.921875 254.820312 C 219.230469 254.242188 219.222656 253.503906 218.863281 252.949219 C 218.453125 252.417969 217.632812 252.742188 217.445312 253.304688 L 216.929688 253.304688 L 216.929688 250.375 Z M 219.5625 250.375 Z M 219.5625 250.375 "/>
<path style=" stroke:none;fill-rule:nonzero;fill:rgb(0%,0%,0%);fill-opacity:1;" d="M 251.640625 250.210938 L 251.640625 255.105469 L 251.648438 255.121094 L 252.625 255.121094 L 252.625 255.558594 L 250.042969 255.558594 L 250.042969 255.121094 L 251.019531 255.121094 L 251.035156 255.105469 L 251.035156 250.996094 C 250.703125 251.105469 250.355469 251.179688 250.003906 251.171875 L 250.003906 250.726562 C 250.527344 250.734375 251.101562 250.589844 251.496094 250.210938 Z M 251.640625 250.210938 Z M 251.640625 250.210938 "/>
<path style=" stroke:none;fill-rule:nonzero;fill:rgb(0%,0%,0%);fill-opacity:1;" d="M 254.671875 254.925781 L 254.671875 255.558594 L 254.027344 255.558594 L 254.027344 254.925781 Z M 254.671875 254.925781 Z M 254.671875 254.925781 "/>
<path style=" stroke:none;fill-rule:nonzero;fill:rgb(0%,0%,0%);fill-opacity:1;" d="M 257.5625 250.210938 C 258.316406 250.265625 258.816406 250.957031 258.949219 251.652344 C 259.023438 251.972656 259.039062 252.273438 259.070312 252.589844 L 259.070312 253.398438 C 259.03125 254.226562 258.832031 255.3125 257.933594 255.644531 C 257.15625 255.957031 256.242188 255.472656 256.011719 254.679688 C 255.839844 254.257812 255.824219 253.828125 255.78125 253.398438 L 255.78125 252.589844 C 255.824219 251.765625 255.996094 250.667969 256.886719 250.304688 L 256.925781 250.289062 L 256.957031 250.28125 L 256.996094 250.265625 L 257.117188 250.234375 L 257.1875 250.21875 L 257.273438 250.21875 L 257.292969 250.210938 Z M 257.5625 250.210938 Z M 257.316406 250.695312 C 256.648438 250.773438 256.449219 251.574219 256.402344 252.113281 L 256.402344 252.328125 L 256.386719 252.34375 L 256.386719 253.449219 C 256.433594 254.019531 256.472656 254.757812 256.996094 255.136719 C 257.480469 255.472656 258.125 255.097656 258.257812 254.582031 C 258.402344 254.203125 258.433594 253.828125 258.464844 253.449219 L 258.464844 252.34375 C 258.417969 251.765625 258.339844 250.957031 257.671875 250.726562 L 257.617188 250.710938 L 257.601562 250.695312 L 257.53125 250.695312 L 257.511719 250.679688 L 257.332031 250.679688 Z M 257.316406 250.695312 Z M 257.316406 250.695312 "/>
<path style=" stroke:none;fill-rule:nonzero;fill:rgb(0%,0%,0%);fill-opacity:1;" d="M 290.8125 250.210938 L 290.8125 255.105469 L 290.820312 255.121094 L 291.796875 255.121094 L 291.796875 255.558594 L 289.21875 255.558594 L 289.21875 255.121094 L 290.195312 255.121094 L 290.210938 255.105469 L 290.210938 250.996094 C 289.875 251.105469 289.527344 251.179688 289.179688 251.171875 L 289.179688 250.726562 C 289.703125 250.734375 290.273438 250.589844 290.671875 250.210938 Z M 290.8125 250.210938 Z M 290.8125 250.210938 "/>
<path style=" stroke:none;fill-rule:nonzero;fill:rgb(0%,0%,0%);fill-opacity:1;" d="M 293.84375 254.925781 L 293.84375 255.558594 L 293.203125 255.558594 L 293.203125 254.925781 Z M 293.84375 254.925781 Z M 293.84375 254.925781 "/>
<path style=" stroke:none;fill-rule:nonzero;fill:rgb(0%,0%,0%);fill-opacity:1;" d="M 297.910156 250.375 L 297.910156 250.867188 L 295.84375 250.867188 L 295.828125 250.875 L 295.828125 252.503906 C 296.019531 252.375 296.289062 252.210938 296.542969 252.203125 C 297.441406 252.105469 298.128906 252.988281 298.171875 253.804688 C 298.296875 254.84375 297.320312 255.875 296.273438 255.71875 C 295.75 255.703125 295.242188 255.390625 294.941406 254.964844 C 295.027344 254.84375 295.097656 254.636719 295.203125 254.566406 C 295.574219 255.296875 296.78125 255.589844 297.265625 254.820312 C 297.574219 254.242188 297.566406 253.503906 297.210938 252.949219 C 296.796875 252.417969 295.980469 252.742188 295.789062 253.304688 L 295.273438 253.304688 L 295.273438 250.375 Z M 297.910156 250.375 Z M 297.910156 250.375 "/>
<path style=" stroke:none;fill-rule:nonzero;fill:rgb(0%,0%,0%);fill-opacity:1;" d="M 329.652344 250.210938 C 330.574219 250.234375 331.304688 251.179688 331.160156 252.066406 C 331.066406 252.957031 330.230469 253.464844 329.636719 254.019531 L 329.382812 254.28125 L 329.351562 254.296875 L 329.03125 254.605469 L 329.007812 254.621094 L 328.691406 254.941406 L 328.660156 254.957031 L 328.589844 255.027344 L 328.605469 255.035156 L 331.175781 255.035156 L 331.175781 255.558594 L 328.03125 255.558594 L 328.03125 255.082031 L 329.3125 253.804688 C 329.921875 253.273438 330.636719 252.582031 330.523438 251.710938 C 330.460938 251.203125 330.03125 250.734375 329.507812 250.695312 C 328.976562 250.613281 328.507812 251.035156 328.390625 251.542969 L 328.375 251.566406 L 328.359375 251.621094 L 328.335938 251.710938 L 328.285156 251.882812 L 328.277344 251.925781 C 328.167969 251.789062 328.050781 251.644531 327.960938 251.496094 C 328.121094 250.84375 328.644531 250.234375 329.335938 250.210938 Z M 329.652344 250.210938 Z M 329.652344 250.210938 "/>
<path style=" stroke:none;fill-rule:nonzero;fill:rgb(0%,0%,0%);fill-opacity:1;" d="M 333.015625 254.925781 L 333.015625 255.558594 L 332.375 255.558594 L 332.375 254.925781 Z M 333.015625 254.925781 Z M 333.015625 254.925781 "/>
<path style=" stroke:none;fill-rule:nonzero;fill:rgb(0%,0%,0%);fill-opacity:1;" d="M 335.90625 250.210938 C 336.660156 250.265625 337.160156 250.957031 337.296875 251.652344 C 337.367188 251.972656 337.382812 252.273438 337.414062 252.589844 L 337.414062 253.398438 C 337.375 254.226562 337.175781 255.3125 336.28125 255.644531 C 335.5 255.957031 334.589844 255.472656 334.359375 254.679688 C 334.183594 254.257812 334.167969 253.828125 334.128906 253.398438 L 334.128906 252.589844 C 334.167969 251.765625 334.34375 250.667969 335.230469 250.304688 L 335.273438 250.289062 L 335.304688 250.28125 L 335.34375 250.265625 L 335.460938 250.234375 L 335.535156 250.21875 L 335.621094 250.21875 L 335.636719 250.210938 Z M 335.90625 250.210938 Z M 335.660156 250.695312 C 334.992188 250.773438 334.796875 251.574219 334.746094 252.113281 L 334.746094 252.328125 L 334.730469 252.34375 L 334.730469 253.449219 C 334.78125 254.019531 334.820312 254.757812 335.34375 255.136719 C 335.828125 255.472656 336.46875 255.097656 336.605469 254.582031 C 336.746094 254.203125 336.78125 253.828125 336.8125 253.449219 L 336.8125 252.34375 C 336.765625 251.765625 336.683594 250.957031 336.019531 250.726562 L 335.960938 250.710938 L 335.945312 250.695312 L 335.875 250.695312 L 335.859375 250.679688 L 335.675781 250.679688 Z M 335.660156 250.695312 Z M 335.660156 250.695312 "/>
<path style="fill:none;stroke-width:0.02;stroke-linecap:butt;stroke-linejoin:miter;stroke:rgb(0%,0%,0%);stroke-opacity:1;stroke-miterlimit:10;" d="M 2.027783 8.788333 L 2.027783 8.683327 " transform="matrix(28.346457,0,0,-28.346457,1,256.11811)"/>
<path style="fill:none;stroke-width:0.02;stroke-linecap:butt;stroke-linejoin:miter;stroke:rgb(0%,0%,0%);stroke-opacity:1;stroke-miterlimit:10;" d="M 3.40968 8.788333 L 3.40968 8.683327 " transform="matrix(28.346457,0,0,-28.346457,1,256.11811)"/>
<path style="fill:none;stroke-width:0.02;stroke-linecap:butt;stroke-linejoin:miter;stroke:rgb(0%,0%,0%);stroke-opacity:1;stroke-miterlimit:10;" d="M 4.791577 8.788333 L 4.791577 8.683327 " transform="matrix(28.346457,0,0,-28.346457,1,256.11811)"/>
<path style="fill:none;stroke-width:0.02;stroke-linecap:butt;stroke-linejoin:miter;stroke:rgb(0%,0%,0%);stroke-opacity:1;stroke-miterlimit:10;" d="M 6.173473 8.788333 L 6.173473 8.683327 " transform="matrix(28.346457,0,0,-28.346457,1,256.11811)"/>
<path style="fill:none;stroke-width:0.02;stroke-linecap:butt;stroke-linejoin:miter;stroke:rgb(0%,0%,0%);stroke-opacity:1;stroke-miterlimit:10;" d="M 7.55537 8.788333 L 7.55537 8.683327 " transform="matrix(28.346457,0,0,-28.346457,1,256.11811)"/>
<path style="fill:none;stroke-width:0.02;stroke-linecap:butt;stroke-linejoin:miter;stroke:rgb(0%,0%,0%);stroke-opacity:1;stroke-miterlimit:10;" d="M 8.937405 8.788333 L 8.937405 8.683327 " transform="matrix(28.346457,0,0,-28.346457,1,256.11811)"/>
<path style="fill:none;stroke-width:0.02;stroke-linecap:butt;stroke-linejoin:miter;stroke:rgb(0%,0%,0%);stroke-opacity:1;stroke-miterlimit:10;" d="M 10.319301 8.788333 L 10.319301 8.683327 " transform="matrix(28.346457,0,0,-28.346457,1,256.11811)"/>
<path style="fill:none;stroke-width:0.02;stroke-linecap:round;stroke-linejoin:miter;stroke:rgb(0%,0%,0%);stroke-opacity:1;stroke-miterlimit:10;" d="M 0.645749 8.788333 L 11.701198 8.788333 " transform="matrix(28.346457,0,0,-28.346457,1,256.11811)"/>
<path style="fill:none;stroke-width:0.05;stroke-linecap:butt;stroke-linejoin:miter;stroke:rgb(33%,47%,64%);stroke-opacity:1;stroke-miterlimit:10;" d="M 0.645749 2.781189 L 0.682956 2.740399 L 0.720301 2.699334 L 0.757508 2.657717 L 0.794715 2.615687 L 0.831922 2.573519 L 0.869129 2.531075 L 0.98075 2.402918 L 1.018095 2.360474 L 1.055302 2.317893 L 1.092509 2.275587 L 1.129716 2.233419 L 1.166923 2.19194 L 1.20413 2.150737 L 1.241337 2.109947 L 1.278544 2.069984 L 1.315889 2.030434 L 1.353096 1.991711 L 1.390303 1.953953 L 1.42751 1.917021 L 1.464717 1.880917 L 1.501924 1.846053 L 1.539131 1.812291 L 1.576338 1.779631 L 1.613683 1.74835 L 1.65089 1.718308 L 1.688097 1.689645 L 1.725304 1.662773 L 1.762511 1.637142 L 1.799718 1.613302 L 1.836925 1.591115 L 1.874132 1.57072 L 1.911339 1.552117 L 1.948684 1.535443 L 1.985891 1.520698 L 2.023098 1.507882 L 2.060305 1.497271 L 2.097512 1.488727 L 2.134719 1.482388 L 2.171926 1.478254 L 2.209133 1.476463 L 2.246478 1.476876 L 2.283685 1.47977 L 2.320892 1.485007 L 2.358099 1.492586 L 2.395306 1.502783 L 2.432513 1.515461 L 2.46972 1.53062 L 2.506927 1.548534 L 2.544272 1.568929 L 2.581479 1.591804 L 2.618686 1.617574 L 2.655893 1.645824 L 2.6931 1.676692 L 2.730307 1.710316 L 2.767514 1.746696 L 2.804721 1.785557 L 2.841928 1.827173 L 2.879273 1.871546 L 2.91648 1.918537 L 2.953687 1.968147 L 2.990894 2.020374 L 3.028101 2.07522 L 3.065308 2.132547 L 3.102515 2.192629 L 3.139722 2.255192 L 3.177067 2.320235 L 3.214274 2.387759 L 3.251481 2.457764 L 3.288688 2.530111 L 3.325895 2.6048 L 3.363102 2.681833 L 3.400309 2.76107 L 3.437516 2.842512 L 3.474861 2.926159 L 3.512068 3.011735 L 3.549275 3.099378 L 3.586482 3.189089 L 3.623689 3.280452 L 3.660896 3.373746 L 3.698103 3.46883 L 3.73531 3.565431 L 3.772517 3.663685 L 3.809862 3.763455 L 3.847069 3.864603 L 3.884276 3.967129 L 3.921483 4.070757 L 3.95869 4.175488 L 3.995897 4.281459 L 4.033104 4.388257 L 4.070311 4.495882 L 4.107656 4.604334 L 4.144863 4.713474 L 4.18207 4.823028 L 4.219277 4.933134 L 4.330898 5.265103 L 4.368105 5.375897 L 4.40545 5.486692 L 4.442657 5.597348 L 4.479864 5.707729 L 4.517071 5.817559 L 4.554278 5.926975 L 4.591485 6.03584 L 4.628692 6.14374 L 4.6659 6.251089 L 4.703244 6.357474 L 4.740451 6.462618 L 4.777658 6.566798 L 4.814865 6.6696 L 4.852072 6.771023 L 4.88928 6.871069 L 4.926487 6.969599 L 4.963694 7.066199 L 5.000901 7.161284 L 5.038245 7.254439 L 5.075452 7.345527 L 5.11266 7.434686 L 5.149867 7.521778 L 5.187074 7.60639 L 5.224281 7.688797 L 5.261488 7.768861 L 5.298695 7.846169 L 5.336039 7.921134 L 5.373247 7.993481 L 5.410454 8.062796 L 5.447661 8.129631 L 5.484868 8.193434 L 5.522075 8.254206 L 5.559282 8.312083 L 5.596489 8.366929 L 5.633834 8.418468 L 5.671041 8.466975 L 5.708248 8.512174 L 5.745455 8.554067 L 5.782662 8.592652 L 5.819869 8.62793 L 5.857076 8.659625 L 5.894283 8.688012 L 5.93149 8.712955 L 5.968835 8.734176 L 6.006042 8.752091 L 6.043249 8.766423 L 6.080456 8.777171 L 6.117663 8.784199 L 6.15487 8.78792 L 6.192077 8.78792 L 6.229284 8.784199 L 6.266629 8.777171 L 6.303836 8.766423 L 6.341043 8.752091 L 6.37825 8.734176 L 6.415457 8.712955 L 6.452664 8.688012 L 6.489871 8.659625 L 6.527078 8.62793 L 6.564423 8.592652 L 6.60163 8.554067 L 6.638837 8.512174 L 6.676044 8.466975 L 6.713251 8.418468 L 6.750458 8.366929 L 6.787665 8.312083 L 6.824872 8.254206 L 6.862079 8.193434 L 6.899424 8.129631 L 6.936631 8.062796 L 6.973838 7.993481 L 7.011045 7.921134 L 7.048252 7.846169 L 7.085459 7.768861 L 7.122666 7.688797 L 7.159873 7.60639 L 7.197218 7.521778 L 7.234425 7.434686 L 7.271632 7.345527 L 7.308839 7.254439 L 7.346046 7.161284 L 7.383253 7.066199 L 7.42046 6.969599 L 7.457667 6.871069 L 7.495012 6.771023 L 7.532219 6.6696 L 7.569426 6.566798 L 7.606633 6.462618 L 7.64384 6.357474 L 7.681047 6.251089 L 7.718254 6.14374 L 7.755461 6.03584 L 7.792806 5.926975 L 7.830013 5.817559 L 7.86722 5.707729 L 7.904427 5.597348 L 7.941634 5.486692 L 8.016048 5.265103 L 8.090462 5.04379 L 8.127807 4.933134 L 8.165014 4.823028 L 8.202221 4.713474 L 8.239428 4.604334 L 8.276635 4.495882 L 8.313842 4.388257 L 8.351049 4.281459 L 8.388256 4.175488 L 8.425601 4.070757 L 8.462808 3.967129 L 8.500015 3.864603 L 8.537222 3.763455 L 8.574429 3.663685 L 8.611636 3.565431 L 8.648843 3.46883 L 8.68605 3.373746 L 8.723395 3.280452 L 8.760602 3.189089 L 8.797809 3.099378 L 8.835016 3.011735 L 8.872223 2.926159 L 8.90943 2.842512 L 8.946637 2.76107 L 8.983844 2.681833 L 9.021051 2.6048 L 9.058396 2.530111 L 9.095603 2.457764 L 9.13281 2.387759 L 9.170017 2.320235 L 9.207224 2.255192 L 9.244431 2.192629 L 9.281638 2.132547 L 9.318845 2.07522 L 9.35619 2.020374 L 9.393397 1.968147 L 9.430604 1.918537 L 9.467811 1.871546 L 9.505018 1.827173 L 9.542225 1.785557 L 9.579433 1.746696 L 9.61664 1.710316 L 9.653984 1.676692 L 9.691191 1.645824 L 9.728398 1.617574 L 9.765605 1.591804 L 9.802812 1.568929 L 9.84002 1.548534 L 9.877227 1.53062 L 9.914434 1.515461 L 9.951641 1.502783 L 9.988985 1.492586 L 10.026192 1.485007 L 10.0634 1.47977 L 10.100607 1.476876 L 10.137814 1.476463 L 10.175021 1.478254 L 10.212228 1.482388 L 10.249435 1.488727 L 10.28678 1.497271 L 10.323987 1.507882 L 10.361194 1.520698 L 10.398401 1.535443 L 10.435608 1.552117 L 10.472815 1.57072 L 10.510022 1.591115 L 10.547229 1.613302 L 10.584574 1.637142 L 10.621781 1.662773 L 10.658988 1.689645 L 10.696195 1.718308 L 10.733402 1.74835 L 10.770609 1.779631 L 10.807816 1.812291 L 10.845023 1.846053 L 10.882368 1.880917 L 10.919575 1.917021 L 10.956782 1.953953 L 10.993989 1.991711 L 11.031196 2.030434 L 11.068403 2.069984 L 11.10561 2.109947 L 11.142817 2.150737 L 11.180024 2.19194 L 11.217369 2.233419 L 11.254576 2.275587 L 11.291783 2.317893 L 11.32899 2.360474 L 11.366197 2.402918 L 11.477818 2.531075 L 11.515163 2.573519 L 11.55237 2.615687 L 11.589577 2.657717 L 11.626784 2.699334 L 11.663991 2.740399 L 11.701198 2.781189 " transform="matrix(28.346457,0,0,-28.346457,1,256.11811)"/>
<path style="fill:none;stroke-width:0.05;stroke-linecap:butt;stroke-linejoin:miter;stroke:rgb(90%,57%,26%);stroke-opacity:1;stroke-dasharray:0.2,0.16;stroke-miterlimit:10;" d="M 0.645749 2.781189 L 0.682956 2.740124 L 0.720301 2.699334 L 0.757508 2.658682 L 0.794715 2.618305 L 0.831922 2.57848 L 0.869129 2.539068 L 0.906336 2.500896 L 0.943543 2.464929 L 0.98075 2.430065 L 1.018095 2.397268 L 1.055302 2.367227 L 1.092509 2.33939 L 1.129716 2.314172 L 1.166923 2.292399 L 1.20413 2.27352 L 1.241337 2.25781 L 1.278544 2.246097 L 1.315889 2.237829 L 1.353096 2.233281 L 1.390303 2.232868 L 1.42751 2.236313 L 1.464717 2.243617 L 1.501924 2.254916 L 1.539131 2.27035 L 1.576338 2.289643 L 1.613683 2.312656 L 1.65089 2.339666 L 1.688097 2.370258 L 1.725304 2.40402 L 1.762511 2.441503 L 1.799718 2.482017 L 1.836925 2.524874 L 1.874132 2.571038 L 1.911339 2.619408 L 1.948684 2.669017 L 1.985891 2.721245 L 2.023098 2.775126 L 2.060305 2.829283 L 2.097512 2.883715 L 2.134719 2.938561 L 2.209133 3.048529 L 2.246478 3.102134 L 2.283685 3.154086 L 2.320892 3.205212 L 2.358099 3.254132 L 2.395306 3.299745 L 2.432513 3.343291 L 2.46972 3.383668 L 2.506927 3.41991 L 2.544272 3.452707 L 2.581479 3.481508 L 2.618686 3.505348 L 2.655893 3.524779 L 2.6931 3.539386 L 2.730307 3.548343 L 2.767514 3.552202 L 2.804721 3.550824 L 2.841928 3.54352 L 2.879273 3.530566 L 2.91648 3.511963 L 2.953687 3.487709 L 2.990894 3.45753 L 3.028101 3.421977 L 3.065308 3.381049 L 3.102515 3.334334 L 3.139722 3.282657 L 3.177067 3.226433 L 3.214274 3.164973 L 3.251481 3.099378 L 3.288688 3.030339 L 3.325895 2.956889 L 3.363102 2.88027 L 3.400309 2.80186 L 3.437516 2.720004 L 3.474861 2.635806 L 3.512068 2.55147 L 3.549275 2.466997 L 3.586482 2.382247 L 3.623689 2.29736 L 3.660896 2.212611 L 3.698103 2.130066 L 3.73531 2.050553 L 3.772517 1.972694 L 3.809862 1.898418 L 3.847069 1.829378 L 3.884276 1.763784 L 3.921483 1.703426 L 3.95869 1.650095 L 3.995897 1.602002 L 4.033104 1.560799 L 4.070311 1.528001 L 4.107656 1.50237 L 4.144863 1.484869 L 4.18207 1.477152 L 4.219277 1.477979 L 4.256484 1.488176 L 4.293691 1.508847 L 4.330898 1.539301 L 4.368105 1.579816 L 4.40545 1.631216 L 4.442657 1.693228 L 4.479864 1.765713 L 4.517071 1.848809 L 4.554278 1.942929 L 4.591485 2.047384 L 4.628692 2.162037 L 4.6659 2.287438 L 4.703244 2.422624 L 4.740451 2.566766 L 4.777658 2.721107 L 4.814865 2.884266 L 4.852072 3.054868 L 4.88928 3.234564 L 4.926487 3.421426 L 4.963694 3.613938 L 5.000901 3.813891 L 5.038245 4.019219 L 5.075452 4.227716 L 5.11266 4.442001 L 5.149867 4.660144 L 5.187074 4.879115 L 5.224281 5.098912 L 5.261488 5.319949 L 5.298695 5.541675 L 5.336039 5.762713 L 5.373247 5.981132 L 5.410454 6.196519 L 5.447661 6.410115 L 5.484868 6.618888 L 5.522075 6.82077 L 5.559282 7.018105 L 5.596489 7.208688 L 5.633834 7.390038 L 5.671041 7.56436 L 5.708248 7.729724 L 5.745455 7.883789 L 5.782662 8.028483 L 5.819869 8.162291 L 5.857076 8.283282 L 5.894283 8.393112 L 5.93149 8.490401 L 5.968835 8.573635 L 6.006042 8.644191 L 6.043249 8.701104 L 6.080456 8.743685 L 6.117663 8.77221 L 6.15487 8.78668 L 6.192077 8.78668 L 6.229284 8.77221 L 6.266629 8.743685 L 6.303836 8.701104 L 6.341043 8.644191 L 6.37825 8.573635 L 6.415457 8.490401 L 6.452664 8.393112 L 6.489871 8.283282 L 6.527078 8.162291 L 6.564423 8.028483 L 6.60163 7.883789 L 6.638837 7.729724 L 6.676044 7.56436 L 6.713251 7.390038 L 6.750458 7.208688 L 6.787665 7.018105 L 6.824872 6.82077 L 6.862079 6.618888 L 6.899424 6.410115 L 6.936631 6.196519 L 6.973838 5.981132 L 7.011045 5.762713 L 7.048252 5.541675 L 7.085459 5.319949 L 7.122666 5.098912 L 7.159873 4.879115 L 7.197218 4.660144 L 7.234425 4.442001 L 7.271632 4.227716 L 7.308839 4.019219 L 7.346046 3.813891 L 7.383253 3.613938 L 7.42046 3.421426 L 7.457667 3.234564 L 7.495012 3.054868 L 7.532219 2.884266 L 7.569426 2.721107 L 7.606633 2.566766 L 7.64384 2.422624 L 7.681047 2.287438 L 7.718254 2.162037 L 7.755461 2.047384 L 7.792806 1.942929 L 7.830013 1.848809 L 7.86722 1.765713 L 7.904427 1.693228 L 7.941634 1.631216 L 7.978841 1.579816 L 8.016048 1.539301 L 8.053255 1.508847 L 8.090462 1.488176 L 8.127807 1.477979 L 8.165014 1.477152 L 8.202221 1.484869 L 8.239428 1.50237 L 8.276635 1.528001 L 8.313842 1.560799 L 8.351049 1.602002 L 8.388256 1.650095 L 8.425601 1.703426 L 8.462808 1.763784 L 8.500015 1.829378 L 8.537222 1.898418 L 8.574429 1.972694 L 8.611636 2.050553 L 8.648843 2.130066 L 8.68605 2.212611 L 8.723395 2.29736 L 8.760602 2.382247 L 8.797809 2.466997 L 8.835016 2.55147 L 8.872223 2.635806 L 8.90943 2.720004 L 8.946637 2.80186 L 8.983844 2.88027 L 9.021051 2.956889 L 9.058396 3.030339 L 9.095603 3.099378 L 9.13281 3.164973 L 9.170017 3.226433 L 9.207224 3.282657 L 9.244431 3.334334 L 9.281638 3.381049 L 9.318845 3.421977 L 9.35619 3.45753 L 9.393397 3.487709 L 9.430604 3.511963 L 9.467811 3.530566 L 9.505018 3.54352 L 9.542225 3.550824 L 9.579433 3.552202 L 9.61664 3.548343 L 9.653984 3.539386 L 9.691191 3.524779 L 9.728398 3.505348 L 9.765605 3.481508 L 9.802812 3.452707 L 9.84002 3.41991 L 9.877227 3.383668 L 9.914434 3.343291 L 9.951641 3.299745 L 9.988985 3.254132 L 10.026192 3.205212 L 10.0634 3.154086 L 10.100607 3.102134 L 10.137814 3.048529 L 10.212228 2.938561 L 10.249435 2.883715 L 10.28678 2.829283 L 10.323987 2.775126 L 10.361194 2.721245 L 10.398401 2.669017 L 10.435608 2.619408 L 10.472815 2.571038 L 10.510022 2.524874 L 10.547229 2.482017 L 10.584574 2.441503 L 10.621781 2.40402 L 10.658988 2.370258 L 10.696195 2.339666 L 10.733402 2.312656 L 10.770609 2.289643 L 10.807816 2.27035 L 10.845023 2.254916 L 10.882368 2.243617 L 10.919575 2.236313 L 10.956782 2.232868 L 10.993989 2.233281 L 11.031196 2.237829 L 11.068403 2.246097 L 11.10561 2.25781 L 11.142817 2.27352 L 11.180024 2.292399 L 11.217369 2.314172 L 11.254576 2.33939 L 11.291783 2.367227 L 11.32899 2.397268 L 11.366197 2.430065 L 11.403404 2.464929 L 11.440611 2.500896 L 11.477818 2.539068 L 11.515163 2.57848 L 11.55237 2.618305 L 11.589577 2.658682 L 11.626784 2.699334 L 11.663991 2.740124 L 11.701198 2.781189 " transform="matrix(28.346457,0,0,-28.346457,1,256.11811)"/>
<path style="fill:none;stroke-width:0.05;stroke-linecap:butt;stroke-linejoin:miter;stroke:rgb(82%,37%,36%);stroke-opacity:1;stroke-dasharray:0.16,0.04,0.04,0.16;stroke-miterlimit:10;" d="M 0.645749 2.781189 L 0.682956 2.73971 L 0.720301 2.699609 L 0.757508 2.660335 L 0.794715 2.622439 L 0.831922 2.586472 L 0.869129 2.552021 L 0.906336 2.521153 L 0.943543 2.495246 L 0.98075 2.472646 L 1.018095 2.454456 L 1.055302 2.442192 L 1.092509 2.434888 L 1.129716 2.432821 L 1.166923 2.436542 L 1.20413 2.446188 L 1.241337 2.461071 L 1.278544 2.48119 L 1.315889 2.507097 L 1.353096 2.53769 L 1.390303 2.571865 L 1.42751 2.611139 L 1.464717 2.654134 L 1.501924 2.698645 L 1.539131 2.745085 L 1.576338 2.793454 L 1.613683 2.842512 L 1.65089 2.891019 L 1.688097 2.937872 L 1.725304 2.983485 L 1.762511 3.028134 L 1.799718 3.068924 L 1.836925 3.104201 L 1.874132 3.136034 L 1.911339 3.163044 L 1.948684 3.183025 L 1.985891 3.197632 L 2.023098 3.206038 L 2.060305 3.207141 L 2.097512 3.201215 L 2.134719 3.188813 L 2.171926 3.169796 L 2.209133 3.1432 L 2.246478 3.110678 L 2.283685 3.073058 L 2.320892 3.028409 L 2.358099 2.979213 L 2.395306 2.927261 L 2.432513 2.870348 L 2.46972 2.810128 L 2.506927 2.749632 L 2.544272 2.689412 L 2.581479 2.629467 L 2.618686 2.569798 L 2.655893 2.510543 L 2.6931 2.455145 L 2.730307 2.405812 L 2.767514 2.359923 L 2.804721 2.319546 L 2.841928 2.287438 L 2.879273 2.261531 L 2.91648 2.243065 L 2.953687 2.234108 L 2.990894 2.233419 L 3.028101 2.240998 L 3.065308 2.257948 L 3.102515 2.284406 L 3.139722 2.319133 L 3.177067 2.361439 L 3.214274 2.413253 L 3.251481 2.47182 L 3.288688 2.535347 L 3.325895 2.607005 L 3.363102 2.684038 L 3.400309 2.762448 L 3.437516 2.842374 L 3.474861 2.92423 L 3.512068 3.006912 L 3.549275 3.088767 L 3.586482 3.166902 L 3.623689 3.240352 L 3.660896 3.311045 L 3.698103 3.37471 L 3.73531 3.428178 L 3.772517 3.474618 L 3.809862 3.511687 L 3.847069 3.535941 L 3.884276 3.549859 L 3.921483 3.552339 L 3.95869 3.541177 L 3.995897 3.517062 L 4.033104 3.480957 L 4.070311 3.432174 L 4.107656 3.369612 L 4.144863 3.296024 L 4.18207 3.212515 L 4.219277 3.11619 L 4.256484 3.011046 L 4.293691 2.900665 L 4.330898 2.781189 L 4.368105 2.655374 L 4.40545 2.52887 L 4.442657 2.402918 L 4.479864 2.278067 L 4.517071 2.153906 L 4.554278 2.030434 L 4.591485 1.915643 L 4.628692 1.813531 L 4.6659 1.718308 L 4.703244 1.635626 L 4.740451 1.571547 L 4.777658 1.520698 L 4.814865 1.487349 L 4.852072 1.476738 L 4.88928 1.485007 L 4.926487 1.514359 L 4.963694 1.568653 L 5.000901 1.645824 L 5.038245 1.746007 L 5.075452 1.870582 L 5.11266 2.020374 L 5.149867 2.192491 L 5.187074 2.386381 L 5.224281 2.6048 L 5.261488 2.843063 L 5.298695 3.097449 L 5.336039 3.373746 L 5.373247 3.664787 L 5.410454 3.964786 L 5.447661 4.281459 L 5.484868 4.609019 L 5.522075 4.936992 L 5.559282 5.265103 L 5.596489 5.593765 L 5.633834 5.922565 L 5.671041 6.251089 L 5.708248 6.568452 L 5.745455 6.869277 L 5.782662 7.161284 L 5.819869 7.436891 L 5.857076 7.687694 L 5.894283 7.921134 L 5.93149 8.131423 L 5.968835 8.31167 L 6.006042 8.466975 L 6.043249 8.594168 L 6.080456 8.688288 L 6.117663 8.752091 L 6.15487 8.785164 L 6.192077 8.785164 L 6.229284 8.752091 L 6.266629 8.688288 L 6.303836 8.594168 L 6.341043 8.466975 L 6.37825 8.31167 L 6.415457 8.131423 L 6.452664 7.921134 L 6.489871 7.687694 L 6.527078 7.436891 L 6.564423 7.161284 L 6.60163 6.869277 L 6.638837 6.568452 L 6.676044 6.251089 L 6.713251 5.922565 L 6.750458 5.593765 L 6.787665 5.265103 L 6.824872 4.936992 L 6.862079 4.609019 L 6.899424 4.281459 L 6.936631 3.964786 L 6.973838 3.664787 L 7.011045 3.373746 L 7.048252 3.097449 L 7.085459 2.843063 L 7.122666 2.6048 L 7.159873 2.386381 L 7.197218 2.192491 L 7.234425 2.020374 L 7.271632 1.870582 L 7.308839 1.746007 L 7.346046 1.645824 L 7.383253 1.568653 L 7.42046 1.514359 L 7.457667 1.485007 L 7.495012 1.476738 L 7.532219 1.487349 L 7.569426 1.520698 L 7.606633 1.571547 L 7.64384 1.635626 L 7.681047 1.718308 L 7.718254 1.813531 L 7.755461 1.915643 L 7.792806 2.030434 L 7.830013 2.153906 L 7.86722 2.278067 L 7.904427 2.402918 L 7.941634 2.52887 L 7.978841 2.655374 L 8.016048 2.781189 L 8.053255 2.900665 L 8.090462 3.011046 L 8.127807 3.11619 L 8.165014 3.212515 L 8.202221 3.296024 L 8.239428 3.369612 L 8.276635 3.432174 L 8.313842 3.480957 L 8.351049 3.517062 L 8.388256 3.541177 L 8.425601 3.552339 L 8.462808 3.549859 L 8.500015 3.535941 L 8.537222 3.511687 L 8.574429 3.474618 L 8.611636 3.428178 L 8.648843 3.37471 L 8.68605 3.311045 L 8.723395 3.240352 L 8.760602 3.166902 L 8.797809 3.088767 L 8.835016 3.006912 L 8.872223 2.92423 L 8.90943 2.842374 L 8.946637 2.762448 L 8.983844 2.684038 L 9.021051 2.607005 L 9.058396 2.535347 L 9.095603 2.47182 L 9.13281 2.413253 L 9.170017 2.361439 L 9.207224 2.319133 L 9.244431 2.284406 L 9.281638 2.257948 L 9.318845 2.240998 L 9.35619 2.233419 L 9.393397 2.234108 L 9.430604 2.243065 L 9.467811 2.261531 L 9.505018 2.287438 L 9.542225 2.319546 L 9.579433 2.359923 L 9.61664 2.405812 L 9.653984 2.455145 L 9.691191 2.510543 L 9.728398 2.569798 L 9.765605 2.629467 L 9.802812 2.689412 L 9.84002 2.749632 L 9.877227 2.810128 L 9.914434 2.870348 L 9.951641 2.927261 L 9.988985 2.979213 L 10.026192 3.028409 L 10.0634 3.073058 L 10.100607 3.110678 L 10.137814 3.1432 L 10.175021 3.169796 L 10.212228 3.188813 L 10.249435 3.201215 L 10.28678 3.207141 L 10.323987 3.206038 L 10.361194 3.197632 L 10.398401 3.183025 L 10.435608 3.163044 L 10.472815 3.136034 L 10.510022 3.104201 L 10.547229 3.068924 L 10.584574 3.028134 L 10.621781 2.983485 L 10.658988 2.937872 L 10.696195 2.891019 L 10.733402 2.842512 L 10.770609 2.793454 L 10.807816 2.745085 L 10.845023 2.698645 L 10.882368 2.654134 L 10.919575 2.611139 L 10.956782 2.571865 L 10.993989 2.53769 L 11.031196 2.507097 L 11.068403 2.48119 L 11.10561 2.461071 L 11.142817 2.446188 L 11.180024 2.436542 L 11.217369 2.432821 L 11.254576 2.434888 L 11.291783 2.442192 L 11.32899 2.454456 L 11.366197 2.472646 L 11.403404 2.495246 L 11.440611 2.521153 L 11.477818 2.552021 L 11.515163 2.586472 L 11.55237 2.622439 L 11.589577 2.660335 L 11.626784 2.699609 L 11.663991 2.73971 L 11.701198 2.781189 " transform="matrix(28.346457,0,0,-28.346457,1,256.11811)"/>
</g>
</svg>
