<?xml version="1.0" encoding="UTF-8"?>
<svg xmlns="http://www.w3.org/2000/svg" xmlns:xlink="http://www.w3.org/1999/xlink" width="342.15748pt" height="257.11811pt" viewBox="0 0 342.15748 257.11811" version="1.1">
<g id="surface1">
<path style="fill:none;stroke-width:0.02;stroke-linecap:butt;stroke-linejoin:miter;stroke:rgb(0%,0%,0%);stroke-opacity:1;stroke-miterlimit:10;" d="M 0.993979 1.777288 L 1.144047 1.777288 " transform="matrix(28.346457,0,0,-28.346457,1,256.11811)"/>
<path style="fill:none;stroke-width:0.02;stroke-linecap:butt;stroke-linejoin:miter;stroke:rgb(0%,0%,0%);stroke-opacity:1;stroke-miterlimit:10;" d="M 0.993979 2.942558 L 1.144047 2.942558 " transform="matrix(28.346457,0,0,-28.346457,1,256.11811)"/>
<path style="fill:none;stroke-width:0.02;stroke-linecap:butt;stroke-linejoin:miter;stroke:rgb(0%,0%,0%);stroke-opacity:1;stroke-miterlimit:10;" d="M 0.993979 4.107827 L 1.144047 4.107827 " transform="matrix(28.346457,0,0,-28.346457,1,256.11811)"/>
<path style="fill:none;stroke-width:0.02;stroke-linecap:butt;stroke-linejoin:miter;stroke:rgb(0%,0%,0%);stroke-opacity:1;stroke-miterlimit:10;" d="M 0.993979 5.273096 L 1.144047 5.273096 " transform="matrix(28.346457,0,0,-28.346457,1,256.11811)"/>
<path style="fill:none;stroke-width:0.02;stroke-linecap:butt;stroke-linejoin:miter;stroke:rgb(0%,0%,0%);stroke-opacity:1;stroke-miterlimit:10;" d="M 0.993979 6.438365 L 1.144047 6.438365 " transform="matrix(28.346457,0,0,-28.346457,1,256.11811)"/>
<path style="fill:none;stroke-width:0.02;stroke-linecap:butt;stroke-linejoin:miter;stroke:rgb(0%,0%,0%);stroke-opacity:1;stroke-miterlimit:10;" d="M 0.993979 7.603772 L 1.144047 7.603772 " transform="matrix(28.346457,0,0,-28.346457,1,256.11811)"/>
<path style="fill:none;stroke-width:0.02;stroke-linecap:round;stroke-linejoin:miter;stroke:rgb(0%,0%,0%);stroke-opacity:1;stroke-miterlimit:10;" d="M 0.993979 0.612019 L 0.993979 8.769041 " transform="matrix(28.346457,0,0,-28.346457,1,256.11811)"/>
<path style=" stroke:none;fill-rule:nonzero;fill:rgb(0%,0%,0%);fill-opacity:1;" d="M 6.941406 239.683594 L 6.941406 240.316406 L 3.972656 240.316406 L 3.972656 239.683594 Z M 6.941406 239.683594 Z M 6.941406 239.683594 "/>
<path style=" stroke:none;fill-rule:nonzero;fill:rgb(0%,0%,0%);fill-opacity:1;" d="M 10.636719 234.851562 C 11.714844 234.933594 12.429688 235.917969 12.621094 236.917969 C 12.722656 237.371094 12.746094 237.800781 12.792969 238.253906 L 12.792969 239.410156 C 12.734375 240.589844 12.453125 242.144531 11.171875 242.621094 C 10.058594 243.0625 8.753906 242.371094 8.425781 241.234375 C 8.175781 240.636719 8.15625 240.023438 8.097656 239.410156 L 8.097656 238.253906 C 8.15625 237.074219 8.402344 235.511719 9.675781 234.988281 L 9.730469 234.964844 L 9.777344 234.953125 L 9.832031 234.933594 L 10.003906 234.886719 L 10.105469 234.863281 L 10.230469 234.863281 L 10.253906 234.851562 Z M 10.636719 234.851562 Z M 10.285156 235.542969 C 9.332031 235.65625 9.050781 236.804688 8.980469 237.574219 L 8.980469 237.878906 L 8.960938 237.902344 L 8.960938 239.480469 C 9.027344 240.296875 9.085938 241.347656 9.832031 241.894531 C 10.523438 242.371094 11.441406 241.835938 11.636719 241.101562 C 11.839844 240.554688 11.886719 240.023438 11.929688 239.480469 L 11.929688 237.902344 C 11.863281 237.074219 11.75 235.917969 10.796875 235.589844 L 10.71875 235.566406 L 10.695312 235.542969 L 10.59375 235.542969 L 10.570312 235.523438 L 10.308594 235.523438 Z M 10.285156 235.542969 Z M 10.285156 235.542969 "/>
<path style=" stroke:none;fill-rule:nonzero;fill:rgb(0%,0%,0%);fill-opacity:1;" d="M 15.320312 241.585938 L 15.320312 242.496094 L 14.402344 242.496094 L 14.402344 241.585938 Z M 15.320312 241.585938 Z M 15.320312 241.585938 "/>
<path style=" stroke:none;fill-rule:nonzero;fill:rgb(0%,0%,0%);fill-opacity:1;" d="M 20.617188 235.089844 L 20.617188 239.863281 L 20.636719 239.886719 L 21.761719 239.886719 L 21.761719 240.566406 L 20.636719 240.566406 L 20.617188 240.578125 L 20.617188 242.496094 L 19.753906 242.496094 L 19.753906 240.578125 L 19.730469 240.566406 L 16.738281 240.566406 L 16.738281 239.863281 C 17.691406 238.277344 18.644531 236.679688 19.59375 235.089844 Z M 20.617188 235.089844 Z M 19.777344 235.523438 C 19.550781 236.699219 18.824219 237.710938 18.28125 238.742188 C 18.066406 239.117188 17.78125 239.523438 17.621094 239.886719 L 19.800781 239.886719 L 19.8125 239.863281 L 19.8125 235.523438 L 19.800781 235.5 Z M 19.777344 235.523438 Z M 19.777344 235.523438 "/>
<path style=" stroke:none;fill-rule:nonzero;fill:rgb(0%,0%,0%);fill-opacity:1;" d="M 6.941406 206.652344 L 6.941406 207.285156 L 3.972656 207.285156 L 3.972656 206.652344 Z M 6.941406 206.652344 Z M 6.941406 206.652344 "/>
<path style=" stroke:none;fill-rule:nonzero;fill:rgb(0%,0%,0%);fill-opacity:1;" d="M 10.636719 201.820312 C 11.714844 201.898438 12.429688 202.886719 12.621094 203.882812 C 12.722656 204.339844 12.746094 204.769531 12.792969 205.222656 L 12.792969 206.378906 C 12.734375 207.558594 12.453125 209.113281 11.171875 209.585938 C 10.058594 210.03125 8.753906 209.339844 8.425781 208.203125 C 8.175781 207.605469 8.15625 206.992188 8.097656 206.378906 L 8.097656 205.222656 C 8.15625 204.042969 8.402344 202.476562 9.675781 201.957031 L 9.730469 201.933594 L 9.777344 201.921875 L 9.832031 201.898438 L 10.003906 201.855469 L 10.105469 201.832031 L 10.230469 201.832031 L 10.253906 201.820312 Z M 10.636719 201.820312 Z M 10.285156 202.511719 C 9.332031 202.625 9.050781 203.769531 8.980469 204.542969 L 8.980469 204.847656 L 8.960938 204.871094 L 8.960938 206.445312 C 9.027344 207.261719 9.085938 208.316406 9.832031 208.863281 C 10.523438 209.339844 11.441406 208.804688 11.636719 208.070312 C 11.839844 207.523438 11.886719 206.992188 11.929688 206.445312 L 11.929688 204.871094 C 11.863281 204.042969 11.75 202.886719 10.796875 202.558594 L 10.71875 202.535156 L 10.695312 202.511719 L 10.59375 202.511719 L 10.570312 202.488281 L 10.308594 202.488281 Z M 10.285156 202.511719 Z M 10.285156 202.511719 "/>
<path style=" stroke:none;fill-rule:nonzero;fill:rgb(0%,0%,0%);fill-opacity:1;" d="M 15.320312 208.554688 L 15.320312 209.464844 L 14.402344 209.464844 L 14.402344 208.554688 Z M 15.320312 208.554688 Z M 15.320312 208.554688 "/>
<path style=" stroke:none;fill-rule:nonzero;fill:rgb(0%,0%,0%);fill-opacity:1;" d="M 19.324219 201.820312 C 20.636719 201.855469 21.679688 203.203125 21.476562 204.472656 C 21.339844 205.742188 20.152344 206.46875 19.300781 207.261719 L 18.9375 207.636719 L 18.890625 207.660156 L 18.4375 208.101562 L 18.40625 208.125 L 17.953125 208.578125 L 17.90625 208.601562 L 17.804688 208.703125 L 17.828125 208.714844 L 21.5 208.714844 L 21.5 209.464844 L 17.011719 209.464844 L 17.011719 208.78125 L 18.835938 206.957031 C 19.707031 206.199219 20.730469 205.210938 20.570312 203.964844 C 20.480469 203.238281 19.867188 202.570312 19.117188 202.511719 C 18.359375 202.398438 17.691406 203 17.519531 203.726562 L 17.496094 203.761719 L 17.476562 203.839844 L 17.371094 204.214844 L 17.363281 204.269531 C 17.203125 204.078125 17.03125 203.875 16.90625 203.65625 C 17.136719 202.726562 17.882812 201.855469 18.871094 201.820312 Z M 19.324219 201.820312 Z M 19.324219 201.820312 "/>
<path style=" stroke:none;fill-rule:nonzero;fill:rgb(0%,0%,0%);fill-opacity:1;" d="M 10.636719 168.789062 C 11.714844 168.867188 12.429688 169.855469 12.621094 170.851562 C 12.722656 171.304688 12.746094 171.738281 12.792969 172.191406 L 12.792969 173.347656 C 12.734375 174.527344 12.453125 176.078125 11.171875 176.554688 C 10.058594 177 8.753906 176.304688 8.425781 175.171875 C 8.175781 174.570312 8.15625 173.960938 8.097656 173.347656 L 8.097656 172.191406 C 8.15625 171.011719 8.402344 169.445312 9.675781 168.925781 L 9.730469 168.902344 L 9.777344 168.890625 L 9.832031 168.867188 L 10.003906 168.824219 L 10.105469 168.800781 L 10.230469 168.800781 L 10.253906 168.789062 Z M 10.636719 168.789062 Z M 10.285156 169.480469 C 9.332031 169.59375 9.050781 170.738281 8.980469 171.511719 L 8.980469 171.816406 L 8.960938 171.839844 L 8.960938 173.414062 C 9.027344 174.230469 9.085938 175.285156 9.832031 175.832031 C 10.523438 176.304688 11.441406 175.773438 11.636719 175.035156 C 11.839844 174.492188 11.886719 173.960938 11.929688 173.414062 L 11.929688 171.839844 C 11.863281 171.011719 11.75 169.855469 10.796875 169.527344 L 10.71875 169.503906 L 10.695312 169.480469 L 10.59375 169.480469 L 10.570312 169.457031 L 10.308594 169.457031 Z M 10.285156 169.480469 Z M 10.285156 169.480469 "/>
<path style=" stroke:none;fill-rule:nonzero;fill:rgb(0%,0%,0%);fill-opacity:1;" d="M 15.320312 175.523438 L 15.320312 176.429688 L 14.402344 176.429688 L 14.402344 175.523438 Z M 15.320312 175.523438 Z M 15.320312 175.523438 "/>
<path style=" stroke:none;fill-rule:nonzero;fill:rgb(0%,0%,0%);fill-opacity:1;" d="M 19.449219 168.789062 C 20.523438 168.867188 21.238281 169.855469 21.433594 170.851562 C 21.535156 171.304688 21.558594 171.738281 21.601562 172.191406 L 21.601562 173.347656 C 21.546875 174.527344 21.261719 176.078125 19.980469 176.554688 C 18.871094 177 17.566406 176.304688 17.238281 175.171875 C 16.988281 174.570312 16.964844 173.960938 16.90625 173.347656 L 16.90625 172.191406 C 16.964844 171.011719 17.214844 169.445312 18.484375 168.925781 L 18.539062 168.902344 L 18.585938 168.890625 L 18.644531 168.867188 L 18.8125 168.824219 L 18.914062 168.800781 L 19.039062 168.800781 L 19.0625 168.789062 Z M 19.449219 168.789062 Z M 19.097656 169.480469 C 18.144531 169.59375 17.859375 170.738281 17.792969 171.511719 L 17.792969 171.816406 L 17.769531 171.839844 L 17.769531 173.414062 C 17.835938 174.230469 17.894531 175.285156 18.644531 175.832031 C 19.335938 176.304688 20.253906 175.773438 20.445312 175.035156 C 20.648438 174.492188 20.695312 173.960938 20.742188 173.414062 L 20.742188 171.839844 C 20.671875 171.011719 20.558594 169.855469 19.605469 169.527344 L 19.527344 169.503906 L 19.503906 169.480469 L 19.402344 169.480469 L 19.378906 169.457031 L 19.117188 169.457031 Z M 19.097656 169.480469 Z M 19.097656 169.480469 "/>
<path style=" stroke:none;fill-rule:nonzero;fill:rgb(0%,0%,0%);fill-opacity:1;" d="M 10.636719 135.757812 C 11.714844 135.835938 12.429688 136.824219 12.621094 137.820312 C 12.722656 138.273438 12.746094 138.707031 12.792969 139.160156 L 12.792969 140.316406 C 12.734375 141.496094 12.453125 143.046875 11.171875 143.523438 C 10.058594 143.964844 8.753906 143.273438 8.425781 142.140625 C 8.175781 141.539062 8.15625 140.929688 8.097656 140.316406 L 8.097656 139.160156 C 8.15625 137.980469 8.402344 136.414062 9.675781 135.894531 L 9.730469 135.871094 L 9.777344 135.859375 L 9.832031 135.835938 L 10.003906 135.792969 L 10.105469 135.769531 L 10.230469 135.769531 L 10.253906 135.757812 Z M 10.636719 135.757812 Z M 10.285156 136.449219 C 9.332031 136.5625 9.050781 137.707031 8.980469 138.480469 L 8.980469 138.785156 L 8.960938 138.808594 L 8.960938 140.382812 C 9.027344 141.199219 9.085938 142.253906 9.832031 142.796875 C 10.523438 143.273438 11.441406 142.742188 11.636719 142.003906 C 11.839844 141.460938 11.886719 140.929688 11.929688 140.382812 L 11.929688 138.808594 C 11.863281 137.980469 11.75 136.824219 10.796875 136.496094 L 10.71875 136.472656 L 10.695312 136.449219 L 10.59375 136.449219 L 10.570312 136.425781 L 10.308594 136.425781 Z M 10.285156 136.449219 Z M 10.285156 136.449219 "/>
<path style=" stroke:none;fill-rule:nonzero;fill:rgb(0%,0%,0%);fill-opacity:1;" d="M 15.320312 142.492188 L 15.320312 143.398438 L 14.402344 143.398438 L 14.402344 142.492188 Z M 15.320312 142.492188 Z M 15.320312 142.492188 "/>
<path style=" stroke:none;fill-rule:nonzero;fill:rgb(0%,0%,0%);fill-opacity:1;" d="M 19.324219 135.757812 C 20.636719 135.792969 21.679688 137.140625 21.476562 138.410156 C 21.339844 139.679688 20.152344 140.40625 19.300781 141.199219 L 18.9375 141.574219 L 18.890625 141.597656 L 18.4375 142.039062 L 18.40625 142.0625 L 17.953125 142.515625 L 17.90625 142.539062 L 17.804688 142.640625 L 17.828125 142.652344 L 21.5 142.652344 L 21.5 143.398438 L 17.011719 143.398438 L 17.011719 142.71875 L 18.835938 140.894531 C 19.707031 140.132812 20.730469 139.148438 20.570312 137.902344 C 20.480469 137.175781 19.867188 136.503906 19.117188 136.449219 C 18.359375 136.335938 17.691406 136.9375 17.519531 137.664062 L 17.496094 137.695312 L 17.476562 137.777344 L 17.441406 137.902344 L 17.371094 138.148438 L 17.363281 138.207031 C 17.203125 138.015625 17.03125 137.808594 16.90625 137.59375 C 17.136719 136.664062 17.882812 135.792969 18.871094 135.757812 Z M 19.324219 135.757812 Z M 19.324219 135.757812 "/>
<path style=" stroke:none;fill-rule:nonzero;fill:rgb(0%,0%,0%);fill-opacity:1;" d="M 10.636719 102.726562 C 11.714844 102.804688 12.429688 103.792969 12.621094 104.789062 C 12.722656 105.242188 12.746094 105.671875 12.792969 106.128906 L 12.792969 107.285156 C 12.734375 108.464844 12.453125 110.015625 11.171875 110.492188 C 10.058594 110.933594 8.753906 110.242188 8.425781 109.109375 C 8.175781 108.507812 8.15625 107.894531 8.097656 107.285156 L 8.097656 106.128906 C 8.15625 104.949219 8.402344 103.382812 9.675781 102.863281 L 9.730469 102.839844 L 9.777344 102.828125 L 9.832031 102.804688 L 10.003906 102.757812 L 10.105469 102.738281 L 10.230469 102.738281 L 10.253906 102.726562 Z M 10.636719 102.726562 Z M 10.285156 103.417969 C 9.332031 103.53125 9.050781 104.675781 8.980469 105.445312 L 8.980469 105.753906 L 8.960938 105.777344 L 8.960938 107.351562 C 9.027344 108.167969 9.085938 109.222656 9.832031 109.765625 C 10.523438 110.242188 11.441406 109.710938 11.636719 108.972656 C 11.839844 108.429688 11.886719 107.894531 11.929688 107.351562 L 11.929688 105.777344 C 11.863281 104.949219 11.75 103.792969 10.796875 103.460938 L 10.71875 103.441406 L 10.695312 103.417969 L 10.59375 103.417969 L 10.570312 103.394531 L 10.308594 103.394531 Z M 10.285156 103.417969 Z M 10.285156 103.417969 "/>
<path style=" stroke:none;fill-rule:nonzero;fill:rgb(0%,0%,0%);fill-opacity:1;" d="M 15.320312 109.460938 L 15.320312 110.367188 L 14.402344 110.367188 L 14.402344 109.460938 Z M 15.320312 109.460938 Z M 15.320312 109.460938 "/>
<path style=" stroke:none;fill-rule:nonzero;fill:rgb(0%,0%,0%);fill-opacity:1;" d="M 20.617188 102.964844 L 20.617188 107.738281 L 20.636719 107.761719 L 21.761719 107.761719 L 21.761719 108.441406 L 20.636719 108.441406 L 20.617188 108.453125 L 20.617188 110.367188 L 19.753906 110.367188 L 19.753906 108.453125 L 19.730469 108.441406 L 16.738281 108.441406 L 16.738281 107.738281 C 17.691406 106.148438 18.644531 104.550781 19.59375 102.964844 Z M 20.617188 102.964844 Z M 19.777344 103.394531 C 19.550781 104.574219 18.824219 105.582031 18.28125 106.613281 C 18.066406 106.988281 17.78125 107.398438 17.621094 107.761719 L 19.800781 107.761719 L 19.8125 107.738281 L 19.8125 103.394531 L 19.800781 103.371094 Z M 19.777344 103.394531 Z M 19.777344 103.394531 "/>
<path style=" stroke:none;fill-rule:nonzero;fill:rgb(0%,0%,0%);fill-opacity:1;" d="M 10.636719 69.695312 C 11.714844 69.773438 12.429688 70.761719 12.621094 71.757812 C 12.722656 72.210938 12.746094 72.640625 12.792969 73.09375 L 12.792969 74.253906 C 12.734375 75.429688 12.453125 76.984375 11.171875 77.460938 C 10.058594 77.902344 8.753906 77.210938 8.425781 76.078125 C 8.175781 75.476562 8.15625 74.863281 8.097656 74.253906 L 8.097656 73.09375 C 8.15625 71.917969 8.402344 70.351562 9.675781 69.828125 L 9.730469 69.808594 L 9.777344 69.796875 L 9.832031 69.773438 L 10.003906 69.726562 L 10.105469 69.707031 L 10.230469 69.707031 L 10.253906 69.695312 Z M 10.636719 69.695312 Z M 10.285156 70.386719 C 9.332031 70.5 9.050781 71.644531 8.980469 72.414062 L 8.980469 72.722656 L 8.960938 72.742188 L 8.960938 74.320312 C 9.027344 75.136719 9.085938 76.191406 9.832031 76.734375 C 10.523438 77.210938 11.441406 76.679688 11.636719 75.941406 C 11.839844 75.398438 11.886719 74.863281 11.929688 74.320312 L 11.929688 72.742188 C 11.863281 71.917969 11.75 70.761719 10.796875 70.429688 L 10.71875 70.410156 L 10.695312 70.386719 L 10.59375 70.386719 L 10.570312 70.363281 L 10.308594 70.363281 Z M 10.285156 70.386719 Z M 10.285156 70.386719 "/>
<path style=" stroke:none;fill-rule:nonzero;fill:rgb(0%,0%,0%);fill-opacity:1;" d="M 15.320312 76.429688 L 15.320312 77.335938 L 14.402344 77.335938 L 14.402344 76.429688 Z M 15.320312 76.429688 Z M 15.320312 76.429688 "/>
<path style=" stroke:none;fill-rule:nonzero;fill:rgb(0%,0%,0%);fill-opacity:1;" d="M 20.183594 69.695312 C 20.480469 69.738281 20.820312 69.773438 21.101562 69.910156 L 21.101562 70.566406 C 20.320312 70.226562 19.300781 70.179688 18.6875 70.875 C 18.144531 71.453125 17.894531 72.3125 17.871094 73.074219 C 18.53125 72.199219 20.015625 71.710938 20.820312 72.621094 C 21.625 73.550781 21.761719 74.886719 21.398438 76.019531 C 21 76.929688 20.082031 77.753906 19.0625 77.5625 C 17.679688 77.449219 17.054688 75.90625 16.988281 74.726562 C 16.726562 73.0625 17.125 70.964844 18.710938 70.011719 L 18.734375 70 L 18.972656 69.875 L 19.039062 69.851562 L 19.074219 69.828125 L 19.265625 69.773438 L 19.425781 69.726562 L 19.527344 69.707031 L 19.652344 69.707031 L 19.675781 69.695312 Z M 20.183594 69.695312 Z M 19.074219 72.847656 C 18.085938 73.015625 17.769531 74.207031 17.894531 75.011719 C 17.953125 75.769531 18.246094 76.78125 19.117188 76.9375 C 20.046875 77.0625 20.648438 76.066406 20.671875 75.261719 C 20.71875 74.445312 20.671875 73.515625 19.957031 72.980469 L 19.800781 72.902344 L 19.675781 72.867188 L 19.574219 72.847656 L 19.550781 72.824219 L 19.097656 72.824219 Z M 19.074219 72.847656 Z M 19.074219 72.847656 "/>
<path style=" stroke:none;fill-rule:nonzero;fill:rgb(0%,0%,0%);fill-opacity:1;" d="M 10.636719 36.664062 C 11.714844 36.742188 12.429688 37.726562 12.621094 38.726562 C 12.722656 39.179688 12.746094 39.609375 12.792969 40.0625 L 12.792969 41.21875 C 12.734375 42.398438 12.453125 43.953125 11.171875 44.429688 C 10.058594 44.871094 8.753906 44.179688 8.425781 43.046875 C 8.175781 42.445312 8.15625 41.832031 8.097656 41.21875 L 8.097656 40.0625 C 8.15625 38.882812 8.402344 37.320312 9.675781 36.796875 L 9.730469 36.777344 L 9.777344 36.765625 L 9.832031 36.742188 L 10.003906 36.695312 L 10.105469 36.671875 L 10.230469 36.671875 L 10.253906 36.664062 Z M 10.636719 36.664062 Z M 10.285156 37.355469 C 9.332031 37.46875 9.050781 38.613281 8.980469 39.382812 L 8.980469 39.691406 L 8.960938 39.710938 L 8.960938 41.289062 C 9.027344 42.105469 9.085938 43.160156 9.832031 43.703125 C 10.523438 44.179688 11.441406 43.648438 11.636719 42.910156 C 11.839844 42.367188 11.886719 41.832031 11.929688 41.289062 L 11.929688 39.710938 C 11.863281 38.882812 11.75 37.726562 10.796875 37.398438 L 10.71875 37.375 L 10.695312 37.355469 L 10.59375 37.355469 L 10.570312 37.332031 L 10.308594 37.332031 Z M 10.285156 37.355469 Z M 10.285156 37.355469 "/>
<path style=" stroke:none;fill-rule:nonzero;fill:rgb(0%,0%,0%);fill-opacity:1;" d="M 15.320312 43.398438 L 15.320312 44.304688 L 14.402344 44.304688 L 14.402344 43.398438 Z M 15.320312 43.398438 Z M 15.320312 43.398438 "/>
<path style=" stroke:none;fill-rule:nonzero;fill:rgb(0%,0%,0%);fill-opacity:1;" d="M 19.46875 36.664062 C 20.671875 36.707031 21.804688 38 21.332031 39.203125 C 21.125 39.757812 20.558594 40.097656 20.09375 40.335938 C 21.25 40.675781 21.953125 42.027344 21.433594 43.136719 C 20.886719 44.578125 18.824219 45.03125 17.691406 43.988281 C 16.660156 43.171875 16.625 41.402344 17.769531 40.675781 C 17.941406 40.496094 18.257812 40.4375 18.40625 40.300781 C 17.417969 40.019531 16.75 38.875 17.214844 37.910156 C 17.589844 37.046875 18.550781 36.570312 19.46875 36.664062 Z M 19.46875 36.664062 Z M 19.039062 37.308594 C 18.199219 37.332031 17.609375 38.285156 17.894531 39.03125 C 18.222656 40.324219 20.390625 40.277344 20.636719 38.953125 C 20.863281 38.214844 20.277344 37.332031 19.46875 37.308594 L 19.449219 37.296875 L 19.0625 37.296875 Z M 19.039062 37.308594 Z M 19.0625 40.675781 C 18.074219 40.746094 17.589844 41.921875 17.847656 42.761719 C 18.019531 43.953125 19.71875 44.304688 20.390625 43.351562 C 21.035156 42.480469 20.71875 40.914062 19.550781 40.675781 L 19.449219 40.675781 L 19.425781 40.652344 L 19.074219 40.652344 Z M 19.0625 40.675781 Z M 19.0625 40.675781 "/>
<path style=" stroke:none;fill-rule:nonzero;fill:rgb(0%,0%,0%);fill-opacity:1;" d="M 10.988281 3.628906 L 10.988281 10.625 L 11 10.648438 L 12.394531 10.648438 L 12.394531 11.273438 L 8.710938 11.273438 L 8.710938 10.648438 L 10.105469 10.648438 L 10.128906 10.625 L 10.128906 4.753906 C 9.652344 4.910156 9.152344 5.015625 8.652344 5.003906 L 8.652344 4.367188 C 9.402344 4.378906 10.21875 4.175781 10.785156 3.628906 Z M 10.988281 3.628906 Z M 10.988281 3.628906 "/>
<path style=" stroke:none;fill-rule:nonzero;fill:rgb(0%,0%,0%);fill-opacity:1;" d="M 15.320312 10.367188 L 15.320312 11.273438 L 14.402344 11.273438 L 14.402344 10.367188 Z M 15.320312 10.367188 Z M 15.320312 10.367188 "/>
<path style=" stroke:none;fill-rule:nonzero;fill:rgb(0%,0%,0%);fill-opacity:1;" d="M 19.449219 3.628906 C 20.523438 3.710938 21.238281 4.695312 21.433594 5.695312 C 21.535156 6.148438 21.558594 6.578125 21.601562 7.03125 L 21.601562 8.1875 C 21.546875 9.367188 21.261719 10.921875 19.980469 11.398438 C 18.871094 11.839844 17.566406 11.148438 17.238281 10.015625 C 16.988281 9.414062 16.964844 8.800781 16.90625 8.1875 L 16.90625 7.03125 C 16.964844 5.851562 17.214844 4.289062 18.484375 3.765625 L 18.539062 3.742188 L 18.585938 3.734375 L 18.644531 3.710938 L 18.8125 3.664062 L 18.914062 3.640625 L 19.039062 3.640625 L 19.0625 3.628906 Z M 19.449219 3.628906 Z M 19.097656 4.320312 C 18.144531 4.4375 17.859375 5.582031 17.792969 6.351562 L 17.792969 6.65625 L 17.769531 6.679688 L 17.769531 8.257812 C 17.835938 9.074219 17.894531 10.128906 18.644531 10.671875 C 19.335938 11.148438 20.253906 10.613281 20.445312 9.878906 C 20.648438 9.332031 20.695312 8.800781 20.742188 8.257812 L 20.742188 6.679688 C 20.671875 5.851562 20.558594 4.695312 19.605469 4.367188 L 19.527344 4.34375 L 19.503906 4.320312 L 19.402344 4.320312 L 19.378906 4.300781 L 19.117188 4.300781 Z M 19.097656 4.320312 Z M 19.097656 4.320312 "/>
<path style="fill:none;stroke-width:0.02;stroke-linecap:butt;stroke-linejoin:miter;stroke:rgb(0%,0%,0%);stroke-opacity:1;stroke-miterlimit:10;" d="M 11.644561 1.777288 L 11.49463 1.777288 " transform="matrix(28.346457,0,0,-28.346457,1,256.11811)"/>
<path style="fill:none;stroke-width:0.02;stroke-linecap:butt;stroke-linejoin:miter;stroke:rgb(0%,0%,0%);stroke-opacity:1;stroke-miterlimit:10;" d="M 11.644561 2.942558 L 11.49463 2.942558 " transform="matrix(28.346457,0,0,-28.346457,1,256.11811)"/>
<path style="fill:none;stroke-width:0.02;stroke-linecap:butt;stroke-linejoin:miter;stroke:rgb(0%,0%,0%);stroke-opacity:1;stroke-miterlimit:10;" d="M 11.644561 4.107827 L 11.49463 4.107827 " transform="matrix(28.346457,0,0,-28.346457,1,256.11811)"/>
<path style="fill:none;stroke-width:0.02;stroke-linecap:butt;stroke-linejoin:miter;stroke:rgb(0%,0%,0%);stroke-opacity:1;stroke-miterlimit:10;" d="M 11.644561 5.273096 L 11.49463 5.273096 " transform="matrix(28.346457,0,0,-28.346457,1,256.11811)"/>
<path style="fill:none;stroke-width:0.02;stroke-linecap:butt;stroke-linejoin:miter;stroke:rgb(0%,0%,0%);stroke-opacity:1;stroke-miterlimit:10;" d="M 11.644561 6.438365 L 11.49463 6.438365 " transform="matrix(28.346457,0,0,-28.346457,1,256.11811)"/>
<path style="fill:none;stroke-width:0.02;stroke-linecap:butt;stroke-linejoin:miter;stroke:rgb(0%,0%,0%);stroke-opacity:1;stroke-miterlimit:10;" d="M 11.644561 7.603772 L 11.49463 7.603772 " transform="matrix(28.346457,0,0,-28.346457,1,256.11811)"/>
<path style="fill:none;stroke-width:0.02;stroke-linecap:round;stroke-linejoin:miter;stroke:rgb(0%,0%,0%);stroke-opacity:1;stroke-miterlimit:10;" d="M 11.644561 0.612019 L 11.644561 8.769041 " transform="matrix(28.346457,0,0,-28.346457,1,256.11811)"/>
<path style="fill:none;stroke-width:0.02;stroke-linecap:butt;stroke-linejoin:miter;stroke:rgb(0%,0%,0%);stroke-opacity:1;stroke-miterlimit:10;" d="M 2.325302 0.612019 L 2.325302 0.76195 " transform="matrix(28.346457,0,0,-28.346457,1,256.11811)"/>
<path style="fill:none;stroke-width:0.02;stroke-linecap:butt;stroke-linejoin:miter;stroke:rgb(0%,0%,0%);stroke-opacity:1;stroke-miterlimit:10;" d="M 3.656624 0.612019 L 3.656624 0.76195 " transform="matrix(28.346457,0,0,-28.346457,1,256.11811)"/>
<path style="fill:none;stroke-width:0.02;stroke-linecap:butt;stroke-linejoin:miter;stroke:rgb(0%,0%,0%);stroke-opacity:1;stroke-miterlimit:10;" d="M 4.987947 0.612019 L 4.987947 0.76195 " transform="matrix(28.346457,0,0,-28.346457,1,256.11811)"/>
<path style="fill:none;stroke-width:0.02;stroke-linecap:butt;stroke-linejoin:miter;stroke:rgb(0%,0%,0%);stroke-opacity:1;stroke-miterlimit:10;" d="M 6.31927 0.612019 L 6.31927 0.76195 " transform="matrix(28.346457,0,0,-28.346457,1,256.11811)"/>
<path style="fill:none;stroke-width:0.02;stroke-linecap:butt;stroke-linejoin:miter;stroke:rgb(0%,0%,0%);stroke-opacity:1;stroke-miterlimit:10;" d="M 7.650592 0.612019 L 7.650592 0.76195 " transform="matrix(28.346457,0,0,-28.346457,1,256.11811)"/>
<path style="fill:none;stroke-width:0.02;stroke-linecap:butt;stroke-linejoin:miter;stroke:rgb(0%,0%,0%);stroke-opacity:1;stroke-miterlimit:10;" d="M 8.981915 0.612019 L 8.981915 0.76195 " transform="matrix(28.346457,0,0,-28.346457,1,256.11811)"/>
<path style="fill:none;stroke-width:0.02;stroke-linecap:butt;stroke-linejoin:miter;stroke:rgb(0%,0%,0%);stroke-opacity:1;stroke-miterlimit:10;" d="M 10.313238 0.612019 L 10.313238 0.76195 " transform="matrix(28.346457,0,0,-28.346457,1,256.11811)"/>
<path style="fill:none;stroke-width:0.02;stroke-linecap:round;stroke-linejoin:miter;stroke:rgb(0%,0%,0%);stroke-opacity:1;stroke-miterlimit:10;" d="M 0.993979 0.612019 L 11.644561 0.612019 " transform="matrix(28.346457,0,0,-28.346457,1,256.11811)"/>
<path style=" stroke:none;fill-rule:nonzero;fill:rgb(0%,0%,0%);fill-opacity:1;" d="M 23.15625 250.484375 L 23.15625 251.117188 L 20.183594 251.117188 L 20.183594 250.484375 Z M 23.15625 250.484375 Z M 23.15625 250.484375 "/>
<path style=" stroke:none;fill-rule:nonzero;fill:rgb(0%,0%,0%);fill-opacity:1;" d="M 26.726562 245.652344 C 28.042969 245.6875 29.085938 247.035156 28.882812 248.304688 C 28.746094 249.574219 27.554688 250.300781 26.703125 251.09375 L 26.339844 251.46875 L 26.296875 251.492188 L 25.84375 251.933594 L 25.808594 251.957031 L 25.355469 252.410156 L 25.308594 252.433594 L 25.207031 252.535156 L 25.230469 252.546875 L 28.902344 252.546875 L 28.902344 253.292969 L 24.414062 253.292969 L 24.414062 252.613281 L 26.238281 250.789062 C 27.113281 250.027344 28.132812 249.042969 27.972656 247.796875 C 27.882812 247.070312 27.273438 246.402344 26.523438 246.34375 C 25.761719 246.230469 25.09375 246.832031 24.925781 247.558594 L 24.902344 247.589844 L 24.878906 247.671875 L 24.84375 247.796875 L 24.777344 248.046875 L 24.765625 248.101562 C 24.605469 247.910156 24.4375 247.703125 24.3125 247.488281 C 24.539062 246.558594 25.289062 245.6875 26.273438 245.652344 Z M 26.726562 245.652344 Z M 26.726562 245.652344 "/>
<path style=" stroke:none;fill-rule:nonzero;fill:rgb(0%,0%,0%);fill-opacity:1;" d="M 31.535156 252.386719 L 31.535156 253.292969 L 30.617188 253.292969 L 30.617188 252.386719 Z M 31.535156 252.386719 Z M 31.535156 252.386719 "/>
<path style=" stroke:none;fill-rule:nonzero;fill:rgb(0%,0%,0%);fill-opacity:1;" d="M 35.660156 245.652344 C 36.738281 245.730469 37.453125 246.71875 37.644531 247.714844 C 37.75 248.167969 37.769531 248.601562 37.816406 249.054688 L 37.816406 250.210938 C 37.757812 251.390625 37.476562 252.941406 36.195312 253.417969 C 35.082031 253.863281 33.78125 253.171875 33.449219 252.035156 C 33.203125 251.433594 33.179688 250.824219 33.121094 250.210938 L 33.121094 249.054688 C 33.179688 247.875 33.429688 246.308594 34.699219 245.789062 L 34.753906 245.765625 L 34.800781 245.753906 L 34.855469 245.730469 L 35.027344 245.6875 L 35.128906 245.664062 L 35.253906 245.664062 L 35.277344 245.652344 Z M 35.660156 245.652344 Z M 35.3125 246.34375 C 34.359375 246.457031 34.074219 247.601562 34.007812 248.375 L 34.007812 248.679688 L 33.984375 248.703125 L 33.984375 250.277344 C 34.050781 251.09375 34.109375 252.148438 34.855469 252.695312 C 35.546875 253.171875 36.46875 252.636719 36.660156 251.898438 C 36.863281 251.355469 36.910156 250.824219 36.953125 250.277344 L 36.953125 248.703125 C 36.886719 247.875 36.773438 246.71875 35.820312 246.390625 L 35.742188 246.367188 L 35.71875 246.34375 L 35.617188 246.34375 L 35.59375 246.320312 L 35.332031 246.320312 Z M 35.3125 246.34375 Z M 35.3125 246.34375 "/>
<path style=" stroke:none;fill-rule:nonzero;fill:rgb(0%,0%,0%);fill-opacity:1;" d="M 60.894531 250.484375 L 60.894531 251.117188 L 57.921875 251.117188 L 57.921875 250.484375 Z M 60.894531 250.484375 Z M 60.894531 250.484375 "/>
<path style=" stroke:none;fill-rule:nonzero;fill:rgb(0%,0%,0%);fill-opacity:1;" d="M 64.941406 245.652344 L 64.941406 252.648438 L 64.953125 252.671875 L 66.347656 252.671875 L 66.347656 253.292969 L 62.664062 253.292969 L 62.664062 252.671875 L 64.058594 252.671875 L 64.082031 252.648438 L 64.082031 246.773438 C 63.605469 246.933594 63.105469 247.035156 62.605469 247.023438 L 62.605469 246.390625 C 63.355469 246.402344 64.171875 246.195312 64.738281 245.652344 Z M 64.941406 245.652344 Z M 64.941406 245.652344 "/>
<path style=" stroke:none;fill-rule:nonzero;fill:rgb(0%,0%,0%);fill-opacity:1;" d="M 69.273438 252.386719 L 69.273438 253.292969 L 68.355469 253.292969 L 68.355469 252.386719 Z M 69.273438 252.386719 Z M 69.273438 252.386719 "/>
<path style=" stroke:none;fill-rule:nonzero;fill:rgb(0%,0%,0%);fill-opacity:1;" d="M 75.078125 245.890625 L 75.078125 246.59375 L 72.128906 246.59375 L 72.109375 246.605469 L 72.109375 248.929688 C 72.378906 248.746094 72.765625 248.511719 73.128906 248.5 C 74.410156 248.363281 75.394531 249.621094 75.453125 250.789062 C 75.632812 252.273438 74.238281 253.75 72.742188 253.523438 C 71.996094 253.5 71.269531 253.058594 70.835938 252.445312 C 70.960938 252.273438 71.066406 251.980469 71.210938 251.878906 C 71.746094 252.921875 73.46875 253.339844 74.160156 252.242188 C 74.601562 251.414062 74.589844 250.359375 74.082031 249.5625 C 73.492188 248.804688 72.324219 249.269531 72.050781 250.074219 L 71.3125 250.074219 L 71.3125 245.890625 Z M 75.078125 245.890625 Z M 75.078125 245.890625 "/>
<path style=" stroke:none;fill-rule:nonzero;fill:rgb(0%,0%,0%);fill-opacity:1;" d="M 98.632812 250.484375 L 98.632812 251.117188 L 95.660156 251.117188 L 95.660156 250.484375 Z M 98.632812 250.484375 Z M 98.632812 250.484375 "/>
<path style=" stroke:none;fill-rule:nonzero;fill:rgb(0%,0%,0%);fill-opacity:1;" d="M 102.679688 245.652344 L 102.679688 252.648438 L 102.691406 252.671875 L 104.085938 252.671875 L 104.085938 253.292969 L 100.402344 253.292969 L 100.402344 252.671875 L 101.796875 252.671875 L 101.820312 252.648438 L 101.820312 246.773438 C 101.34375 246.933594 100.84375 247.035156 100.34375 247.023438 L 100.34375 246.390625 C 101.09375 246.402344 101.910156 246.195312 102.476562 245.652344 Z M 102.679688 245.652344 Z M 102.679688 245.652344 "/>
<path style=" stroke:none;fill-rule:nonzero;fill:rgb(0%,0%,0%);fill-opacity:1;" d="M 107.011719 252.386719 L 107.011719 253.292969 L 106.09375 253.292969 L 106.09375 252.386719 Z M 107.011719 252.386719 Z M 107.011719 252.386719 "/>
<path style=" stroke:none;fill-rule:nonzero;fill:rgb(0%,0%,0%);fill-opacity:1;" d="M 111.140625 245.652344 C 112.214844 245.730469 112.929688 246.71875 113.121094 247.714844 C 113.226562 248.167969 113.246094 248.601562 113.292969 249.054688 L 113.292969 250.210938 C 113.238281 251.390625 112.953125 252.941406 111.671875 253.417969 C 110.558594 253.863281 109.257812 253.171875 108.925781 252.035156 C 108.679688 251.433594 108.65625 250.824219 108.597656 250.210938 L 108.597656 249.054688 C 108.65625 247.875 108.90625 246.308594 110.175781 245.789062 L 110.230469 245.765625 L 110.277344 245.753906 L 110.332031 245.730469 L 110.503906 245.6875 L 110.605469 245.664062 L 110.730469 245.664062 L 110.753906 245.652344 Z M 111.140625 245.652344 Z M 110.789062 246.34375 C 109.835938 246.457031 109.550781 247.601562 109.484375 248.375 L 109.484375 248.679688 L 109.460938 248.703125 L 109.460938 250.277344 C 109.527344 251.09375 109.585938 252.148438 110.332031 252.695312 C 111.023438 253.171875 111.945312 252.636719 112.136719 251.898438 C 112.339844 251.355469 112.386719 250.824219 112.429688 250.277344 L 112.429688 248.703125 C 112.363281 247.875 112.25 246.71875 111.296875 246.390625 L 111.21875 246.367188 L 111.195312 246.34375 L 111.09375 246.34375 L 111.070312 246.320312 L 110.808594 246.320312 Z M 110.789062 246.34375 Z M 110.789062 246.34375 "/>
<path style=" stroke:none;fill-rule:nonzero;fill:rgb(0%,0%,0%);fill-opacity:1;" d="M 136.371094 250.484375 L 136.371094 251.117188 L 133.398438 251.117188 L 133.398438 250.484375 Z M 136.371094 250.484375 Z M 136.371094 250.484375 "/>
<path style=" stroke:none;fill-rule:nonzero;fill:rgb(0%,0%,0%);fill-opacity:1;" d="M 140.066406 245.652344 C 141.144531 245.730469 141.859375 246.71875 142.050781 247.714844 C 142.152344 248.167969 142.175781 248.601562 142.222656 249.054688 L 142.222656 250.210938 C 142.164062 251.390625 141.882812 252.941406 140.601562 253.417969 C 139.488281 253.863281 138.183594 253.171875 137.855469 252.035156 C 137.605469 251.433594 137.582031 250.824219 137.527344 250.210938 L 137.527344 249.054688 C 137.582031 247.875 137.832031 246.308594 139.101562 245.789062 L 139.160156 245.765625 L 139.207031 245.753906 L 139.261719 245.730469 L 139.433594 245.6875 L 139.535156 245.664062 L 139.660156 245.664062 L 139.679688 245.652344 Z M 140.066406 245.652344 Z M 139.714844 246.34375 C 138.761719 246.457031 138.480469 247.601562 138.410156 248.375 L 138.410156 248.679688 L 138.390625 248.703125 L 138.390625 250.277344 C 138.457031 251.09375 138.511719 252.148438 139.261719 252.695312 C 139.953125 253.171875 140.871094 252.636719 141.066406 251.898438 C 141.269531 251.355469 141.3125 250.824219 141.359375 250.277344 L 141.359375 248.703125 C 141.292969 247.875 141.179688 246.71875 140.226562 246.390625 L 140.144531 246.367188 L 140.125 246.34375 L 140.023438 246.34375 L 140 246.320312 L 139.738281 246.320312 Z M 139.714844 246.34375 Z M 139.714844 246.34375 "/>
<path style=" stroke:none;fill-rule:nonzero;fill:rgb(0%,0%,0%);fill-opacity:1;" d="M 144.75 252.386719 L 144.75 253.292969 L 143.832031 253.292969 L 143.832031 252.386719 Z M 144.75 252.386719 Z M 144.75 252.386719 "/>
<path style=" stroke:none;fill-rule:nonzero;fill:rgb(0%,0%,0%);fill-opacity:1;" d="M 150.554688 245.890625 L 150.554688 246.59375 L 147.605469 246.59375 L 147.585938 246.605469 L 147.585938 248.929688 C 147.855469 248.746094 148.242188 248.511719 148.605469 248.5 C 149.886719 248.363281 150.871094 249.621094 150.929688 250.789062 C 151.109375 252.273438 149.714844 253.75 148.21875 253.523438 C 147.472656 253.5 146.746094 253.058594 146.316406 252.445312 C 146.4375 252.273438 146.542969 251.980469 146.6875 251.878906 C 147.222656 252.921875 148.945312 253.339844 149.636719 252.242188 C 150.078125 251.414062 150.066406 250.359375 149.558594 249.5625 C 148.96875 248.804688 147.800781 249.269531 147.527344 250.074219 L 146.789062 250.074219 L 146.789062 245.890625 Z M 150.554688 245.890625 Z M 150.554688 245.890625 "/>
<path style=" stroke:none;fill-rule:nonzero;fill:rgb(0%,0%,0%);fill-opacity:1;" d="M 175.917969 245.652344 C 176.996094 245.730469 177.707031 246.71875 177.902344 247.714844 C 178.003906 248.167969 178.027344 248.601562 178.070312 249.054688 L 178.070312 250.210938 C 178.015625 251.390625 177.730469 252.941406 176.449219 253.417969 C 175.339844 253.863281 174.035156 253.171875 173.707031 252.035156 C 173.457031 251.433594 173.433594 250.824219 173.378906 250.210938 L 173.378906 249.054688 C 173.433594 247.875 173.683594 246.308594 174.953125 245.789062 L 175.011719 245.765625 L 175.054688 245.753906 L 175.113281 245.730469 L 175.28125 245.6875 L 175.382812 245.664062 L 175.507812 245.664062 L 175.53125 245.652344 Z M 175.917969 245.652344 Z M 175.566406 246.34375 C 174.613281 246.457031 174.332031 247.601562 174.261719 248.375 L 174.261719 248.679688 L 174.238281 248.703125 L 174.238281 250.277344 C 174.308594 251.09375 174.363281 252.148438 175.113281 252.695312 C 175.804688 253.171875 176.722656 252.636719 176.914062 251.898438 C 177.121094 251.355469 177.164062 250.824219 177.210938 250.277344 L 177.210938 248.703125 C 177.140625 247.875 177.027344 246.71875 176.078125 246.390625 L 175.996094 246.367188 L 175.972656 246.34375 L 175.871094 246.34375 L 175.847656 246.320312 L 175.589844 246.320312 Z M 175.566406 246.34375 Z M 175.566406 246.34375 "/>
<path style=" stroke:none;fill-rule:nonzero;fill:rgb(0%,0%,0%);fill-opacity:1;" d="M 180.601562 252.386719 L 180.601562 253.292969 L 179.683594 253.292969 L 179.683594 252.386719 Z M 180.601562 252.386719 Z M 180.601562 252.386719 "/>
<path style=" stroke:none;fill-rule:nonzero;fill:rgb(0%,0%,0%);fill-opacity:1;" d="M 184.726562 245.652344 C 185.804688 245.730469 186.519531 246.71875 186.710938 247.714844 C 186.8125 248.167969 186.835938 248.601562 186.882812 249.054688 L 186.882812 250.210938 C 186.824219 251.390625 186.542969 252.941406 185.261719 253.417969 C 184.148438 253.863281 182.84375 253.171875 182.515625 252.035156 C 182.265625 251.433594 182.246094 250.824219 182.1875 250.210938 L 182.1875 249.054688 C 182.246094 247.875 182.492188 246.308594 183.765625 245.789062 L 183.820312 245.765625 L 183.867188 245.753906 L 183.921875 245.730469 L 184.09375 245.6875 L 184.195312 245.664062 L 184.320312 245.664062 L 184.34375 245.652344 Z M 184.726562 245.652344 Z M 184.375 246.34375 C 183.421875 246.457031 183.140625 247.601562 183.070312 248.375 L 183.070312 248.679688 L 183.050781 248.703125 L 183.050781 250.277344 C 183.117188 251.09375 183.175781 252.148438 183.921875 252.695312 C 184.613281 253.171875 185.53125 252.636719 185.726562 251.898438 C 185.929688 251.355469 185.976562 250.824219 186.019531 250.277344 L 186.019531 248.703125 C 185.953125 247.875 185.839844 246.71875 184.886719 246.390625 L 184.808594 246.367188 L 184.785156 246.34375 L 184.683594 246.34375 L 184.660156 246.320312 L 184.398438 246.320312 Z M 184.375 246.34375 Z M 184.375 246.34375 "/>
<path style=" stroke:none;fill-rule:nonzero;fill:rgb(0%,0%,0%);fill-opacity:1;" d="M 213.65625 245.652344 C 214.734375 245.730469 215.449219 246.71875 215.640625 247.714844 C 215.742188 248.167969 215.765625 248.601562 215.808594 249.054688 L 215.808594 250.210938 C 215.753906 251.390625 215.46875 252.941406 214.1875 253.417969 C 213.078125 253.863281 211.773438 253.171875 211.445312 252.035156 C 211.195312 251.433594 211.171875 250.824219 211.117188 250.210938 L 211.117188 249.054688 C 211.171875 247.875 211.421875 246.308594 212.691406 245.789062 L 212.75 245.765625 L 212.792969 245.753906 L 212.851562 245.730469 L 213.019531 245.6875 L 213.121094 245.664062 L 213.246094 245.664062 L 213.269531 245.652344 Z M 213.65625 245.652344 Z M 213.304688 246.34375 C 212.351562 246.457031 212.070312 247.601562 212 248.375 L 212 248.679688 L 211.976562 248.703125 L 211.976562 250.277344 C 212.046875 251.09375 212.101562 252.148438 212.851562 252.695312 C 213.542969 253.171875 214.460938 252.636719 214.652344 251.898438 C 214.859375 251.355469 214.902344 250.824219 214.949219 250.277344 L 214.949219 248.703125 C 214.878906 247.875 214.765625 246.71875 213.816406 246.390625 L 213.734375 246.367188 L 213.710938 246.34375 L 213.609375 246.34375 L 213.585938 246.320312 L 213.328125 246.320312 Z M 213.304688 246.34375 Z M 213.304688 246.34375 "/>
<path style=" stroke:none;fill-rule:nonzero;fill:rgb(0%,0%,0%);fill-opacity:1;" d="M 218.339844 252.386719 L 218.339844 253.292969 L 217.421875 253.292969 L 217.421875 252.386719 Z M 218.339844 252.386719 Z M 218.339844 252.386719 "/>
<path style=" stroke:none;fill-rule:nonzero;fill:rgb(0%,0%,0%);fill-opacity:1;" d="M 224.144531 245.890625 L 224.144531 246.59375 L 221.195312 246.59375 L 221.171875 246.605469 L 221.171875 248.929688 C 221.445312 248.746094 221.832031 248.511719 222.195312 248.5 C 223.476562 248.363281 224.460938 249.621094 224.519531 250.789062 C 224.699219 252.273438 223.304688 253.75 221.808594 253.523438 C 221.058594 253.5 220.335938 253.058594 219.902344 252.445312 C 220.027344 252.273438 220.128906 251.980469 220.277344 251.878906 C 220.808594 252.921875 222.535156 253.339844 223.226562 252.242188 C 223.667969 251.414062 223.65625 250.359375 223.144531 249.5625 C 222.554688 248.804688 221.390625 249.269531 221.117188 250.074219 L 220.378906 250.074219 L 220.378906 245.890625 Z M 224.144531 245.890625 Z M 224.144531 245.890625 "/>
<path style=" stroke:none;fill-rule:nonzero;fill:rgb(0%,0%,0%);fill-opacity:1;" d="M 251.746094 245.652344 L 251.746094 252.648438 L 251.757812 252.671875 L 253.152344 252.671875 L 253.152344 253.292969 L 249.464844 253.292969 L 249.464844 252.671875 L 250.859375 252.671875 L 250.882812 252.648438 L 250.882812 246.773438 C 250.40625 246.933594 249.910156 247.035156 249.410156 247.023438 L 249.410156 246.390625 C 250.160156 246.402344 250.976562 246.195312 251.542969 245.652344 Z M 251.746094 245.652344 Z M 251.746094 245.652344 "/>
<path style=" stroke:none;fill-rule:nonzero;fill:rgb(0%,0%,0%);fill-opacity:1;" d="M 256.078125 252.386719 L 256.078125 253.292969 L 255.160156 253.292969 L 255.160156 252.386719 Z M 256.078125 252.386719 Z M 256.078125 252.386719 "/>
<path style=" stroke:none;fill-rule:nonzero;fill:rgb(0%,0%,0%);fill-opacity:1;" d="M 260.203125 245.652344 C 261.28125 245.730469 261.996094 246.71875 262.1875 247.714844 C 262.289062 248.167969 262.3125 248.601562 262.359375 249.054688 L 262.359375 250.210938 C 262.300781 251.390625 262.019531 252.941406 260.738281 253.417969 C 259.625 253.863281 258.320312 253.171875 257.992188 252.035156 C 257.742188 251.433594 257.722656 250.824219 257.664062 250.210938 L 257.664062 249.054688 C 257.722656 247.875 257.96875 246.308594 259.242188 245.789062 L 259.296875 245.765625 L 259.34375 245.753906 L 259.398438 245.730469 L 259.570312 245.6875 L 259.671875 245.664062 L 259.796875 245.664062 L 259.820312 245.652344 Z M 260.203125 245.652344 Z M 259.851562 246.34375 C 258.898438 246.457031 258.617188 247.601562 258.546875 248.375 L 258.546875 248.679688 L 258.527344 248.703125 L 258.527344 250.277344 C 258.59375 251.09375 258.652344 252.148438 259.398438 252.695312 C 260.089844 253.171875 261.007812 252.636719 261.203125 251.898438 C 261.40625 251.355469 261.453125 250.824219 261.496094 250.277344 L 261.496094 248.703125 C 261.429688 247.875 261.316406 246.71875 260.363281 246.390625 L 260.285156 246.367188 L 260.261719 246.34375 L 260.160156 246.34375 L 260.136719 246.320312 L 259.875 246.320312 Z M 259.851562 246.34375 Z M 259.851562 246.34375 "/>
<path style=" stroke:none;fill-rule:nonzero;fill:rgb(0%,0%,0%);fill-opacity:1;" d="M 289.484375 245.652344 L 289.484375 252.648438 L 289.496094 252.671875 L 290.890625 252.671875 L 290.890625 253.292969 L 287.203125 253.292969 L 287.203125 252.671875 L 288.597656 252.671875 L 288.621094 252.648438 L 288.621094 246.773438 C 288.144531 246.933594 287.648438 247.035156 287.148438 247.023438 L 287.148438 246.390625 C 287.898438 246.402344 288.714844 246.195312 289.28125 245.652344 Z M 289.484375 245.652344 Z M 289.484375 245.652344 "/>
<path style=" stroke:none;fill-rule:nonzero;fill:rgb(0%,0%,0%);fill-opacity:1;" d="M 293.816406 252.386719 L 293.816406 253.292969 L 292.898438 253.292969 L 292.898438 252.386719 Z M 293.816406 252.386719 Z M 293.816406 252.386719 "/>
<path style=" stroke:none;fill-rule:nonzero;fill:rgb(0%,0%,0%);fill-opacity:1;" d="M 299.621094 245.890625 L 299.621094 246.59375 L 296.671875 246.59375 L 296.648438 246.605469 L 296.648438 248.929688 C 296.921875 248.746094 297.308594 248.511719 297.671875 248.5 C 298.953125 248.363281 299.9375 249.621094 299.996094 250.789062 C 300.175781 252.273438 298.78125 253.75 297.285156 253.523438 C 296.535156 253.5 295.8125 253.058594 295.378906 252.445312 C 295.503906 252.273438 295.605469 251.980469 295.753906 251.878906 C 296.289062 252.921875 298.011719 253.339844 298.703125 252.242188 C 299.144531 251.414062 299.132812 250.359375 298.621094 249.5625 C 298.035156 248.804688 296.867188 249.269531 296.59375 250.074219 L 295.855469 250.074219 L 295.855469 245.890625 Z M 299.621094 245.890625 Z M 299.621094 245.890625 "/>
<path style=" stroke:none;fill-rule:nonzero;fill:rgb(0%,0%,0%);fill-opacity:1;" d="M 326.746094 245.652344 C 328.0625 245.6875 329.105469 247.035156 328.902344 248.304688 C 328.765625 249.574219 327.574219 250.300781 326.722656 251.09375 L 326.359375 251.46875 L 326.316406 251.492188 L 325.863281 251.933594 L 325.828125 251.957031 L 325.375 252.410156 L 325.328125 252.433594 L 325.226562 252.535156 L 325.25 252.546875 L 328.921875 252.546875 L 328.921875 253.292969 L 324.433594 253.292969 L 324.433594 252.613281 L 326.257812 250.789062 C 327.132812 250.027344 328.152344 249.042969 327.992188 247.796875 C 327.902344 247.070312 327.289062 246.402344 326.542969 246.34375 C 325.78125 246.230469 325.113281 246.832031 324.941406 247.558594 L 324.921875 247.589844 L 324.898438 247.671875 L 324.863281 247.796875 L 324.796875 248.046875 L 324.785156 248.101562 C 324.625 247.910156 324.457031 247.703125 324.332031 247.488281 C 324.558594 246.558594 325.304688 245.6875 326.292969 245.652344 Z M 326.746094 245.652344 Z M 326.746094 245.652344 "/>
<path style=" stroke:none;fill-rule:nonzero;fill:rgb(0%,0%,0%);fill-opacity:1;" d="M 331.554688 252.386719 L 331.554688 253.292969 L 330.636719 253.292969 L 330.636719 252.386719 Z M 331.554688 252.386719 Z M 331.554688 252.386719 "/>
<path style=" stroke:none;fill-rule:nonzero;fill:rgb(0%,0%,0%);fill-opacity:1;" d="M 335.679688 245.652344 C 336.757812 245.730469 337.472656 246.71875 337.664062 247.714844 C 337.765625 248.167969 337.789062 248.601562 337.835938 249.054688 L 337.835938 250.210938 C 337.777344 251.390625 337.496094 252.941406 336.214844 253.417969 C 335.101562 253.863281 333.796875 253.171875 333.46875 252.035156 C 333.21875 251.433594 333.199219 250.824219 333.140625 250.210938 L 333.140625 249.054688 C 333.199219 247.875 333.445312 246.308594 334.71875 245.789062 L 334.773438 245.765625 L 334.820312 245.753906 L 334.875 245.730469 L 335.046875 245.6875 L 335.148438 245.664062 L 335.273438 245.664062 L 335.296875 245.652344 Z M 335.679688 245.652344 Z M 335.328125 246.34375 C 334.378906 246.457031 334.09375 247.601562 334.027344 248.375 L 334.027344 248.679688 L 334.003906 248.703125 L 334.003906 250.277344 C 334.070312 251.09375 334.128906 252.148438 334.875 252.695312 C 335.566406 253.171875 336.484375 252.636719 336.679688 251.898438 C 336.882812 251.355469 336.929688 250.824219 336.972656 250.277344 L 336.972656 248.703125 C 336.90625 247.875 336.792969 246.71875 335.839844 246.390625 L 335.761719 246.367188 L 335.738281 246.34375 L 335.636719 246.34375 L 335.613281 246.320312 L 335.351562 246.320312 Z M 335.328125 246.34375 Z M 335.328125 246.34375 "/>
<path style="fill:none;stroke-width:0.02;stroke-linecap:butt;stroke-linejoin:miter;stroke:rgb(0%,0%,0%);stroke-opacity:1;stroke-miterlimit:10;" d="M 2.325302 8.769041 L 2.325302 8.618972 " transform="matrix(28.346457,0,0,-28.346457,1,256.11811)"/>
<path style="fill:none;stroke-width:0.02;stroke-linecap:butt;stroke-linejoin:miter;stroke:rgb(0%,0%,0%);stroke-opacity:1;stroke-miterlimit:10;" d="M 3.656624 8.769041 L 3.656624 8.618972 " transform="matrix(28.346457,0,0,-28.346457,1,256.11811)"/>
<path style="fill:none;stroke-width:0.02;stroke-linecap:butt;stroke-linejoin:miter;stroke:rgb(0%,0%,0%);stroke-opacity:1;stroke-miterlimit:10;" d="M 4.987947 8.769041 L 4.987947 8.618972 " transform="matrix(28.346457,0,0,-28.346457,1,256.11811)"/>
<path style="fill:none;stroke-width:0.02;stroke-linecap:butt;stroke-linejoin:miter;stroke:rgb(0%,0%,0%);stroke-opacity:1;stroke-miterlimit:10;" d="M 6.31927 8.769041 L 6.31927 8.618972 " transform="matrix(28.346457,0,0,-28.346457,1,256.11811)"/>
<path style="fill:none;stroke-width:0.02;stroke-linecap:butt;stroke-linejoin:miter;stroke:rgb(0%,0%,0%);stroke-opacity:1;stroke-miterlimit:10;" d="M 7.650592 8.769041 L 7.650592 8.618972 " transform="matrix(28.346457,0,0,-28.346457,1,256.11811)"/>
<path style="fill:none;stroke-width:0.02;stroke-linecap:butt;stroke-linejoin:miter;stroke:rgb(0%,0%,0%);stroke-opacity:1;stroke-miterlimit:10;" d="M 8.981915 8.769041 L 8.981915 8.618972 " transform="matrix(28.346457,0,0,-28.346457,1,256.11811)"/>
<path style="fill:none;stroke-width:0.02;stroke-linecap:butt;stroke-linejoin:miter;stroke:rgb(0%,0%,0%);stroke-opacity:1;stroke-miterlimit:10;" d="M 10.313238 8.769041 L 10.313238 8.618972 " transform="matrix(28.346457,0,0,-28.346457,1,256.11811)"/>
<path style="fill:none;stroke-width:0.02;stroke-linecap:round;stroke-linejoin:miter;stroke:rgb(0%,0%,0%);stroke-opacity:1;stroke-miterlimit:10;" d="M 0.993979 8.769041 L 11.644561 8.769041 " transform="matrix(28.346457,0,0,-28.346457,1,256.11811)"/>
<path style="fill:none;stroke-width:0.05;stroke-linecap:butt;stroke-linejoin:miter;stroke:rgb(33%,47%,64%);stroke-opacity:1;stroke-miterlimit:10;" d="M 0.993979 2.942558 L 1.031324 2.896118 L 1.068806 2.850505 L 1.106151 2.805581 L 1.143496 2.761345 L 1.180841 2.717937 L 1.218186 2.674942 L 1.255531 2.632637 L 1.293013 2.590744 L 1.330358 2.549265 L 1.367703 2.5082 L 1.405048 2.46741 L 1.442393 2.426896 L 1.479875 2.386381 L 1.51722 2.346143 L 1.554565 2.306042 L 1.59191 2.266354 L 1.629255 2.227769 L 1.666737 2.190286 L 1.704082 2.153768 L 1.741427 2.118215 L 1.778772 2.083488 L 1.816117 2.049589 L 1.853461 2.016516 L 1.890944 1.98427 L 1.928289 1.952713 L 1.965634 1.921845 L 2.002979 1.891528 L 2.040323 1.861762 L 2.077806 1.832686 L 2.115151 1.803885 L 2.152496 1.777288 L 2.18984 1.754137 L 2.227185 1.734431 L 2.26453 1.718033 L 2.302013 1.704528 L 2.339358 1.694055 L 2.376702 1.6862 L 2.414047 1.680964 L 2.451392 1.67807 L 2.488875 1.677381 L 2.52622 1.678759 L 2.563564 1.681928 L 2.600909 1.687027 L 2.638254 1.693504 L 2.675737 1.701496 L 2.713082 1.711556 L 2.750426 1.724923 L 2.787771 1.741322 L 2.825116 1.761028 L 2.862461 1.783765 L 2.899944 1.809535 L 2.937288 1.838473 L 2.974633 1.870582 L 3.011978 1.905722 L 3.049323 1.943893 L 3.086806 1.985097 L 3.12415 2.029332 L 3.161495 2.076598 L 3.19884 2.126897 L 3.236185 2.180227 L 3.273668 2.235762 L 3.311012 2.29295 L 3.348357 2.351793 L 3.385702 2.412702 L 3.423047 2.475678 L 3.460392 2.541135 L 3.497874 2.608934 L 3.535219 2.67949 L 3.572564 2.753077 L 3.609909 2.829558 L 3.647254 2.909347 L 3.684736 2.99258 L 3.722081 3.079397 L 3.759426 3.170072 L 3.796771 3.264743 L 3.834116 3.361895 L 3.871598 3.459597 L 3.908943 3.557989 L 3.946288 3.65707 L 3.983633 3.75684 L 4.020978 3.857299 L 4.058322 3.958447 L 4.095805 4.060422 L 4.13315 4.163086 L 4.170495 4.266439 L 4.20784 4.370481 L 4.245184 4.475349 L 4.282667 4.580907 L 4.320012 4.687292 L 4.357357 4.794365 L 4.394702 4.902403 L 4.432046 5.011682 L 4.469391 5.121787 L 4.506874 5.232581 L 4.544219 5.344065 L 4.581564 5.455824 L 4.656253 5.680168 L 4.693736 5.79234 L 4.731081 5.904237 L 4.768426 6.01572 L 4.80577 6.126653 L 4.843115 6.236758 L 4.880598 6.346036 L 4.917943 6.45435 L 4.955288 6.560735 L 4.992632 6.664776 L 5.029977 6.766751 L 5.067322 6.866521 L 5.104805 6.964362 L 5.14215 7.060273 L 5.179494 7.154531 L 5.216839 7.247135 L 5.254184 7.338224 L 5.291667 7.427796 L 5.329012 7.516266 L 5.366356 7.603496 L 5.403701 7.689623 L 5.441046 7.774786 L 5.478529 7.85926 L 5.515873 7.940702 L 5.553218 8.017459 L 5.590563 8.089392 L 5.627908 8.156916 L 5.665253 8.220306 L 5.702735 8.279562 L 5.74008 8.334959 L 5.777425 8.386773 L 5.81477 8.435004 L 5.852115 8.480066 L 5.889597 8.522096 L 5.926942 8.561095 L 5.964287 8.597613 L 6.001632 8.63165 L 6.038977 8.663345 L 6.076459 8.692008 L 6.113804 8.716538 L 6.151149 8.73707 L 6.188494 8.753469 L 6.225839 8.765734 L 6.240997 8.769041 " transform="matrix(28.346457,0,0,-28.346457,1,256.11811)"/>
<path style="fill:none;stroke-width:0.05;stroke-linecap:butt;stroke-linejoin:miter;stroke:rgb(33%,47%,64%);stroke-opacity:1;stroke-miterlimit:10;" d="M 6.397542 8.769041 L 6.412701 8.765734 L 6.450046 8.753469 L 6.487528 8.73707 L 6.524873 8.716538 L 6.562218 8.692008 L 6.599563 8.663345 L 6.636908 8.63165 L 6.674252 8.597613 L 6.711735 8.561095 L 6.74908 8.522096 L 6.786425 8.480066 L 6.82377 8.435004 L 6.861114 8.386773 L 6.898597 8.334959 L 6.935942 8.279562 L 6.973287 8.220306 L 7.010632 8.156916 L 7.047976 8.089392 L 7.085459 8.017459 L 7.122804 7.940702 L 7.160149 7.85926 L 7.197493 7.774786 L 7.234838 7.689623 L 7.272183 7.603496 L 7.309666 7.516266 L 7.347011 7.427796 L 7.384355 7.338224 L 7.4217 7.247135 L 7.459045 7.154531 L 7.496528 7.060273 L 7.533873 6.964362 L 7.571217 6.866521 L 7.608562 6.766751 L 7.645907 6.664776 L 7.68339 6.560735 L 7.720735 6.45435 L 7.758079 6.346036 L 7.795424 6.236758 L 7.832769 6.126653 L 7.870114 6.01572 L 7.907597 5.904237 L 7.944941 5.79234 L 8.056976 5.455824 L 8.094459 5.344065 L 8.131803 5.232581 L 8.169148 5.121787 L 8.206493 5.011682 L 8.243838 4.902403 L 8.281321 4.794365 L 8.318665 4.687292 L 8.35601 4.580907 L 8.393355 4.475349 L 8.4307 4.370481 L 8.468045 4.266439 L 8.505527 4.163086 L 8.542872 4.060422 L 8.580217 3.958447 L 8.617562 3.857299 L 8.654907 3.75684 L 8.692389 3.65707 L 8.729734 3.557989 L 8.767079 3.459597 L 8.804424 3.361895 L 8.841769 3.264743 L 8.879113 3.170072 L 8.916596 3.079397 L 8.953941 2.99258 L 8.991286 2.909347 L 9.028631 2.829558 L 9.065975 2.753077 L 9.103458 2.67949 L 9.140803 2.608934 L 9.178148 2.541135 L 9.215493 2.475678 L 9.252837 2.412702 L 9.29032 2.351793 L 9.327665 2.29295 L 9.36501 2.235762 L 9.402355 2.180227 L 9.439699 2.126897 L 9.477044 2.076598 L 9.514527 2.029332 L 9.551872 1.985097 L 9.589217 1.943893 L 9.626561 1.905722 L 9.663906 1.870582 L 9.701389 1.838473 L 9.738734 1.809535 L 9.776079 1.783765 L 9.813423 1.761028 L 9.850768 1.741322 L 9.888251 1.724923 L 9.925596 1.711556 L 9.962941 1.701496 L 10.000285 1.693504 L 10.03763 1.687027 L 10.074975 1.681928 L 10.112458 1.678759 L 10.149803 1.677381 L 10.187147 1.67807 L 10.224492 1.680964 L 10.261837 1.6862 L 10.29932 1.694055 L 10.336664 1.704528 L 10.374009 1.718033 L 10.411354 1.734431 L 10.448699 1.754137 L 10.486182 1.777288 L 10.523526 1.803885 L 10.560871 1.832686 L 10.598216 1.861762 L 10.635561 1.891528 L 10.672906 1.921845 L 10.710388 1.952713 L 10.747733 1.98427 L 10.785078 2.016516 L 10.822423 2.049589 L 10.859768 2.083488 L 10.89725 2.118215 L 10.934595 2.153768 L 10.97194 2.190286 L 11.009285 2.227769 L 11.04663 2.266354 L 11.083975 2.306042 L 11.121457 2.346143 L 11.158802 2.386381 L 11.233492 2.46741 L 11.270837 2.5082 L 11.308319 2.549265 L 11.345664 2.590744 L 11.383009 2.632637 L 11.420354 2.674942 L 11.457699 2.717937 L 11.495181 2.761345 L 11.532526 2.805581 L 11.569871 2.850505 L 11.607216 2.896118 L 11.644561 2.942558 " transform="matrix(28.346457,0,0,-28.346457,1,256.11811)"/>
<path style="fill:none;stroke-width:0.05;stroke-linecap:butt;stroke-linejoin:miter;stroke:rgb(90%,57%,26%);stroke-opacity:1;stroke-miterlimit:10;" d="M 0.993979 2.942558 L 1.554565 2.440263 L 2.115151 2.663091 L 2.675737 3.441132 L 3.236185 3.612973 L 3.796771 2.624782 L 4.357357 1.688405 L 4.917943 2.652618 L 5.478529 5.631661 L 6.038977 8.353424 L 6.599563 8.353424 L 7.160149 5.631661 L 7.720735 2.652618 L 8.281321 1.688405 L 8.841769 2.624782 L 9.402355 3.612973 L 9.962941 3.441132 L 10.523526 2.663091 L 11.083975 2.440263 L 11.644561 2.942558 " transform="matrix(28.346457,0,0,-28.346457,1,256.11811)"/>
</g>
</svg>
