<?xml version="1.0" encoding="UTF-8"?>
<svg xmlns="http://www.w3.org/2000/svg" xmlns:xlink="http://www.w3.org/1999/xlink" width="342.15748pt" height="257.11811pt" viewBox="0 0 342.15748 257.11811" version="1.1">
<g id="surface1">
<path style="fill:none;stroke-width:0.02;stroke-linecap:butt;stroke-linejoin:miter;stroke:rgb(0%,0%,0%);stroke-opacity:1;stroke-miterlimit:10;" d="M 0.993979 1.42768 L 1.144047 1.42768 " transform="matrix(28.346457,0,0,-28.346457,1,256.11811)"/>
<path style="fill:none;stroke-width:0.02;stroke-linecap:butt;stroke-linejoin:miter;stroke:rgb(0%,0%,0%);stroke-opacity:1;stroke-miterlimit:10;" d="M 0.993979 2.243341 L 1.144047 2.243341 " transform="matrix(28.346457,0,0,-28.346457,1,256.11811)"/>
<path style="fill:none;stroke-width:0.02;stroke-linecap:butt;stroke-linejoin:miter;stroke:rgb(0%,0%,0%);stroke-opacity:1;stroke-miterlimit:10;" d="M 0.993979 3.05914 L 1.144047 3.05914 " transform="matrix(28.346457,0,0,-28.346457,1,256.11811)"/>
<path style="fill:none;stroke-width:0.02;stroke-linecap:butt;stroke-linejoin:miter;stroke:rgb(0%,0%,0%);stroke-opacity:1;stroke-miterlimit:10;" d="M 0.993979 3.8748 L 1.144047 3.8748 " transform="matrix(28.346457,0,0,-28.346457,1,256.11811)"/>
<path style="fill:none;stroke-width:0.02;stroke-linecap:butt;stroke-linejoin:miter;stroke:rgb(0%,0%,0%);stroke-opacity:1;stroke-miterlimit:10;" d="M 0.993979 4.690461 L 1.144047 4.690461 " transform="matrix(28.346457,0,0,-28.346457,1,256.11811)"/>
<path style="fill:none;stroke-width:0.02;stroke-linecap:butt;stroke-linejoin:miter;stroke:rgb(0%,0%,0%);stroke-opacity:1;stroke-miterlimit:10;" d="M 0.993979 5.50626 L 1.144047 5.50626 " transform="matrix(28.346457,0,0,-28.346457,1,256.11811)"/>
<path style="fill:none;stroke-width:0.02;stroke-linecap:butt;stroke-linejoin:miter;stroke:rgb(0%,0%,0%);stroke-opacity:1;stroke-miterlimit:10;" d="M 0.993979 6.321921 L 1.144047 6.321921 " transform="matrix(28.346457,0,0,-28.346457,1,256.11811)"/>
<path style="fill:none;stroke-width:0.02;stroke-linecap:butt;stroke-linejoin:miter;stroke:rgb(0%,0%,0%);stroke-opacity:1;stroke-miterlimit:10;" d="M 0.993979 7.137581 L 1.144047 7.137581 " transform="matrix(28.346457,0,0,-28.346457,1,256.11811)"/>
<path style="fill:none;stroke-width:0.02;stroke-linecap:butt;stroke-linejoin:miter;stroke:rgb(0%,0%,0%);stroke-opacity:1;stroke-miterlimit:10;" d="M 0.993979 7.953242 L 1.144047 7.953242 " transform="matrix(28.346457,0,0,-28.346457,1,256.11811)"/>
<path style="fill:none;stroke-width:0.02;stroke-linecap:round;stroke-linejoin:miter;stroke:rgb(0%,0%,0%);stroke-opacity:1;stroke-miterlimit:10;" d="M 0.993979 0.612019 L 0.993979 8.769041 " transform="matrix(28.346457,0,0,-28.346457,1,256.11811)"/>
<path style=" stroke:none;fill-rule:nonzero;fill:rgb(0%,0%,0%);fill-opacity:1;" d="M 6.941406 239.683594 L 6.941406 240.316406 L 3.972656 240.316406 L 3.972656 239.683594 Z M 6.941406 239.683594 Z M 6.941406 239.683594 "/>
<path style=" stroke:none;fill-rule:nonzero;fill:rgb(0%,0%,0%);fill-opacity:1;" d="M 10.988281 234.851562 L 10.988281 241.847656 L 11 241.871094 L 12.394531 241.871094 L 12.394531 242.496094 L 8.710938 242.496094 L 8.710938 241.871094 L 10.105469 241.871094 L 10.128906 241.847656 L 10.128906 235.976562 C 9.652344 236.132812 9.152344 236.234375 8.652344 236.222656 L 8.652344 235.589844 C 9.402344 235.601562 10.21875 235.398438 10.785156 234.851562 Z M 10.988281 234.851562 Z M 10.988281 234.851562 "/>
<path style=" stroke:none;fill-rule:nonzero;fill:rgb(0%,0%,0%);fill-opacity:1;" d="M 15.320312 241.585938 L 15.320312 242.496094 L 14.402344 242.496094 L 14.402344 241.585938 Z M 15.320312 241.585938 Z M 15.320312 241.585938 "/>
<path style=" stroke:none;fill-rule:nonzero;fill:rgb(0%,0%,0%);fill-opacity:1;" d="M 19.449219 234.851562 C 20.523438 234.933594 21.238281 235.917969 21.433594 236.917969 C 21.535156 237.371094 21.558594 237.800781 21.601562 238.253906 L 21.601562 239.410156 C 21.546875 240.589844 21.261719 242.144531 19.980469 242.621094 C 18.871094 243.0625 17.566406 242.371094 17.238281 241.234375 C 16.988281 240.636719 16.964844 240.023438 16.90625 239.410156 L 16.90625 238.253906 C 16.964844 237.074219 17.214844 235.511719 18.484375 234.988281 L 18.539062 234.964844 L 18.585938 234.953125 L 18.644531 234.933594 L 18.8125 234.886719 L 18.914062 234.863281 L 19.039062 234.863281 L 19.0625 234.851562 Z M 19.449219 234.851562 Z M 19.097656 235.542969 C 18.144531 235.65625 17.859375 236.804688 17.792969 237.574219 L 17.792969 237.878906 L 17.769531 237.902344 L 17.769531 239.480469 C 17.835938 240.296875 17.894531 241.347656 18.644531 241.894531 C 19.335938 242.371094 20.253906 241.835938 20.445312 241.101562 C 20.648438 240.554688 20.695312 240.023438 20.742188 239.480469 L 20.742188 237.902344 C 20.671875 237.074219 20.558594 235.917969 19.605469 235.589844 L 19.527344 235.566406 L 19.503906 235.542969 L 19.402344 235.542969 L 19.378906 235.523438 L 19.117188 235.523438 Z M 19.097656 235.542969 Z M 19.097656 235.542969 "/>
<path style=" stroke:none;fill-rule:nonzero;fill:rgb(0%,0%,0%);fill-opacity:1;" d="M 6.941406 216.5625 L 6.941406 217.195312 L 3.972656 217.195312 L 3.972656 216.5625 Z M 6.941406 216.5625 Z M 6.941406 216.5625 "/>
<path style=" stroke:none;fill-rule:nonzero;fill:rgb(0%,0%,0%);fill-opacity:1;" d="M 10.636719 211.730469 C 11.714844 211.808594 12.429688 212.796875 12.621094 213.792969 C 12.722656 214.246094 12.746094 214.679688 12.792969 215.132812 L 12.792969 216.289062 C 12.734375 217.46875 12.453125 219.019531 11.171875 219.496094 C 10.058594 219.941406 8.753906 219.246094 8.425781 218.113281 C 8.175781 217.511719 8.15625 216.902344 8.097656 216.289062 L 8.097656 215.132812 C 8.15625 213.953125 8.402344 212.386719 9.675781 211.867188 L 9.730469 211.84375 L 9.777344 211.832031 L 9.832031 211.808594 L 10.003906 211.765625 L 10.105469 211.742188 L 10.230469 211.742188 L 10.253906 211.730469 Z M 10.636719 211.730469 Z M 10.285156 212.421875 C 9.332031 212.535156 9.050781 213.679688 8.980469 214.453125 L 8.980469 214.757812 L 8.960938 214.78125 L 8.960938 216.355469 C 9.027344 217.171875 9.085938 218.226562 9.832031 218.773438 C 10.523438 219.246094 11.441406 218.714844 11.636719 217.976562 C 11.839844 217.433594 11.886719 216.902344 11.929688 216.355469 L 11.929688 214.78125 C 11.863281 213.953125 11.75 212.796875 10.796875 212.46875 L 10.71875 212.445312 L 10.695312 212.421875 L 10.59375 212.421875 L 10.570312 212.398438 L 10.308594 212.398438 Z M 10.285156 212.421875 Z M 10.285156 212.421875 "/>
<path style=" stroke:none;fill-rule:nonzero;fill:rgb(0%,0%,0%);fill-opacity:1;" d="M 15.320312 218.464844 L 15.320312 219.371094 L 14.402344 219.371094 L 14.402344 218.464844 Z M 15.320312 218.464844 Z M 15.320312 218.464844 "/>
<path style=" stroke:none;fill-rule:nonzero;fill:rgb(0%,0%,0%);fill-opacity:1;" d="M 19.46875 211.730469 C 20.671875 211.777344 21.804688 213.066406 21.332031 214.269531 C 21.125 214.824219 20.558594 215.164062 20.09375 215.402344 C 21.25 215.746094 21.953125 217.09375 21.433594 218.203125 C 20.886719 219.644531 18.824219 220.097656 17.691406 219.054688 C 16.660156 218.238281 16.625 216.46875 17.769531 215.746094 C 17.941406 215.5625 18.257812 215.507812 18.40625 215.371094 C 17.417969 215.085938 16.75 213.941406 17.214844 212.976562 C 17.589844 212.117188 18.550781 211.640625 19.46875 211.730469 Z M 19.46875 211.730469 Z M 19.039062 212.375 C 18.199219 212.398438 17.609375 213.351562 17.894531 214.101562 C 18.222656 215.394531 20.390625 215.347656 20.636719 214.019531 C 20.863281 213.285156 20.277344 212.398438 19.46875 212.375 L 19.449219 212.367188 L 19.0625 212.367188 Z M 19.039062 212.375 Z M 19.0625 215.746094 C 18.074219 215.8125 17.589844 216.992188 17.847656 217.832031 C 18.019531 219.019531 19.71875 219.371094 20.390625 218.421875 C 21.035156 217.546875 20.71875 215.980469 19.550781 215.746094 L 19.449219 215.746094 L 19.425781 215.722656 L 19.074219 215.722656 Z M 19.0625 215.746094 Z M 19.0625 215.746094 "/>
<path style=" stroke:none;fill-rule:nonzero;fill:rgb(0%,0%,0%);fill-opacity:1;" d="M 6.941406 193.4375 L 6.941406 194.074219 L 3.972656 194.074219 L 3.972656 193.4375 Z M 6.941406 193.4375 Z M 6.941406 193.4375 "/>
<path style=" stroke:none;fill-rule:nonzero;fill:rgb(0%,0%,0%);fill-opacity:1;" d="M 10.636719 188.609375 C 11.714844 188.6875 12.429688 189.675781 12.621094 190.671875 C 12.722656 191.125 12.746094 191.554688 12.792969 192.007812 L 12.792969 193.167969 C 12.734375 194.34375 12.453125 195.898438 11.171875 196.375 C 10.058594 196.816406 8.753906 196.125 8.425781 194.992188 C 8.175781 194.390625 8.15625 193.777344 8.097656 193.167969 L 8.097656 192.007812 C 8.15625 190.832031 8.402344 189.265625 9.675781 188.746094 L 9.730469 188.722656 L 9.777344 188.710938 L 9.832031 188.6875 L 10.003906 188.640625 L 10.105469 188.621094 L 10.230469 188.621094 L 10.253906 188.609375 Z M 10.636719 188.609375 Z M 10.285156 189.300781 C 9.332031 189.414062 9.050781 190.558594 8.980469 191.328125 L 8.980469 191.636719 L 8.960938 191.660156 L 8.960938 193.234375 C 9.027344 194.050781 9.085938 195.105469 9.832031 195.648438 C 10.523438 196.125 11.441406 195.59375 11.636719 194.855469 C 11.839844 194.3125 11.886719 193.777344 11.929688 193.234375 L 11.929688 191.660156 C 11.863281 190.832031 11.75 189.675781 10.796875 189.34375 L 10.71875 189.324219 L 10.695312 189.300781 L 10.59375 189.300781 L 10.570312 189.277344 L 10.308594 189.277344 Z M 10.285156 189.300781 Z M 10.285156 189.300781 "/>
<path style=" stroke:none;fill-rule:nonzero;fill:rgb(0%,0%,0%);fill-opacity:1;" d="M 15.320312 195.34375 L 15.320312 196.25 L 14.402344 196.25 L 14.402344 195.34375 Z M 15.320312 195.34375 Z M 15.320312 195.34375 "/>
<path style=" stroke:none;fill-rule:nonzero;fill:rgb(0%,0%,0%);fill-opacity:1;" d="M 20.183594 188.609375 C 20.480469 188.652344 20.820312 188.6875 21.101562 188.824219 L 21.101562 189.480469 C 20.320312 189.140625 19.300781 189.097656 18.6875 189.789062 C 18.144531 190.367188 17.894531 191.226562 17.871094 191.988281 C 18.53125 191.113281 20.015625 190.625 20.820312 191.535156 C 21.625 192.464844 21.761719 193.800781 21.398438 194.933594 C 21 195.84375 20.082031 196.667969 19.0625 196.476562 C 17.679688 196.363281 17.054688 194.820312 16.988281 193.640625 C 16.726562 191.976562 17.125 189.878906 18.710938 188.925781 L 18.734375 188.914062 L 18.972656 188.789062 L 19.039062 188.765625 L 19.074219 188.746094 L 19.265625 188.6875 L 19.425781 188.640625 L 19.527344 188.621094 L 19.652344 188.621094 L 19.675781 188.609375 Z M 20.183594 188.609375 Z M 19.074219 191.761719 C 18.085938 191.929688 17.769531 193.121094 17.894531 193.925781 C 17.953125 194.6875 18.246094 195.695312 19.117188 195.855469 C 20.046875 195.976562 20.648438 194.980469 20.671875 194.175781 C 20.71875 193.359375 20.671875 192.429688 19.957031 191.894531 L 19.800781 191.816406 L 19.675781 191.78125 L 19.574219 191.761719 L 19.550781 191.738281 L 19.097656 191.738281 Z M 19.074219 191.761719 Z M 19.074219 191.761719 "/>
<path style=" stroke:none;fill-rule:nonzero;fill:rgb(0%,0%,0%);fill-opacity:1;" d="M 6.941406 170.316406 L 6.941406 170.953125 L 3.972656 170.953125 L 3.972656 170.316406 Z M 6.941406 170.316406 Z M 6.941406 170.316406 "/>
<path style=" stroke:none;fill-rule:nonzero;fill:rgb(0%,0%,0%);fill-opacity:1;" d="M 10.636719 165.484375 C 11.714844 165.566406 12.429688 166.550781 12.621094 167.550781 C 12.722656 168.003906 12.746094 168.433594 12.792969 168.886719 L 12.792969 170.042969 C 12.734375 171.222656 12.453125 172.777344 11.171875 173.253906 C 10.058594 173.695312 8.753906 173.003906 8.425781 171.871094 C 8.175781 171.269531 8.15625 170.65625 8.097656 170.042969 L 8.097656 168.886719 C 8.15625 167.707031 8.402344 166.144531 9.675781 165.621094 L 9.730469 165.597656 L 9.777344 165.589844 L 9.832031 165.566406 L 10.003906 165.519531 L 10.105469 165.496094 L 10.230469 165.496094 L 10.253906 165.484375 Z M 10.636719 165.484375 Z M 10.285156 166.175781 C 9.332031 166.292969 9.050781 167.4375 8.980469 168.207031 L 8.980469 168.511719 L 8.960938 168.535156 L 8.960938 170.113281 C 9.027344 170.929688 9.085938 171.984375 9.832031 172.527344 C 10.523438 173.003906 11.441406 172.46875 11.636719 171.734375 C 11.839844 171.1875 11.886719 170.65625 11.929688 170.113281 L 11.929688 168.535156 C 11.863281 167.707031 11.75 166.550781 10.796875 166.222656 L 10.71875 166.199219 L 10.695312 166.175781 L 10.59375 166.175781 L 10.570312 166.15625 L 10.308594 166.15625 Z M 10.285156 166.175781 Z M 10.285156 166.175781 "/>
<path style=" stroke:none;fill-rule:nonzero;fill:rgb(0%,0%,0%);fill-opacity:1;" d="M 15.320312 172.222656 L 15.320312 173.128906 L 14.402344 173.128906 L 14.402344 172.222656 Z M 15.320312 172.222656 Z M 15.320312 172.222656 "/>
<path style=" stroke:none;fill-rule:nonzero;fill:rgb(0%,0%,0%);fill-opacity:1;" d="M 20.617188 165.722656 L 20.617188 170.496094 L 20.636719 170.519531 L 21.761719 170.519531 L 21.761719 171.199219 L 20.636719 171.199219 L 20.617188 171.210938 L 20.617188 173.128906 L 19.753906 173.128906 L 19.753906 171.210938 L 19.730469 171.199219 L 16.738281 171.199219 L 16.738281 170.496094 C 17.691406 168.910156 18.644531 167.3125 19.59375 165.722656 Z M 20.617188 165.722656 Z M 19.777344 166.15625 C 19.550781 167.335938 18.824219 168.34375 18.28125 169.375 C 18.066406 169.75 17.78125 170.15625 17.621094 170.519531 L 19.800781 170.519531 L 19.8125 170.496094 L 19.8125 166.15625 L 19.800781 166.132812 Z M 19.777344 166.15625 Z M 19.777344 166.15625 "/>
<path style=" stroke:none;fill-rule:nonzero;fill:rgb(0%,0%,0%);fill-opacity:1;" d="M 6.941406 147.195312 L 6.941406 147.828125 L 3.972656 147.828125 L 3.972656 147.195312 Z M 6.941406 147.195312 Z M 6.941406 147.195312 "/>
<path style=" stroke:none;fill-rule:nonzero;fill:rgb(0%,0%,0%);fill-opacity:1;" d="M 10.636719 142.363281 C 11.714844 142.441406 12.429688 143.429688 12.621094 144.425781 C 12.722656 144.882812 12.746094 145.3125 12.792969 145.765625 L 12.792969 146.921875 C 12.734375 148.101562 12.453125 149.65625 11.171875 150.128906 C 10.058594 150.574219 8.753906 149.882812 8.425781 148.746094 C 8.175781 148.144531 8.15625 147.535156 8.097656 146.921875 L 8.097656 145.765625 C 8.15625 144.585938 8.402344 143.019531 9.675781 142.5 L 9.730469 142.476562 L 9.777344 142.464844 L 9.832031 142.441406 L 10.003906 142.398438 L 10.105469 142.375 L 10.230469 142.375 L 10.253906 142.363281 Z M 10.636719 142.363281 Z M 10.285156 143.054688 C 9.332031 143.167969 9.050781 144.3125 8.980469 145.085938 L 8.980469 145.390625 L 8.960938 145.414062 L 8.960938 146.988281 C 9.027344 147.804688 9.085938 148.859375 9.832031 149.40625 C 10.523438 149.882812 11.441406 149.347656 11.636719 148.613281 C 11.839844 148.066406 11.886719 147.535156 11.929688 146.988281 L 11.929688 145.414062 C 11.863281 144.585938 11.75 143.429688 10.796875 143.101562 L 10.71875 143.078125 L 10.695312 143.054688 L 10.59375 143.054688 L 10.570312 143.03125 L 10.308594 143.03125 Z M 10.285156 143.054688 Z M 10.285156 143.054688 "/>
<path style=" stroke:none;fill-rule:nonzero;fill:rgb(0%,0%,0%);fill-opacity:1;" d="M 15.320312 149.097656 L 15.320312 150.007812 L 14.402344 150.007812 L 14.402344 149.097656 Z M 15.320312 149.097656 Z M 15.320312 149.097656 "/>
<path style=" stroke:none;fill-rule:nonzero;fill:rgb(0%,0%,0%);fill-opacity:1;" d="M 19.324219 142.363281 C 20.636719 142.398438 21.679688 143.746094 21.476562 145.015625 C 21.339844 146.285156 20.152344 147.011719 19.300781 147.804688 L 18.9375 148.179688 L 18.890625 148.203125 L 18.4375 148.644531 L 18.40625 148.667969 L 17.953125 149.121094 L 17.90625 149.144531 L 17.804688 149.246094 L 17.828125 149.257812 L 21.5 149.257812 L 21.5 150.007812 L 17.011719 150.007812 L 17.011719 149.324219 L 18.835938 147.5 C 19.707031 146.742188 20.730469 145.753906 20.570312 144.507812 C 20.480469 143.78125 19.867188 143.113281 19.117188 143.054688 C 18.359375 142.941406 17.691406 143.542969 17.519531 144.269531 L 17.496094 144.300781 L 17.476562 144.382812 L 17.371094 144.757812 L 17.363281 144.8125 C 17.203125 144.621094 17.03125 144.417969 16.90625 144.199219 C 17.136719 143.269531 17.882812 142.398438 18.871094 142.363281 Z M 19.324219 142.363281 Z M 19.324219 142.363281 "/>
<path style=" stroke:none;fill-rule:nonzero;fill:rgb(0%,0%,0%);fill-opacity:1;" d="M 10.636719 119.242188 C 11.714844 119.320312 12.429688 120.308594 12.621094 121.304688 C 12.722656 121.757812 12.746094 122.191406 12.792969 122.644531 L 12.792969 123.800781 C 12.734375 124.980469 12.453125 126.53125 11.171875 127.007812 C 10.058594 127.449219 8.753906 126.757812 8.425781 125.625 C 8.175781 125.023438 8.15625 124.410156 8.097656 123.800781 L 8.097656 122.644531 C 8.15625 121.464844 8.402344 119.898438 9.675781 119.378906 L 9.730469 119.355469 L 9.777344 119.34375 L 9.832031 119.320312 L 10.003906 119.277344 L 10.105469 119.253906 L 10.230469 119.253906 L 10.253906 119.242188 Z M 10.636719 119.242188 Z M 10.285156 119.933594 C 9.332031 120.046875 9.050781 121.191406 8.980469 121.960938 L 8.980469 122.269531 L 8.960938 122.292969 L 8.960938 123.867188 C 9.027344 124.683594 9.085938 125.738281 9.832031 126.28125 C 10.523438 126.757812 11.441406 126.226562 11.636719 125.488281 C 11.839844 124.945312 11.886719 124.410156 11.929688 123.867188 L 11.929688 122.292969 C 11.863281 121.464844 11.75 120.308594 10.796875 119.980469 L 10.71875 119.957031 L 10.695312 119.933594 L 10.59375 119.933594 L 10.570312 119.910156 L 10.308594 119.910156 Z M 10.285156 119.933594 Z M 10.285156 119.933594 "/>
<path style=" stroke:none;fill-rule:nonzero;fill:rgb(0%,0%,0%);fill-opacity:1;" d="M 15.320312 125.976562 L 15.320312 126.882812 L 14.402344 126.882812 L 14.402344 125.976562 Z M 15.320312 125.976562 Z M 15.320312 125.976562 "/>
<path style=" stroke:none;fill-rule:nonzero;fill:rgb(0%,0%,0%);fill-opacity:1;" d="M 19.449219 119.242188 C 20.523438 119.320312 21.238281 120.308594 21.433594 121.304688 C 21.535156 121.757812 21.558594 122.191406 21.601562 122.644531 L 21.601562 123.800781 C 21.546875 124.980469 21.261719 126.53125 19.980469 127.007812 C 18.871094 127.449219 17.566406 126.757812 17.238281 125.625 C 16.988281 125.023438 16.964844 124.410156 16.90625 123.800781 L 16.90625 122.644531 C 16.964844 121.464844 17.214844 119.898438 18.484375 119.378906 L 18.539062 119.355469 L 18.585938 119.34375 L 18.644531 119.320312 L 18.8125 119.277344 L 18.914062 119.253906 L 19.039062 119.253906 L 19.0625 119.242188 Z M 19.449219 119.242188 Z M 19.097656 119.933594 C 18.144531 120.046875 17.859375 121.191406 17.792969 121.960938 L 17.792969 122.269531 L 17.769531 122.292969 L 17.769531 123.867188 C 17.835938 124.683594 17.894531 125.738281 18.644531 126.28125 C 19.335938 126.757812 20.253906 126.226562 20.445312 125.488281 C 20.648438 124.945312 20.695312 124.410156 20.742188 123.867188 L 20.742188 122.292969 C 20.671875 121.464844 20.558594 120.308594 19.605469 119.980469 L 19.527344 119.957031 L 19.503906 119.933594 L 19.402344 119.933594 L 19.378906 119.910156 L 19.117188 119.910156 Z M 19.097656 119.933594 Z M 19.097656 119.933594 "/>
<path style=" stroke:none;fill-rule:nonzero;fill:rgb(0%,0%,0%);fill-opacity:1;" d="M 10.636719 96.121094 C 11.714844 96.199219 12.429688 97.183594 12.621094 98.183594 C 12.722656 98.636719 12.746094 99.066406 12.792969 99.519531 L 12.792969 100.675781 C 12.734375 101.855469 12.453125 103.410156 11.171875 103.886719 C 10.058594 104.328125 8.753906 103.636719 8.425781 102.503906 C 8.175781 101.902344 8.15625 101.289062 8.097656 100.675781 L 8.097656 99.519531 C 8.15625 98.339844 8.402344 96.777344 9.675781 96.253906 L 9.730469 96.234375 L 9.777344 96.222656 L 9.832031 96.199219 L 10.003906 96.152344 L 10.105469 96.128906 L 10.230469 96.128906 L 10.253906 96.121094 Z M 10.636719 96.121094 Z M 10.285156 96.8125 C 9.332031 96.925781 9.050781 98.070312 8.980469 98.839844 L 8.980469 99.148438 L 8.960938 99.167969 L 8.960938 100.746094 C 9.027344 101.5625 9.085938 102.617188 9.832031 103.160156 C 10.523438 103.636719 11.441406 103.105469 11.636719 102.367188 C 11.839844 101.824219 11.886719 101.289062 11.929688 100.746094 L 11.929688 99.167969 C 11.863281 98.339844 11.75 97.183594 10.796875 96.855469 L 10.71875 96.832031 L 10.695312 96.8125 L 10.59375 96.8125 L 10.570312 96.789062 L 10.308594 96.789062 Z M 10.285156 96.8125 Z M 10.285156 96.8125 "/>
<path style=" stroke:none;fill-rule:nonzero;fill:rgb(0%,0%,0%);fill-opacity:1;" d="M 15.320312 102.855469 L 15.320312 103.761719 L 14.402344 103.761719 L 14.402344 102.855469 Z M 15.320312 102.855469 Z M 15.320312 102.855469 "/>
<path style=" stroke:none;fill-rule:nonzero;fill:rgb(0%,0%,0%);fill-opacity:1;" d="M 19.324219 96.121094 C 20.636719 96.152344 21.679688 97.503906 21.476562 98.773438 C 21.339844 100.042969 20.152344 100.769531 19.300781 101.5625 L 18.9375 101.9375 L 18.890625 101.957031 L 18.4375 102.402344 L 18.40625 102.421875 L 17.953125 102.878906 L 17.90625 102.898438 L 17.804688 103 L 17.828125 103.011719 L 21.5 103.011719 L 21.5 103.761719 L 17.011719 103.761719 L 17.011719 103.082031 L 18.835938 101.253906 C 19.707031 100.496094 20.730469 99.507812 20.570312 98.261719 C 20.480469 97.535156 19.867188 96.867188 19.117188 96.8125 C 18.359375 96.699219 17.691406 97.296875 17.519531 98.023438 L 17.496094 98.058594 L 17.476562 98.136719 L 17.371094 98.511719 L 17.363281 98.570312 C 17.203125 98.375 17.03125 98.171875 16.90625 97.957031 C 17.136719 97.027344 17.882812 96.152344 18.871094 96.121094 Z M 19.324219 96.121094 Z M 19.324219 96.121094 "/>
<path style=" stroke:none;fill-rule:nonzero;fill:rgb(0%,0%,0%);fill-opacity:1;" d="M 10.636719 72.996094 C 11.714844 73.078125 12.429688 74.0625 12.621094 75.0625 C 12.722656 75.515625 12.746094 75.945312 12.792969 76.398438 L 12.792969 77.554688 C 12.734375 78.734375 12.453125 80.289062 11.171875 80.765625 C 10.058594 81.207031 8.753906 80.515625 8.425781 79.378906 C 8.175781 78.78125 8.15625 78.167969 8.097656 77.554688 L 8.097656 76.398438 C 8.15625 75.21875 8.402344 73.65625 9.675781 73.132812 L 9.730469 73.109375 L 9.777344 73.097656 L 9.832031 73.078125 L 10.003906 73.03125 L 10.105469 73.007812 L 10.230469 73.007812 L 10.253906 72.996094 Z M 10.636719 72.996094 Z M 10.285156 73.6875 C 9.332031 73.800781 9.050781 74.949219 8.980469 75.71875 L 8.980469 76.023438 L 8.960938 76.046875 L 8.960938 77.625 C 9.027344 78.441406 9.085938 79.496094 9.832031 80.039062 C 10.523438 80.515625 11.441406 79.980469 11.636719 79.246094 C 11.839844 78.699219 11.886719 78.167969 11.929688 77.625 L 11.929688 76.046875 C 11.863281 75.21875 11.75 74.0625 10.796875 73.734375 L 10.71875 73.710938 L 10.695312 73.6875 L 10.59375 73.6875 L 10.570312 73.667969 L 10.308594 73.667969 Z M 10.285156 73.6875 Z M 10.285156 73.6875 "/>
<path style=" stroke:none;fill-rule:nonzero;fill:rgb(0%,0%,0%);fill-opacity:1;" d="M 15.320312 79.730469 L 15.320312 80.640625 L 14.402344 80.640625 L 14.402344 79.730469 Z M 15.320312 79.730469 Z M 15.320312 79.730469 "/>
<path style=" stroke:none;fill-rule:nonzero;fill:rgb(0%,0%,0%);fill-opacity:1;" d="M 20.617188 73.234375 L 20.617188 78.007812 L 20.636719 78.03125 L 21.761719 78.03125 L 21.761719 78.710938 L 20.636719 78.710938 L 20.617188 78.722656 L 20.617188 80.640625 L 19.753906 80.640625 L 19.753906 78.722656 L 19.730469 78.710938 L 16.738281 78.710938 L 16.738281 78.007812 C 17.691406 76.421875 18.644531 74.824219 19.59375 73.234375 Z M 20.617188 73.234375 Z M 19.777344 73.667969 C 19.550781 74.84375 18.824219 75.855469 18.28125 76.886719 C 18.066406 77.261719 17.78125 77.667969 17.621094 78.03125 L 19.800781 78.03125 L 19.8125 78.007812 L 19.8125 73.667969 L 19.800781 73.644531 Z M 19.777344 73.667969 Z M 19.777344 73.667969 "/>
<path style=" stroke:none;fill-rule:nonzero;fill:rgb(0%,0%,0%);fill-opacity:1;" d="M 10.636719 49.875 C 11.714844 49.953125 12.429688 50.941406 12.621094 51.9375 C 12.722656 52.390625 12.746094 52.824219 12.792969 53.277344 L 12.792969 54.433594 C 12.734375 55.613281 12.453125 57.164062 11.171875 57.640625 C 10.058594 58.085938 8.753906 57.390625 8.425781 56.257812 C 8.175781 55.65625 8.15625 55.046875 8.097656 54.433594 L 8.097656 53.277344 C 8.15625 52.097656 8.402344 50.53125 9.675781 50.011719 L 9.730469 49.988281 L 9.777344 49.976562 L 9.832031 49.953125 L 10.003906 49.910156 L 10.105469 49.886719 L 10.230469 49.886719 L 10.253906 49.875 Z M 10.636719 49.875 Z M 10.285156 50.566406 C 9.332031 50.679688 9.050781 51.824219 8.980469 52.597656 L 8.980469 52.902344 L 8.960938 52.925781 L 8.960938 54.5 C 9.027344 55.316406 9.085938 56.371094 9.832031 56.917969 C 10.523438 57.390625 11.441406 56.859375 11.636719 56.121094 C 11.839844 55.578125 11.886719 55.046875 11.929688 54.5 L 11.929688 52.925781 C 11.863281 52.097656 11.75 50.941406 10.796875 50.613281 L 10.71875 50.589844 L 10.695312 50.566406 L 10.59375 50.566406 L 10.570312 50.542969 L 10.308594 50.542969 Z M 10.285156 50.566406 Z M 10.285156 50.566406 "/>
<path style=" stroke:none;fill-rule:nonzero;fill:rgb(0%,0%,0%);fill-opacity:1;" d="M 15.320312 56.609375 L 15.320312 57.515625 L 14.402344 57.515625 L 14.402344 56.609375 Z M 15.320312 56.609375 Z M 15.320312 56.609375 "/>
<path style=" stroke:none;fill-rule:nonzero;fill:rgb(0%,0%,0%);fill-opacity:1;" d="M 20.183594 49.875 C 20.480469 49.921875 20.820312 49.953125 21.101562 50.089844 L 21.101562 50.746094 C 20.320312 50.40625 19.300781 50.363281 18.6875 51.054688 C 18.144531 51.632812 17.894531 52.496094 17.871094 53.253906 C 18.53125 52.378906 20.015625 51.894531 20.820312 52.800781 C 21.625 53.730469 21.761719 55.066406 21.398438 56.203125 C 21 57.109375 20.082031 57.9375 19.0625 57.742188 C 17.679688 57.628906 17.054688 56.089844 16.988281 54.910156 C 16.726562 53.242188 17.125 51.144531 18.710938 50.191406 L 18.734375 50.179688 L 18.972656 50.054688 L 19.039062 50.035156 L 19.074219 50.011719 L 19.265625 49.953125 L 19.425781 49.910156 L 19.527344 49.886719 L 19.652344 49.886719 L 19.675781 49.875 Z M 20.183594 49.875 Z M 19.074219 53.027344 C 18.085938 53.195312 17.769531 54.386719 17.894531 55.191406 C 17.953125 55.953125 18.246094 56.960938 19.117188 57.121094 C 20.046875 57.246094 20.648438 56.246094 20.671875 55.441406 C 20.71875 54.625 20.671875 53.695312 19.957031 53.164062 L 19.800781 53.082031 L 19.675781 53.050781 L 19.574219 53.027344 L 19.550781 53.003906 L 19.097656 53.003906 Z M 19.074219 53.027344 Z M 19.074219 53.027344 "/>
<path style=" stroke:none;fill-rule:nonzero;fill:rgb(0%,0%,0%);fill-opacity:1;" d="M 10.636719 26.753906 C 11.714844 26.832031 12.429688 27.820312 12.621094 28.816406 C 12.722656 29.269531 12.746094 29.699219 12.792969 30.15625 L 12.792969 31.3125 C 12.734375 32.488281 12.453125 34.042969 11.171875 34.519531 C 10.058594 34.960938 8.753906 34.269531 8.425781 33.136719 C 8.175781 32.535156 8.15625 31.921875 8.097656 31.3125 L 8.097656 30.15625 C 8.15625 28.976562 8.402344 27.410156 9.675781 26.890625 L 9.730469 26.867188 L 9.777344 26.855469 L 9.832031 26.832031 L 10.003906 26.785156 L 10.105469 26.765625 L 10.230469 26.765625 L 10.253906 26.753906 Z M 10.636719 26.753906 Z M 10.285156 27.445312 C 9.332031 27.558594 9.050781 28.703125 8.980469 29.472656 L 8.980469 29.78125 L 8.960938 29.804688 L 8.960938 31.378906 C 9.027344 32.195312 9.085938 33.25 9.832031 33.792969 C 10.523438 34.269531 11.441406 33.738281 11.636719 33 C 11.839844 32.457031 11.886719 31.921875 11.929688 31.378906 L 11.929688 29.804688 C 11.863281 28.976562 11.75 27.820312 10.796875 27.488281 L 10.71875 27.46875 L 10.695312 27.445312 L 10.59375 27.445312 L 10.570312 27.421875 L 10.308594 27.421875 Z M 10.285156 27.445312 Z M 10.285156 27.445312 "/>
<path style=" stroke:none;fill-rule:nonzero;fill:rgb(0%,0%,0%);fill-opacity:1;" d="M 15.320312 33.488281 L 15.320312 34.394531 L 14.402344 34.394531 L 14.402344 33.488281 Z M 15.320312 33.488281 Z M 15.320312 33.488281 "/>
<path style=" stroke:none;fill-rule:nonzero;fill:rgb(0%,0%,0%);fill-opacity:1;" d="M 19.46875 26.753906 C 20.671875 26.796875 21.804688 28.089844 21.332031 29.292969 C 21.125 29.847656 20.558594 30.1875 20.09375 30.425781 C 21.25 30.765625 21.953125 32.117188 21.433594 33.226562 C 20.886719 34.667969 18.824219 35.121094 17.691406 34.078125 C 16.660156 33.261719 16.625 31.492188 17.769531 30.765625 C 17.941406 30.585938 18.257812 30.527344 18.40625 30.390625 C 17.417969 30.109375 16.75 28.964844 17.214844 28 C 17.589844 27.136719 18.550781 26.660156 19.46875 26.753906 Z M 19.46875 26.753906 Z M 19.039062 27.398438 C 18.199219 27.421875 17.609375 28.375 17.894531 29.121094 C 18.222656 30.414062 20.390625 30.371094 20.636719 29.042969 C 20.863281 28.304688 20.277344 27.421875 19.46875 27.398438 L 19.449219 27.386719 L 19.0625 27.386719 Z M 19.039062 27.398438 Z M 19.0625 30.765625 C 18.074219 30.835938 17.589844 32.015625 17.847656 32.851562 C 18.019531 34.042969 19.71875 34.394531 20.390625 33.441406 C 21.035156 32.570312 20.71875 31.003906 19.550781 30.765625 L 19.449219 30.765625 L 19.425781 30.742188 L 19.074219 30.742188 Z M 19.0625 30.765625 Z M 19.0625 30.765625 "/>
<path style=" stroke:none;fill-rule:nonzero;fill:rgb(0%,0%,0%);fill-opacity:1;" d="M 10.988281 3.628906 L 10.988281 10.625 L 11 10.648438 L 12.394531 10.648438 L 12.394531 11.273438 L 8.710938 11.273438 L 8.710938 10.648438 L 10.105469 10.648438 L 10.128906 10.625 L 10.128906 4.753906 C 9.652344 4.910156 9.152344 5.015625 8.652344 5.003906 L 8.652344 4.367188 C 9.402344 4.378906 10.21875 4.175781 10.785156 3.628906 Z M 10.988281 3.628906 Z M 10.988281 3.628906 "/>
<path style=" stroke:none;fill-rule:nonzero;fill:rgb(0%,0%,0%);fill-opacity:1;" d="M 15.320312 10.367188 L 15.320312 11.273438 L 14.402344 11.273438 L 14.402344 10.367188 Z M 15.320312 10.367188 Z M 15.320312 10.367188 "/>
<path style=" stroke:none;fill-rule:nonzero;fill:rgb(0%,0%,0%);fill-opacity:1;" d="M 19.449219 3.628906 C 20.523438 3.710938 21.238281 4.695312 21.433594 5.695312 C 21.535156 6.148438 21.558594 6.578125 21.601562 7.03125 L 21.601562 8.1875 C 21.546875 9.367188 21.261719 10.921875 19.980469 11.398438 C 18.871094 11.839844 17.566406 11.148438 17.238281 10.015625 C 16.988281 9.414062 16.964844 8.800781 16.90625 8.1875 L 16.90625 7.03125 C 16.964844 5.851562 17.214844 4.289062 18.484375 3.765625 L 18.539062 3.742188 L 18.585938 3.734375 L 18.644531 3.710938 L 18.8125 3.664062 L 18.914062 3.640625 L 19.039062 3.640625 L 19.0625 3.628906 Z M 19.449219 3.628906 Z M 19.097656 4.320312 C 18.144531 4.4375 17.859375 5.582031 17.792969 6.351562 L 17.792969 6.65625 L 17.769531 6.679688 L 17.769531 8.257812 C 17.835938 9.074219 17.894531 10.128906 18.644531 10.671875 C 19.335938 11.148438 20.253906 10.613281 20.445312 9.878906 C 20.648438 9.332031 20.695312 8.800781 20.742188 8.257812 L 20.742188 6.679688 C 20.671875 5.851562 20.558594 4.695312 19.605469 4.367188 L 19.527344 4.34375 L 19.503906 4.320312 L 19.402344 4.320312 L 19.378906 4.300781 L 19.117188 4.300781 Z M 19.097656 4.320312 Z M 19.097656 4.320312 "/>
<path style="fill:none;stroke-width:0.02;stroke-linecap:butt;stroke-linejoin:miter;stroke:rgb(0%,0%,0%);stroke-opacity:1;stroke-miterlimit:10;" d="M 11.644561 1.42768 L 11.49463 1.42768 " transform="matrix(28.346457,0,0,-28.346457,1,256.11811)"/>
<path style="fill:none;stroke-width:0.02;stroke-linecap:butt;stroke-linejoin:miter;stroke:rgb(0%,0%,0%);stroke-opacity:1;stroke-miterlimit:10;" d="M 11.644561 2.243341 L 11.49463 2.243341 " transform="matrix(28.346457,0,0,-28.346457,1,256.11811)"/>
<path style="fill:none;stroke-width:0.02;stroke-linecap:butt;stroke-linejoin:miter;stroke:rgb(0%,0%,0%);stroke-opacity:1;stroke-miterlimit:10;" d="M 11.644561 3.05914 L 11.49463 3.05914 " transform="matrix(28.346457,0,0,-28.346457,1,256.11811)"/>
<path style="fill:none;stroke-width:0.02;stroke-linecap:butt;stroke-linejoin:miter;stroke:rgb(0%,0%,0%);stroke-opacity:1;stroke-miterlimit:10;" d="M 11.644561 3.8748 L 11.49463 3.8748 " transform="matrix(28.346457,0,0,-28.346457,1,256.11811)"/>
<path style="fill:none;stroke-width:0.02;stroke-linecap:butt;stroke-linejoin:miter;stroke:rgb(0%,0%,0%);stroke-opacity:1;stroke-miterlimit:10;" d="M 11.644561 4.690461 L 11.49463 4.690461 " transform="matrix(28.346457,0,0,-28.346457,1,256.11811)"/>
<path style="fill:none;stroke-width:0.02;stroke-linecap:butt;stroke-linejoin:miter;stroke:rgb(0%,0%,0%);stroke-opacity:1;stroke-miterlimit:10;" d="M 11.644561 5.50626 L 11.49463 5.50626 " transform="matrix(28.346457,0,0,-28.346457,1,256.11811)"/>
<path style="fill:none;stroke-width:0.02;stroke-linecap:butt;stroke-linejoin:miter;stroke:rgb(0%,0%,0%);stroke-opacity:1;stroke-miterlimit:10;" d="M 11.644561 6.321921 L 11.49463 6.321921 " transform="matrix(28.346457,0,0,-28.346457,1,256.11811)"/>
<path style="fill:none;stroke-width:0.02;stroke-linecap:butt;stroke-linejoin:miter;stroke:rgb(0%,0%,0%);stroke-opacity:1;stroke-miterlimit:10;" d="M 11.644561 7.137581 L 11.49463 7.137581 " transform="matrix(28.346457,0,0,-28.346457,1,256.11811)"/>
<path style="fill:none;stroke-width:0.02;stroke-linecap:butt;stroke-linejoin:miter;stroke:rgb(0%,0%,0%);stroke-opacity:1;stroke-miterlimit:10;" d="M 11.644561 7.953242 L 11.49463 7.953242 " transform="matrix(28.346457,0,0,-28.346457,1,256.11811)"/>
<path style="fill:none;stroke-width:0.02;stroke-linecap:round;stroke-linejoin:miter;stroke:rgb(0%,0%,0%);stroke-opacity:1;stroke-miterlimit:10;" d="M 11.644561 0.612019 L 11.644561 8.769041 " transform="matrix(28.346457,0,0,-28.346457,1,256.11811)"/>
<path style="fill:none;stroke-width:0.02;stroke-linecap:butt;stroke-linejoin:miter;stroke:rgb(0%,0%,0%);stroke-opacity:1;stroke-miterlimit:10;" d="M 2.059065 0.612019 L 2.059065 0.76195 " transform="matrix(28.346457,0,0,-28.346457,1,256.11811)"/>
<path style="fill:none;stroke-width:0.02;stroke-linecap:butt;stroke-linejoin:miter;stroke:rgb(0%,0%,0%);stroke-opacity:1;stroke-miterlimit:10;" d="M 3.12415 0.612019 L 3.12415 0.76195 " transform="matrix(28.346457,0,0,-28.346457,1,256.11811)"/>
<path style="fill:none;stroke-width:0.02;stroke-linecap:butt;stroke-linejoin:miter;stroke:rgb(0%,0%,0%);stroke-opacity:1;stroke-miterlimit:10;" d="M 4.189236 0.612019 L 4.189236 0.76195 " transform="matrix(28.346457,0,0,-28.346457,1,256.11811)"/>
<path style="fill:none;stroke-width:0.02;stroke-linecap:butt;stroke-linejoin:miter;stroke:rgb(0%,0%,0%);stroke-opacity:1;stroke-miterlimit:10;" d="M 5.254184 0.612019 L 5.254184 0.76195 " transform="matrix(28.346457,0,0,-28.346457,1,256.11811)"/>
<path style="fill:none;stroke-width:0.02;stroke-linecap:butt;stroke-linejoin:miter;stroke:rgb(0%,0%,0%);stroke-opacity:1;stroke-miterlimit:10;" d="M 6.31927 0.612019 L 6.31927 0.76195 " transform="matrix(28.346457,0,0,-28.346457,1,256.11811)"/>
<path style="fill:none;stroke-width:0.02;stroke-linecap:butt;stroke-linejoin:miter;stroke:rgb(0%,0%,0%);stroke-opacity:1;stroke-miterlimit:10;" d="M 7.384355 0.612019 L 7.384355 0.76195 " transform="matrix(28.346457,0,0,-28.346457,1,256.11811)"/>
<path style="fill:none;stroke-width:0.02;stroke-linecap:butt;stroke-linejoin:miter;stroke:rgb(0%,0%,0%);stroke-opacity:1;stroke-miterlimit:10;" d="M 8.449441 0.612019 L 8.449441 0.76195 " transform="matrix(28.346457,0,0,-28.346457,1,256.11811)"/>
<path style="fill:none;stroke-width:0.02;stroke-linecap:butt;stroke-linejoin:miter;stroke:rgb(0%,0%,0%);stroke-opacity:1;stroke-miterlimit:10;" d="M 9.514527 0.612019 L 9.514527 0.76195 " transform="matrix(28.346457,0,0,-28.346457,1,256.11811)"/>
<path style="fill:none;stroke-width:0.02;stroke-linecap:butt;stroke-linejoin:miter;stroke:rgb(0%,0%,0%);stroke-opacity:1;stroke-miterlimit:10;" d="M 10.579475 0.612019 L 10.579475 0.76195 " transform="matrix(28.346457,0,0,-28.346457,1,256.11811)"/>
<path style="fill:none;stroke-width:0.02;stroke-linecap:round;stroke-linejoin:miter;stroke:rgb(0%,0%,0%);stroke-opacity:1;stroke-miterlimit:10;" d="M 0.993979 0.612019 L 11.644561 0.612019 " transform="matrix(28.346457,0,0,-28.346457,1,256.11811)"/>
<path style=" stroke:none;fill-rule:nonzero;fill:rgb(0%,0%,0%);fill-opacity:1;" d="M 23.15625 250.484375 L 23.15625 251.117188 L 20.183594 251.117188 L 20.183594 250.484375 Z M 23.15625 250.484375 Z M 23.15625 250.484375 "/>
<path style=" stroke:none;fill-rule:nonzero;fill:rgb(0%,0%,0%);fill-opacity:1;" d="M 27.203125 245.652344 L 27.203125 252.648438 L 27.214844 252.671875 L 28.609375 252.671875 L 28.609375 253.292969 L 24.925781 253.292969 L 24.925781 252.671875 L 26.320312 252.671875 L 26.339844 252.648438 L 26.339844 246.773438 C 25.867188 246.933594 25.367188 247.035156 24.867188 247.023438 L 24.867188 246.390625 C 25.617188 246.402344 26.433594 246.195312 27 245.652344 Z M 27.203125 245.652344 Z M 27.203125 245.652344 "/>
<path style=" stroke:none;fill-rule:nonzero;fill:rgb(0%,0%,0%);fill-opacity:1;" d="M 31.535156 252.386719 L 31.535156 253.292969 L 30.617188 253.292969 L 30.617188 252.386719 Z M 31.535156 252.386719 Z M 31.535156 252.386719 "/>
<path style=" stroke:none;fill-rule:nonzero;fill:rgb(0%,0%,0%);fill-opacity:1;" d="M 35.660156 245.652344 C 36.738281 245.730469 37.453125 246.71875 37.644531 247.714844 C 37.75 248.167969 37.769531 248.601562 37.816406 249.054688 L 37.816406 250.210938 C 37.757812 251.390625 37.476562 252.941406 36.195312 253.417969 C 35.082031 253.863281 33.78125 253.171875 33.449219 252.035156 C 33.203125 251.433594 33.179688 250.824219 33.121094 250.210938 L 33.121094 249.054688 C 33.179688 247.875 33.429688 246.308594 34.699219 245.789062 L 34.753906 245.765625 L 34.800781 245.753906 L 34.855469 245.730469 L 35.027344 245.6875 L 35.128906 245.664062 L 35.253906 245.664062 L 35.277344 245.652344 Z M 35.660156 245.652344 Z M 35.3125 246.34375 C 34.359375 246.457031 34.074219 247.601562 34.007812 248.375 L 34.007812 248.679688 L 33.984375 248.703125 L 33.984375 250.277344 C 34.050781 251.09375 34.109375 252.148438 34.855469 252.695312 C 35.546875 253.171875 36.46875 252.636719 36.660156 251.898438 C 36.863281 251.355469 36.910156 250.824219 36.953125 250.277344 L 36.953125 248.703125 C 36.886719 247.875 36.773438 246.71875 35.820312 246.390625 L 35.742188 246.367188 L 35.71875 246.34375 L 35.617188 246.34375 L 35.59375 246.320312 L 35.332031 246.320312 Z M 35.3125 246.34375 Z M 35.3125 246.34375 "/>
<path style=" stroke:none;fill-rule:nonzero;fill:rgb(0%,0%,0%);fill-opacity:1;" d="M 53.347656 250.484375 L 53.347656 251.117188 L 50.375 251.117188 L 50.375 250.484375 Z M 53.347656 250.484375 Z M 53.347656 250.484375 "/>
<path style=" stroke:none;fill-rule:nonzero;fill:rgb(0%,0%,0%);fill-opacity:1;" d="M 57.042969 245.652344 C 58.121094 245.730469 58.835938 246.71875 59.027344 247.714844 C 59.128906 248.167969 59.152344 248.601562 59.195312 249.054688 L 59.195312 250.210938 C 59.140625 251.390625 58.855469 252.941406 57.574219 253.417969 C 56.464844 253.863281 55.160156 253.171875 54.832031 252.035156 C 54.582031 251.433594 54.558594 250.824219 54.503906 250.210938 L 54.503906 249.054688 C 54.558594 247.875 54.808594 246.308594 56.078125 245.789062 L 56.136719 245.765625 L 56.179688 245.753906 L 56.238281 245.730469 L 56.40625 245.6875 L 56.507812 245.664062 L 56.632812 245.664062 L 56.65625 245.652344 Z M 57.042969 245.652344 Z M 56.691406 246.34375 C 55.738281 246.457031 55.457031 247.601562 55.386719 248.375 L 55.386719 248.679688 L 55.363281 248.703125 L 55.363281 250.277344 C 55.433594 251.09375 55.488281 252.148438 56.238281 252.695312 C 56.929688 253.171875 57.847656 252.636719 58.039062 251.898438 C 58.246094 251.355469 58.289062 250.824219 58.335938 250.277344 L 58.335938 248.703125 C 58.265625 247.875 58.152344 246.71875 57.203125 246.390625 L 57.121094 246.367188 L 57.097656 246.34375 L 56.996094 246.34375 L 56.976562 246.320312 L 56.714844 246.320312 Z M 56.691406 246.34375 Z M 56.691406 246.34375 "/>
<path style=" stroke:none;fill-rule:nonzero;fill:rgb(0%,0%,0%);fill-opacity:1;" d="M 61.726562 252.386719 L 61.726562 253.292969 L 60.808594 253.292969 L 60.808594 252.386719 Z M 61.726562 252.386719 Z M 61.726562 252.386719 "/>
<path style=" stroke:none;fill-rule:nonzero;fill:rgb(0%,0%,0%);fill-opacity:1;" d="M 65.875 245.652344 C 67.078125 245.699219 68.210938 246.992188 67.734375 248.191406 C 67.53125 248.746094 66.964844 249.089844 66.5 249.328125 C 67.65625 249.667969 68.359375 251.015625 67.835938 252.125 C 67.292969 253.566406 65.230469 254.019531 64.09375 252.976562 C 63.0625 252.160156 63.03125 250.390625 64.175781 249.667969 C 64.34375 249.484375 64.664062 249.429688 64.808594 249.292969 C 63.824219 249.007812 63.152344 247.863281 63.617188 246.898438 C 63.992188 246.039062 64.957031 245.5625 65.875 245.652344 Z M 65.875 245.652344 Z M 65.445312 246.300781 C 64.605469 246.320312 64.015625 247.273438 64.300781 248.023438 C 64.628906 249.316406 66.792969 249.269531 67.042969 247.941406 C 67.269531 247.207031 66.679688 246.320312 65.875 246.300781 L 65.851562 246.289062 L 65.46875 246.289062 Z M 65.445312 246.300781 Z M 65.46875 249.667969 C 64.480469 249.734375 63.992188 250.914062 64.253906 251.753906 C 64.425781 252.941406 66.125 253.292969 66.792969 252.34375 C 67.441406 251.46875 67.121094 249.90625 65.953125 249.667969 L 65.851562 249.667969 L 65.828125 249.644531 L 65.480469 249.644531 Z M 65.46875 249.667969 Z M 65.46875 249.667969 "/>
<path style=" stroke:none;fill-rule:nonzero;fill:rgb(0%,0%,0%);fill-opacity:1;" d="M 83.535156 250.484375 L 83.535156 251.117188 L 80.566406 251.117188 L 80.566406 250.484375 Z M 83.535156 250.484375 Z M 83.535156 250.484375 "/>
<path style=" stroke:none;fill-rule:nonzero;fill:rgb(0%,0%,0%);fill-opacity:1;" d="M 87.234375 245.652344 C 88.308594 245.730469 89.023438 246.71875 89.21875 247.714844 C 89.320312 248.167969 89.34375 248.601562 89.386719 249.054688 L 89.386719 250.210938 C 89.332031 251.390625 89.046875 252.941406 87.765625 253.417969 C 86.65625 253.863281 85.351562 253.171875 85.023438 252.035156 C 84.773438 251.433594 84.75 250.824219 84.695312 250.210938 L 84.695312 249.054688 C 84.75 247.875 85 246.308594 86.269531 245.789062 L 86.328125 245.765625 L 86.371094 245.753906 L 86.429688 245.730469 L 86.597656 245.6875 L 86.699219 245.664062 L 86.824219 245.664062 L 86.847656 245.652344 Z M 87.234375 245.652344 Z M 86.882812 246.34375 C 85.929688 246.457031 85.644531 247.601562 85.578125 248.375 L 85.578125 248.679688 L 85.554688 248.703125 L 85.554688 250.277344 C 85.625 251.09375 85.679688 252.148438 86.429688 252.695312 C 87.121094 253.171875 88.039062 252.636719 88.230469 251.898438 C 88.433594 251.355469 88.480469 250.824219 88.527344 250.277344 L 88.527344 248.703125 C 88.457031 247.875 88.34375 246.71875 87.390625 246.390625 L 87.3125 246.367188 L 87.289062 246.34375 L 87.1875 246.34375 L 87.164062 246.320312 L 86.90625 246.320312 Z M 86.882812 246.34375 Z M 86.882812 246.34375 "/>
<path style=" stroke:none;fill-rule:nonzero;fill:rgb(0%,0%,0%);fill-opacity:1;" d="M 91.917969 252.386719 L 91.917969 253.292969 L 90.996094 253.292969 L 90.996094 252.386719 Z M 91.917969 252.386719 Z M 91.917969 252.386719 "/>
<path style=" stroke:none;fill-rule:nonzero;fill:rgb(0%,0%,0%);fill-opacity:1;" d="M 96.78125 245.652344 C 97.074219 245.699219 97.414062 245.730469 97.699219 245.867188 L 97.699219 246.527344 C 96.917969 246.183594 95.894531 246.140625 95.285156 246.832031 C 94.738281 247.410156 94.488281 248.273438 94.46875 249.03125 C 95.125 248.160156 96.609375 247.671875 97.414062 248.578125 C 98.21875 249.507812 98.355469 250.84375 97.992188 251.980469 C 97.597656 252.886719 96.679688 253.714844 95.65625 253.523438 C 94.273438 253.40625 93.652344 251.867188 93.582031 250.6875 C 93.320312 249.019531 93.71875 246.921875 95.304688 245.96875 L 95.328125 245.957031 L 95.566406 245.835938 L 95.636719 245.8125 L 95.667969 245.789062 L 95.863281 245.730469 L 96.019531 245.6875 L 96.121094 245.664062 L 96.246094 245.664062 L 96.269531 245.652344 Z M 96.78125 245.652344 Z M 95.667969 248.804688 C 94.683594 248.976562 94.367188 250.164062 94.488281 250.96875 C 94.546875 251.730469 94.839844 252.738281 95.714844 252.898438 C 96.644531 253.023438 97.246094 252.023438 97.269531 251.21875 C 97.3125 250.402344 97.269531 249.472656 96.554688 248.941406 L 96.394531 248.863281 L 96.269531 248.828125 L 96.167969 248.804688 L 96.144531 248.78125 L 95.691406 248.78125 Z M 95.667969 248.804688 Z M 95.667969 248.804688 "/>
<path style=" stroke:none;fill-rule:nonzero;fill:rgb(0%,0%,0%);fill-opacity:1;" d="M 113.726562 250.484375 L 113.726562 251.117188 L 110.757812 251.117188 L 110.757812 250.484375 Z M 113.726562 250.484375 Z M 113.726562 250.484375 "/>
<path style=" stroke:none;fill-rule:nonzero;fill:rgb(0%,0%,0%);fill-opacity:1;" d="M 117.425781 245.652344 C 118.5 245.730469 119.214844 246.71875 119.410156 247.714844 C 119.511719 248.167969 119.53125 248.601562 119.578125 249.054688 L 119.578125 250.210938 C 119.523438 251.390625 119.238281 252.941406 117.957031 253.417969 C 116.847656 253.863281 115.542969 253.171875 115.214844 252.035156 C 114.964844 251.433594 114.941406 250.824219 114.882812 250.210938 L 114.882812 249.054688 C 114.941406 247.875 115.191406 246.308594 116.460938 245.789062 L 116.515625 245.765625 L 116.5625 245.753906 L 116.617188 245.730469 L 116.789062 245.6875 L 116.890625 245.664062 L 117.015625 245.664062 L 117.039062 245.652344 Z M 117.425781 245.652344 Z M 117.074219 246.34375 C 116.121094 246.457031 115.835938 247.601562 115.769531 248.375 L 115.769531 248.679688 L 115.746094 248.703125 L 115.746094 250.277344 C 115.8125 251.09375 115.871094 252.148438 116.617188 252.695312 C 117.3125 253.171875 118.230469 252.636719 118.421875 251.898438 C 118.625 251.355469 118.671875 250.824219 118.714844 250.277344 L 118.714844 248.703125 C 118.648438 247.875 118.535156 246.71875 117.582031 246.390625 L 117.503906 246.367188 L 117.480469 246.34375 L 117.378906 246.34375 L 117.355469 246.320312 L 117.09375 246.320312 Z M 117.074219 246.34375 Z M 117.074219 246.34375 "/>
<path style=" stroke:none;fill-rule:nonzero;fill:rgb(0%,0%,0%);fill-opacity:1;" d="M 122.105469 252.386719 L 122.105469 253.292969 L 121.1875 253.292969 L 121.1875 252.386719 Z M 122.105469 252.386719 Z M 122.105469 252.386719 "/>
<path style=" stroke:none;fill-rule:nonzero;fill:rgb(0%,0%,0%);fill-opacity:1;" d="M 127.402344 245.890625 L 127.402344 250.664062 L 127.425781 250.6875 L 128.546875 250.6875 L 128.546875 251.367188 L 127.425781 251.367188 L 127.402344 251.378906 L 127.402344 253.292969 L 126.539062 253.292969 L 126.539062 251.378906 L 126.515625 251.367188 L 123.523438 251.367188 L 123.523438 250.664062 C 124.476562 249.078125 125.429688 247.476562 126.382812 245.890625 Z M 127.402344 245.890625 Z M 126.5625 246.320312 C 126.335938 247.5 125.609375 248.511719 125.066406 249.542969 C 124.851562 249.914062 124.566406 250.324219 124.410156 250.6875 L 126.585938 250.6875 L 126.597656 250.664062 L 126.597656 246.320312 L 126.585938 246.300781 Z M 126.5625 246.320312 Z M 126.5625 246.320312 "/>
<path style=" stroke:none;fill-rule:nonzero;fill:rgb(0%,0%,0%);fill-opacity:1;" d="M 143.917969 250.484375 L 143.917969 251.117188 L 140.949219 251.117188 L 140.949219 250.484375 Z M 143.917969 250.484375 Z M 143.917969 250.484375 "/>
<path style=" stroke:none;fill-rule:nonzero;fill:rgb(0%,0%,0%);fill-opacity:1;" d="M 147.613281 245.652344 C 148.691406 245.730469 149.40625 246.71875 149.597656 247.714844 C 149.699219 248.167969 149.722656 248.601562 149.769531 249.054688 L 149.769531 250.210938 C 149.710938 251.390625 149.429688 252.941406 148.148438 253.417969 C 147.035156 253.863281 145.734375 253.171875 145.402344 252.035156 C 145.152344 251.433594 145.132812 250.824219 145.074219 250.210938 L 145.074219 249.054688 C 145.132812 247.875 145.382812 246.308594 146.652344 245.789062 L 146.707031 245.765625 L 146.753906 245.753906 L 146.808594 245.730469 L 146.980469 245.6875 L 147.082031 245.664062 L 147.207031 245.664062 L 147.230469 245.652344 Z M 147.613281 245.652344 Z M 147.261719 246.34375 C 146.3125 246.457031 146.027344 247.601562 145.960938 248.375 L 145.960938 248.679688 L 145.9375 248.703125 L 145.9375 250.277344 C 146.003906 251.09375 146.0625 252.148438 146.808594 252.695312 C 147.5 253.171875 148.417969 252.636719 148.613281 251.898438 C 148.816406 251.355469 148.863281 250.824219 148.90625 250.277344 L 148.90625 248.703125 C 148.839844 247.875 148.726562 246.71875 147.773438 246.390625 L 147.695312 246.367188 L 147.671875 246.34375 L 147.570312 246.34375 L 147.546875 246.320312 L 147.285156 246.320312 Z M 147.261719 246.34375 Z M 147.261719 246.34375 "/>
<path style=" stroke:none;fill-rule:nonzero;fill:rgb(0%,0%,0%);fill-opacity:1;" d="M 152.296875 252.386719 L 152.296875 253.292969 L 151.378906 253.292969 L 151.378906 252.386719 Z M 152.296875 252.386719 Z M 152.296875 252.386719 "/>
<path style=" stroke:none;fill-rule:nonzero;fill:rgb(0%,0%,0%);fill-opacity:1;" d="M 156.300781 245.652344 C 157.617188 245.6875 158.660156 247.035156 158.453125 248.304688 C 158.316406 249.574219 157.128906 250.300781 156.277344 251.09375 L 155.914062 251.46875 L 155.871094 251.492188 L 155.414062 251.933594 L 155.382812 251.957031 L 154.929688 252.410156 L 154.882812 252.433594 L 154.78125 252.535156 L 154.804688 252.546875 L 158.476562 252.546875 L 158.476562 253.292969 L 153.988281 253.292969 L 153.988281 252.613281 L 155.8125 250.789062 C 156.683594 250.027344 157.707031 249.042969 157.546875 247.796875 C 157.457031 247.070312 156.84375 246.402344 156.097656 246.34375 C 155.335938 246.230469 154.667969 246.832031 154.496094 247.558594 L 154.472656 247.589844 L 154.453125 247.671875 L 154.417969 247.796875 L 154.351562 248.046875 L 154.339844 248.101562 C 154.179688 247.910156 154.007812 247.703125 153.886719 247.488281 C 154.113281 246.558594 154.859375 245.6875 155.847656 245.652344 Z M 156.300781 245.652344 Z M 156.300781 245.652344 "/>
<path style=" stroke:none;fill-rule:nonzero;fill:rgb(0%,0%,0%);fill-opacity:1;" d="M 175.917969 245.652344 C 176.996094 245.730469 177.707031 246.71875 177.902344 247.714844 C 178.003906 248.167969 178.027344 248.601562 178.070312 249.054688 L 178.070312 250.210938 C 178.015625 251.390625 177.730469 252.941406 176.449219 253.417969 C 175.339844 253.863281 174.035156 253.171875 173.707031 252.035156 C 173.457031 251.433594 173.433594 250.824219 173.378906 250.210938 L 173.378906 249.054688 C 173.433594 247.875 173.683594 246.308594 174.953125 245.789062 L 175.011719 245.765625 L 175.054688 245.753906 L 175.113281 245.730469 L 175.28125 245.6875 L 175.382812 245.664062 L 175.507812 245.664062 L 175.53125 245.652344 Z M 175.917969 245.652344 Z M 175.566406 246.34375 C 174.613281 246.457031 174.332031 247.601562 174.261719 248.375 L 174.261719 248.679688 L 174.238281 248.703125 L 174.238281 250.277344 C 174.308594 251.09375 174.363281 252.148438 175.113281 252.695312 C 175.804688 253.171875 176.722656 252.636719 176.914062 251.898438 C 177.121094 251.355469 177.164062 250.824219 177.210938 250.277344 L 177.210938 248.703125 C 177.140625 247.875 177.027344 246.71875 176.078125 246.390625 L 175.996094 246.367188 L 175.972656 246.34375 L 175.871094 246.34375 L 175.847656 246.320312 L 175.589844 246.320312 Z M 175.566406 246.34375 Z M 175.566406 246.34375 "/>
<path style=" stroke:none;fill-rule:nonzero;fill:rgb(0%,0%,0%);fill-opacity:1;" d="M 180.601562 252.386719 L 180.601562 253.292969 L 179.683594 253.292969 L 179.683594 252.386719 Z M 180.601562 252.386719 Z M 180.601562 252.386719 "/>
<path style=" stroke:none;fill-rule:nonzero;fill:rgb(0%,0%,0%);fill-opacity:1;" d="M 184.726562 245.652344 C 185.804688 245.730469 186.519531 246.71875 186.710938 247.714844 C 186.8125 248.167969 186.835938 248.601562 186.882812 249.054688 L 186.882812 250.210938 C 186.824219 251.390625 186.542969 252.941406 185.261719 253.417969 C 184.148438 253.863281 182.84375 253.171875 182.515625 252.035156 C 182.265625 251.433594 182.246094 250.824219 182.1875 250.210938 L 182.1875 249.054688 C 182.246094 247.875 182.492188 246.308594 183.765625 245.789062 L 183.820312 245.765625 L 183.867188 245.753906 L 183.921875 245.730469 L 184.09375 245.6875 L 184.195312 245.664062 L 184.320312 245.664062 L 184.34375 245.652344 Z M 184.726562 245.652344 Z M 184.375 246.34375 C 183.421875 246.457031 183.140625 247.601562 183.070312 248.375 L 183.070312 248.679688 L 183.050781 248.703125 L 183.050781 250.277344 C 183.117188 251.09375 183.175781 252.148438 183.921875 252.695312 C 184.613281 253.171875 185.53125 252.636719 185.726562 251.898438 C 185.929688 251.355469 185.976562 250.824219 186.019531 250.277344 L 186.019531 248.703125 C 185.953125 247.875 185.839844 246.71875 184.886719 246.390625 L 184.808594 246.367188 L 184.785156 246.34375 L 184.683594 246.34375 L 184.660156 246.320312 L 184.398438 246.320312 Z M 184.375 246.34375 Z M 184.375 246.34375 "/>
<path style=" stroke:none;fill-rule:nonzero;fill:rgb(0%,0%,0%);fill-opacity:1;" d="M 206.109375 245.652344 C 207.183594 245.730469 207.898438 246.71875 208.09375 247.714844 C 208.195312 248.167969 208.21875 248.601562 208.261719 249.054688 L 208.261719 250.210938 C 208.207031 251.390625 207.921875 252.941406 206.640625 253.417969 C 205.53125 253.863281 204.226562 253.171875 203.898438 252.035156 C 203.648438 251.433594 203.625 250.824219 203.566406 250.210938 L 203.566406 249.054688 C 203.625 247.875 203.875 246.308594 205.144531 245.789062 L 205.199219 245.765625 L 205.246094 245.753906 L 205.304688 245.730469 L 205.472656 245.6875 L 205.574219 245.664062 L 205.699219 245.664062 L 205.722656 245.652344 Z M 206.109375 245.652344 Z M 205.757812 246.34375 C 204.804688 246.457031 204.519531 247.601562 204.453125 248.375 L 204.453125 248.679688 L 204.429688 248.703125 L 204.429688 250.277344 C 204.5 251.09375 204.554688 252.148438 205.304688 252.695312 C 205.996094 253.171875 206.914062 252.636719 207.105469 251.898438 C 207.308594 251.355469 207.355469 250.824219 207.402344 250.277344 L 207.402344 248.703125 C 207.332031 247.875 207.21875 246.71875 206.265625 246.390625 L 206.1875 246.367188 L 206.164062 246.34375 L 206.0625 246.34375 L 206.039062 246.320312 L 205.78125 246.320312 Z M 205.757812 246.34375 Z M 205.757812 246.34375 "/>
<path style=" stroke:none;fill-rule:nonzero;fill:rgb(0%,0%,0%);fill-opacity:1;" d="M 210.789062 252.386719 L 210.789062 253.292969 L 209.871094 253.292969 L 209.871094 252.386719 Z M 210.789062 252.386719 Z M 210.789062 252.386719 "/>
<path style=" stroke:none;fill-rule:nonzero;fill:rgb(0%,0%,0%);fill-opacity:1;" d="M 214.792969 245.652344 C 216.109375 245.6875 217.152344 247.035156 216.949219 248.304688 C 216.8125 249.574219 215.621094 250.300781 214.769531 251.09375 L 214.40625 251.46875 L 214.363281 251.492188 L 213.910156 251.933594 L 213.875 251.957031 L 213.421875 252.410156 L 213.375 252.433594 L 213.273438 252.535156 L 213.296875 252.546875 L 216.96875 252.546875 L 216.96875 253.292969 L 212.480469 253.292969 L 212.480469 252.613281 L 214.304688 250.789062 C 215.179688 250.027344 216.199219 249.042969 216.039062 247.796875 C 215.949219 247.070312 215.335938 246.402344 214.589844 246.34375 C 213.828125 246.230469 213.160156 246.832031 212.992188 247.558594 L 212.96875 247.589844 L 212.945312 247.671875 L 212.910156 247.796875 L 212.84375 248.046875 L 212.832031 248.101562 C 212.671875 247.910156 212.503906 247.703125 212.378906 247.488281 C 212.605469 246.558594 213.351562 245.6875 214.339844 245.652344 Z M 214.792969 245.652344 Z M 214.792969 245.652344 "/>
<path style=" stroke:none;fill-rule:nonzero;fill:rgb(0%,0%,0%);fill-opacity:1;" d="M 236.300781 245.652344 C 237.375 245.730469 238.089844 246.71875 238.28125 247.714844 C 238.386719 248.167969 238.40625 248.601562 238.453125 249.054688 L 238.453125 250.210938 C 238.394531 251.390625 238.113281 252.941406 236.832031 253.417969 C 235.71875 253.863281 234.417969 253.171875 234.085938 252.035156 C 233.839844 251.433594 233.816406 250.824219 233.757812 250.210938 L 233.757812 249.054688 C 233.816406 247.875 234.066406 246.308594 235.335938 245.789062 L 235.390625 245.765625 L 235.4375 245.753906 L 235.492188 245.730469 L 235.664062 245.6875 L 235.765625 245.664062 L 235.890625 245.664062 L 235.914062 245.652344 Z M 236.300781 245.652344 Z M 235.949219 246.34375 C 234.996094 246.457031 234.710938 247.601562 234.644531 248.375 L 234.644531 248.679688 L 234.621094 248.703125 L 234.621094 250.277344 C 234.6875 251.09375 234.746094 252.148438 235.492188 252.695312 C 236.183594 253.171875 237.105469 252.636719 237.296875 251.898438 C 237.5 251.355469 237.546875 250.824219 237.589844 250.277344 L 237.589844 248.703125 C 237.523438 247.875 237.410156 246.71875 236.457031 246.390625 L 236.378906 246.367188 L 236.355469 246.34375 L 236.253906 246.34375 L 236.230469 246.320312 L 235.96875 246.320312 Z M 235.949219 246.34375 Z M 235.949219 246.34375 "/>
<path style=" stroke:none;fill-rule:nonzero;fill:rgb(0%,0%,0%);fill-opacity:1;" d="M 240.980469 252.386719 L 240.980469 253.292969 L 240.0625 253.292969 L 240.0625 252.386719 Z M 240.980469 252.386719 Z M 240.980469 252.386719 "/>
<path style=" stroke:none;fill-rule:nonzero;fill:rgb(0%,0%,0%);fill-opacity:1;" d="M 246.277344 245.890625 L 246.277344 250.664062 L 246.300781 250.6875 L 247.421875 250.6875 L 247.421875 251.367188 L 246.300781 251.367188 L 246.277344 251.378906 L 246.277344 253.292969 L 245.414062 253.292969 L 245.414062 251.378906 L 245.390625 251.367188 L 242.398438 251.367188 L 242.398438 250.664062 C 243.351562 249.078125 244.304688 247.476562 245.257812 245.890625 Z M 246.277344 245.890625 Z M 245.4375 246.320312 C 245.210938 247.5 244.484375 248.511719 243.941406 249.542969 C 243.726562 249.914062 243.441406 250.324219 243.285156 250.6875 L 245.460938 250.6875 L 245.472656 250.664062 L 245.472656 246.320312 L 245.460938 246.300781 Z M 245.4375 246.320312 Z M 245.4375 246.320312 "/>
<path style=" stroke:none;fill-rule:nonzero;fill:rgb(0%,0%,0%);fill-opacity:1;" d="M 266.488281 245.652344 C 267.566406 245.730469 268.28125 246.71875 268.472656 247.714844 C 268.574219 248.167969 268.597656 248.601562 268.644531 249.054688 L 268.644531 250.210938 C 268.585938 251.390625 268.304688 252.941406 267.023438 253.417969 C 265.910156 253.863281 264.605469 253.171875 264.277344 252.035156 C 264.027344 251.433594 264.007812 250.824219 263.949219 250.210938 L 263.949219 249.054688 C 264.007812 247.875 264.253906 246.308594 265.527344 245.789062 L 265.582031 245.765625 L 265.628906 245.753906 L 265.683594 245.730469 L 265.855469 245.6875 L 265.957031 245.664062 L 266.082031 245.664062 L 266.105469 245.652344 Z M 266.488281 245.652344 Z M 266.136719 246.34375 C 265.1875 246.457031 264.902344 247.601562 264.835938 248.375 L 264.835938 248.679688 L 264.8125 248.703125 L 264.8125 250.277344 C 264.878906 251.09375 264.9375 252.148438 265.683594 252.695312 C 266.375 253.171875 267.292969 252.636719 267.488281 251.898438 C 267.691406 251.355469 267.738281 250.824219 267.78125 250.277344 L 267.78125 248.703125 C 267.714844 247.875 267.601562 246.71875 266.648438 246.390625 L 266.570312 246.367188 L 266.546875 246.34375 L 266.445312 246.34375 L 266.421875 246.320312 L 266.160156 246.320312 Z M 266.136719 246.34375 Z M 266.136719 246.34375 "/>
<path style=" stroke:none;fill-rule:nonzero;fill:rgb(0%,0%,0%);fill-opacity:1;" d="M 271.171875 252.386719 L 271.171875 253.292969 L 270.253906 253.292969 L 270.253906 252.386719 Z M 271.171875 252.386719 Z M 271.171875 252.386719 "/>
<path style=" stroke:none;fill-rule:nonzero;fill:rgb(0%,0%,0%);fill-opacity:1;" d="M 276.035156 245.652344 C 276.332031 245.699219 276.671875 245.730469 276.953125 245.867188 L 276.953125 246.527344 C 276.171875 246.183594 275.152344 246.140625 274.539062 246.832031 C 273.996094 247.410156 273.746094 248.273438 273.722656 249.03125 C 274.382812 248.160156 275.867188 247.671875 276.671875 248.578125 C 277.476562 249.507812 277.613281 250.84375 277.25 251.980469 C 276.851562 252.886719 275.933594 253.714844 274.914062 253.523438 C 273.53125 253.40625 272.90625 251.867188 272.839844 250.6875 C 272.578125 249.019531 272.976562 246.921875 274.5625 245.96875 L 274.585938 245.957031 L 274.824219 245.835938 L 274.890625 245.8125 L 274.925781 245.789062 L 275.117188 245.730469 L 275.277344 245.6875 L 275.378906 245.664062 L 275.503906 245.664062 L 275.527344 245.652344 Z M 276.035156 245.652344 Z M 274.925781 248.804688 C 273.9375 248.976562 273.621094 250.164062 273.746094 250.96875 C 273.804688 251.730469 274.097656 252.738281 274.972656 252.898438 C 275.902344 253.023438 276.5 252.023438 276.523438 251.21875 C 276.570312 250.402344 276.523438 249.472656 275.808594 248.941406 L 275.652344 248.863281 L 275.527344 248.828125 L 275.425781 248.804688 L 275.402344 248.78125 L 274.949219 248.78125 Z M 274.925781 248.804688 Z M 274.925781 248.804688 "/>
<path style=" stroke:none;fill-rule:nonzero;fill:rgb(0%,0%,0%);fill-opacity:1;" d="M 296.679688 245.652344 C 297.757812 245.730469 298.472656 246.71875 298.664062 247.714844 C 298.765625 248.167969 298.789062 248.601562 298.835938 249.054688 L 298.835938 250.210938 C 298.777344 251.390625 298.496094 252.941406 297.214844 253.417969 C 296.101562 253.863281 294.796875 253.171875 294.46875 252.035156 C 294.21875 251.433594 294.195312 250.824219 294.140625 250.210938 L 294.140625 249.054688 C 294.195312 247.875 294.445312 246.308594 295.714844 245.789062 L 295.773438 245.765625 L 295.820312 245.753906 L 295.875 245.730469 L 296.046875 245.6875 L 296.148438 245.664062 L 296.273438 245.664062 L 296.292969 245.652344 Z M 296.679688 245.652344 Z M 296.328125 246.34375 C 295.375 246.457031 295.09375 247.601562 295.023438 248.375 L 295.023438 248.679688 L 295.003906 248.703125 L 295.003906 250.277344 C 295.070312 251.09375 295.125 252.148438 295.875 252.695312 C 296.566406 253.171875 297.484375 252.636719 297.679688 251.898438 C 297.882812 251.355469 297.925781 250.824219 297.972656 250.277344 L 297.972656 248.703125 C 297.90625 247.875 297.792969 246.71875 296.839844 246.390625 L 296.757812 246.367188 L 296.738281 246.34375 L 296.636719 246.34375 L 296.613281 246.320312 L 296.351562 246.320312 Z M 296.328125 246.34375 Z M 296.328125 246.34375 "/>
<path style=" stroke:none;fill-rule:nonzero;fill:rgb(0%,0%,0%);fill-opacity:1;" d="M 301.363281 252.386719 L 301.363281 253.292969 L 300.445312 253.292969 L 300.445312 252.386719 Z M 301.363281 252.386719 Z M 301.363281 252.386719 "/>
<path style=" stroke:none;fill-rule:nonzero;fill:rgb(0%,0%,0%);fill-opacity:1;" d="M 305.511719 245.652344 C 306.714844 245.699219 307.847656 246.992188 307.371094 248.191406 C 307.167969 248.746094 306.601562 249.089844 306.136719 249.328125 C 307.292969 249.667969 307.996094 251.015625 307.472656 252.125 C 306.929688 253.566406 304.867188 254.019531 303.734375 252.976562 C 302.699219 252.160156 302.667969 250.390625 303.8125 249.667969 C 303.980469 249.484375 304.300781 249.429688 304.445312 249.292969 C 303.460938 249.007812 302.792969 247.863281 303.257812 246.898438 C 303.628906 246.039062 304.59375 245.5625 305.511719 245.652344 Z M 305.511719 245.652344 Z M 305.082031 246.300781 C 304.242188 246.320312 303.652344 247.273438 303.9375 248.023438 C 304.265625 249.316406 306.429688 249.269531 306.679688 247.941406 C 306.90625 247.207031 306.316406 246.320312 305.511719 246.300781 L 305.492188 246.289062 L 305.105469 246.289062 Z M 305.082031 246.300781 Z M 305.105469 249.667969 C 304.117188 249.734375 303.628906 250.914062 303.890625 251.753906 C 304.0625 252.941406 305.761719 253.292969 306.429688 252.34375 C 307.078125 251.46875 306.761719 249.90625 305.59375 249.667969 L 305.492188 249.667969 L 305.46875 249.644531 L 305.117188 249.644531 Z M 305.105469 249.667969 Z M 305.105469 249.667969 "/>
<path style=" stroke:none;fill-rule:nonzero;fill:rgb(0%,0%,0%);fill-opacity:1;" d="M 327.222656 245.652344 L 327.222656 252.648438 L 327.234375 252.671875 L 328.628906 252.671875 L 328.628906 253.292969 L 324.941406 253.292969 L 324.941406 252.671875 L 326.339844 252.671875 L 326.359375 252.648438 L 326.359375 246.773438 C 325.882812 246.933594 325.386719 247.035156 324.886719 247.023438 L 324.886719 246.390625 C 325.636719 246.402344 326.453125 246.195312 327.019531 245.652344 Z M 327.222656 245.652344 Z M 327.222656 245.652344 "/>
<path style=" stroke:none;fill-rule:nonzero;fill:rgb(0%,0%,0%);fill-opacity:1;" d="M 331.554688 252.386719 L 331.554688 253.292969 L 330.636719 253.292969 L 330.636719 252.386719 Z M 331.554688 252.386719 Z M 331.554688 252.386719 "/>
<path style=" stroke:none;fill-rule:nonzero;fill:rgb(0%,0%,0%);fill-opacity:1;" d="M 335.679688 245.652344 C 336.757812 245.730469 337.472656 246.71875 337.664062 247.714844 C 337.765625 248.167969 337.789062 248.601562 337.835938 249.054688 L 337.835938 250.210938 C 337.777344 251.390625 337.496094 252.941406 336.214844 253.417969 C 335.101562 253.863281 333.796875 253.171875 333.46875 252.035156 C 333.21875 251.433594 333.199219 250.824219 333.140625 250.210938 L 333.140625 249.054688 C 333.199219 247.875 333.445312 246.308594 334.71875 245.789062 L 334.773438 245.765625 L 334.820312 245.753906 L 334.875 245.730469 L 335.046875 245.6875 L 335.148438 245.664062 L 335.273438 245.664062 L 335.296875 245.652344 Z M 335.679688 245.652344 Z M 335.328125 246.34375 C 334.378906 246.457031 334.09375 247.601562 334.027344 248.375 L 334.027344 248.679688 L 334.003906 248.703125 L 334.003906 250.277344 C 334.070312 251.09375 334.128906 252.148438 334.875 252.695312 C 335.566406 253.171875 336.484375 252.636719 336.679688 251.898438 C 336.882812 251.355469 336.929688 250.824219 336.972656 250.277344 L 336.972656 248.703125 C 336.90625 247.875 336.792969 246.71875 335.839844 246.390625 L 335.761719 246.367188 L 335.738281 246.34375 L 335.636719 246.34375 L 335.613281 246.320312 L 335.351562 246.320312 Z M 335.328125 246.34375 Z M 335.328125 246.34375 "/>
<path style="fill:none;stroke-width:0.02;stroke-linecap:butt;stroke-linejoin:miter;stroke:rgb(0%,0%,0%);stroke-opacity:1;stroke-miterlimit:10;" d="M 2.059065 8.769041 L 2.059065 8.618972 " transform="matrix(28.346457,0,0,-28.346457,1,256.11811)"/>
<path style="fill:none;stroke-width:0.02;stroke-linecap:butt;stroke-linejoin:miter;stroke:rgb(0%,0%,0%);stroke-opacity:1;stroke-miterlimit:10;" d="M 3.12415 8.769041 L 3.12415 8.618972 " transform="matrix(28.346457,0,0,-28.346457,1,256.11811)"/>
<path style="fill:none;stroke-width:0.02;stroke-linecap:butt;stroke-linejoin:miter;stroke:rgb(0%,0%,0%);stroke-opacity:1;stroke-miterlimit:10;" d="M 4.189236 8.769041 L 4.189236 8.618972 " transform="matrix(28.346457,0,0,-28.346457,1,256.11811)"/>
<path style="fill:none;stroke-width:0.02;stroke-linecap:butt;stroke-linejoin:miter;stroke:rgb(0%,0%,0%);stroke-opacity:1;stroke-miterlimit:10;" d="M 5.254184 8.769041 L 5.254184 8.618972 " transform="matrix(28.346457,0,0,-28.346457,1,256.11811)"/>
<path style="fill:none;stroke-width:0.02;stroke-linecap:butt;stroke-linejoin:miter;stroke:rgb(0%,0%,0%);stroke-opacity:1;stroke-miterlimit:10;" d="M 6.31927 8.769041 L 6.31927 8.618972 " transform="matrix(28.346457,0,0,-28.346457,1,256.11811)"/>
<path style="fill:none;stroke-width:0.02;stroke-linecap:butt;stroke-linejoin:miter;stroke:rgb(0%,0%,0%);stroke-opacity:1;stroke-miterlimit:10;" d="M 7.384355 8.769041 L 7.384355 8.618972 " transform="matrix(28.346457,0,0,-28.346457,1,256.11811)"/>
<path style="fill:none;stroke-width:0.02;stroke-linecap:butt;stroke-linejoin:miter;stroke:rgb(0%,0%,0%);stroke-opacity:1;stroke-miterlimit:10;" d="M 8.449441 8.769041 L 8.449441 8.618972 " transform="matrix(28.346457,0,0,-28.346457,1,256.11811)"/>
<path style="fill:none;stroke-width:0.02;stroke-linecap:butt;stroke-linejoin:miter;stroke:rgb(0%,0%,0%);stroke-opacity:1;stroke-miterlimit:10;" d="M 9.514527 8.769041 L 9.514527 8.618972 " transform="matrix(28.346457,0,0,-28.346457,1,256.11811)"/>
<path style="fill:none;stroke-width:0.02;stroke-linecap:butt;stroke-linejoin:miter;stroke:rgb(0%,0%,0%);stroke-opacity:1;stroke-miterlimit:10;" d="M 10.579475 8.769041 L 10.579475 8.618972 " transform="matrix(28.346457,0,0,-28.346457,1,256.11811)"/>
<path style="fill:none;stroke-width:0.02;stroke-linecap:round;stroke-linejoin:miter;stroke:rgb(0%,0%,0%);stroke-opacity:1;stroke-miterlimit:10;" d="M 0.993979 8.769041 L 11.644561 8.769041 " transform="matrix(28.346457,0,0,-28.346457,1,256.11811)"/>
<path style="fill:none;stroke-width:0.05;stroke-linecap:butt;stroke-linejoin:miter;stroke:rgb(33%,47%,64%);stroke-opacity:1;stroke-miterlimit:10;" d="M 0.993979 1.258595 L 1.029808 1.273478 L 1.065775 1.288498 L 1.137433 1.319091 L 1.173262 1.334663 L 1.209229 1.350372 L 1.245058 1.36622 L 1.280887 1.382205 L 1.316715 1.398328 L 1.352544 1.414589 L 1.388511 1.430987 L 1.460169 1.464336 L 1.495998 1.481286 L 1.531965 1.498236 L 1.603623 1.532687 L 1.639452 1.550188 L 1.675419 1.567827 L 1.711248 1.585465 L 1.747077 1.60338 L 1.782906 1.621432 L 1.818735 1.639622 L 1.854702 1.657813 L 1.890531 1.676278 L 1.92636 1.694882 L 1.962189 1.713623 L 1.998155 1.732364 L 2.033984 1.751381 L 2.105642 1.789691 L 2.141471 1.809121 L 2.177438 1.828689 L 2.213267 1.848257 L 2.249096 1.867963 L 2.284925 1.887945 L 2.320892 1.907926 L 2.356721 1.928046 L 2.39255 1.948303 L 2.428379 1.968698 L 2.464346 1.989231 L 2.500175 2.009901 L 2.571833 2.051518 L 2.607662 2.072464 L 2.643628 2.093686 L 2.679457 2.114908 L 2.715286 2.136267 L 2.751115 2.157765 L 2.787082 2.179262 L 2.85874 2.222808 L 2.894569 2.244719 L 2.930536 2.266768 L 3.002194 2.31114 L 3.038023 2.333465 L 3.073852 2.355927 L 3.109819 2.378526 L 3.181477 2.424002 L 3.217306 2.446877 L 3.253273 2.46989 L 3.289102 2.492904 L 3.36076 2.539481 L 3.396726 2.56277 L 3.468384 2.609899 L 3.540042 2.657304 L 3.576009 2.681144 L 3.647667 2.729099 L 3.683496 2.753215 L 3.719463 2.777469 L 3.755292 2.801722 L 3.791121 2.826113 L 3.82695 2.850642 L 3.862917 2.875171 L 3.934575 2.924505 L 3.970404 2.94931 L 4.006233 2.974252 L 4.042199 2.999195 L 4.078028 3.024137 L 4.113857 3.049355 L 4.149686 3.074436 L 4.185653 3.099792 L 4.221482 3.12501 L 4.257311 3.150503 L 4.29314 3.175859 L 4.328969 3.201491 L 4.364936 3.227122 L 4.400765 3.252754 L 4.472423 3.304293 L 4.50839 3.330062 L 4.544219 3.355969 L 4.615877 3.408059 L 4.651844 3.434104 L 4.723502 3.486469 L 4.79516 3.53911 L 4.831126 3.565431 L 4.902784 3.618347 L 4.938613 3.644944 L 4.97458 3.67154 L 5.046238 3.724732 L 5.082067 3.751466 L 5.118034 3.7782 L 5.153863 3.805072 L 5.189692 3.831806 L 5.26135 3.885549 L 5.297317 3.912559 L 5.404804 3.993587 L 5.44077 4.020597 L 5.548257 4.102039 L 5.584224 4.129324 L 5.620053 4.156471 L 5.72754 4.238327 L 5.763507 4.265612 L 5.835165 4.320182 L 5.870994 4.347605 L 5.906961 4.375028 L 5.94279 4.402313 L 6.050277 4.484582 L 6.086243 4.512005 L 6.122072 4.539428 L 6.157901 4.566989 L 6.19373 4.594412 L 6.229697 4.621835 L 6.265526 4.649258 L 6.301355 4.676819 L 6.337184 4.704242 L 6.373151 4.731664 L 6.40898 4.759225 L 6.516467 4.841494 L 6.552434 4.868917 L 6.659921 4.951186 L 6.695888 4.978609 L 6.767546 5.033455 L 6.803375 5.06074 L 6.839341 5.088163 L 6.982657 5.197304 L 7.018624 5.224589 L 7.126111 5.306031 L 7.162078 5.333178 L 7.233736 5.387473 L 7.269565 5.414482 L 7.305532 5.441492 L 7.341361 5.468502 L 7.448848 5.549117 L 7.484814 5.575988 L 7.520643 5.602722 L 7.556472 5.629594 L 7.592301 5.65619 L 7.628268 5.682924 L 7.699926 5.736117 L 7.735755 5.762575 L 7.771722 5.789033 L 7.807551 5.815492 L 7.915038 5.894453 L 7.951005 5.920636 L 8.022663 5.973001 L 8.058492 5.999046 L 8.094459 6.024953 L 8.166117 6.076768 L 8.237775 6.128306 L 8.273741 6.153938 L 8.30957 6.179569 L 8.381228 6.230557 L 8.417195 6.255913 L 8.453024 6.281268 L 8.524682 6.331705 L 8.560649 6.356785 L 8.596478 6.381865 L 8.632307 6.406808 L 8.703965 6.456417 L 8.739932 6.481222 L 8.775761 6.505751 L 8.81159 6.530418 L 8.847419 6.554809 L 8.883385 6.5792 L 8.955043 6.627707 L 8.990872 6.651823 L 9.026839 6.675939 L 9.062668 6.699779 L 9.098497 6.723757 L 9.170155 6.771161 L 9.206122 6.794725 L 9.27778 6.841579 L 9.313609 6.864868 L 9.349576 6.888019 L 9.385405 6.91117 L 9.421234 6.934045 L 9.457063 6.957058 L 9.49303 6.979796 L 9.564687 7.024996 L 9.636345 7.06992 L 9.672312 7.092106 L 9.708141 7.114293 L 9.74397 7.136341 L 9.779799 7.158252 L 9.815766 7.180025 L 9.887424 7.223295 L 9.923253 7.244793 L 9.95922 7.266152 L 9.995049 7.287374 L 10.066707 7.329542 L 10.102536 7.35035 L 10.138503 7.371159 L 10.210161 7.412224 L 10.24599 7.432619 L 10.281956 7.452877 L 10.317785 7.473134 L 10.353614 7.493115 L 10.425272 7.532803 L 10.461239 7.552371 L 10.497068 7.571939 L 10.568726 7.610524 L 10.604693 7.629541 L 10.640522 7.648558 L 10.676351 7.667437 L 10.71218 7.686178 L 10.748147 7.704644 L 10.783976 7.72311 L 10.819805 7.741438 L 10.855634 7.759628 L 10.891463 7.777542 L 10.927429 7.795457 L 10.963258 7.813234 L 10.999087 7.830872 L 11.034916 7.848236 L 11.070883 7.865599 L 11.142541 7.899774 L 11.17837 7.916586 L 11.214337 7.933398 L 11.250166 7.949935 L 11.321824 7.982732 L 11.357653 7.998855 L 11.39362 8.01484 L 11.429449 8.030688 L 11.501107 8.061832 L 11.537074 8.077266 L 11.608732 8.107582 L 11.644561 8.122465 " transform="matrix(28.346457,0,0,-28.346457,1,256.11811)"/>
<path style="fill:none;stroke-width:0.05;stroke-linecap:butt;stroke-linejoin:miter;stroke:rgb(90%,57%,26%);stroke-opacity:1;stroke-miterlimit:10;" d="M 0.993979 6.894082 L 1.029808 6.917233 L 1.065775 6.940109 L 1.101604 6.962984 L 1.173262 7.008459 L 1.209229 7.030921 L 1.245058 7.053383 L 1.280887 7.075707 L 1.352544 7.12008 L 1.388511 7.142129 L 1.495998 7.207448 L 1.531965 7.228945 L 1.567794 7.250443 L 1.639452 7.292886 L 1.675419 7.31397 L 1.747077 7.355863 L 1.818735 7.397204 L 1.854702 7.417599 L 1.890531 7.437994 L 1.92636 7.458251 L 1.962189 7.47837 L 1.998155 7.498352 L 2.033984 7.518196 L 2.069813 7.537901 L 2.141471 7.577038 L 2.177438 7.59633 L 2.249096 7.63464 L 2.284925 7.653519 L 2.320892 7.672398 L 2.39255 7.709605 L 2.428379 7.727933 L 2.464346 7.746261 L 2.536004 7.782365 L 2.607662 7.817919 L 2.643628 7.83542 L 2.715286 7.870146 L 2.751115 7.887234 L 2.787082 7.904184 L 2.85874 7.937808 L 2.894569 7.954345 L 2.930536 7.970743 L 3.002194 8.002989 L 3.038023 8.018975 L 3.073852 8.034822 L 3.109819 8.050394 L 3.145648 8.065966 L 3.181477 8.081262 L 3.217306 8.09642 L 3.253273 8.111441 L 3.289102 8.126324 L 3.324931 8.141069 L 3.36076 8.155676 L 3.396726 8.170008 L 3.432555 8.184339 L 3.468384 8.198395 L 3.504213 8.212313 L 3.540042 8.226094 L 3.576009 8.239736 L 3.647667 8.26647 L 3.683496 8.279562 L 3.719463 8.292515 L 3.755292 8.305331 L 3.791121 8.318009 L 3.82695 8.330411 L 3.862917 8.342676 L 3.898746 8.35494 L 3.970404 8.378643 L 4.006233 8.390356 L 4.042199 8.401794 L 4.078028 8.413094 L 4.113857 8.424256 L 4.149686 8.435142 L 4.185653 8.446029 L 4.221482 8.45664 L 4.257311 8.467113 L 4.328969 8.487508 L 4.364936 8.497429 L 4.400765 8.507214 L 4.472423 8.52623 L 4.50839 8.535463 L 4.544219 8.544558 L 4.615877 8.562197 L 4.651844 8.570741 L 4.723502 8.587278 L 4.759331 8.59527 L 4.79516 8.603125 L 4.831126 8.610704 L 4.866955 8.618283 L 4.902784 8.625587 L 4.938613 8.632753 L 4.97458 8.639643 L 5.010409 8.646395 L 5.046238 8.65301 L 5.082067 8.659487 L 5.118034 8.665688 L 5.153863 8.671751 L 5.225521 8.683327 L 5.26135 8.688839 L 5.297317 8.694076 L 5.333146 8.699312 L 5.368975 8.704273 L 5.404804 8.708958 L 5.44077 8.713644 L 5.476599 8.718053 L 5.512428 8.722325 L 5.548257 8.726322 L 5.584224 8.73018 L 5.620053 8.733901 L 5.655882 8.737346 L 5.691711 8.740653 L 5.72754 8.743823 L 5.763507 8.746854 L 5.799336 8.74961 L 5.870994 8.754571 L 5.906961 8.756776 L 5.94279 8.758843 L 5.978619 8.760635 L 6.014448 8.762288 L 6.050277 8.763804 L 6.086243 8.765044 L 6.122072 8.766147 L 6.157901 8.767112 L 6.19373 8.767801 L 6.229697 8.76849 L 6.301355 8.769041 L 6.337184 8.769041 L 6.373151 8.768765 L 6.40898 8.76849 L 6.480638 8.767112 L 6.516467 8.766147 L 6.552434 8.765044 L 6.588263 8.763804 L 6.624092 8.762288 L 6.659921 8.760635 L 6.695888 8.758843 L 6.731717 8.756776 L 6.767546 8.754571 L 6.803375 8.752091 L 6.839341 8.74961 L 6.87517 8.746854 L 6.910999 8.743823 L 6.946828 8.740653 L 6.982657 8.737346 L 7.018624 8.733901 L 7.054453 8.73018 L 7.090282 8.726322 L 7.126111 8.722325 L 7.162078 8.718053 L 7.197907 8.713644 L 7.269565 8.704273 L 7.305532 8.699312 L 7.37719 8.688839 L 7.413019 8.683327 L 7.448848 8.677539 L 7.484814 8.671751 L 7.520643 8.665688 L 7.556472 8.659487 L 7.592301 8.65301 L 7.628268 8.646395 L 7.664097 8.639643 L 7.699926 8.632753 L 7.735755 8.625587 L 7.771722 8.618283 L 7.84338 8.603125 L 7.879209 8.59527 L 7.915038 8.587278 L 7.951005 8.579009 L 7.986834 8.570741 L 8.022663 8.562197 L 8.058492 8.553378 L 8.094459 8.544558 L 8.130288 8.535463 L 8.166117 8.52623 L 8.237775 8.507214 L 8.273741 8.497429 L 8.30957 8.487508 L 8.381228 8.467113 L 8.417195 8.45664 L 8.453024 8.446029 L 8.524682 8.424256 L 8.560649 8.413094 L 8.596478 8.401794 L 8.632307 8.390356 L 8.668136 8.378643 L 8.703965 8.366791 L 8.739932 8.35494 L 8.81159 8.330411 L 8.847419 8.318009 L 8.883385 8.305331 L 8.919214 8.292515 L 8.955043 8.279562 L 8.990872 8.26647 L 9.026839 8.253103 L 9.062668 8.239736 L 9.098497 8.226094 L 9.134326 8.212313 L 9.170155 8.198395 L 9.206122 8.184339 L 9.27778 8.155676 L 9.313609 8.141069 L 9.349576 8.126324 L 9.385405 8.111441 L 9.421234 8.09642 L 9.457063 8.081262 L 9.49303 8.065966 L 9.564687 8.034822 L 9.600516 8.018975 L 9.636345 8.002989 L 9.672312 7.986866 L 9.708141 7.970743 L 9.74397 7.954345 L 9.779799 7.937808 L 9.815766 7.920996 L 9.851595 7.904184 L 9.887424 7.887234 L 9.923253 7.870146 L 9.95922 7.852783 L 9.995049 7.83542 L 10.030878 7.817919 L 10.102536 7.782365 L 10.138503 7.764313 L 10.174332 7.746261 L 10.24599 7.709605 L 10.281956 7.691002 L 10.317785 7.672398 L 10.389443 7.63464 L 10.425272 7.615485 L 10.461239 7.59633 L 10.497068 7.577038 L 10.568726 7.537901 L 10.604693 7.518196 L 10.640522 7.498352 L 10.676351 7.47837 L 10.71218 7.458251 L 10.748147 7.437994 L 10.819805 7.397204 L 10.891463 7.355863 L 10.927429 7.334916 L 10.963258 7.31397 L 10.999087 7.292886 L 11.034916 7.271664 L 11.070883 7.250443 L 11.142541 7.207448 L 11.17837 7.185675 L 11.214337 7.163902 L 11.250166 7.142129 L 11.285995 7.12008 L 11.357653 7.075707 L 11.39362 7.053383 L 11.465278 7.008459 L 11.501107 6.985722 L 11.537074 6.962984 L 11.608732 6.917233 L 11.644561 6.894082 " transform="matrix(28.346457,0,0,-28.346457,1,256.11811)"/>
<path style="fill:none;stroke-width:0.05;stroke-linecap:butt;stroke-linejoin:miter;stroke:rgb(82%,37%,36%);stroke-opacity:1;stroke-miterlimit:10;" d="M 0.993979 4.690461 L 1.029808 4.635753 L 1.065775 4.581321 L 1.101604 4.527439 L 1.137433 4.473696 L 1.173262 4.420503 L 1.209229 4.367587 L 1.245058 4.315084 L 1.280887 4.262856 L 1.316715 4.211179 L 1.352544 4.159641 L 1.388511 4.108653 L 1.42434 4.057942 L 1.460169 4.007643 L 1.495998 3.957758 L 1.531965 3.908149 L 1.567794 3.858953 L 1.603623 3.81017 L 1.639452 3.761663 L 1.675419 3.71357 L 1.711248 3.66589 L 1.747077 3.618485 L 1.782906 3.571632 L 1.818735 3.524916 L 1.854702 3.478752 L 1.890531 3.432863 L 1.92636 3.387388 L 1.962189 3.342189 L 1.998155 3.29754 L 2.033984 3.25303 L 2.069813 3.20907 L 2.105642 3.165386 L 2.141471 3.122116 L 2.177438 3.079259 L 2.213267 3.036678 L 2.249096 2.99451 L 2.284925 2.952755 L 2.320892 2.911276 L 2.356721 2.870211 L 2.39255 2.829558 L 2.428379 2.789182 L 2.464346 2.749357 L 2.500175 2.709669 L 2.536004 2.670533 L 2.571833 2.631672 L 2.607662 2.593225 L 2.643628 2.555053 L 2.679457 2.517433 L 2.715286 2.47995 L 2.751115 2.443019 L 2.787082 2.406363 L 2.822911 2.37012 L 2.85874 2.334291 L 2.894569 2.298738 L 2.930536 2.263598 L 2.966365 2.228872 L 3.002194 2.194421 L 3.038023 2.160383 L 3.073852 2.126759 L 3.109819 2.09341 L 3.145648 2.060613 L 3.181477 2.027954 L 3.217306 1.995845 L 3.253273 1.964013 L 3.289102 1.932593 L 3.324931 1.90145 L 3.36076 1.870857 L 3.396726 1.840403 L 3.432555 1.810499 L 3.468384 1.780871 L 3.504213 1.751657 L 3.540042 1.722856 L 3.576009 1.694331 L 3.611838 1.666219 L 3.647667 1.63852 L 3.683496 1.611097 L 3.719463 1.584087 L 3.755292 1.557491 L 3.791121 1.531171 L 3.82695 1.505401 L 3.862917 1.47977 L 3.898746 1.45469 L 3.934575 1.429885 L 3.970404 1.405494 L 4.006233 1.381378 L 4.042199 1.357814 L 4.078028 1.334387 L 4.113857 1.311512 L 4.149686 1.288912 L 4.185653 1.266725 L 4.221482 1.244952 L 4.257311 1.223455 L 4.29314 1.202371 L 4.328969 1.1817 L 4.364936 1.161305 L 4.400765 1.141324 L 4.436594 1.121756 L 4.472423 1.102463 L 4.50839 1.083722 L 4.544219 1.065118 L 4.580048 1.047066 L 4.615877 1.029289 L 4.651844 1.011926 L 4.687673 0.994838 L 4.723502 0.978302 L 4.759331 0.961903 L 4.79516 0.946056 L 4.831126 0.930484 L 4.866955 0.915326 L 4.902784 0.900581 L 4.938613 0.886111 L 4.97458 0.872055 L 5.010409 0.858413 L 5.046238 0.845046 L 5.082067 0.832092 L 5.118034 0.819552 L 5.153863 0.807287 L 5.189692 0.795574 L 5.225521 0.783998 L 5.26135 0.772974 L 5.297317 0.762225 L 5.333146 0.75189 L 5.368975 0.741831 L 5.404804 0.732322 L 5.44077 0.722951 L 5.476599 0.714132 L 5.512428 0.705588 L 5.548257 0.697458 L 5.584224 0.689741 L 5.620053 0.682299 L 5.655882 0.675271 L 5.691711 0.668657 L 5.72754 0.662318 L 5.763507 0.656392 L 5.799336 0.65088 L 5.835165 0.645643 L 5.870994 0.640958 L 5.906961 0.636411 L 5.94279 0.632414 L 5.978619 0.628694 L 6.014448 0.625386 L 6.050277 0.622355 L 6.086243 0.619874 L 6.122072 0.617531 L 6.157901 0.61574 L 6.19373 0.614224 L 6.229697 0.613122 L 6.265526 0.612433 L 6.301355 0.612019 L 6.337184 0.612019 L 6.373151 0.612433 L 6.40898 0.613122 L 6.444809 0.614224 L 6.480638 0.61574 L 6.516467 0.617531 L 6.552434 0.619874 L 6.588263 0.622355 L 6.624092 0.625386 L 6.659921 0.628694 L 6.695888 0.632414 L 6.731717 0.636411 L 6.767546 0.640958 L 6.803375 0.645643 L 6.839341 0.65088 L 6.87517 0.656392 L 6.910999 0.662318 L 6.946828 0.668657 L 6.982657 0.675271 L 7.018624 0.682299 L 7.054453 0.689741 L 7.090282 0.697458 L 7.126111 0.705588 L 7.162078 0.714132 L 7.197907 0.722951 L 7.233736 0.732322 L 7.269565 0.741831 L 7.305532 0.75189 L 7.341361 0.762225 L 7.37719 0.772974 L 7.413019 0.783998 L 7.448848 0.795574 L 7.484814 0.807287 L 7.520643 0.819552 L 7.556472 0.832092 L 7.592301 0.845046 L 7.628268 0.858413 L 7.664097 0.872055 L 7.699926 0.886111 L 7.735755 0.900581 L 7.771722 0.915326 L 7.807551 0.930484 L 7.84338 0.946056 L 7.879209 0.961903 L 7.915038 0.978302 L 7.951005 0.994838 L 7.986834 1.011926 L 8.022663 1.029289 L 8.058492 1.047066 L 8.094459 1.065118 L 8.130288 1.083722 L 8.166117 1.102463 L 8.201946 1.121756 L 8.237775 1.141324 L 8.273741 1.161305 L 8.30957 1.1817 L 8.345399 1.202371 L 8.381228 1.223455 L 8.417195 1.244952 L 8.453024 1.266725 L 8.488853 1.288912 L 8.524682 1.311512 L 8.560649 1.334387 L 8.596478 1.357814 L 8.632307 1.381378 L 8.668136 1.405494 L 8.703965 1.429885 L 8.739932 1.45469 L 8.775761 1.47977 L 8.81159 1.505401 L 8.847419 1.531171 L 8.883385 1.557491 L 8.919214 1.584087 L 8.955043 1.611097 L 8.990872 1.63852 L 9.026839 1.666219 L 9.062668 1.694331 L 9.098497 1.722856 L 9.134326 1.751657 L 9.170155 1.780871 L 9.206122 1.810499 L 9.241951 1.840403 L 9.27778 1.870857 L 9.313609 1.90145 L 9.349576 1.932593 L 9.385405 1.964013 L 9.421234 1.995845 L 9.457063 2.027954 L 9.49303 2.060613 L 9.528859 2.09341 L 9.564687 2.126759 L 9.600516 2.160383 L 9.636345 2.194421 L 9.672312 2.228872 L 9.708141 2.263598 L 9.74397 2.298738 L 9.779799 2.334291 L 9.815766 2.37012 L 9.851595 2.406363 L 9.887424 2.443019 L 9.923253 2.47995 L 9.95922 2.517433 L 9.995049 2.555053 L 10.030878 2.593225 L 10.066707 2.631672 L 10.102536 2.670533 L 10.138503 2.709669 L 10.174332 2.749357 L 10.210161 2.789182 L 10.24599 2.829558 L 10.281956 2.870211 L 10.317785 2.911276 L 10.353614 2.952755 L 10.389443 2.99451 L 10.425272 3.036678 L 10.461239 3.079259 L 10.497068 3.122116 L 10.532897 3.165386 L 10.568726 3.20907 L 10.604693 3.25303 L 10.640522 3.29754 L 10.676351 3.342189 L 10.71218 3.387388 L 10.748147 3.432863 L 10.783976 3.478752 L 10.819805 3.524916 L 10.855634 3.571632 L 10.891463 3.618485 L 10.927429 3.66589 L 10.963258 3.71357 L 10.999087 3.761663 L 11.034916 3.81017 L 11.070883 3.858953 L 11.106712 3.908149 L 11.142541 3.957758 L 11.17837 4.007643 L 11.214337 4.057942 L 11.250166 4.108653 L 11.285995 4.159641 L 11.321824 4.211179 L 11.357653 4.262856 L 11.39362 4.315084 L 11.429449 4.367587 L 11.465278 4.420503 L 11.501107 4.473696 L 11.537074 4.527439 L 11.572903 4.581321 L 11.608732 4.635753 L 11.644561 4.690461 " transform="matrix(28.346457,0,0,-28.346457,1,256.11811)"/>
</g>
</svg>
