<?xml version="1.0" encoding="UTF-8"?>
<svg xmlns="http://www.w3.org/2000/svg" xmlns:xlink="http://www.w3.org/1999/xlink" width="342.15748pt" height="257.11811pt" viewBox="0 0 342.15748 257.11811" version="1.1">
<g id="surface1">
<path style="fill:none;stroke-width:0.02;stroke-linecap:butt;stroke-linejoin:miter;stroke:rgb(0%,0%,0%);stroke-opacity:1;stroke-miterlimit:10;" d="M 0.549975 1.971454 L 0.700043 1.971454 " transform="matrix(28.346457,0,0,-28.346457,1,256.11811)"/>
<path style="fill:none;stroke-width:0.02;stroke-linecap:butt;stroke-linejoin:miter;stroke:rgb(0%,0%,0%);stroke-opacity:1;stroke-miterlimit:10;" d="M 0.549975 3.331026 L 0.700043 3.331026 " transform="matrix(28.346457,0,0,-28.346457,1,256.11811)"/>
<path style="fill:none;stroke-width:0.02;stroke-linecap:butt;stroke-linejoin:miter;stroke:rgb(0%,0%,0%);stroke-opacity:1;stroke-miterlimit:10;" d="M 0.549975 4.690461 L 0.700043 4.690461 " transform="matrix(28.346457,0,0,-28.346457,1,256.11811)"/>
<path style="fill:none;stroke-width:0.02;stroke-linecap:butt;stroke-linejoin:miter;stroke:rgb(0%,0%,0%);stroke-opacity:1;stroke-miterlimit:10;" d="M 0.549975 6.050034 L 0.700043 6.050034 " transform="matrix(28.346457,0,0,-28.346457,1,256.11811)"/>
<path style="fill:none;stroke-width:0.02;stroke-linecap:butt;stroke-linejoin:miter;stroke:rgb(0%,0%,0%);stroke-opacity:1;stroke-miterlimit:10;" d="M 0.549975 7.409468 L 0.700043 7.409468 " transform="matrix(28.346457,0,0,-28.346457,1,256.11811)"/>
<path style="fill:none;stroke-width:0.02;stroke-linecap:round;stroke-linejoin:miter;stroke:rgb(0%,0%,0%);stroke-opacity:1;stroke-miterlimit:10;" d="M 0.549975 0.612019 L 0.549975 8.769041 " transform="matrix(28.346457,0,0,-28.346457,1,256.11811)"/>
<path style=" stroke:none;fill-rule:nonzero;fill:rgb(0%,0%,0%);fill-opacity:1;" d="M 6.863281 234.851562 C 7.9375 234.933594 8.652344 235.917969 8.847656 236.917969 C 8.949219 237.371094 8.972656 237.800781 9.015625 238.253906 L 9.015625 239.410156 C 8.960938 240.589844 8.675781 242.144531 7.394531 242.621094 C 6.285156 243.0625 4.980469 242.371094 4.652344 241.234375 C 4.402344 240.636719 4.378906 240.023438 4.320312 239.410156 L 4.320312 238.253906 C 4.378906 237.074219 4.628906 235.511719 5.898438 234.988281 L 5.953125 234.964844 L 6 234.953125 L 6.058594 234.933594 L 6.226562 234.886719 L 6.328125 234.863281 L 6.453125 234.863281 L 6.476562 234.851562 Z M 6.863281 234.851562 Z M 6.511719 235.542969 C 5.558594 235.65625 5.273438 236.804688 5.207031 237.574219 L 5.207031 237.878906 L 5.183594 237.902344 L 5.183594 239.480469 C 5.253906 240.296875 5.308594 241.347656 6.058594 241.894531 C 6.75 242.371094 7.667969 241.835938 7.859375 241.101562 C 8.0625 240.554688 8.109375 240.023438 8.15625 239.480469 L 8.15625 237.902344 C 8.085938 237.074219 7.972656 235.917969 7.019531 235.589844 L 6.941406 235.566406 L 6.917969 235.542969 L 6.816406 235.542969 L 6.792969 235.523438 L 6.535156 235.523438 Z M 6.511719 235.542969 Z M 6.511719 235.542969 "/>
<path style=" stroke:none;fill-rule:nonzero;fill:rgb(0%,0%,0%);fill-opacity:1;" d="M 7.214844 196.316406 L 7.214844 203.3125 L 7.226562 203.335938 L 8.621094 203.335938 L 8.621094 203.957031 L 4.933594 203.957031 L 4.933594 203.335938 L 6.328125 203.335938 L 6.351562 203.3125 L 6.351562 197.4375 C 5.875 197.597656 5.375 197.699219 4.878906 197.6875 L 4.878906 197.050781 C 5.625 197.0625 6.441406 196.859375 7.007812 196.316406 Z M 7.214844 196.316406 Z M 7.214844 196.316406 "/>
<path style=" stroke:none;fill-rule:nonzero;fill:rgb(0%,0%,0%);fill-opacity:1;" d="M 6.738281 157.777344 C 8.050781 157.8125 9.097656 159.160156 8.890625 160.433594 C 8.753906 161.703125 7.566406 162.425781 6.714844 163.222656 L 6.351562 163.59375 L 6.304688 163.617188 L 5.851562 164.058594 L 5.820312 164.082031 L 5.367188 164.535156 L 5.320312 164.558594 L 5.21875 164.660156 L 5.242188 164.671875 L 8.914062 164.671875 L 8.914062 165.421875 L 4.425781 165.421875 L 4.425781 164.742188 L 6.25 162.914062 C 7.121094 162.15625 8.144531 161.167969 7.984375 159.921875 C 7.894531 159.195312 7.28125 158.527344 6.535156 158.46875 C 5.773438 158.355469 5.105469 158.957031 4.933594 159.683594 L 4.910156 159.71875 L 4.890625 159.796875 L 4.785156 160.171875 L 4.777344 160.226562 C 4.617188 160.035156 4.445312 159.832031 4.320312 159.617188 C 4.550781 158.6875 5.296875 157.8125 6.285156 157.777344 Z M 6.738281 157.777344 Z M 6.738281 157.777344 "/>
<path style=" stroke:none;fill-rule:nonzero;fill:rgb(0%,0%,0%);fill-opacity:1;" d="M 6.882812 119.242188 C 7.882812 119.285156 8.925781 120.207031 8.6875 121.261719 C 8.574219 121.972656 8.074219 122.5625 7.453125 122.882812 C 8.460938 123.199219 9.242188 124.265625 8.972656 125.320312 C 8.699219 126.691406 7.121094 127.449219 5.851562 127.03125 C 5.242188 126.851562 4.617188 126.464844 4.320312 125.898438 C 4.390625 125.726562 4.367188 125.433594 4.445312 125.320312 C 5.046875 126.203125 6.316406 126.804688 7.316406 126.304688 C 8.402344 125.613281 8.234375 123.59375 6.917969 123.253906 L 6.816406 123.253906 L 6.792969 123.234375 L 5.738281 123.234375 L 5.738281 122.550781 C 6.386719 122.542969 7.191406 122.460938 7.554688 121.792969 C 7.9375 121.214844 7.90625 120.261719 7.167969 119.980469 C 6.296875 119.636719 5.21875 120.195312 4.890625 121.078125 C 4.753906 120.886719 4.617188 120.691406 4.480469 120.488281 C 4.945312 119.648438 5.933594 119.152344 6.882812 119.242188 Z M 6.882812 119.242188 Z M 6.882812 119.242188 "/>
<path style=" stroke:none;fill-rule:nonzero;fill:rgb(0%,0%,0%);fill-opacity:1;" d="M 8.03125 80.941406 L 8.03125 85.714844 L 8.050781 85.738281 L 9.175781 85.738281 L 9.175781 86.417969 L 8.050781 86.417969 L 8.03125 86.429688 L 8.03125 88.347656 L 7.167969 88.347656 L 7.167969 86.429688 L 7.144531 86.417969 L 4.152344 86.417969 L 4.152344 85.714844 C 5.105469 84.128906 6.058594 82.53125 7.007812 80.941406 Z M 8.03125 80.941406 Z M 7.191406 81.375 C 6.964844 82.554688 6.238281 83.5625 5.695312 84.59375 C 5.480469 84.96875 5.195312 85.375 5.035156 85.738281 L 7.214844 85.738281 L 7.226562 85.714844 L 7.226562 81.375 L 7.214844 81.351562 Z M 7.191406 81.375 Z M 7.191406 81.375 "/>
<path style=" stroke:none;fill-rule:nonzero;fill:rgb(0%,0%,0%);fill-opacity:1;" d="M 8.539062 42.40625 L 8.539062 43.109375 L 5.59375 43.109375 L 5.570312 43.121094 L 5.570312 45.445312 C 5.839844 45.261719 6.226562 45.023438 6.589844 45.011719 C 7.871094 44.878906 8.859375 46.136719 8.914062 47.304688 C 9.097656 48.789062 7.699219 50.261719 6.203125 50.035156 C 5.457031 50.015625 4.730469 49.570312 4.300781 48.960938 C 4.425781 48.789062 4.527344 48.496094 4.671875 48.390625 C 5.207031 49.4375 6.929688 49.855469 7.621094 48.753906 C 8.0625 47.925781 8.050781 46.875 7.542969 46.078125 C 6.953125 45.320312 5.785156 45.785156 5.511719 46.589844 L 4.777344 46.589844 L 4.777344 42.40625 Z M 8.539062 42.40625 Z M 8.539062 42.40625 "/>
<path style=" stroke:none;fill-rule:nonzero;fill:rgb(0%,0%,0%);fill-opacity:1;" d="M 7.597656 3.628906 C 7.894531 3.675781 8.234375 3.710938 8.515625 3.847656 L 8.515625 4.503906 C 7.734375 4.164062 6.714844 4.117188 6.101562 4.808594 C 5.558594 5.386719 5.308594 6.25 5.285156 7.007812 C 5.945312 6.136719 7.429688 5.648438 8.234375 6.554688 C 9.039062 7.484375 9.175781 8.824219 8.8125 9.957031 C 8.414062 10.863281 7.496094 11.691406 6.476562 11.5 C 5.09375 11.386719 4.46875 9.84375 4.402344 8.664062 C 4.140625 7 4.539062 4.902344 6.125 3.949219 L 6.148438 3.9375 L 6.386719 3.8125 L 6.453125 3.789062 L 6.488281 3.765625 L 6.679688 3.710938 L 6.839844 3.664062 L 6.941406 3.640625 L 7.066406 3.640625 L 7.089844 3.628906 Z M 7.597656 3.628906 Z M 6.488281 6.78125 C 5.5 6.953125 5.183594 8.144531 5.308594 8.949219 C 5.367188 9.707031 5.660156 10.71875 6.535156 10.875 C 7.464844 11 8.0625 10.003906 8.085938 9.199219 C 8.132812 8.382812 8.085938 7.453125 7.371094 6.917969 L 7.214844 6.839844 L 7.089844 6.804688 L 6.988281 6.78125 L 6.964844 6.761719 L 6.511719 6.761719 Z M 6.488281 6.78125 Z M 6.488281 6.78125 "/>
<path style="fill:none;stroke-width:0.02;stroke-linecap:butt;stroke-linejoin:miter;stroke:rgb(0%,0%,0%);stroke-opacity:1;stroke-miterlimit:10;" d="M 11.644561 1.971454 L 11.49463 1.971454 " transform="matrix(28.346457,0,0,-28.346457,1,256.11811)"/>
<path style="fill:none;stroke-width:0.02;stroke-linecap:butt;stroke-linejoin:miter;stroke:rgb(0%,0%,0%);stroke-opacity:1;stroke-miterlimit:10;" d="M 11.644561 3.331026 L 11.49463 3.331026 " transform="matrix(28.346457,0,0,-28.346457,1,256.11811)"/>
<path style="fill:none;stroke-width:0.02;stroke-linecap:butt;stroke-linejoin:miter;stroke:rgb(0%,0%,0%);stroke-opacity:1;stroke-miterlimit:10;" d="M 11.644561 4.690461 L 11.49463 4.690461 " transform="matrix(28.346457,0,0,-28.346457,1,256.11811)"/>
<path style="fill:none;stroke-width:0.02;stroke-linecap:butt;stroke-linejoin:miter;stroke:rgb(0%,0%,0%);stroke-opacity:1;stroke-miterlimit:10;" d="M 11.644561 6.050034 L 11.49463 6.050034 " transform="matrix(28.346457,0,0,-28.346457,1,256.11811)"/>
<path style="fill:none;stroke-width:0.02;stroke-linecap:butt;stroke-linejoin:miter;stroke:rgb(0%,0%,0%);stroke-opacity:1;stroke-miterlimit:10;" d="M 11.644561 7.409468 L 11.49463 7.409468 " transform="matrix(28.346457,0,0,-28.346457,1,256.11811)"/>
<path style="fill:none;stroke-width:0.02;stroke-linecap:round;stroke-linejoin:miter;stroke:rgb(0%,0%,0%);stroke-opacity:1;stroke-miterlimit:10;" d="M 11.644561 0.612019 L 11.644561 8.769041 " transform="matrix(28.346457,0,0,-28.346457,1,256.11811)"/>
<path style="fill:none;stroke-width:0.02;stroke-linecap:butt;stroke-linejoin:miter;stroke:rgb(0%,0%,0%);stroke-opacity:1;stroke-miterlimit:10;" d="M 1.659434 0.612019 L 1.659434 0.76195 " transform="matrix(28.346457,0,0,-28.346457,1,256.11811)"/>
<path style="fill:none;stroke-width:0.02;stroke-linecap:butt;stroke-linejoin:miter;stroke:rgb(0%,0%,0%);stroke-opacity:1;stroke-miterlimit:10;" d="M 2.768892 0.612019 L 2.768892 0.76195 " transform="matrix(28.346457,0,0,-28.346457,1,256.11811)"/>
<path style="fill:none;stroke-width:0.02;stroke-linecap:butt;stroke-linejoin:miter;stroke:rgb(0%,0%,0%);stroke-opacity:1;stroke-miterlimit:10;" d="M 3.878351 0.612019 L 3.878351 0.76195 " transform="matrix(28.346457,0,0,-28.346457,1,256.11811)"/>
<path style="fill:none;stroke-width:0.02;stroke-linecap:butt;stroke-linejoin:miter;stroke:rgb(0%,0%,0%);stroke-opacity:1;stroke-miterlimit:10;" d="M 4.987809 0.612019 L 4.987809 0.76195 " transform="matrix(28.346457,0,0,-28.346457,1,256.11811)"/>
<path style="fill:none;stroke-width:0.02;stroke-linecap:butt;stroke-linejoin:miter;stroke:rgb(0%,0%,0%);stroke-opacity:1;stroke-miterlimit:10;" d="M 6.097268 0.612019 L 6.097268 0.76195 " transform="matrix(28.346457,0,0,-28.346457,1,256.11811)"/>
<path style="fill:none;stroke-width:0.02;stroke-linecap:butt;stroke-linejoin:miter;stroke:rgb(0%,0%,0%);stroke-opacity:1;stroke-miterlimit:10;" d="M 7.206726 0.612019 L 7.206726 0.76195 " transform="matrix(28.346457,0,0,-28.346457,1,256.11811)"/>
<path style="fill:none;stroke-width:0.02;stroke-linecap:butt;stroke-linejoin:miter;stroke:rgb(0%,0%,0%);stroke-opacity:1;stroke-miterlimit:10;" d="M 8.316185 0.612019 L 8.316185 0.76195 " transform="matrix(28.346457,0,0,-28.346457,1,256.11811)"/>
<path style="fill:none;stroke-width:0.02;stroke-linecap:butt;stroke-linejoin:miter;stroke:rgb(0%,0%,0%);stroke-opacity:1;stroke-miterlimit:10;" d="M 9.425643 0.612019 L 9.425643 0.76195 " transform="matrix(28.346457,0,0,-28.346457,1,256.11811)"/>
<path style="fill:none;stroke-width:0.02;stroke-linecap:butt;stroke-linejoin:miter;stroke:rgb(0%,0%,0%);stroke-opacity:1;stroke-miterlimit:10;" d="M 10.535102 0.612019 L 10.535102 0.76195 " transform="matrix(28.346457,0,0,-28.346457,1,256.11811)"/>
<path style="fill:none;stroke-width:0.02;stroke-linecap:round;stroke-linejoin:miter;stroke:rgb(0%,0%,0%);stroke-opacity:1;stroke-miterlimit:10;" d="M 0.549975 0.612019 L 11.644561 0.612019 " transform="matrix(28.346457,0,0,-28.346457,1,256.11811)"/>
<path style=" stroke:none;fill-rule:nonzero;fill:rgb(0%,0%,0%);fill-opacity:1;" d="M 12.730469 245.652344 L 12.730469 252.648438 L 12.742188 252.671875 L 14.136719 252.671875 L 14.136719 253.292969 L 10.449219 253.292969 L 10.449219 252.671875 L 11.84375 252.671875 L 11.867188 252.648438 L 11.867188 246.773438 C 11.390625 246.933594 10.894531 247.035156 10.394531 247.023438 L 10.394531 246.390625 C 11.140625 246.402344 11.957031 246.195312 12.527344 245.652344 Z M 12.730469 245.652344 Z M 12.730469 245.652344 "/>
<path style=" stroke:none;fill-rule:nonzero;fill:rgb(0%,0%,0%);fill-opacity:1;" d="M 17.0625 252.386719 L 17.0625 253.292969 L 16.144531 253.292969 L 16.144531 252.386719 Z M 17.0625 252.386719 Z M 17.0625 252.386719 "/>
<path style=" stroke:none;fill-rule:nonzero;fill:rgb(0%,0%,0%);fill-opacity:1;" d="M 21.1875 245.652344 C 22.265625 245.730469 22.980469 246.71875 23.171875 247.714844 C 23.273438 248.167969 23.296875 248.601562 23.34375 249.054688 L 23.34375 250.210938 C 23.285156 251.390625 23.003906 252.941406 21.722656 253.417969 C 20.609375 253.863281 19.304688 253.171875 18.976562 252.035156 C 18.726562 251.433594 18.707031 250.824219 18.648438 250.210938 L 18.648438 249.054688 C 18.707031 247.875 18.953125 246.308594 20.222656 245.789062 L 20.28125 245.765625 L 20.328125 245.753906 L 20.382812 245.730469 L 20.554688 245.6875 L 20.65625 245.664062 L 20.78125 245.664062 L 20.804688 245.652344 Z M 21.1875 245.652344 Z M 20.835938 246.34375 C 19.882812 246.457031 19.601562 247.601562 19.53125 248.375 L 19.53125 248.679688 L 19.511719 248.703125 L 19.511719 250.277344 C 19.578125 251.09375 19.636719 252.148438 20.382812 252.695312 C 21.074219 253.171875 21.992188 252.636719 22.1875 251.898438 C 22.390625 251.355469 22.4375 250.824219 22.480469 250.277344 L 22.480469 248.703125 C 22.414062 247.875 22.300781 246.71875 21.347656 246.390625 L 21.269531 246.367188 L 21.246094 246.34375 L 21.144531 246.34375 L 21.121094 246.320312 L 20.859375 246.320312 Z M 20.835938 246.34375 Z M 20.835938 246.34375 "/>
<path style=" stroke:none;fill-rule:nonzero;fill:rgb(0%,0%,0%);fill-opacity:1;" d="M 44.179688 245.652344 L 44.179688 252.648438 L 44.191406 252.671875 L 45.585938 252.671875 L 45.585938 253.292969 L 41.898438 253.292969 L 41.898438 252.671875 L 43.292969 252.671875 L 43.316406 252.648438 L 43.316406 246.773438 C 42.839844 246.933594 42.34375 247.035156 41.84375 247.023438 L 41.84375 246.390625 C 42.589844 246.402344 43.40625 246.195312 43.976562 245.652344 Z M 44.179688 245.652344 Z M 44.179688 245.652344 "/>
<path style=" stroke:none;fill-rule:nonzero;fill:rgb(0%,0%,0%);fill-opacity:1;" d="M 48.511719 252.386719 L 48.511719 253.292969 L 47.59375 253.292969 L 47.59375 252.386719 Z M 48.511719 252.386719 Z M 48.511719 252.386719 "/>
<path style=" stroke:none;fill-rule:nonzero;fill:rgb(0%,0%,0%);fill-opacity:1;" d="M 54.316406 245.890625 L 54.316406 246.59375 L 51.367188 246.59375 L 51.34375 246.605469 L 51.34375 248.929688 C 51.617188 248.746094 52.003906 248.511719 52.367188 248.5 C 53.648438 248.363281 54.632812 249.621094 54.691406 250.789062 C 54.871094 252.273438 53.476562 253.75 51.980469 253.523438 C 51.230469 253.5 50.507812 253.058594 50.074219 252.445312 C 50.199219 252.273438 50.300781 251.980469 50.449219 251.878906 C 50.980469 252.921875 52.707031 253.339844 53.398438 252.242188 C 53.839844 251.414062 53.828125 250.359375 53.316406 249.5625 C 52.726562 248.804688 51.558594 249.269531 51.289062 250.074219 L 50.550781 250.074219 L 50.550781 245.890625 Z M 54.316406 245.890625 Z M 54.316406 245.890625 "/>
<path style=" stroke:none;fill-rule:nonzero;fill:rgb(0%,0%,0%);fill-opacity:1;" d="M 75.152344 245.652344 C 76.46875 245.6875 77.511719 247.035156 77.304688 248.304688 C 77.171875 249.574219 75.980469 250.300781 75.128906 251.09375 L 74.765625 251.46875 L 74.722656 251.492188 L 74.269531 251.933594 L 74.234375 251.957031 L 73.78125 252.410156 L 73.734375 252.433594 L 73.632812 252.535156 L 73.65625 252.546875 L 77.328125 252.546875 L 77.328125 253.292969 L 72.839844 253.292969 L 72.839844 252.613281 L 74.664062 250.789062 C 75.539062 250.027344 76.558594 249.042969 76.398438 247.796875 C 76.308594 247.070312 75.695312 246.402344 74.949219 246.34375 C 74.1875 246.230469 73.519531 246.832031 73.347656 247.558594 L 73.328125 247.589844 L 73.304688 247.671875 L 73.269531 247.796875 L 73.203125 248.046875 L 73.191406 248.101562 C 73.03125 247.910156 72.863281 247.703125 72.738281 247.488281 C 72.964844 246.558594 73.710938 245.6875 74.699219 245.652344 Z M 75.152344 245.652344 Z M 75.152344 245.652344 "/>
<path style=" stroke:none;fill-rule:nonzero;fill:rgb(0%,0%,0%);fill-opacity:1;" d="M 79.960938 252.386719 L 79.960938 253.292969 L 79.042969 253.292969 L 79.042969 252.386719 Z M 79.960938 252.386719 Z M 79.960938 252.386719 "/>
<path style=" stroke:none;fill-rule:nonzero;fill:rgb(0%,0%,0%);fill-opacity:1;" d="M 84.085938 245.652344 C 85.164062 245.730469 85.878906 246.71875 86.070312 247.714844 C 86.171875 248.167969 86.195312 248.601562 86.242188 249.054688 L 86.242188 250.210938 C 86.183594 251.390625 85.902344 252.941406 84.621094 253.417969 C 83.507812 253.863281 82.203125 253.171875 81.875 252.035156 C 81.625 251.433594 81.605469 250.824219 81.546875 250.210938 L 81.546875 249.054688 C 81.605469 247.875 81.851562 246.308594 83.125 245.789062 L 83.179688 245.765625 L 83.226562 245.753906 L 83.28125 245.730469 L 83.453125 245.6875 L 83.554688 245.664062 L 83.679688 245.664062 L 83.703125 245.652344 Z M 84.085938 245.652344 Z M 83.734375 246.34375 C 82.78125 246.457031 82.5 247.601562 82.429688 248.375 L 82.429688 248.679688 L 82.410156 248.703125 L 82.410156 250.277344 C 82.476562 251.09375 82.535156 252.148438 83.28125 252.695312 C 83.972656 253.171875 84.890625 252.636719 85.085938 251.898438 C 85.289062 251.355469 85.335938 250.824219 85.378906 250.277344 L 85.378906 248.703125 C 85.3125 247.875 85.199219 246.71875 84.246094 246.390625 L 84.167969 246.367188 L 84.144531 246.34375 L 84.042969 246.34375 L 84.019531 246.320312 L 83.757812 246.320312 Z M 83.734375 246.34375 Z M 83.734375 246.34375 "/>
<path style=" stroke:none;fill-rule:nonzero;fill:rgb(0%,0%,0%);fill-opacity:1;" d="M 106.601562 245.652344 C 107.917969 245.6875 108.960938 247.035156 108.753906 248.304688 C 108.621094 249.574219 107.429688 250.300781 106.578125 251.09375 L 106.214844 251.46875 L 106.171875 251.492188 L 105.71875 251.933594 L 105.683594 251.957031 L 105.230469 252.410156 L 105.183594 252.433594 L 105.082031 252.535156 L 105.105469 252.546875 L 108.777344 252.546875 L 108.777344 253.292969 L 104.289062 253.292969 L 104.289062 252.613281 L 106.113281 250.789062 C 106.988281 250.027344 108.007812 249.042969 107.847656 247.796875 C 107.757812 247.070312 107.144531 246.402344 106.398438 246.34375 C 105.636719 246.230469 104.96875 246.832031 104.796875 247.558594 L 104.777344 247.589844 L 104.753906 247.671875 L 104.71875 247.796875 L 104.652344 248.046875 L 104.640625 248.101562 C 104.480469 247.910156 104.3125 247.703125 104.1875 247.488281 C 104.414062 246.558594 105.160156 245.6875 106.148438 245.652344 Z M 106.601562 245.652344 Z M 106.601562 245.652344 "/>
<path style=" stroke:none;fill-rule:nonzero;fill:rgb(0%,0%,0%);fill-opacity:1;" d="M 111.410156 252.386719 L 111.410156 253.292969 L 110.492188 253.292969 L 110.492188 252.386719 Z M 111.410156 252.386719 Z M 111.410156 252.386719 "/>
<path style=" stroke:none;fill-rule:nonzero;fill:rgb(0%,0%,0%);fill-opacity:1;" d="M 117.214844 245.890625 L 117.214844 246.59375 L 114.265625 246.59375 L 114.242188 246.605469 L 114.242188 248.929688 C 114.515625 248.746094 114.902344 248.511719 115.265625 248.5 C 116.546875 248.363281 117.53125 249.621094 117.589844 250.789062 C 117.769531 252.273438 116.375 253.75 114.878906 253.523438 C 114.128906 253.5 113.40625 253.058594 112.972656 252.445312 C 113.097656 252.273438 113.199219 251.980469 113.347656 251.878906 C 113.878906 252.921875 115.605469 253.339844 116.296875 252.242188 C 116.738281 251.414062 116.726562 250.359375 116.214844 249.5625 C 115.625 248.804688 114.457031 249.269531 114.1875 250.074219 L 113.449219 250.074219 L 113.449219 245.890625 Z M 117.214844 245.890625 Z M 117.214844 245.890625 "/>
<path style=" stroke:none;fill-rule:nonzero;fill:rgb(0%,0%,0%);fill-opacity:1;" d="M 138.199219 245.652344 C 139.195312 245.699219 140.238281 246.617188 140 247.671875 C 139.886719 248.386719 139.386719 248.976562 138.765625 249.292969 C 139.773438 249.609375 140.554688 250.675781 140.285156 251.730469 C 140.011719 253.101562 138.4375 253.863281 137.167969 253.441406 C 136.554688 253.261719 135.929688 252.875 135.636719 252.308594 C 135.703125 252.136719 135.679688 251.84375 135.761719 251.730469 C 136.359375 252.613281 137.632812 253.214844 138.628906 252.714844 C 139.71875 252.023438 139.546875 250.007812 138.230469 249.667969 L 138.128906 249.667969 L 138.105469 249.644531 L 137.054688 249.644531 L 137.054688 248.964844 C 137.699219 248.953125 138.503906 248.871094 138.867188 248.203125 C 139.253906 247.625 139.21875 246.671875 138.480469 246.390625 C 137.609375 246.050781 136.53125 246.605469 136.203125 247.488281 C 136.066406 247.296875 135.929688 247.105469 135.792969 246.898438 C 136.257812 246.0625 137.246094 245.5625 138.199219 245.652344 Z M 138.199219 245.652344 Z M 138.199219 245.652344 "/>
<path style=" stroke:none;fill-rule:nonzero;fill:rgb(0%,0%,0%);fill-opacity:1;" d="M 142.859375 252.386719 L 142.859375 253.292969 L 141.941406 253.292969 L 141.941406 252.386719 Z M 142.859375 252.386719 Z M 142.859375 252.386719 "/>
<path style=" stroke:none;fill-rule:nonzero;fill:rgb(0%,0%,0%);fill-opacity:1;" d="M 146.984375 245.652344 C 148.0625 245.730469 148.777344 246.71875 148.96875 247.714844 C 149.070312 248.167969 149.09375 248.601562 149.140625 249.054688 L 149.140625 250.210938 C 149.082031 251.390625 148.800781 252.941406 147.519531 253.417969 C 146.40625 253.863281 145.101562 253.171875 144.773438 252.035156 C 144.523438 251.433594 144.503906 250.824219 144.445312 250.210938 L 144.445312 249.054688 C 144.503906 247.875 144.75 246.308594 146.023438 245.789062 L 146.078125 245.765625 L 146.125 245.753906 L 146.179688 245.730469 L 146.351562 245.6875 L 146.453125 245.664062 L 146.578125 245.664062 L 146.601562 245.652344 Z M 146.984375 245.652344 Z M 146.632812 246.34375 C 145.679688 246.457031 145.398438 247.601562 145.328125 248.375 L 145.328125 248.679688 L 145.308594 248.703125 L 145.308594 250.277344 C 145.375 251.09375 145.433594 252.148438 146.179688 252.695312 C 146.871094 253.171875 147.789062 252.636719 147.984375 251.898438 C 148.1875 251.355469 148.234375 250.824219 148.277344 250.277344 L 148.277344 248.703125 C 148.210938 247.875 148.097656 246.71875 147.144531 246.390625 L 147.066406 246.367188 L 147.042969 246.34375 L 146.941406 246.34375 L 146.917969 246.320312 L 146.65625 246.320312 Z M 146.632812 246.34375 Z M 146.632812 246.34375 "/>
<path style=" stroke:none;fill-rule:nonzero;fill:rgb(0%,0%,0%);fill-opacity:1;" d="M 169.648438 245.652344 C 170.644531 245.699219 171.6875 246.617188 171.449219 247.671875 C 171.335938 248.386719 170.835938 248.976562 170.214844 249.292969 C 171.222656 249.609375 172.003906 250.675781 171.734375 251.730469 C 171.460938 253.101562 169.886719 253.863281 168.617188 253.441406 C 168.003906 253.261719 167.378906 252.875 167.085938 252.308594 C 167.152344 252.136719 167.128906 251.84375 167.210938 251.730469 C 167.808594 252.613281 169.082031 253.214844 170.078125 252.714844 C 171.167969 252.023438 170.996094 250.007812 169.679688 249.667969 L 169.578125 249.667969 L 169.554688 249.644531 L 168.503906 249.644531 L 168.503906 248.964844 C 169.148438 248.953125 169.953125 248.871094 170.316406 248.203125 C 170.703125 247.625 170.667969 246.671875 169.929688 246.390625 C 169.058594 246.050781 167.980469 246.605469 167.652344 247.488281 C 167.515625 247.296875 167.378906 247.105469 167.242188 246.898438 C 167.707031 246.0625 168.695312 245.5625 169.648438 245.652344 Z M 169.648438 245.652344 Z M 169.648438 245.652344 "/>
<path style=" stroke:none;fill-rule:nonzero;fill:rgb(0%,0%,0%);fill-opacity:1;" d="M 174.308594 252.386719 L 174.308594 253.292969 L 173.390625 253.292969 L 173.390625 252.386719 Z M 174.308594 252.386719 Z M 174.308594 252.386719 "/>
<path style=" stroke:none;fill-rule:nonzero;fill:rgb(0%,0%,0%);fill-opacity:1;" d="M 180.113281 245.890625 L 180.113281 246.59375 L 177.164062 246.59375 L 177.140625 246.605469 L 177.140625 248.929688 C 177.414062 248.746094 177.800781 248.511719 178.164062 248.5 C 179.445312 248.363281 180.429688 249.621094 180.488281 250.789062 C 180.667969 252.273438 179.273438 253.75 177.777344 253.523438 C 177.027344 253.5 176.304688 253.058594 175.871094 252.445312 C 175.996094 252.273438 176.097656 251.980469 176.246094 251.878906 C 176.777344 252.921875 178.503906 253.339844 179.195312 252.242188 C 179.636719 251.414062 179.625 250.359375 179.113281 249.5625 C 178.523438 248.804688 177.359375 249.269531 177.085938 250.074219 L 176.347656 250.074219 L 176.347656 245.890625 Z M 180.113281 245.890625 Z M 180.113281 245.890625 "/>
<path style=" stroke:none;fill-rule:nonzero;fill:rgb(0%,0%,0%);fill-opacity:1;" d="M 202.242188 245.890625 L 202.242188 250.664062 L 202.265625 250.6875 L 203.386719 250.6875 L 203.386719 251.367188 L 202.265625 251.367188 L 202.242188 251.378906 L 202.242188 253.292969 L 201.378906 253.292969 L 201.378906 251.378906 L 201.355469 251.367188 L 198.363281 251.367188 L 198.363281 250.664062 C 199.316406 249.078125 200.269531 247.476562 201.222656 245.890625 Z M 202.242188 245.890625 Z M 201.402344 246.320312 C 201.175781 247.5 200.449219 248.511719 199.90625 249.542969 C 199.691406 249.914062 199.40625 250.324219 199.25 250.6875 L 201.425781 250.6875 L 201.4375 250.664062 L 201.4375 246.320312 L 201.425781 246.300781 Z M 201.402344 246.320312 Z M 201.402344 246.320312 "/>
<path style=" stroke:none;fill-rule:nonzero;fill:rgb(0%,0%,0%);fill-opacity:1;" d="M 205.757812 252.386719 L 205.757812 253.292969 L 204.839844 253.292969 L 204.839844 252.386719 Z M 205.757812 252.386719 Z M 205.757812 252.386719 "/>
<path style=" stroke:none;fill-rule:nonzero;fill:rgb(0%,0%,0%);fill-opacity:1;" d="M 209.882812 245.652344 C 210.960938 245.730469 211.675781 246.71875 211.867188 247.714844 C 211.96875 248.167969 211.992188 248.601562 212.039062 249.054688 L 212.039062 250.210938 C 211.980469 251.390625 211.699219 252.941406 210.417969 253.417969 C 209.304688 253.863281 208 253.171875 207.671875 252.035156 C 207.421875 251.433594 207.402344 250.824219 207.34375 250.210938 L 207.34375 249.054688 C 207.402344 247.875 207.648438 246.308594 208.921875 245.789062 L 208.976562 245.765625 L 209.023438 245.753906 L 209.078125 245.730469 L 209.25 245.6875 L 209.351562 245.664062 L 209.476562 245.664062 L 209.5 245.652344 Z M 209.882812 245.652344 Z M 209.53125 246.34375 C 208.578125 246.457031 208.296875 247.601562 208.226562 248.375 L 208.226562 248.679688 L 208.207031 248.703125 L 208.207031 250.277344 C 208.273438 251.09375 208.332031 252.148438 209.078125 252.695312 C 209.769531 253.171875 210.6875 252.636719 210.882812 251.898438 C 211.085938 251.355469 211.132812 250.824219 211.175781 250.277344 L 211.175781 248.703125 C 211.109375 247.875 210.996094 246.71875 210.042969 246.390625 L 209.964844 246.367188 L 209.941406 246.34375 L 209.839844 246.34375 L 209.816406 246.320312 L 209.554688 246.320312 Z M 209.53125 246.34375 Z M 209.53125 246.34375 "/>
<path style=" stroke:none;fill-rule:nonzero;fill:rgb(0%,0%,0%);fill-opacity:1;" d="M 233.691406 245.890625 L 233.691406 250.664062 L 233.714844 250.6875 L 234.835938 250.6875 L 234.835938 251.367188 L 233.714844 251.367188 L 233.691406 251.378906 L 233.691406 253.292969 L 232.828125 253.292969 L 232.828125 251.378906 L 232.804688 251.367188 L 229.8125 251.367188 L 229.8125 250.664062 C 230.765625 249.078125 231.71875 247.476562 232.671875 245.890625 Z M 233.691406 245.890625 Z M 232.851562 246.320312 C 232.625 247.5 231.898438 248.511719 231.355469 249.542969 C 231.140625 249.914062 230.855469 250.324219 230.699219 250.6875 L 232.875 250.6875 L 232.886719 250.664062 L 232.886719 246.320312 L 232.875 246.300781 Z M 232.851562 246.320312 Z M 232.851562 246.320312 "/>
<path style=" stroke:none;fill-rule:nonzero;fill:rgb(0%,0%,0%);fill-opacity:1;" d="M 237.207031 252.386719 L 237.207031 253.292969 L 236.289062 253.292969 L 236.289062 252.386719 Z M 237.207031 252.386719 Z M 237.207031 252.386719 "/>
<path style=" stroke:none;fill-rule:nonzero;fill:rgb(0%,0%,0%);fill-opacity:1;" d="M 243.011719 245.890625 L 243.011719 246.59375 L 240.0625 246.59375 L 240.039062 246.605469 L 240.039062 248.929688 C 240.3125 248.746094 240.699219 248.511719 241.0625 248.5 C 242.34375 248.363281 243.328125 249.621094 243.386719 250.789062 C 243.566406 252.273438 242.171875 253.75 240.675781 253.523438 C 239.925781 253.5 239.203125 253.058594 238.769531 252.445312 C 238.894531 252.273438 238.996094 251.980469 239.144531 251.878906 C 239.675781 252.921875 241.402344 253.339844 242.09375 252.242188 C 242.535156 251.414062 242.523438 250.359375 242.011719 249.5625 C 241.425781 248.804688 240.257812 249.269531 239.984375 250.074219 L 239.246094 250.074219 L 239.246094 245.890625 Z M 243.011719 245.890625 Z M 243.011719 245.890625 "/>
<path style=" stroke:none;fill-rule:nonzero;fill:rgb(0%,0%,0%);fill-opacity:1;" d="M 265.652344 245.890625 L 265.652344 246.59375 L 262.703125 246.59375 L 262.679688 246.605469 L 262.679688 248.929688 C 262.953125 248.746094 263.335938 248.511719 263.699219 248.5 C 264.980469 248.363281 265.96875 249.621094 266.023438 250.789062 C 266.207031 252.273438 264.8125 253.75 263.316406 253.523438 C 262.566406 253.5 261.839844 253.058594 261.410156 252.445312 C 261.535156 252.273438 261.636719 251.980469 261.785156 251.878906 C 262.316406 252.921875 264.039062 253.339844 264.730469 252.242188 C 265.175781 251.414062 265.164062 250.359375 264.652344 249.5625 C 264.0625 248.804688 262.894531 249.269531 262.625 250.074219 L 261.886719 250.074219 L 261.886719 245.890625 Z M 265.652344 245.890625 Z M 265.652344 245.890625 "/>
<path style=" stroke:none;fill-rule:nonzero;fill:rgb(0%,0%,0%);fill-opacity:1;" d="M 268.65625 252.386719 L 268.65625 253.292969 L 267.738281 253.292969 L 267.738281 252.386719 Z M 268.65625 252.386719 Z M 268.65625 252.386719 "/>
<path style=" stroke:none;fill-rule:nonzero;fill:rgb(0%,0%,0%);fill-opacity:1;" d="M 272.78125 245.652344 C 273.859375 245.730469 274.574219 246.71875 274.765625 247.714844 C 274.867188 248.167969 274.890625 248.601562 274.9375 249.054688 L 274.9375 250.210938 C 274.878906 251.390625 274.597656 252.941406 273.316406 253.417969 C 272.203125 253.863281 270.898438 253.171875 270.570312 252.035156 C 270.320312 251.433594 270.300781 250.824219 270.242188 250.210938 L 270.242188 249.054688 C 270.300781 247.875 270.546875 246.308594 271.820312 245.789062 L 271.875 245.765625 L 271.921875 245.753906 L 271.976562 245.730469 L 272.148438 245.6875 L 272.25 245.664062 L 272.375 245.664062 L 272.398438 245.652344 Z M 272.78125 245.652344 Z M 272.429688 246.34375 C 271.476562 246.457031 271.195312 247.601562 271.128906 248.375 L 271.128906 248.679688 L 271.105469 248.703125 L 271.105469 250.277344 C 271.171875 251.09375 271.230469 252.148438 271.976562 252.695312 C 272.667969 253.171875 273.585938 252.636719 273.78125 251.898438 C 273.984375 251.355469 274.03125 250.824219 274.074219 250.277344 L 274.074219 248.703125 C 274.007812 247.875 273.894531 246.71875 272.941406 246.390625 L 272.863281 246.367188 L 272.839844 246.34375 L 272.738281 246.34375 L 272.714844 246.320312 L 272.453125 246.320312 Z M 272.429688 246.34375 Z M 272.429688 246.34375 "/>
<path style=" stroke:none;fill-rule:nonzero;fill:rgb(0%,0%,0%);fill-opacity:1;" d="M 297.101562 245.890625 L 297.101562 246.59375 L 294.152344 246.59375 L 294.128906 246.605469 L 294.128906 248.929688 C 294.402344 248.746094 294.785156 248.511719 295.148438 248.5 C 296.429688 248.363281 297.417969 249.621094 297.472656 250.789062 C 297.65625 252.273438 296.261719 253.75 294.765625 253.523438 C 294.015625 253.5 293.289062 253.058594 292.859375 252.445312 C 292.984375 252.273438 293.085938 251.980469 293.234375 251.878906 C 293.765625 252.921875 295.488281 253.339844 296.179688 252.242188 C 296.625 251.414062 296.613281 250.359375 296.101562 249.5625 C 295.511719 248.804688 294.34375 249.269531 294.074219 250.074219 L 293.335938 250.074219 L 293.335938 245.890625 Z M 297.101562 245.890625 Z M 297.101562 245.890625 "/>
<path style=" stroke:none;fill-rule:nonzero;fill:rgb(0%,0%,0%);fill-opacity:1;" d="M 300.105469 252.386719 L 300.105469 253.292969 L 299.1875 253.292969 L 299.1875 252.386719 Z M 300.105469 252.386719 Z M 300.105469 252.386719 "/>
<path style=" stroke:none;fill-rule:nonzero;fill:rgb(0%,0%,0%);fill-opacity:1;" d="M 305.910156 245.890625 L 305.910156 246.59375 L 302.960938 246.59375 L 302.9375 246.605469 L 302.9375 248.929688 C 303.210938 248.746094 303.597656 248.511719 303.960938 248.5 C 305.242188 248.363281 306.226562 249.621094 306.285156 250.789062 C 306.464844 252.273438 305.070312 253.75 303.574219 253.523438 C 302.824219 253.5 302.101562 253.058594 301.667969 252.445312 C 301.792969 252.273438 301.894531 251.980469 302.042969 251.878906 C 302.578125 252.921875 304.300781 253.339844 304.992188 252.242188 C 305.433594 251.414062 305.421875 250.359375 304.910156 249.5625 C 304.324219 248.804688 303.15625 249.269531 302.882812 250.074219 L 302.144531 250.074219 L 302.144531 245.890625 Z M 305.910156 245.890625 Z M 305.910156 245.890625 "/>
<path style=" stroke:none;fill-rule:nonzero;fill:rgb(0%,0%,0%);fill-opacity:1;" d="M 327.609375 245.652344 C 327.902344 245.699219 328.242188 245.730469 328.527344 245.867188 L 328.527344 246.527344 C 327.742188 246.183594 326.722656 246.140625 326.109375 246.832031 C 325.566406 247.410156 325.316406 248.273438 325.292969 249.03125 C 325.953125 248.160156 327.4375 247.671875 328.242188 248.578125 C 329.046875 249.507812 329.183594 250.84375 328.820312 251.980469 C 328.425781 252.886719 327.503906 253.714844 326.484375 253.523438 C 325.101562 253.40625 324.476562 251.867188 324.410156 250.6875 C 324.148438 249.019531 324.546875 246.921875 326.132812 245.96875 L 326.15625 245.957031 L 326.394531 245.835938 L 326.460938 245.8125 L 326.496094 245.789062 L 326.6875 245.730469 L 326.847656 245.6875 L 326.949219 245.664062 L 327.074219 245.664062 L 327.097656 245.652344 Z M 327.609375 245.652344 Z M 326.496094 248.804688 C 325.511719 248.976562 325.191406 250.164062 325.316406 250.96875 C 325.375 251.730469 325.667969 252.738281 326.542969 252.898438 C 327.472656 253.023438 328.074219 252.023438 328.09375 251.21875 C 328.140625 250.402344 328.09375 249.472656 327.382812 248.941406 L 327.222656 248.863281 L 327.097656 248.828125 L 326.996094 248.804688 L 326.972656 248.78125 L 326.519531 248.78125 Z M 326.496094 248.804688 Z M 326.496094 248.804688 "/>
<path style=" stroke:none;fill-rule:nonzero;fill:rgb(0%,0%,0%);fill-opacity:1;" d="M 331.554688 252.386719 L 331.554688 253.292969 L 330.636719 253.292969 L 330.636719 252.386719 Z M 331.554688 252.386719 Z M 331.554688 252.386719 "/>
<path style=" stroke:none;fill-rule:nonzero;fill:rgb(0%,0%,0%);fill-opacity:1;" d="M 335.679688 245.652344 C 336.757812 245.730469 337.472656 246.71875 337.664062 247.714844 C 337.765625 248.167969 337.789062 248.601562 337.835938 249.054688 L 337.835938 250.210938 C 337.777344 251.390625 337.496094 252.941406 336.214844 253.417969 C 335.101562 253.863281 333.796875 253.171875 333.46875 252.035156 C 333.21875 251.433594 333.199219 250.824219 333.140625 250.210938 L 333.140625 249.054688 C 333.199219 247.875 333.445312 246.308594 334.71875 245.789062 L 334.773438 245.765625 L 334.820312 245.753906 L 334.875 245.730469 L 335.046875 245.6875 L 335.148438 245.664062 L 335.273438 245.664062 L 335.296875 245.652344 Z M 335.679688 245.652344 Z M 335.328125 246.34375 C 334.378906 246.457031 334.09375 247.601562 334.027344 248.375 L 334.027344 248.679688 L 334.003906 248.703125 L 334.003906 250.277344 C 334.070312 251.09375 334.128906 252.148438 334.875 252.695312 C 335.566406 253.171875 336.484375 252.636719 336.679688 251.898438 C 336.882812 251.355469 336.929688 250.824219 336.972656 250.277344 L 336.972656 248.703125 C 336.90625 247.875 336.792969 246.71875 335.839844 246.390625 L 335.761719 246.367188 L 335.738281 246.34375 L 335.636719 246.34375 L 335.613281 246.320312 L 335.351562 246.320312 Z M 335.328125 246.34375 Z M 335.328125 246.34375 "/>
<path style="fill:none;stroke-width:0.02;stroke-linecap:butt;stroke-linejoin:miter;stroke:rgb(0%,0%,0%);stroke-opacity:1;stroke-miterlimit:10;" d="M 1.659434 8.769041 L 1.659434 8.618972 " transform="matrix(28.346457,0,0,-28.346457,1,256.11811)"/>
<path style="fill:none;stroke-width:0.02;stroke-linecap:butt;stroke-linejoin:miter;stroke:rgb(0%,0%,0%);stroke-opacity:1;stroke-miterlimit:10;" d="M 2.768892 8.769041 L 2.768892 8.618972 " transform="matrix(28.346457,0,0,-28.346457,1,256.11811)"/>
<path style="fill:none;stroke-width:0.02;stroke-linecap:butt;stroke-linejoin:miter;stroke:rgb(0%,0%,0%);stroke-opacity:1;stroke-miterlimit:10;" d="M 3.878351 8.769041 L 3.878351 8.618972 " transform="matrix(28.346457,0,0,-28.346457,1,256.11811)"/>
<path style="fill:none;stroke-width:0.02;stroke-linecap:butt;stroke-linejoin:miter;stroke:rgb(0%,0%,0%);stroke-opacity:1;stroke-miterlimit:10;" d="M 4.987809 8.769041 L 4.987809 8.618972 " transform="matrix(28.346457,0,0,-28.346457,1,256.11811)"/>
<path style="fill:none;stroke-width:0.02;stroke-linecap:butt;stroke-linejoin:miter;stroke:rgb(0%,0%,0%);stroke-opacity:1;stroke-miterlimit:10;" d="M 6.097268 8.769041 L 6.097268 8.618972 " transform="matrix(28.346457,0,0,-28.346457,1,256.11811)"/>
<path style="fill:none;stroke-width:0.02;stroke-linecap:butt;stroke-linejoin:miter;stroke:rgb(0%,0%,0%);stroke-opacity:1;stroke-miterlimit:10;" d="M 7.206726 8.769041 L 7.206726 8.618972 " transform="matrix(28.346457,0,0,-28.346457,1,256.11811)"/>
<path style="fill:none;stroke-width:0.02;stroke-linecap:butt;stroke-linejoin:miter;stroke:rgb(0%,0%,0%);stroke-opacity:1;stroke-miterlimit:10;" d="M 8.316185 8.769041 L 8.316185 8.618972 " transform="matrix(28.346457,0,0,-28.346457,1,256.11811)"/>
<path style="fill:none;stroke-width:0.02;stroke-linecap:butt;stroke-linejoin:miter;stroke:rgb(0%,0%,0%);stroke-opacity:1;stroke-miterlimit:10;" d="M 9.425643 8.769041 L 9.425643 8.618972 " transform="matrix(28.346457,0,0,-28.346457,1,256.11811)"/>
<path style="fill:none;stroke-width:0.02;stroke-linecap:butt;stroke-linejoin:miter;stroke:rgb(0%,0%,0%);stroke-opacity:1;stroke-miterlimit:10;" d="M 10.535102 8.769041 L 10.535102 8.618972 " transform="matrix(28.346457,0,0,-28.346457,1,256.11811)"/>
<path style="fill:none;stroke-width:0.02;stroke-linecap:round;stroke-linejoin:miter;stroke:rgb(0%,0%,0%);stroke-opacity:1;stroke-miterlimit:10;" d="M 0.549975 8.769041 L 11.644561 8.769041 " transform="matrix(28.346457,0,0,-28.346457,1,256.11811)"/>
<path style="fill:none;stroke-width:0.05;stroke-linecap:butt;stroke-linejoin:miter;stroke:rgb(33%,47%,64%);stroke-opacity:1;stroke-miterlimit:10;" d="M 0.549975 1.971454 L 2.768892 3.331026 L 4.987809 0.612019 L 7.206726 6.050034 L 9.425643 7.409468 L 11.644561 8.769041 " transform="matrix(28.346457,0,0,-28.346457,1,256.11811)"/>
<path style="fill-rule:nonzero;fill:rgb(33%,47%,64%);fill-opacity:1;stroke-width:0.05;stroke-linecap:butt;stroke-linejoin:round;stroke:rgb(33%,47%,64%);stroke-opacity:1;stroke-miterlimit:10;" d="M 0.724986 1.971454 C 0.724986 2.204894 0.374964 2.204894 0.374964 1.971454 C 0.374964 1.738152 0.724986 1.738152 0.724986 1.971454 Z M 0.724986 1.971454 " transform="matrix(28.346457,0,0,-28.346457,1,256.11811)"/>
<path style="fill-rule:nonzero;fill:rgb(33%,47%,64%);fill-opacity:1;stroke-width:0.05;stroke-linecap:butt;stroke-linejoin:round;stroke:rgb(33%,47%,64%);stroke-opacity:1;stroke-miterlimit:10;" d="M 2.943903 3.331026 C 2.943903 3.564328 2.593881 3.564328 2.593881 3.331026 C 2.593881 3.097725 2.943903 3.097725 2.943903 3.331026 Z M 2.943903 3.331026 " transform="matrix(28.346457,0,0,-28.346457,1,256.11811)"/>
<path style="fill-rule:nonzero;fill:rgb(33%,47%,64%);fill-opacity:1;stroke-width:0.05;stroke-linecap:butt;stroke-linejoin:round;stroke:rgb(33%,47%,64%);stroke-opacity:1;stroke-miterlimit:10;" d="M 5.16282 0.612019 C 5.16282 0.845321 4.812798 0.845321 4.812798 0.612019 C 4.812798 0.378717 5.16282 0.378717 5.16282 0.612019 Z M 5.16282 0.612019 " transform="matrix(28.346457,0,0,-28.346457,1,256.11811)"/>
<path style="fill-rule:nonzero;fill:rgb(33%,47%,64%);fill-opacity:1;stroke-width:0.05;stroke-linecap:butt;stroke-linejoin:round;stroke:rgb(33%,47%,64%);stroke-opacity:1;stroke-miterlimit:10;" d="M 7.381737 6.050034 C 7.381737 6.283336 7.031715 6.283336 7.031715 6.050034 C 7.031715 5.816732 7.381737 5.816732 7.381737 6.050034 Z M 7.381737 6.050034 " transform="matrix(28.346457,0,0,-28.346457,1,256.11811)"/>
<path style="fill-rule:nonzero;fill:rgb(33%,47%,64%);fill-opacity:1;stroke-width:0.05;stroke-linecap:butt;stroke-linejoin:round;stroke:rgb(33%,47%,64%);stroke-opacity:1;stroke-miterlimit:10;" d="M 9.600654 7.409468 C 9.600654 7.64277 9.250633 7.64277 9.250633 7.409468 C 9.250633 7.176166 9.600654 7.176166 9.600654 7.409468 Z M 9.600654 7.409468 " transform="matrix(28.346457,0,0,-28.346457,1,256.11811)"/>
<path style="fill-rule:nonzero;fill:rgb(33%,47%,64%);fill-opacity:1;stroke-width:0.05;stroke-linecap:butt;stroke-linejoin:round;stroke:rgb(33%,47%,64%);stroke-opacity:1;stroke-miterlimit:10;" d="M 11.819571 8.769041 C 11.819571 9.002343 11.46955 9.002343 11.46955 8.769041 C 11.46955 8.535601 11.819571 8.535601 11.819571 8.769041 Z M 11.819571 8.769041 " transform="matrix(28.346457,0,0,-28.346457,1,256.11811)"/>
</g>
</svg>
