<?xml version="1.0" encoding="UTF-8"?>
<svg xmlns="http://www.w3.org/2000/svg" xmlns:xlink="http://www.w3.org/1999/xlink" width="342.15748pt" height="257.11811pt" viewBox="0 0 342.15748 257.11811" version="1.1">
<g id="surface1">
<path style="fill:none;stroke-width:0.02;stroke-linecap:butt;stroke-linejoin:miter;stroke:rgb(0%,0%,0%);stroke-opacity:1;stroke-miterlimit:10;" d="M 0.993979 1.518355 L 1.144047 1.518355 " transform="matrix(28.346457,0,0,-28.346457,1,256.11811)"/>
<path style="fill:none;stroke-width:0.02;stroke-linecap:butt;stroke-linejoin:miter;stroke:rgb(0%,0%,0%);stroke-opacity:1;stroke-miterlimit:10;" d="M 0.993979 2.424691 L 1.144047 2.424691 " transform="matrix(28.346457,0,0,-28.346457,1,256.11811)"/>
<path style="fill:none;stroke-width:0.02;stroke-linecap:butt;stroke-linejoin:miter;stroke:rgb(0%,0%,0%);stroke-opacity:1;stroke-miterlimit:10;" d="M 0.993979 3.331026 L 1.144047 3.331026 " transform="matrix(28.346457,0,0,-28.346457,1,256.11811)"/>
<path style="fill:none;stroke-width:0.02;stroke-linecap:butt;stroke-linejoin:miter;stroke:rgb(0%,0%,0%);stroke-opacity:1;stroke-miterlimit:10;" d="M 0.993979 4.237362 L 1.144047 4.237362 " transform="matrix(28.346457,0,0,-28.346457,1,256.11811)"/>
<path style="fill:none;stroke-width:0.02;stroke-linecap:butt;stroke-linejoin:miter;stroke:rgb(0%,0%,0%);stroke-opacity:1;stroke-miterlimit:10;" d="M 0.993979 5.143698 L 1.144047 5.143698 " transform="matrix(28.346457,0,0,-28.346457,1,256.11811)"/>
<path style="fill:none;stroke-width:0.02;stroke-linecap:butt;stroke-linejoin:miter;stroke:rgb(0%,0%,0%);stroke-opacity:1;stroke-miterlimit:10;" d="M 0.993979 6.050034 L 1.144047 6.050034 " transform="matrix(28.346457,0,0,-28.346457,1,256.11811)"/>
<path style="fill:none;stroke-width:0.02;stroke-linecap:butt;stroke-linejoin:miter;stroke:rgb(0%,0%,0%);stroke-opacity:1;stroke-miterlimit:10;" d="M 0.993979 6.956369 L 1.144047 6.956369 " transform="matrix(28.346457,0,0,-28.346457,1,256.11811)"/>
<path style="fill:none;stroke-width:0.02;stroke-linecap:butt;stroke-linejoin:miter;stroke:rgb(0%,0%,0%);stroke-opacity:1;stroke-miterlimit:10;" d="M 0.993979 7.862705 L 1.144047 7.862705 " transform="matrix(28.346457,0,0,-28.346457,1,256.11811)"/>
<path style="fill:none;stroke-width:0.02;stroke-linecap:round;stroke-linejoin:miter;stroke:rgb(0%,0%,0%);stroke-opacity:1;stroke-miterlimit:10;" d="M 0.993979 0.612019 L 0.993979 8.769041 " transform="matrix(28.346457,0,0,-28.346457,1,256.11811)"/>
<path style=" stroke:none;fill-rule:nonzero;fill:rgb(0%,0%,0%);fill-opacity:1;" d="M 6.941406 239.683594 L 6.941406 240.316406 L 3.972656 240.316406 L 3.972656 239.683594 Z M 6.941406 239.683594 Z M 6.941406 239.683594 "/>
<path style=" stroke:none;fill-rule:nonzero;fill:rgb(0%,0%,0%);fill-opacity:1;" d="M 10.660156 234.851562 C 11.660156 234.898438 12.703125 235.816406 12.464844 236.871094 C 12.351562 237.585938 11.851562 238.175781 11.226562 238.492188 C 12.238281 238.808594 13.019531 239.875 12.746094 240.929688 C 12.476562 242.300781 10.898438 243.0625 9.628906 242.640625 C 9.015625 242.460938 8.394531 242.074219 8.097656 241.507812 C 8.164062 241.339844 8.144531 241.042969 8.222656 240.929688 C 8.824219 241.816406 10.09375 242.414062 11.089844 241.917969 C 12.179688 241.226562 12.007812 239.207031 10.695312 238.867188 L 10.59375 238.867188 L 10.570312 238.84375 L 9.515625 238.84375 L 9.515625 238.164062 C 10.160156 238.152344 10.964844 238.074219 11.328125 237.402344 C 11.714844 236.824219 11.679688 235.875 10.945312 235.589844 C 10.070312 235.25 8.992188 235.804688 8.664062 236.6875 C 8.527344 236.496094 8.394531 236.304688 8.257812 236.101562 C 8.722656 235.261719 9.707031 234.761719 10.660156 234.851562 Z M 10.660156 234.851562 Z M 10.660156 234.851562 "/>
<path style=" stroke:none;fill-rule:nonzero;fill:rgb(0%,0%,0%);fill-opacity:1;" d="M 15.320312 241.585938 L 15.320312 242.496094 L 14.402344 242.496094 L 14.402344 241.585938 Z M 15.320312 241.585938 Z M 15.320312 241.585938 "/>
<path style=" stroke:none;fill-rule:nonzero;fill:rgb(0%,0%,0%);fill-opacity:1;" d="M 19.449219 234.851562 C 20.523438 234.933594 21.238281 235.917969 21.433594 236.917969 C 21.535156 237.371094 21.558594 237.800781 21.601562 238.253906 L 21.601562 239.410156 C 21.546875 240.589844 21.261719 242.144531 19.980469 242.621094 C 18.871094 243.0625 17.566406 242.371094 17.238281 241.234375 C 16.988281 240.636719 16.964844 240.023438 16.90625 239.410156 L 16.90625 238.253906 C 16.964844 237.074219 17.214844 235.511719 18.484375 234.988281 L 18.539062 234.964844 L 18.585938 234.953125 L 18.644531 234.933594 L 18.8125 234.886719 L 18.914062 234.863281 L 19.039062 234.863281 L 19.0625 234.851562 Z M 19.449219 234.851562 Z M 19.097656 235.542969 C 18.144531 235.65625 17.859375 236.804688 17.792969 237.574219 L 17.792969 237.878906 L 17.769531 237.902344 L 17.769531 239.480469 C 17.835938 240.296875 17.894531 241.347656 18.644531 241.894531 C 19.335938 242.371094 20.253906 241.835938 20.445312 241.101562 C 20.648438 240.554688 20.695312 240.023438 20.742188 239.480469 L 20.742188 237.902344 C 20.671875 237.074219 20.558594 235.917969 19.605469 235.589844 L 19.527344 235.566406 L 19.503906 235.542969 L 19.402344 235.542969 L 19.378906 235.523438 L 19.117188 235.523438 Z M 19.097656 235.542969 Z M 19.097656 235.542969 "/>
<path style=" stroke:none;fill-rule:nonzero;fill:rgb(0%,0%,0%);fill-opacity:1;" d="M 6.941406 213.992188 L 6.941406 214.625 L 3.972656 214.625 L 3.972656 213.992188 Z M 6.941406 213.992188 Z M 6.941406 213.992188 "/>
<path style=" stroke:none;fill-rule:nonzero;fill:rgb(0%,0%,0%);fill-opacity:1;" d="M 10.511719 209.160156 C 11.828125 209.195312 12.871094 210.542969 12.667969 211.816406 C 12.53125 213.085938 11.339844 213.808594 10.492188 214.605469 L 10.128906 214.976562 L 10.082031 215 L 9.628906 215.441406 L 9.59375 215.464844 L 9.140625 215.917969 L 9.097656 215.941406 L 8.992188 216.042969 L 9.015625 216.054688 L 12.691406 216.054688 L 12.691406 216.804688 L 8.199219 216.804688 L 8.199219 216.125 L 10.027344 214.296875 C 10.898438 213.539062 11.917969 212.550781 11.761719 211.304688 C 11.667969 210.578125 11.058594 209.910156 10.308594 209.851562 C 9.550781 209.738281 8.878906 210.339844 8.710938 211.066406 L 8.6875 211.101562 L 8.664062 211.179688 L 8.632812 211.304688 L 8.5625 211.554688 L 8.550781 211.609375 C 8.394531 211.417969 8.222656 211.214844 8.097656 211 C 8.324219 210.066406 9.074219 209.195312 10.058594 209.160156 Z M 10.511719 209.160156 Z M 10.511719 209.160156 "/>
<path style=" stroke:none;fill-rule:nonzero;fill:rgb(0%,0%,0%);fill-opacity:1;" d="M 15.320312 215.894531 L 15.320312 216.804688 L 14.402344 216.804688 L 14.402344 215.894531 Z M 15.320312 215.894531 Z M 15.320312 215.894531 "/>
<path style=" stroke:none;fill-rule:nonzero;fill:rgb(0%,0%,0%);fill-opacity:1;" d="M 21.125 209.398438 L 21.125 210.101562 L 18.179688 210.101562 L 18.15625 210.113281 L 18.15625 212.4375 C 18.425781 212.257812 18.8125 212.019531 19.175781 212.007812 C 20.457031 211.871094 21.445312 213.128906 21.5 214.296875 C 21.679688 215.78125 20.285156 217.257812 18.789062 217.03125 C 18.042969 217.007812 17.316406 216.566406 16.886719 215.953125 C 17.011719 215.78125 17.113281 215.488281 17.257812 215.386719 C 17.792969 216.429688 19.515625 216.847656 20.207031 215.75 C 20.648438 214.921875 20.636719 213.867188 20.128906 213.074219 C 19.539062 212.3125 18.371094 212.777344 18.097656 213.582031 L 17.363281 213.582031 L 17.363281 209.398438 Z M 21.125 209.398438 Z M 21.125 209.398438 "/>
<path style=" stroke:none;fill-rule:nonzero;fill:rgb(0%,0%,0%);fill-opacity:1;" d="M 6.941406 188.300781 L 6.941406 188.933594 L 3.972656 188.933594 L 3.972656 188.300781 Z M 6.941406 188.300781 Z M 6.941406 188.300781 "/>
<path style=" stroke:none;fill-rule:nonzero;fill:rgb(0%,0%,0%);fill-opacity:1;" d="M 10.511719 183.46875 C 11.828125 183.503906 12.871094 184.851562 12.667969 186.125 C 12.53125 187.394531 11.339844 188.117188 10.492188 188.914062 L 10.128906 189.285156 L 10.082031 189.308594 L 9.628906 189.75 L 9.59375 189.773438 L 9.140625 190.226562 L 9.097656 190.25 L 8.992188 190.351562 L 9.015625 190.363281 L 12.691406 190.363281 L 12.691406 191.113281 L 8.199219 191.113281 L 8.199219 190.433594 L 10.027344 188.605469 C 10.898438 187.847656 11.917969 186.859375 11.761719 185.613281 C 11.667969 184.886719 11.058594 184.21875 10.308594 184.160156 C 9.550781 184.046875 8.878906 184.648438 8.710938 185.375 L 8.6875 185.410156 L 8.664062 185.488281 L 8.632812 185.613281 L 8.5625 185.863281 L 8.550781 185.917969 C 8.394531 185.726562 8.222656 185.523438 8.097656 185.308594 C 8.324219 184.378906 9.074219 183.503906 10.058594 183.46875 Z M 10.511719 183.46875 Z M 10.511719 183.46875 "/>
<path style=" stroke:none;fill-rule:nonzero;fill:rgb(0%,0%,0%);fill-opacity:1;" d="M 15.320312 190.203125 L 15.320312 191.113281 L 14.402344 191.113281 L 14.402344 190.203125 Z M 15.320312 190.203125 Z M 15.320312 190.203125 "/>
<path style=" stroke:none;fill-rule:nonzero;fill:rgb(0%,0%,0%);fill-opacity:1;" d="M 19.449219 183.46875 C 20.523438 183.550781 21.238281 184.535156 21.433594 185.535156 C 21.535156 185.988281 21.558594 186.417969 21.601562 186.871094 L 21.601562 188.027344 C 21.546875 189.207031 21.261719 190.761719 19.980469 191.238281 C 18.871094 191.679688 17.566406 190.988281 17.238281 189.855469 C 16.988281 189.253906 16.964844 188.640625 16.90625 188.027344 L 16.90625 186.871094 C 16.964844 185.691406 17.214844 184.128906 18.484375 183.605469 L 18.539062 183.582031 L 18.585938 183.570312 L 18.644531 183.550781 L 18.8125 183.503906 L 18.914062 183.480469 L 19.039062 183.480469 L 19.0625 183.46875 Z M 19.449219 183.46875 Z M 19.097656 184.160156 C 18.144531 184.273438 17.859375 185.421875 17.792969 186.191406 L 17.792969 186.496094 L 17.769531 186.519531 L 17.769531 188.097656 C 17.835938 188.914062 17.894531 189.96875 18.644531 190.511719 C 19.335938 190.988281 20.253906 190.453125 20.445312 189.71875 C 20.648438 189.171875 20.695312 188.640625 20.742188 188.097656 L 20.742188 186.519531 C 20.671875 185.691406 20.558594 184.535156 19.605469 184.207031 L 19.527344 184.183594 L 19.503906 184.160156 L 19.402344 184.160156 L 19.378906 184.140625 L 19.117188 184.140625 Z M 19.097656 184.160156 Z M 19.097656 184.160156 "/>
<path style=" stroke:none;fill-rule:nonzero;fill:rgb(0%,0%,0%);fill-opacity:1;" d="M 6.941406 162.609375 L 6.941406 163.242188 L 3.972656 163.242188 L 3.972656 162.609375 Z M 6.941406 162.609375 Z M 6.941406 162.609375 "/>
<path style=" stroke:none;fill-rule:nonzero;fill:rgb(0%,0%,0%);fill-opacity:1;" d="M 10.988281 157.777344 L 10.988281 164.773438 L 11 164.796875 L 12.394531 164.796875 L 12.394531 165.421875 L 8.710938 165.421875 L 8.710938 164.796875 L 10.105469 164.796875 L 10.128906 164.773438 L 10.128906 158.902344 C 9.652344 159.058594 9.152344 159.160156 8.652344 159.152344 L 8.652344 158.515625 C 9.402344 158.527344 10.21875 158.324219 10.785156 157.777344 Z M 10.988281 157.777344 Z M 10.988281 157.777344 "/>
<path style=" stroke:none;fill-rule:nonzero;fill:rgb(0%,0%,0%);fill-opacity:1;" d="M 15.320312 164.515625 L 15.320312 165.421875 L 14.402344 165.421875 L 14.402344 164.515625 Z M 15.320312 164.515625 Z M 15.320312 164.515625 "/>
<path style=" stroke:none;fill-rule:nonzero;fill:rgb(0%,0%,0%);fill-opacity:1;" d="M 21.125 158.015625 L 21.125 158.71875 L 18.179688 158.71875 L 18.15625 158.730469 L 18.15625 161.054688 C 18.425781 160.875 18.8125 160.636719 19.175781 160.625 C 20.457031 160.488281 21.445312 161.746094 21.5 162.914062 C 21.679688 164.398438 20.285156 165.875 18.789062 165.648438 C 18.042969 165.625 17.316406 165.183594 16.886719 164.570312 C 17.011719 164.398438 17.113281 164.105469 17.257812 164.003906 C 17.792969 165.046875 19.515625 165.464844 20.207031 164.367188 C 20.648438 163.539062 20.636719 162.484375 20.128906 161.691406 C 19.539062 160.929688 18.371094 161.394531 18.097656 162.199219 L 17.363281 162.199219 L 17.363281 158.015625 Z M 21.125 158.015625 Z M 21.125 158.015625 "/>
<path style=" stroke:none;fill-rule:nonzero;fill:rgb(0%,0%,0%);fill-opacity:1;" d="M 6.941406 136.917969 L 6.941406 137.550781 L 3.972656 137.550781 L 3.972656 136.917969 Z M 6.941406 136.917969 Z M 6.941406 136.917969 "/>
<path style=" stroke:none;fill-rule:nonzero;fill:rgb(0%,0%,0%);fill-opacity:1;" d="M 10.988281 132.085938 L 10.988281 139.082031 L 11 139.105469 L 12.394531 139.105469 L 12.394531 139.730469 L 8.710938 139.730469 L 8.710938 139.105469 L 10.105469 139.105469 L 10.128906 139.082031 L 10.128906 133.210938 C 9.652344 133.367188 9.152344 133.46875 8.652344 133.460938 L 8.652344 132.824219 C 9.402344 132.835938 10.21875 132.632812 10.785156 132.085938 Z M 10.988281 132.085938 Z M 10.988281 132.085938 "/>
<path style=" stroke:none;fill-rule:nonzero;fill:rgb(0%,0%,0%);fill-opacity:1;" d="M 15.320312 138.824219 L 15.320312 139.730469 L 14.402344 139.730469 L 14.402344 138.824219 Z M 15.320312 138.824219 Z M 15.320312 138.824219 "/>
<path style=" stroke:none;fill-rule:nonzero;fill:rgb(0%,0%,0%);fill-opacity:1;" d="M 19.449219 132.085938 C 20.523438 132.167969 21.238281 133.152344 21.433594 134.152344 C 21.535156 134.605469 21.558594 135.035156 21.601562 135.488281 L 21.601562 136.644531 C 21.546875 137.824219 21.261719 139.378906 19.980469 139.855469 C 18.871094 140.296875 17.566406 139.605469 17.238281 138.472656 C 16.988281 137.871094 16.964844 137.257812 16.90625 136.644531 L 16.90625 135.488281 C 16.964844 134.308594 17.214844 132.746094 18.484375 132.222656 L 18.539062 132.199219 L 18.585938 132.1875 L 18.644531 132.167969 L 18.8125 132.121094 L 18.914062 132.097656 L 19.039062 132.097656 L 19.0625 132.085938 Z M 19.449219 132.085938 Z M 19.097656 132.777344 C 18.144531 132.890625 17.859375 134.039062 17.792969 134.808594 L 17.792969 135.113281 L 17.769531 135.136719 L 17.769531 136.714844 C 17.835938 137.53125 17.894531 138.585938 18.644531 139.128906 C 19.335938 139.605469 20.253906 139.070312 20.445312 138.335938 C 20.648438 137.789062 20.695312 137.257812 20.742188 136.714844 L 20.742188 135.136719 C 20.671875 134.308594 20.558594 133.152344 19.605469 132.824219 L 19.527344 132.800781 L 19.503906 132.777344 L 19.402344 132.777344 L 19.378906 132.757812 L 19.117188 132.757812 Z M 19.097656 132.777344 Z M 19.097656 132.777344 "/>
<path style=" stroke:none;fill-rule:nonzero;fill:rgb(0%,0%,0%);fill-opacity:1;" d="M 6.941406 111.226562 L 6.941406 111.859375 L 3.972656 111.859375 L 3.972656 111.226562 Z M 6.941406 111.226562 Z M 6.941406 111.226562 "/>
<path style=" stroke:none;fill-rule:nonzero;fill:rgb(0%,0%,0%);fill-opacity:1;" d="M 10.636719 106.394531 C 11.714844 106.476562 12.429688 107.460938 12.621094 108.460938 C 12.722656 108.914062 12.746094 109.34375 12.792969 109.796875 L 12.792969 110.953125 C 12.734375 112.132812 12.453125 113.6875 11.171875 114.164062 C 10.058594 114.605469 8.753906 113.914062 8.425781 112.78125 C 8.175781 112.179688 8.15625 111.566406 8.097656 110.953125 L 8.097656 109.796875 C 8.15625 108.617188 8.402344 107.054688 9.675781 106.53125 L 9.730469 106.507812 L 9.777344 106.496094 L 9.832031 106.476562 L 10.003906 106.429688 L 10.105469 106.40625 L 10.230469 106.40625 L 10.253906 106.394531 Z M 10.636719 106.394531 Z M 10.285156 107.085938 C 9.332031 107.199219 9.050781 108.347656 8.980469 109.117188 L 8.980469 109.421875 L 8.960938 109.445312 L 8.960938 111.023438 C 9.027344 111.839844 9.085938 112.894531 9.832031 113.4375 C 10.523438 113.914062 11.441406 113.378906 11.636719 112.644531 C 11.839844 112.097656 11.886719 111.566406 11.929688 111.023438 L 11.929688 109.445312 C 11.863281 108.617188 11.75 107.460938 10.796875 107.132812 L 10.71875 107.109375 L 10.695312 107.085938 L 10.59375 107.085938 L 10.570312 107.066406 L 10.308594 107.066406 Z M 10.285156 107.085938 Z M 10.285156 107.085938 "/>
<path style=" stroke:none;fill-rule:nonzero;fill:rgb(0%,0%,0%);fill-opacity:1;" d="M 15.320312 113.132812 L 15.320312 114.039062 L 14.402344 114.039062 L 14.402344 113.132812 Z M 15.320312 113.132812 Z M 15.320312 113.132812 "/>
<path style=" stroke:none;fill-rule:nonzero;fill:rgb(0%,0%,0%);fill-opacity:1;" d="M 21.125 106.632812 L 21.125 107.335938 L 18.179688 107.335938 L 18.15625 107.347656 L 18.15625 109.671875 C 18.425781 109.492188 18.8125 109.253906 19.175781 109.242188 C 20.457031 109.105469 21.445312 110.363281 21.5 111.53125 C 21.679688 113.019531 20.285156 114.492188 18.789062 114.265625 C 18.042969 114.242188 17.316406 113.800781 16.886719 113.1875 C 17.011719 113.019531 17.113281 112.722656 17.257812 112.621094 C 17.792969 113.664062 19.515625 114.082031 20.207031 112.984375 C 20.648438 112.15625 20.636719 111.101562 20.128906 110.308594 C 19.539062 109.546875 18.371094 110.011719 18.097656 110.816406 L 17.363281 110.816406 L 17.363281 106.632812 Z M 21.125 106.632812 Z M 21.125 106.632812 "/>
<path style=" stroke:none;fill-rule:nonzero;fill:rgb(0%,0%,0%);fill-opacity:1;" d="M 10.636719 80.703125 C 11.714844 80.785156 12.429688 81.769531 12.621094 82.769531 C 12.722656 83.222656 12.746094 83.652344 12.792969 84.105469 L 12.792969 85.261719 C 12.734375 86.441406 12.453125 87.996094 11.171875 88.472656 C 10.058594 88.914062 8.753906 88.222656 8.425781 87.089844 C 8.175781 86.488281 8.15625 85.875 8.097656 85.261719 L 8.097656 84.105469 C 8.15625 82.925781 8.402344 81.363281 9.675781 80.839844 L 9.730469 80.816406 L 9.777344 80.804688 L 9.832031 80.785156 L 10.003906 80.738281 L 10.105469 80.714844 L 10.230469 80.714844 L 10.253906 80.703125 Z M 10.636719 80.703125 Z M 10.285156 81.394531 C 9.332031 81.507812 9.050781 82.65625 8.980469 83.425781 L 8.980469 83.730469 L 8.960938 83.753906 L 8.960938 85.332031 C 9.027344 86.148438 9.085938 87.203125 9.832031 87.746094 C 10.523438 88.222656 11.441406 87.6875 11.636719 86.953125 C 11.839844 86.40625 11.886719 85.875 11.929688 85.332031 L 11.929688 83.753906 C 11.863281 82.925781 11.75 81.769531 10.796875 81.441406 L 10.71875 81.417969 L 10.695312 81.394531 L 10.59375 81.394531 L 10.570312 81.375 L 10.308594 81.375 Z M 10.285156 81.394531 Z M 10.285156 81.394531 "/>
<path style=" stroke:none;fill-rule:nonzero;fill:rgb(0%,0%,0%);fill-opacity:1;" d="M 15.320312 87.441406 L 15.320312 88.347656 L 14.402344 88.347656 L 14.402344 87.441406 Z M 15.320312 87.441406 Z M 15.320312 87.441406 "/>
<path style=" stroke:none;fill-rule:nonzero;fill:rgb(0%,0%,0%);fill-opacity:1;" d="M 19.449219 80.703125 C 20.523438 80.785156 21.238281 81.769531 21.433594 82.769531 C 21.535156 83.222656 21.558594 83.652344 21.601562 84.105469 L 21.601562 85.261719 C 21.546875 86.441406 21.261719 87.996094 19.980469 88.472656 C 18.871094 88.914062 17.566406 88.222656 17.238281 87.089844 C 16.988281 86.488281 16.964844 85.875 16.90625 85.261719 L 16.90625 84.105469 C 16.964844 82.925781 17.214844 81.363281 18.484375 80.839844 L 18.539062 80.816406 L 18.585938 80.804688 L 18.644531 80.785156 L 18.8125 80.738281 L 18.914062 80.714844 L 19.039062 80.714844 L 19.0625 80.703125 Z M 19.449219 80.703125 Z M 19.097656 81.394531 C 18.144531 81.507812 17.859375 82.65625 17.792969 83.425781 L 17.792969 83.730469 L 17.769531 83.753906 L 17.769531 85.332031 C 17.835938 86.148438 17.894531 87.203125 18.644531 87.746094 C 19.335938 88.222656 20.253906 87.6875 20.445312 86.953125 C 20.648438 86.40625 20.695312 85.875 20.742188 85.332031 L 20.742188 83.753906 C 20.671875 82.925781 20.558594 81.769531 19.605469 81.441406 L 19.527344 81.417969 L 19.503906 81.394531 L 19.402344 81.394531 L 19.378906 81.375 L 19.117188 81.375 Z M 19.097656 81.394531 Z M 19.097656 81.394531 "/>
<path style=" stroke:none;fill-rule:nonzero;fill:rgb(0%,0%,0%);fill-opacity:1;" d="M 10.636719 55.011719 C 11.714844 55.09375 12.429688 56.078125 12.621094 57.078125 C 12.722656 57.53125 12.746094 57.960938 12.792969 58.414062 L 12.792969 59.570312 C 12.734375 60.75 12.453125 62.304688 11.171875 62.78125 C 10.058594 63.222656 8.753906 62.53125 8.425781 61.398438 C 8.175781 60.796875 8.15625 60.183594 8.097656 59.570312 L 8.097656 58.414062 C 8.15625 57.234375 8.402344 55.671875 9.675781 55.148438 L 9.730469 55.125 L 9.777344 55.117188 L 9.832031 55.09375 L 10.003906 55.046875 L 10.105469 55.023438 L 10.230469 55.023438 L 10.253906 55.011719 Z M 10.636719 55.011719 Z M 10.285156 55.703125 C 9.332031 55.816406 9.050781 56.964844 8.980469 57.734375 L 8.980469 58.039062 L 8.960938 58.0625 L 8.960938 59.640625 C 9.027344 60.457031 9.085938 61.511719 9.832031 62.054688 C 10.523438 62.53125 11.441406 61.996094 11.636719 61.261719 C 11.839844 60.714844 11.886719 60.183594 11.929688 59.640625 L 11.929688 58.0625 C 11.863281 57.234375 11.75 56.078125 10.796875 55.75 L 10.71875 55.726562 L 10.695312 55.703125 L 10.59375 55.703125 L 10.570312 55.683594 L 10.308594 55.683594 Z M 10.285156 55.703125 Z M 10.285156 55.703125 "/>
<path style=" stroke:none;fill-rule:nonzero;fill:rgb(0%,0%,0%);fill-opacity:1;" d="M 15.320312 61.75 L 15.320312 62.65625 L 14.402344 62.65625 L 14.402344 61.75 Z M 15.320312 61.75 Z M 15.320312 61.75 "/>
<path style=" stroke:none;fill-rule:nonzero;fill:rgb(0%,0%,0%);fill-opacity:1;" d="M 21.125 55.25 L 21.125 55.953125 L 18.179688 55.953125 L 18.15625 55.964844 L 18.15625 58.289062 C 18.425781 58.109375 18.8125 57.871094 19.175781 57.859375 C 20.457031 57.722656 21.445312 58.980469 21.5 60.148438 C 21.679688 61.636719 20.285156 63.109375 18.789062 62.882812 C 18.042969 62.859375 17.316406 62.417969 16.886719 61.804688 C 17.011719 61.636719 17.113281 61.339844 17.257812 61.238281 C 17.792969 62.28125 19.515625 62.699219 20.207031 61.601562 C 20.648438 60.773438 20.636719 59.71875 20.128906 58.925781 C 19.539062 58.164062 18.371094 58.628906 18.097656 59.433594 L 17.363281 59.433594 L 17.363281 55.25 Z M 21.125 55.25 Z M 21.125 55.25 "/>
<path style=" stroke:none;fill-rule:nonzero;fill:rgb(0%,0%,0%);fill-opacity:1;" d="M 10.988281 29.320312 L 10.988281 36.316406 L 11 36.339844 L 12.394531 36.339844 L 12.394531 36.964844 L 8.710938 36.964844 L 8.710938 36.339844 L 10.105469 36.339844 L 10.128906 36.316406 L 10.128906 30.445312 C 9.652344 30.601562 9.152344 30.707031 8.652344 30.695312 L 8.652344 30.058594 C 9.402344 30.070312 10.21875 29.867188 10.785156 29.320312 Z M 10.988281 29.320312 Z M 10.988281 29.320312 "/>
<path style=" stroke:none;fill-rule:nonzero;fill:rgb(0%,0%,0%);fill-opacity:1;" d="M 15.320312 36.058594 L 15.320312 36.964844 L 14.402344 36.964844 L 14.402344 36.058594 Z M 15.320312 36.058594 Z M 15.320312 36.058594 "/>
<path style=" stroke:none;fill-rule:nonzero;fill:rgb(0%,0%,0%);fill-opacity:1;" d="M 19.449219 29.320312 C 20.523438 29.402344 21.238281 30.386719 21.433594 31.386719 C 21.535156 31.839844 21.558594 32.269531 21.601562 32.722656 L 21.601562 33.878906 C 21.546875 35.058594 21.261719 36.613281 19.980469 37.089844 C 18.871094 37.53125 17.566406 36.839844 17.238281 35.707031 C 16.988281 35.105469 16.964844 34.492188 16.90625 33.878906 L 16.90625 32.722656 C 16.964844 31.542969 17.214844 29.980469 18.484375 29.457031 L 18.539062 29.433594 L 18.585938 29.425781 L 18.644531 29.402344 L 18.8125 29.355469 L 18.914062 29.332031 L 19.039062 29.332031 L 19.0625 29.320312 Z M 19.449219 29.320312 Z M 19.097656 30.011719 C 18.144531 30.125 17.859375 31.273438 17.792969 32.042969 L 17.792969 32.347656 L 17.769531 32.371094 L 17.769531 33.949219 C 17.835938 34.765625 17.894531 35.820312 18.644531 36.363281 C 19.335938 36.839844 20.253906 36.304688 20.445312 35.570312 C 20.648438 35.023438 20.695312 34.492188 20.742188 33.949219 L 20.742188 32.371094 C 20.671875 31.542969 20.558594 30.386719 19.605469 30.058594 L 19.527344 30.035156 L 19.503906 30.011719 L 19.402344 30.011719 L 19.378906 29.992188 L 19.117188 29.992188 Z M 19.097656 30.011719 Z M 19.097656 30.011719 "/>
<path style=" stroke:none;fill-rule:nonzero;fill:rgb(0%,0%,0%);fill-opacity:1;" d="M 10.988281 3.628906 L 10.988281 10.625 L 11 10.648438 L 12.394531 10.648438 L 12.394531 11.273438 L 8.710938 11.273438 L 8.710938 10.648438 L 10.105469 10.648438 L 10.128906 10.625 L 10.128906 4.753906 C 9.652344 4.910156 9.152344 5.015625 8.652344 5.003906 L 8.652344 4.367188 C 9.402344 4.378906 10.21875 4.175781 10.785156 3.628906 Z M 10.988281 3.628906 Z M 10.988281 3.628906 "/>
<path style=" stroke:none;fill-rule:nonzero;fill:rgb(0%,0%,0%);fill-opacity:1;" d="M 15.320312 10.367188 L 15.320312 11.273438 L 14.402344 11.273438 L 14.402344 10.367188 Z M 15.320312 10.367188 Z M 15.320312 10.367188 "/>
<path style=" stroke:none;fill-rule:nonzero;fill:rgb(0%,0%,0%);fill-opacity:1;" d="M 21.125 3.867188 L 21.125 4.570312 L 18.179688 4.570312 L 18.15625 4.582031 L 18.15625 6.90625 C 18.425781 6.726562 18.8125 6.488281 19.175781 6.476562 C 20.457031 6.339844 21.445312 7.597656 21.5 8.765625 C 21.679688 10.253906 20.285156 11.726562 18.789062 11.5 C 18.042969 11.476562 17.316406 11.035156 16.886719 10.421875 C 17.011719 10.253906 17.113281 9.957031 17.257812 9.855469 C 17.792969 10.898438 19.515625 11.316406 20.207031 10.21875 C 20.648438 9.390625 20.636719 8.335938 20.128906 7.542969 C 19.539062 6.78125 18.371094 7.246094 18.097656 8.050781 L 17.363281 8.050781 L 17.363281 3.867188 Z M 21.125 3.867188 Z M 21.125 3.867188 "/>
<path style="fill:none;stroke-width:0.02;stroke-linecap:butt;stroke-linejoin:miter;stroke:rgb(0%,0%,0%);stroke-opacity:1;stroke-miterlimit:10;" d="M 11.699958 1.518355 L 11.550027 1.518355 " transform="matrix(28.346457,0,0,-28.346457,1,256.11811)"/>
<path style="fill:none;stroke-width:0.02;stroke-linecap:butt;stroke-linejoin:miter;stroke:rgb(0%,0%,0%);stroke-opacity:1;stroke-miterlimit:10;" d="M 11.699958 2.424691 L 11.550027 2.424691 " transform="matrix(28.346457,0,0,-28.346457,1,256.11811)"/>
<path style="fill:none;stroke-width:0.02;stroke-linecap:butt;stroke-linejoin:miter;stroke:rgb(0%,0%,0%);stroke-opacity:1;stroke-miterlimit:10;" d="M 11.699958 3.331026 L 11.550027 3.331026 " transform="matrix(28.346457,0,0,-28.346457,1,256.11811)"/>
<path style="fill:none;stroke-width:0.02;stroke-linecap:butt;stroke-linejoin:miter;stroke:rgb(0%,0%,0%);stroke-opacity:1;stroke-miterlimit:10;" d="M 11.699958 4.237362 L 11.550027 4.237362 " transform="matrix(28.346457,0,0,-28.346457,1,256.11811)"/>
<path style="fill:none;stroke-width:0.02;stroke-linecap:butt;stroke-linejoin:miter;stroke:rgb(0%,0%,0%);stroke-opacity:1;stroke-miterlimit:10;" d="M 11.699958 5.143698 L 11.550027 5.143698 " transform="matrix(28.346457,0,0,-28.346457,1,256.11811)"/>
<path style="fill:none;stroke-width:0.02;stroke-linecap:butt;stroke-linejoin:miter;stroke:rgb(0%,0%,0%);stroke-opacity:1;stroke-miterlimit:10;" d="M 11.699958 6.050034 L 11.550027 6.050034 " transform="matrix(28.346457,0,0,-28.346457,1,256.11811)"/>
<path style="fill:none;stroke-width:0.02;stroke-linecap:butt;stroke-linejoin:miter;stroke:rgb(0%,0%,0%);stroke-opacity:1;stroke-miterlimit:10;" d="M 11.699958 6.956369 L 11.550027 6.956369 " transform="matrix(28.346457,0,0,-28.346457,1,256.11811)"/>
<path style="fill:none;stroke-width:0.02;stroke-linecap:butt;stroke-linejoin:miter;stroke:rgb(0%,0%,0%);stroke-opacity:1;stroke-miterlimit:10;" d="M 11.699958 7.862705 L 11.550027 7.862705 " transform="matrix(28.346457,0,0,-28.346457,1,256.11811)"/>
<path style="fill:none;stroke-width:0.02;stroke-linecap:round;stroke-linejoin:miter;stroke:rgb(0%,0%,0%);stroke-opacity:1;stroke-miterlimit:10;" d="M 11.699958 0.612019 L 11.699958 8.769041 " transform="matrix(28.346457,0,0,-28.346457,1,256.11811)"/>
<path style="fill:none;stroke-width:0.02;stroke-linecap:butt;stroke-linejoin:miter;stroke:rgb(0%,0%,0%);stroke-opacity:1;stroke-miterlimit:10;" d="M 2.183502 0.612019 L 2.183502 0.76195 " transform="matrix(28.346457,0,0,-28.346457,1,256.11811)"/>
<path style="fill:none;stroke-width:0.02;stroke-linecap:butt;stroke-linejoin:miter;stroke:rgb(0%,0%,0%);stroke-opacity:1;stroke-miterlimit:10;" d="M 3.373162 0.612019 L 3.373162 0.76195 " transform="matrix(28.346457,0,0,-28.346457,1,256.11811)"/>
<path style="fill:none;stroke-width:0.02;stroke-linecap:butt;stroke-linejoin:miter;stroke:rgb(0%,0%,0%);stroke-opacity:1;stroke-miterlimit:10;" d="M 4.562684 0.612019 L 4.562684 0.76195 " transform="matrix(28.346457,0,0,-28.346457,1,256.11811)"/>
<path style="fill:none;stroke-width:0.02;stroke-linecap:butt;stroke-linejoin:miter;stroke:rgb(0%,0%,0%);stroke-opacity:1;stroke-miterlimit:10;" d="M 5.752207 0.612019 L 5.752207 0.76195 " transform="matrix(28.346457,0,0,-28.346457,1,256.11811)"/>
<path style="fill:none;stroke-width:0.02;stroke-linecap:butt;stroke-linejoin:miter;stroke:rgb(0%,0%,0%);stroke-opacity:1;stroke-miterlimit:10;" d="M 6.94173 0.612019 L 6.94173 0.76195 " transform="matrix(28.346457,0,0,-28.346457,1,256.11811)"/>
<path style="fill:none;stroke-width:0.02;stroke-linecap:butt;stroke-linejoin:miter;stroke:rgb(0%,0%,0%);stroke-opacity:1;stroke-miterlimit:10;" d="M 8.13139 0.612019 L 8.13139 0.76195 " transform="matrix(28.346457,0,0,-28.346457,1,256.11811)"/>
<path style="fill:none;stroke-width:0.02;stroke-linecap:butt;stroke-linejoin:miter;stroke:rgb(0%,0%,0%);stroke-opacity:1;stroke-miterlimit:10;" d="M 9.320913 0.612019 L 9.320913 0.76195 " transform="matrix(28.346457,0,0,-28.346457,1,256.11811)"/>
<path style="fill:none;stroke-width:0.02;stroke-linecap:butt;stroke-linejoin:miter;stroke:rgb(0%,0%,0%);stroke-opacity:1;stroke-miterlimit:10;" d="M 10.510435 0.612019 L 10.510435 0.76195 " transform="matrix(28.346457,0,0,-28.346457,1,256.11811)"/>
<path style="fill:none;stroke-width:0.02;stroke-linecap:round;stroke-linejoin:miter;stroke:rgb(0%,0%,0%);stroke-opacity:1;stroke-miterlimit:10;" d="M 0.993979 0.612019 L 11.699958 0.612019 " transform="matrix(28.346457,0,0,-28.346457,1,256.11811)"/>
<path style=" stroke:none;fill-rule:nonzero;fill:rgb(0%,0%,0%);fill-opacity:1;" d="M 29.71875 245.652344 L 29.71875 252.648438 L 29.730469 252.671875 L 31.125 252.671875 L 31.125 253.292969 L 27.441406 253.292969 L 27.441406 252.671875 L 28.835938 252.671875 L 28.859375 252.648438 L 28.859375 246.773438 C 28.382812 246.933594 27.882812 247.035156 27.386719 247.023438 L 27.386719 246.390625 C 28.132812 246.402344 28.949219 246.195312 29.515625 245.652344 Z M 29.71875 245.652344 Z M 29.71875 245.652344 "/>
<path style=" stroke:none;fill-rule:nonzero;fill:rgb(0%,0%,0%);fill-opacity:1;" d="M 62.964844 245.652344 C 64.28125 245.6875 65.324219 247.035156 65.117188 248.304688 C 64.980469 249.574219 63.792969 250.300781 62.941406 251.09375 L 62.578125 251.46875 L 62.535156 251.492188 L 62.078125 251.933594 L 62.046875 251.957031 L 61.59375 252.410156 L 61.546875 252.433594 L 61.445312 252.535156 L 61.46875 252.546875 L 65.140625 252.546875 L 65.140625 253.292969 L 60.652344 253.292969 L 60.652344 252.613281 L 62.476562 250.789062 C 63.347656 250.027344 64.371094 249.042969 64.210938 247.796875 C 64.121094 247.070312 63.507812 246.402344 62.761719 246.34375 C 62 246.230469 61.332031 246.832031 61.160156 247.558594 L 61.136719 247.589844 L 61.117188 247.671875 L 61.082031 247.796875 L 61.015625 248.046875 L 61.003906 248.101562 C 60.84375 247.910156 60.671875 247.703125 60.550781 247.488281 C 60.777344 246.558594 61.523438 245.6875 62.511719 245.652344 Z M 62.964844 245.652344 Z M 62.964844 245.652344 "/>
<path style=" stroke:none;fill-rule:nonzero;fill:rgb(0%,0%,0%);fill-opacity:1;" d="M 96.832031 245.652344 C 97.828125 245.699219 98.871094 246.617188 98.632812 247.671875 C 98.519531 248.386719 98.023438 248.976562 97.398438 249.292969 C 98.40625 249.609375 99.191406 250.675781 98.917969 251.730469 C 98.644531 253.101562 97.070312 253.863281 95.800781 253.441406 C 95.1875 253.261719 94.5625 252.875 94.269531 252.308594 C 94.335938 252.136719 94.3125 251.84375 94.394531 251.730469 C 94.996094 252.613281 96.265625 253.214844 97.261719 252.714844 C 98.351562 252.023438 98.179688 250.007812 96.863281 249.667969 L 96.761719 249.667969 L 96.742188 249.644531 L 95.6875 249.644531 L 95.6875 248.964844 C 96.332031 248.953125 97.136719 248.871094 97.5 248.203125 C 97.886719 247.625 97.851562 246.671875 97.113281 246.390625 C 96.242188 246.050781 95.164062 246.605469 94.835938 247.488281 C 94.699219 247.296875 94.5625 247.105469 94.425781 246.898438 C 94.890625 246.0625 95.878906 245.5625 96.832031 245.652344 Z M 96.832031 245.652344 Z M 96.832031 245.652344 "/>
<path style=" stroke:none;fill-rule:nonzero;fill:rgb(0%,0%,0%);fill-opacity:1;" d="M 131.695312 245.890625 L 131.695312 250.664062 L 131.71875 250.6875 L 132.839844 250.6875 L 132.839844 251.367188 L 131.71875 251.367188 L 131.695312 251.378906 L 131.695312 253.292969 L 130.835938 253.292969 L 130.835938 251.378906 L 130.8125 251.367188 L 127.816406 251.367188 L 127.816406 250.664062 C 128.769531 249.078125 129.722656 247.476562 130.675781 245.890625 Z M 131.695312 245.890625 Z M 130.855469 246.320312 C 130.628906 247.5 129.90625 248.511719 129.359375 249.542969 C 129.144531 249.914062 128.863281 250.324219 128.703125 250.6875 L 130.878906 250.6875 L 130.890625 250.664062 L 130.890625 246.320312 L 130.878906 246.300781 Z M 130.855469 246.320312 Z M 130.855469 246.320312 "/>
<path style=" stroke:none;fill-rule:nonzero;fill:rgb(0%,0%,0%);fill-opacity:1;" d="M 165.925781 245.890625 L 165.925781 246.59375 L 162.976562 246.59375 L 162.957031 246.605469 L 162.957031 248.929688 C 163.226562 248.746094 163.613281 248.511719 163.976562 248.5 C 165.257812 248.363281 166.242188 249.621094 166.300781 250.789062 C 166.480469 252.273438 165.085938 253.75 163.589844 253.523438 C 162.84375 253.5 162.117188 253.058594 161.683594 252.445312 C 161.808594 252.273438 161.914062 251.980469 162.058594 251.878906 C 162.59375 252.921875 164.316406 253.339844 165.007812 252.242188 C 165.449219 251.414062 165.4375 250.359375 164.929688 249.5625 C 164.339844 248.804688 163.171875 249.269531 162.898438 250.074219 L 162.160156 250.074219 L 162.160156 245.890625 Z M 165.925781 245.890625 Z M 165.925781 245.890625 "/>
<path style=" stroke:none;fill-rule:nonzero;fill:rgb(0%,0%,0%);fill-opacity:1;" d="M 198.703125 245.652344 C 199 245.699219 199.339844 245.730469 199.621094 245.867188 L 199.621094 246.527344 C 198.839844 246.183594 197.820312 246.140625 197.207031 246.832031 C 196.664062 247.410156 196.414062 248.273438 196.390625 249.03125 C 197.050781 248.160156 198.535156 247.671875 199.339844 248.578125 C 200.144531 249.507812 200.28125 250.84375 199.917969 251.980469 C 199.519531 252.886719 198.601562 253.714844 197.582031 253.523438 C 196.199219 253.40625 195.574219 251.867188 195.507812 250.6875 C 195.246094 249.019531 195.644531 246.921875 197.230469 245.96875 L 197.253906 245.957031 L 197.492188 245.835938 L 197.558594 245.8125 L 197.59375 245.789062 L 197.785156 245.730469 L 197.945312 245.6875 L 198.046875 245.664062 L 198.171875 245.664062 L 198.195312 245.652344 Z M 198.703125 245.652344 Z M 197.59375 248.804688 C 196.605469 248.976562 196.289062 250.164062 196.414062 250.96875 C 196.472656 251.730469 196.765625 252.738281 197.640625 252.898438 C 198.570312 253.023438 199.167969 252.023438 199.191406 251.21875 C 199.238281 250.402344 199.191406 249.472656 198.476562 248.941406 L 198.320312 248.863281 L 198.195312 248.828125 L 198.09375 248.804688 L 198.070312 248.78125 L 197.617188 248.78125 Z M 197.59375 248.804688 Z M 197.59375 248.804688 "/>
<path style=" stroke:none;fill-rule:nonzero;fill:rgb(0%,0%,0%);fill-opacity:1;" d="M 233.839844 245.890625 L 233.839844 246.605469 C 232.230469 248.488281 231.324219 251.027344 231.335938 253.417969 L 230.417969 253.417969 C 230.394531 251.003906 231.382812 248.453125 233.105469 246.671875 L 233.082031 246.652344 L 229.148438 246.652344 L 229.148438 245.890625 L 233.839844 245.890625 L 233.839844 246.605469 Z M 233.839844 245.890625 Z M 233.839844 245.890625 "/>
<path style=" stroke:none;fill-rule:nonzero;fill:rgb(0%,0%,0%);fill-opacity:1;" d="M 265.429688 245.652344 C 266.632812 245.699219 267.765625 246.992188 267.289062 248.191406 C 267.085938 248.746094 266.519531 249.089844 266.054688 249.328125 C 267.210938 249.667969 267.914062 251.015625 267.390625 252.125 C 266.847656 253.566406 264.785156 254.019531 263.648438 252.976562 C 262.617188 252.160156 262.582031 250.390625 263.730469 249.667969 C 263.898438 249.484375 264.214844 249.429688 264.363281 249.292969 C 263.378906 249.007812 262.707031 247.863281 263.171875 246.898438 C 263.546875 246.039062 264.511719 245.5625 265.429688 245.652344 Z M 265.429688 245.652344 Z M 265 246.300781 C 264.160156 246.320312 263.570312 247.273438 263.855469 248.023438 C 264.183594 249.316406 266.347656 249.269531 266.597656 247.941406 C 266.824219 247.207031 266.234375 246.320312 265.429688 246.300781 L 265.40625 246.289062 L 265.019531 246.289062 Z M 265 246.300781 Z M 265.019531 249.667969 C 264.035156 249.734375 263.546875 250.914062 263.808594 251.753906 C 263.976562 252.941406 265.679688 253.292969 266.347656 252.34375 C 266.996094 251.46875 266.675781 249.90625 265.507812 249.667969 L 265.40625 249.667969 L 265.382812 249.644531 L 265.03125 249.644531 Z M 265.019531 249.667969 Z M 265.019531 249.667969 "/>
<path style=" stroke:none;fill-rule:nonzero;fill:rgb(0%,0%,0%);fill-opacity:1;" d="M 299.171875 245.652344 C 300.53125 245.800781 301.121094 247.34375 301.214844 248.519531 C 301.371094 250.050781 301.191406 251.84375 299.941406 252.941406 C 299.160156 253.726562 297.777344 253.75 296.9375 253.046875 C 297.039062 252.851562 297.152344 252.625 297.277344 252.46875 C 298.015625 253.179688 299.308594 252.976562 299.785156 252.058594 C 300.125 251.503906 300.328125 250.789062 300.316406 250.175781 C 299.648438 251.039062 298.175781 251.539062 297.367188 250.628906 C 296.554688 249.6875 296.40625 248.316406 296.8125 247.183594 C 297.234375 246.289062 298.128906 245.515625 299.171875 245.652344 Z M 299.171875 245.652344 Z M 298.796875 246.300781 C 297.980469 246.367188 297.5625 247.273438 297.503906 247.988281 C 297.472656 248.792969 297.503906 249.734375 298.21875 250.257812 C 299.011719 250.742188 300.035156 250.152344 300.214844 249.292969 C 300.429688 248.453125 300.292969 247.558594 299.863281 246.773438 C 299.625 246.445312 299.195312 246.207031 298.796875 246.300781 Z M 298.796875 246.300781 Z M 298.796875 246.300781 "/>
<path style=" stroke:none;fill-rule:nonzero;fill:rgb(0%,0%,0%);fill-opacity:1;" d="M 330.363281 245.652344 L 330.363281 252.648438 L 330.375 252.671875 L 331.769531 252.671875 L 331.769531 253.292969 L 328.085938 253.292969 L 328.085938 252.671875 L 329.480469 252.671875 L 329.5 252.648438 L 329.5 246.773438 C 329.023438 246.933594 328.527344 247.035156 328.027344 247.023438 L 328.027344 246.390625 C 328.777344 246.402344 329.59375 246.195312 330.160156 245.652344 Z M 330.363281 245.652344 Z M 330.363281 245.652344 "/>
<path style=" stroke:none;fill-rule:nonzero;fill:rgb(0%,0%,0%);fill-opacity:1;" d="M 335.679688 245.652344 C 336.757812 245.730469 337.472656 246.71875 337.664062 247.714844 C 337.765625 248.167969 337.789062 248.601562 337.835938 249.054688 L 337.835938 250.210938 C 337.777344 251.390625 337.496094 252.941406 336.214844 253.417969 C 335.101562 253.863281 333.796875 253.171875 333.46875 252.035156 C 333.21875 251.433594 333.199219 250.824219 333.140625 250.210938 L 333.140625 249.054688 C 333.199219 247.875 333.445312 246.308594 334.71875 245.789062 L 334.773438 245.765625 L 334.820312 245.753906 L 334.875 245.730469 L 335.046875 245.6875 L 335.148438 245.664062 L 335.273438 245.664062 L 335.296875 245.652344 Z M 335.679688 245.652344 Z M 335.328125 246.34375 C 334.378906 246.457031 334.09375 247.601562 334.027344 248.375 L 334.027344 248.679688 L 334.003906 248.703125 L 334.003906 250.277344 C 334.070312 251.09375 334.128906 252.148438 334.875 252.695312 C 335.566406 253.171875 336.484375 252.636719 336.679688 251.898438 C 336.882812 251.355469 336.929688 250.824219 336.972656 250.277344 L 336.972656 248.703125 C 336.90625 247.875 336.792969 246.71875 335.839844 246.390625 L 335.761719 246.367188 L 335.738281 246.34375 L 335.636719 246.34375 L 335.613281 246.320312 L 335.351562 246.320312 Z M 335.328125 246.34375 Z M 335.328125 246.34375 "/>
<path style="fill:none;stroke-width:0.02;stroke-linecap:butt;stroke-linejoin:miter;stroke:rgb(0%,0%,0%);stroke-opacity:1;stroke-miterlimit:10;" d="M 2.183502 8.769041 L 2.183502 8.618972 " transform="matrix(28.346457,0,0,-28.346457,1,256.11811)"/>
<path style="fill:none;stroke-width:0.02;stroke-linecap:butt;stroke-linejoin:miter;stroke:rgb(0%,0%,0%);stroke-opacity:1;stroke-miterlimit:10;" d="M 3.373162 8.769041 L 3.373162 8.618972 " transform="matrix(28.346457,0,0,-28.346457,1,256.11811)"/>
<path style="fill:none;stroke-width:0.02;stroke-linecap:butt;stroke-linejoin:miter;stroke:rgb(0%,0%,0%);stroke-opacity:1;stroke-miterlimit:10;" d="M 4.562684 8.769041 L 4.562684 8.618972 " transform="matrix(28.346457,0,0,-28.346457,1,256.11811)"/>
<path style="fill:none;stroke-width:0.02;stroke-linecap:butt;stroke-linejoin:miter;stroke:rgb(0%,0%,0%);stroke-opacity:1;stroke-miterlimit:10;" d="M 5.752207 8.769041 L 5.752207 8.618972 " transform="matrix(28.346457,0,0,-28.346457,1,256.11811)"/>
<path style="fill:none;stroke-width:0.02;stroke-linecap:butt;stroke-linejoin:miter;stroke:rgb(0%,0%,0%);stroke-opacity:1;stroke-miterlimit:10;" d="M 6.94173 8.769041 L 6.94173 8.618972 " transform="matrix(28.346457,0,0,-28.346457,1,256.11811)"/>
<path style="fill:none;stroke-width:0.02;stroke-linecap:butt;stroke-linejoin:miter;stroke:rgb(0%,0%,0%);stroke-opacity:1;stroke-miterlimit:10;" d="M 8.13139 8.769041 L 8.13139 8.618972 " transform="matrix(28.346457,0,0,-28.346457,1,256.11811)"/>
<path style="fill:none;stroke-width:0.02;stroke-linecap:butt;stroke-linejoin:miter;stroke:rgb(0%,0%,0%);stroke-opacity:1;stroke-miterlimit:10;" d="M 9.320913 8.769041 L 9.320913 8.618972 " transform="matrix(28.346457,0,0,-28.346457,1,256.11811)"/>
<path style="fill:none;stroke-width:0.02;stroke-linecap:butt;stroke-linejoin:miter;stroke:rgb(0%,0%,0%);stroke-opacity:1;stroke-miterlimit:10;" d="M 10.510435 8.769041 L 10.510435 8.618972 " transform="matrix(28.346457,0,0,-28.346457,1,256.11811)"/>
<path style="fill:none;stroke-width:0.02;stroke-linecap:round;stroke-linejoin:miter;stroke:rgb(0%,0%,0%);stroke-opacity:1;stroke-miterlimit:10;" d="M 0.993979 8.769041 L 11.699958 8.769041 " transform="matrix(28.346457,0,0,-28.346457,1,256.11811)"/>
<path style="fill:none;stroke-width:0.1;stroke-linecap:butt;stroke-linejoin:miter;stroke:rgb(93.333333%,50.980392%,93.333333%);stroke-opacity:1;stroke-miterlimit:10;" d="M 0.993979 4.660282 L 2.183502 4.642505 L 3.373162 5.753755 L 4.562684 7.64718 L 5.752207 7.672949 L 6.94173 6.44994 L 8.13139 5.072178 L 9.320913 6.753522 L 10.510435 4.712234 L 11.699958 6.003594 " transform="matrix(28.346457,0,0,-28.346457,1,256.11811)"/>
<path style="fill:none;stroke-width:0.1;stroke-linecap:butt;stroke-linejoin:miter;stroke:rgb(0%,0%,50.196078%);stroke-opacity:1;stroke-miterlimit:10;" d="M 0.993979 7.504691 L 2.183502 7.016314 L 3.373162 7.384664 L 4.562684 5.689125 L 5.752207 6.711216 L 6.94173 5.032904 L 8.13139 4.58201 L 9.320913 7.004463 L 10.510435 4.299236 L 11.699958 5.049716 " transform="matrix(28.346457,0,0,-28.346457,1,256.11811)"/>
<path style="fill:none;stroke-width:0.1;stroke-linecap:butt;stroke-linejoin:miter;stroke:rgb(100%,64.705882%,0%);stroke-opacity:1;stroke-miterlimit:10;" d="M 0.993979 6.557289 L 2.183502 8.769041 L 3.373162 6.062574 L 4.562684 6.238549 L 5.752207 3.946183 L 6.94173 0.850833 L 8.13139 3.613387 L 9.320913 3.733 L 10.510435 2.922989 L 11.699958 3.5573 " transform="matrix(28.346457,0,0,-28.346457,1,256.11811)"/>
</g>
</svg>
