<?xml version="1.0" encoding="UTF-8"?>
<svg xmlns="http://www.w3.org/2000/svg" xmlns:xlink="http://www.w3.org/1999/xlink" width="342.15748pt" height="257.11811pt" viewBox="0 0 342.15748 257.11811" version="1.1">
<g id="surface1">
<path style="fill:none;stroke-width:0.02;stroke-linecap:butt;stroke-linejoin:miter;stroke:rgb(0%,0%,0%);stroke-opacity:1;stroke-miterlimit:10;" d="M 0.993979 1.42768 L 1.144047 1.42768 " transform="matrix(28.346457,0,0,-28.346457,1,256.11811)"/>
<path style="fill:none;stroke-width:0.02;stroke-linecap:butt;stroke-linejoin:miter;stroke:rgb(0%,0%,0%);stroke-opacity:1;stroke-miterlimit:10;" d="M 0.993979 2.243341 L 1.144047 2.243341 " transform="matrix(28.346457,0,0,-28.346457,1,256.11811)"/>
<path style="fill:none;stroke-width:0.02;stroke-linecap:butt;stroke-linejoin:miter;stroke:rgb(0%,0%,0%);stroke-opacity:1;stroke-miterlimit:10;" d="M 0.993979 3.05914 L 1.144047 3.05914 " transform="matrix(28.346457,0,0,-28.346457,1,256.11811)"/>
<path style="fill:none;stroke-width:0.02;stroke-linecap:butt;stroke-linejoin:miter;stroke:rgb(0%,0%,0%);stroke-opacity:1;stroke-miterlimit:10;" d="M 0.993979 3.8748 L 1.144047 3.8748 " transform="matrix(28.346457,0,0,-28.346457,1,256.11811)"/>
<path style="fill:none;stroke-width:0.02;stroke-linecap:butt;stroke-linejoin:miter;stroke:rgb(0%,0%,0%);stroke-opacity:1;stroke-miterlimit:10;" d="M 0.993979 4.690461 L 1.144047 4.690461 " transform="matrix(28.346457,0,0,-28.346457,1,256.11811)"/>
<path style="fill:none;stroke-width:0.02;stroke-linecap:butt;stroke-linejoin:miter;stroke:rgb(0%,0%,0%);stroke-opacity:1;stroke-miterlimit:10;" d="M 0.993979 5.50626 L 1.144047 5.50626 " transform="matrix(28.346457,0,0,-28.346457,1,256.11811)"/>
<path style="fill:none;stroke-width:0.02;stroke-linecap:butt;stroke-linejoin:miter;stroke:rgb(0%,0%,0%);stroke-opacity:1;stroke-miterlimit:10;" d="M 0.993979 6.321921 L 1.144047 6.321921 " transform="matrix(28.346457,0,0,-28.346457,1,256.11811)"/>
<path style="fill:none;stroke-width:0.02;stroke-linecap:butt;stroke-linejoin:miter;stroke:rgb(0%,0%,0%);stroke-opacity:1;stroke-miterlimit:10;" d="M 0.993979 7.137581 L 1.144047 7.137581 " transform="matrix(28.346457,0,0,-28.346457,1,256.11811)"/>
<path style="fill:none;stroke-width:0.02;stroke-linecap:butt;stroke-linejoin:miter;stroke:rgb(0%,0%,0%);stroke-opacity:1;stroke-miterlimit:10;" d="M 0.993979 7.953242 L 1.144047 7.953242 " transform="matrix(28.346457,0,0,-28.346457,1,256.11811)"/>
<path style="fill:none;stroke-width:0.02;stroke-linecap:round;stroke-linejoin:miter;stroke:rgb(0%,0%,0%);stroke-opacity:1;stroke-miterlimit:10;" d="M 0.993979 0.612019 L 0.993979 8.769041 " transform="matrix(28.346457,0,0,-28.346457,1,256.11811)"/>
<path style=" stroke:none;fill-rule:nonzero;fill:rgb(0%,0%,0%);fill-opacity:1;" d="M 6.941406 239.683594 L 6.941406 240.316406 L 3.972656 240.316406 L 3.972656 239.683594 Z M 6.941406 239.683594 Z M 6.941406 239.683594 "/>
<path style=" stroke:none;fill-rule:nonzero;fill:rgb(0%,0%,0%);fill-opacity:1;" d="M 10.988281 234.851562 L 10.988281 241.847656 L 11 241.871094 L 12.394531 241.871094 L 12.394531 242.496094 L 8.710938 242.496094 L 8.710938 241.871094 L 10.105469 241.871094 L 10.128906 241.847656 L 10.128906 235.976562 C 9.652344 236.132812 9.152344 236.234375 8.652344 236.222656 L 8.652344 235.589844 C 9.402344 235.601562 10.21875 235.398438 10.785156 234.851562 Z M 10.988281 234.851562 Z M 10.988281 234.851562 "/>
<path style=" stroke:none;fill-rule:nonzero;fill:rgb(0%,0%,0%);fill-opacity:1;" d="M 15.320312 241.585938 L 15.320312 242.496094 L 14.402344 242.496094 L 14.402344 241.585938 Z M 15.320312 241.585938 Z M 15.320312 241.585938 "/>
<path style=" stroke:none;fill-rule:nonzero;fill:rgb(0%,0%,0%);fill-opacity:1;" d="M 19.449219 234.851562 C 20.523438 234.933594 21.238281 235.917969 21.433594 236.917969 C 21.535156 237.371094 21.558594 237.800781 21.601562 238.253906 L 21.601562 239.410156 C 21.546875 240.589844 21.261719 242.144531 19.980469 242.621094 C 18.871094 243.0625 17.566406 242.371094 17.238281 241.234375 C 16.988281 240.636719 16.964844 240.023438 16.90625 239.410156 L 16.90625 238.253906 C 16.964844 237.074219 17.214844 235.511719 18.484375 234.988281 L 18.539062 234.964844 L 18.585938 234.953125 L 18.644531 234.933594 L 18.8125 234.886719 L 18.914062 234.863281 L 19.039062 234.863281 L 19.0625 234.851562 Z M 19.449219 234.851562 Z M 19.097656 235.542969 C 18.144531 235.65625 17.859375 236.804688 17.792969 237.574219 L 17.792969 237.878906 L 17.769531 237.902344 L 17.769531 239.480469 C 17.835938 240.296875 17.894531 241.347656 18.644531 241.894531 C 19.335938 242.371094 20.253906 241.835938 20.445312 241.101562 C 20.648438 240.554688 20.695312 240.023438 20.742188 239.480469 L 20.742188 237.902344 C 20.671875 237.074219 20.558594 235.917969 19.605469 235.589844 L 19.527344 235.566406 L 19.503906 235.542969 L 19.402344 235.542969 L 19.378906 235.523438 L 19.117188 235.523438 Z M 19.097656 235.542969 Z M 19.097656 235.542969 "/>
<path style=" stroke:none;fill-rule:nonzero;fill:rgb(0%,0%,0%);fill-opacity:1;" d="M 6.941406 216.5625 L 6.941406 217.195312 L 3.972656 217.195312 L 3.972656 216.5625 Z M 6.941406 216.5625 Z M 6.941406 216.5625 "/>
<path style=" stroke:none;fill-rule:nonzero;fill:rgb(0%,0%,0%);fill-opacity:1;" d="M 10.636719 211.730469 C 11.714844 211.808594 12.429688 212.796875 12.621094 213.792969 C 12.722656 214.246094 12.746094 214.679688 12.792969 215.132812 L 12.792969 216.289062 C 12.734375 217.46875 12.453125 219.019531 11.171875 219.496094 C 10.058594 219.941406 8.753906 219.246094 8.425781 218.113281 C 8.175781 217.511719 8.15625 216.902344 8.097656 216.289062 L 8.097656 215.132812 C 8.15625 213.953125 8.402344 212.386719 9.675781 211.867188 L 9.730469 211.84375 L 9.777344 211.832031 L 9.832031 211.808594 L 10.003906 211.765625 L 10.105469 211.742188 L 10.230469 211.742188 L 10.253906 211.730469 Z M 10.636719 211.730469 Z M 10.285156 212.421875 C 9.332031 212.535156 9.050781 213.679688 8.980469 214.453125 L 8.980469 214.757812 L 8.960938 214.78125 L 8.960938 216.355469 C 9.027344 217.171875 9.085938 218.226562 9.832031 218.773438 C 10.523438 219.246094 11.441406 218.714844 11.636719 217.976562 C 11.839844 217.433594 11.886719 216.902344 11.929688 216.355469 L 11.929688 214.78125 C 11.863281 213.953125 11.75 212.796875 10.796875 212.46875 L 10.71875 212.445312 L 10.695312 212.421875 L 10.59375 212.421875 L 10.570312 212.398438 L 10.308594 212.398438 Z M 10.285156 212.421875 Z M 10.285156 212.421875 "/>
<path style=" stroke:none;fill-rule:nonzero;fill:rgb(0%,0%,0%);fill-opacity:1;" d="M 15.320312 218.464844 L 15.320312 219.371094 L 14.402344 219.371094 L 14.402344 218.464844 Z M 15.320312 218.464844 Z M 15.320312 218.464844 "/>
<path style=" stroke:none;fill-rule:nonzero;fill:rgb(0%,0%,0%);fill-opacity:1;" d="M 19.46875 211.730469 C 20.671875 211.777344 21.804688 213.066406 21.332031 214.269531 C 21.125 214.824219 20.558594 215.164062 20.09375 215.402344 C 21.25 215.746094 21.953125 217.09375 21.433594 218.203125 C 20.886719 219.644531 18.824219 220.097656 17.691406 219.054688 C 16.660156 218.238281 16.625 216.46875 17.769531 215.746094 C 17.941406 215.5625 18.257812 215.507812 18.40625 215.371094 C 17.417969 215.085938 16.75 213.941406 17.214844 212.976562 C 17.589844 212.117188 18.550781 211.640625 19.46875 211.730469 Z M 19.46875 211.730469 Z M 19.039062 212.375 C 18.199219 212.398438 17.609375 213.351562 17.894531 214.101562 C 18.222656 215.394531 20.390625 215.347656 20.636719 214.019531 C 20.863281 213.285156 20.277344 212.398438 19.46875 212.375 L 19.449219 212.367188 L 19.0625 212.367188 Z M 19.039062 212.375 Z M 19.0625 215.746094 C 18.074219 215.8125 17.589844 216.992188 17.847656 217.832031 C 18.019531 219.019531 19.71875 219.371094 20.390625 218.421875 C 21.035156 217.546875 20.71875 215.980469 19.550781 215.746094 L 19.449219 215.746094 L 19.425781 215.722656 L 19.074219 215.722656 Z M 19.0625 215.746094 Z M 19.0625 215.746094 "/>
<path style=" stroke:none;fill-rule:nonzero;fill:rgb(0%,0%,0%);fill-opacity:1;" d="M 6.941406 193.4375 L 6.941406 194.074219 L 3.972656 194.074219 L 3.972656 193.4375 Z M 6.941406 193.4375 Z M 6.941406 193.4375 "/>
<path style=" stroke:none;fill-rule:nonzero;fill:rgb(0%,0%,0%);fill-opacity:1;" d="M 10.636719 188.609375 C 11.714844 188.6875 12.429688 189.675781 12.621094 190.671875 C 12.722656 191.125 12.746094 191.554688 12.792969 192.007812 L 12.792969 193.167969 C 12.734375 194.34375 12.453125 195.898438 11.171875 196.375 C 10.058594 196.816406 8.753906 196.125 8.425781 194.992188 C 8.175781 194.390625 8.15625 193.777344 8.097656 193.167969 L 8.097656 192.007812 C 8.15625 190.832031 8.402344 189.265625 9.675781 188.746094 L 9.730469 188.722656 L 9.777344 188.710938 L 9.832031 188.6875 L 10.003906 188.640625 L 10.105469 188.621094 L 10.230469 188.621094 L 10.253906 188.609375 Z M 10.636719 188.609375 Z M 10.285156 189.300781 C 9.332031 189.414062 9.050781 190.558594 8.980469 191.328125 L 8.980469 191.636719 L 8.960938 191.660156 L 8.960938 193.234375 C 9.027344 194.050781 9.085938 195.105469 9.832031 195.648438 C 10.523438 196.125 11.441406 195.59375 11.636719 194.855469 C 11.839844 194.3125 11.886719 193.777344 11.929688 193.234375 L 11.929688 191.660156 C 11.863281 190.832031 11.75 189.675781 10.796875 189.34375 L 10.71875 189.324219 L 10.695312 189.300781 L 10.59375 189.300781 L 10.570312 189.277344 L 10.308594 189.277344 Z M 10.285156 189.300781 Z M 10.285156 189.300781 "/>
<path style=" stroke:none;fill-rule:nonzero;fill:rgb(0%,0%,0%);fill-opacity:1;" d="M 15.320312 195.34375 L 15.320312 196.25 L 14.402344 196.25 L 14.402344 195.34375 Z M 15.320312 195.34375 Z M 15.320312 195.34375 "/>
<path style=" stroke:none;fill-rule:nonzero;fill:rgb(0%,0%,0%);fill-opacity:1;" d="M 20.183594 188.609375 C 20.480469 188.652344 20.820312 188.6875 21.101562 188.824219 L 21.101562 189.480469 C 20.320312 189.140625 19.300781 189.097656 18.6875 189.789062 C 18.144531 190.367188 17.894531 191.226562 17.871094 191.988281 C 18.53125 191.113281 20.015625 190.625 20.820312 191.535156 C 21.625 192.464844 21.761719 193.800781 21.398438 194.933594 C 21 195.84375 20.082031 196.667969 19.0625 196.476562 C 17.679688 196.363281 17.054688 194.820312 16.988281 193.640625 C 16.726562 191.976562 17.125 189.878906 18.710938 188.925781 L 18.734375 188.914062 L 18.972656 188.789062 L 19.039062 188.765625 L 19.074219 188.746094 L 19.265625 188.6875 L 19.425781 188.640625 L 19.527344 188.621094 L 19.652344 188.621094 L 19.675781 188.609375 Z M 20.183594 188.609375 Z M 19.074219 191.761719 C 18.085938 191.929688 17.769531 193.121094 17.894531 193.925781 C 17.953125 194.6875 18.246094 195.695312 19.117188 195.855469 C 20.046875 195.976562 20.648438 194.980469 20.671875 194.175781 C 20.71875 193.359375 20.671875 192.429688 19.957031 191.894531 L 19.800781 191.816406 L 19.675781 191.78125 L 19.574219 191.761719 L 19.550781 191.738281 L 19.097656 191.738281 Z M 19.074219 191.761719 Z M 19.074219 191.761719 "/>
<path style=" stroke:none;fill-rule:nonzero;fill:rgb(0%,0%,0%);fill-opacity:1;" d="M 6.941406 170.316406 L 6.941406 170.953125 L 3.972656 170.953125 L 3.972656 170.316406 Z M 6.941406 170.316406 Z M 6.941406 170.316406 "/>
<path style=" stroke:none;fill-rule:nonzero;fill:rgb(0%,0%,0%);fill-opacity:1;" d="M 10.636719 165.484375 C 11.714844 165.566406 12.429688 166.550781 12.621094 167.550781 C 12.722656 168.003906 12.746094 168.433594 12.792969 168.886719 L 12.792969 170.042969 C 12.734375 171.222656 12.453125 172.777344 11.171875 173.253906 C 10.058594 173.695312 8.753906 173.003906 8.425781 171.871094 C 8.175781 171.269531 8.15625 170.65625 8.097656 170.042969 L 8.097656 168.886719 C 8.15625 167.707031 8.402344 166.144531 9.675781 165.621094 L 9.730469 165.597656 L 9.777344 165.589844 L 9.832031 165.566406 L 10.003906 165.519531 L 10.105469 165.496094 L 10.230469 165.496094 L 10.253906 165.484375 Z M 10.636719 165.484375 Z M 10.285156 166.175781 C 9.332031 166.292969 9.050781 167.4375 8.980469 168.207031 L 8.980469 168.511719 L 8.960938 168.535156 L 8.960938 170.113281 C 9.027344 170.929688 9.085938 171.984375 9.832031 172.527344 C 10.523438 173.003906 11.441406 172.46875 11.636719 171.734375 C 11.839844 171.1875 11.886719 170.65625 11.929688 170.113281 L 11.929688 168.535156 C 11.863281 167.707031 11.75 166.550781 10.796875 166.222656 L 10.71875 166.199219 L 10.695312 166.175781 L 10.59375 166.175781 L 10.570312 166.15625 L 10.308594 166.15625 Z M 10.285156 166.175781 Z M 10.285156 166.175781 "/>
<path style=" stroke:none;fill-rule:nonzero;fill:rgb(0%,0%,0%);fill-opacity:1;" d="M 15.320312 172.222656 L 15.320312 173.128906 L 14.402344 173.128906 L 14.402344 172.222656 Z M 15.320312 172.222656 Z M 15.320312 172.222656 "/>
<path style=" stroke:none;fill-rule:nonzero;fill:rgb(0%,0%,0%);fill-opacity:1;" d="M 20.617188 165.722656 L 20.617188 170.496094 L 20.636719 170.519531 L 21.761719 170.519531 L 21.761719 171.199219 L 20.636719 171.199219 L 20.617188 171.210938 L 20.617188 173.128906 L 19.753906 173.128906 L 19.753906 171.210938 L 19.730469 171.199219 L 16.738281 171.199219 L 16.738281 170.496094 C 17.691406 168.910156 18.644531 167.3125 19.59375 165.722656 Z M 20.617188 165.722656 Z M 19.777344 166.15625 C 19.550781 167.335938 18.824219 168.34375 18.28125 169.375 C 18.066406 169.75 17.78125 170.15625 17.621094 170.519531 L 19.800781 170.519531 L 19.8125 170.496094 L 19.8125 166.15625 L 19.800781 166.132812 Z M 19.777344 166.15625 Z M 19.777344 166.15625 "/>
<path style=" stroke:none;fill-rule:nonzero;fill:rgb(0%,0%,0%);fill-opacity:1;" d="M 6.941406 147.195312 L 6.941406 147.828125 L 3.972656 147.828125 L 3.972656 147.195312 Z M 6.941406 147.195312 Z M 6.941406 147.195312 "/>
<path style=" stroke:none;fill-rule:nonzero;fill:rgb(0%,0%,0%);fill-opacity:1;" d="M 10.636719 142.363281 C 11.714844 142.441406 12.429688 143.429688 12.621094 144.425781 C 12.722656 144.882812 12.746094 145.3125 12.792969 145.765625 L 12.792969 146.921875 C 12.734375 148.101562 12.453125 149.65625 11.171875 150.128906 C 10.058594 150.574219 8.753906 149.882812 8.425781 148.746094 C 8.175781 148.144531 8.15625 147.535156 8.097656 146.921875 L 8.097656 145.765625 C 8.15625 144.585938 8.402344 143.019531 9.675781 142.5 L 9.730469 142.476562 L 9.777344 142.464844 L 9.832031 142.441406 L 10.003906 142.398438 L 10.105469 142.375 L 10.230469 142.375 L 10.253906 142.363281 Z M 10.636719 142.363281 Z M 10.285156 143.054688 C 9.332031 143.167969 9.050781 144.3125 8.980469 145.085938 L 8.980469 145.390625 L 8.960938 145.414062 L 8.960938 146.988281 C 9.027344 147.804688 9.085938 148.859375 9.832031 149.40625 C 10.523438 149.882812 11.441406 149.347656 11.636719 148.613281 C 11.839844 148.066406 11.886719 147.535156 11.929688 146.988281 L 11.929688 145.414062 C 11.863281 144.585938 11.75 143.429688 10.796875 143.101562 L 10.71875 143.078125 L 10.695312 143.054688 L 10.59375 143.054688 L 10.570312 143.03125 L 10.308594 143.03125 Z M 10.285156 143.054688 Z M 10.285156 143.054688 "/>
<path style=" stroke:none;fill-rule:nonzero;fill:rgb(0%,0%,0%);fill-opacity:1;" d="M 15.320312 149.097656 L 15.320312 150.007812 L 14.402344 150.007812 L 14.402344 149.097656 Z M 15.320312 149.097656 Z M 15.320312 149.097656 "/>
<path style=" stroke:none;fill-rule:nonzero;fill:rgb(0%,0%,0%);fill-opacity:1;" d="M 19.324219 142.363281 C 20.636719 142.398438 21.679688 143.746094 21.476562 145.015625 C 21.339844 146.285156 20.152344 147.011719 19.300781 147.804688 L 18.9375 148.179688 L 18.890625 148.203125 L 18.4375 148.644531 L 18.40625 148.667969 L 17.953125 149.121094 L 17.90625 149.144531 L 17.804688 149.246094 L 17.828125 149.257812 L 21.5 149.257812 L 21.5 150.007812 L 17.011719 150.007812 L 17.011719 149.324219 L 18.835938 147.5 C 19.707031 146.742188 20.730469 145.753906 20.570312 144.507812 C 20.480469 143.78125 19.867188 143.113281 19.117188 143.054688 C 18.359375 142.941406 17.691406 143.542969 17.519531 144.269531 L 17.496094 144.300781 L 17.476562 144.382812 L 17.371094 144.757812 L 17.363281 144.8125 C 17.203125 144.621094 17.03125 144.417969 16.90625 144.199219 C 17.136719 143.269531 17.882812 142.398438 18.871094 142.363281 Z M 19.324219 142.363281 Z M 19.324219 142.363281 "/>
<path style=" stroke:none;fill-rule:nonzero;fill:rgb(0%,0%,0%);fill-opacity:1;" d="M 10.636719 119.242188 C 11.714844 119.320312 12.429688 120.308594 12.621094 121.304688 C 12.722656 121.757812 12.746094 122.191406 12.792969 122.644531 L 12.792969 123.800781 C 12.734375 124.980469 12.453125 126.53125 11.171875 127.007812 C 10.058594 127.449219 8.753906 126.757812 8.425781 125.625 C 8.175781 125.023438 8.15625 124.410156 8.097656 123.800781 L 8.097656 122.644531 C 8.15625 121.464844 8.402344 119.898438 9.675781 119.378906 L 9.730469 119.355469 L 9.777344 119.34375 L 9.832031 119.320312 L 10.003906 119.277344 L 10.105469 119.253906 L 10.230469 119.253906 L 10.253906 119.242188 Z M 10.636719 119.242188 Z M 10.285156 119.933594 C 9.332031 120.046875 9.050781 121.191406 8.980469 121.960938 L 8.980469 122.269531 L 8.960938 122.292969 L 8.960938 123.867188 C 9.027344 124.683594 9.085938 125.738281 9.832031 126.28125 C 10.523438 126.757812 11.441406 126.226562 11.636719 125.488281 C 11.839844 124.945312 11.886719 124.410156 11.929688 123.867188 L 11.929688 122.292969 C 11.863281 121.464844 11.75 120.308594 10.796875 119.980469 L 10.71875 119.957031 L 10.695312 119.933594 L 10.59375 119.933594 L 10.570312 119.910156 L 10.308594 119.910156 Z M 10.285156 119.933594 Z M 10.285156 119.933594 "/>
<path style=" stroke:none;fill-rule:nonzero;fill:rgb(0%,0%,0%);fill-opacity:1;" d="M 15.320312 125.976562 L 15.320312 126.882812 L 14.402344 126.882812 L 14.402344 125.976562 Z M 15.320312 125.976562 Z M 15.320312 125.976562 "/>
<path style=" stroke:none;fill-rule:nonzero;fill:rgb(0%,0%,0%);fill-opacity:1;" d="M 19.449219 119.242188 C 20.523438 119.320312 21.238281 120.308594 21.433594 121.304688 C 21.535156 121.757812 21.558594 122.191406 21.601562 122.644531 L 21.601562 123.800781 C 21.546875 124.980469 21.261719 126.53125 19.980469 127.007812 C 18.871094 127.449219 17.566406 126.757812 17.238281 125.625 C 16.988281 125.023438 16.964844 124.410156 16.90625 123.800781 L 16.90625 122.644531 C 16.964844 121.464844 17.214844 119.898438 18.484375 119.378906 L 18.539062 119.355469 L 18.585938 119.34375 L 18.644531 119.320312 L 18.8125 119.277344 L 18.914062 119.253906 L 19.039062 119.253906 L 19.0625 119.242188 Z M 19.449219 119.242188 Z M 19.097656 119.933594 C 18.144531 120.046875 17.859375 121.191406 17.792969 121.960938 L 17.792969 122.269531 L 17.769531 122.292969 L 17.769531 123.867188 C 17.835938 124.683594 17.894531 125.738281 18.644531 126.28125 C 19.335938 126.757812 20.253906 126.226562 20.445312 125.488281 C 20.648438 124.945312 20.695312 124.410156 20.742188 123.867188 L 20.742188 122.292969 C 20.671875 121.464844 20.558594 120.308594 19.605469 119.980469 L 19.527344 119.957031 L 19.503906 119.933594 L 19.402344 119.933594 L 19.378906 119.910156 L 19.117188 119.910156 Z M 19.097656 119.933594 Z M 19.097656 119.933594 "/>
<path style=" stroke:none;fill-rule:nonzero;fill:rgb(0%,0%,0%);fill-opacity:1;" d="M 10.636719 96.121094 C 11.714844 96.199219 12.429688 97.183594 12.621094 98.183594 C 12.722656 98.636719 12.746094 99.066406 12.792969 99.519531 L 12.792969 100.675781 C 12.734375 101.855469 12.453125 103.410156 11.171875 103.886719 C 10.058594 104.328125 8.753906 103.636719 8.425781 102.503906 C 8.175781 101.902344 8.15625 101.289062 8.097656 100.675781 L 8.097656 99.519531 C 8.15625 98.339844 8.402344 96.777344 9.675781 96.253906 L 9.730469 96.234375 L 9.777344 96.222656 L 9.832031 96.199219 L 10.003906 96.152344 L 10.105469 96.128906 L 10.230469 96.128906 L 10.253906 96.121094 Z M 10.636719 96.121094 Z M 10.285156 96.8125 C 9.332031 96.925781 9.050781 98.070312 8.980469 98.839844 L 8.980469 99.148438 L 8.960938 99.167969 L 8.960938 100.746094 C 9.027344 101.5625 9.085938 102.617188 9.832031 103.160156 C 10.523438 103.636719 11.441406 103.105469 11.636719 102.367188 C 11.839844 101.824219 11.886719 101.289062 11.929688 100.746094 L 11.929688 99.167969 C 11.863281 98.339844 11.75 97.183594 10.796875 96.855469 L 10.71875 96.832031 L 10.695312 96.8125 L 10.59375 96.8125 L 10.570312 96.789062 L 10.308594 96.789062 Z M 10.285156 96.8125 Z M 10.285156 96.8125 "/>
<path style=" stroke:none;fill-rule:nonzero;fill:rgb(0%,0%,0%);fill-opacity:1;" d="M 15.320312 102.855469 L 15.320312 103.761719 L 14.402344 103.761719 L 14.402344 102.855469 Z M 15.320312 102.855469 Z M 15.320312 102.855469 "/>
<path style=" stroke:none;fill-rule:nonzero;fill:rgb(0%,0%,0%);fill-opacity:1;" d="M 19.324219 96.121094 C 20.636719 96.152344 21.679688 97.503906 21.476562 98.773438 C 21.339844 100.042969 20.152344 100.769531 19.300781 101.5625 L 18.9375 101.9375 L 18.890625 101.957031 L 18.4375 102.402344 L 18.40625 102.421875 L 17.953125 102.878906 L 17.90625 102.898438 L 17.804688 103 L 17.828125 103.011719 L 21.5 103.011719 L 21.5 103.761719 L 17.011719 103.761719 L 17.011719 103.082031 L 18.835938 101.253906 C 19.707031 100.496094 20.730469 99.507812 20.570312 98.261719 C 20.480469 97.535156 19.867188 96.867188 19.117188 96.8125 C 18.359375 96.699219 17.691406 97.296875 17.519531 98.023438 L 17.496094 98.058594 L 17.476562 98.136719 L 17.371094 98.511719 L 17.363281 98.570312 C 17.203125 98.375 17.03125 98.171875 16.90625 97.957031 C 17.136719 97.027344 17.882812 96.152344 18.871094 96.121094 Z M 19.324219 96.121094 Z M 19.324219 96.121094 "/>
<path style=" stroke:none;fill-rule:nonzero;fill:rgb(0%,0%,0%);fill-opacity:1;" d="M 10.636719 72.996094 C 11.714844 73.078125 12.429688 74.0625 12.621094 75.0625 C 12.722656 75.515625 12.746094 75.945312 12.792969 76.398438 L 12.792969 77.554688 C 12.734375 78.734375 12.453125 80.289062 11.171875 80.765625 C 10.058594 81.207031 8.753906 80.515625 8.425781 79.378906 C 8.175781 78.78125 8.15625 78.167969 8.097656 77.554688 L 8.097656 76.398438 C 8.15625 75.21875 8.402344 73.65625 9.675781 73.132812 L 9.730469 73.109375 L 9.777344 73.097656 L 9.832031 73.078125 L 10.003906 73.03125 L 10.105469 73.007812 L 10.230469 73.007812 L 10.253906 72.996094 Z M 10.636719 72.996094 Z M 10.285156 73.6875 C 9.332031 73.800781 9.050781 74.949219 8.980469 75.71875 L 8.980469 76.023438 L 8.960938 76.046875 L 8.960938 77.625 C 9.027344 78.441406 9.085938 79.496094 9.832031 80.039062 C 10.523438 80.515625 11.441406 79.980469 11.636719 79.246094 C 11.839844 78.699219 11.886719 78.167969 11.929688 77.625 L 11.929688 76.046875 C 11.863281 75.21875 11.75 74.0625 10.796875 73.734375 L 10.71875 73.710938 L 10.695312 73.6875 L 10.59375 73.6875 L 10.570312 73.667969 L 10.308594 73.667969 Z M 10.285156 73.6875 Z M 10.285156 73.6875 "/>
<path style=" stroke:none;fill-rule:nonzero;fill:rgb(0%,0%,0%);fill-opacity:1;" d="M 15.320312 79.730469 L 15.320312 80.640625 L 14.402344 80.640625 L 14.402344 79.730469 Z M 15.320312 79.730469 Z M 15.320312 79.730469 "/>
<path style=" stroke:none;fill-rule:nonzero;fill:rgb(0%,0%,0%);fill-opacity:1;" d="M 20.617188 73.234375 L 20.617188 78.007812 L 20.636719 78.03125 L 21.761719 78.03125 L 21.761719 78.710938 L 20.636719 78.710938 L 20.617188 78.722656 L 20.617188 80.640625 L 19.753906 80.640625 L 19.753906 78.722656 L 19.730469 78.710938 L 16.738281 78.710938 L 16.738281 78.007812 C 17.691406 76.421875 18.644531 74.824219 19.59375 73.234375 Z M 20.617188 73.234375 Z M 19.777344 73.667969 C 19.550781 74.84375 18.824219 75.855469 18.28125 76.886719 C 18.066406 77.261719 17.78125 77.667969 17.621094 78.03125 L 19.800781 78.03125 L 19.8125 78.007812 L 19.8125 73.667969 L 19.800781 73.644531 Z M 19.777344 73.667969 Z M 19.777344 73.667969 "/>
<path style=" stroke:none;fill-rule:nonzero;fill:rgb(0%,0%,0%);fill-opacity:1;" d="M 10.636719 49.875 C 11.714844 49.953125 12.429688 50.941406 12.621094 51.9375 C 12.722656 52.390625 12.746094 52.824219 12.792969 53.277344 L 12.792969 54.433594 C 12.734375 55.613281 12.453125 57.164062 11.171875 57.640625 C 10.058594 58.085938 8.753906 57.390625 8.425781 56.257812 C 8.175781 55.65625 8.15625 55.046875 8.097656 54.433594 L 8.097656 53.277344 C 8.15625 52.097656 8.402344 50.53125 9.675781 50.011719 L 9.730469 49.988281 L 9.777344 49.976562 L 9.832031 49.953125 L 10.003906 49.910156 L 10.105469 49.886719 L 10.230469 49.886719 L 10.253906 49.875 Z M 10.636719 49.875 Z M 10.285156 50.566406 C 9.332031 50.679688 9.050781 51.824219 8.980469 52.597656 L 8.980469 52.902344 L 8.960938 52.925781 L 8.960938 54.5 C 9.027344 55.316406 9.085938 56.371094 9.832031 56.917969 C 10.523438 57.390625 11.441406 56.859375 11.636719 56.121094 C 11.839844 55.578125 11.886719 55.046875 11.929688 54.5 L 11.929688 52.925781 C 11.863281 52.097656 11.75 50.941406 10.796875 50.613281 L 10.71875 50.589844 L 10.695312 50.566406 L 10.59375 50.566406 L 10.570312 50.542969 L 10.308594 50.542969 Z M 10.285156 50.566406 Z M 10.285156 50.566406 "/>
<path style=" stroke:none;fill-rule:nonzero;fill:rgb(0%,0%,0%);fill-opacity:1;" d="M 15.320312 56.609375 L 15.320312 57.515625 L 14.402344 57.515625 L 14.402344 56.609375 Z M 15.320312 56.609375 Z M 15.320312 56.609375 "/>
<path style=" stroke:none;fill-rule:nonzero;fill:rgb(0%,0%,0%);fill-opacity:1;" d="M 20.183594 49.875 C 20.480469 49.921875 20.820312 49.953125 21.101562 50.089844 L 21.101562 50.746094 C 20.320312 50.40625 19.300781 50.363281 18.6875 51.054688 C 18.144531 51.632812 17.894531 52.496094 17.871094 53.253906 C 18.53125 52.378906 20.015625 51.894531 20.820312 52.800781 C 21.625 53.730469 21.761719 55.066406 21.398438 56.203125 C 21 57.109375 20.082031 57.9375 19.0625 57.742188 C 17.679688 57.628906 17.054688 56.089844 16.988281 54.910156 C 16.726562 53.242188 17.125 51.144531 18.710938 50.191406 L 18.734375 50.179688 L 18.972656 50.054688 L 19.039062 50.035156 L 19.074219 50.011719 L 19.265625 49.953125 L 19.425781 49.910156 L 19.527344 49.886719 L 19.652344 49.886719 L 19.675781 49.875 Z M 20.183594 49.875 Z M 19.074219 53.027344 C 18.085938 53.195312 17.769531 54.386719 17.894531 55.191406 C 17.953125 55.953125 18.246094 56.960938 19.117188 57.121094 C 20.046875 57.246094 20.648438 56.246094 20.671875 55.441406 C 20.71875 54.625 20.671875 53.695312 19.957031 53.164062 L 19.800781 53.082031 L 19.675781 53.050781 L 19.574219 53.027344 L 19.550781 53.003906 L 19.097656 53.003906 Z M 19.074219 53.027344 Z M 19.074219 53.027344 "/>
<path style=" stroke:none;fill-rule:nonzero;fill:rgb(0%,0%,0%);fill-opacity:1;" d="M 10.636719 26.753906 C 11.714844 26.832031 12.429688 27.820312 12.621094 28.816406 C 12.722656 29.269531 12.746094 29.699219 12.792969 30.15625 L 12.792969 31.3125 C 12.734375 32.488281 12.453125 34.042969 11.171875 34.519531 C 10.058594 34.960938 8.753906 34.269531 8.425781 33.136719 C 8.175781 32.535156 8.15625 31.921875 8.097656 31.3125 L 8.097656 30.15625 C 8.15625 28.976562 8.402344 27.410156 9.675781 26.890625 L 9.730469 26.867188 L 9.777344 26.855469 L 9.832031 26.832031 L 10.003906 26.785156 L 10.105469 26.765625 L 10.230469 26.765625 L 10.253906 26.753906 Z M 10.636719 26.753906 Z M 10.285156 27.445312 C 9.332031 27.558594 9.050781 28.703125 8.980469 29.472656 L 8.980469 29.78125 L 8.960938 29.804688 L 8.960938 31.378906 C 9.027344 32.195312 9.085938 33.25 9.832031 33.792969 C 10.523438 34.269531 11.441406 33.738281 11.636719 33 C 11.839844 32.457031 11.886719 31.921875 11.929688 31.378906 L 11.929688 29.804688 C 11.863281 28.976562 11.75 27.820312 10.796875 27.488281 L 10.71875 27.46875 L 10.695312 27.445312 L 10.59375 27.445312 L 10.570312 27.421875 L 10.308594 27.421875 Z M 10.285156 27.445312 Z M 10.285156 27.445312 "/>
<path style=" stroke:none;fill-rule:nonzero;fill:rgb(0%,0%,0%);fill-opacity:1;" d="M 15.320312 33.488281 L 15.320312 34.394531 L 14.402344 34.394531 L 14.402344 33.488281 Z M 15.320312 33.488281 Z M 15.320312 33.488281 "/>
<path style=" stroke:none;fill-rule:nonzero;fill:rgb(0%,0%,0%);fill-opacity:1;" d="M 19.46875 26.753906 C 20.671875 26.796875 21.804688 28.089844 21.332031 29.292969 C 21.125 29.847656 20.558594 30.1875 20.09375 30.425781 C 21.25 30.765625 21.953125 32.117188 21.433594 33.226562 C 20.886719 34.667969 18.824219 35.121094 17.691406 34.078125 C 16.660156 33.261719 16.625 31.492188 17.769531 30.765625 C 17.941406 30.585938 18.257812 30.527344 18.40625 30.390625 C 17.417969 30.109375 16.75 28.964844 17.214844 28 C 17.589844 27.136719 18.550781 26.660156 19.46875 26.753906 Z M 19.46875 26.753906 Z M 19.039062 27.398438 C 18.199219 27.421875 17.609375 28.375 17.894531 29.121094 C 18.222656 30.414062 20.390625 30.371094 20.636719 29.042969 C 20.863281 28.304688 20.277344 27.421875 19.46875 27.398438 L 19.449219 27.386719 L 19.0625 27.386719 Z M 19.039062 27.398438 Z M 19.0625 30.765625 C 18.074219 30.835938 17.589844 32.015625 17.847656 32.851562 C 18.019531 34.042969 19.71875 34.394531 20.390625 33.441406 C 21.035156 32.570312 20.71875 31.003906 19.550781 30.765625 L 19.449219 30.765625 L 19.425781 30.742188 L 19.074219 30.742188 Z M 19.0625 30.765625 Z M 19.0625 30.765625 "/>
<path style=" stroke:none;fill-rule:nonzero;fill:rgb(0%,0%,0%);fill-opacity:1;" d="M 10.988281 3.628906 L 10.988281 10.625 L 11 10.648438 L 12.394531 10.648438 L 12.394531 11.273438 L 8.710938 11.273438 L 8.710938 10.648438 L 10.105469 10.648438 L 10.128906 10.625 L 10.128906 4.753906 C 9.652344 4.910156 9.152344 5.015625 8.652344 5.003906 L 8.652344 4.367188 C 9.402344 4.378906 10.21875 4.175781 10.785156 3.628906 Z M 10.988281 3.628906 Z M 10.988281 3.628906 "/>
<path style=" stroke:none;fill-rule:nonzero;fill:rgb(0%,0%,0%);fill-opacity:1;" d="M 15.320312 10.367188 L 15.320312 11.273438 L 14.402344 11.273438 L 14.402344 10.367188 Z M 15.320312 10.367188 Z M 15.320312 10.367188 "/>
<path style=" stroke:none;fill-rule:nonzero;fill:rgb(0%,0%,0%);fill-opacity:1;" d="M 19.449219 3.628906 C 20.523438 3.710938 21.238281 4.695312 21.433594 5.695312 C 21.535156 6.148438 21.558594 6.578125 21.601562 7.03125 L 21.601562 8.1875 C 21.546875 9.367188 21.261719 10.921875 19.980469 11.398438 C 18.871094 11.839844 17.566406 11.148438 17.238281 10.015625 C 16.988281 9.414062 16.964844 8.800781 16.90625 8.1875 L 16.90625 7.03125 C 16.964844 5.851562 17.214844 4.289062 18.484375 3.765625 L 18.539062 3.742188 L 18.585938 3.734375 L 18.644531 3.710938 L 18.8125 3.664062 L 18.914062 3.640625 L 19.039062 3.640625 L 19.0625 3.628906 Z M 19.449219 3.628906 Z M 19.097656 4.320312 C 18.144531 4.4375 17.859375 5.582031 17.792969 6.351562 L 17.792969 6.65625 L 17.769531 6.679688 L 17.769531 8.257812 C 17.835938 9.074219 17.894531 10.128906 18.644531 10.671875 C 19.335938 11.148438 20.253906 10.613281 20.445312 9.878906 C 20.648438 9.332031 20.695312 8.800781 20.742188 8.257812 L 20.742188 6.679688 C 20.671875 5.851562 20.558594 4.695312 19.605469 4.367188 L 19.527344 4.34375 L 19.503906 4.320312 L 19.402344 4.320312 L 19.378906 4.300781 L 19.117188 4.300781 Z M 19.097656 4.320312 Z M 19.097656 4.320312 "/>
<path style="fill:none;stroke-width:0.02;stroke-linecap:butt;stroke-linejoin:miter;stroke:rgb(0%,0%,0%);stroke-opacity:1;stroke-miterlimit:10;" d="M 11.60005 1.42768 L 11.449982 1.42768 " transform="matrix(28.346457,0,0,-28.346457,1,256.11811)"/>
<path style="fill:none;stroke-width:0.02;stroke-linecap:butt;stroke-linejoin:miter;stroke:rgb(0%,0%,0%);stroke-opacity:1;stroke-miterlimit:10;" d="M 11.60005 2.243341 L 11.449982 2.243341 " transform="matrix(28.346457,0,0,-28.346457,1,256.11811)"/>
<path style="fill:none;stroke-width:0.02;stroke-linecap:butt;stroke-linejoin:miter;stroke:rgb(0%,0%,0%);stroke-opacity:1;stroke-miterlimit:10;" d="M 11.60005 3.05914 L 11.449982 3.05914 " transform="matrix(28.346457,0,0,-28.346457,1,256.11811)"/>
<path style="fill:none;stroke-width:0.02;stroke-linecap:butt;stroke-linejoin:miter;stroke:rgb(0%,0%,0%);stroke-opacity:1;stroke-miterlimit:10;" d="M 11.60005 3.8748 L 11.449982 3.8748 " transform="matrix(28.346457,0,0,-28.346457,1,256.11811)"/>
<path style="fill:none;stroke-width:0.02;stroke-linecap:butt;stroke-linejoin:miter;stroke:rgb(0%,0%,0%);stroke-opacity:1;stroke-miterlimit:10;" d="M 11.60005 4.690461 L 11.449982 4.690461 " transform="matrix(28.346457,0,0,-28.346457,1,256.11811)"/>
<path style="fill:none;stroke-width:0.02;stroke-linecap:butt;stroke-linejoin:miter;stroke:rgb(0%,0%,0%);stroke-opacity:1;stroke-miterlimit:10;" d="M 11.60005 5.50626 L 11.449982 5.50626 " transform="matrix(28.346457,0,0,-28.346457,1,256.11811)"/>
<path style="fill:none;stroke-width:0.02;stroke-linecap:butt;stroke-linejoin:miter;stroke:rgb(0%,0%,0%);stroke-opacity:1;stroke-miterlimit:10;" d="M 11.60005 6.321921 L 11.449982 6.321921 " transform="matrix(28.346457,0,0,-28.346457,1,256.11811)"/>
<path style="fill:none;stroke-width:0.02;stroke-linecap:butt;stroke-linejoin:miter;stroke:rgb(0%,0%,0%);stroke-opacity:1;stroke-miterlimit:10;" d="M 11.60005 7.137581 L 11.449982 7.137581 " transform="matrix(28.346457,0,0,-28.346457,1,256.11811)"/>
<path style="fill:none;stroke-width:0.02;stroke-linecap:butt;stroke-linejoin:miter;stroke:rgb(0%,0%,0%);stroke-opacity:1;stroke-miterlimit:10;" d="M 11.60005 7.953242 L 11.449982 7.953242 " transform="matrix(28.346457,0,0,-28.346457,1,256.11811)"/>
<path style="fill:none;stroke-width:0.02;stroke-linecap:round;stroke-linejoin:miter;stroke:rgb(0%,0%,0%);stroke-opacity:1;stroke-miterlimit:10;" d="M 11.60005 0.612019 L 11.60005 8.769041 " transform="matrix(28.346457,0,0,-28.346457,1,256.11811)"/>
<path style="fill:none;stroke-width:0.02;stroke-linecap:butt;stroke-linejoin:miter;stroke:rgb(0%,0%,0%);stroke-opacity:1;stroke-miterlimit:10;" d="M 2.054655 0.612019 L 2.054655 0.76195 " transform="matrix(28.346457,0,0,-28.346457,1,256.11811)"/>
<path style="fill:none;stroke-width:0.02;stroke-linecap:butt;stroke-linejoin:miter;stroke:rgb(0%,0%,0%);stroke-opacity:1;stroke-miterlimit:10;" d="M 3.115193 0.612019 L 3.115193 0.76195 " transform="matrix(28.346457,0,0,-28.346457,1,256.11811)"/>
<path style="fill:none;stroke-width:0.02;stroke-linecap:butt;stroke-linejoin:miter;stroke:rgb(0%,0%,0%);stroke-opacity:1;stroke-miterlimit:10;" d="M 4.175731 0.612019 L 4.175731 0.76195 " transform="matrix(28.346457,0,0,-28.346457,1,256.11811)"/>
<path style="fill:none;stroke-width:0.02;stroke-linecap:butt;stroke-linejoin:miter;stroke:rgb(0%,0%,0%);stroke-opacity:1;stroke-miterlimit:10;" d="M 5.236407 0.612019 L 5.236407 0.76195 " transform="matrix(28.346457,0,0,-28.346457,1,256.11811)"/>
<path style="fill:none;stroke-width:0.02;stroke-linecap:butt;stroke-linejoin:miter;stroke:rgb(0%,0%,0%);stroke-opacity:1;stroke-miterlimit:10;" d="M 6.296946 0.612019 L 6.296946 0.76195 " transform="matrix(28.346457,0,0,-28.346457,1,256.11811)"/>
<path style="fill:none;stroke-width:0.02;stroke-linecap:butt;stroke-linejoin:miter;stroke:rgb(0%,0%,0%);stroke-opacity:1;stroke-miterlimit:10;" d="M 7.357622 0.612019 L 7.357622 0.76195 " transform="matrix(28.346457,0,0,-28.346457,1,256.11811)"/>
<path style="fill:none;stroke-width:0.02;stroke-linecap:butt;stroke-linejoin:miter;stroke:rgb(0%,0%,0%);stroke-opacity:1;stroke-miterlimit:10;" d="M 8.41816 0.612019 L 8.41816 0.76195 " transform="matrix(28.346457,0,0,-28.346457,1,256.11811)"/>
<path style="fill:none;stroke-width:0.02;stroke-linecap:butt;stroke-linejoin:miter;stroke:rgb(0%,0%,0%);stroke-opacity:1;stroke-miterlimit:10;" d="M 9.478836 0.612019 L 9.478836 0.76195 " transform="matrix(28.346457,0,0,-28.346457,1,256.11811)"/>
<path style="fill:none;stroke-width:0.02;stroke-linecap:butt;stroke-linejoin:miter;stroke:rgb(0%,0%,0%);stroke-opacity:1;stroke-miterlimit:10;" d="M 10.539374 0.612019 L 10.539374 0.76195 " transform="matrix(28.346457,0,0,-28.346457,1,256.11811)"/>
<path style="fill:none;stroke-width:0.02;stroke-linecap:round;stroke-linejoin:miter;stroke:rgb(0%,0%,0%);stroke-opacity:1;stroke-miterlimit:10;" d="M 0.993979 0.612019 L 11.60005 0.612019 " transform="matrix(28.346457,0,0,-28.346457,1,256.11811)"/>
<path style=" stroke:none;fill-rule:nonzero;fill:rgb(0%,0%,0%);fill-opacity:1;" d="M 29.367188 245.652344 C 30.445312 245.730469 31.160156 246.71875 31.351562 247.714844 C 31.457031 248.167969 31.476562 248.601562 31.523438 249.054688 L 31.523438 250.210938 C 31.464844 251.390625 31.183594 252.941406 29.902344 253.417969 C 28.789062 253.863281 27.488281 253.171875 27.15625 252.035156 C 26.910156 251.433594 26.886719 250.824219 26.828125 250.210938 L 26.828125 249.054688 C 26.886719 247.875 27.136719 246.308594 28.40625 245.789062 L 28.460938 245.765625 L 28.507812 245.753906 L 28.5625 245.730469 L 28.734375 245.6875 L 28.835938 245.664062 L 28.960938 245.664062 L 28.984375 245.652344 Z M 29.367188 245.652344 Z M 29.019531 246.34375 C 28.066406 246.457031 27.78125 247.601562 27.714844 248.375 L 27.714844 248.679688 L 27.691406 248.703125 L 27.691406 250.277344 C 27.757812 251.09375 27.816406 252.148438 28.5625 252.695312 C 29.253906 253.171875 30.175781 252.636719 30.367188 251.898438 C 30.570312 251.355469 30.617188 250.824219 30.660156 250.277344 L 30.660156 248.703125 C 30.59375 247.875 30.480469 246.71875 29.527344 246.390625 L 29.449219 246.367188 L 29.425781 246.34375 L 29.324219 246.34375 L 29.300781 246.320312 L 29.039062 246.320312 Z M 29.019531 246.34375 Z M 29.019531 246.34375 "/>
<path style=" stroke:none;fill-rule:nonzero;fill:rgb(0%,0%,0%);fill-opacity:1;" d="M 56.949219 245.652344 L 56.949219 252.648438 L 56.960938 252.671875 L 58.355469 252.671875 L 58.355469 253.292969 L 54.671875 253.292969 L 54.671875 252.671875 L 56.066406 252.671875 L 56.089844 252.648438 L 56.089844 246.773438 C 55.613281 246.933594 55.113281 247.035156 54.613281 247.023438 L 54.613281 246.390625 C 55.363281 246.402344 56.179688 246.195312 56.746094 245.652344 Z M 56.949219 245.652344 Z M 56.949219 245.652344 "/>
<path style=" stroke:none;fill-rule:nonzero;fill:rgb(0%,0%,0%);fill-opacity:1;" d="M 62.269531 245.652344 C 63.34375 245.730469 64.058594 246.71875 64.253906 247.714844 C 64.355469 248.167969 64.378906 248.601562 64.421875 249.054688 L 64.421875 250.210938 C 64.367188 251.390625 64.082031 252.941406 62.800781 253.417969 C 61.691406 253.863281 60.386719 253.171875 60.058594 252.035156 C 59.808594 251.433594 59.785156 250.824219 59.726562 250.210938 L 59.726562 249.054688 C 59.785156 247.875 60.035156 246.308594 61.304688 245.789062 L 61.359375 245.765625 L 61.40625 245.753906 L 61.464844 245.730469 L 61.632812 245.6875 L 61.734375 245.664062 L 61.859375 245.664062 L 61.882812 245.652344 Z M 62.269531 245.652344 Z M 61.917969 246.34375 C 60.964844 246.457031 60.679688 247.601562 60.613281 248.375 L 60.613281 248.679688 L 60.589844 248.703125 L 60.589844 250.277344 C 60.65625 251.09375 60.714844 252.148438 61.464844 252.695312 C 62.15625 253.171875 63.074219 252.636719 63.265625 251.898438 C 63.46875 251.355469 63.515625 250.824219 63.5625 250.277344 L 63.5625 248.703125 C 63.492188 247.875 63.378906 246.71875 62.425781 246.390625 L 62.347656 246.367188 L 62.324219 246.34375 L 62.222656 246.34375 L 62.199219 246.320312 L 61.9375 246.320312 Z M 61.917969 246.34375 Z M 61.917969 246.34375 "/>
<path style=" stroke:none;fill-rule:nonzero;fill:rgb(0%,0%,0%);fill-opacity:1;" d="M 86.539062 245.652344 C 87.855469 245.6875 88.898438 247.035156 88.691406 248.304688 C 88.554688 249.574219 87.367188 250.300781 86.515625 251.09375 L 86.152344 251.46875 L 86.105469 251.492188 L 85.652344 251.933594 L 85.621094 251.957031 L 85.167969 252.410156 L 85.121094 252.433594 L 85.019531 252.535156 L 85.042969 252.546875 L 88.714844 252.546875 L 88.714844 253.292969 L 84.226562 253.292969 L 84.226562 252.613281 L 86.050781 250.789062 C 86.921875 250.027344 87.945312 249.042969 87.785156 247.796875 C 87.695312 247.070312 87.082031 246.402344 86.335938 246.34375 C 85.574219 246.230469 84.90625 246.832031 84.734375 247.558594 L 84.710938 247.589844 L 84.691406 247.671875 L 84.65625 247.796875 L 84.589844 248.046875 L 84.578125 248.101562 C 84.417969 247.910156 84.246094 247.703125 84.125 247.488281 C 84.351562 246.558594 85.097656 245.6875 86.085938 245.652344 Z M 86.539062 245.652344 Z M 86.539062 245.652344 "/>
<path style=" stroke:none;fill-rule:nonzero;fill:rgb(0%,0%,0%);fill-opacity:1;" d="M 92.332031 245.652344 C 93.410156 245.730469 94.125 246.71875 94.316406 247.714844 C 94.417969 248.167969 94.441406 248.601562 94.488281 249.054688 L 94.488281 250.210938 C 94.429688 251.390625 94.144531 252.941406 92.863281 253.417969 C 91.753906 253.863281 90.449219 253.171875 90.121094 252.035156 C 89.871094 251.433594 89.847656 250.824219 89.792969 250.210938 L 89.792969 249.054688 C 89.847656 247.875 90.097656 246.308594 91.367188 245.789062 L 91.425781 245.765625 L 91.46875 245.753906 L 91.527344 245.730469 L 91.699219 245.6875 L 91.800781 245.664062 L 91.925781 245.664062 L 91.945312 245.652344 Z M 92.332031 245.652344 Z M 91.980469 246.34375 C 91.027344 246.457031 90.746094 247.601562 90.675781 248.375 L 90.675781 248.679688 L 90.652344 248.703125 L 90.652344 250.277344 C 90.722656 251.09375 90.777344 252.148438 91.527344 252.695312 C 92.21875 253.171875 93.136719 252.636719 93.332031 251.898438 C 93.535156 251.355469 93.578125 250.824219 93.625 250.277344 L 93.625 248.703125 C 93.558594 247.875 93.445312 246.71875 92.492188 246.390625 L 92.410156 246.367188 L 92.390625 246.34375 L 92.285156 246.34375 L 92.265625 246.320312 L 92.003906 246.320312 Z M 91.980469 246.34375 Z M 91.980469 246.34375 "/>
<path style=" stroke:none;fill-rule:nonzero;fill:rgb(0%,0%,0%);fill-opacity:1;" d="M 116.75 245.652344 C 117.746094 245.699219 118.789062 246.617188 118.554688 247.671875 C 118.4375 248.386719 117.941406 248.976562 117.316406 249.292969 C 118.324219 249.609375 119.109375 250.675781 118.835938 251.730469 C 118.5625 253.101562 116.988281 253.863281 115.71875 253.441406 C 115.105469 253.261719 114.480469 252.875 114.1875 252.308594 C 114.253906 252.136719 114.234375 251.84375 114.3125 251.730469 C 114.914062 252.613281 116.183594 253.214844 117.179688 252.714844 C 118.269531 252.023438 118.097656 250.007812 116.785156 249.667969 L 116.683594 249.667969 L 116.660156 249.644531 L 115.605469 249.644531 L 115.605469 248.964844 C 116.25 248.953125 117.054688 248.871094 117.417969 248.203125 C 117.804688 247.625 117.769531 246.671875 117.035156 246.390625 C 116.160156 246.050781 115.082031 246.605469 114.753906 247.488281 C 114.617188 247.296875 114.480469 247.105469 114.347656 246.898438 C 114.8125 246.0625 115.796875 245.5625 116.75 245.652344 Z M 116.75 245.652344 Z M 116.75 245.652344 "/>
<path style=" stroke:none;fill-rule:nonzero;fill:rgb(0%,0%,0%);fill-opacity:1;" d="M 122.398438 245.652344 C 123.472656 245.730469 124.1875 246.71875 124.378906 247.714844 C 124.484375 248.167969 124.503906 248.601562 124.550781 249.054688 L 124.550781 250.210938 C 124.496094 251.390625 124.210938 252.941406 122.929688 253.417969 C 121.816406 253.863281 120.515625 253.171875 120.183594 252.035156 C 119.9375 251.433594 119.914062 250.824219 119.855469 250.210938 L 119.855469 249.054688 C 119.914062 247.875 120.164062 246.308594 121.433594 245.789062 L 121.488281 245.765625 L 121.535156 245.753906 L 121.589844 245.730469 L 121.761719 245.6875 L 121.863281 245.664062 L 121.988281 245.664062 L 122.011719 245.652344 Z M 122.398438 245.652344 Z M 122.046875 246.34375 C 121.09375 246.457031 120.808594 247.601562 120.742188 248.375 L 120.742188 248.679688 L 120.71875 248.703125 L 120.71875 250.277344 C 120.785156 251.09375 120.84375 252.148438 121.589844 252.695312 C 122.28125 253.171875 123.203125 252.636719 123.394531 251.898438 C 123.597656 251.355469 123.644531 250.824219 123.6875 250.277344 L 123.6875 248.703125 C 123.621094 247.875 123.507812 246.71875 122.554688 246.390625 L 122.476562 246.367188 L 122.453125 246.34375 L 122.351562 246.34375 L 122.328125 246.320312 L 122.066406 246.320312 Z M 122.046875 246.34375 Z M 122.046875 246.34375 "/>
<path style=" stroke:none;fill-rule:nonzero;fill:rgb(0%,0%,0%);fill-opacity:1;" d="M 147.960938 245.890625 L 147.960938 250.664062 L 147.980469 250.6875 L 149.105469 250.6875 L 149.105469 251.367188 L 147.980469 251.367188 L 147.960938 251.378906 L 147.960938 253.292969 L 147.097656 253.292969 L 147.097656 251.378906 L 147.074219 251.367188 L 144.082031 251.367188 L 144.082031 250.664062 C 145.035156 249.078125 145.988281 247.476562 146.9375 245.890625 Z M 147.960938 245.890625 Z M 147.121094 246.320312 C 146.894531 247.5 146.167969 248.511719 145.625 249.542969 C 145.40625 249.914062 145.125 250.324219 144.964844 250.6875 L 147.144531 250.6875 L 147.15625 250.664062 L 147.15625 246.320312 L 147.144531 246.300781 Z M 147.121094 246.320312 Z M 147.121094 246.320312 "/>
<path style=" stroke:none;fill-rule:nonzero;fill:rgb(0%,0%,0%);fill-opacity:1;" d="M 152.460938 245.652344 C 153.539062 245.730469 154.253906 246.71875 154.445312 247.714844 C 154.546875 248.167969 154.570312 248.601562 154.613281 249.054688 L 154.613281 250.210938 C 154.558594 251.390625 154.273438 252.941406 152.992188 253.417969 C 151.882812 253.863281 150.578125 253.171875 150.25 252.035156 C 150 251.433594 149.976562 250.824219 149.921875 250.210938 L 149.921875 249.054688 C 149.976562 247.875 150.226562 246.308594 151.496094 245.789062 L 151.554688 245.765625 L 151.597656 245.753906 L 151.65625 245.730469 L 151.824219 245.6875 L 151.929688 245.664062 L 152.050781 245.664062 L 152.074219 245.652344 Z M 152.460938 245.652344 Z M 152.109375 246.34375 C 151.15625 246.457031 150.875 247.601562 150.804688 248.375 L 150.804688 248.679688 L 150.78125 248.703125 L 150.78125 250.277344 C 150.851562 251.09375 150.90625 252.148438 151.65625 252.695312 C 152.347656 253.171875 153.265625 252.636719 153.457031 251.898438 C 153.664062 251.355469 153.707031 250.824219 153.753906 250.277344 L 153.753906 248.703125 C 153.683594 247.875 153.570312 246.71875 152.621094 246.390625 L 152.539062 246.367188 L 152.515625 246.34375 L 152.414062 246.34375 L 152.394531 246.320312 L 152.132812 246.320312 Z M 152.109375 246.34375 Z M 152.109375 246.34375 "/>
<path style=" stroke:none;fill-rule:nonzero;fill:rgb(0%,0%,0%);fill-opacity:1;" d="M 178.535156 245.890625 L 178.535156 246.59375 L 175.585938 246.59375 L 175.5625 246.605469 L 175.5625 248.929688 C 175.835938 248.746094 176.222656 248.511719 176.582031 248.5 C 177.863281 248.363281 178.851562 249.621094 178.90625 250.789062 C 179.089844 252.273438 177.695312 253.75 176.199219 253.523438 C 175.449219 253.5 174.722656 253.058594 174.292969 252.445312 C 174.417969 252.273438 174.519531 251.980469 174.667969 251.878906 C 175.199219 252.921875 176.921875 253.339844 177.617188 252.242188 C 178.058594 251.414062 178.046875 250.359375 177.535156 249.5625 C 176.945312 248.804688 175.777344 249.269531 175.507812 250.074219 L 174.769531 250.074219 L 174.769531 245.890625 Z M 178.535156 245.890625 Z M 178.535156 245.890625 "/>
<path style=" stroke:none;fill-rule:nonzero;fill:rgb(0%,0%,0%);fill-opacity:1;" d="M 182.523438 245.652344 C 183.601562 245.730469 184.316406 246.71875 184.507812 247.714844 C 184.613281 248.167969 184.632812 248.601562 184.679688 249.054688 L 184.679688 250.210938 C 184.621094 251.390625 184.339844 252.941406 183.058594 253.417969 C 181.945312 253.863281 180.644531 253.171875 180.3125 252.035156 C 180.066406 251.433594 180.042969 250.824219 179.984375 250.210938 L 179.984375 249.054688 C 180.042969 247.875 180.292969 246.308594 181.5625 245.789062 L 181.617188 245.765625 L 181.664062 245.753906 L 181.71875 245.730469 L 181.890625 245.6875 L 181.992188 245.664062 L 182.117188 245.664062 L 182.140625 245.652344 Z M 182.523438 245.652344 Z M 182.171875 246.34375 C 181.222656 246.457031 180.9375 247.601562 180.871094 248.375 L 180.871094 248.679688 L 180.847656 248.703125 L 180.847656 250.277344 C 180.914062 251.09375 180.972656 252.148438 181.71875 252.695312 C 182.410156 253.171875 183.332031 252.636719 183.523438 251.898438 C 183.726562 251.355469 183.773438 250.824219 183.816406 250.277344 L 183.816406 248.703125 C 183.75 247.875 183.636719 246.71875 182.683594 246.390625 L 182.605469 246.367188 L 182.582031 246.34375 L 182.480469 246.34375 L 182.457031 246.320312 L 182.195312 246.320312 Z M 182.171875 246.34375 Z M 182.171875 246.34375 "/>
<path style=" stroke:none;fill-rule:nonzero;fill:rgb(0%,0%,0%);fill-opacity:1;" d="M 207.65625 245.652344 C 207.953125 245.699219 208.292969 245.730469 208.574219 245.867188 L 208.574219 246.527344 C 207.792969 246.183594 206.773438 246.140625 206.160156 246.832031 C 205.617188 247.410156 205.367188 248.273438 205.34375 249.03125 C 206 248.160156 207.488281 247.671875 208.292969 248.578125 C 209.097656 249.507812 209.234375 250.84375 208.871094 251.980469 C 208.472656 252.886719 207.554688 253.714844 206.535156 253.523438 C 205.152344 253.40625 204.527344 251.867188 204.460938 250.6875 C 204.199219 249.019531 204.59375 246.921875 206.183594 245.96875 L 206.207031 245.957031 L 206.445312 245.835938 L 206.511719 245.8125 L 206.546875 245.789062 L 206.738281 245.730469 L 206.898438 245.6875 L 207 245.664062 L 207.125 245.664062 L 207.148438 245.652344 Z M 207.65625 245.652344 Z M 206.546875 248.804688 C 205.558594 248.976562 205.242188 250.164062 205.367188 250.96875 C 205.421875 251.730469 205.71875 252.738281 206.589844 252.898438 C 207.519531 253.023438 208.121094 252.023438 208.144531 251.21875 C 208.191406 250.402344 208.144531 249.472656 207.429688 248.941406 L 207.273438 248.863281 L 207.148438 248.828125 L 207.042969 248.804688 L 207.023438 248.78125 L 206.570312 248.78125 Z M 206.546875 248.804688 Z M 206.546875 248.804688 "/>
<path style=" stroke:none;fill-rule:nonzero;fill:rgb(0%,0%,0%);fill-opacity:1;" d="M 212.589844 245.652344 C 213.667969 245.730469 214.378906 246.71875 214.574219 247.714844 C 214.675781 248.167969 214.699219 248.601562 214.742188 249.054688 L 214.742188 250.210938 C 214.6875 251.390625 214.402344 252.941406 213.121094 253.417969 C 212.011719 253.863281 210.707031 253.171875 210.378906 252.035156 C 210.128906 251.433594 210.105469 250.824219 210.050781 250.210938 L 210.050781 249.054688 C 210.105469 247.875 210.355469 246.308594 211.625 245.789062 L 211.683594 245.765625 L 211.726562 245.753906 L 211.785156 245.730469 L 211.953125 245.6875 L 212.054688 245.664062 L 212.179688 245.664062 L 212.203125 245.652344 Z M 212.589844 245.652344 Z M 212.238281 246.34375 C 211.285156 246.457031 211 247.601562 210.933594 248.375 L 210.933594 248.679688 L 210.910156 248.703125 L 210.910156 250.277344 C 210.980469 251.09375 211.035156 252.148438 211.785156 252.695312 C 212.476562 253.171875 213.394531 252.636719 213.585938 251.898438 C 213.792969 251.355469 213.835938 250.824219 213.882812 250.277344 L 213.882812 248.703125 C 213.8125 247.875 213.699219 246.71875 212.746094 246.390625 L 212.667969 246.367188 L 212.644531 246.34375 L 212.542969 246.34375 L 212.519531 246.320312 L 212.261719 246.320312 Z M 212.238281 246.34375 Z M 212.238281 246.34375 "/>
<path style=" stroke:none;fill-rule:nonzero;fill:rgb(0%,0%,0%);fill-opacity:1;" d="M 239.136719 245.890625 L 239.136719 246.605469 C 237.527344 248.488281 236.621094 251.027344 236.632812 253.417969 L 235.714844 253.417969 C 235.691406 251.003906 236.679688 248.453125 238.402344 246.671875 L 238.378906 246.652344 L 234.445312 246.652344 L 234.445312 245.890625 L 239.136719 245.890625 L 239.136719 246.605469 Z M 239.136719 245.890625 Z M 239.136719 245.890625 "/>
<path style=" stroke:none;fill-rule:nonzero;fill:rgb(0%,0%,0%);fill-opacity:1;" d="M 242.652344 245.652344 C 243.730469 245.730469 244.445312 246.71875 244.636719 247.714844 C 244.738281 248.167969 244.761719 248.601562 244.808594 249.054688 L 244.808594 250.210938 C 244.75 251.390625 244.46875 252.941406 243.1875 253.417969 C 242.074219 253.863281 240.769531 253.171875 240.441406 252.035156 C 240.191406 251.433594 240.171875 250.824219 240.113281 250.210938 L 240.113281 249.054688 C 240.171875 247.875 240.417969 246.308594 241.691406 245.789062 L 241.746094 245.765625 L 241.792969 245.753906 L 241.847656 245.730469 L 242.019531 245.6875 L 242.121094 245.664062 L 242.246094 245.664062 L 242.269531 245.652344 Z M 242.652344 245.652344 Z M 242.300781 246.34375 C 241.347656 246.457031 241.066406 247.601562 241 248.375 L 241 248.679688 L 240.976562 248.703125 L 240.976562 250.277344 C 241.042969 251.09375 241.101562 252.148438 241.847656 252.695312 C 242.539062 253.171875 243.457031 252.636719 243.652344 251.898438 C 243.855469 251.355469 243.902344 250.824219 243.945312 250.277344 L 243.945312 248.703125 C 243.878906 247.875 243.765625 246.71875 242.8125 246.390625 L 242.734375 246.367188 L 242.710938 246.34375 L 242.609375 246.34375 L 242.585938 246.320312 L 242.324219 246.320312 Z M 242.300781 246.34375 Z M 242.300781 246.34375 "/>
<path style=" stroke:none;fill-rule:nonzero;fill:rgb(0%,0%,0%);fill-opacity:1;" d="M 267.070312 245.652344 C 268.273438 245.699219 269.40625 246.992188 268.929688 248.191406 C 268.726562 248.746094 268.160156 249.089844 267.695312 249.328125 C 268.851562 249.667969 269.554688 251.015625 269.03125 252.125 C 268.488281 253.566406 266.425781 254.019531 265.292969 252.976562 C 264.257812 252.160156 264.226562 250.390625 265.371094 249.667969 C 265.539062 249.484375 265.859375 249.429688 266.003906 249.292969 C 265.019531 249.007812 264.351562 247.863281 264.816406 246.898438 C 265.1875 246.039062 266.152344 245.5625 267.070312 245.652344 Z M 267.070312 245.652344 Z M 266.640625 246.300781 C 265.800781 246.320312 265.210938 247.273438 265.496094 248.023438 C 265.824219 249.316406 267.988281 249.269531 268.238281 247.941406 C 268.464844 247.207031 267.875 246.320312 267.070312 246.300781 L 267.046875 246.289062 L 266.664062 246.289062 Z M 266.640625 246.300781 Z M 266.664062 249.667969 C 265.675781 249.734375 265.1875 250.914062 265.449219 251.753906 C 265.621094 252.941406 267.320312 253.292969 267.988281 252.34375 C 268.636719 251.46875 268.320312 249.90625 267.152344 249.667969 L 267.046875 249.667969 L 267.027344 249.644531 L 266.675781 249.644531 Z M 266.664062 249.667969 Z M 266.664062 249.667969 "/>
<path style=" stroke:none;fill-rule:nonzero;fill:rgb(0%,0%,0%);fill-opacity:1;" d="M 272.71875 245.652344 C 273.796875 245.730469 274.507812 246.71875 274.703125 247.714844 C 274.804688 248.167969 274.828125 248.601562 274.871094 249.054688 L 274.871094 250.210938 C 274.816406 251.390625 274.53125 252.941406 273.25 253.417969 C 272.140625 253.863281 270.835938 253.171875 270.507812 252.035156 C 270.257812 251.433594 270.234375 250.824219 270.179688 250.210938 L 270.179688 249.054688 C 270.234375 247.875 270.484375 246.308594 271.753906 245.789062 L 271.8125 245.765625 L 271.855469 245.753906 L 271.914062 245.730469 L 272.082031 245.6875 L 272.183594 245.664062 L 272.308594 245.664062 L 272.332031 245.652344 Z M 272.71875 245.652344 Z M 272.367188 246.34375 C 271.414062 246.457031 271.128906 247.601562 271.0625 248.375 L 271.0625 248.679688 L 271.039062 248.703125 L 271.039062 250.277344 C 271.109375 251.09375 271.164062 252.148438 271.914062 252.695312 C 272.605469 253.171875 273.523438 252.636719 273.714844 251.898438 C 273.917969 251.355469 273.964844 250.824219 274.011719 250.277344 L 274.011719 248.703125 C 273.941406 247.875 273.828125 246.71875 272.875 246.390625 L 272.796875 246.367188 L 272.773438 246.34375 L 272.671875 246.34375 L 272.648438 246.320312 L 272.390625 246.320312 Z M 272.367188 246.34375 Z M 272.367188 246.34375 "/>
<path style=" stroke:none;fill-rule:nonzero;fill:rgb(0%,0%,0%);fill-opacity:1;" d="M 297.15625 245.652344 C 298.519531 245.800781 299.109375 247.34375 299.199219 248.519531 C 299.359375 250.050781 299.175781 251.84375 297.929688 252.941406 C 297.148438 253.726562 295.761719 253.75 294.925781 253.046875 C 295.027344 252.851562 295.140625 252.625 295.265625 252.46875 C 296 253.179688 297.292969 252.976562 297.769531 252.058594 C 298.109375 251.503906 298.316406 250.789062 298.304688 250.175781 C 297.632812 251.039062 296.160156 251.539062 295.355469 250.628906 C 294.539062 249.6875 294.390625 248.316406 294.800781 247.183594 C 295.21875 246.289062 296.113281 245.515625 297.15625 245.652344 Z M 297.15625 245.652344 Z M 296.785156 246.300781 C 295.96875 246.367188 295.546875 247.273438 295.492188 247.988281 C 295.457031 248.792969 295.492188 249.734375 296.207031 250.257812 C 297 250.742188 298.019531 250.152344 298.203125 249.292969 C 298.417969 248.453125 298.28125 247.558594 297.851562 246.773438 C 297.613281 246.445312 297.179688 246.207031 296.785156 246.300781 Z M 296.785156 246.300781 Z M 296.785156 246.300781 "/>
<path style=" stroke:none;fill-rule:nonzero;fill:rgb(0%,0%,0%);fill-opacity:1;" d="M 302.78125 245.652344 C 303.859375 245.730469 304.574219 246.71875 304.765625 247.714844 C 304.867188 248.167969 304.890625 248.601562 304.9375 249.054688 L 304.9375 250.210938 C 304.878906 251.390625 304.597656 252.941406 303.316406 253.417969 C 302.203125 253.863281 300.898438 253.171875 300.570312 252.035156 C 300.320312 251.433594 300.300781 250.824219 300.242188 250.210938 L 300.242188 249.054688 C 300.300781 247.875 300.546875 246.308594 301.816406 245.789062 L 301.875 245.765625 L 301.921875 245.753906 L 301.976562 245.730469 L 302.148438 245.6875 L 302.25 245.664062 L 302.375 245.664062 L 302.398438 245.652344 Z M 302.78125 245.652344 Z M 302.429688 246.34375 C 301.476562 246.457031 301.195312 247.601562 301.125 248.375 L 301.125 248.679688 L 301.105469 248.703125 L 301.105469 250.277344 C 301.171875 251.09375 301.230469 252.148438 301.976562 252.695312 C 302.667969 253.171875 303.585938 252.636719 303.78125 251.898438 C 303.984375 251.355469 304.027344 250.824219 304.074219 250.277344 L 304.074219 248.703125 C 304.007812 247.875 303.894531 246.71875 302.941406 246.390625 L 302.863281 246.367188 L 302.839844 246.34375 L 302.738281 246.34375 L 302.714844 246.320312 L 302.453125 246.320312 Z M 302.429688 246.34375 Z M 302.429688 246.34375 "/>
<path style=" stroke:none;fill-rule:nonzero;fill:rgb(0%,0%,0%);fill-opacity:1;" d="M 324.695312 245.652344 L 324.695312 252.648438 L 324.707031 252.671875 L 326.101562 252.671875 L 326.101562 253.292969 L 322.414062 253.292969 L 322.414062 252.671875 L 323.808594 252.671875 L 323.832031 252.648438 L 323.832031 246.773438 C 323.355469 246.933594 322.855469 247.035156 322.359375 247.023438 L 322.359375 246.390625 C 323.105469 246.402344 323.921875 246.195312 324.488281 245.652344 Z M 324.695312 245.652344 Z M 324.695312 245.652344 "/>
<path style=" stroke:none;fill-rule:nonzero;fill:rgb(0%,0%,0%);fill-opacity:1;" d="M 330.011719 245.652344 C 331.089844 245.730469 331.804688 246.71875 331.996094 247.714844 C 332.097656 248.167969 332.121094 248.601562 332.164062 249.054688 L 332.164062 250.210938 C 332.109375 251.390625 331.824219 252.941406 330.542969 253.417969 C 329.433594 253.863281 328.128906 253.171875 327.800781 252.035156 C 327.550781 251.433594 327.527344 250.824219 327.472656 250.210938 L 327.472656 249.054688 C 327.527344 247.875 327.777344 246.308594 329.046875 245.789062 L 329.105469 245.765625 L 329.148438 245.753906 L 329.207031 245.730469 L 329.375 245.6875 L 329.480469 245.664062 L 329.601562 245.664062 L 329.625 245.652344 Z M 330.011719 245.652344 Z M 329.660156 246.34375 C 328.707031 246.457031 328.425781 247.601562 328.355469 248.375 L 328.355469 248.679688 L 328.332031 248.703125 L 328.332031 250.277344 C 328.402344 251.09375 328.457031 252.148438 329.207031 252.695312 C 329.898438 253.171875 330.816406 252.636719 331.007812 251.898438 C 331.214844 251.355469 331.257812 250.824219 331.304688 250.277344 L 331.304688 248.703125 C 331.234375 247.875 331.121094 246.71875 330.171875 246.390625 L 330.089844 246.367188 L 330.066406 246.34375 L 329.964844 246.34375 L 329.945312 246.320312 L 329.683594 246.320312 Z M 329.660156 246.34375 Z M 329.660156 246.34375 "/>
<path style=" stroke:none;fill-rule:nonzero;fill:rgb(0%,0%,0%);fill-opacity:1;" d="M 335.679688 245.652344 C 336.757812 245.730469 337.472656 246.71875 337.664062 247.714844 C 337.765625 248.167969 337.789062 248.601562 337.835938 249.054688 L 337.835938 250.210938 C 337.777344 251.390625 337.496094 252.941406 336.214844 253.417969 C 335.101562 253.863281 333.796875 253.171875 333.46875 252.035156 C 333.21875 251.433594 333.199219 250.824219 333.140625 250.210938 L 333.140625 249.054688 C 333.199219 247.875 333.445312 246.308594 334.71875 245.789062 L 334.773438 245.765625 L 334.820312 245.753906 L 334.875 245.730469 L 335.046875 245.6875 L 335.148438 245.664062 L 335.273438 245.664062 L 335.296875 245.652344 Z M 335.679688 245.652344 Z M 335.328125 246.34375 C 334.378906 246.457031 334.09375 247.601562 334.027344 248.375 L 334.027344 248.679688 L 334.003906 248.703125 L 334.003906 250.277344 C 334.070312 251.09375 334.128906 252.148438 334.875 252.695312 C 335.566406 253.171875 336.484375 252.636719 336.679688 251.898438 C 336.882812 251.355469 336.929688 250.824219 336.972656 250.277344 L 336.972656 248.703125 C 336.90625 247.875 336.792969 246.71875 335.839844 246.390625 L 335.761719 246.367188 L 335.738281 246.34375 L 335.636719 246.34375 L 335.613281 246.320312 L 335.351562 246.320312 Z M 335.328125 246.34375 Z M 335.328125 246.34375 "/>
<path style="fill:none;stroke-width:0.02;stroke-linecap:butt;stroke-linejoin:miter;stroke:rgb(0%,0%,0%);stroke-opacity:1;stroke-miterlimit:10;" d="M 2.054655 8.769041 L 2.054655 8.618972 " transform="matrix(28.346457,0,0,-28.346457,1,256.11811)"/>
<path style="fill:none;stroke-width:0.02;stroke-linecap:butt;stroke-linejoin:miter;stroke:rgb(0%,0%,0%);stroke-opacity:1;stroke-miterlimit:10;" d="M 3.115193 8.769041 L 3.115193 8.618972 " transform="matrix(28.346457,0,0,-28.346457,1,256.11811)"/>
<path style="fill:none;stroke-width:0.02;stroke-linecap:butt;stroke-linejoin:miter;stroke:rgb(0%,0%,0%);stroke-opacity:1;stroke-miterlimit:10;" d="M 4.175731 8.769041 L 4.175731 8.618972 " transform="matrix(28.346457,0,0,-28.346457,1,256.11811)"/>
<path style="fill:none;stroke-width:0.02;stroke-linecap:butt;stroke-linejoin:miter;stroke:rgb(0%,0%,0%);stroke-opacity:1;stroke-miterlimit:10;" d="M 5.236407 8.769041 L 5.236407 8.618972 " transform="matrix(28.346457,0,0,-28.346457,1,256.11811)"/>
<path style="fill:none;stroke-width:0.02;stroke-linecap:butt;stroke-linejoin:miter;stroke:rgb(0%,0%,0%);stroke-opacity:1;stroke-miterlimit:10;" d="M 6.296946 8.769041 L 6.296946 8.618972 " transform="matrix(28.346457,0,0,-28.346457,1,256.11811)"/>
<path style="fill:none;stroke-width:0.02;stroke-linecap:butt;stroke-linejoin:miter;stroke:rgb(0%,0%,0%);stroke-opacity:1;stroke-miterlimit:10;" d="M 7.357622 8.769041 L 7.357622 8.618972 " transform="matrix(28.346457,0,0,-28.346457,1,256.11811)"/>
<path style="fill:none;stroke-width:0.02;stroke-linecap:butt;stroke-linejoin:miter;stroke:rgb(0%,0%,0%);stroke-opacity:1;stroke-miterlimit:10;" d="M 8.41816 8.769041 L 8.41816 8.618972 " transform="matrix(28.346457,0,0,-28.346457,1,256.11811)"/>
<path style="fill:none;stroke-width:0.02;stroke-linecap:butt;stroke-linejoin:miter;stroke:rgb(0%,0%,0%);stroke-opacity:1;stroke-miterlimit:10;" d="M 9.478836 8.769041 L 9.478836 8.618972 " transform="matrix(28.346457,0,0,-28.346457,1,256.11811)"/>
<path style="fill:none;stroke-width:0.02;stroke-linecap:butt;stroke-linejoin:miter;stroke:rgb(0%,0%,0%);stroke-opacity:1;stroke-miterlimit:10;" d="M 10.539374 8.769041 L 10.539374 8.618972 " transform="matrix(28.346457,0,0,-28.346457,1,256.11811)"/>
<path style="fill:none;stroke-width:0.02;stroke-linecap:round;stroke-linejoin:miter;stroke:rgb(0%,0%,0%);stroke-opacity:1;stroke-miterlimit:10;" d="M 0.993979 8.769041 L 11.60005 8.769041 " transform="matrix(28.346457,0,0,-28.346457,1,256.11811)"/>
<path style="fill:none;stroke-width:0.05;stroke-linecap:butt;stroke-linejoin:miter;stroke:rgb(33%,47%,64%);stroke-opacity:1;stroke-miterlimit:10;" d="M 1.100088 1.258595 L 1.135366 1.273478 L 1.170781 1.288498 L 1.206059 1.303794 L 1.241475 1.319091 L 1.27689 1.334663 L 1.312168 1.350372 L 1.347584 1.36622 L 1.382861 1.382205 L 1.418277 1.398328 L 1.453555 1.414589 L 1.48897 1.430987 L 1.524248 1.447662 L 1.559664 1.464336 L 1.594941 1.481286 L 1.630357 1.498236 L 1.665773 1.515461 L 1.70105 1.532687 L 1.736466 1.550188 L 1.771744 1.567827 L 1.807159 1.585465 L 1.842437 1.60338 L 1.877853 1.621432 L 1.91313 1.639622 L 1.948546 1.657813 L 1.983962 1.676278 L 2.019239 1.694882 L 2.054655 1.713623 L 2.089933 1.732364 L 2.125348 1.751381 L 2.160626 1.770536 L 2.196042 1.789691 L 2.231319 1.809121 L 2.266735 1.828689 L 2.302013 1.848257 L 2.337428 1.867963 L 2.372844 1.887945 L 2.408122 1.907926 L 2.443537 1.928046 L 2.478815 1.948303 L 2.514231 1.968698 L 2.549508 1.989231 L 2.584924 2.009901 L 2.620202 2.03071 L 2.655617 2.051518 L 2.690895 2.072464 L 2.761726 2.114908 L 2.797004 2.136267 L 2.83242 2.157765 L 2.867697 2.179262 L 2.903113 2.201035 L 2.938391 2.222808 L 2.973806 2.244719 L 3.009084 2.266768 L 3.079915 2.31114 L 3.115193 2.333465 L 3.150609 2.355927 L 3.185887 2.378526 L 3.221302 2.401264 L 3.25658 2.424002 L 3.291995 2.446877 L 3.327273 2.46989 L 3.362689 2.492904 L 3.397967 2.516192 L 3.468798 2.56277 L 3.504076 2.586335 L 3.539491 2.609899 L 3.574769 2.633601 L 3.610184 2.657304 L 3.645462 2.681144 L 3.680878 2.705122 L 3.716156 2.729099 L 3.751571 2.753215 L 3.786849 2.777469 L 3.822265 2.801722 L 3.85768 2.826113 L 3.892958 2.850642 L 3.928373 2.875171 L 3.963651 2.899838 L 3.999067 2.924505 L 4.034345 2.94931 L 4.06976 2.974252 L 4.105038 2.999195 L 4.140454 3.024137 L 4.175731 3.049355 L 4.211147 3.074436 L 4.246562 3.099792 L 4.28184 3.12501 L 4.317256 3.150503 L 4.352534 3.175859 L 4.387949 3.201491 L 4.423227 3.227122 L 4.458643 3.252754 L 4.49392 3.278523 L 4.564752 3.330062 L 4.600029 3.355969 L 4.635445 3.382014 L 4.670723 3.408059 L 4.706138 3.434104 L 4.741416 3.460286 L 4.776832 3.486469 L 4.812109 3.51279 L 4.847525 3.53911 L 4.882803 3.565431 L 4.953634 3.618347 L 4.988912 3.644944 L 5.024327 3.67154 L 5.059605 3.698136 L 5.095021 3.724732 L 5.130298 3.751466 L 5.165714 3.7782 L 5.200992 3.805072 L 5.236407 3.831806 L 5.271685 3.858677 L 5.307101 3.885549 L 5.342516 3.912559 L 5.377794 3.939568 L 5.41321 3.966578 L 5.448487 3.993587 L 5.483903 4.020597 L 5.519181 4.047744 L 5.554596 4.074891 L 5.589874 4.102039 L 5.62529 4.129324 L 5.660705 4.156471 L 5.695983 4.183757 L 5.731399 4.211042 L 5.766676 4.238327 L 5.802092 4.265612 L 5.83737 4.292897 L 5.872785 4.320182 L 5.908063 4.347605 L 5.943479 4.375028 L 5.978757 4.402313 L 6.049588 4.457159 L 6.084865 4.484582 L 6.120281 4.512005 L 6.155559 4.539428 L 6.190974 4.566989 L 6.226252 4.594412 L 6.261668 4.621835 L 6.296946 4.649258 L 6.332361 4.676819 L 6.367639 4.704242 L 6.403054 4.731664 L 6.43847 4.759225 L 6.473748 4.786648 L 6.509163 4.814071 L 6.544441 4.841494 L 6.579857 4.868917 L 6.615135 4.89634 L 6.65055 4.923763 L 6.685828 4.951186 L 6.756659 5.006032 L 6.791937 5.033455 L 6.827352 5.06074 L 6.86263 5.088163 L 6.898046 5.115448 L 6.933324 5.142733 L 6.968739 5.170018 L 7.004017 5.197304 L 7.039433 5.224589 L 7.07471 5.251736 L 7.145541 5.306031 L 7.180819 5.333178 L 7.216235 5.360326 L 7.251513 5.387473 L 7.286928 5.414482 L 7.322206 5.441492 L 7.357622 5.468502 L 7.392899 5.495373 L 7.428315 5.522245 L 7.463593 5.549117 L 7.499008 5.575988 L 7.534424 5.602722 L 7.569702 5.629594 L 7.605117 5.65619 L 7.640395 5.682924 L 7.675811 5.70952 L 7.711088 5.736117 L 7.746504 5.762575 L 7.781782 5.789033 L 7.817197 5.815492 L 7.852613 5.841812 L 7.887891 5.868133 L 7.923306 5.894453 L 7.958584 5.920636 L 7.994 5.946819 L 8.029277 5.973001 L 8.064693 5.999046 L 8.099971 6.024953 L 8.135386 6.05086 L 8.170664 6.076768 L 8.241495 6.128306 L 8.276773 6.153938 L 8.312189 6.179569 L 8.347466 6.205063 L 8.382882 6.230557 L 8.41816 6.255913 L 8.453575 6.281268 L 8.488853 6.306487 L 8.524269 6.331705 L 8.559546 6.356785 L 8.594962 6.381865 L 8.630378 6.406808 L 8.665655 6.431612 L 8.701071 6.456417 L 8.736349 6.481222 L 8.771764 6.505751 L 8.807042 6.530418 L 8.842458 6.554809 L 8.877735 6.5792 L 8.948567 6.627707 L 8.983844 6.651823 L 9.01926 6.675939 L 9.054538 6.699779 L 9.089953 6.723757 L 9.125231 6.747459 L 9.160647 6.771161 L 9.195924 6.794725 L 9.23134 6.818152 L 9.266618 6.841579 L 9.302033 6.864868 L 9.337449 6.888019 L 9.372727 6.91117 L 9.408142 6.934045 L 9.44342 6.957058 L 9.478836 6.979796 L 9.514113 7.002396 L 9.549529 7.024996 L 9.584807 7.047458 L 9.620222 7.06992 L 9.6555 7.092106 L 9.690916 7.114293 L 9.726331 7.136341 L 9.761609 7.158252 L 9.797025 7.180025 L 9.832303 7.20166 L 9.867718 7.223295 L 9.902996 7.244793 L 9.938411 7.266152 L 9.973689 7.287374 L 10.04452 7.329542 L 10.079798 7.35035 L 10.115214 7.371159 L 10.150492 7.391692 L 10.185907 7.412224 L 10.221185 7.432619 L 10.2566 7.452877 L 10.291878 7.473134 L 10.327294 7.493115 L 10.362572 7.512959 L 10.397987 7.532803 L 10.433403 7.552371 L 10.468681 7.571939 L 10.504096 7.591232 L 10.539374 7.610524 L 10.574789 7.629541 L 10.610067 7.648558 L 10.645483 7.667437 L 10.680761 7.686178 L 10.716176 7.704644 L 10.751454 7.72311 L 10.78687 7.741438 L 10.822285 7.759628 L 10.857563 7.777542 L 10.892979 7.795457 L 10.928256 7.813234 L 10.963672 7.830872 L 10.99895 7.848236 L 11.034365 7.865599 L 11.069643 7.882687 L 11.105059 7.899774 L 11.140474 7.916586 L 11.175752 7.933398 L 11.211168 7.949935 L 11.246445 7.966334 L 11.281861 7.982732 L 11.317139 7.998855 L 11.352554 8.01484 L 11.387832 8.030688 L 11.423248 8.04626 L 11.458525 8.061832 L 11.493941 8.077266 L 11.529357 8.092424 L 11.564634 8.107582 L 11.60005 8.122465 " transform="matrix(28.346457,0,0,-28.346457,1,256.11811)"/>
<path style="fill:none;stroke-width:0.05;stroke-linecap:butt;stroke-linejoin:miter;stroke:rgb(90%,57%,26%);stroke-opacity:1;stroke-miterlimit:10;" d="M 1.100088 6.894082 L 1.135366 6.917233 L 1.170781 6.940109 L 1.206059 6.962984 L 1.27689 7.008459 L 1.312168 7.030921 L 1.347584 7.053383 L 1.382861 7.075707 L 1.418277 7.097894 L 1.453555 7.12008 L 1.48897 7.142129 L 1.524248 7.163902 L 1.559664 7.185675 L 1.594941 7.207448 L 1.665773 7.250443 L 1.70105 7.271664 L 1.736466 7.292886 L 1.771744 7.31397 L 1.807159 7.334916 L 1.842437 7.355863 L 1.877853 7.376533 L 1.91313 7.397204 L 1.983962 7.437994 L 2.019239 7.458251 L 2.054655 7.47837 L 2.089933 7.498352 L 2.125348 7.518196 L 2.160626 7.537901 L 2.196042 7.55747 L 2.231319 7.577038 L 2.266735 7.59633 L 2.302013 7.615485 L 2.337428 7.63464 L 2.372844 7.653519 L 2.408122 7.672398 L 2.443537 7.691002 L 2.478815 7.709605 L 2.514231 7.727933 L 2.549508 7.746261 L 2.584924 7.764313 L 2.620202 7.782365 L 2.655617 7.800142 L 2.690895 7.817919 L 2.726311 7.83542 L 2.761726 7.852783 L 2.797004 7.870146 L 2.83242 7.887234 L 2.867697 7.904184 L 2.903113 7.920996 L 2.938391 7.937808 L 2.973806 7.954345 L 3.009084 7.970743 L 3.079915 8.002989 L 3.115193 8.018975 L 3.150609 8.034822 L 3.185887 8.050394 L 3.221302 8.065966 L 3.25658 8.081262 L 3.291995 8.09642 L 3.327273 8.111441 L 3.362689 8.126324 L 3.397967 8.141069 L 3.433382 8.155676 L 3.468798 8.170008 L 3.504076 8.184339 L 3.539491 8.198395 L 3.574769 8.212313 L 3.610184 8.226094 L 3.645462 8.239736 L 3.680878 8.253103 L 3.716156 8.26647 L 3.751571 8.279562 L 3.786849 8.292515 L 3.822265 8.305331 L 3.85768 8.318009 L 3.892958 8.330411 L 3.928373 8.342676 L 3.963651 8.35494 L 3.999067 8.366791 L 4.034345 8.378643 L 4.06976 8.390356 L 4.105038 8.401794 L 4.140454 8.413094 L 4.175731 8.424256 L 4.246562 8.446029 L 4.28184 8.45664 L 4.317256 8.467113 L 4.352534 8.47731 L 4.387949 8.487508 L 4.423227 8.497429 L 4.458643 8.507214 L 4.49392 8.516722 L 4.529336 8.52623 L 4.564752 8.535463 L 4.600029 8.544558 L 4.635445 8.553378 L 4.670723 8.562197 L 4.706138 8.570741 L 4.741416 8.579009 L 4.776832 8.587278 L 4.812109 8.59527 L 4.847525 8.603125 L 4.882803 8.610704 L 4.918218 8.618283 L 4.953634 8.625587 L 4.988912 8.632753 L 5.024327 8.639643 L 5.059605 8.646395 L 5.095021 8.65301 L 5.130298 8.659487 L 5.165714 8.665688 L 5.200992 8.671751 L 5.236407 8.677539 L 5.271685 8.683327 L 5.307101 8.688839 L 5.342516 8.694076 L 5.377794 8.699312 L 5.41321 8.704273 L 5.448487 8.708958 L 5.483903 8.713644 L 5.519181 8.718053 L 5.554596 8.722325 L 5.589874 8.726322 L 5.62529 8.73018 L 5.660705 8.733901 L 5.695983 8.737346 L 5.731399 8.740653 L 5.766676 8.743823 L 5.802092 8.746854 L 5.83737 8.74961 L 5.872785 8.752091 L 5.908063 8.754571 L 5.943479 8.756776 L 5.978757 8.758843 L 6.014172 8.760635 L 6.049588 8.762288 L 6.084865 8.763804 L 6.120281 8.765044 L 6.155559 8.766147 L 6.190974 8.767112 L 6.226252 8.767801 L 6.261668 8.76849 L 6.296946 8.768765 L 6.332361 8.769041 L 6.367639 8.769041 L 6.43847 8.76849 L 6.473748 8.767801 L 6.509163 8.767112 L 6.544441 8.766147 L 6.579857 8.765044 L 6.615135 8.763804 L 6.65055 8.762288 L 6.685828 8.760635 L 6.721243 8.758843 L 6.756659 8.756776 L 6.791937 8.754571 L 6.827352 8.752091 L 6.86263 8.74961 L 6.898046 8.746854 L 6.933324 8.743823 L 6.968739 8.740653 L 7.004017 8.737346 L 7.039433 8.733901 L 7.07471 8.73018 L 7.110126 8.726322 L 7.145541 8.722325 L 7.180819 8.718053 L 7.216235 8.713644 L 7.251513 8.708958 L 7.286928 8.704273 L 7.322206 8.699312 L 7.357622 8.694076 L 7.392899 8.688839 L 7.428315 8.683327 L 7.463593 8.677539 L 7.499008 8.671751 L 7.534424 8.665688 L 7.569702 8.659487 L 7.605117 8.65301 L 7.640395 8.646395 L 7.675811 8.639643 L 7.711088 8.632753 L 7.746504 8.625587 L 7.781782 8.618283 L 7.852613 8.603125 L 7.887891 8.59527 L 7.923306 8.587278 L 7.958584 8.579009 L 7.994 8.570741 L 8.029277 8.562197 L 8.064693 8.553378 L 8.099971 8.544558 L 8.135386 8.535463 L 8.170664 8.52623 L 8.241495 8.507214 L 8.276773 8.497429 L 8.312189 8.487508 L 8.347466 8.47731 L 8.382882 8.467113 L 8.41816 8.45664 L 8.453575 8.446029 L 8.488853 8.435142 L 8.524269 8.424256 L 8.559546 8.413094 L 8.594962 8.401794 L 8.630378 8.390356 L 8.665655 8.378643 L 8.701071 8.366791 L 8.736349 8.35494 L 8.771764 8.342676 L 8.807042 8.330411 L 8.842458 8.318009 L 8.877735 8.305331 L 8.913151 8.292515 L 8.948567 8.279562 L 8.983844 8.26647 L 9.01926 8.253103 L 9.054538 8.239736 L 9.089953 8.226094 L 9.125231 8.212313 L 9.160647 8.198395 L 9.195924 8.184339 L 9.23134 8.170008 L 9.266618 8.155676 L 9.302033 8.141069 L 9.337449 8.126324 L 9.372727 8.111441 L 9.408142 8.09642 L 9.44342 8.081262 L 9.478836 8.065966 L 9.514113 8.050394 L 9.549529 8.034822 L 9.584807 8.018975 L 9.620222 8.002989 L 9.6555 7.986866 L 9.690916 7.970743 L 9.726331 7.954345 L 9.761609 7.937808 L 9.797025 7.920996 L 9.832303 7.904184 L 9.867718 7.887234 L 9.902996 7.870146 L 9.938411 7.852783 L 9.973689 7.83542 L 10.009105 7.817919 L 10.04452 7.800142 L 10.079798 7.782365 L 10.115214 7.764313 L 10.150492 7.746261 L 10.185907 7.727933 L 10.221185 7.709605 L 10.2566 7.691002 L 10.291878 7.672398 L 10.327294 7.653519 L 10.362572 7.63464 L 10.433403 7.59633 L 10.468681 7.577038 L 10.504096 7.55747 L 10.539374 7.537901 L 10.574789 7.518196 L 10.610067 7.498352 L 10.645483 7.47837 L 10.680761 7.458251 L 10.716176 7.437994 L 10.751454 7.417599 L 10.78687 7.397204 L 10.822285 7.376533 L 10.857563 7.355863 L 10.892979 7.334916 L 10.928256 7.31397 L 10.963672 7.292886 L 10.99895 7.271664 L 11.034365 7.250443 L 11.069643 7.228945 L 11.105059 7.207448 L 11.140474 7.185675 L 11.175752 7.163902 L 11.211168 7.142129 L 11.246445 7.12008 L 11.281861 7.097894 L 11.317139 7.075707 L 11.352554 7.053383 L 11.387832 7.030921 L 11.423248 7.008459 L 11.458525 6.985722 L 11.493941 6.962984 L 11.529357 6.940109 L 11.564634 6.917233 L 11.60005 6.894082 " transform="matrix(28.346457,0,0,-28.346457,1,256.11811)"/>
</g>
</svg>
