<?xml version="1.0" encoding="UTF-8"?>
<svg xmlns="http://www.w3.org/2000/svg" xmlns:xlink="http://www.w3.org/1999/xlink" width="342.15748pt" height="257.11811pt" viewBox="0 0 342.15748 257.11811" version="1.1">
<g id="surface1">
<path style="fill-rule:nonzero;fill:rgb(39.215686%,58.431373%,92.941176%);fill-opacity:1;stroke-width:0.02;stroke-linecap:butt;stroke-linejoin:miter;stroke:rgb(100%,100%,100%);stroke-opacity:1;stroke-miterlimit:10;" d="M 1.706287 0.612019 L 2.356583 0.612019 L 2.356583 0.618772 L 1.706287 0.618772 Z M 1.706287 0.612019 " transform="matrix(28.346457,0,0,-28.346457,1,256.11811)"/>
<path style="fill-rule:nonzero;fill:rgb(39.215686%,58.431373%,92.941176%);fill-opacity:1;stroke-width:0.02;stroke-linecap:butt;stroke-linejoin:miter;stroke:rgb(100%,100%,100%);stroke-opacity:1;stroke-miterlimit:10;" d="M 2.356583 0.612019 L 3.006742 0.612019 L 3.006742 0.639167 L 2.356583 0.639167 Z M 2.356583 0.612019 " transform="matrix(28.346457,0,0,-28.346457,1,256.11811)"/>
<path style="fill-rule:nonzero;fill:rgb(39.215686%,58.431373%,92.941176%);fill-opacity:1;stroke-width:0.02;stroke-linecap:butt;stroke-linejoin:miter;stroke:rgb(100%,100%,100%);stroke-opacity:1;stroke-miterlimit:10;" d="M 3.006742 0.612019 L 3.6569 0.612019 L 3.6569 0.856759 L 3.006742 0.856759 Z M 3.006742 0.612019 " transform="matrix(28.346457,0,0,-28.346457,1,256.11811)"/>
<path style="fill-rule:nonzero;fill:rgb(39.215686%,58.431373%,92.941176%);fill-opacity:1;stroke-width:0.02;stroke-linecap:butt;stroke-linejoin:miter;stroke:rgb(100%,100%,100%);stroke-opacity:1;stroke-miterlimit:10;" d="M 3.6569 0.612019 L 4.307196 0.612019 L 4.307196 1.536407 L 3.6569 1.536407 Z M 3.6569 0.612019 " transform="matrix(28.346457,0,0,-28.346457,1,256.11811)"/>
<path style="fill-rule:nonzero;fill:rgb(39.215686%,58.431373%,92.941176%);fill-opacity:1;stroke-width:0.02;stroke-linecap:butt;stroke-linejoin:miter;stroke:rgb(100%,100%,100%);stroke-opacity:1;stroke-miterlimit:10;" d="M 4.307058 0.612019 L 4.957355 0.612019 L 4.957355 3.011459 L 4.307058 3.011459 Z M 4.307058 0.612019 " transform="matrix(28.346457,0,0,-28.346457,1,256.11811)"/>
<path style="fill-rule:nonzero;fill:rgb(39.215686%,58.431373%,92.941176%);fill-opacity:1;stroke-width:0.02;stroke-linecap:butt;stroke-linejoin:miter;stroke:rgb(100%,100%,100%);stroke-opacity:1;stroke-miterlimit:10;" d="M 4.957355 0.612019 L 5.607513 0.612019 L 5.607513 5.329457 L 4.957355 5.329457 Z M 4.957355 0.612019 " transform="matrix(28.346457,0,0,-28.346457,1,256.11811)"/>
<path style="fill-rule:nonzero;fill:rgb(39.215686%,58.431373%,92.941176%);fill-opacity:1;stroke-width:0.02;stroke-linecap:butt;stroke-linejoin:miter;stroke:rgb(100%,100%,100%);stroke-opacity:1;stroke-miterlimit:10;" d="M 5.607513 0.612019 L 6.257809 0.612019 L 6.257809 7.688245 L 5.607513 7.688245 Z M 5.607513 0.612019 " transform="matrix(28.346457,0,0,-28.346457,1,256.11811)"/>
<path style="fill-rule:nonzero;fill:rgb(39.215686%,58.431373%,92.941176%);fill-opacity:1;stroke-width:0.02;stroke-linecap:butt;stroke-linejoin:miter;stroke:rgb(100%,100%,100%);stroke-opacity:1;stroke-miterlimit:10;" d="M 6.257671 0.612019 L 6.907968 0.612019 L 6.907968 7.715393 L 6.257671 7.715393 Z M 6.257671 0.612019 " transform="matrix(28.346457,0,0,-28.346457,1,256.11811)"/>
<path style="fill-rule:nonzero;fill:rgb(39.215686%,58.431373%,92.941176%);fill-opacity:1;stroke-width:0.02;stroke-linecap:butt;stroke-linejoin:miter;stroke:rgb(100%,100%,100%);stroke-opacity:1;stroke-miterlimit:10;" d="M 6.907968 0.612019 L 7.558126 0.612019 L 7.558126 6.383105 L 6.907968 6.383105 Z M 6.907968 0.612019 " transform="matrix(28.346457,0,0,-28.346457,1,256.11811)"/>
<path style="fill-rule:nonzero;fill:rgb(39.215686%,58.431373%,92.941176%);fill-opacity:1;stroke-width:0.02;stroke-linecap:butt;stroke-linejoin:miter;stroke:rgb(100%,100%,100%);stroke-opacity:1;stroke-miterlimit:10;" d="M 7.558126 0.612019 L 8.208285 0.612019 L 8.208285 4.133045 L 7.558126 4.133045 Z M 7.558126 0.612019 " transform="matrix(28.346457,0,0,-28.346457,1,256.11811)"/>
<path style="fill-rule:nonzero;fill:rgb(39.215686%,58.431373%,92.941176%);fill-opacity:1;stroke-width:0.02;stroke-linecap:butt;stroke-linejoin:miter;stroke:rgb(100%,100%,100%);stroke-opacity:1;stroke-miterlimit:10;" d="M 8.208285 0.612019 L 8.858581 0.612019 L 8.858581 2.229836 L 8.208285 2.229836 Z M 8.208285 0.612019 " transform="matrix(28.346457,0,0,-28.346457,1,256.11811)"/>
<path style="fill-rule:nonzero;fill:rgb(39.215686%,58.431373%,92.941176%);fill-opacity:1;stroke-width:0.02;stroke-linecap:butt;stroke-linejoin:miter;stroke:rgb(100%,100%,100%);stroke-opacity:1;stroke-miterlimit:10;" d="M 8.858443 0.612019 L 9.508739 0.612019 L 9.508739 1.033423 L 8.858443 1.033423 Z M 8.858443 0.612019 " transform="matrix(28.346457,0,0,-28.346457,1,256.11811)"/>
<path style="fill-rule:nonzero;fill:rgb(39.215686%,58.431373%,92.941176%);fill-opacity:1;stroke-width:0.02;stroke-linecap:butt;stroke-linejoin:miter;stroke:rgb(100%,100%,100%);stroke-opacity:1;stroke-miterlimit:10;" d="M 9.508739 0.612019 L 10.158898 0.612019 L 10.158898 0.720747 L 9.508739 0.720747 Z M 9.508739 0.612019 " transform="matrix(28.346457,0,0,-28.346457,1,256.11811)"/>
<path style="fill-rule:nonzero;fill:rgb(39.215686%,58.431373%,92.941176%);fill-opacity:1;stroke-width:0.02;stroke-linecap:butt;stroke-linejoin:miter;stroke:rgb(100%,100%,100%);stroke-opacity:1;stroke-miterlimit:10;" d="M 10.158898 0.612019 L 10.809194 0.612019 L 10.809194 0.652809 L 10.158898 0.652809 Z M 10.158898 0.612019 " transform="matrix(28.346457,0,0,-28.346457,1,256.11811)"/>
<path style="fill:none;stroke-width:0.02;stroke-linecap:butt;stroke-linejoin:miter;stroke:rgb(0%,0%,0%);stroke-opacity:1;stroke-miterlimit:10;" d="M 1.149973 1.971454 L 1.300041 1.971454 " transform="matrix(28.346457,0,0,-28.346457,1,256.11811)"/>
<path style="fill:none;stroke-width:0.02;stroke-linecap:butt;stroke-linejoin:miter;stroke:rgb(0%,0%,0%);stroke-opacity:1;stroke-miterlimit:10;" d="M 1.149973 3.331026 L 1.300041 3.331026 " transform="matrix(28.346457,0,0,-28.346457,1,256.11811)"/>
<path style="fill:none;stroke-width:0.02;stroke-linecap:butt;stroke-linejoin:miter;stroke:rgb(0%,0%,0%);stroke-opacity:1;stroke-miterlimit:10;" d="M 1.149973 4.690461 L 1.300041 4.690461 " transform="matrix(28.346457,0,0,-28.346457,1,256.11811)"/>
<path style="fill:none;stroke-width:0.02;stroke-linecap:butt;stroke-linejoin:miter;stroke:rgb(0%,0%,0%);stroke-opacity:1;stroke-miterlimit:10;" d="M 1.149973 6.050034 L 1.300041 6.050034 " transform="matrix(28.346457,0,0,-28.346457,1,256.11811)"/>
<path style="fill:none;stroke-width:0.02;stroke-linecap:butt;stroke-linejoin:miter;stroke:rgb(0%,0%,0%);stroke-opacity:1;stroke-miterlimit:10;" d="M 1.149973 7.409468 L 1.300041 7.409468 " transform="matrix(28.346457,0,0,-28.346457,1,256.11811)"/>
<path style="fill:none;stroke-width:0.02;stroke-linecap:round;stroke-linejoin:miter;stroke:rgb(0%,0%,0%);stroke-opacity:1;stroke-miterlimit:10;" d="M 1.149973 0.612019 L 1.149973 8.769041 " transform="matrix(28.346457,0,0,-28.346457,1,256.11811)"/>
<path style=" stroke:none;fill-rule:nonzero;fill:rgb(0%,0%,0%);fill-opacity:1;" d="M 23.871094 234.851562 C 24.945312 234.933594 25.660156 235.917969 25.855469 236.917969 C 25.957031 237.371094 25.980469 237.800781 26.023438 238.253906 L 26.023438 239.410156 C 25.96875 240.589844 25.683594 242.144531 24.402344 242.621094 C 23.292969 243.0625 21.988281 242.371094 21.660156 241.234375 C 21.410156 240.636719 21.386719 240.023438 21.332031 239.410156 L 21.332031 238.253906 C 21.386719 237.074219 21.636719 235.511719 22.90625 234.988281 L 22.960938 234.964844 L 23.007812 234.953125 L 23.066406 234.933594 L 23.234375 234.886719 L 23.335938 234.863281 L 23.460938 234.863281 L 23.484375 234.851562 Z M 23.871094 234.851562 Z M 23.519531 235.542969 C 22.566406 235.65625 22.28125 236.804688 22.214844 237.574219 L 22.214844 237.878906 L 22.191406 237.902344 L 22.191406 239.480469 C 22.261719 240.296875 22.316406 241.347656 23.066406 241.894531 C 23.757812 242.371094 24.675781 241.835938 24.867188 241.101562 C 25.070312 240.554688 25.117188 240.023438 25.164062 239.480469 L 25.164062 237.902344 C 25.09375 237.074219 24.980469 235.917969 24.027344 235.589844 L 23.949219 235.566406 L 23.925781 235.542969 L 23.824219 235.542969 L 23.800781 235.523438 L 23.542969 235.523438 Z M 23.519531 235.542969 Z M 23.519531 235.542969 "/>
<path style=" stroke:none;fill-rule:nonzero;fill:rgb(0%,0%,0%);fill-opacity:1;" d="M 12.40625 196.316406 C 13.722656 196.347656 14.765625 197.699219 14.5625 198.96875 C 14.425781 200.238281 13.234375 200.964844 12.382812 201.757812 L 12.019531 202.132812 L 11.976562 202.15625 L 11.523438 202.597656 L 11.488281 202.621094 L 11.035156 203.074219 L 10.988281 203.097656 L 10.886719 203.199219 L 10.910156 203.210938 L 14.582031 203.210938 L 14.582031 203.957031 L 10.09375 203.957031 L 10.09375 203.277344 L 11.917969 201.453125 C 12.792969 200.691406 13.8125 199.707031 13.652344 198.457031 C 13.5625 197.734375 12.949219 197.0625 12.203125 197.007812 C 11.441406 196.894531 10.773438 197.496094 10.605469 198.21875 L 10.582031 198.253906 L 10.558594 198.332031 L 10.523438 198.457031 L 10.457031 198.707031 L 10.445312 198.765625 C 10.285156 198.570312 10.117188 198.367188 9.992188 198.152344 C 10.21875 197.222656 10.964844 196.347656 11.953125 196.316406 Z M 12.40625 196.316406 Z M 12.40625 196.316406 "/>
<path style=" stroke:none;fill-rule:nonzero;fill:rgb(0%,0%,0%);fill-opacity:1;" d="M 18.199219 196.316406 C 19.277344 196.394531 19.992188 197.382812 20.183594 198.378906 C 20.285156 198.832031 20.308594 199.261719 20.355469 199.71875 L 20.355469 200.875 C 20.296875 202.054688 20.015625 203.605469 18.734375 204.082031 C 17.621094 204.523438 16.320312 203.832031 15.988281 202.699219 C 15.738281 202.097656 15.71875 201.484375 15.660156 200.875 L 15.660156 199.71875 C 15.71875 198.539062 15.96875 196.972656 17.238281 196.453125 L 17.292969 196.429688 L 17.339844 196.417969 L 17.394531 196.394531 L 17.566406 196.347656 L 17.667969 196.328125 L 17.792969 196.328125 L 17.816406 196.316406 Z M 18.199219 196.316406 Z M 17.847656 197.007812 C 16.898438 197.121094 16.613281 198.265625 16.546875 199.035156 L 16.546875 199.34375 L 16.523438 199.367188 L 16.523438 200.941406 C 16.589844 201.757812 16.648438 202.8125 17.394531 203.355469 C 18.085938 203.832031 19.003906 203.300781 19.199219 202.5625 C 19.402344 202.019531 19.449219 201.484375 19.492188 200.941406 L 19.492188 199.367188 C 19.425781 198.539062 19.3125 197.382812 18.359375 197.050781 L 18.28125 197.03125 L 18.257812 197.007812 L 18.15625 197.007812 L 18.132812 196.984375 L 17.871094 196.984375 Z M 17.847656 197.007812 Z M 17.847656 197.007812 "/>
<path style=" stroke:none;fill-rule:nonzero;fill:rgb(0%,0%,0%);fill-opacity:1;" d="M 23.871094 196.316406 C 24.945312 196.394531 25.660156 197.382812 25.855469 198.378906 C 25.957031 198.832031 25.980469 199.261719 26.023438 199.71875 L 26.023438 200.875 C 25.96875 202.054688 25.683594 203.605469 24.402344 204.082031 C 23.292969 204.523438 21.988281 203.832031 21.660156 202.699219 C 21.410156 202.097656 21.386719 201.484375 21.332031 200.875 L 21.332031 199.71875 C 21.386719 198.539062 21.636719 196.972656 22.90625 196.453125 L 22.960938 196.429688 L 23.007812 196.417969 L 23.066406 196.394531 L 23.234375 196.347656 L 23.335938 196.328125 L 23.460938 196.328125 L 23.484375 196.316406 Z M 23.871094 196.316406 Z M 23.519531 197.007812 C 22.566406 197.121094 22.28125 198.265625 22.214844 199.035156 L 22.214844 199.34375 L 22.191406 199.367188 L 22.191406 200.941406 C 22.261719 201.757812 22.316406 202.8125 23.066406 203.355469 C 23.757812 203.832031 24.675781 203.300781 24.867188 202.5625 C 25.070312 202.019531 25.117188 201.484375 25.164062 200.941406 L 25.164062 199.367188 C 25.09375 198.539062 24.980469 197.382812 24.027344 197.050781 L 23.949219 197.03125 L 23.925781 197.007812 L 23.824219 197.007812 L 23.800781 196.984375 L 23.542969 196.984375 Z M 23.519531 197.007812 Z M 23.519531 197.007812 "/>
<path style=" stroke:none;fill-rule:nonzero;fill:rgb(0%,0%,0%);fill-opacity:1;" d="M 13.699219 158.015625 L 13.699219 162.789062 L 13.722656 162.8125 L 14.84375 162.8125 L 14.84375 163.492188 L 13.722656 163.492188 L 13.699219 163.503906 L 13.699219 165.421875 L 12.835938 165.421875 L 12.835938 163.503906 L 12.816406 163.492188 L 9.820312 163.492188 L 9.820312 162.789062 C 10.773438 161.203125 11.726562 159.605469 12.679688 158.015625 Z M 13.699219 158.015625 Z M 12.859375 158.449219 C 12.632812 159.625 11.90625 160.636719 11.363281 161.667969 C 11.148438 162.042969 10.863281 162.449219 10.707031 162.8125 L 12.882812 162.8125 L 12.894531 162.789062 L 12.894531 158.449219 L 12.882812 158.425781 Z M 12.859375 158.449219 Z M 12.859375 158.449219 "/>
<path style=" stroke:none;fill-rule:nonzero;fill:rgb(0%,0%,0%);fill-opacity:1;" d="M 18.199219 157.777344 C 19.277344 157.859375 19.992188 158.84375 20.183594 159.84375 C 20.285156 160.296875 20.308594 160.726562 20.355469 161.179688 L 20.355469 162.335938 C 20.296875 163.515625 20.015625 165.070312 18.734375 165.546875 C 17.621094 165.988281 16.320312 165.296875 15.988281 164.164062 C 15.738281 163.5625 15.71875 162.949219 15.660156 162.335938 L 15.660156 161.179688 C 15.71875 160 15.96875 158.4375 17.238281 157.914062 L 17.292969 157.890625 L 17.339844 157.878906 L 17.394531 157.859375 L 17.566406 157.8125 L 17.667969 157.789062 L 17.792969 157.789062 L 17.816406 157.777344 Z M 18.199219 157.777344 Z M 17.847656 158.46875 C 16.898438 158.582031 16.613281 159.730469 16.546875 160.5 L 16.546875 160.804688 L 16.523438 160.828125 L 16.523438 162.40625 C 16.589844 163.222656 16.648438 164.277344 17.394531 164.820312 C 18.085938 165.296875 19.003906 164.761719 19.199219 164.027344 C 19.402344 163.480469 19.449219 162.949219 19.492188 162.40625 L 19.492188 160.828125 C 19.425781 160 19.3125 158.84375 18.359375 158.515625 L 18.28125 158.492188 L 18.257812 158.46875 L 18.15625 158.46875 L 18.132812 158.449219 L 17.871094 158.449219 Z M 17.847656 158.46875 Z M 17.847656 158.46875 "/>
<path style=" stroke:none;fill-rule:nonzero;fill:rgb(0%,0%,0%);fill-opacity:1;" d="M 23.871094 157.777344 C 24.945312 157.859375 25.660156 158.84375 25.855469 159.84375 C 25.957031 160.296875 25.980469 160.726562 26.023438 161.179688 L 26.023438 162.335938 C 25.96875 163.515625 25.683594 165.070312 24.402344 165.546875 C 23.292969 165.988281 21.988281 165.296875 21.660156 164.164062 C 21.410156 163.5625 21.386719 162.949219 21.332031 162.335938 L 21.332031 161.179688 C 21.386719 160 21.636719 158.4375 22.90625 157.914062 L 22.960938 157.890625 L 23.007812 157.878906 L 23.066406 157.859375 L 23.234375 157.8125 L 23.335938 157.789062 L 23.460938 157.789062 L 23.484375 157.777344 Z M 23.871094 157.777344 Z M 23.519531 158.46875 C 22.566406 158.582031 22.28125 159.730469 22.214844 160.5 L 22.214844 160.804688 L 22.191406 160.828125 L 22.191406 162.40625 C 22.261719 163.222656 22.316406 164.277344 23.066406 164.820312 C 23.757812 165.296875 24.675781 164.761719 24.867188 164.027344 C 25.070312 163.480469 25.117188 162.949219 25.164062 162.40625 L 25.164062 160.828125 C 25.09375 160 24.980469 158.84375 24.027344 158.515625 L 23.949219 158.492188 L 23.925781 158.46875 L 23.824219 158.46875 L 23.800781 158.449219 L 23.542969 158.449219 Z M 23.519531 158.46875 Z M 23.519531 158.46875 "/>
<path style=" stroke:none;fill-rule:nonzero;fill:rgb(0%,0%,0%);fill-opacity:1;" d="M 13.269531 119.242188 C 13.5625 119.285156 13.902344 119.320312 14.1875 119.457031 L 14.1875 120.113281 C 13.40625 119.773438 12.382812 119.730469 11.773438 120.421875 C 11.226562 121 10.976562 121.859375 10.957031 122.621094 C 11.613281 121.746094 13.097656 121.261719 13.902344 122.167969 C 14.707031 123.097656 14.84375 124.433594 14.480469 125.570312 C 14.085938 126.476562 13.167969 127.304688 12.144531 127.109375 C 10.761719 126.996094 10.140625 125.457031 10.070312 124.277344 C 9.808594 122.609375 10.207031 120.511719 11.792969 119.558594 L 11.816406 119.546875 L 12.054688 119.421875 L 12.125 119.398438 L 12.15625 119.378906 L 12.351562 119.320312 L 12.507812 119.277344 L 12.609375 119.253906 L 12.734375 119.253906 L 12.757812 119.242188 Z M 13.269531 119.242188 Z M 12.15625 122.394531 C 11.171875 122.5625 10.851562 123.753906 10.976562 124.558594 C 11.035156 125.320312 11.328125 126.328125 12.203125 126.488281 C 13.132812 126.613281 13.734375 125.613281 13.757812 124.808594 C 13.800781 123.992188 13.757812 123.0625 13.042969 122.53125 L 12.882812 122.449219 L 12.757812 122.417969 L 12.65625 122.394531 L 12.632812 122.371094 L 12.179688 122.371094 Z M 12.15625 122.394531 Z M 12.15625 122.394531 "/>
<path style=" stroke:none;fill-rule:nonzero;fill:rgb(0%,0%,0%);fill-opacity:1;" d="M 18.199219 119.242188 C 19.277344 119.320312 19.992188 120.308594 20.183594 121.304688 C 20.285156 121.757812 20.308594 122.191406 20.355469 122.644531 L 20.355469 123.800781 C 20.296875 124.980469 20.015625 126.53125 18.734375 127.007812 C 17.621094 127.449219 16.320312 126.757812 15.988281 125.625 C 15.738281 125.023438 15.71875 124.410156 15.660156 123.800781 L 15.660156 122.644531 C 15.71875 121.464844 15.96875 119.898438 17.238281 119.378906 L 17.292969 119.355469 L 17.339844 119.34375 L 17.394531 119.320312 L 17.566406 119.277344 L 17.667969 119.253906 L 17.792969 119.253906 L 17.816406 119.242188 Z M 18.199219 119.242188 Z M 17.847656 119.933594 C 16.898438 120.046875 16.613281 121.191406 16.546875 121.960938 L 16.546875 122.269531 L 16.523438 122.292969 L 16.523438 123.867188 C 16.589844 124.683594 16.648438 125.738281 17.394531 126.28125 C 18.085938 126.757812 19.003906 126.226562 19.199219 125.488281 C 19.402344 124.945312 19.449219 124.410156 19.492188 123.867188 L 19.492188 122.292969 C 19.425781 121.464844 19.3125 120.308594 18.359375 119.980469 L 18.28125 119.957031 L 18.257812 119.933594 L 18.15625 119.933594 L 18.132812 119.910156 L 17.871094 119.910156 Z M 17.847656 119.933594 Z M 17.847656 119.933594 "/>
<path style=" stroke:none;fill-rule:nonzero;fill:rgb(0%,0%,0%);fill-opacity:1;" d="M 23.871094 119.242188 C 24.945312 119.320312 25.660156 120.308594 25.855469 121.304688 C 25.957031 121.757812 25.980469 122.191406 26.023438 122.644531 L 26.023438 123.800781 C 25.96875 124.980469 25.683594 126.53125 24.402344 127.007812 C 23.292969 127.449219 21.988281 126.757812 21.660156 125.625 C 21.410156 125.023438 21.386719 124.410156 21.332031 123.800781 L 21.332031 122.644531 C 21.386719 121.464844 21.636719 119.898438 22.90625 119.378906 L 22.960938 119.355469 L 23.007812 119.34375 L 23.066406 119.320312 L 23.234375 119.277344 L 23.335938 119.253906 L 23.460938 119.253906 L 23.484375 119.242188 Z M 23.871094 119.242188 Z M 23.519531 119.933594 C 22.566406 120.046875 22.28125 121.191406 22.214844 121.960938 L 22.214844 122.269531 L 22.191406 122.292969 L 22.191406 123.867188 C 22.261719 124.683594 22.316406 125.738281 23.066406 126.28125 C 23.757812 126.757812 24.675781 126.226562 24.867188 125.488281 C 25.070312 124.945312 25.117188 124.410156 25.164062 123.867188 L 25.164062 122.292969 C 25.09375 121.464844 24.980469 120.308594 24.027344 119.980469 L 23.949219 119.957031 L 23.925781 119.933594 L 23.824219 119.933594 L 23.800781 119.910156 L 23.542969 119.910156 Z M 23.519531 119.933594 Z M 23.519531 119.933594 "/>
<path style=" stroke:none;fill-rule:nonzero;fill:rgb(0%,0%,0%);fill-opacity:1;" d="M 12.554688 80.703125 C 13.757812 80.75 14.890625 82.042969 14.414062 83.246094 C 14.210938 83.800781 13.640625 84.140625 13.175781 84.378906 C 14.335938 84.71875 15.039062 86.066406 14.515625 87.179688 C 13.972656 88.617188 11.90625 89.074219 10.773438 88.027344 C 9.742188 87.214844 9.707031 85.445312 10.851562 84.71875 C 11.023438 84.535156 11.339844 84.480469 11.488281 84.34375 C 10.5 84.0625 9.832031 82.914062 10.296875 81.953125 C 10.671875 81.089844 11.636719 80.613281 12.554688 80.703125 Z M 12.554688 80.703125 Z M 12.125 81.351562 C 11.285156 81.375 10.695312 82.324219 10.976562 83.074219 C 11.308594 84.367188 13.472656 84.320312 13.722656 82.996094 C 13.949219 82.257812 13.359375 81.375 12.554688 81.351562 L 12.53125 81.339844 L 12.144531 81.339844 Z M 12.125 81.351562 Z M 12.144531 84.71875 C 11.160156 84.785156 10.671875 85.964844 10.933594 86.804688 C 11.101562 87.996094 12.804688 88.347656 13.472656 87.394531 C 14.117188 86.519531 13.800781 84.957031 12.632812 84.71875 L 12.53125 84.71875 L 12.507812 84.695312 L 12.15625 84.695312 Z M 12.144531 84.71875 Z M 12.144531 84.71875 "/>
<path style=" stroke:none;fill-rule:nonzero;fill:rgb(0%,0%,0%);fill-opacity:1;" d="M 18.199219 80.703125 C 19.277344 80.785156 19.992188 81.769531 20.183594 82.769531 C 20.285156 83.222656 20.308594 83.652344 20.355469 84.105469 L 20.355469 85.261719 C 20.296875 86.441406 20.015625 87.996094 18.734375 88.472656 C 17.621094 88.914062 16.320312 88.222656 15.988281 87.089844 C 15.738281 86.488281 15.71875 85.875 15.660156 85.261719 L 15.660156 84.105469 C 15.71875 82.925781 15.96875 81.363281 17.238281 80.839844 L 17.292969 80.816406 L 17.339844 80.804688 L 17.394531 80.785156 L 17.566406 80.738281 L 17.667969 80.714844 L 17.792969 80.714844 L 17.816406 80.703125 Z M 18.199219 80.703125 Z M 17.847656 81.394531 C 16.898438 81.507812 16.613281 82.65625 16.546875 83.425781 L 16.546875 83.730469 L 16.523438 83.753906 L 16.523438 85.332031 C 16.589844 86.148438 16.648438 87.203125 17.394531 87.746094 C 18.085938 88.222656 19.003906 87.6875 19.199219 86.953125 C 19.402344 86.40625 19.449219 85.875 19.492188 85.332031 L 19.492188 83.753906 C 19.425781 82.925781 19.3125 81.769531 18.359375 81.441406 L 18.28125 81.417969 L 18.257812 81.394531 L 18.15625 81.394531 L 18.132812 81.375 L 17.871094 81.375 Z M 17.847656 81.394531 Z M 17.847656 81.394531 "/>
<path style=" stroke:none;fill-rule:nonzero;fill:rgb(0%,0%,0%);fill-opacity:1;" d="M 23.871094 80.703125 C 24.945312 80.785156 25.660156 81.769531 25.855469 82.769531 C 25.957031 83.222656 25.980469 83.652344 26.023438 84.105469 L 26.023438 85.261719 C 25.96875 86.441406 25.683594 87.996094 24.402344 88.472656 C 23.292969 88.914062 21.988281 88.222656 21.660156 87.089844 C 21.410156 86.488281 21.386719 85.875 21.332031 85.261719 L 21.332031 84.105469 C 21.386719 82.925781 21.636719 81.363281 22.90625 80.839844 L 22.960938 80.816406 L 23.007812 80.804688 L 23.066406 80.785156 L 23.234375 80.738281 L 23.335938 80.714844 L 23.460938 80.714844 L 23.484375 80.703125 Z M 23.871094 80.703125 Z M 23.519531 81.394531 C 22.566406 81.507812 22.28125 82.65625 22.214844 83.425781 L 22.214844 83.730469 L 22.191406 83.753906 L 22.191406 85.332031 C 22.261719 86.148438 22.316406 87.203125 23.066406 87.746094 C 23.757812 88.222656 24.675781 87.6875 24.867188 86.953125 C 25.070312 86.40625 25.117188 85.875 25.164062 85.332031 L 25.164062 83.753906 C 25.09375 82.925781 24.980469 81.769531 24.027344 81.441406 L 23.949219 81.417969 L 23.925781 81.394531 L 23.824219 81.394531 L 23.800781 81.375 L 23.542969 81.375 Z M 23.519531 81.394531 Z M 23.519531 81.394531 "/>
<path style=" stroke:none;fill-rule:nonzero;fill:rgb(0%,0%,0%);fill-opacity:1;" d="M 7.214844 42.167969 L 7.214844 49.164062 L 7.226562 49.1875 L 8.621094 49.1875 L 8.621094 49.808594 L 4.933594 49.808594 L 4.933594 49.1875 L 6.328125 49.1875 L 6.351562 49.164062 L 6.351562 43.289062 C 5.875 43.449219 5.375 43.550781 4.878906 43.539062 L 4.878906 42.90625 C 5.625 42.914062 6.441406 42.710938 7.007812 42.167969 Z M 7.214844 42.167969 Z M 7.214844 42.167969 "/>
<path style=" stroke:none;fill-rule:nonzero;fill:rgb(0%,0%,0%);fill-opacity:1;" d="M 12.53125 42.167969 C 13.609375 42.246094 14.324219 43.234375 14.515625 44.230469 C 14.617188 44.683594 14.640625 45.117188 14.6875 45.570312 L 14.6875 46.726562 C 14.628906 47.90625 14.34375 49.457031 13.0625 49.933594 C 11.953125 50.375 10.648438 49.683594 10.320312 48.550781 C 10.070312 47.949219 10.046875 47.339844 9.992188 46.726562 L 9.992188 45.570312 C 10.046875 44.390625 10.296875 42.824219 11.566406 42.304688 L 11.625 42.28125 L 11.667969 42.269531 L 11.726562 42.246094 L 11.894531 42.203125 L 12 42.179688 L 12.125 42.179688 L 12.144531 42.167969 Z M 12.53125 42.167969 Z M 12.179688 42.859375 C 11.226562 42.972656 10.945312 44.117188 10.875 44.890625 L 10.875 45.195312 L 10.851562 45.21875 L 10.851562 46.792969 C 10.921875 47.609375 10.976562 48.664062 11.726562 49.207031 C 12.417969 49.683594 13.335938 49.152344 13.527344 48.414062 C 13.734375 47.871094 13.777344 47.339844 13.824219 46.792969 L 13.824219 45.21875 C 13.757812 44.390625 13.640625 43.234375 12.691406 42.90625 L 12.609375 42.882812 L 12.589844 42.859375 L 12.484375 42.859375 L 12.464844 42.835938 L 12.203125 42.835938 Z M 12.179688 42.859375 Z M 12.179688 42.859375 "/>
<path style=" stroke:none;fill-rule:nonzero;fill:rgb(0%,0%,0%);fill-opacity:1;" d="M 18.199219 42.167969 C 19.277344 42.246094 19.992188 43.234375 20.183594 44.230469 C 20.285156 44.683594 20.308594 45.117188 20.355469 45.570312 L 20.355469 46.726562 C 20.296875 47.90625 20.015625 49.457031 18.734375 49.933594 C 17.621094 50.375 16.320312 49.683594 15.988281 48.550781 C 15.738281 47.949219 15.71875 47.339844 15.660156 46.726562 L 15.660156 45.570312 C 15.71875 44.390625 15.96875 42.824219 17.238281 42.304688 L 17.292969 42.28125 L 17.339844 42.269531 L 17.394531 42.246094 L 17.566406 42.203125 L 17.667969 42.179688 L 17.792969 42.179688 L 17.816406 42.167969 Z M 18.199219 42.167969 Z M 17.847656 42.859375 C 16.898438 42.972656 16.613281 44.117188 16.546875 44.890625 L 16.546875 45.195312 L 16.523438 45.21875 L 16.523438 46.792969 C 16.589844 47.609375 16.648438 48.664062 17.394531 49.207031 C 18.085938 49.683594 19.003906 49.152344 19.199219 48.414062 C 19.402344 47.871094 19.449219 47.339844 19.492188 46.792969 L 19.492188 45.21875 C 19.425781 44.390625 19.3125 43.234375 18.359375 42.90625 L 18.28125 42.882812 L 18.257812 42.859375 L 18.15625 42.859375 L 18.132812 42.835938 L 17.871094 42.835938 Z M 17.847656 42.859375 Z M 17.847656 42.859375 "/>
<path style=" stroke:none;fill-rule:nonzero;fill:rgb(0%,0%,0%);fill-opacity:1;" d="M 23.871094 42.167969 C 24.945312 42.246094 25.660156 43.234375 25.855469 44.230469 C 25.957031 44.683594 25.980469 45.117188 26.023438 45.570312 L 26.023438 46.726562 C 25.96875 47.90625 25.683594 49.457031 24.402344 49.933594 C 23.292969 50.375 21.988281 49.683594 21.660156 48.550781 C 21.410156 47.949219 21.386719 47.339844 21.332031 46.726562 L 21.332031 45.570312 C 21.386719 44.390625 21.636719 42.824219 22.90625 42.304688 L 22.960938 42.28125 L 23.007812 42.269531 L 23.066406 42.246094 L 23.234375 42.203125 L 23.335938 42.179688 L 23.460938 42.179688 L 23.484375 42.167969 Z M 23.871094 42.167969 Z M 23.519531 42.859375 C 22.566406 42.972656 22.28125 44.117188 22.214844 44.890625 L 22.214844 45.195312 L 22.191406 45.21875 L 22.191406 46.792969 C 22.261719 47.609375 22.316406 48.664062 23.066406 49.207031 C 23.757812 49.683594 24.675781 49.152344 24.867188 48.414062 C 25.070312 47.871094 25.117188 47.339844 25.164062 46.792969 L 25.164062 45.21875 C 25.09375 44.390625 24.980469 43.234375 24.027344 42.90625 L 23.949219 42.882812 L 23.925781 42.859375 L 23.824219 42.859375 L 23.800781 42.835938 L 23.542969 42.835938 Z M 23.519531 42.859375 Z M 23.519531 42.859375 "/>
<path style=" stroke:none;fill-rule:nonzero;fill:rgb(0%,0%,0%);fill-opacity:1;" d="M 7.214844 3.628906 L 7.214844 10.625 L 7.226562 10.648438 L 8.621094 10.648438 L 8.621094 11.273438 L 4.933594 11.273438 L 4.933594 10.648438 L 6.328125 10.648438 L 6.351562 10.625 L 6.351562 4.753906 C 5.875 4.910156 5.375 5.015625 4.878906 5.003906 L 4.878906 4.367188 C 5.625 4.378906 6.441406 4.175781 7.007812 3.628906 Z M 7.214844 3.628906 Z M 7.214844 3.628906 "/>
<path style=" stroke:none;fill-rule:nonzero;fill:rgb(0%,0%,0%);fill-opacity:1;" d="M 12.40625 3.628906 C 13.722656 3.664062 14.765625 5.015625 14.5625 6.285156 C 14.425781 7.554688 13.234375 8.28125 12.382812 9.074219 L 12.019531 9.445312 L 11.976562 9.46875 L 11.523438 9.914062 L 11.488281 9.933594 L 11.035156 10.386719 L 10.988281 10.410156 L 10.886719 10.511719 L 10.910156 10.523438 L 14.582031 10.523438 L 14.582031 11.273438 L 10.09375 11.273438 L 10.09375 10.59375 L 11.917969 8.765625 C 12.792969 8.007812 13.8125 7.019531 13.652344 5.773438 C 13.5625 5.046875 12.949219 4.378906 12.203125 4.320312 C 11.441406 4.207031 10.773438 4.808594 10.605469 5.535156 L 10.582031 5.570312 L 10.558594 5.648438 L 10.523438 5.773438 L 10.457031 6.023438 L 10.445312 6.078125 C 10.285156 5.886719 10.117188 5.683594 9.992188 5.46875 C 10.21875 4.539062 10.964844 3.664062 11.953125 3.628906 Z M 12.40625 3.628906 Z M 12.40625 3.628906 "/>
<path style=" stroke:none;fill-rule:nonzero;fill:rgb(0%,0%,0%);fill-opacity:1;" d="M 18.199219 3.628906 C 19.277344 3.710938 19.992188 4.695312 20.183594 5.695312 C 20.285156 6.148438 20.308594 6.578125 20.355469 7.03125 L 20.355469 8.1875 C 20.296875 9.367188 20.015625 10.921875 18.734375 11.398438 C 17.621094 11.839844 16.320312 11.148438 15.988281 10.015625 C 15.738281 9.414062 15.71875 8.800781 15.660156 8.1875 L 15.660156 7.03125 C 15.71875 5.851562 15.96875 4.289062 17.238281 3.765625 L 17.292969 3.742188 L 17.339844 3.734375 L 17.394531 3.710938 L 17.566406 3.664062 L 17.667969 3.640625 L 17.792969 3.640625 L 17.816406 3.628906 Z M 18.199219 3.628906 Z M 17.847656 4.320312 C 16.898438 4.4375 16.613281 5.582031 16.546875 6.351562 L 16.546875 6.65625 L 16.523438 6.679688 L 16.523438 8.257812 C 16.589844 9.074219 16.648438 10.128906 17.394531 10.671875 C 18.085938 11.148438 19.003906 10.613281 19.199219 9.878906 C 19.402344 9.332031 19.449219 8.800781 19.492188 8.257812 L 19.492188 6.679688 C 19.425781 5.851562 19.3125 4.695312 18.359375 4.367188 L 18.28125 4.34375 L 18.257812 4.320312 L 18.15625 4.320312 L 18.132812 4.300781 L 17.871094 4.300781 Z M 17.847656 4.320312 Z M 17.847656 4.320312 "/>
<path style=" stroke:none;fill-rule:nonzero;fill:rgb(0%,0%,0%);fill-opacity:1;" d="M 23.871094 3.628906 C 24.945312 3.710938 25.660156 4.695312 25.855469 5.695312 C 25.957031 6.148438 25.980469 6.578125 26.023438 7.03125 L 26.023438 8.1875 C 25.96875 9.367188 25.683594 10.921875 24.402344 11.398438 C 23.292969 11.839844 21.988281 11.148438 21.660156 10.015625 C 21.410156 9.414062 21.386719 8.800781 21.332031 8.1875 L 21.332031 7.03125 C 21.386719 5.851562 21.636719 4.289062 22.90625 3.765625 L 22.960938 3.742188 L 23.007812 3.734375 L 23.066406 3.710938 L 23.234375 3.664062 L 23.335938 3.640625 L 23.460938 3.640625 L 23.484375 3.628906 Z M 23.871094 3.628906 Z M 23.519531 4.320312 C 22.566406 4.4375 22.28125 5.582031 22.214844 6.351562 L 22.214844 6.65625 L 22.191406 6.679688 L 22.191406 8.257812 C 22.261719 9.074219 22.316406 10.128906 23.066406 10.671875 C 23.757812 11.148438 24.675781 10.613281 24.867188 9.878906 C 25.070312 9.332031 25.117188 8.800781 25.164062 8.257812 L 25.164062 6.679688 C 25.09375 5.851562 24.980469 4.695312 24.027344 4.367188 L 23.949219 4.34375 L 23.925781 4.320312 L 23.824219 4.320312 L 23.800781 4.300781 L 23.542969 4.300781 Z M 23.519531 4.320312 Z M 23.519531 4.320312 "/>
<path style="fill:none;stroke-width:0.02;stroke-linecap:butt;stroke-linejoin:miter;stroke:rgb(0%,0%,0%);stroke-opacity:1;stroke-miterlimit:10;" d="M 11.699958 1.971454 L 11.550027 1.971454 " transform="matrix(28.346457,0,0,-28.346457,1,256.11811)"/>
<path style="fill:none;stroke-width:0.02;stroke-linecap:butt;stroke-linejoin:miter;stroke:rgb(0%,0%,0%);stroke-opacity:1;stroke-miterlimit:10;" d="M 11.699958 3.331026 L 11.550027 3.331026 " transform="matrix(28.346457,0,0,-28.346457,1,256.11811)"/>
<path style="fill:none;stroke-width:0.02;stroke-linecap:butt;stroke-linejoin:miter;stroke:rgb(0%,0%,0%);stroke-opacity:1;stroke-miterlimit:10;" d="M 11.699958 4.690461 L 11.550027 4.690461 " transform="matrix(28.346457,0,0,-28.346457,1,256.11811)"/>
<path style="fill:none;stroke-width:0.02;stroke-linecap:butt;stroke-linejoin:miter;stroke:rgb(0%,0%,0%);stroke-opacity:1;stroke-miterlimit:10;" d="M 11.699958 6.050034 L 11.550027 6.050034 " transform="matrix(28.346457,0,0,-28.346457,1,256.11811)"/>
<path style="fill:none;stroke-width:0.02;stroke-linecap:butt;stroke-linejoin:miter;stroke:rgb(0%,0%,0%);stroke-opacity:1;stroke-miterlimit:10;" d="M 11.699958 7.409468 L 11.550027 7.409468 " transform="matrix(28.346457,0,0,-28.346457,1,256.11811)"/>
<path style="fill:none;stroke-width:0.02;stroke-linecap:round;stroke-linejoin:miter;stroke:rgb(0%,0%,0%);stroke-opacity:1;stroke-miterlimit:10;" d="M 11.699958 0.612019 L 11.699958 8.769041 " transform="matrix(28.346457,0,0,-28.346457,1,256.11811)"/>
<path style="fill:none;stroke-width:0.02;stroke-linecap:butt;stroke-linejoin:miter;stroke:rgb(0%,0%,0%);stroke-opacity:1;stroke-miterlimit:10;" d="M 2.32227 0.612019 L 2.32227 0.76195 " transform="matrix(28.346457,0,0,-28.346457,1,256.11811)"/>
<path style="fill:none;stroke-width:0.02;stroke-linecap:butt;stroke-linejoin:miter;stroke:rgb(0%,0%,0%);stroke-opacity:1;stroke-miterlimit:10;" d="M 3.494429 0.612019 L 3.494429 0.76195 " transform="matrix(28.346457,0,0,-28.346457,1,256.11811)"/>
<path style="fill:none;stroke-width:0.02;stroke-linecap:butt;stroke-linejoin:miter;stroke:rgb(0%,0%,0%);stroke-opacity:1;stroke-miterlimit:10;" d="M 4.666726 0.612019 L 4.666726 0.76195 " transform="matrix(28.346457,0,0,-28.346457,1,256.11811)"/>
<path style="fill:none;stroke-width:0.02;stroke-linecap:butt;stroke-linejoin:miter;stroke:rgb(0%,0%,0%);stroke-opacity:1;stroke-miterlimit:10;" d="M 5.838886 0.612019 L 5.838886 0.76195 " transform="matrix(28.346457,0,0,-28.346457,1,256.11811)"/>
<path style="fill:none;stroke-width:0.02;stroke-linecap:butt;stroke-linejoin:miter;stroke:rgb(0%,0%,0%);stroke-opacity:1;stroke-miterlimit:10;" d="M 7.011045 0.612019 L 7.011045 0.76195 " transform="matrix(28.346457,0,0,-28.346457,1,256.11811)"/>
<path style="fill:none;stroke-width:0.02;stroke-linecap:butt;stroke-linejoin:miter;stroke:rgb(0%,0%,0%);stroke-opacity:1;stroke-miterlimit:10;" d="M 8.183342 0.612019 L 8.183342 0.76195 " transform="matrix(28.346457,0,0,-28.346457,1,256.11811)"/>
<path style="fill:none;stroke-width:0.02;stroke-linecap:butt;stroke-linejoin:miter;stroke:rgb(0%,0%,0%);stroke-opacity:1;stroke-miterlimit:10;" d="M 9.355501 0.612019 L 9.355501 0.76195 " transform="matrix(28.346457,0,0,-28.346457,1,256.11811)"/>
<path style="fill:none;stroke-width:0.02;stroke-linecap:butt;stroke-linejoin:miter;stroke:rgb(0%,0%,0%);stroke-opacity:1;stroke-miterlimit:10;" d="M 10.527798 0.612019 L 10.527798 0.76195 " transform="matrix(28.346457,0,0,-28.346457,1,256.11811)"/>
<path style="fill:none;stroke-width:0.02;stroke-linecap:round;stroke-linejoin:miter;stroke:rgb(0%,0%,0%);stroke-opacity:1;stroke-miterlimit:10;" d="M 1.149973 0.612019 L 11.699958 0.612019 " transform="matrix(28.346457,0,0,-28.346457,1,256.11811)"/>
<path style=" stroke:none;fill-rule:nonzero;fill:rgb(0%,0%,0%);fill-opacity:1;" d="M 31.984375 250.484375 L 31.984375 251.117188 L 29.011719 251.117188 L 29.011719 250.484375 Z M 31.984375 250.484375 Z M 31.984375 250.484375 "/>
<path style=" stroke:none;fill-rule:nonzero;fill:rgb(0%,0%,0%);fill-opacity:1;" d="M 36.417969 245.652344 C 36.710938 245.699219 37.050781 245.730469 37.335938 245.867188 L 37.335938 246.527344 C 36.550781 246.183594 35.53125 246.140625 34.917969 246.832031 C 34.375 247.410156 34.125 248.273438 34.101562 249.03125 C 34.761719 248.160156 36.246094 247.671875 37.050781 248.578125 C 37.855469 249.507812 37.992188 250.84375 37.628906 251.980469 C 37.234375 252.886719 36.3125 253.714844 35.292969 253.523438 C 33.910156 253.40625 33.285156 251.867188 33.21875 250.6875 C 32.957031 249.019531 33.355469 246.921875 34.941406 245.96875 L 34.964844 245.957031 L 35.203125 245.835938 L 35.269531 245.8125 L 35.304688 245.789062 L 35.496094 245.730469 L 35.65625 245.6875 L 35.757812 245.664062 L 35.882812 245.664062 L 35.90625 245.652344 Z M 36.417969 245.652344 Z M 35.304688 248.804688 C 34.320312 248.976562 34 250.164062 34.125 250.96875 C 34.183594 251.730469 34.476562 252.738281 35.351562 252.898438 C 36.28125 253.023438 36.882812 252.023438 36.902344 251.21875 C 36.949219 250.402344 36.902344 249.472656 36.1875 248.941406 L 36.03125 248.863281 L 35.90625 248.828125 L 35.804688 248.804688 L 35.78125 248.78125 L 35.328125 248.78125 Z M 35.304688 248.804688 Z M 35.304688 248.804688 "/>
<path style=" stroke:none;fill-rule:nonzero;fill:rgb(0%,0%,0%);fill-opacity:1;" d="M 65.210938 250.484375 L 65.210938 251.117188 L 62.242188 251.117188 L 62.242188 250.484375 Z M 65.210938 250.484375 Z M 65.210938 250.484375 "/>
<path style=" stroke:none;fill-rule:nonzero;fill:rgb(0%,0%,0%);fill-opacity:1;" d="M 70.074219 245.890625 L 70.074219 250.664062 L 70.097656 250.6875 L 71.21875 250.6875 L 71.21875 251.367188 L 70.097656 251.367188 L 70.074219 251.378906 L 70.074219 253.292969 L 69.214844 253.292969 L 69.214844 251.378906 L 69.191406 251.367188 L 66.199219 251.367188 L 66.199219 250.664062 C 67.148438 249.078125 68.101562 247.476562 69.054688 245.890625 Z M 70.074219 245.890625 Z M 69.234375 246.320312 C 69.007812 247.5 68.285156 248.511719 67.738281 249.542969 C 67.523438 249.914062 67.242188 250.324219 67.082031 250.6875 L 69.257812 250.6875 L 69.269531 250.664062 L 69.269531 246.320312 L 69.257812 246.300781 Z M 69.234375 246.320312 Z M 69.234375 246.320312 "/>
<path style=" stroke:none;fill-rule:nonzero;fill:rgb(0%,0%,0%);fill-opacity:1;" d="M 98.4375 250.484375 L 98.4375 251.117188 L 95.46875 251.117188 L 95.46875 250.484375 Z M 98.4375 250.484375 Z M 98.4375 250.484375 "/>
<path style=" stroke:none;fill-rule:nonzero;fill:rgb(0%,0%,0%);fill-opacity:1;" d="M 102.011719 245.652344 C 103.328125 245.6875 104.371094 247.035156 104.164062 248.304688 C 104.027344 249.574219 102.839844 250.300781 101.988281 251.09375 L 101.625 251.46875 L 101.582031 251.492188 L 101.125 251.933594 L 101.09375 251.957031 L 100.640625 252.410156 L 100.59375 252.433594 L 100.492188 252.535156 L 100.515625 252.546875 L 104.1875 252.546875 L 104.1875 253.292969 L 99.699219 253.292969 L 99.699219 252.613281 L 101.523438 250.789062 C 102.398438 250.027344 103.417969 249.042969 103.257812 247.796875 C 103.167969 247.070312 102.554688 246.402344 101.808594 246.34375 C 101.046875 246.230469 100.378906 246.832031 100.207031 247.558594 L 100.183594 247.589844 L 100.164062 247.671875 L 100.128906 247.796875 L 100.0625 248.046875 L 100.050781 248.101562 C 99.890625 247.910156 99.71875 247.703125 99.597656 247.488281 C 99.824219 246.558594 100.570312 245.6875 101.558594 245.652344 Z M 102.011719 245.652344 Z M 102.011719 245.652344 "/>
<path style=" stroke:none;fill-rule:nonzero;fill:rgb(0%,0%,0%);fill-opacity:1;" d="M 133.476562 245.652344 C 134.554688 245.730469 135.269531 246.71875 135.460938 247.714844 C 135.5625 248.167969 135.585938 248.601562 135.628906 249.054688 L 135.628906 250.210938 C 135.574219 251.390625 135.289062 252.941406 134.007812 253.417969 C 132.898438 253.863281 131.59375 253.171875 131.265625 252.035156 C 131.015625 251.433594 130.992188 250.824219 130.9375 250.210938 L 130.9375 249.054688 C 130.992188 247.875 131.242188 246.308594 132.511719 245.789062 L 132.570312 245.765625 L 132.613281 245.753906 L 132.671875 245.730469 L 132.839844 245.6875 L 132.941406 245.664062 L 133.066406 245.664062 L 133.089844 245.652344 Z M 133.476562 245.652344 Z M 133.125 246.34375 C 132.171875 246.457031 131.890625 247.601562 131.820312 248.375 L 131.820312 248.679688 L 131.796875 248.703125 L 131.796875 250.277344 C 131.867188 251.09375 131.921875 252.148438 132.671875 252.695312 C 133.363281 253.171875 134.28125 252.636719 134.472656 251.898438 C 134.679688 251.355469 134.722656 250.824219 134.769531 250.277344 L 134.769531 248.703125 C 134.699219 247.875 134.585938 246.71875 133.636719 246.390625 L 133.554688 246.367188 L 133.53125 246.34375 L 133.429688 246.34375 L 133.40625 246.320312 L 133.148438 246.320312 Z M 133.125 246.34375 Z M 133.125 246.34375 "/>
<path style=" stroke:none;fill-rule:nonzero;fill:rgb(0%,0%,0%);fill-opacity:1;" d="M 166.578125 245.652344 C 167.894531 245.6875 168.9375 247.035156 168.734375 248.304688 C 168.597656 249.574219 167.40625 250.300781 166.558594 251.09375 L 166.195312 251.46875 L 166.148438 251.492188 L 165.695312 251.933594 L 165.660156 251.957031 L 165.207031 252.410156 L 165.164062 252.433594 L 165.058594 252.535156 L 165.082031 252.546875 L 168.757812 252.546875 L 168.757812 253.292969 L 164.265625 253.292969 L 164.265625 252.613281 L 166.09375 250.789062 C 166.964844 250.027344 167.984375 249.042969 167.828125 247.796875 C 167.738281 247.070312 167.125 246.402344 166.375 246.34375 C 165.617188 246.230469 164.945312 246.832031 164.777344 247.558594 L 164.753906 247.589844 L 164.730469 247.671875 L 164.699219 247.796875 L 164.628906 248.046875 L 164.617188 248.101562 C 164.460938 247.910156 164.289062 247.703125 164.164062 247.488281 C 164.390625 246.558594 165.140625 245.6875 166.125 245.652344 Z M 166.578125 245.652344 Z M 166.578125 245.652344 "/>
<path style=" stroke:none;fill-rule:nonzero;fill:rgb(0%,0%,0%);fill-opacity:1;" d="M 201.101562 245.890625 L 201.101562 250.664062 L 201.125 250.6875 L 202.246094 250.6875 L 202.246094 251.367188 L 201.125 251.367188 L 201.101562 251.378906 L 201.101562 253.292969 L 200.238281 253.292969 L 200.238281 251.378906 L 200.214844 251.367188 L 197.222656 251.367188 L 197.222656 250.664062 C 198.175781 249.078125 199.128906 247.476562 200.082031 245.890625 Z M 201.101562 245.890625 Z M 200.261719 246.320312 C 200.035156 247.5 199.308594 248.511719 198.765625 249.542969 C 198.550781 249.914062 198.265625 250.324219 198.105469 250.6875 L 200.285156 250.6875 L 200.296875 250.664062 L 200.296875 246.320312 L 200.285156 246.300781 Z M 200.261719 246.320312 Z M 200.261719 246.320312 "/>
<path style=" stroke:none;fill-rule:nonzero;fill:rgb(0%,0%,0%);fill-opacity:1;" d="M 233.898438 245.652344 C 234.191406 245.699219 234.535156 245.730469 234.816406 245.867188 L 234.816406 246.527344 C 234.035156 246.183594 233.015625 246.140625 232.402344 246.832031 C 231.855469 247.410156 231.609375 248.273438 231.585938 249.03125 C 232.242188 248.160156 233.726562 247.671875 234.535156 248.578125 C 235.339844 249.507812 235.472656 250.84375 235.113281 251.980469 C 234.714844 252.886719 233.796875 253.714844 232.777344 253.523438 C 231.390625 253.40625 230.769531 251.867188 230.699219 250.6875 C 230.441406 249.019531 230.835938 246.921875 232.425781 245.96875 L 232.445312 245.957031 L 232.683594 245.835938 L 232.753906 245.8125 L 232.785156 245.789062 L 232.980469 245.730469 L 233.136719 245.6875 L 233.242188 245.664062 L 233.367188 245.664062 L 233.386719 245.652344 Z M 233.898438 245.652344 Z M 232.785156 248.804688 C 231.800781 248.976562 231.484375 250.164062 231.609375 250.96875 C 231.664062 251.730469 231.960938 252.738281 232.832031 252.898438 C 233.761719 253.023438 234.363281 252.023438 234.386719 251.21875 C 234.429688 250.402344 234.386719 249.472656 233.671875 248.941406 L 233.511719 248.863281 L 233.386719 248.828125 L 233.285156 248.804688 L 233.261719 248.78125 L 232.808594 248.78125 Z M 232.785156 248.804688 Z M 232.785156 248.804688 "/>
<path style=" stroke:none;fill-rule:nonzero;fill:rgb(0%,0%,0%);fill-opacity:1;" d="M 266.414062 245.652344 C 267.613281 245.699219 268.746094 246.992188 268.273438 248.191406 C 268.066406 248.746094 267.5 249.089844 267.035156 249.328125 C 268.191406 249.667969 268.894531 251.015625 268.375 252.125 C 267.828125 253.566406 265.765625 254.019531 264.632812 252.976562 C 263.601562 252.160156 263.566406 250.390625 264.710938 249.667969 C 264.882812 249.484375 265.199219 249.429688 265.347656 249.292969 C 264.359375 249.007812 263.691406 247.863281 264.15625 246.898438 C 264.53125 246.039062 265.492188 245.5625 266.414062 245.652344 Z M 266.414062 245.652344 Z M 265.980469 246.300781 C 265.140625 246.320312 264.554688 247.273438 264.835938 248.023438 C 265.164062 249.316406 267.332031 249.269531 267.582031 247.941406 C 267.808594 247.207031 267.21875 246.320312 266.414062 246.300781 L 266.390625 246.289062 L 266.003906 246.289062 Z M 265.980469 246.300781 Z M 266.003906 249.667969 C 265.019531 249.734375 264.53125 250.914062 264.789062 251.753906 C 264.960938 252.941406 266.660156 253.292969 267.332031 252.34375 C 267.976562 251.46875 267.660156 249.90625 266.492188 249.667969 L 266.390625 249.667969 L 266.367188 249.644531 L 266.015625 249.644531 Z M 266.003906 249.667969 Z M 266.003906 249.667969 "/>
<path style=" stroke:none;fill-rule:nonzero;fill:rgb(0%,0%,0%);fill-opacity:1;" d="M 297.136719 245.652344 L 297.136719 252.648438 L 297.144531 252.671875 L 298.539062 252.671875 L 298.539062 253.292969 L 294.855469 253.292969 L 294.855469 252.671875 L 296.25 252.671875 L 296.273438 252.648438 L 296.273438 246.773438 C 295.796875 246.933594 295.296875 247.035156 294.800781 247.023438 L 294.800781 246.390625 C 295.546875 246.402344 296.363281 246.195312 296.929688 245.652344 Z M 297.136719 245.652344 Z M 297.136719 245.652344 "/>
<path style=" stroke:none;fill-rule:nonzero;fill:rgb(0%,0%,0%);fill-opacity:1;" d="M 302.453125 245.652344 C 303.53125 245.730469 304.242188 246.71875 304.4375 247.714844 C 304.539062 248.167969 304.5625 248.601562 304.605469 249.054688 L 304.605469 250.210938 C 304.550781 251.390625 304.265625 252.941406 302.984375 253.417969 C 301.875 253.863281 300.570312 253.171875 300.242188 252.035156 C 299.992188 251.433594 299.96875 250.824219 299.914062 250.210938 L 299.914062 249.054688 C 299.96875 247.875 300.21875 246.308594 301.488281 245.789062 L 301.546875 245.765625 L 301.589844 245.753906 L 301.648438 245.730469 L 301.816406 245.6875 L 301.917969 245.664062 L 302.042969 245.664062 L 302.066406 245.652344 Z M 302.453125 245.652344 Z M 302.101562 246.34375 C 301.148438 246.457031 300.863281 247.601562 300.796875 248.375 L 300.796875 248.679688 L 300.773438 248.703125 L 300.773438 250.277344 C 300.84375 251.09375 300.898438 252.148438 301.648438 252.695312 C 302.339844 253.171875 303.257812 252.636719 303.449219 251.898438 C 303.65625 251.355469 303.699219 250.824219 303.746094 250.277344 L 303.746094 248.703125 C 303.675781 247.875 303.5625 246.71875 302.613281 246.390625 L 302.53125 246.367188 L 302.507812 246.34375 L 302.40625 246.34375 L 302.382812 246.320312 L 302.125 246.320312 Z M 302.101562 246.34375 Z M 302.101562 246.34375 "/>
<path style=" stroke:none;fill-rule:nonzero;fill:rgb(0%,0%,0%);fill-opacity:1;" d="M 330.363281 245.652344 L 330.363281 252.648438 L 330.375 252.671875 L 331.769531 252.671875 L 331.769531 253.292969 L 328.085938 253.292969 L 328.085938 252.671875 L 329.480469 252.671875 L 329.5 252.648438 L 329.5 246.773438 C 329.023438 246.933594 328.527344 247.035156 328.027344 247.023438 L 328.027344 246.390625 C 328.777344 246.402344 329.59375 246.195312 330.160156 245.652344 Z M 330.363281 245.652344 Z M 330.363281 245.652344 "/>
<path style=" stroke:none;fill-rule:nonzero;fill:rgb(0%,0%,0%);fill-opacity:1;" d="M 335.554688 245.652344 C 336.871094 245.6875 337.914062 247.035156 337.710938 248.304688 C 337.574219 249.574219 336.382812 250.300781 335.535156 251.09375 L 335.171875 251.46875 L 335.125 251.492188 L 334.671875 251.933594 L 334.636719 251.957031 L 334.183594 252.410156 L 334.140625 252.433594 L 334.035156 252.535156 L 334.058594 252.546875 L 337.734375 252.546875 L 337.734375 253.292969 L 333.242188 253.292969 L 333.242188 252.613281 L 335.070312 250.789062 C 335.941406 250.027344 336.960938 249.042969 336.804688 247.796875 C 336.710938 247.070312 336.101562 246.402344 335.351562 246.34375 C 334.59375 246.230469 333.921875 246.832031 333.753906 247.558594 L 333.730469 247.589844 L 333.707031 247.671875 L 333.675781 247.796875 L 333.605469 248.046875 L 333.59375 248.101562 C 333.4375 247.910156 333.265625 247.703125 333.140625 247.488281 C 333.367188 246.558594 334.117188 245.6875 335.101562 245.652344 Z M 335.554688 245.652344 Z M 335.554688 245.652344 "/>
<path style="fill:none;stroke-width:0.02;stroke-linecap:butt;stroke-linejoin:miter;stroke:rgb(0%,0%,0%);stroke-opacity:1;stroke-miterlimit:10;" d="M 2.32227 8.769041 L 2.32227 8.618972 " transform="matrix(28.346457,0,0,-28.346457,1,256.11811)"/>
<path style="fill:none;stroke-width:0.02;stroke-linecap:butt;stroke-linejoin:miter;stroke:rgb(0%,0%,0%);stroke-opacity:1;stroke-miterlimit:10;" d="M 3.494429 8.769041 L 3.494429 8.618972 " transform="matrix(28.346457,0,0,-28.346457,1,256.11811)"/>
<path style="fill:none;stroke-width:0.02;stroke-linecap:butt;stroke-linejoin:miter;stroke:rgb(0%,0%,0%);stroke-opacity:1;stroke-miterlimit:10;" d="M 4.666726 8.769041 L 4.666726 8.618972 " transform="matrix(28.346457,0,0,-28.346457,1,256.11811)"/>
<path style="fill:none;stroke-width:0.02;stroke-linecap:butt;stroke-linejoin:miter;stroke:rgb(0%,0%,0%);stroke-opacity:1;stroke-miterlimit:10;" d="M 5.838886 8.769041 L 5.838886 8.618972 " transform="matrix(28.346457,0,0,-28.346457,1,256.11811)"/>
<path style="fill:none;stroke-width:0.02;stroke-linecap:butt;stroke-linejoin:miter;stroke:rgb(0%,0%,0%);stroke-opacity:1;stroke-miterlimit:10;" d="M 7.011045 8.769041 L 7.011045 8.618972 " transform="matrix(28.346457,0,0,-28.346457,1,256.11811)"/>
<path style="fill:none;stroke-width:0.02;stroke-linecap:butt;stroke-linejoin:miter;stroke:rgb(0%,0%,0%);stroke-opacity:1;stroke-miterlimit:10;" d="M 8.183342 8.769041 L 8.183342 8.618972 " transform="matrix(28.346457,0,0,-28.346457,1,256.11811)"/>
<path style="fill:none;stroke-width:0.02;stroke-linecap:butt;stroke-linejoin:miter;stroke:rgb(0%,0%,0%);stroke-opacity:1;stroke-miterlimit:10;" d="M 9.355501 8.769041 L 9.355501 8.618972 " transform="matrix(28.346457,0,0,-28.346457,1,256.11811)"/>
<path style="fill:none;stroke-width:0.02;stroke-linecap:butt;stroke-linejoin:miter;stroke:rgb(0%,0%,0%);stroke-opacity:1;stroke-miterlimit:10;" d="M 10.527798 8.769041 L 10.527798 8.618972 " transform="matrix(28.346457,0,0,-28.346457,1,256.11811)"/>
<path style="fill:none;stroke-width:0.02;stroke-linecap:round;stroke-linejoin:miter;stroke:rgb(0%,0%,0%);stroke-opacity:1;stroke-miterlimit:10;" d="M 1.149973 8.769041 L 11.699958 8.769041 " transform="matrix(28.346457,0,0,-28.346457,1,256.11811)"/>
</g>
</svg>
