<?xml version="1.0" encoding="UTF-8"?>
<svg xmlns="http://www.w3.org/2000/svg" xmlns:xlink="http://www.w3.org/1999/xlink" width="342.15748pt" height="257.11811pt" viewBox="0 0 342.15748 257.11811" version="1.1">
<g id="surface1">
<path style="fill-rule:nonzero;fill:rgb(50%,20%,30%);fill-opacity:0.5;stroke-width:0.02;stroke-linecap:butt;stroke-linejoin:miter;stroke:rgb(100%,100%,100%);stroke-opacity:1;stroke-miterlimit:10;" d="M 1.432333 0.612019 L 2.100406 0.612019 L 2.100406 0.612984 L 1.432333 0.612984 Z M 1.432333 0.612019 " transform="matrix(28.346457,0,0,-28.346457,1,256.11811)"/>
<path style="fill-rule:nonzero;fill:rgb(50%,20%,30%);fill-opacity:0.5;stroke-width:0.02;stroke-linecap:butt;stroke-linejoin:miter;stroke:rgb(100%,100%,100%);stroke-opacity:1;stroke-miterlimit:10;" d="M 2.100406 0.612019 L 2.768479 0.612019 L 2.768479 0.616153 L 2.100406 0.616153 Z M 2.100406 0.612019 " transform="matrix(28.346457,0,0,-28.346457,1,256.11811)"/>
<path style="fill-rule:nonzero;fill:rgb(50%,20%,30%);fill-opacity:0.5;stroke-width:0.02;stroke-linecap:butt;stroke-linejoin:miter;stroke:rgb(100%,100%,100%);stroke-opacity:1;stroke-miterlimit:10;" d="M 2.768479 0.612019 L 3.436414 0.612019 L 3.436414 0.649778 L 2.768479 0.649778 Z M 2.768479 0.612019 " transform="matrix(28.346457,0,0,-28.346457,1,256.11811)"/>
<path style="fill-rule:nonzero;fill:rgb(50%,20%,30%);fill-opacity:0.5;stroke-width:0.02;stroke-linecap:butt;stroke-linejoin:miter;stroke:rgb(100%,100%,100%);stroke-opacity:1;stroke-miterlimit:10;" d="M 3.436414 0.612019 L 4.104487 0.612019 L 4.104487 0.754922 L 3.436414 0.754922 Z M 3.436414 0.612019 " transform="matrix(28.346457,0,0,-28.346457,1,256.11811)"/>
<path style="fill-rule:nonzero;fill:rgb(50%,20%,30%);fill-opacity:0.5;stroke-width:0.02;stroke-linecap:butt;stroke-linejoin:miter;stroke:rgb(100%,100%,100%);stroke-opacity:1;stroke-miterlimit:10;" d="M 4.104487 0.612019 L 4.77256 0.612019 L 4.77256 0.982849 L 4.104487 0.982849 Z M 4.104487 0.612019 " transform="matrix(28.346457,0,0,-28.346457,1,256.11811)"/>
<path style="fill-rule:nonzero;fill:rgb(50%,20%,30%);fill-opacity:0.5;stroke-width:0.02;stroke-linecap:butt;stroke-linejoin:miter;stroke:rgb(100%,100%,100%);stroke-opacity:1;stroke-miterlimit:10;" d="M 4.772422 0.612019 L 5.440495 0.612019 L 5.440495 1.341002 L 4.772422 1.341002 Z M 4.772422 0.612019 " transform="matrix(28.346457,0,0,-28.346457,1,256.11811)"/>
<path style="fill-rule:nonzero;fill:rgb(50%,20%,30%);fill-opacity:0.5;stroke-width:0.02;stroke-linecap:butt;stroke-linejoin:miter;stroke:rgb(100%,100%,100%);stroke-opacity:1;stroke-miterlimit:10;" d="M 5.440495 0.612019 L 6.108568 0.612019 L 6.108568 1.705493 L 5.440495 1.705493 Z M 5.440495 0.612019 " transform="matrix(28.346457,0,0,-28.346457,1,256.11811)"/>
<path style="fill-rule:nonzero;fill:rgb(50%,20%,30%);fill-opacity:0.5;stroke-width:0.02;stroke-linecap:butt;stroke-linejoin:miter;stroke:rgb(100%,100%,100%);stroke-opacity:1;stroke-miterlimit:10;" d="M 6.108568 0.612019 L 6.776641 0.612019 L 6.776641 1.709627 L 6.108568 1.709627 Z M 6.108568 0.612019 " transform="matrix(28.346457,0,0,-28.346457,1,256.11811)"/>
<path style="fill-rule:nonzero;fill:rgb(50%,20%,30%);fill-opacity:0.5;stroke-width:0.02;stroke-linecap:butt;stroke-linejoin:miter;stroke:rgb(100%,100%,100%);stroke-opacity:1;stroke-miterlimit:10;" d="M 6.776503 0.612019 L 7.444576 0.612019 L 7.444576 1.503748 L 6.776503 1.503748 Z M 6.776503 0.612019 " transform="matrix(28.346457,0,0,-28.346457,1,256.11811)"/>
<path style="fill-rule:nonzero;fill:rgb(50%,20%,30%);fill-opacity:0.5;stroke-width:0.02;stroke-linecap:butt;stroke-linejoin:miter;stroke:rgb(100%,100%,100%);stroke-opacity:1;stroke-miterlimit:10;" d="M 7.444576 0.612019 L 8.112649 0.612019 L 8.112649 1.156069 L 7.444576 1.156069 Z M 7.444576 0.612019 " transform="matrix(28.346457,0,0,-28.346457,1,256.11811)"/>
<path style="fill-rule:nonzero;fill:rgb(50%,20%,30%);fill-opacity:0.5;stroke-width:0.02;stroke-linecap:butt;stroke-linejoin:miter;stroke:rgb(100%,100%,100%);stroke-opacity:1;stroke-miterlimit:10;" d="M 8.112649 0.612019 L 8.780584 0.612019 L 8.780584 0.861995 L 8.112649 0.861995 Z M 8.112649 0.612019 " transform="matrix(28.346457,0,0,-28.346457,1,256.11811)"/>
<path style="fill-rule:nonzero;fill:rgb(50%,20%,30%);fill-opacity:0.5;stroke-width:0.02;stroke-linecap:butt;stroke-linejoin:miter;stroke:rgb(100%,100%,100%);stroke-opacity:1;stroke-miterlimit:10;" d="M 8.780584 0.612019 L 9.448657 0.612019 L 9.448657 0.677063 L 8.780584 0.677063 Z M 8.780584 0.612019 " transform="matrix(28.346457,0,0,-28.346457,1,256.11811)"/>
<path style="fill-rule:nonzero;fill:rgb(50%,20%,30%);fill-opacity:0.5;stroke-width:0.02;stroke-linecap:butt;stroke-linejoin:miter;stroke:rgb(100%,100%,100%);stroke-opacity:1;stroke-miterlimit:10;" d="M 9.448657 0.612019 L 10.11673 0.612019 L 10.11673 0.628831 L 9.448657 0.628831 Z M 9.448657 0.612019 " transform="matrix(28.346457,0,0,-28.346457,1,256.11811)"/>
<path style="fill-rule:nonzero;fill:rgb(50%,20%,30%);fill-opacity:0.5;stroke-width:0.02;stroke-linecap:butt;stroke-linejoin:miter;stroke:rgb(100%,100%,100%);stroke-opacity:1;stroke-miterlimit:10;" d="M 10.116592 0.612019 L 10.784665 0.612019 L 10.784665 0.618358 L 10.116592 0.618358 Z M 10.116592 0.612019 " transform="matrix(28.346457,0,0,-28.346457,1,256.11811)"/>
<path style="fill-rule:nonzero;fill:rgb(20%,50%,30%);fill-opacity:0.5;stroke-width:0.02;stroke-linecap:butt;stroke-linejoin:miter;stroke:rgb(100%,100%,100%);stroke-opacity:1;stroke-miterlimit:10;" d="M 5.382893 0.612019 L 5.488864 0.612019 L 5.488864 0.645092 L 5.382893 0.645092 Z M 5.382893 0.612019 " transform="matrix(28.346457,0,0,-28.346457,1,256.11811)"/>
<path style="fill-rule:nonzero;fill:rgb(20%,50%,30%);fill-opacity:0.5;stroke-width:0.02;stroke-linecap:butt;stroke-linejoin:miter;stroke:rgb(100%,100%,100%);stroke-opacity:1;stroke-miterlimit:10;" d="M 5.488864 0.612019 L 5.594835 0.612019 L 5.594835 1.042381 L 5.488864 1.042381 Z M 5.488864 0.612019 " transform="matrix(28.346457,0,0,-28.346457,1,256.11811)"/>
<path style="fill-rule:nonzero;fill:rgb(20%,50%,30%);fill-opacity:0.5;stroke-width:0.02;stroke-linecap:butt;stroke-linejoin:miter;stroke:rgb(100%,100%,100%);stroke-opacity:1;stroke-miterlimit:10;" d="M 5.594835 0.612019 L 5.700944 0.612019 L 5.700944 2.200897 L 5.594835 2.200897 Z M 5.594835 0.612019 " transform="matrix(28.346457,0,0,-28.346457,1,256.11811)"/>
<path style="fill-rule:nonzero;fill:rgb(20%,50%,30%);fill-opacity:0.5;stroke-width:0.02;stroke-linecap:butt;stroke-linejoin:miter;stroke:rgb(100%,100%,100%);stroke-opacity:1;stroke-miterlimit:10;" d="M 5.700944 0.612019 L 5.806915 0.612019 L 5.806915 3.988488 L 5.700944 3.988488 Z M 5.700944 0.612019 " transform="matrix(28.346457,0,0,-28.346457,1,256.11811)"/>
<path style="fill-rule:nonzero;fill:rgb(20%,50%,30%);fill-opacity:0.5;stroke-width:0.02;stroke-linecap:butt;stroke-linejoin:miter;stroke:rgb(100%,100%,100%);stroke-opacity:1;stroke-miterlimit:10;" d="M 5.806915 0.612019 L 5.912886 0.612019 L 5.912886 7.232666 L 5.806915 7.232666 Z M 5.806915 0.612019 " transform="matrix(28.346457,0,0,-28.346457,1,256.11811)"/>
<path style="fill-rule:nonzero;fill:rgb(20%,50%,30%);fill-opacity:0.5;stroke-width:0.02;stroke-linecap:butt;stroke-linejoin:miter;stroke:rgb(100%,100%,100%);stroke-opacity:1;stroke-miterlimit:10;" d="M 5.912886 0.612019 L 6.018857 0.612019 L 6.018857 8.325037 L 5.912886 8.325037 Z M 5.912886 0.612019 " transform="matrix(28.346457,0,0,-28.346457,1,256.11811)"/>
<path style="fill-rule:nonzero;fill:rgb(20%,50%,30%);fill-opacity:0.5;stroke-width:0.02;stroke-linecap:butt;stroke-linejoin:miter;stroke:rgb(100%,100%,100%);stroke-opacity:1;stroke-miterlimit:10;" d="M 6.018857 0.612019 L 6.124829 0.612019 L 6.124829 7.729173 L 6.018857 7.729173 Z M 6.018857 0.612019 " transform="matrix(28.346457,0,0,-28.346457,1,256.11811)"/>
<path style="fill-rule:nonzero;fill:rgb(20%,50%,30%);fill-opacity:0.5;stroke-width:0.02;stroke-linecap:butt;stroke-linejoin:miter;stroke:rgb(100%,100%,100%);stroke-opacity:1;stroke-miterlimit:10;" d="M 6.124829 0.612019 L 6.2308 0.612019 L 6.2308 4.021561 L 6.124829 4.021561 Z M 6.124829 0.612019 " transform="matrix(28.346457,0,0,-28.346457,1,256.11811)"/>
<path style="fill-rule:nonzero;fill:rgb(20%,50%,30%);fill-opacity:0.5;stroke-width:0.02;stroke-linecap:butt;stroke-linejoin:miter;stroke:rgb(100%,100%,100%);stroke-opacity:1;stroke-miterlimit:10;" d="M 6.2308 0.612019 L 6.336771 0.612019 L 6.336771 2.432683 L 6.2308 2.432683 Z M 6.2308 0.612019 " transform="matrix(28.346457,0,0,-28.346457,1,256.11811)"/>
<path style="fill-rule:nonzero;fill:rgb(20%,50%,30%);fill-opacity:0.5;stroke-width:0.02;stroke-linecap:butt;stroke-linejoin:miter;stroke:rgb(100%,100%,100%);stroke-opacity:1;stroke-miterlimit:10;" d="M 6.336771 0.612019 L 6.442742 0.612019 L 6.442742 1.307102 L 6.336771 1.307102 Z M 6.336771 0.612019 " transform="matrix(28.346457,0,0,-28.346457,1,256.11811)"/>
<path style="fill-rule:nonzero;fill:rgb(20%,50%,30%);fill-opacity:0.5;stroke-width:0.02;stroke-linecap:butt;stroke-linejoin:miter;stroke:rgb(100%,100%,100%);stroke-opacity:1;stroke-miterlimit:10;" d="M 6.442742 0.612019 L 6.548851 0.612019 L 6.548851 0.876878 L 6.442742 0.876878 Z M 6.442742 0.612019 " transform="matrix(28.346457,0,0,-28.346457,1,256.11811)"/>
<path style="fill:none;stroke-width:0.02;stroke-linecap:butt;stroke-linejoin:miter;stroke:rgb(0%,0%,0%);stroke-opacity:1;stroke-miterlimit:10;" d="M 0.86086 1.777288 L 1.010791 1.777288 " transform="matrix(28.346457,0,0,-28.346457,1,256.11811)"/>
<path style="fill:none;stroke-width:0.02;stroke-linecap:butt;stroke-linejoin:miter;stroke:rgb(0%,0%,0%);stroke-opacity:1;stroke-miterlimit:10;" d="M 0.86086 2.942558 L 1.010791 2.942558 " transform="matrix(28.346457,0,0,-28.346457,1,256.11811)"/>
<path style="fill:none;stroke-width:0.02;stroke-linecap:butt;stroke-linejoin:miter;stroke:rgb(0%,0%,0%);stroke-opacity:1;stroke-miterlimit:10;" d="M 0.86086 4.107827 L 1.010791 4.107827 " transform="matrix(28.346457,0,0,-28.346457,1,256.11811)"/>
<path style="fill:none;stroke-width:0.02;stroke-linecap:butt;stroke-linejoin:miter;stroke:rgb(0%,0%,0%);stroke-opacity:1;stroke-miterlimit:10;" d="M 0.86086 5.273096 L 1.010791 5.273096 " transform="matrix(28.346457,0,0,-28.346457,1,256.11811)"/>
<path style="fill:none;stroke-width:0.02;stroke-linecap:butt;stroke-linejoin:miter;stroke:rgb(0%,0%,0%);stroke-opacity:1;stroke-miterlimit:10;" d="M 0.86086 6.438365 L 1.010791 6.438365 " transform="matrix(28.346457,0,0,-28.346457,1,256.11811)"/>
<path style="fill:none;stroke-width:0.02;stroke-linecap:butt;stroke-linejoin:miter;stroke:rgb(0%,0%,0%);stroke-opacity:1;stroke-miterlimit:10;" d="M 0.86086 7.603772 L 1.010791 7.603772 " transform="matrix(28.346457,0,0,-28.346457,1,256.11811)"/>
<path style="fill:none;stroke-width:0.02;stroke-linecap:round;stroke-linejoin:miter;stroke:rgb(0%,0%,0%);stroke-opacity:1;stroke-miterlimit:10;" d="M 0.86086 0.612019 L 0.86086 8.769041 " transform="matrix(28.346457,0,0,-28.346457,1,256.11811)"/>
<path style=" stroke:none;fill-rule:nonzero;fill:rgb(0%,0%,0%);fill-opacity:1;" d="M 6.863281 234.851562 C 7.9375 234.933594 8.652344 235.917969 8.847656 236.917969 C 8.949219 237.371094 8.972656 237.800781 9.015625 238.253906 L 9.015625 239.410156 C 8.960938 240.589844 8.675781 242.144531 7.394531 242.621094 C 6.285156 243.0625 4.980469 242.371094 4.652344 241.234375 C 4.402344 240.636719 4.378906 240.023438 4.320312 239.410156 L 4.320312 238.253906 C 4.378906 237.074219 4.628906 235.511719 5.898438 234.988281 L 5.953125 234.964844 L 6 234.953125 L 6.058594 234.933594 L 6.226562 234.886719 L 6.328125 234.863281 L 6.453125 234.863281 L 6.476562 234.851562 Z M 6.863281 234.851562 Z M 6.511719 235.542969 C 5.558594 235.65625 5.273438 236.804688 5.207031 237.574219 L 5.207031 237.878906 L 5.183594 237.902344 L 5.183594 239.480469 C 5.253906 240.296875 5.308594 241.347656 6.058594 241.894531 C 6.75 242.371094 7.667969 241.835938 7.859375 241.101562 C 8.0625 240.554688 8.109375 240.023438 8.15625 239.480469 L 8.15625 237.902344 C 8.085938 237.074219 7.972656 235.917969 7.019531 235.589844 L 6.941406 235.566406 L 6.917969 235.542969 L 6.816406 235.542969 L 6.792969 235.523438 L 6.535156 235.523438 Z M 6.511719 235.542969 Z M 6.511719 235.542969 "/>
<path style=" stroke:none;fill-rule:nonzero;fill:rgb(0%,0%,0%);fill-opacity:1;" d="M 11.542969 241.585938 L 11.542969 242.496094 L 10.625 242.496094 L 10.625 241.585938 Z M 11.542969 241.585938 Z M 11.542969 241.585938 "/>
<path style=" stroke:none;fill-rule:nonzero;fill:rgb(0%,0%,0%);fill-opacity:1;" d="M 15.671875 234.851562 C 16.75 234.933594 17.464844 235.917969 17.65625 236.917969 C 17.757812 237.371094 17.78125 237.800781 17.828125 238.253906 L 17.828125 239.410156 C 17.769531 240.589844 17.484375 242.144531 16.203125 242.621094 C 15.09375 243.0625 13.789062 242.371094 13.460938 241.234375 C 13.210938 240.636719 13.1875 240.023438 13.132812 239.410156 L 13.132812 238.253906 C 13.1875 237.074219 13.4375 235.511719 14.707031 234.988281 L 14.765625 234.964844 L 14.808594 234.953125 L 14.867188 234.933594 L 15.039062 234.886719 L 15.140625 234.863281 L 15.265625 234.863281 L 15.285156 234.851562 Z M 15.671875 234.851562 Z M 15.320312 235.542969 C 14.367188 235.65625 14.085938 236.804688 14.015625 237.574219 L 14.015625 237.878906 L 13.992188 237.902344 L 13.992188 239.480469 C 14.0625 240.296875 14.117188 241.347656 14.867188 241.894531 C 15.558594 242.371094 16.476562 241.835938 16.667969 241.101562 C 16.875 240.554688 16.917969 240.023438 16.964844 239.480469 L 16.964844 237.902344 C 16.898438 237.074219 16.785156 235.917969 15.832031 235.589844 L 15.75 235.566406 L 15.730469 235.542969 L 15.625 235.542969 L 15.605469 235.523438 L 15.34375 235.523438 Z M 15.320312 235.542969 Z M 15.320312 235.542969 "/>
<path style=" stroke:none;fill-rule:nonzero;fill:rgb(0%,0%,0%);fill-opacity:1;" d="M 6.863281 201.820312 C 7.9375 201.898438 8.652344 202.886719 8.847656 203.882812 C 8.949219 204.339844 8.972656 204.769531 9.015625 205.222656 L 9.015625 206.378906 C 8.960938 207.558594 8.675781 209.113281 7.394531 209.585938 C 6.285156 210.03125 4.980469 209.339844 4.652344 208.203125 C 4.402344 207.605469 4.378906 206.992188 4.320312 206.378906 L 4.320312 205.222656 C 4.378906 204.042969 4.628906 202.476562 5.898438 201.957031 L 5.953125 201.933594 L 6 201.921875 L 6.058594 201.898438 L 6.226562 201.855469 L 6.328125 201.832031 L 6.453125 201.832031 L 6.476562 201.820312 Z M 6.863281 201.820312 Z M 6.511719 202.511719 C 5.558594 202.625 5.273438 203.769531 5.207031 204.542969 L 5.207031 204.847656 L 5.183594 204.871094 L 5.183594 206.445312 C 5.253906 207.261719 5.308594 208.316406 6.058594 208.863281 C 6.75 209.339844 7.667969 208.804688 7.859375 208.070312 C 8.0625 207.523438 8.109375 206.992188 8.15625 206.445312 L 8.15625 204.871094 C 8.085938 204.042969 7.972656 202.886719 7.019531 202.558594 L 6.941406 202.535156 L 6.917969 202.511719 L 6.816406 202.511719 L 6.792969 202.488281 L 6.535156 202.488281 Z M 6.511719 202.511719 Z M 6.511719 202.511719 "/>
<path style=" stroke:none;fill-rule:nonzero;fill:rgb(0%,0%,0%);fill-opacity:1;" d="M 11.542969 208.554688 L 11.542969 209.464844 L 10.625 209.464844 L 10.625 208.554688 Z M 11.542969 208.554688 Z M 11.542969 208.554688 "/>
<path style=" stroke:none;fill-rule:nonzero;fill:rgb(0%,0%,0%);fill-opacity:1;" d="M 15.546875 201.820312 C 16.863281 201.855469 17.90625 203.203125 17.703125 204.472656 C 17.566406 205.742188 16.375 206.46875 15.523438 207.261719 L 15.160156 207.636719 L 15.117188 207.660156 L 14.664062 208.101562 L 14.628906 208.125 L 14.175781 208.578125 L 14.128906 208.601562 L 14.027344 208.703125 L 14.050781 208.714844 L 17.722656 208.714844 L 17.722656 209.464844 L 13.234375 209.464844 L 13.234375 208.78125 L 15.058594 206.957031 C 15.933594 206.199219 16.953125 205.210938 16.792969 203.964844 C 16.703125 203.238281 16.089844 202.570312 15.34375 202.511719 C 14.582031 202.398438 13.914062 203 13.746094 203.726562 L 13.722656 203.761719 L 13.699219 203.839844 L 13.664062 203.964844 L 13.597656 204.214844 L 13.585938 204.269531 C 13.425781 204.078125 13.257812 203.875 13.132812 203.65625 C 13.359375 202.726562 14.105469 201.855469 15.09375 201.820312 Z M 15.546875 201.820312 Z M 15.546875 201.820312 "/>
<path style=" stroke:none;fill-rule:nonzero;fill:rgb(0%,0%,0%);fill-opacity:1;" d="M 6.863281 168.789062 C 7.9375 168.867188 8.652344 169.855469 8.847656 170.851562 C 8.949219 171.304688 8.972656 171.738281 9.015625 172.191406 L 9.015625 173.347656 C 8.960938 174.527344 8.675781 176.078125 7.394531 176.554688 C 6.285156 177 4.980469 176.304688 4.652344 175.171875 C 4.402344 174.570312 4.378906 173.960938 4.320312 173.347656 L 4.320312 172.191406 C 4.378906 171.011719 4.628906 169.445312 5.898438 168.925781 L 5.953125 168.902344 L 6 168.890625 L 6.058594 168.867188 L 6.226562 168.824219 L 6.328125 168.800781 L 6.453125 168.800781 L 6.476562 168.789062 Z M 6.863281 168.789062 Z M 6.511719 169.480469 C 5.558594 169.59375 5.273438 170.738281 5.207031 171.511719 L 5.207031 171.816406 L 5.183594 171.839844 L 5.183594 173.414062 C 5.253906 174.230469 5.308594 175.285156 6.058594 175.832031 C 6.75 176.304688 7.667969 175.773438 7.859375 175.035156 C 8.0625 174.492188 8.109375 173.960938 8.15625 173.414062 L 8.15625 171.839844 C 8.085938 171.011719 7.972656 169.855469 7.019531 169.527344 L 6.941406 169.503906 L 6.917969 169.480469 L 6.816406 169.480469 L 6.792969 169.457031 L 6.535156 169.457031 Z M 6.511719 169.480469 Z M 6.511719 169.480469 "/>
<path style=" stroke:none;fill-rule:nonzero;fill:rgb(0%,0%,0%);fill-opacity:1;" d="M 11.542969 175.523438 L 11.542969 176.429688 L 10.625 176.429688 L 10.625 175.523438 Z M 11.542969 175.523438 Z M 11.542969 175.523438 "/>
<path style=" stroke:none;fill-rule:nonzero;fill:rgb(0%,0%,0%);fill-opacity:1;" d="M 16.839844 169.027344 L 16.839844 173.800781 L 16.863281 173.824219 L 17.984375 173.824219 L 17.984375 174.503906 L 16.863281 174.503906 L 16.839844 174.515625 L 16.839844 176.429688 L 15.976562 176.429688 L 15.976562 174.515625 L 15.957031 174.503906 L 12.960938 174.503906 L 12.960938 173.800781 C 13.914062 172.214844 14.867188 170.613281 15.820312 169.027344 Z M 16.839844 169.027344 Z M 16 169.457031 C 15.773438 170.636719 15.046875 171.644531 14.503906 172.679688 C 14.289062 173.050781 14.003906 173.460938 13.847656 173.824219 L 16.023438 173.824219 L 16.035156 173.800781 L 16.035156 169.457031 L 16.023438 169.433594 Z M 16 169.457031 Z M 16 169.457031 "/>
<path style=" stroke:none;fill-rule:nonzero;fill:rgb(0%,0%,0%);fill-opacity:1;" d="M 6.863281 135.757812 C 7.9375 135.835938 8.652344 136.824219 8.847656 137.820312 C 8.949219 138.273438 8.972656 138.707031 9.015625 139.160156 L 9.015625 140.316406 C 8.960938 141.496094 8.675781 143.046875 7.394531 143.523438 C 6.285156 143.964844 4.980469 143.273438 4.652344 142.140625 C 4.402344 141.539062 4.378906 140.929688 4.320312 140.316406 L 4.320312 139.160156 C 4.378906 137.980469 4.628906 136.414062 5.898438 135.894531 L 5.953125 135.871094 L 6 135.859375 L 6.058594 135.835938 L 6.226562 135.792969 L 6.328125 135.769531 L 6.453125 135.769531 L 6.476562 135.757812 Z M 6.863281 135.757812 Z M 6.511719 136.449219 C 5.558594 136.5625 5.273438 137.707031 5.207031 138.480469 L 5.207031 138.785156 L 5.183594 138.808594 L 5.183594 140.382812 C 5.253906 141.199219 5.308594 142.253906 6.058594 142.796875 C 6.75 143.273438 7.667969 142.742188 7.859375 142.003906 C 8.0625 141.460938 8.109375 140.929688 8.15625 140.382812 L 8.15625 138.808594 C 8.085938 137.980469 7.972656 136.824219 7.019531 136.496094 L 6.941406 136.472656 L 6.917969 136.449219 L 6.816406 136.449219 L 6.792969 136.425781 L 6.535156 136.425781 Z M 6.511719 136.449219 Z M 6.511719 136.449219 "/>
<path style=" stroke:none;fill-rule:nonzero;fill:rgb(0%,0%,0%);fill-opacity:1;" d="M 11.542969 142.492188 L 11.542969 143.398438 L 10.625 143.398438 L 10.625 142.492188 Z M 11.542969 142.492188 Z M 11.542969 142.492188 "/>
<path style=" stroke:none;fill-rule:nonzero;fill:rgb(0%,0%,0%);fill-opacity:1;" d="M 16.410156 135.757812 C 16.703125 135.804688 17.042969 135.835938 17.328125 135.972656 L 17.328125 136.628906 C 16.546875 136.289062 15.523438 136.246094 14.914062 136.9375 C 14.367188 137.515625 14.117188 138.375 14.097656 139.136719 C 14.753906 138.261719 16.238281 137.777344 17.042969 138.683594 C 17.847656 139.613281 17.984375 140.949219 17.621094 142.085938 C 17.226562 142.992188 16.308594 143.820312 15.285156 143.625 C 13.902344 143.511719 13.28125 141.972656 13.210938 140.792969 C 12.949219 139.125 13.347656 137.027344 14.933594 136.074219 L 14.957031 136.0625 L 15.195312 135.9375 L 15.265625 135.917969 L 15.296875 135.894531 L 15.492188 135.835938 L 15.648438 135.792969 L 15.75 135.769531 L 15.875 135.769531 L 15.898438 135.757812 Z M 16.410156 135.757812 Z M 15.296875 138.910156 C 14.3125 139.078125 13.992188 140.269531 14.117188 141.074219 C 14.175781 141.835938 14.46875 142.84375 15.34375 143.003906 C 16.273438 143.128906 16.875 142.128906 16.898438 141.324219 C 16.941406 140.507812 16.898438 139.578125 16.183594 139.046875 L 16.023438 138.964844 L 15.898438 138.933594 L 15.796875 138.910156 L 15.773438 138.886719 L 15.320312 138.886719 Z M 15.296875 138.910156 Z M 15.296875 138.910156 "/>
<path style=" stroke:none;fill-rule:nonzero;fill:rgb(0%,0%,0%);fill-opacity:1;" d="M 6.863281 102.726562 C 7.9375 102.804688 8.652344 103.792969 8.847656 104.789062 C 8.949219 105.242188 8.972656 105.671875 9.015625 106.128906 L 9.015625 107.285156 C 8.960938 108.464844 8.675781 110.015625 7.394531 110.492188 C 6.285156 110.933594 4.980469 110.242188 4.652344 109.109375 C 4.402344 108.507812 4.378906 107.894531 4.320312 107.285156 L 4.320312 106.128906 C 4.378906 104.949219 4.628906 103.382812 5.898438 102.863281 L 5.953125 102.839844 L 6 102.828125 L 6.058594 102.804688 L 6.226562 102.757812 L 6.328125 102.738281 L 6.453125 102.738281 L 6.476562 102.726562 Z M 6.863281 102.726562 Z M 6.511719 103.417969 C 5.558594 103.53125 5.273438 104.675781 5.207031 105.445312 L 5.207031 105.753906 L 5.183594 105.777344 L 5.183594 107.351562 C 5.253906 108.167969 5.308594 109.222656 6.058594 109.765625 C 6.75 110.242188 7.667969 109.710938 7.859375 108.972656 C 8.0625 108.429688 8.109375 107.894531 8.15625 107.351562 L 8.15625 105.777344 C 8.085938 104.949219 7.972656 103.792969 7.019531 103.460938 L 6.941406 103.441406 L 6.917969 103.417969 L 6.816406 103.417969 L 6.792969 103.394531 L 6.535156 103.394531 Z M 6.511719 103.417969 Z M 6.511719 103.417969 "/>
<path style=" stroke:none;fill-rule:nonzero;fill:rgb(0%,0%,0%);fill-opacity:1;" d="M 11.542969 109.460938 L 11.542969 110.367188 L 10.625 110.367188 L 10.625 109.460938 Z M 11.542969 109.460938 Z M 11.542969 109.460938 "/>
<path style=" stroke:none;fill-rule:nonzero;fill:rgb(0%,0%,0%);fill-opacity:1;" d="M 15.695312 102.726562 C 16.898438 102.769531 18.03125 104.0625 17.554688 105.265625 C 17.351562 105.820312 16.785156 106.160156 16.320312 106.398438 C 17.476562 106.738281 18.179688 108.089844 17.65625 109.199219 C 17.113281 110.640625 15.046875 111.09375 13.914062 110.050781 C 12.882812 109.234375 12.847656 107.464844 13.992188 106.738281 C 14.164062 106.558594 14.480469 106.5 14.628906 106.367188 C 13.640625 106.082031 12.972656 104.9375 13.4375 103.972656 C 13.8125 103.109375 14.777344 102.636719 15.695312 102.726562 Z M 15.695312 102.726562 Z M 15.265625 103.371094 C 14.425781 103.394531 13.835938 104.347656 14.117188 105.09375 C 14.449219 106.386719 16.613281 106.34375 16.863281 105.015625 C 17.089844 104.277344 16.5 103.394531 15.695312 103.371094 L 15.671875 103.359375 L 15.285156 103.359375 Z M 15.265625 103.371094 Z M 15.285156 106.738281 C 14.300781 106.808594 13.8125 107.988281 14.074219 108.824219 C 14.242188 110.015625 15.945312 110.367188 16.613281 109.414062 C 17.257812 108.542969 16.941406 106.976562 15.773438 106.738281 L 15.671875 106.738281 L 15.648438 106.71875 L 15.296875 106.71875 Z M 15.285156 106.738281 Z M 15.285156 106.738281 "/>
<path style=" stroke:none;fill-rule:nonzero;fill:rgb(0%,0%,0%);fill-opacity:1;" d="M 7.214844 69.695312 L 7.214844 76.691406 L 7.226562 76.710938 L 8.621094 76.710938 L 8.621094 77.335938 L 4.933594 77.335938 L 4.933594 76.710938 L 6.328125 76.710938 L 6.351562 76.691406 L 6.351562 70.816406 C 5.875 70.976562 5.375 71.078125 4.878906 71.066406 L 4.878906 70.429688 C 5.625 70.441406 6.441406 70.238281 7.007812 69.695312 Z M 7.214844 69.695312 Z M 7.214844 69.695312 "/>
<path style=" stroke:none;fill-rule:nonzero;fill:rgb(0%,0%,0%);fill-opacity:1;" d="M 11.542969 76.429688 L 11.542969 77.335938 L 10.625 77.335938 L 10.625 76.429688 Z M 11.542969 76.429688 Z M 11.542969 76.429688 "/>
<path style=" stroke:none;fill-rule:nonzero;fill:rgb(0%,0%,0%);fill-opacity:1;" d="M 15.671875 69.695312 C 16.75 69.773438 17.464844 70.761719 17.65625 71.757812 C 17.757812 72.210938 17.78125 72.640625 17.828125 73.09375 L 17.828125 74.253906 C 17.769531 75.429688 17.484375 76.984375 16.203125 77.460938 C 15.09375 77.902344 13.789062 77.210938 13.460938 76.078125 C 13.210938 75.476562 13.1875 74.863281 13.132812 74.253906 L 13.132812 73.09375 C 13.1875 71.917969 13.4375 70.351562 14.707031 69.828125 L 14.765625 69.808594 L 14.808594 69.796875 L 14.867188 69.773438 L 15.039062 69.726562 L 15.140625 69.707031 L 15.265625 69.707031 L 15.285156 69.695312 Z M 15.671875 69.695312 Z M 15.320312 70.386719 C 14.367188 70.5 14.085938 71.644531 14.015625 72.414062 L 14.015625 72.722656 L 13.992188 72.742188 L 13.992188 74.320312 C 14.0625 75.136719 14.117188 76.191406 14.867188 76.734375 C 15.558594 77.210938 16.476562 76.679688 16.667969 75.941406 C 16.875 75.398438 16.917969 74.863281 16.964844 74.320312 L 16.964844 72.742188 C 16.898438 71.917969 16.785156 70.761719 15.832031 70.429688 L 15.75 70.410156 L 15.730469 70.386719 L 15.625 70.386719 L 15.605469 70.363281 L 15.34375 70.363281 Z M 15.320312 70.386719 Z M 15.320312 70.386719 "/>
<path style=" stroke:none;fill-rule:nonzero;fill:rgb(0%,0%,0%);fill-opacity:1;" d="M 7.214844 36.664062 L 7.214844 43.65625 L 7.226562 43.679688 L 8.621094 43.679688 L 8.621094 44.304688 L 4.933594 44.304688 L 4.933594 43.679688 L 6.328125 43.679688 L 6.351562 43.65625 L 6.351562 37.785156 C 5.875 37.945312 5.375 38.046875 4.878906 38.035156 L 4.878906 37.398438 C 5.625 37.410156 6.441406 37.207031 7.007812 36.664062 Z M 7.214844 36.664062 Z M 7.214844 36.664062 "/>
<path style=" stroke:none;fill-rule:nonzero;fill:rgb(0%,0%,0%);fill-opacity:1;" d="M 11.542969 43.398438 L 11.542969 44.304688 L 10.625 44.304688 L 10.625 43.398438 Z M 11.542969 43.398438 Z M 11.542969 43.398438 "/>
<path style=" stroke:none;fill-rule:nonzero;fill:rgb(0%,0%,0%);fill-opacity:1;" d="M 15.546875 36.664062 C 16.863281 36.695312 17.90625 38.046875 17.703125 39.316406 C 17.566406 40.585938 16.375 41.3125 15.523438 42.105469 L 15.160156 42.480469 L 15.117188 42.5 L 14.664062 42.945312 L 14.628906 42.964844 L 14.175781 43.421875 L 14.128906 43.441406 L 14.027344 43.542969 L 14.050781 43.554688 L 17.722656 43.554688 L 17.722656 44.304688 L 13.234375 44.304688 L 13.234375 43.625 L 15.058594 41.796875 C 15.933594 41.039062 16.953125 40.050781 16.792969 38.804688 C 16.703125 38.078125 16.089844 37.410156 15.34375 37.355469 C 14.582031 37.242188 13.914062 37.839844 13.746094 38.566406 L 13.722656 38.601562 L 13.699219 38.679688 L 13.664062 38.804688 L 13.597656 39.054688 L 13.585938 39.113281 C 13.425781 38.917969 13.257812 38.714844 13.132812 38.5 C 13.359375 37.570312 14.105469 36.695312 15.09375 36.664062 Z M 15.546875 36.664062 Z M 15.546875 36.664062 "/>
<path style=" stroke:none;fill-rule:nonzero;fill:rgb(0%,0%,0%);fill-opacity:1;" d="M 7.214844 3.628906 L 7.214844 10.625 L 7.226562 10.648438 L 8.621094 10.648438 L 8.621094 11.273438 L 4.933594 11.273438 L 4.933594 10.648438 L 6.328125 10.648438 L 6.351562 10.625 L 6.351562 4.753906 C 5.875 4.910156 5.375 5.015625 4.878906 5.003906 L 4.878906 4.367188 C 5.625 4.378906 6.441406 4.175781 7.007812 3.628906 Z M 7.214844 3.628906 Z M 7.214844 3.628906 "/>
<path style=" stroke:none;fill-rule:nonzero;fill:rgb(0%,0%,0%);fill-opacity:1;" d="M 11.542969 10.367188 L 11.542969 11.273438 L 10.625 11.273438 L 10.625 10.367188 Z M 11.542969 10.367188 Z M 11.542969 10.367188 "/>
<path style=" stroke:none;fill-rule:nonzero;fill:rgb(0%,0%,0%);fill-opacity:1;" d="M 16.839844 3.867188 L 16.839844 8.640625 L 16.863281 8.664062 L 17.984375 8.664062 L 17.984375 9.34375 L 16.863281 9.34375 L 16.839844 9.355469 L 16.839844 11.273438 L 15.976562 11.273438 L 15.976562 9.355469 L 15.957031 9.34375 L 12.960938 9.34375 L 12.960938 8.640625 C 13.914062 7.054688 14.867188 5.457031 15.820312 3.867188 Z M 16.839844 3.867188 Z M 16 4.300781 C 15.773438 5.480469 15.046875 6.488281 14.503906 7.519531 C 14.289062 7.894531 14.003906 8.300781 13.847656 8.664062 L 16.023438 8.664062 L 16.035156 8.640625 L 16.035156 4.300781 L 16.023438 4.277344 Z M 16 4.300781 Z M 16 4.300781 "/>
<path style="fill:none;stroke-width:0.02;stroke-linecap:butt;stroke-linejoin:miter;stroke:rgb(0%,0%,0%);stroke-opacity:1;stroke-miterlimit:10;" d="M 11.699958 1.777288 L 11.550027 1.777288 " transform="matrix(28.346457,0,0,-28.346457,1,256.11811)"/>
<path style="fill:none;stroke-width:0.02;stroke-linecap:butt;stroke-linejoin:miter;stroke:rgb(0%,0%,0%);stroke-opacity:1;stroke-miterlimit:10;" d="M 11.699958 2.942558 L 11.550027 2.942558 " transform="matrix(28.346457,0,0,-28.346457,1,256.11811)"/>
<path style="fill:none;stroke-width:0.02;stroke-linecap:butt;stroke-linejoin:miter;stroke:rgb(0%,0%,0%);stroke-opacity:1;stroke-miterlimit:10;" d="M 11.699958 4.107827 L 11.550027 4.107827 " transform="matrix(28.346457,0,0,-28.346457,1,256.11811)"/>
<path style="fill:none;stroke-width:0.02;stroke-linecap:butt;stroke-linejoin:miter;stroke:rgb(0%,0%,0%);stroke-opacity:1;stroke-miterlimit:10;" d="M 11.699958 5.273096 L 11.550027 5.273096 " transform="matrix(28.346457,0,0,-28.346457,1,256.11811)"/>
<path style="fill:none;stroke-width:0.02;stroke-linecap:butt;stroke-linejoin:miter;stroke:rgb(0%,0%,0%);stroke-opacity:1;stroke-miterlimit:10;" d="M 11.699958 6.438365 L 11.550027 6.438365 " transform="matrix(28.346457,0,0,-28.346457,1,256.11811)"/>
<path style="fill:none;stroke-width:0.02;stroke-linecap:butt;stroke-linejoin:miter;stroke:rgb(0%,0%,0%);stroke-opacity:1;stroke-miterlimit:10;" d="M 11.699958 7.603772 L 11.550027 7.603772 " transform="matrix(28.346457,0,0,-28.346457,1,256.11811)"/>
<path style="fill:none;stroke-width:0.02;stroke-linecap:round;stroke-linejoin:miter;stroke:rgb(0%,0%,0%);stroke-opacity:1;stroke-miterlimit:10;" d="M 11.699958 0.612019 L 11.699958 8.769041 " transform="matrix(28.346457,0,0,-28.346457,1,256.11811)"/>
<path style="fill:none;stroke-width:0.02;stroke-linecap:butt;stroke-linejoin:miter;stroke:rgb(0%,0%,0%);stroke-opacity:1;stroke-miterlimit:10;" d="M 2.065128 0.612019 L 2.065128 0.76195 " transform="matrix(28.346457,0,0,-28.346457,1,256.11811)"/>
<path style="fill:none;stroke-width:0.02;stroke-linecap:butt;stroke-linejoin:miter;stroke:rgb(0%,0%,0%);stroke-opacity:1;stroke-miterlimit:10;" d="M 3.269533 0.612019 L 3.269533 0.76195 " transform="matrix(28.346457,0,0,-28.346457,1,256.11811)"/>
<path style="fill:none;stroke-width:0.02;stroke-linecap:butt;stroke-linejoin:miter;stroke:rgb(0%,0%,0%);stroke-opacity:1;stroke-miterlimit:10;" d="M 4.473801 0.612019 L 4.473801 0.76195 " transform="matrix(28.346457,0,0,-28.346457,1,256.11811)"/>
<path style="fill:none;stroke-width:0.02;stroke-linecap:butt;stroke-linejoin:miter;stroke:rgb(0%,0%,0%);stroke-opacity:1;stroke-miterlimit:10;" d="M 5.678206 0.612019 L 5.678206 0.76195 " transform="matrix(28.346457,0,0,-28.346457,1,256.11811)"/>
<path style="fill:none;stroke-width:0.02;stroke-linecap:butt;stroke-linejoin:miter;stroke:rgb(0%,0%,0%);stroke-opacity:1;stroke-miterlimit:10;" d="M 6.882612 0.612019 L 6.882612 0.76195 " transform="matrix(28.346457,0,0,-28.346457,1,256.11811)"/>
<path style="fill:none;stroke-width:0.02;stroke-linecap:butt;stroke-linejoin:miter;stroke:rgb(0%,0%,0%);stroke-opacity:1;stroke-miterlimit:10;" d="M 8.086879 0.612019 L 8.086879 0.76195 " transform="matrix(28.346457,0,0,-28.346457,1,256.11811)"/>
<path style="fill:none;stroke-width:0.02;stroke-linecap:butt;stroke-linejoin:miter;stroke:rgb(0%,0%,0%);stroke-opacity:1;stroke-miterlimit:10;" d="M 9.291285 0.612019 L 9.291285 0.76195 " transform="matrix(28.346457,0,0,-28.346457,1,256.11811)"/>
<path style="fill:none;stroke-width:0.02;stroke-linecap:butt;stroke-linejoin:miter;stroke:rgb(0%,0%,0%);stroke-opacity:1;stroke-miterlimit:10;" d="M 10.49569 0.612019 L 10.49569 0.76195 " transform="matrix(28.346457,0,0,-28.346457,1,256.11811)"/>
<path style="fill:none;stroke-width:0.02;stroke-linecap:round;stroke-linejoin:miter;stroke:rgb(0%,0%,0%);stroke-opacity:1;stroke-miterlimit:10;" d="M 0.86086 0.612019 L 11.699958 0.612019 " transform="matrix(28.346457,0,0,-28.346457,1,256.11811)"/>
<path style=" stroke:none;fill-rule:nonzero;fill:rgb(0%,0%,0%);fill-opacity:1;" d="M 23.785156 250.484375 L 23.785156 251.117188 L 20.8125 251.117188 L 20.8125 250.484375 Z M 23.785156 250.484375 Z M 23.785156 250.484375 "/>
<path style=" stroke:none;fill-rule:nonzero;fill:rgb(0%,0%,0%);fill-opacity:1;" d="M 28.21875 245.652344 C 28.511719 245.699219 28.851562 245.730469 29.136719 245.867188 L 29.136719 246.527344 C 28.355469 246.183594 27.332031 246.140625 26.722656 246.832031 C 26.175781 247.410156 25.929688 248.273438 25.90625 249.03125 C 26.5625 248.160156 28.046875 247.671875 28.851562 248.578125 C 29.660156 249.507812 29.792969 250.84375 29.429688 251.980469 C 29.035156 252.886719 28.117188 253.714844 27.097656 253.523438 C 25.710938 253.40625 25.089844 251.867188 25.019531 250.6875 C 24.761719 249.019531 25.15625 246.921875 26.746094 245.96875 L 26.765625 245.957031 L 27.003906 245.835938 L 27.074219 245.8125 L 27.105469 245.789062 L 27.300781 245.730469 L 27.457031 245.6875 L 27.5625 245.664062 L 27.683594 245.664062 L 27.707031 245.652344 Z M 28.21875 245.652344 Z M 27.105469 248.804688 C 26.121094 248.976562 25.804688 250.164062 25.929688 250.96875 C 25.984375 251.730469 26.28125 252.738281 27.152344 252.898438 C 28.082031 253.023438 28.683594 252.023438 28.707031 251.21875 C 28.75 250.402344 28.707031 249.472656 27.992188 248.941406 L 27.832031 248.863281 L 27.707031 248.828125 L 27.605469 248.804688 L 27.582031 248.78125 L 27.128906 248.78125 Z M 27.105469 248.804688 Z M 27.105469 248.804688 "/>
<path style=" stroke:none;fill-rule:nonzero;fill:rgb(0%,0%,0%);fill-opacity:1;" d="M 57.925781 250.484375 L 57.925781 251.117188 L 54.953125 251.117188 L 54.953125 250.484375 Z M 57.925781 250.484375 Z M 57.925781 250.484375 "/>
<path style=" stroke:none;fill-rule:nonzero;fill:rgb(0%,0%,0%);fill-opacity:1;" d="M 62.789062 245.890625 L 62.789062 250.664062 L 62.8125 250.6875 L 63.933594 250.6875 L 63.933594 251.367188 L 62.8125 251.367188 L 62.789062 251.378906 L 62.789062 253.292969 L 61.925781 253.292969 L 61.925781 251.378906 L 61.902344 251.367188 L 58.910156 251.367188 L 58.910156 250.664062 C 59.863281 249.078125 60.816406 247.476562 61.769531 245.890625 Z M 62.789062 245.890625 Z M 61.949219 246.320312 C 61.722656 247.5 60.996094 248.511719 60.453125 249.542969 C 60.238281 249.914062 59.953125 250.324219 59.796875 250.6875 L 61.972656 250.6875 L 61.984375 250.664062 L 61.984375 246.320312 L 61.972656 246.300781 Z M 61.949219 246.320312 Z M 61.949219 246.320312 "/>
<path style=" stroke:none;fill-rule:nonzero;fill:rgb(0%,0%,0%);fill-opacity:1;" d="M 92.0625 250.484375 L 92.0625 251.117188 L 89.09375 251.117188 L 89.09375 250.484375 Z M 92.0625 250.484375 Z M 92.0625 250.484375 "/>
<path style=" stroke:none;fill-rule:nonzero;fill:rgb(0%,0%,0%);fill-opacity:1;" d="M 95.636719 245.652344 C 96.949219 245.6875 97.992188 247.035156 97.789062 248.304688 C 97.652344 249.574219 96.460938 250.300781 95.613281 251.09375 L 95.25 251.46875 L 95.203125 251.492188 L 94.75 251.933594 L 94.714844 251.957031 L 94.261719 252.410156 L 94.21875 252.433594 L 94.117188 252.535156 L 94.136719 252.546875 L 97.8125 252.546875 L 97.8125 253.292969 L 93.320312 253.292969 L 93.320312 252.613281 L 95.148438 250.789062 C 96.019531 250.027344 97.039062 249.042969 96.882812 247.796875 C 96.792969 247.070312 96.179688 246.402344 95.429688 246.34375 C 94.671875 246.230469 94.003906 246.832031 93.832031 247.558594 L 93.808594 247.589844 L 93.785156 247.671875 L 93.753906 247.796875 L 93.683594 248.046875 L 93.671875 248.101562 C 93.515625 247.910156 93.34375 247.703125 93.21875 247.488281 C 93.445312 246.558594 94.195312 245.6875 95.179688 245.652344 Z M 95.636719 245.652344 Z M 95.636719 245.652344 "/>
<path style=" stroke:none;fill-rule:nonzero;fill:rgb(0%,0%,0%);fill-opacity:1;" d="M 128.011719 245.652344 C 129.089844 245.730469 129.800781 246.71875 129.996094 247.714844 C 130.097656 248.167969 130.121094 248.601562 130.164062 249.054688 L 130.164062 250.210938 C 130.109375 251.390625 129.824219 252.941406 128.542969 253.417969 C 127.433594 253.863281 126.128906 253.171875 125.800781 252.035156 C 125.550781 251.433594 125.527344 250.824219 125.472656 250.210938 L 125.472656 249.054688 C 125.527344 247.875 125.777344 246.308594 127.046875 245.789062 L 127.105469 245.765625 L 127.148438 245.753906 L 127.207031 245.730469 L 127.375 245.6875 L 127.476562 245.664062 L 127.601562 245.664062 L 127.625 245.652344 Z M 128.011719 245.652344 Z M 127.660156 246.34375 C 126.707031 246.457031 126.421875 247.601562 126.355469 248.375 L 126.355469 248.679688 L 126.332031 248.703125 L 126.332031 250.277344 C 126.402344 251.09375 126.457031 252.148438 127.207031 252.695312 C 127.898438 253.171875 128.816406 252.636719 129.007812 251.898438 C 129.214844 251.355469 129.257812 250.824219 129.304688 250.277344 L 129.304688 248.703125 C 129.234375 247.875 129.121094 246.71875 128.167969 246.390625 L 128.089844 246.367188 L 128.066406 246.34375 L 127.964844 246.34375 L 127.941406 246.320312 L 127.683594 246.320312 Z M 127.660156 246.34375 Z M 127.660156 246.34375 "/>
<path style=" stroke:none;fill-rule:nonzero;fill:rgb(0%,0%,0%);fill-opacity:1;" d="M 162.027344 245.652344 C 163.339844 245.6875 164.382812 247.035156 164.179688 248.304688 C 164.042969 249.574219 162.851562 250.300781 162.003906 251.09375 L 161.640625 251.46875 L 161.59375 251.492188 L 161.140625 251.933594 L 161.105469 251.957031 L 160.652344 252.410156 L 160.609375 252.433594 L 160.507812 252.535156 L 160.527344 252.546875 L 164.203125 252.546875 L 164.203125 253.292969 L 159.710938 253.292969 L 159.710938 252.613281 L 161.539062 250.789062 C 162.410156 250.027344 163.429688 249.042969 163.273438 247.796875 C 163.183594 247.070312 162.570312 246.402344 161.820312 246.34375 C 161.0625 246.230469 160.394531 246.832031 160.222656 247.558594 L 160.199219 247.589844 L 160.175781 247.671875 L 160.144531 247.796875 L 160.074219 248.046875 L 160.0625 248.101562 C 159.90625 247.910156 159.734375 247.703125 159.609375 247.488281 C 159.835938 246.558594 160.585938 245.6875 161.570312 245.652344 Z M 162.027344 245.652344 Z M 162.027344 245.652344 "/>
<path style=" stroke:none;fill-rule:nonzero;fill:rgb(0%,0%,0%);fill-opacity:1;" d="M 197.457031 245.890625 L 197.457031 250.664062 L 197.480469 250.6875 L 198.601562 250.6875 L 198.601562 251.367188 L 197.480469 251.367188 L 197.457031 251.378906 L 197.457031 253.292969 L 196.59375 253.292969 L 196.59375 251.378906 L 196.574219 251.367188 L 193.578125 251.367188 L 193.578125 250.664062 C 194.53125 249.078125 195.484375 247.476562 196.4375 245.890625 Z M 197.457031 245.890625 Z M 196.617188 246.320312 C 196.390625 247.5 195.664062 248.511719 195.121094 249.542969 C 194.90625 249.914062 194.621094 250.324219 194.464844 250.6875 L 196.640625 250.6875 L 196.652344 250.664062 L 196.652344 246.320312 L 196.640625 246.300781 Z M 196.617188 246.320312 Z M 196.617188 246.320312 "/>
<path style=" stroke:none;fill-rule:nonzero;fill:rgb(0%,0%,0%);fill-opacity:1;" d="M 231.164062 245.652344 C 231.460938 245.699219 231.800781 245.730469 232.085938 245.867188 L 232.085938 246.527344 C 231.300781 246.183594 230.28125 246.140625 229.667969 246.832031 C 229.125 247.410156 228.875 248.273438 228.851562 249.03125 C 229.511719 248.160156 230.996094 247.671875 231.800781 248.578125 C 232.605469 249.507812 232.742188 250.84375 232.378906 251.980469 C 231.980469 252.886719 231.0625 253.714844 230.042969 253.523438 C 228.660156 253.40625 228.035156 251.867188 227.96875 250.6875 C 227.707031 249.019531 228.105469 246.921875 229.691406 245.96875 L 229.714844 245.957031 L 229.953125 245.835938 L 230.019531 245.8125 L 230.054688 245.789062 L 230.246094 245.730469 L 230.40625 245.6875 L 230.507812 245.664062 L 230.632812 245.664062 L 230.65625 245.652344 Z M 231.164062 245.652344 Z M 230.054688 248.804688 C 229.066406 248.976562 228.75 250.164062 228.875 250.96875 C 228.933594 251.730469 229.226562 252.738281 230.101562 252.898438 C 231.03125 253.023438 231.628906 252.023438 231.652344 251.21875 C 231.699219 250.402344 231.652344 249.472656 230.9375 248.941406 L 230.78125 248.863281 L 230.65625 248.828125 L 230.554688 248.804688 L 230.53125 248.78125 L 230.078125 248.78125 Z M 230.054688 248.804688 Z M 230.054688 248.804688 "/>
<path style=" stroke:none;fill-rule:nonzero;fill:rgb(0%,0%,0%);fill-opacity:1;" d="M 264.589844 245.652344 C 265.792969 245.699219 266.925781 246.992188 266.449219 248.191406 C 266.246094 248.746094 265.679688 249.089844 265.214844 249.328125 C 266.371094 249.667969 267.074219 251.015625 266.550781 252.125 C 266.007812 253.566406 263.945312 254.019531 262.808594 252.976562 C 261.777344 252.160156 261.746094 250.390625 262.890625 249.667969 C 263.058594 249.484375 263.378906 249.429688 263.523438 249.292969 C 262.539062 249.007812 261.871094 247.863281 262.335938 246.898438 C 262.707031 246.039062 263.671875 245.5625 264.589844 245.652344 Z M 264.589844 245.652344 Z M 264.160156 246.300781 C 263.320312 246.320312 262.730469 247.273438 263.015625 248.023438 C 263.34375 249.316406 265.507812 249.269531 265.757812 247.941406 C 265.984375 247.207031 265.394531 246.320312 264.589844 246.300781 L 264.566406 246.289062 L 264.183594 246.289062 Z M 264.160156 246.300781 Z M 264.183594 249.667969 C 263.195312 249.734375 262.707031 250.914062 262.96875 251.753906 C 263.140625 252.941406 264.839844 253.292969 265.507812 252.34375 C 266.15625 251.46875 265.835938 249.90625 264.667969 249.667969 L 264.566406 249.667969 L 264.546875 249.644531 L 264.195312 249.644531 Z M 264.183594 249.667969 Z M 264.183594 249.667969 "/>
<path style=" stroke:none;fill-rule:nonzero;fill:rgb(0%,0%,0%);fill-opacity:1;" d="M 296.222656 245.652344 L 296.222656 252.648438 L 296.234375 252.671875 L 297.628906 252.671875 L 297.628906 253.292969 L 293.945312 253.292969 L 293.945312 252.671875 L 295.339844 252.671875 L 295.363281 252.648438 L 295.363281 246.773438 C 294.886719 246.933594 294.386719 247.035156 293.886719 247.023438 L 293.886719 246.390625 C 294.636719 246.402344 295.453125 246.195312 296.019531 245.652344 Z M 296.222656 245.652344 Z M 296.222656 245.652344 "/>
<path style=" stroke:none;fill-rule:nonzero;fill:rgb(0%,0%,0%);fill-opacity:1;" d="M 301.542969 245.652344 C 302.617188 245.730469 303.332031 246.71875 303.527344 247.714844 C 303.628906 248.167969 303.652344 248.601562 303.695312 249.054688 L 303.695312 250.210938 C 303.640625 251.390625 303.355469 252.941406 302.074219 253.417969 C 300.964844 253.863281 299.660156 253.171875 299.332031 252.035156 C 299.082031 251.433594 299.058594 250.824219 299 250.210938 L 299 249.054688 C 299.058594 247.875 299.308594 246.308594 300.578125 245.789062 L 300.632812 245.765625 L 300.679688 245.753906 L 300.738281 245.730469 L 300.90625 245.6875 L 301.007812 245.664062 L 301.132812 245.664062 L 301.15625 245.652344 Z M 301.542969 245.652344 Z M 301.191406 246.34375 C 300.238281 246.457031 299.953125 247.601562 299.886719 248.375 L 299.886719 248.679688 L 299.863281 248.703125 L 299.863281 250.277344 C 299.933594 251.09375 299.988281 252.148438 300.738281 252.695312 C 301.429688 253.171875 302.347656 252.636719 302.539062 251.898438 C 302.742188 251.355469 302.789062 250.824219 302.835938 250.277344 L 302.835938 248.703125 C 302.765625 247.875 302.652344 246.71875 301.699219 246.390625 L 301.621094 246.367188 L 301.597656 246.34375 L 301.496094 246.34375 L 301.472656 246.320312 L 301.214844 246.320312 Z M 301.191406 246.34375 Z M 301.191406 246.34375 "/>
<path style=" stroke:none;fill-rule:nonzero;fill:rgb(0%,0%,0%);fill-opacity:1;" d="M 330.363281 245.652344 L 330.363281 252.648438 L 330.375 252.671875 L 331.769531 252.671875 L 331.769531 253.292969 L 328.085938 253.292969 L 328.085938 252.671875 L 329.480469 252.671875 L 329.5 252.648438 L 329.5 246.773438 C 329.023438 246.933594 328.527344 247.035156 328.027344 247.023438 L 328.027344 246.390625 C 328.777344 246.402344 329.59375 246.195312 330.160156 245.652344 Z M 330.363281 245.652344 Z M 330.363281 245.652344 "/>
<path style=" stroke:none;fill-rule:nonzero;fill:rgb(0%,0%,0%);fill-opacity:1;" d="M 335.554688 245.652344 C 336.871094 245.6875 337.914062 247.035156 337.710938 248.304688 C 337.574219 249.574219 336.382812 250.300781 335.535156 251.09375 L 335.171875 251.46875 L 335.125 251.492188 L 334.671875 251.933594 L 334.636719 251.957031 L 334.183594 252.410156 L 334.140625 252.433594 L 334.035156 252.535156 L 334.058594 252.546875 L 337.734375 252.546875 L 337.734375 253.292969 L 333.242188 253.292969 L 333.242188 252.613281 L 335.070312 250.789062 C 335.941406 250.027344 336.960938 249.042969 336.804688 247.796875 C 336.710938 247.070312 336.101562 246.402344 335.351562 246.34375 C 334.59375 246.230469 333.921875 246.832031 333.753906 247.558594 L 333.730469 247.589844 L 333.707031 247.671875 L 333.675781 247.796875 L 333.605469 248.046875 L 333.59375 248.101562 C 333.4375 247.910156 333.265625 247.703125 333.140625 247.488281 C 333.367188 246.558594 334.117188 245.6875 335.101562 245.652344 Z M 335.554688 245.652344 Z M 335.554688 245.652344 "/>
<path style="fill:none;stroke-width:0.02;stroke-linecap:butt;stroke-linejoin:miter;stroke:rgb(0%,0%,0%);stroke-opacity:1;stroke-miterlimit:10;" d="M 2.065128 8.769041 L 2.065128 8.618972 " transform="matrix(28.346457,0,0,-28.346457,1,256.11811)"/>
<path style="fill:none;stroke-width:0.02;stroke-linecap:butt;stroke-linejoin:miter;stroke:rgb(0%,0%,0%);stroke-opacity:1;stroke-miterlimit:10;" d="M 3.269533 8.769041 L 3.269533 8.618972 " transform="matrix(28.346457,0,0,-28.346457,1,256.11811)"/>
<path style="fill:none;stroke-width:0.02;stroke-linecap:butt;stroke-linejoin:miter;stroke:rgb(0%,0%,0%);stroke-opacity:1;stroke-miterlimit:10;" d="M 4.473801 8.769041 L 4.473801 8.618972 " transform="matrix(28.346457,0,0,-28.346457,1,256.11811)"/>
<path style="fill:none;stroke-width:0.02;stroke-linecap:butt;stroke-linejoin:miter;stroke:rgb(0%,0%,0%);stroke-opacity:1;stroke-miterlimit:10;" d="M 5.678206 8.769041 L 5.678206 8.618972 " transform="matrix(28.346457,0,0,-28.346457,1,256.11811)"/>
<path style="fill:none;stroke-width:0.02;stroke-linecap:butt;stroke-linejoin:miter;stroke:rgb(0%,0%,0%);stroke-opacity:1;stroke-miterlimit:10;" d="M 6.882612 8.769041 L 6.882612 8.618972 " transform="matrix(28.346457,0,0,-28.346457,1,256.11811)"/>
<path style="fill:none;stroke-width:0.02;stroke-linecap:butt;stroke-linejoin:miter;stroke:rgb(0%,0%,0%);stroke-opacity:1;stroke-miterlimit:10;" d="M 8.086879 8.769041 L 8.086879 8.618972 " transform="matrix(28.346457,0,0,-28.346457,1,256.11811)"/>
<path style="fill:none;stroke-width:0.02;stroke-linecap:butt;stroke-linejoin:miter;stroke:rgb(0%,0%,0%);stroke-opacity:1;stroke-miterlimit:10;" d="M 9.291285 8.769041 L 9.291285 8.618972 " transform="matrix(28.346457,0,0,-28.346457,1,256.11811)"/>
<path style="fill:none;stroke-width:0.02;stroke-linecap:butt;stroke-linejoin:miter;stroke:rgb(0%,0%,0%);stroke-opacity:1;stroke-miterlimit:10;" d="M 10.49569 8.769041 L 10.49569 8.618972 " transform="matrix(28.346457,0,0,-28.346457,1,256.11811)"/>
<path style="fill:none;stroke-width:0.02;stroke-linecap:round;stroke-linejoin:miter;stroke:rgb(0%,0%,0%);stroke-opacity:1;stroke-miterlimit:10;" d="M 0.86086 8.769041 L 11.699958 8.769041 " transform="matrix(28.346457,0,0,-28.346457,1,256.11811)"/>
</g>
</svg>
