<svg xmlns="http://www.w3.org/2000/svg" width="456.21" height="342.824" viewBox="0 0 342.157 257.118"><path style="fill-rule:nonzero;fill:#80334d;fill-opacity:.5;stroke-width:.02;stroke-linecap:butt;stroke-linejoin:miter;stroke:#fff;stroke-opacity:1;stroke-miterlimit:10" d="M1.432.612H2.1v.001h-.668ZM2.1.612h.668v.004H2.1Zm0 0" transform="matrix(28.34646 0 0 -28.34646 1 256.118)"/><path style="fill-rule:nonzero;fill:#80334d;fill-opacity:.5;stroke-width:.02;stroke-linecap:butt;stroke-linejoin:miter;stroke:#fff;stroke-opacity:1;stroke-miterlimit:10" d="M2.768.612h.668V.65h-.668ZM3.436.612h.668v.143h-.668Zm0 0" transform="matrix(28.34646 0 0 -28.34646 1 256.118)"/><path style="fill-rule:nonzero;fill:#80334d;fill-opacity:.5;stroke-width:.02;stroke-linecap:butt;stroke-linejoin:miter;stroke:#fff;stroke-opacity:1;stroke-miterlimit:10" d="M4.104.612h.669v.37h-.669Zm0 0" transform="matrix(28.34646 0 0 -28.34646 1 256.118)"/><path style="fill-rule:nonzero;fill:#80334d;fill-opacity:.5;stroke-width:.02;stroke-linecap:butt;stroke-linejoin:miter;stroke:#fff;stroke-opacity:1;stroke-miterlimit:10" d="M4.772.612h.668v.729h-.668ZM5.44.612h.669v1.093H5.44ZM6.109.612h.668V1.71h-.668ZM6.777.612h.668v.892h-.668Zm0 0" transform="matrix(28.34646 0 0 -28.34646 1 256.118)"/><path style="fill-rule:nonzero;fill:#80334d;fill-opacity:.5;stroke-width:.02;stroke-linecap:butt;stroke-linejoin:miter;stroke:#fff;stroke-opacity:1;stroke-miterlimit:10" d="M7.445.612h.668v.544h-.668ZM8.113.612h.668v.25h-.668Zm0 0" transform="matrix(28.34646 0 0 -28.34646 1 256.118)"/><path style="fill-rule:nonzero;fill:#80334d;fill-opacity:.5;stroke-width:.02;stroke-linecap:butt;stroke-linejoin:miter;stroke:#fff;stroke-opacity:1;stroke-miterlimit:10" d="M8.78.612h.669v.065H8.78ZM9.449.612h.668v.017h-.668ZM10.117.612h.668v.006h-.668Zm0 0" transform="matrix(28.34646 0 0 -28.34646 1 256.118)"/><path style="fill-rule:nonzero;fill:#33804d;fill-opacity:.5;stroke-width:.02;stroke-linecap:butt;stroke-linejoin:miter;stroke:#fff;stroke-opacity:1;stroke-miterlimit:10" d="M5.383.612h.106v.033h-.106ZM5.489.612h.106v.43h-.106Zm0 0" transform="matrix(28.34646 0 0 -28.34646 1 256.118)"/><path style="fill-rule:nonzero;fill:#33804d;fill-opacity:.5;stroke-width:.02;stroke-linecap:butt;stroke-linejoin:miter;stroke:#fff;stroke-opacity:1;stroke-miterlimit:10" d="M5.595.612H5.7v1.589h-.106ZM5.7.612h.107v3.376H5.7ZM5.807.612h.106v6.62h-.106ZM5.913.612h.106v7.713h-.106ZM6.019.612h.106v7.117h-.106ZM6.125.612h.106v3.41h-.106Zm0 0" transform="matrix(28.34646 0 0 -28.34646 1 256.118)"/><path style="fill-rule:nonzero;fill:#33804d;fill-opacity:.5;stroke-width:.02;stroke-linecap:butt;stroke-linejoin:miter;stroke:#fff;stroke-opacity:1;stroke-miterlimit:10" d="M6.23.612h.107v1.82H6.23Zm0 0" transform="matrix(28.34646 0 0 -28.34646 1 256.118)"/><path style="fill-rule:nonzero;fill:#33804d;fill-opacity:.5;stroke-width:.02;stroke-linecap:butt;stroke-linejoin:miter;stroke:#fff;stroke-opacity:1;stroke-miterlimit:10" d="M6.337.612h.106v.695h-.106ZM6.443.612h.106v.265h-.106Zm0 0" transform="matrix(28.34646 0 0 -28.34646 1 256.118)"/><path style="fill:none;stroke-width:.02;stroke-linecap:butt;stroke-linejoin:miter;stroke:#000;stroke-opacity:1;stroke-miterlimit:10" d="M.86 1.777h.15M.86 2.943h.15M.86 4.108h.15M.86 5.273h.15M.86 6.438h.15M.86 7.604h.15" transform="matrix(28.34646 0 0 -28.34646 1 256.118)"/><path style="fill:none;stroke-width:.02;stroke-linecap:round;stroke-linejoin:miter;stroke:#000;stroke-opacity:1;stroke-miterlimit:10" d="M.86.612v8.157" transform="matrix(28.34646 0 0 -28.34646 1 256.118)"/><path style="stroke:none;fill-rule:nonzero;fill:#000;fill-opacity:1" d="M6.863 234.852c1.074.082 1.79 1.066 1.985 2.066.101.453.125.883.168 1.336v1.156c-.055 1.18-.34 2.735-1.621 3.211-1.11.441-2.415-.25-2.743-1.387-.25-.597-.273-1.21-.332-1.824v-1.156c.059-1.18.309-2.742 1.578-3.266l.055-.023.047-.012.059-.02.168-.046.101-.024h.125l.024-.011Zm0 0Zm-.351.691c-.953.113-1.239 1.262-1.305 2.031v.305l-.023.023v1.578c.07.817.125 1.868.875 2.415.691.476 1.609-.06 1.8-.793.204-.547.25-1.079.297-1.622v-1.578c-.07-.828-.183-1.984-1.136-2.312l-.079-.024-.023-.023h-.102l-.023-.02h-.258Zm0 0ZM11.543 241.586v.91h-.918v-.91Zm0 0ZM15.672 234.852c1.078.082 1.793 1.066 1.984 2.066.102.453.125.883.172 1.336v1.156c-.058 1.18-.344 2.735-1.625 3.211-1.11.441-2.414-.25-2.742-1.387-.25-.597-.274-1.21-.328-1.824v-1.156c.055-1.18.305-2.742 1.574-3.266l.059-.023.043-.012.058-.02.172-.046.102-.024h.125l.02-.011Zm0 0Zm-.352.691c-.953.113-1.234 1.262-1.304 2.031v.305l-.024.023v1.578c.07.817.125 1.868.875 2.415.692.476 1.61-.06 1.801-.793.207-.547.25-1.079.297-1.622v-1.578c-.067-.828-.18-1.984-1.133-2.312l-.082-.024-.02-.023h-.105l-.02-.02h-.261Zm0 0ZM6.863 201.82c1.074.078 1.79 1.067 1.985 2.063.101.457.125.887.168 1.34v1.156c-.055 1.18-.34 2.734-1.621 3.207-1.11.445-2.415-.246-2.743-1.383-.25-.598-.273-1.21-.332-1.824v-1.156c.059-1.18.309-2.746 1.578-3.266l.055-.023.047-.012.059-.024.168-.043.101-.023h.125l.024-.012Zm0 0Zm-.351.692c-.953.113-1.239 1.258-1.305 2.031v.305l-.023.023v1.574c.07.817.125 1.871.875 2.418.691.477 1.609-.058 1.8-.793.204-.547.25-1.078.297-1.625v-1.574c-.07-.828-.183-1.984-1.136-2.312l-.079-.024-.023-.023h-.102l-.023-.024h-.258Zm0 0ZM11.543 208.555v.91h-.918v-.91Zm0 0ZM15.547 201.82c1.316.035 2.36 1.383 2.156 2.653-.137 1.27-1.328 1.996-2.18 2.789l-.363.375-.043.023-.453.442-.035.023-.453.453-.047.024-.102.101.024.012h3.672v.75h-4.489v-.684l1.825-1.824c.875-.758 1.894-1.746 1.734-2.992-.09-.727-.703-1.395-1.45-1.453-.761-.114-1.429.488-1.597 1.215l-.023.035-.024.078-.035.125-.066.25-.012.055a4.361 4.361 0 0 1-.453-.614c.226-.93.972-1.8 1.96-1.836Zm0 0ZM6.863 168.79c1.074.077 1.79 1.065 1.985 2.062.101.453.125.886.168 1.34v1.156c-.055 1.18-.34 2.73-1.621 3.207-1.11.445-2.415-.25-2.743-1.383-.25-.602-.273-1.211-.332-1.824v-1.157c.059-1.18.309-2.746 1.578-3.265l.055-.024.047-.011.059-.024.168-.043.101-.023h.125l.024-.012Zm0 0Zm-.351.69c-.953.114-1.239 1.258-1.305 2.032v.304l-.023.024v1.574c.07.816.125 1.871.875 2.418.691.473 1.609-.059 1.8-.797.204-.543.25-1.074.297-1.62v-1.575c-.07-.828-.183-1.985-1.136-2.313l-.079-.023-.023-.024h-.102l-.023-.023h-.258Zm0 0ZM11.543 175.523v.907h-.918v-.907Zm0 0ZM16.84 169.027v4.774l.023.023h1.121v.68h-1.12l-.024.012v1.914h-.863v-1.914l-.02-.012h-2.996v-.703c.953-1.586 1.906-3.188 2.86-4.774Zm0 0Zm-.84.43c-.227 1.18-.953 2.188-1.496 3.223-.215.37-.5.78-.656 1.144h2.175l.012-.023v-4.344l-.012-.023Zm0 0ZM6.863 135.758c1.074.078 1.79 1.066 1.985 2.062.101.453.125.887.168 1.34v1.156c-.055 1.18-.34 2.73-1.621 3.207-1.11.442-2.415-.25-2.743-1.382-.25-.602-.273-1.211-.332-1.825v-1.156c.059-1.18.309-2.746 1.578-3.265l.055-.024.047-.012.059-.023.168-.043.101-.023h.125l.024-.012Zm0 0Zm-.351.691c-.953.113-1.239 1.258-1.305 2.031v.305l-.023.024v1.574c.07.816.125 1.87.875 2.414.691.476 1.609-.055 1.8-.793.204-.543.25-1.074.297-1.621v-1.574c-.07-.829-.183-1.985-1.136-2.313l-.079-.023-.023-.024h-.102l-.023-.023h-.258Zm0 0ZM11.543 142.492v.906h-.918v-.906Zm0 0ZM16.41 135.758c.293.047.633.078.918.215v.656c-.781-.34-1.805-.383-2.414.309-.547.578-.797 1.437-.816 2.199.656-.875 2.14-1.36 2.945-.453.805.93.941 2.265.578 3.402-.394.906-1.312 1.734-2.336 1.539-1.383-.113-2.004-1.652-2.074-2.832-.262-1.668.137-3.766 1.723-4.719l.023-.012.238-.125.07-.019.032-.023.195-.06.156-.042.102-.023h.125l.023-.012Zm0 0Zm-1.113 3.152c-.985.168-1.305 1.36-1.18 2.164.059.762.352 1.77 1.227 1.93.93.125 1.531-.875 1.554-1.68.043-.816 0-1.746-.714-2.277l-.16-.082-.126-.031-.101-.024-.024-.023h-.453Zm0 0ZM6.863 102.727c1.074.078 1.79 1.066 1.985 2.062.101.453.125.883.168 1.34v1.156c-.055 1.18-.34 2.73-1.621 3.207-1.11.442-2.415-.25-2.743-1.383-.25-.601-.273-1.214-.332-1.824v-1.156c.059-1.18.309-2.746 1.578-3.266l.055-.023.047-.012.059-.023.168-.047.101-.02h.125l.024-.011Zm0 0Zm-.351.691c-.953.113-1.239 1.258-1.305 2.027v.309l-.023.023v1.575c.07.816.125 1.87.875 2.414.691.476 1.609-.055 1.8-.793.204-.543.25-1.078.297-1.621v-1.575c-.07-.828-.183-1.984-1.136-2.316l-.079-.02-.023-.023h-.102l-.023-.023h-.258Zm0 0ZM11.543 109.46v.907h-.918v-.906Zm0 0ZM15.695 102.727c1.203.043 2.336 1.335 1.86 2.539-.203.554-.77.894-1.235 1.132 1.157.34 1.86 1.692 1.336 2.801-.543 1.442-2.61 1.895-3.742.852-1.031-.817-1.066-2.586.078-3.313.172-.18.488-.238.637-.37-.988-.286-1.656-1.43-1.191-2.395.374-.864 1.34-1.336 2.257-1.246Zm0 0Zm-.43.644c-.84.024-1.43.977-1.148 1.723.332 1.293 2.496 1.25 2.746-.078.227-.739-.363-1.621-1.168-1.645l-.023-.012h-.387Zm0 0Zm.02 3.367c-.984.07-1.473 1.25-1.21 2.086.167 1.192 1.87 1.543 2.538.59.645-.871.328-2.437-.84-2.676h-.101l-.024-.02h-.351Zm0 0ZM7.215 69.695v6.996l.012.02H8.62v.625H4.934v-.625h1.394l.024-.02v-5.875c-.477.16-.977.262-1.473.25v-.636c.746.011 1.562-.192 2.129-.735Zm0 0ZM11.543 76.43v.906h-.918v-.906Zm0 0ZM15.672 69.695c1.078.078 1.793 1.067 1.984 2.063.102.453.125.883.172 1.336v1.16c-.058 1.176-.344 2.73-1.625 3.207-1.11.441-2.414-.25-2.742-1.383-.25-.601-.274-1.215-.328-1.824v-1.16c.055-1.176.305-2.742 1.574-3.266l.059-.02.043-.011.058-.024.172-.046.102-.02h.125l.02-.012Zm0 0Zm-.352.692c-.953.113-1.234 1.258-1.304 2.027v.309l-.024.02v1.577c.07.817.125 1.871.875 2.414.692.477 1.61-.054 1.801-.793.207-.543.25-1.078.297-1.62v-1.579c-.067-.824-.18-1.98-1.133-2.312l-.082-.02-.02-.023h-.105l-.02-.024h-.261Zm0 0ZM7.215 36.664v6.992l.012.024H8.62v.625H4.934v-.625h1.394l.024-.024v-5.87c-.477.16-.977.26-1.473.25v-.638c.746.012 1.562-.191 2.129-.734Zm0 0ZM11.543 43.398v.907h-.918v-.907Zm0 0ZM15.547 36.664c1.316.031 2.36 1.383 2.156 2.652-.137 1.27-1.328 1.996-2.18 2.79l-.363.374-.043.02-.453.445-.035.02-.453.457-.047.02-.102.101.024.012h3.672v.75h-4.489v-.68l1.825-1.828c.875-.758 1.894-1.746 1.734-2.992-.09-.727-.703-1.395-1.45-1.45-.761-.113-1.429.485-1.597 1.211l-.023.036-.024.078-.035.125-.066.25-.012.058c-.16-.195-.328-.398-.453-.613.226-.93.972-1.805 1.96-1.836Zm0 0ZM7.215 3.629v6.996l.012.023H8.62v.625H4.934v-.625h1.394l.024-.023V4.754c-.477.156-.977.262-1.473.25v-.637c.746.012 1.562-.191 2.129-.738Zm0 0ZM11.543 10.367v.906h-.918v-.906Zm0 0ZM16.84 3.867v4.774l.023.023h1.121v.68h-1.12l-.024.011v1.918h-.863V9.355l-.02-.011h-2.996V8.64c.953-1.586 1.906-3.184 2.86-4.774Zm0 0Zm-.84.434c-.227 1.18-.953 2.187-1.496 3.219-.215.375-.5.78-.656 1.144h2.175l.012-.023V4.3l-.012-.024Zm0 0Zm0 0"/><path style="fill:none;stroke-width:.02;stroke-linecap:butt;stroke-linejoin:miter;stroke:#000;stroke-opacity:1;stroke-miterlimit:10" d="M11.7 1.777h-.15M11.7 2.943h-.15M11.7 4.108h-.15M11.7 5.273h-.15M11.7 6.438h-.15M11.7 7.604h-.15" transform="matrix(28.34646 0 0 -28.34646 1 256.118)"/><path style="fill:none;stroke-width:.02;stroke-linecap:round;stroke-linejoin:miter;stroke:#000;stroke-opacity:1;stroke-miterlimit:10" d="M11.7.612v8.157" transform="matrix(28.34646 0 0 -28.34646 1 256.118)"/><path style="fill:none;stroke-width:.02;stroke-linecap:butt;stroke-linejoin:miter;stroke:#000;stroke-opacity:1;stroke-miterlimit:10" d="M2.065.612v.15M3.27.612v.15M4.474.612v.15M5.678.612v.15M6.883.612v.15M8.087.612v.15M9.291.612v.15M10.496.612v.15" transform="matrix(28.34646 0 0 -28.34646 1 256.118)"/><path style="fill:none;stroke-width:.02;stroke-linecap:round;stroke-linejoin:miter;stroke:#000;stroke-opacity:1;stroke-miterlimit:10" d="M.86.612H11.7" transform="matrix(28.34646 0 0 -28.34646 1 256.118)"/><path style="stroke:none;fill-rule:nonzero;fill:#000;fill-opacity:1" d="M23.785 250.484v.633h-2.973v-.633Zm0 0ZM28.219 245.652c.293.047.633.078.918.215v.66c-.782-.343-1.805-.386-2.414.305-.547.578-.793 1.441-.817 2.2.657-.872 2.14-1.36 2.946-.454.808.93.941 2.266.578 3.402-.395.907-1.313 1.735-2.332 1.543-1.387-.117-2.008-1.656-2.078-2.835-.258-1.668.136-3.766 1.726-4.72l.02-.011.238-.121.07-.024.031-.023.196-.059.156-.042.105-.024h.122l.023-.012Zm0 0Zm-1.114 3.153c-.984.172-1.3 1.36-1.175 2.164.054.761.351 1.77 1.222 1.93.93.124 1.532-.876 1.555-1.68.043-.817 0-1.746-.715-2.278l-.16-.078-.125-.035-.102-.023-.023-.024h-.453Zm0 0ZM57.926 250.484v.633h-2.973v-.633Zm0 0ZM62.79 245.89v4.774l.023.024h1.12v.68h-1.12l-.024.01v1.915h-.863v-1.914l-.024-.012H58.91v-.703c.953-1.586 1.906-3.187 2.86-4.773Zm0 0Zm-.84.43c-.227 1.18-.954 2.192-1.497 3.223-.215.371-.5.781-.656 1.144h2.176l.011-.023v-4.344l-.011-.02Zm0 0ZM92.063 250.484v.633h-2.97v-.633Zm0 0ZM95.637 245.652c1.312.036 2.355 1.383 2.152 2.653-.137 1.27-1.328 1.996-2.176 2.789l-.363.375-.047.023-.453.442-.035.023-.453.453-.043.024-.102.101.02.012h3.675v.746H93.32v-.68l1.828-1.824c.872-.762 1.891-1.746 1.735-2.992-.09-.727-.703-1.395-1.453-1.453-.758-.114-1.426.488-1.598 1.215l-.023.03-.024.083-.031.125-.07.25-.012.055c-.156-.192-.328-.399-.453-.614.226-.93.976-1.8 1.96-1.836Zm0 0ZM128.012 245.652c1.078.078 1.789 1.067 1.984 2.063.102.453.125.887.168 1.34v1.156c-.055 1.18-.34 2.73-1.621 3.207-1.11.445-2.414-.246-2.742-1.383-.25-.601-.274-1.21-.328-1.824v-1.156c.054-1.18.304-2.746 1.574-3.266l.058-.023.043-.012.059-.024.168-.042.102-.024h.125l.023-.012Zm0 0Zm-.352.692c-.953.113-1.238 1.258-1.305 2.031v.305l-.023.023v1.574c.07.817.125 1.871.875 2.418.691.477 1.61-.058 1.8-.797.208-.543.25-1.074.298-1.62v-1.575c-.07-.828-.184-1.984-1.137-2.312l-.078-.024-.024-.023h-.101l-.024-.024h-.257Zm0 0ZM162.027 245.652c1.313.036 2.356 1.383 2.153 2.653-.137 1.27-1.328 1.996-2.176 2.789l-.363.375-.047.023-.453.442-.036.023-.453.453-.043.024-.101.101.02.012h3.675v.746h-4.492v-.68l1.828-1.824c.871-.762 1.89-1.746 1.734-2.992-.09-.727-.703-1.395-1.453-1.453-.757-.114-1.425.488-1.597 1.215l-.024.03-.023.083-.031.125-.07.25-.012.055c-.157-.192-.329-.399-.454-.614.227-.93.977-1.8 1.961-1.836Zm0 0ZM197.457 245.89v4.774l.023.024h1.122v.68h-1.122l-.023.01v1.915h-.863v-1.914l-.02-.012h-2.996v-.703c.953-1.586 1.906-3.187 2.86-4.773Zm0 0Zm-.84.43c-.226 1.18-.953 2.192-1.496 3.223-.215.371-.5.781-.656 1.144h2.176l.011-.023v-4.344l-.011-.02Zm0 0ZM231.164 245.652c.297.047.637.078.922.215v.66c-.785-.343-1.805-.386-2.418.305-.543.578-.793 1.441-.816 2.2.66-.872 2.144-1.36 2.949-.454.804.93.941 2.266.578 3.402-.399.907-1.316 1.735-2.336 1.543-1.383-.117-2.008-1.656-2.074-2.835-.262-1.668.136-3.766 1.722-4.72l.024-.011.238-.121.067-.024.035-.023.191-.059.16-.042.102-.024h.125l.023-.012Zm0 0Zm-1.11 3.153c-.988.172-1.304 1.36-1.179 2.164.059.761.352 1.77 1.227 1.93.93.124 1.527-.876 1.55-1.68.047-.817 0-1.746-.714-2.278l-.157-.078-.125-.035-.101-.023-.024-.024h-.453Zm0 0ZM264.59 245.652c1.203.047 2.336 1.34 1.86 2.54-.204.554-.77.898-1.235 1.136 1.156.34 1.86 1.688 1.336 2.797-.543 1.441-2.606 1.895-3.742.852-1.032-.817-1.063-2.586.082-3.309.168-.184.488-.238.632-.375-.984-.285-1.652-1.43-1.187-2.395.371-.859 1.336-1.335 2.254-1.246Zm0 0Zm-.43.649c-.84.02-1.43.972-1.144 1.722.328 1.293 2.492 1.247 2.742-.082.226-.734-.363-1.62-1.168-1.64l-.024-.012h-.382Zm0 0Zm.024 3.367c-.989.066-1.477 1.246-1.215 2.086.172 1.187 1.87 1.539 2.539.59.648-.875.328-2.438-.84-2.676h-.102l-.02-.023h-.35Zm0 0ZM296.223 245.652v6.996l.011.024h1.395v.621h-3.684v-.621h1.395l.023-.024v-5.875c-.476.16-.976.262-1.476.25v-.632c.75.011 1.566-.196 2.133-.739Zm0 0ZM301.543 245.652c1.074.078 1.789 1.067 1.984 2.063.102.453.125.887.168 1.34v1.156c-.054 1.18-.34 2.73-1.62 3.207-1.11.445-2.415-.246-2.743-1.383-.25-.601-.273-1.21-.332-1.824v-1.156c.059-1.18.309-2.746 1.578-3.266l.055-.023.047-.012.058-.024.168-.042.102-.024h.125l.023-.012Zm0 0Zm-.352.692c-.953.113-1.238 1.258-1.304 2.031v.305l-.024.023v1.574c.07.817.125 1.871.875 2.418.692.477 1.61-.058 1.801-.797.203-.543.25-1.074.297-1.62v-1.575c-.07-.828-.184-1.984-1.137-2.312l-.078-.024-.023-.023h-.102l-.023-.024h-.258Zm0 0ZM330.363 245.652v6.996l.012.024h1.395v.621h-3.684v-.621h1.394l.02-.024v-5.875c-.477.16-.973.262-1.473.25v-.632c.75.011 1.567-.196 2.133-.739Zm0 0ZM335.555 245.652c1.316.036 2.36 1.383 2.156 2.653-.137 1.27-1.328 1.996-2.176 2.789l-.363.375-.047.023-.453.442-.035.023-.453.453-.043.024-.106.101.024.012h3.675v.746h-4.492v-.68l1.828-1.824c.871-.762 1.89-1.746 1.735-2.992-.094-.727-.703-1.395-1.453-1.453-.758-.114-1.43.488-1.598 1.215l-.024.03-.023.083-.031.125-.07.25-.012.055c-.156-.192-.328-.399-.453-.614.226-.93.976-1.8 1.96-1.836Zm0 0Zm0 0"/><path style="fill:none;stroke-width:.02;stroke-linecap:butt;stroke-linejoin:miter;stroke:#000;stroke-opacity:1;stroke-miterlimit:10" d="M2.065 8.769v-.15M3.27 8.769v-.15M4.474 8.769v-.15M5.678 8.769v-.15M6.883 8.769v-.15M8.087 8.769v-.15M9.291 8.769v-.15M10.496 8.769v-.15" transform="matrix(28.34646 0 0 -28.34646 1 256.118)"/><path style="fill:none;stroke-width:.02;stroke-linecap:round;stroke-linejoin:miter;stroke:#000;stroke-opacity:1;stroke-miterlimit:10" d="M.86 8.769H11.7" transform="matrix(28.34646 0 0 -28.34646 1 256.118)"/></svg>