<svg xmlns="http://www.w3.org/2000/svg" width="456.21" height="342.824" viewBox="0 0 342.157 257.118"><path style="fill-rule:nonzero;fill:#6495ed;fill-opacity:1;stroke-width:.02;stroke-linecap:butt;stroke-linejoin:miter;stroke:#fff;stroke-opacity:1;stroke-miterlimit:10" d="M1.622.612h.656v.006h-.656Zm0 0" transform="matrix(28.34646 0 0 -28.34646 1 256.118)"/><path style="fill-rule:nonzero;fill:#6495ed;fill-opacity:1;stroke-width:.02;stroke-linecap:butt;stroke-linejoin:miter;stroke:#fff;stroke-opacity:1;stroke-miterlimit:10" d="M2.277.612h.656v.026h-.656Zm0 0" transform="matrix(28.34646 0 0 -28.34646 1 256.118)"/><path style="fill-rule:nonzero;fill:#6495ed;fill-opacity:1;stroke-width:.02;stroke-linecap:butt;stroke-linejoin:miter;stroke:#fff;stroke-opacity:1;stroke-miterlimit:10" d="M2.933.612h.656v.235h-.656ZM3.589.612h.656v.887h-.656ZM4.245.612H4.9v2.304h-.655ZM4.9.612h.656v4.529H4.9ZM5.556.612h.656v6.793h-.656ZM6.212.612h.655v6.82h-.655ZM6.867.612h.656v5.54h-.656ZM7.523.612h.656v3.38h-.656ZM8.179.612h.655v1.553H8.18ZM8.834.612h.656v.405h-.656ZM9.49.612h.656v.104H9.49ZM10.146.612h.656v.04h-.656Zm0 0" transform="matrix(28.34646 0 0 -28.34646 1 256.118)"/><path style="fill:none;stroke-width:.02;stroke-linecap:butt;stroke-linejoin:miter;stroke:#000;stroke-opacity:1;stroke-miterlimit:10" d="M1.06 2.243h.15M1.06 3.875h.15M1.06 5.506h.15M1.06 7.138h.15" transform="matrix(28.34646 0 0 -28.34646 1 256.118)"/><path style="fill:none;stroke-width:.02;stroke-linecap:round;stroke-linejoin:miter;stroke:#000;stroke-opacity:1;stroke-miterlimit:10" d="M1.06.612v8.157" transform="matrix(28.34646 0 0 -28.34646 1 256.118)"/><path style="stroke:none;fill-rule:nonzero;fill:#000;fill-opacity:1" d="M12.531 234.852c1.078.082 1.793 1.066 1.985 2.066.101.453.125.883.171 1.336v1.156c-.058 1.18-.343 2.735-1.624 3.211-1.11.441-2.415-.25-2.743-1.387-.25-.597-.273-1.21-.328-1.824v-1.156c.055-1.18.305-2.742 1.574-3.266l.059-.023.043-.012.059-.02.168-.046.105-.024h.125l.02-.011Zm0 0Zm-.351.691c-.953.113-1.235 1.262-1.305 2.031v.305l-.023.023v1.578c.07.817.125 1.868.875 2.415.691.476 1.609-.06 1.8-.793.207-.547.25-1.079.297-1.622v-1.578c-.066-.828-.183-1.984-1.133-2.312l-.082-.024-.02-.023h-.105l-.02-.02h-.26Zm0 0ZM17.215 241.586v.91h-.918v-.91Zm0 0ZM21.34 234.852c1.078.082 1.793 1.066 1.984 2.066.102.453.125.883.172 1.336v1.156c-.058 1.18-.34 2.735-1.621 3.211-1.113.441-2.414-.25-2.746-1.387-.246-.597-.27-1.21-.328-1.824v-1.156c.058-1.18.308-2.742 1.578-3.266l.055-.023.046-.012.055-.02.172-.046.102-.024h.125l.023-.011Zm0 0Zm-.352.691c-.949.113-1.234 1.262-1.3 2.031v.305l-.024.023v1.578c.066.817.125 1.868.871 2.415.692.476 1.61-.06 1.805-.793.203-.547.25-1.079.293-1.622v-1.578c-.067-.828-.18-1.984-1.133-2.312l-.078-.024-.024-.023h-.101l-.024-.02h-.261Zm0 0ZM6.863 188.61c1.074.077 1.79 1.066 1.985 2.062.101.453.125.883.168 1.336v1.16c-.055 1.176-.34 2.73-1.621 3.207-1.11.441-2.415-.25-2.743-1.383-.25-.601-.273-1.215-.332-1.824v-1.16c.059-1.176.309-2.742 1.578-3.262l.055-.023.047-.012.059-.024.168-.046.101-.02h.125l.024-.012Zm0 0Zm-.351.69c-.953.114-1.239 1.259-1.305 2.028v.309l-.023.023v1.574c.07.817.125 1.871.875 2.414.691.477 1.609-.054 1.8-.793.204-.542.25-1.078.297-1.62v-1.575c-.07-.828-.183-1.984-1.136-2.316l-.079-.02-.023-.023h-.102l-.023-.024h-.258Zm0 0ZM11.543 195.344v.906h-.918v-.906Zm0 0ZM15.672 188.61c1.078.077 1.793 1.066 1.984 2.062.102.453.125.883.172 1.336v1.16c-.058 1.176-.344 2.73-1.625 3.207-1.11.441-2.414-.25-2.742-1.383-.25-.601-.274-1.215-.328-1.824v-1.16c.055-1.176.305-2.742 1.574-3.262l.059-.023.043-.012.058-.024.172-.046.102-.02h.125l.02-.012Zm0 0Zm-.352.69c-.953.114-1.234 1.259-1.304 2.028v.309l-.024.023v1.574c.07.817.125 1.871.875 2.414.692.477 1.61-.054 1.801-.793.207-.542.25-1.078.297-1.62v-1.575c-.067-.828-.18-1.984-1.133-2.316l-.082-.02-.02-.023h-.105l-.02-.024h-.261Zm0 0ZM23.02 188.848v.703h-2.95l-.023.012v2.324c.273-.184.66-.422 1.023-.434 1.282-.137 2.266 1.125 2.325 2.293.18 1.484-1.215 2.957-2.711 2.73-.75-.023-1.473-.464-1.907-1.078.125-.168.227-.464.375-.566.535 1.043 2.258 1.465 2.95.363.441-.828.43-1.882-.079-2.675-.59-.758-1.757-.293-2.03.511h-.74v-4.183Zm0 0ZM12.531 142.363c1.078.078 1.793 1.067 1.985 2.063.101.457.125.887.171 1.34v1.156c-.058 1.18-.343 2.734-1.624 3.207-1.11.445-2.415-.246-2.743-1.383-.25-.601-.273-1.21-.328-1.824v-1.156c.055-1.18.305-2.746 1.574-3.266l.059-.023.043-.012.059-.024.168-.043.105-.023h.125l.02-.012Zm0 0Zm-.351.692c-.953.113-1.235 1.257-1.305 2.03v.306l-.023.023v1.574c.07.817.125 1.871.875 2.418.691.477 1.609-.058 1.8-.793.207-.547.25-1.078.297-1.625v-1.574c-.066-.828-.183-1.984-1.133-2.312l-.082-.024-.02-.023h-.105l-.02-.024h-.26Zm0 0ZM17.215 149.098v.91h-.918v-.91Zm0 0ZM21.691 142.363v6.996l.012.024h1.395v.625h-3.684v-.625h1.395l.023-.024v-5.875c-.477.16-.977.262-1.477.25v-.632c.75.011 1.567-.196 2.133-.739Zm0 0ZM6.863 96.121c1.074.078 1.79 1.063 1.985 2.063.101.453.125.882.168 1.336v1.156c-.055 1.18-.34 2.734-1.621 3.21-1.11.442-2.415-.25-2.743-1.382-.25-.602-.273-1.215-.332-1.828V99.52c.059-1.18.309-2.743 1.578-3.266l.055-.02.047-.011.059-.024.168-.047.101-.023h.125l.024-.008Zm0 0Zm-.351.692c-.953.113-1.239 1.257-1.305 2.027v.308l-.023.02v1.578c.07.817.125 1.871.875 2.414.691.477 1.609-.055 1.8-.793.204-.543.25-1.078.297-1.62v-1.579c-.07-.828-.183-1.984-1.136-2.313l-.079-.023-.023-.02h-.102l-.023-.023h-.258Zm0 0ZM11.543 102.855v.907h-.918v-.907Zm0 0ZM16.023 96.121v6.996l.012.02h1.395v.625h-3.684v-.625h1.395l.02-.02v-5.875c-.473.16-.973.262-1.473.25v-.637c.75.012 1.566-.19 2.132-.734Zm0 0ZM23.02 96.36v.699h-2.95l-.023.011v2.325c.273-.18.66-.418 1.023-.43 1.282-.137 2.266 1.12 2.325 2.289.18 1.488-1.215 2.96-2.711 2.734-.75-.023-1.473-.465-1.907-1.078.125-.168.227-.465.375-.566.535 1.043 2.258 1.465 2.95.363.441-.828.43-1.883-.079-2.676-.59-.758-1.757-.293-2.03.512h-.74v-4.184Zm0 0ZM12.531 49.875c1.078.078 1.793 1.066 1.985 2.063.101.453.125.886.171 1.34v1.156c-.058 1.18-.343 2.73-1.624 3.207-1.11.445-2.415-.25-2.743-1.383-.25-.602-.273-1.211-.328-1.824v-1.157c.055-1.18.305-2.746 1.574-3.265l.059-.024.043-.011.059-.024.168-.043.105-.023h.125l.02-.012Zm0 0Zm-.351.691c-.953.114-1.235 1.258-1.305 2.032v.304l-.023.024V54.5c.07.816.125 1.871.875 2.418.691.473 1.609-.059 1.8-.797.207-.543.25-1.074.297-1.621v-1.574c-.066-.828-.183-1.985-1.133-2.313l-.082-.023-.02-.024h-.105l-.02-.023h-.26Zm0 0ZM17.215 56.61v.906h-.918v-.907Zm0 0ZM21.215 49.875c1.316.035 2.36 1.383 2.156 2.652-.137 1.27-1.328 1.996-2.176 2.79l-.363.374-.047.024-.453.441-.035.024-.453.453-.043.023-.102.102.02.012h3.676v.746h-4.493v-.68l1.828-1.824c.872-.762 1.891-1.746 1.735-2.992-.09-.727-.703-1.395-1.453-1.454-.758-.113-1.43.489-1.598 1.215l-.023.032-.024.082-.031.125-.07.246-.012.058c-.156-.191-.328-.398-.453-.613.226-.93.976-1.8 1.96-1.836Zm0 0ZM6.863 3.629c1.074.082 1.79 1.066 1.985 2.066.101.453.125.883.168 1.336v1.157c-.055 1.18-.34 2.734-1.621 3.21-1.11.442-2.415-.25-2.743-1.382-.25-.602-.273-1.215-.332-1.829V7.032c.059-1.18.309-2.742 1.578-3.265l.055-.024L6 3.734l.059-.023.168-.047.101-.023h.125l.024-.012Zm0 0Zm-.351.691c-.953.117-1.239 1.262-1.305 2.032v.304l-.023.024v1.578c.07.816.125 1.87.875 2.414.691.476 1.609-.059 1.8-.793.204-.547.25-1.078.297-1.621V6.68c-.07-.828-.183-1.985-1.136-2.313l-.079-.023-.023-.024h-.102l-.023-.02h-.258Zm0 0ZM11.543 10.367v.906h-.918v-.906Zm0 0ZM15.547 3.629c1.316.035 2.36 1.387 2.156 2.656-.137 1.27-1.328 1.996-2.18 2.79l-.363.37-.043.024-.453.445-.035.02-.453.453-.047.023-.102.102.024.011h3.672v.75h-4.489v-.68l1.825-1.827c.875-.758 1.894-1.746 1.734-2.993-.09-.726-.703-1.394-1.45-1.453-.761-.113-1.429.489-1.597 1.215l-.023.035-.024.078-.035.125-.066.25-.012.055a4.563 4.563 0 0 1-.453-.61c.226-.929.972-1.804 1.96-1.84Zm0 0ZM23.02 3.867v.703h-2.95l-.023.012v2.324c.273-.18.66-.418 1.023-.43 1.282-.136 2.266 1.122 2.325 2.29.18 1.488-1.215 2.96-2.711 2.734-.75-.023-1.473-.465-1.907-1.078.125-.168.227-.465.375-.567.535 1.043 2.258 1.461 2.95.364.441-.828.43-1.883-.079-2.676-.59-.762-1.757-.297-2.03.508h-.74V3.867Zm0 0Zm0 0"/><path style="fill:none;stroke-width:.02;stroke-linecap:butt;stroke-linejoin:miter;stroke:#000;stroke-opacity:1;stroke-miterlimit:10" d="M11.7 2.243h-.15M11.7 3.875h-.15M11.7 5.506h-.15M11.7 7.138h-.15" transform="matrix(28.34646 0 0 -28.34646 1 256.118)"/><path style="fill:none;stroke-width:.02;stroke-linecap:round;stroke-linejoin:miter;stroke:#000;stroke-opacity:1;stroke-miterlimit:10" d="M11.7.612v8.157" transform="matrix(28.34646 0 0 -28.34646 1 256.118)"/><path style="fill:none;stroke-width:.02;stroke-linecap:butt;stroke-linejoin:miter;stroke:#000;stroke-opacity:1;stroke-miterlimit:10" d="M2.243.612v.15M3.425.612v.15M4.607.612v.15M5.79.612v.15M6.971.612v.15M8.154.612v.15M9.336.612v.15M10.518.612v.15" transform="matrix(28.34646 0 0 -28.34646 1 256.118)"/><path style="fill:none;stroke-width:.02;stroke-linecap:round;stroke-linejoin:miter;stroke:#000;stroke-opacity:1;stroke-miterlimit:10" d="M1.06.612H11.7" transform="matrix(28.34646 0 0 -28.34646 1 256.118)"/><path style="stroke:none;fill-rule:nonzero;fill:#000;fill-opacity:1" d="M29.453 250.484v.633h-2.969v-.633Zm0 0ZM33.887 245.652c.297.047.636.078.918.215v.66c-.782-.343-1.801-.386-2.414.305-.543.578-.793 1.441-.817 2.2.656-.872 2.145-1.36 2.95-.454.804.93.94 2.266.578 3.402-.399.907-1.317 1.735-2.336 1.543-1.383-.117-2.008-1.656-2.075-2.835-.261-1.668.133-3.766 1.723-4.72l.023-.011.239-.121.066-.024.035-.023.192-.059.16-.042.101-.024h.125l.024-.012Zm0 0Zm-1.11 3.153c-.988.172-1.304 1.36-1.18 2.164.055.761.352 1.77 1.223 1.93.93.124 1.532-.876 1.555-1.68.047-.817 0-1.746-.715-2.278l-.156-.078-.125-.035-.106-.023-.02-.024h-.452Zm0 0ZM62.965 250.484v.633h-2.973v-.633Zm0 0ZM67.828 245.89v4.774l.024.024h1.12v.68h-1.12l-.024.01v1.915h-.863v-1.914l-.024-.012H63.95v-.703c.953-1.586 1.906-3.187 2.86-4.773Zm0 0Zm-.84.43c-.226 1.18-.953 2.192-1.496 3.223-.215.371-.5.781-.656 1.144h2.176l.011-.023v-4.344l-.011-.02Zm0 0ZM96.473 250.484v.633h-2.97v-.633Zm0 0ZM100.043 245.652c1.316.036 2.36 1.383 2.156 2.653-.136 1.27-1.328 1.996-2.176 2.789l-.363.375-.047.023-.453.442-.035.023-.453.453-.043.024-.106.101.024.012h3.676v.746H97.73v-.68l1.829-1.824c.87-.762 1.89-1.746 1.734-2.992-.094-.727-.703-1.395-1.453-1.453-.758-.114-1.43.488-1.598 1.215l-.023.03-.024.083-.03.125-.071.25-.012.055c-.156-.192-.328-.399-.453-.614.226-.93.976-1.8 1.96-1.836Zm0 0ZM131.79 245.652c1.077.078 1.792 1.067 1.983 2.063.102.453.125.887.172 1.34v1.156c-.058 1.18-.34 2.73-1.62 3.207-1.114.445-2.415-.246-2.747-1.383-.246-.601-.27-1.21-.328-1.824v-1.156c.059-1.18.309-2.746 1.578-3.266l.055-.023.047-.012.054-.024.172-.042.102-.024h.125l.023-.012Zm0 0Zm-.352.692c-.95.113-1.235 1.258-1.301 2.031v.305l-.024.023v1.574c.067.817.125 1.871.871 2.418.692.477 1.61-.058 1.805-.797.203-.543.25-1.074.293-1.62v-1.575c-.066-.828-.18-1.984-1.133-2.312l-.078-.024-.023-.023h-.102l-.023-.024h-.262Zm0 0ZM165.176 245.652c1.316.036 2.36 1.383 2.152 2.653-.133 1.27-1.324 1.996-2.176 2.789l-.363.375-.043.023-.457.442-.031.023-.453.453-.047.024-.102.101.024.012h3.672v.746h-4.489v-.68l1.825-1.824c.875-.762 1.894-1.746 1.734-2.992-.09-.727-.703-1.395-1.45-1.453-.761-.114-1.429.488-1.6 1.215l-.024.03-.02.083-.035.125-.066.25-.012.055a4.283 4.283 0 0 1-.453-.614c.226-.93.972-1.8 1.96-1.836Zm0 0ZM199.977 245.89v4.774l.023.024h1.121v.68H200l-.023.01v1.915h-.86v-1.914l-.023-.012h-2.996v-.703c.953-1.586 1.906-3.187 2.859-4.773Zm0 0Zm-.84.43c-.227 1.18-.953 2.192-1.496 3.223-.215.371-.5.781-.657 1.144h2.176l.012-.023v-4.344l-.012-.02Zm0 0ZM233.055 245.652c.297.047.636.078.918.215v.66c-.782-.343-1.801-.386-2.414.305-.543.578-.793 1.441-.817 2.2.656-.872 2.145-1.36 2.95-.454.804.93.94 2.266.578 3.402-.399.907-1.317 1.735-2.336 1.543-1.383-.117-2.008-1.656-2.075-2.835-.261-1.668.133-3.766 1.723-4.72l.023-.011.239-.121.066-.024.035-.023.192-.059.16-.042.101-.024h.125l.024-.012Zm0 0Zm-1.11 3.153c-.988.172-1.304 1.36-1.18 2.164.055.761.352 1.77 1.223 1.93.93.124 1.532-.876 1.555-1.68.047-.817 0-1.746-.715-2.278l-.16-.078-.121-.035-.106-.023-.02-.024h-.452Zm0 0ZM265.852 245.652c1.199.047 2.336 1.34 1.859 2.54-.207.554-.774.898-1.238 1.136 1.156.34 1.859 1.688 1.34 2.797-.543 1.441-2.61 1.895-3.743.852-1.03-.817-1.066-2.586.078-3.309.172-.184.489-.238.637-.375-.988-.285-1.656-1.43-1.191-2.395.375-.859 1.34-1.335 2.258-1.246Zm0 0Zm-.434.649c-.836.02-1.426.972-1.145 1.722.329 1.293 2.497 1.247 2.747-.082.226-.734-.364-1.62-1.168-1.64l-.024-.012h-.387Zm0 0Zm.023 3.367c-.984.066-1.472 1.246-1.21 2.086.167 1.187 1.87 1.539 2.539.59.644-.875.328-2.438-.84-2.676h-.102l-.023-.023h-.352Zm0 0ZM296.855 245.652v6.996l.008.024h1.399v.621h-3.688v-.621h1.395l.023-.024v-5.875c-.476.16-.976.262-1.472.25v-.632c.746.011 1.562-.196 2.128-.739Zm0 0ZM302.172 245.652c1.078.078 1.793 1.067 1.984 2.063.102.453.125.887.168 1.34v1.156c-.054 1.18-.34 2.73-1.62 3.207-1.11.445-2.415-.246-2.743-1.383-.25-.601-.274-1.21-.328-1.824v-1.156c.055-1.18.305-2.746 1.574-3.266l.059-.023.043-.012.058-.024.168-.042.106-.024h.12l.024-.012Zm0 0Zm-.352.692c-.953.113-1.234 1.258-1.304 2.031v.305l-.024.023v1.574c.07.817.125 1.871.875 2.418.692.477 1.61-.058 1.801-.797.207-.543.25-1.074.297-1.62v-1.575c-.07-.828-.184-1.984-1.133-2.312l-.082-.024-.023-.023h-.102l-.02-.024h-.261Zm0 0ZM330.363 245.652v6.996l.012.024h1.395v.621h-3.684v-.621h1.394l.02-.024v-5.875c-.477.16-.973.262-1.473.25v-.632c.75.011 1.567-.196 2.133-.739Zm0 0ZM335.555 245.652c1.316.036 2.36 1.383 2.156 2.653-.137 1.27-1.328 1.996-2.176 2.789l-.363.375-.047.023-.453.442-.035.023-.453.453-.043.024-.106.101.024.012h3.675v.746h-4.492v-.68l1.828-1.824c.871-.762 1.89-1.746 1.735-2.992-.094-.727-.703-1.395-1.453-1.453-.758-.114-1.43.488-1.598 1.215l-.024.03-.023.083-.031.125-.07.25-.012.055c-.156-.192-.328-.399-.453-.614.226-.93.976-1.8 1.96-1.836Zm0 0Zm0 0"/><path style="fill:none;stroke-width:.02;stroke-linecap:butt;stroke-linejoin:miter;stroke:#000;stroke-opacity:1;stroke-miterlimit:10" d="M2.243 8.769v-.15M3.425 8.769v-.15M4.607 8.769v-.15M5.79 8.769v-.15M6.971 8.769v-.15M8.154 8.769v-.15M9.336 8.769v-.15M10.518 8.769v-.15" transform="matrix(28.34646 0 0 -28.34646 1 256.118)"/><path style="fill:none;stroke-width:.02;stroke-linecap:round;stroke-linejoin:miter;stroke:#000;stroke-opacity:1;stroke-miterlimit:10" d="M1.06 8.769H11.7" transform="matrix(28.34646 0 0 -28.34646 1 256.118)"/></svg>