<?xml version="1.0" encoding="UTF-8"?>
<svg xmlns="http://www.w3.org/2000/svg" xmlns:xlink="http://www.w3.org/1999/xlink" width="342.15748pt" height="257.11811pt" viewBox="0 0 342.15748 257.11811" version="1.1">
<g id="surface1">
<path style="fill-rule:nonzero;fill:rgb(39.215686%,58.431373%,92.941176%);fill-opacity:1;stroke-width:0.02;stroke-linecap:butt;stroke-linejoin:miter;stroke:rgb(100%,100%,100%);stroke-opacity:1;stroke-miterlimit:10;" d="M 1.939864 0.612019 L 2.631226 0.612019 L 2.631226 0.625111 L 1.939864 0.625111 Z M 1.939864 0.612019 " transform="matrix(28.346457,0,0,-28.346457,1,256.11811)"/>
<path style="fill-rule:nonzero;fill:rgb(39.215686%,58.431373%,92.941176%);fill-opacity:1;stroke-width:0.02;stroke-linecap:butt;stroke-linejoin:miter;stroke:rgb(100%,100%,100%);stroke-opacity:1;stroke-miterlimit:10;" d="M 2.631226 0.612019 L 3.322588 0.612019 L 3.322588 0.696769 L 2.631226 0.696769 Z M 2.631226 0.612019 " transform="matrix(28.346457,0,0,-28.346457,1,256.11811)"/>
<path style="fill-rule:nonzero;fill:rgb(39.215686%,58.431373%,92.941176%);fill-opacity:1;stroke-width:0.02;stroke-linecap:butt;stroke-linejoin:miter;stroke:rgb(100%,100%,100%);stroke-opacity:1;stroke-miterlimit:10;" d="M 3.322588 0.612019 L 4.01395 0.612019 L 4.01395 0.827407 L 3.322588 0.827407 Z M 3.322588 0.612019 " transform="matrix(28.346457,0,0,-28.346457,1,256.11811)"/>
<path style="fill-rule:nonzero;fill:rgb(39.215686%,58.431373%,92.941176%);fill-opacity:1;stroke-width:0.02;stroke-linecap:butt;stroke-linejoin:miter;stroke:rgb(100%,100%,100%);stroke-opacity:1;stroke-miterlimit:10;" d="M 4.01395 0.612019 L 4.705311 0.612019 L 4.705311 1.571272 L 4.01395 1.571272 Z M 4.01395 0.612019 " transform="matrix(28.346457,0,0,-28.346457,1,256.11811)"/>
<path style="fill-rule:nonzero;fill:rgb(39.215686%,58.431373%,92.941176%);fill-opacity:1;stroke-width:0.02;stroke-linecap:butt;stroke-linejoin:miter;stroke:rgb(100%,100%,100%);stroke-opacity:1;stroke-miterlimit:10;" d="M 4.705311 0.612019 L 5.396673 0.612019 L 5.396673 2.798139 L 4.705311 2.798139 Z M 4.705311 0.612019 " transform="matrix(28.346457,0,0,-28.346457,1,256.11811)"/>
<path style="fill-rule:nonzero;fill:rgb(39.215686%,58.431373%,92.941176%);fill-opacity:1;stroke-width:0.02;stroke-linecap:butt;stroke-linejoin:miter;stroke:rgb(100%,100%,100%);stroke-opacity:1;stroke-miterlimit:10;" d="M 5.396673 0.612019 L 6.088035 0.612019 L 6.088035 4.612189 L 5.396673 4.612189 Z M 5.396673 0.612019 " transform="matrix(28.346457,0,0,-28.346457,1,256.11811)"/>
<path style="fill-rule:nonzero;fill:rgb(39.215686%,58.431373%,92.941176%);fill-opacity:1;stroke-width:0.02;stroke-linecap:butt;stroke-linejoin:miter;stroke:rgb(100%,100%,100%);stroke-opacity:1;stroke-miterlimit:10;" d="M 6.088035 0.612019 L 6.779397 0.612019 L 6.779397 6.250125 L 6.088035 6.250125 Z M 6.088035 0.612019 " transform="matrix(28.346457,0,0,-28.346457,1,256.11811)"/>
<path style="fill-rule:nonzero;fill:rgb(39.215686%,58.431373%,92.941176%);fill-opacity:1;stroke-width:0.02;stroke-linecap:butt;stroke-linejoin:miter;stroke:rgb(100%,100%,100%);stroke-opacity:1;stroke-miterlimit:10;" d="M 6.779397 0.612019 L 7.470758 0.612019 L 7.470758 7.36606 L 6.779397 7.36606 Z M 6.779397 0.612019 " transform="matrix(28.346457,0,0,-28.346457,1,256.11811)"/>
<path style="fill-rule:nonzero;fill:rgb(39.215686%,58.431373%,92.941176%);fill-opacity:1;stroke-width:0.02;stroke-linecap:butt;stroke-linejoin:miter;stroke:rgb(100%,100%,100%);stroke-opacity:1;stroke-miterlimit:10;" d="M 7.470758 0.612019 L 8.16212 0.612019 L 8.16212 6.491557 L 7.470758 6.491557 Z M 7.470758 0.612019 " transform="matrix(28.346457,0,0,-28.346457,1,256.11811)"/>
<path style="fill-rule:nonzero;fill:rgb(39.215686%,58.431373%,92.941176%);fill-opacity:1;stroke-width:0.02;stroke-linecap:butt;stroke-linejoin:miter;stroke:rgb(100%,100%,100%);stroke-opacity:1;stroke-miterlimit:10;" d="M 8.16212 0.612019 L 8.853482 0.612019 L 8.853482 4.599097 L 8.16212 4.599097 Z M 8.16212 0.612019 " transform="matrix(28.346457,0,0,-28.346457,1,256.11811)"/>
<path style="fill-rule:nonzero;fill:rgb(39.215686%,58.431373%,92.941176%);fill-opacity:1;stroke-width:0.02;stroke-linecap:butt;stroke-linejoin:miter;stroke:rgb(100%,100%,100%);stroke-opacity:1;stroke-miterlimit:10;" d="M 8.853482 0.612019 L 9.544844 0.612019 L 9.544844 2.589229 L 8.853482 2.589229 Z M 8.853482 0.612019 " transform="matrix(28.346457,0,0,-28.346457,1,256.11811)"/>
<path style="fill-rule:nonzero;fill:rgb(39.215686%,58.431373%,92.941176%);fill-opacity:1;stroke-width:0.02;stroke-linecap:butt;stroke-linejoin:miter;stroke:rgb(100%,100%,100%);stroke-opacity:1;stroke-miterlimit:10;" d="M 9.544844 0.612019 L 10.236206 0.612019 L 10.236206 1.316748 L 9.544844 1.316748 Z M 9.544844 0.612019 " transform="matrix(28.346457,0,0,-28.346457,1,256.11811)"/>
<path style="fill-rule:nonzero;fill:rgb(39.215686%,58.431373%,92.941176%);fill-opacity:1;stroke-width:0.02;stroke-linecap:butt;stroke-linejoin:miter;stroke:rgb(100%,100%,100%);stroke-opacity:1;stroke-miterlimit:10;" d="M 10.236343 0.612019 L 10.927567 0.612019 L 10.927567 0.781656 L 10.236343 0.781656 Z M 10.236343 0.612019 " transform="matrix(28.346457,0,0,-28.346457,1,256.11811)"/>
<path style="fill-rule:nonzero;fill:rgb(39.215686%,58.431373%,92.941176%);fill-opacity:1;stroke-width:0.02;stroke-linecap:butt;stroke-linejoin:miter;stroke:rgb(100%,100%,100%);stroke-opacity:1;stroke-miterlimit:10;" d="M 10.927705 0.612019 L 11.618929 0.612019 L 11.618929 0.664247 L 10.927705 0.664247 Z M 10.927705 0.612019 " transform="matrix(28.346457,0,0,-28.346457,1,256.11811)"/>
<path style="fill:none;stroke-width:0.02;stroke-linecap:butt;stroke-linejoin:miter;stroke:rgb(0%,0%,0%);stroke-opacity:1;stroke-miterlimit:10;" d="M 1.060814 2.243341 L 1.210744 2.243341 " transform="matrix(28.346457,0,0,-28.346457,1,256.11811)"/>
<path style="fill:none;stroke-width:0.02;stroke-linecap:butt;stroke-linejoin:miter;stroke:rgb(0%,0%,0%);stroke-opacity:1;stroke-miterlimit:10;" d="M 1.060814 3.8748 L 1.210744 3.8748 " transform="matrix(28.346457,0,0,-28.346457,1,256.11811)"/>
<path style="fill:none;stroke-width:0.02;stroke-linecap:butt;stroke-linejoin:miter;stroke:rgb(0%,0%,0%);stroke-opacity:1;stroke-miterlimit:10;" d="M 1.060814 5.50626 L 1.210744 5.50626 " transform="matrix(28.346457,0,0,-28.346457,1,256.11811)"/>
<path style="fill:none;stroke-width:0.02;stroke-linecap:butt;stroke-linejoin:miter;stroke:rgb(0%,0%,0%);stroke-opacity:1;stroke-miterlimit:10;" d="M 1.060814 7.137581 L 1.210744 7.137581 " transform="matrix(28.346457,0,0,-28.346457,1,256.11811)"/>
<path style="fill:none;stroke-width:0.02;stroke-linecap:round;stroke-linejoin:miter;stroke:rgb(0%,0%,0%);stroke-opacity:1;stroke-miterlimit:10;" d="M 1.060814 0.612019 L 1.060814 8.769041 " transform="matrix(28.346457,0,0,-28.346457,1,256.11811)"/>
<path style=" stroke:none;fill-rule:nonzero;fill:rgb(0%,0%,0%);fill-opacity:1;" d="M 12.53125 234.851562 C 13.609375 234.933594 14.324219 235.917969 14.515625 236.917969 C 14.617188 237.371094 14.640625 237.800781 14.6875 238.253906 L 14.6875 239.410156 C 14.628906 240.589844 14.34375 242.144531 13.0625 242.621094 C 11.953125 243.0625 10.648438 242.371094 10.320312 241.234375 C 10.070312 240.636719 10.046875 240.023438 9.992188 239.410156 L 9.992188 238.253906 C 10.046875 237.074219 10.296875 235.511719 11.566406 234.988281 L 11.625 234.964844 L 11.667969 234.953125 L 11.726562 234.933594 L 11.894531 234.886719 L 12 234.863281 L 12.125 234.863281 L 12.144531 234.851562 Z M 12.53125 234.851562 Z M 12.179688 235.542969 C 11.226562 235.65625 10.945312 236.804688 10.875 237.574219 L 10.875 237.878906 L 10.851562 237.902344 L 10.851562 239.480469 C 10.921875 240.296875 10.976562 241.347656 11.726562 241.894531 C 12.417969 242.371094 13.335938 241.835938 13.527344 241.101562 C 13.734375 240.554688 13.777344 240.023438 13.824219 239.480469 L 13.824219 237.902344 C 13.757812 237.074219 13.640625 235.917969 12.691406 235.589844 L 12.609375 235.566406 L 12.589844 235.542969 L 12.484375 235.542969 L 12.464844 235.523438 L 12.203125 235.523438 Z M 12.179688 235.542969 Z M 12.179688 235.542969 "/>
<path style=" stroke:none;fill-rule:nonzero;fill:rgb(0%,0%,0%);fill-opacity:1;" d="M 17.214844 241.585938 L 17.214844 242.496094 L 16.296875 242.496094 L 16.296875 241.585938 Z M 17.214844 241.585938 Z M 17.214844 241.585938 "/>
<path style=" stroke:none;fill-rule:nonzero;fill:rgb(0%,0%,0%);fill-opacity:1;" d="M 21.339844 234.851562 C 22.417969 234.933594 23.132812 235.917969 23.324219 236.917969 C 23.425781 237.371094 23.449219 237.800781 23.496094 238.253906 L 23.496094 239.410156 C 23.4375 240.589844 23.15625 242.144531 21.875 242.621094 C 20.761719 243.0625 19.460938 242.371094 19.128906 241.234375 C 18.882812 240.636719 18.859375 240.023438 18.800781 239.410156 L 18.800781 238.253906 C 18.859375 237.074219 19.109375 235.511719 20.378906 234.988281 L 20.433594 234.964844 L 20.480469 234.953125 L 20.535156 234.933594 L 20.707031 234.886719 L 20.808594 234.863281 L 20.933594 234.863281 L 20.957031 234.851562 Z M 21.339844 234.851562 Z M 20.988281 235.542969 C 20.039062 235.65625 19.753906 236.804688 19.6875 237.574219 L 19.6875 237.878906 L 19.664062 237.902344 L 19.664062 239.480469 C 19.730469 240.296875 19.789062 241.347656 20.535156 241.894531 C 21.226562 242.371094 22.144531 241.835938 22.339844 241.101562 C 22.542969 240.554688 22.589844 240.023438 22.632812 239.480469 L 22.632812 237.902344 C 22.566406 237.074219 22.453125 235.917969 21.5 235.589844 L 21.421875 235.566406 L 21.398438 235.542969 L 21.296875 235.542969 L 21.273438 235.523438 L 21.011719 235.523438 Z M 20.988281 235.542969 Z M 20.988281 235.542969 "/>
<path style=" stroke:none;fill-rule:nonzero;fill:rgb(0%,0%,0%);fill-opacity:1;" d="M 6.863281 188.609375 C 7.9375 188.6875 8.652344 189.675781 8.847656 190.671875 C 8.949219 191.125 8.972656 191.554688 9.015625 192.007812 L 9.015625 193.167969 C 8.960938 194.34375 8.675781 195.898438 7.394531 196.375 C 6.285156 196.816406 4.980469 196.125 4.652344 194.992188 C 4.402344 194.390625 4.378906 193.777344 4.320312 193.167969 L 4.320312 192.007812 C 4.378906 190.832031 4.628906 189.265625 5.898438 188.746094 L 5.953125 188.722656 L 6 188.710938 L 6.058594 188.6875 L 6.226562 188.640625 L 6.328125 188.621094 L 6.453125 188.621094 L 6.476562 188.609375 Z M 6.863281 188.609375 Z M 6.511719 189.300781 C 5.558594 189.414062 5.273438 190.558594 5.207031 191.328125 L 5.207031 191.636719 L 5.183594 191.660156 L 5.183594 193.234375 C 5.253906 194.050781 5.308594 195.105469 6.058594 195.648438 C 6.75 196.125 7.667969 195.59375 7.859375 194.855469 C 8.0625 194.3125 8.109375 193.777344 8.15625 193.234375 L 8.15625 191.660156 C 8.085938 190.832031 7.972656 189.675781 7.019531 189.34375 L 6.941406 189.324219 L 6.917969 189.300781 L 6.816406 189.300781 L 6.792969 189.277344 L 6.535156 189.277344 Z M 6.511719 189.300781 Z M 6.511719 189.300781 "/>
<path style=" stroke:none;fill-rule:nonzero;fill:rgb(0%,0%,0%);fill-opacity:1;" d="M 11.542969 195.34375 L 11.542969 196.25 L 10.625 196.25 L 10.625 195.34375 Z M 11.542969 195.34375 Z M 11.542969 195.34375 "/>
<path style=" stroke:none;fill-rule:nonzero;fill:rgb(0%,0%,0%);fill-opacity:1;" d="M 15.671875 188.609375 C 16.75 188.6875 17.464844 189.675781 17.65625 190.671875 C 17.757812 191.125 17.78125 191.554688 17.828125 192.007812 L 17.828125 193.167969 C 17.769531 194.34375 17.484375 195.898438 16.203125 196.375 C 15.09375 196.816406 13.789062 196.125 13.460938 194.992188 C 13.210938 194.390625 13.1875 193.777344 13.132812 193.167969 L 13.132812 192.007812 C 13.1875 190.832031 13.4375 189.265625 14.707031 188.746094 L 14.765625 188.722656 L 14.808594 188.710938 L 14.867188 188.6875 L 15.039062 188.640625 L 15.140625 188.621094 L 15.265625 188.621094 L 15.285156 188.609375 Z M 15.671875 188.609375 Z M 15.320312 189.300781 C 14.367188 189.414062 14.085938 190.558594 14.015625 191.328125 L 14.015625 191.636719 L 13.992188 191.660156 L 13.992188 193.234375 C 14.0625 194.050781 14.117188 195.105469 14.867188 195.648438 C 15.558594 196.125 16.476562 195.59375 16.667969 194.855469 C 16.875 194.3125 16.917969 193.777344 16.964844 193.234375 L 16.964844 191.660156 C 16.898438 190.832031 16.785156 189.675781 15.832031 189.34375 L 15.75 189.324219 L 15.730469 189.300781 L 15.625 189.300781 L 15.605469 189.277344 L 15.34375 189.277344 Z M 15.320312 189.300781 Z M 15.320312 189.300781 "/>
<path style=" stroke:none;fill-rule:nonzero;fill:rgb(0%,0%,0%);fill-opacity:1;" d="M 23.019531 188.847656 L 23.019531 189.550781 L 20.070312 189.550781 L 20.046875 189.5625 L 20.046875 191.886719 C 20.320312 191.703125 20.707031 191.464844 21.070312 191.453125 C 22.351562 191.316406 23.335938 192.578125 23.394531 193.746094 C 23.574219 195.230469 22.179688 196.703125 20.683594 196.476562 C 19.933594 196.453125 19.210938 196.011719 18.777344 195.398438 C 18.902344 195.230469 19.003906 194.933594 19.152344 194.832031 C 19.6875 195.875 21.410156 196.296875 22.101562 195.195312 C 22.542969 194.367188 22.53125 193.3125 22.023438 192.519531 C 21.433594 191.761719 20.265625 192.226562 19.992188 193.03125 L 19.253906 193.03125 L 19.253906 188.847656 Z M 23.019531 188.847656 Z M 23.019531 188.847656 "/>
<path style=" stroke:none;fill-rule:nonzero;fill:rgb(0%,0%,0%);fill-opacity:1;" d="M 12.53125 142.363281 C 13.609375 142.441406 14.324219 143.429688 14.515625 144.425781 C 14.617188 144.882812 14.640625 145.3125 14.6875 145.765625 L 14.6875 146.921875 C 14.628906 148.101562 14.34375 149.65625 13.0625 150.128906 C 11.953125 150.574219 10.648438 149.882812 10.320312 148.746094 C 10.070312 148.144531 10.046875 147.535156 9.992188 146.921875 L 9.992188 145.765625 C 10.046875 144.585938 10.296875 143.019531 11.566406 142.5 L 11.625 142.476562 L 11.667969 142.464844 L 11.726562 142.441406 L 11.894531 142.398438 L 12 142.375 L 12.125 142.375 L 12.144531 142.363281 Z M 12.53125 142.363281 Z M 12.179688 143.054688 C 11.226562 143.167969 10.945312 144.3125 10.875 145.085938 L 10.875 145.390625 L 10.851562 145.414062 L 10.851562 146.988281 C 10.921875 147.804688 10.976562 148.859375 11.726562 149.40625 C 12.417969 149.882812 13.335938 149.347656 13.527344 148.613281 C 13.734375 148.066406 13.777344 147.535156 13.824219 146.988281 L 13.824219 145.414062 C 13.757812 144.585938 13.640625 143.429688 12.691406 143.101562 L 12.609375 143.078125 L 12.589844 143.054688 L 12.484375 143.054688 L 12.464844 143.03125 L 12.203125 143.03125 Z M 12.179688 143.054688 Z M 12.179688 143.054688 "/>
<path style=" stroke:none;fill-rule:nonzero;fill:rgb(0%,0%,0%);fill-opacity:1;" d="M 17.214844 149.097656 L 17.214844 150.007812 L 16.296875 150.007812 L 16.296875 149.097656 Z M 17.214844 149.097656 Z M 17.214844 149.097656 "/>
<path style=" stroke:none;fill-rule:nonzero;fill:rgb(0%,0%,0%);fill-opacity:1;" d="M 21.691406 142.363281 L 21.691406 149.359375 L 21.703125 149.382812 L 23.097656 149.382812 L 23.097656 150.007812 L 19.414062 150.007812 L 19.414062 149.382812 L 20.808594 149.382812 L 20.832031 149.359375 L 20.832031 143.484375 C 20.355469 143.644531 19.855469 143.746094 19.355469 143.734375 L 19.355469 143.101562 C 20.105469 143.113281 20.921875 142.90625 21.488281 142.363281 Z M 21.691406 142.363281 Z M 21.691406 142.363281 "/>
<path style=" stroke:none;fill-rule:nonzero;fill:rgb(0%,0%,0%);fill-opacity:1;" d="M 6.863281 96.121094 C 7.9375 96.199219 8.652344 97.183594 8.847656 98.183594 C 8.949219 98.636719 8.972656 99.066406 9.015625 99.519531 L 9.015625 100.675781 C 8.960938 101.855469 8.675781 103.410156 7.394531 103.886719 C 6.285156 104.328125 4.980469 103.636719 4.652344 102.503906 C 4.402344 101.902344 4.378906 101.289062 4.320312 100.675781 L 4.320312 99.519531 C 4.378906 98.339844 4.628906 96.777344 5.898438 96.253906 L 5.953125 96.234375 L 6 96.222656 L 6.058594 96.199219 L 6.226562 96.152344 L 6.328125 96.128906 L 6.453125 96.128906 L 6.476562 96.121094 Z M 6.863281 96.121094 Z M 6.511719 96.8125 C 5.558594 96.925781 5.273438 98.070312 5.207031 98.839844 L 5.207031 99.148438 L 5.183594 99.167969 L 5.183594 100.746094 C 5.253906 101.5625 5.308594 102.617188 6.058594 103.160156 C 6.75 103.636719 7.667969 103.105469 7.859375 102.367188 C 8.0625 101.824219 8.109375 101.289062 8.15625 100.746094 L 8.15625 99.167969 C 8.085938 98.339844 7.972656 97.183594 7.019531 96.855469 L 6.941406 96.832031 L 6.917969 96.8125 L 6.816406 96.8125 L 6.792969 96.789062 L 6.535156 96.789062 Z M 6.511719 96.8125 Z M 6.511719 96.8125 "/>
<path style=" stroke:none;fill-rule:nonzero;fill:rgb(0%,0%,0%);fill-opacity:1;" d="M 11.542969 102.855469 L 11.542969 103.761719 L 10.625 103.761719 L 10.625 102.855469 Z M 11.542969 102.855469 Z M 11.542969 102.855469 "/>
<path style=" stroke:none;fill-rule:nonzero;fill:rgb(0%,0%,0%);fill-opacity:1;" d="M 16.023438 96.121094 L 16.023438 103.117188 L 16.035156 103.136719 L 17.429688 103.136719 L 17.429688 103.761719 L 13.746094 103.761719 L 13.746094 103.136719 L 15.140625 103.136719 L 15.160156 103.117188 L 15.160156 97.242188 C 14.6875 97.402344 14.1875 97.503906 13.6875 97.492188 L 13.6875 96.855469 C 14.4375 96.867188 15.253906 96.664062 15.820312 96.121094 Z M 16.023438 96.121094 Z M 16.023438 96.121094 "/>
<path style=" stroke:none;fill-rule:nonzero;fill:rgb(0%,0%,0%);fill-opacity:1;" d="M 23.019531 96.359375 L 23.019531 97.058594 L 20.070312 97.058594 L 20.046875 97.070312 L 20.046875 99.394531 C 20.320312 99.214844 20.707031 98.976562 21.070312 98.964844 C 22.351562 98.828125 23.335938 100.085938 23.394531 101.253906 C 23.574219 102.742188 22.179688 104.214844 20.683594 103.988281 C 19.933594 103.964844 19.210938 103.523438 18.777344 102.910156 C 18.902344 102.742188 19.003906 102.445312 19.152344 102.34375 C 19.6875 103.386719 21.410156 103.808594 22.101562 102.707031 C 22.542969 101.878906 22.53125 100.824219 22.023438 100.03125 C 21.433594 99.273438 20.265625 99.738281 19.992188 100.542969 L 19.253906 100.542969 L 19.253906 96.359375 Z M 23.019531 96.359375 Z M 23.019531 96.359375 "/>
<path style=" stroke:none;fill-rule:nonzero;fill:rgb(0%,0%,0%);fill-opacity:1;" d="M 12.53125 49.875 C 13.609375 49.953125 14.324219 50.941406 14.515625 51.9375 C 14.617188 52.390625 14.640625 52.824219 14.6875 53.277344 L 14.6875 54.433594 C 14.628906 55.613281 14.34375 57.164062 13.0625 57.640625 C 11.953125 58.085938 10.648438 57.390625 10.320312 56.257812 C 10.070312 55.65625 10.046875 55.046875 9.992188 54.433594 L 9.992188 53.277344 C 10.046875 52.097656 10.296875 50.53125 11.566406 50.011719 L 11.625 49.988281 L 11.667969 49.976562 L 11.726562 49.953125 L 11.894531 49.910156 L 12 49.886719 L 12.125 49.886719 L 12.144531 49.875 Z M 12.53125 49.875 Z M 12.179688 50.566406 C 11.226562 50.679688 10.945312 51.824219 10.875 52.597656 L 10.875 52.902344 L 10.851562 52.925781 L 10.851562 54.5 C 10.921875 55.316406 10.976562 56.371094 11.726562 56.917969 C 12.417969 57.390625 13.335938 56.859375 13.527344 56.121094 C 13.734375 55.578125 13.777344 55.046875 13.824219 54.5 L 13.824219 52.925781 C 13.757812 52.097656 13.640625 50.941406 12.691406 50.613281 L 12.609375 50.589844 L 12.589844 50.566406 L 12.484375 50.566406 L 12.464844 50.542969 L 12.203125 50.542969 Z M 12.179688 50.566406 Z M 12.179688 50.566406 "/>
<path style=" stroke:none;fill-rule:nonzero;fill:rgb(0%,0%,0%);fill-opacity:1;" d="M 17.214844 56.609375 L 17.214844 57.515625 L 16.296875 57.515625 L 16.296875 56.609375 Z M 17.214844 56.609375 Z M 17.214844 56.609375 "/>
<path style=" stroke:none;fill-rule:nonzero;fill:rgb(0%,0%,0%);fill-opacity:1;" d="M 21.214844 49.875 C 22.53125 49.910156 23.574219 51.257812 23.371094 52.527344 C 23.234375 53.796875 22.042969 54.523438 21.195312 55.316406 L 20.832031 55.691406 L 20.785156 55.714844 L 20.332031 56.15625 L 20.296875 56.179688 L 19.84375 56.632812 L 19.800781 56.65625 L 19.699219 56.757812 L 19.71875 56.769531 L 23.394531 56.769531 L 23.394531 57.515625 L 18.902344 57.515625 L 18.902344 56.835938 L 20.730469 55.011719 C 21.601562 54.25 22.621094 53.265625 22.464844 52.019531 C 22.375 51.292969 21.761719 50.625 21.011719 50.566406 C 20.253906 50.453125 19.582031 51.054688 19.414062 51.78125 L 19.390625 51.8125 L 19.367188 51.894531 L 19.335938 52.019531 L 19.265625 52.265625 L 19.253906 52.324219 C 19.097656 52.132812 18.925781 51.925781 18.800781 51.710938 C 19.027344 50.78125 19.777344 49.910156 20.761719 49.875 Z M 21.214844 49.875 Z M 21.214844 49.875 "/>
<path style=" stroke:none;fill-rule:nonzero;fill:rgb(0%,0%,0%);fill-opacity:1;" d="M 6.863281 3.628906 C 7.9375 3.710938 8.652344 4.695312 8.847656 5.695312 C 8.949219 6.148438 8.972656 6.578125 9.015625 7.03125 L 9.015625 8.1875 C 8.960938 9.367188 8.675781 10.921875 7.394531 11.398438 C 6.285156 11.839844 4.980469 11.148438 4.652344 10.015625 C 4.402344 9.414062 4.378906 8.800781 4.320312 8.1875 L 4.320312 7.03125 C 4.378906 5.851562 4.628906 4.289062 5.898438 3.765625 L 5.953125 3.742188 L 6 3.734375 L 6.058594 3.710938 L 6.226562 3.664062 L 6.328125 3.640625 L 6.453125 3.640625 L 6.476562 3.628906 Z M 6.863281 3.628906 Z M 6.511719 4.320312 C 5.558594 4.4375 5.273438 5.582031 5.207031 6.351562 L 5.207031 6.65625 L 5.183594 6.679688 L 5.183594 8.257812 C 5.253906 9.074219 5.308594 10.128906 6.058594 10.671875 C 6.75 11.148438 7.667969 10.613281 7.859375 9.878906 C 8.0625 9.332031 8.109375 8.800781 8.15625 8.257812 L 8.15625 6.679688 C 8.085938 5.851562 7.972656 4.695312 7.019531 4.367188 L 6.941406 4.34375 L 6.917969 4.320312 L 6.816406 4.320312 L 6.792969 4.300781 L 6.535156 4.300781 Z M 6.511719 4.320312 Z M 6.511719 4.320312 "/>
<path style=" stroke:none;fill-rule:nonzero;fill:rgb(0%,0%,0%);fill-opacity:1;" d="M 11.542969 10.367188 L 11.542969 11.273438 L 10.625 11.273438 L 10.625 10.367188 Z M 11.542969 10.367188 Z M 11.542969 10.367188 "/>
<path style=" stroke:none;fill-rule:nonzero;fill:rgb(0%,0%,0%);fill-opacity:1;" d="M 15.546875 3.628906 C 16.863281 3.664062 17.90625 5.015625 17.703125 6.285156 C 17.566406 7.554688 16.375 8.28125 15.523438 9.074219 L 15.160156 9.445312 L 15.117188 9.46875 L 14.664062 9.914062 L 14.628906 9.933594 L 14.175781 10.386719 L 14.128906 10.410156 L 14.027344 10.511719 L 14.050781 10.523438 L 17.722656 10.523438 L 17.722656 11.273438 L 13.234375 11.273438 L 13.234375 10.59375 L 15.058594 8.765625 C 15.933594 8.007812 16.953125 7.019531 16.792969 5.773438 C 16.703125 5.046875 16.089844 4.378906 15.34375 4.320312 C 14.582031 4.207031 13.914062 4.808594 13.746094 5.535156 L 13.722656 5.570312 L 13.699219 5.648438 L 13.664062 5.773438 L 13.597656 6.023438 L 13.585938 6.078125 C 13.425781 5.886719 13.257812 5.683594 13.132812 5.46875 C 13.359375 4.539062 14.105469 3.664062 15.09375 3.628906 Z M 15.546875 3.628906 Z M 15.546875 3.628906 "/>
<path style=" stroke:none;fill-rule:nonzero;fill:rgb(0%,0%,0%);fill-opacity:1;" d="M 23.019531 3.867188 L 23.019531 4.570312 L 20.070312 4.570312 L 20.046875 4.582031 L 20.046875 6.90625 C 20.320312 6.726562 20.707031 6.488281 21.070312 6.476562 C 22.351562 6.339844 23.335938 7.597656 23.394531 8.765625 C 23.574219 10.253906 22.179688 11.726562 20.683594 11.5 C 19.933594 11.476562 19.210938 11.035156 18.777344 10.421875 C 18.902344 10.253906 19.003906 9.957031 19.152344 9.855469 C 19.6875 10.898438 21.410156 11.316406 22.101562 10.21875 C 22.542969 9.390625 22.53125 8.335938 22.023438 7.542969 C 21.433594 6.78125 20.265625 7.246094 19.992188 8.050781 L 19.253906 8.050781 L 19.253906 3.867188 Z M 23.019531 3.867188 Z M 23.019531 3.867188 "/>
<path style="fill:none;stroke-width:0.02;stroke-linecap:butt;stroke-linejoin:miter;stroke:rgb(0%,0%,0%);stroke-opacity:1;stroke-miterlimit:10;" d="M 11.699958 2.243341 L 11.550027 2.243341 " transform="matrix(28.346457,0,0,-28.346457,1,256.11811)"/>
<path style="fill:none;stroke-width:0.02;stroke-linecap:butt;stroke-linejoin:miter;stroke:rgb(0%,0%,0%);stroke-opacity:1;stroke-miterlimit:10;" d="M 11.699958 3.8748 L 11.550027 3.8748 " transform="matrix(28.346457,0,0,-28.346457,1,256.11811)"/>
<path style="fill:none;stroke-width:0.02;stroke-linecap:butt;stroke-linejoin:miter;stroke:rgb(0%,0%,0%);stroke-opacity:1;stroke-miterlimit:10;" d="M 11.699958 5.50626 L 11.550027 5.50626 " transform="matrix(28.346457,0,0,-28.346457,1,256.11811)"/>
<path style="fill:none;stroke-width:0.02;stroke-linecap:butt;stroke-linejoin:miter;stroke:rgb(0%,0%,0%);stroke-opacity:1;stroke-miterlimit:10;" d="M 11.699958 7.137581 L 11.550027 7.137581 " transform="matrix(28.346457,0,0,-28.346457,1,256.11811)"/>
<path style="fill:none;stroke-width:0.02;stroke-linecap:round;stroke-linejoin:miter;stroke:rgb(0%,0%,0%);stroke-opacity:1;stroke-miterlimit:10;" d="M 11.699958 0.612019 L 11.699958 8.769041 " transform="matrix(28.346457,0,0,-28.346457,1,256.11811)"/>
<path style="fill:none;stroke-width:0.02;stroke-linecap:butt;stroke-linejoin:miter;stroke:rgb(0%,0%,0%);stroke-opacity:1;stroke-miterlimit:10;" d="M 2.390758 0.612019 L 2.390758 0.76195 " transform="matrix(28.346457,0,0,-28.346457,1,256.11811)"/>
<path style="fill:none;stroke-width:0.02;stroke-linecap:butt;stroke-linejoin:miter;stroke:rgb(0%,0%,0%);stroke-opacity:1;stroke-miterlimit:10;" d="M 3.720565 0.612019 L 3.720565 0.76195 " transform="matrix(28.346457,0,0,-28.346457,1,256.11811)"/>
<path style="fill:none;stroke-width:0.02;stroke-linecap:butt;stroke-linejoin:miter;stroke:rgb(0%,0%,0%);stroke-opacity:1;stroke-miterlimit:10;" d="M 5.05051 0.612019 L 5.05051 0.76195 " transform="matrix(28.346457,0,0,-28.346457,1,256.11811)"/>
<path style="fill:none;stroke-width:0.02;stroke-linecap:butt;stroke-linejoin:miter;stroke:rgb(0%,0%,0%);stroke-opacity:1;stroke-miterlimit:10;" d="M 6.380455 0.612019 L 6.380455 0.76195 " transform="matrix(28.346457,0,0,-28.346457,1,256.11811)"/>
<path style="fill:none;stroke-width:0.02;stroke-linecap:butt;stroke-linejoin:miter;stroke:rgb(0%,0%,0%);stroke-opacity:1;stroke-miterlimit:10;" d="M 7.710262 0.612019 L 7.710262 0.76195 " transform="matrix(28.346457,0,0,-28.346457,1,256.11811)"/>
<path style="fill:none;stroke-width:0.02;stroke-linecap:butt;stroke-linejoin:miter;stroke:rgb(0%,0%,0%);stroke-opacity:1;stroke-miterlimit:10;" d="M 9.040206 0.612019 L 9.040206 0.76195 " transform="matrix(28.346457,0,0,-28.346457,1,256.11811)"/>
<path style="fill:none;stroke-width:0.02;stroke-linecap:butt;stroke-linejoin:miter;stroke:rgb(0%,0%,0%);stroke-opacity:1;stroke-miterlimit:10;" d="M 10.370151 0.612019 L 10.370151 0.76195 " transform="matrix(28.346457,0,0,-28.346457,1,256.11811)"/>
<path style="fill:none;stroke-width:0.02;stroke-linecap:round;stroke-linejoin:miter;stroke:rgb(0%,0%,0%);stroke-opacity:1;stroke-miterlimit:10;" d="M 1.060814 0.612019 L 11.699958 0.612019 " transform="matrix(28.346457,0,0,-28.346457,1,256.11811)"/>
<path style=" stroke:none;fill-rule:nonzero;fill:rgb(0%,0%,0%);fill-opacity:1;" d="M 29.453125 250.484375 L 29.453125 251.117188 L 26.484375 251.117188 L 26.484375 250.484375 Z M 29.453125 250.484375 Z M 29.453125 250.484375 "/>
<path style=" stroke:none;fill-rule:nonzero;fill:rgb(0%,0%,0%);fill-opacity:1;" d="M 33.886719 245.652344 C 34.183594 245.699219 34.523438 245.730469 34.804688 245.867188 L 34.804688 246.527344 C 34.023438 246.183594 33.003906 246.140625 32.390625 246.832031 C 31.847656 247.410156 31.597656 248.273438 31.574219 249.03125 C 32.230469 248.160156 33.71875 247.671875 34.523438 248.578125 C 35.328125 249.507812 35.464844 250.84375 35.101562 251.980469 C 34.703125 252.886719 33.785156 253.714844 32.765625 253.523438 C 31.382812 253.40625 30.757812 251.867188 30.691406 250.6875 C 30.429688 249.019531 30.824219 246.921875 32.414062 245.96875 L 32.4375 245.957031 L 32.675781 245.835938 L 32.742188 245.8125 L 32.777344 245.789062 L 32.96875 245.730469 L 33.128906 245.6875 L 33.230469 245.664062 L 33.355469 245.664062 L 33.378906 245.652344 Z M 33.886719 245.652344 Z M 32.777344 248.804688 C 31.789062 248.976562 31.472656 250.164062 31.597656 250.96875 C 31.652344 251.730469 31.949219 252.738281 32.820312 252.898438 C 33.75 253.023438 34.351562 252.023438 34.375 251.21875 C 34.421875 250.402344 34.375 249.472656 33.660156 248.941406 L 33.503906 248.863281 L 33.378906 248.828125 L 33.273438 248.804688 L 33.253906 248.78125 L 32.800781 248.78125 Z M 32.777344 248.804688 Z M 32.777344 248.804688 "/>
<path style=" stroke:none;fill-rule:nonzero;fill:rgb(0%,0%,0%);fill-opacity:1;" d="M 67.152344 250.484375 L 67.152344 251.117188 L 64.179688 251.117188 L 64.179688 250.484375 Z M 67.152344 250.484375 Z M 67.152344 250.484375 "/>
<path style=" stroke:none;fill-rule:nonzero;fill:rgb(0%,0%,0%);fill-opacity:1;" d="M 72.015625 245.890625 L 72.015625 250.664062 L 72.039062 250.6875 L 73.160156 250.6875 L 73.160156 251.367188 L 72.039062 251.367188 L 72.015625 251.378906 L 72.015625 253.292969 L 71.15625 253.292969 L 71.15625 251.378906 L 71.132812 251.367188 L 68.136719 251.367188 L 68.136719 250.664062 C 69.089844 249.078125 70.042969 247.476562 70.996094 245.890625 Z M 72.015625 245.890625 Z M 71.175781 246.320312 C 70.949219 247.5 70.226562 248.511719 69.679688 249.542969 C 69.464844 249.914062 69.183594 250.324219 69.023438 250.6875 L 71.199219 250.6875 L 71.210938 250.664062 L 71.210938 246.320312 L 71.199219 246.300781 Z M 71.175781 246.320312 Z M 71.175781 246.320312 "/>
<path style=" stroke:none;fill-rule:nonzero;fill:rgb(0%,0%,0%);fill-opacity:1;" d="M 104.851562 250.484375 L 104.851562 251.117188 L 101.878906 251.117188 L 101.878906 250.484375 Z M 104.851562 250.484375 Z M 104.851562 250.484375 "/>
<path style=" stroke:none;fill-rule:nonzero;fill:rgb(0%,0%,0%);fill-opacity:1;" d="M 108.421875 245.652344 C 109.738281 245.6875 110.78125 247.035156 110.574219 248.304688 C 110.441406 249.574219 109.25 250.300781 108.398438 251.09375 L 108.035156 251.46875 L 107.992188 251.492188 L 107.539062 251.933594 L 107.503906 251.957031 L 107.050781 252.410156 L 107.003906 252.433594 L 106.902344 252.535156 L 106.925781 252.546875 L 110.597656 252.546875 L 110.597656 253.292969 L 106.109375 253.292969 L 106.109375 252.613281 L 107.933594 250.789062 C 108.808594 250.027344 109.828125 249.042969 109.667969 247.796875 C 109.578125 247.070312 108.964844 246.402344 108.21875 246.34375 C 107.457031 246.230469 106.789062 246.832031 106.617188 247.558594 L 106.597656 247.589844 L 106.574219 247.671875 L 106.539062 247.796875 L 106.472656 248.046875 L 106.460938 248.101562 C 106.300781 247.910156 106.132812 247.703125 106.007812 247.488281 C 106.234375 246.558594 106.980469 245.6875 107.96875 245.652344 Z M 108.421875 245.652344 Z M 108.421875 245.652344 "/>
<path style=" stroke:none;fill-rule:nonzero;fill:rgb(0%,0%,0%);fill-opacity:1;" d="M 144.355469 245.652344 C 145.433594 245.730469 146.148438 246.71875 146.339844 247.714844 C 146.441406 248.167969 146.464844 248.601562 146.511719 249.054688 L 146.511719 250.210938 C 146.453125 251.390625 146.171875 252.941406 144.890625 253.417969 C 143.777344 253.863281 142.472656 253.171875 142.144531 252.035156 C 141.894531 251.433594 141.875 250.824219 141.816406 250.210938 L 141.816406 249.054688 C 141.875 247.875 142.121094 246.308594 143.394531 245.789062 L 143.449219 245.765625 L 143.496094 245.753906 L 143.550781 245.730469 L 143.722656 245.6875 L 143.824219 245.664062 L 143.949219 245.664062 L 143.972656 245.652344 Z M 144.355469 245.652344 Z M 144.003906 246.34375 C 143.050781 246.457031 142.769531 247.601562 142.699219 248.375 L 142.699219 248.679688 L 142.679688 248.703125 L 142.679688 250.277344 C 142.746094 251.09375 142.804688 252.148438 143.550781 252.695312 C 144.242188 253.171875 145.160156 252.636719 145.355469 251.898438 C 145.558594 251.355469 145.605469 250.824219 145.648438 250.277344 L 145.648438 248.703125 C 145.582031 247.875 145.46875 246.71875 144.515625 246.390625 L 144.4375 246.367188 L 144.414062 246.34375 L 144.3125 246.34375 L 144.289062 246.320312 L 144.027344 246.320312 Z M 144.003906 246.34375 Z M 144.003906 246.34375 "/>
<path style=" stroke:none;fill-rule:nonzero;fill:rgb(0%,0%,0%);fill-opacity:1;" d="M 181.929688 245.652344 C 183.246094 245.6875 184.289062 247.035156 184.085938 248.304688 C 183.949219 249.574219 182.757812 250.300781 181.90625 251.09375 L 181.542969 251.46875 L 181.5 251.492188 L 181.046875 251.933594 L 181.011719 251.957031 L 180.558594 252.410156 L 180.511719 252.433594 L 180.410156 252.535156 L 180.433594 252.546875 L 184.105469 252.546875 L 184.105469 253.292969 L 179.617188 253.292969 L 179.617188 252.613281 L 181.441406 250.789062 C 182.316406 250.027344 183.335938 249.042969 183.175781 247.796875 C 183.085938 247.070312 182.472656 246.402344 181.726562 246.34375 C 180.964844 246.230469 180.296875 246.832031 180.125 247.558594 L 180.105469 247.589844 L 180.082031 247.671875 L 180.046875 247.796875 L 179.980469 248.046875 L 179.96875 248.101562 C 179.808594 247.910156 179.640625 247.703125 179.515625 247.488281 C 179.742188 246.558594 180.488281 245.6875 181.476562 245.652344 Z M 181.929688 245.652344 Z M 181.929688 245.652344 "/>
<path style=" stroke:none;fill-rule:nonzero;fill:rgb(0%,0%,0%);fill-opacity:1;" d="M 220.921875 245.890625 L 220.921875 250.664062 L 220.941406 250.6875 L 222.066406 250.6875 L 222.066406 251.367188 L 220.941406 251.367188 L 220.921875 251.378906 L 220.921875 253.292969 L 220.058594 253.292969 L 220.058594 251.378906 L 220.035156 251.367188 L 217.042969 251.367188 L 217.042969 250.664062 C 217.996094 249.078125 218.949219 247.476562 219.898438 245.890625 Z M 220.921875 245.890625 Z M 220.082031 246.320312 C 219.855469 247.5 219.128906 248.511719 218.585938 249.542969 C 218.367188 249.914062 218.085938 250.324219 217.925781 250.6875 L 220.105469 250.6875 L 220.117188 250.664062 L 220.117188 246.320312 L 220.105469 246.300781 Z M 220.082031 246.320312 Z M 220.082031 246.320312 "/>
<path style=" stroke:none;fill-rule:nonzero;fill:rgb(0%,0%,0%);fill-opacity:1;" d="M 258.1875 245.652344 C 258.480469 245.699219 258.824219 245.730469 259.105469 245.867188 L 259.105469 246.527344 C 258.324219 246.183594 257.304688 246.140625 256.691406 246.832031 C 256.144531 247.410156 255.898438 248.273438 255.875 249.03125 C 256.53125 248.160156 258.015625 247.671875 258.824219 248.578125 C 259.628906 249.507812 259.761719 250.84375 259.402344 251.980469 C 259.003906 252.886719 258.085938 253.714844 257.066406 253.523438 C 255.679688 253.40625 255.058594 251.867188 254.988281 250.6875 C 254.730469 249.019531 255.125 246.921875 256.714844 245.96875 L 256.734375 245.957031 L 256.972656 245.835938 L 257.042969 245.8125 L 257.078125 245.789062 L 257.269531 245.730469 L 257.425781 245.6875 L 257.53125 245.664062 L 257.65625 245.664062 L 257.675781 245.652344 Z M 258.1875 245.652344 Z M 257.078125 248.804688 C 256.089844 248.976562 255.773438 250.164062 255.898438 250.96875 C 255.953125 251.730469 256.25 252.738281 257.121094 252.898438 C 258.050781 253.023438 258.652344 252.023438 258.675781 251.21875 C 258.71875 250.402344 258.675781 249.472656 257.960938 248.941406 L 257.800781 248.863281 L 257.675781 248.828125 L 257.574219 248.804688 L 257.550781 248.78125 L 257.097656 248.78125 Z M 257.078125 248.804688 Z M 257.078125 248.804688 "/>
<path style=" stroke:none;fill-rule:nonzero;fill:rgb(0%,0%,0%);fill-opacity:1;" d="M 295.171875 245.652344 C 296.371094 245.699219 297.507812 246.992188 297.03125 248.191406 C 296.828125 248.746094 296.257812 249.089844 295.792969 249.328125 C 296.953125 249.667969 297.652344 251.015625 297.132812 252.125 C 296.589844 253.566406 294.523438 254.019531 293.390625 252.976562 C 292.359375 252.160156 292.324219 250.390625 293.46875 249.667969 C 293.640625 249.484375 293.957031 249.429688 294.105469 249.292969 C 293.117188 249.007812 292.449219 247.863281 292.914062 246.898438 C 293.289062 246.039062 294.253906 245.5625 295.171875 245.652344 Z M 295.171875 245.652344 Z M 294.738281 246.300781 C 293.902344 246.320312 293.3125 247.273438 293.59375 248.023438 C 293.921875 249.316406 296.089844 249.269531 296.339844 247.941406 C 296.566406 247.207031 295.976562 246.320312 295.171875 246.300781 L 295.148438 246.289062 L 294.761719 246.289062 Z M 294.738281 246.300781 Z M 294.761719 249.667969 C 293.777344 249.734375 293.289062 250.914062 293.550781 251.753906 C 293.71875 252.941406 295.421875 253.292969 296.089844 252.34375 C 296.734375 251.46875 296.417969 249.90625 295.25 249.667969 L 295.148438 249.667969 L 295.125 249.644531 L 294.773438 249.644531 Z M 294.761719 249.667969 Z M 294.761719 249.667969 "/>
<path style=" stroke:none;fill-rule:nonzero;fill:rgb(0%,0%,0%);fill-opacity:1;" d="M 330.363281 245.652344 L 330.363281 252.648438 L 330.375 252.671875 L 331.769531 252.671875 L 331.769531 253.292969 L 328.085938 253.292969 L 328.085938 252.671875 L 329.480469 252.671875 L 329.5 252.648438 L 329.5 246.773438 C 329.023438 246.933594 328.527344 247.035156 328.027344 247.023438 L 328.027344 246.390625 C 328.777344 246.402344 329.59375 246.195312 330.160156 245.652344 Z M 330.363281 245.652344 Z M 330.363281 245.652344 "/>
<path style=" stroke:none;fill-rule:nonzero;fill:rgb(0%,0%,0%);fill-opacity:1;" d="M 335.679688 245.652344 C 336.757812 245.730469 337.472656 246.71875 337.664062 247.714844 C 337.765625 248.167969 337.789062 248.601562 337.835938 249.054688 L 337.835938 250.210938 C 337.777344 251.390625 337.496094 252.941406 336.214844 253.417969 C 335.101562 253.863281 333.796875 253.171875 333.46875 252.035156 C 333.21875 251.433594 333.199219 250.824219 333.140625 250.210938 L 333.140625 249.054688 C 333.199219 247.875 333.445312 246.308594 334.71875 245.789062 L 334.773438 245.765625 L 334.820312 245.753906 L 334.875 245.730469 L 335.046875 245.6875 L 335.148438 245.664062 L 335.273438 245.664062 L 335.296875 245.652344 Z M 335.679688 245.652344 Z M 335.328125 246.34375 C 334.378906 246.457031 334.09375 247.601562 334.027344 248.375 L 334.027344 248.679688 L 334.003906 248.703125 L 334.003906 250.277344 C 334.070312 251.09375 334.128906 252.148438 334.875 252.695312 C 335.566406 253.171875 336.484375 252.636719 336.679688 251.898438 C 336.882812 251.355469 336.929688 250.824219 336.972656 250.277344 L 336.972656 248.703125 C 336.90625 247.875 336.792969 246.71875 335.839844 246.390625 L 335.761719 246.367188 L 335.738281 246.34375 L 335.636719 246.34375 L 335.613281 246.320312 L 335.351562 246.320312 Z M 335.328125 246.34375 Z M 335.328125 246.34375 "/>
<path style="fill:none;stroke-width:0.02;stroke-linecap:butt;stroke-linejoin:miter;stroke:rgb(0%,0%,0%);stroke-opacity:1;stroke-miterlimit:10;" d="M 2.390758 8.769041 L 2.390758 8.618972 " transform="matrix(28.346457,0,0,-28.346457,1,256.11811)"/>
<path style="fill:none;stroke-width:0.02;stroke-linecap:butt;stroke-linejoin:miter;stroke:rgb(0%,0%,0%);stroke-opacity:1;stroke-miterlimit:10;" d="M 3.720565 8.769041 L 3.720565 8.618972 " transform="matrix(28.346457,0,0,-28.346457,1,256.11811)"/>
<path style="fill:none;stroke-width:0.02;stroke-linecap:butt;stroke-linejoin:miter;stroke:rgb(0%,0%,0%);stroke-opacity:1;stroke-miterlimit:10;" d="M 5.05051 8.769041 L 5.05051 8.618972 " transform="matrix(28.346457,0,0,-28.346457,1,256.11811)"/>
<path style="fill:none;stroke-width:0.02;stroke-linecap:butt;stroke-linejoin:miter;stroke:rgb(0%,0%,0%);stroke-opacity:1;stroke-miterlimit:10;" d="M 6.380455 8.769041 L 6.380455 8.618972 " transform="matrix(28.346457,0,0,-28.346457,1,256.11811)"/>
<path style="fill:none;stroke-width:0.02;stroke-linecap:butt;stroke-linejoin:miter;stroke:rgb(0%,0%,0%);stroke-opacity:1;stroke-miterlimit:10;" d="M 7.710262 8.769041 L 7.710262 8.618972 " transform="matrix(28.346457,0,0,-28.346457,1,256.11811)"/>
<path style="fill:none;stroke-width:0.02;stroke-linecap:butt;stroke-linejoin:miter;stroke:rgb(0%,0%,0%);stroke-opacity:1;stroke-miterlimit:10;" d="M 9.040206 8.769041 L 9.040206 8.618972 " transform="matrix(28.346457,0,0,-28.346457,1,256.11811)"/>
<path style="fill:none;stroke-width:0.02;stroke-linecap:butt;stroke-linejoin:miter;stroke:rgb(0%,0%,0%);stroke-opacity:1;stroke-miterlimit:10;" d="M 10.370151 8.769041 L 10.370151 8.618972 " transform="matrix(28.346457,0,0,-28.346457,1,256.11811)"/>
<path style="fill:none;stroke-width:0.02;stroke-linecap:round;stroke-linejoin:miter;stroke:rgb(0%,0%,0%);stroke-opacity:1;stroke-miterlimit:10;" d="M 1.060814 8.769041 L 11.699958 8.769041 " transform="matrix(28.346457,0,0,-28.346457,1,256.11811)"/>
</g>
</svg>
