<?xml version="1.0" encoding="UTF-8"?>
<svg xmlns="http://www.w3.org/2000/svg" xmlns:xlink="http://www.w3.org/1999/xlink" width="342.15748pt" height="257.11811pt" viewBox="0 0 342.15748 257.11811" version="1.1">
<g id="surface1">
<path style="fill-rule:nonzero;fill:rgb(39.215686%,58.431373%,92.941176%);fill-opacity:1;stroke-width:0.02;stroke-linecap:butt;stroke-linejoin:miter;stroke:rgb(100%,100%,100%);stroke-opacity:1;stroke-miterlimit:10;" d="M 2.021582 0.612019 L 2.707156 0.612019 L 2.707156 0.625662 L 2.021582 0.625662 Z M 2.021582 0.612019 " transform="matrix(28.346457,0,0,-28.346457,1,256.11811)"/>
<path style="fill-rule:nonzero;fill:rgb(39.215686%,58.431373%,92.941176%);fill-opacity:1;stroke-width:0.02;stroke-linecap:butt;stroke-linejoin:miter;stroke:rgb(100%,100%,100%);stroke-opacity:1;stroke-miterlimit:10;" d="M 2.707156 0.612019 L 3.39273 0.612019 L 3.39273 0.700352 L 2.707156 0.700352 Z M 2.707156 0.612019 " transform="matrix(28.346457,0,0,-28.346457,1,256.11811)"/>
<path style="fill-rule:nonzero;fill:rgb(39.215686%,58.431373%,92.941176%);fill-opacity:1;stroke-width:0.02;stroke-linecap:butt;stroke-linejoin:miter;stroke:rgb(100%,100%,100%);stroke-opacity:1;stroke-miterlimit:10;" d="M 3.39273 0.612019 L 4.078304 0.612019 L 4.078304 0.836364 L 3.39273 0.836364 Z M 3.39273 0.612019 " transform="matrix(28.346457,0,0,-28.346457,1,256.11811)"/>
<path style="fill-rule:nonzero;fill:rgb(39.215686%,58.431373%,92.941176%);fill-opacity:1;stroke-width:0.02;stroke-linecap:butt;stroke-linejoin:miter;stroke:rgb(100%,100%,100%);stroke-opacity:1;stroke-miterlimit:10;" d="M 4.078304 0.612019 L 4.763878 0.612019 L 4.763878 1.611235 L 4.078304 1.611235 Z M 4.078304 0.612019 " transform="matrix(28.346457,0,0,-28.346457,1,256.11811)"/>
<path style="fill-rule:nonzero;fill:rgb(39.215686%,58.431373%,92.941176%);fill-opacity:1;stroke-width:0.02;stroke-linecap:butt;stroke-linejoin:miter;stroke:rgb(100%,100%,100%);stroke-opacity:1;stroke-miterlimit:10;" d="M 4.763878 0.612019 L 5.449452 0.612019 L 5.449452 2.889227 L 4.763878 2.889227 Z M 4.763878 0.612019 " transform="matrix(28.346457,0,0,-28.346457,1,256.11811)"/>
<path style="fill-rule:nonzero;fill:rgb(39.215686%,58.431373%,92.941176%);fill-opacity:1;stroke-width:0.02;stroke-linecap:butt;stroke-linejoin:miter;stroke:rgb(100%,100%,100%);stroke-opacity:1;stroke-miterlimit:10;" d="M 5.449452 0.612019 L 6.135026 0.612019 L 6.135026 4.778931 L 5.449452 4.778931 Z M 5.449452 0.612019 " transform="matrix(28.346457,0,0,-28.346457,1,256.11811)"/>
<path style="fill-rule:nonzero;fill:rgb(39.215686%,58.431373%,92.941176%);fill-opacity:1;stroke-width:0.02;stroke-linecap:butt;stroke-linejoin:miter;stroke:rgb(100%,100%,100%);stroke-opacity:1;stroke-miterlimit:10;" d="M 6.135026 0.612019 L 6.8206 0.612019 L 6.8206 6.48508 L 6.135026 6.48508 Z M 6.135026 0.612019 " transform="matrix(28.346457,0,0,-28.346457,1,256.11811)"/>
<path style="fill-rule:nonzero;fill:rgb(39.215686%,58.431373%,92.941176%);fill-opacity:1;stroke-width:0.02;stroke-linecap:butt;stroke-linejoin:miter;stroke:rgb(100%,100%,100%);stroke-opacity:1;stroke-miterlimit:10;" d="M 6.820738 0.612019 L 7.506174 0.612019 L 7.506174 7.647456 L 6.820738 7.647456 Z M 6.820738 0.612019 " transform="matrix(28.346457,0,0,-28.346457,1,256.11811)"/>
<path style="fill-rule:nonzero;fill:rgb(39.215686%,58.431373%,92.941176%);fill-opacity:1;stroke-width:0.02;stroke-linecap:butt;stroke-linejoin:miter;stroke:rgb(100%,100%,100%);stroke-opacity:1;stroke-miterlimit:10;" d="M 7.506312 0.612019 L 8.191748 0.612019 L 8.191748 6.736572 L 7.506312 6.736572 Z M 7.506312 0.612019 " transform="matrix(28.346457,0,0,-28.346457,1,256.11811)"/>
<path style="fill-rule:nonzero;fill:rgb(39.215686%,58.431373%,92.941176%);fill-opacity:1;stroke-width:0.02;stroke-linecap:butt;stroke-linejoin:miter;stroke:rgb(100%,100%,100%);stroke-opacity:1;stroke-miterlimit:10;" d="M 8.191886 0.612019 L 8.877322 0.612019 L 8.877322 4.765289 L 8.191886 4.765289 Z M 8.191886 0.612019 " transform="matrix(28.346457,0,0,-28.346457,1,256.11811)"/>
<path style="fill-rule:nonzero;fill:rgb(39.215686%,58.431373%,92.941176%);fill-opacity:1;stroke-width:0.02;stroke-linecap:butt;stroke-linejoin:miter;stroke:rgb(100%,100%,100%);stroke-opacity:1;stroke-miterlimit:10;" d="M 8.87746 0.612019 L 9.562896 0.612019 L 9.562896 2.671635 L 8.87746 2.671635 Z M 8.87746 0.612019 " transform="matrix(28.346457,0,0,-28.346457,1,256.11811)"/>
<path style="fill-rule:nonzero;fill:rgb(39.215686%,58.431373%,92.941176%);fill-opacity:1;stroke-width:0.02;stroke-linecap:butt;stroke-linejoin:miter;stroke:rgb(100%,100%,100%);stroke-opacity:1;stroke-miterlimit:10;" d="M 9.563034 0.612019 L 10.24847 0.612019 L 10.24847 1.3461 L 9.563034 1.3461 Z M 9.563034 0.612019 " transform="matrix(28.346457,0,0,-28.346457,1,256.11811)"/>
<path style="fill-rule:nonzero;fill:rgb(39.215686%,58.431373%,92.941176%);fill-opacity:1;stroke-width:0.02;stroke-linecap:butt;stroke-linejoin:miter;stroke:rgb(100%,100%,100%);stroke-opacity:1;stroke-miterlimit:10;" d="M 10.248608 0.612019 L 10.934044 0.612019 L 10.934044 0.788684 L 10.248608 0.788684 Z M 10.248608 0.612019 " transform="matrix(28.346457,0,0,-28.346457,1,256.11811)"/>
<path style="fill-rule:nonzero;fill:rgb(39.215686%,58.431373%,92.941176%);fill-opacity:1;stroke-width:0.02;stroke-linecap:butt;stroke-linejoin:miter;stroke:rgb(100%,100%,100%);stroke-opacity:1;stroke-miterlimit:10;" d="M 10.934182 0.612019 L 11.619618 0.612019 L 11.619618 0.666314 L 10.934182 0.666314 Z M 10.934182 0.612019 " transform="matrix(28.346457,0,0,-28.346457,1,256.11811)"/>
<path style="fill:none;stroke-width:0.02;stroke-linecap:butt;stroke-linejoin:miter;stroke:rgb(0%,0%,0%);stroke-opacity:1;stroke-miterlimit:10;" d="M 1.149973 1.971454 L 1.300041 1.971454 " transform="matrix(28.346457,0,0,-28.346457,1,256.11811)"/>
<path style="fill:none;stroke-width:0.02;stroke-linecap:butt;stroke-linejoin:miter;stroke:rgb(0%,0%,0%);stroke-opacity:1;stroke-miterlimit:10;" d="M 1.149973 3.331026 L 1.300041 3.331026 " transform="matrix(28.346457,0,0,-28.346457,1,256.11811)"/>
<path style="fill:none;stroke-width:0.02;stroke-linecap:butt;stroke-linejoin:miter;stroke:rgb(0%,0%,0%);stroke-opacity:1;stroke-miterlimit:10;" d="M 1.149973 4.690461 L 1.300041 4.690461 " transform="matrix(28.346457,0,0,-28.346457,1,256.11811)"/>
<path style="fill:none;stroke-width:0.02;stroke-linecap:butt;stroke-linejoin:miter;stroke:rgb(0%,0%,0%);stroke-opacity:1;stroke-miterlimit:10;" d="M 1.149973 6.050034 L 1.300041 6.050034 " transform="matrix(28.346457,0,0,-28.346457,1,256.11811)"/>
<path style="fill:none;stroke-width:0.02;stroke-linecap:butt;stroke-linejoin:miter;stroke:rgb(0%,0%,0%);stroke-opacity:1;stroke-miterlimit:10;" d="M 1.149973 7.409468 L 1.300041 7.409468 " transform="matrix(28.346457,0,0,-28.346457,1,256.11811)"/>
<path style="fill:none;stroke-width:0.02;stroke-linecap:round;stroke-linejoin:miter;stroke:rgb(0%,0%,0%);stroke-opacity:1;stroke-miterlimit:10;" d="M 1.149973 0.612019 L 1.149973 8.769041 " transform="matrix(28.346457,0,0,-28.346457,1,256.11811)"/>
<path style=" stroke:none;fill-rule:nonzero;fill:rgb(0%,0%,0%);fill-opacity:1;" d="M 23.871094 234.851562 C 24.945312 234.933594 25.660156 235.917969 25.855469 236.917969 C 25.957031 237.371094 25.980469 237.800781 26.023438 238.253906 L 26.023438 239.410156 C 25.96875 240.589844 25.683594 242.144531 24.402344 242.621094 C 23.292969 243.0625 21.988281 242.371094 21.660156 241.234375 C 21.410156 240.636719 21.386719 240.023438 21.332031 239.410156 L 21.332031 238.253906 C 21.386719 237.074219 21.636719 235.511719 22.90625 234.988281 L 22.960938 234.964844 L 23.007812 234.953125 L 23.066406 234.933594 L 23.234375 234.886719 L 23.335938 234.863281 L 23.460938 234.863281 L 23.484375 234.851562 Z M 23.871094 234.851562 Z M 23.519531 235.542969 C 22.566406 235.65625 22.28125 236.804688 22.214844 237.574219 L 22.214844 237.878906 L 22.191406 237.902344 L 22.191406 239.480469 C 22.261719 240.296875 22.316406 241.347656 23.066406 241.894531 C 23.757812 242.371094 24.675781 241.835938 24.867188 241.101562 C 25.070312 240.554688 25.117188 240.023438 25.164062 239.480469 L 25.164062 237.902344 C 25.09375 237.074219 24.980469 235.917969 24.027344 235.589844 L 23.949219 235.566406 L 23.925781 235.542969 L 23.824219 235.542969 L 23.800781 235.523438 L 23.542969 235.523438 Z M 23.519531 235.542969 Z M 23.519531 235.542969 "/>
<path style=" stroke:none;fill-rule:nonzero;fill:rgb(0%,0%,0%);fill-opacity:1;" d="M 12.40625 196.316406 C 13.722656 196.347656 14.765625 197.699219 14.5625 198.96875 C 14.425781 200.238281 13.234375 200.964844 12.382812 201.757812 L 12.019531 202.132812 L 11.976562 202.15625 L 11.523438 202.597656 L 11.488281 202.621094 L 11.035156 203.074219 L 10.988281 203.097656 L 10.886719 203.199219 L 10.910156 203.210938 L 14.582031 203.210938 L 14.582031 203.957031 L 10.09375 203.957031 L 10.09375 203.277344 L 11.917969 201.453125 C 12.792969 200.691406 13.8125 199.707031 13.652344 198.457031 C 13.5625 197.734375 12.949219 197.0625 12.203125 197.007812 C 11.441406 196.894531 10.773438 197.496094 10.605469 198.21875 L 10.582031 198.253906 L 10.558594 198.332031 L 10.523438 198.457031 L 10.457031 198.707031 L 10.445312 198.765625 C 10.285156 198.570312 10.117188 198.367188 9.992188 198.152344 C 10.21875 197.222656 10.964844 196.347656 11.953125 196.316406 Z M 12.40625 196.316406 Z M 12.40625 196.316406 "/>
<path style=" stroke:none;fill-rule:nonzero;fill:rgb(0%,0%,0%);fill-opacity:1;" d="M 18.199219 196.316406 C 19.277344 196.394531 19.992188 197.382812 20.183594 198.378906 C 20.285156 198.832031 20.308594 199.261719 20.355469 199.71875 L 20.355469 200.875 C 20.296875 202.054688 20.015625 203.605469 18.734375 204.082031 C 17.621094 204.523438 16.320312 203.832031 15.988281 202.699219 C 15.738281 202.097656 15.71875 201.484375 15.660156 200.875 L 15.660156 199.71875 C 15.71875 198.539062 15.96875 196.972656 17.238281 196.453125 L 17.292969 196.429688 L 17.339844 196.417969 L 17.394531 196.394531 L 17.566406 196.347656 L 17.667969 196.328125 L 17.792969 196.328125 L 17.816406 196.316406 Z M 18.199219 196.316406 Z M 17.847656 197.007812 C 16.898438 197.121094 16.613281 198.265625 16.546875 199.035156 L 16.546875 199.34375 L 16.523438 199.367188 L 16.523438 200.941406 C 16.589844 201.757812 16.648438 202.8125 17.394531 203.355469 C 18.085938 203.832031 19.003906 203.300781 19.199219 202.5625 C 19.402344 202.019531 19.449219 201.484375 19.492188 200.941406 L 19.492188 199.367188 C 19.425781 198.539062 19.3125 197.382812 18.359375 197.050781 L 18.28125 197.03125 L 18.257812 197.007812 L 18.15625 197.007812 L 18.132812 196.984375 L 17.871094 196.984375 Z M 17.847656 197.007812 Z M 17.847656 197.007812 "/>
<path style=" stroke:none;fill-rule:nonzero;fill:rgb(0%,0%,0%);fill-opacity:1;" d="M 23.871094 196.316406 C 24.945312 196.394531 25.660156 197.382812 25.855469 198.378906 C 25.957031 198.832031 25.980469 199.261719 26.023438 199.71875 L 26.023438 200.875 C 25.96875 202.054688 25.683594 203.605469 24.402344 204.082031 C 23.292969 204.523438 21.988281 203.832031 21.660156 202.699219 C 21.410156 202.097656 21.386719 201.484375 21.332031 200.875 L 21.332031 199.71875 C 21.386719 198.539062 21.636719 196.972656 22.90625 196.453125 L 22.960938 196.429688 L 23.007812 196.417969 L 23.066406 196.394531 L 23.234375 196.347656 L 23.335938 196.328125 L 23.460938 196.328125 L 23.484375 196.316406 Z M 23.871094 196.316406 Z M 23.519531 197.007812 C 22.566406 197.121094 22.28125 198.265625 22.214844 199.035156 L 22.214844 199.34375 L 22.191406 199.367188 L 22.191406 200.941406 C 22.261719 201.757812 22.316406 202.8125 23.066406 203.355469 C 23.757812 203.832031 24.675781 203.300781 24.867188 202.5625 C 25.070312 202.019531 25.117188 201.484375 25.164062 200.941406 L 25.164062 199.367188 C 25.09375 198.539062 24.980469 197.382812 24.027344 197.050781 L 23.949219 197.03125 L 23.925781 197.007812 L 23.824219 197.007812 L 23.800781 196.984375 L 23.542969 196.984375 Z M 23.519531 197.007812 Z M 23.519531 197.007812 "/>
<path style=" stroke:none;fill-rule:nonzero;fill:rgb(0%,0%,0%);fill-opacity:1;" d="M 13.699219 158.015625 L 13.699219 162.789062 L 13.722656 162.8125 L 14.84375 162.8125 L 14.84375 163.492188 L 13.722656 163.492188 L 13.699219 163.503906 L 13.699219 165.421875 L 12.835938 165.421875 L 12.835938 163.503906 L 12.816406 163.492188 L 9.820312 163.492188 L 9.820312 162.789062 C 10.773438 161.203125 11.726562 159.605469 12.679688 158.015625 Z M 13.699219 158.015625 Z M 12.859375 158.449219 C 12.632812 159.625 11.90625 160.636719 11.363281 161.667969 C 11.148438 162.042969 10.863281 162.449219 10.707031 162.8125 L 12.882812 162.8125 L 12.894531 162.789062 L 12.894531 158.449219 L 12.882812 158.425781 Z M 12.859375 158.449219 Z M 12.859375 158.449219 "/>
<path style=" stroke:none;fill-rule:nonzero;fill:rgb(0%,0%,0%);fill-opacity:1;" d="M 18.199219 157.777344 C 19.277344 157.859375 19.992188 158.84375 20.183594 159.84375 C 20.285156 160.296875 20.308594 160.726562 20.355469 161.179688 L 20.355469 162.335938 C 20.296875 163.515625 20.015625 165.070312 18.734375 165.546875 C 17.621094 165.988281 16.320312 165.296875 15.988281 164.164062 C 15.738281 163.5625 15.71875 162.949219 15.660156 162.335938 L 15.660156 161.179688 C 15.71875 160 15.96875 158.4375 17.238281 157.914062 L 17.292969 157.890625 L 17.339844 157.878906 L 17.394531 157.859375 L 17.566406 157.8125 L 17.667969 157.789062 L 17.792969 157.789062 L 17.816406 157.777344 Z M 18.199219 157.777344 Z M 17.847656 158.46875 C 16.898438 158.582031 16.613281 159.730469 16.546875 160.5 L 16.546875 160.804688 L 16.523438 160.828125 L 16.523438 162.40625 C 16.589844 163.222656 16.648438 164.277344 17.394531 164.820312 C 18.085938 165.296875 19.003906 164.761719 19.199219 164.027344 C 19.402344 163.480469 19.449219 162.949219 19.492188 162.40625 L 19.492188 160.828125 C 19.425781 160 19.3125 158.84375 18.359375 158.515625 L 18.28125 158.492188 L 18.257812 158.46875 L 18.15625 158.46875 L 18.132812 158.449219 L 17.871094 158.449219 Z M 17.847656 158.46875 Z M 17.847656 158.46875 "/>
<path style=" stroke:none;fill-rule:nonzero;fill:rgb(0%,0%,0%);fill-opacity:1;" d="M 23.871094 157.777344 C 24.945312 157.859375 25.660156 158.84375 25.855469 159.84375 C 25.957031 160.296875 25.980469 160.726562 26.023438 161.179688 L 26.023438 162.335938 C 25.96875 163.515625 25.683594 165.070312 24.402344 165.546875 C 23.292969 165.988281 21.988281 165.296875 21.660156 164.164062 C 21.410156 163.5625 21.386719 162.949219 21.332031 162.335938 L 21.332031 161.179688 C 21.386719 160 21.636719 158.4375 22.90625 157.914062 L 22.960938 157.890625 L 23.007812 157.878906 L 23.066406 157.859375 L 23.234375 157.8125 L 23.335938 157.789062 L 23.460938 157.789062 L 23.484375 157.777344 Z M 23.871094 157.777344 Z M 23.519531 158.46875 C 22.566406 158.582031 22.28125 159.730469 22.214844 160.5 L 22.214844 160.804688 L 22.191406 160.828125 L 22.191406 162.40625 C 22.261719 163.222656 22.316406 164.277344 23.066406 164.820312 C 23.757812 165.296875 24.675781 164.761719 24.867188 164.027344 C 25.070312 163.480469 25.117188 162.949219 25.164062 162.40625 L 25.164062 160.828125 C 25.09375 160 24.980469 158.84375 24.027344 158.515625 L 23.949219 158.492188 L 23.925781 158.46875 L 23.824219 158.46875 L 23.800781 158.449219 L 23.542969 158.449219 Z M 23.519531 158.46875 Z M 23.519531 158.46875 "/>
<path style=" stroke:none;fill-rule:nonzero;fill:rgb(0%,0%,0%);fill-opacity:1;" d="M 13.269531 119.242188 C 13.5625 119.285156 13.902344 119.320312 14.1875 119.457031 L 14.1875 120.113281 C 13.40625 119.773438 12.382812 119.730469 11.773438 120.421875 C 11.226562 121 10.976562 121.859375 10.957031 122.621094 C 11.613281 121.746094 13.097656 121.261719 13.902344 122.167969 C 14.707031 123.097656 14.84375 124.433594 14.480469 125.570312 C 14.085938 126.476562 13.167969 127.304688 12.144531 127.109375 C 10.761719 126.996094 10.140625 125.457031 10.070312 124.277344 C 9.808594 122.609375 10.207031 120.511719 11.792969 119.558594 L 11.816406 119.546875 L 12.054688 119.421875 L 12.125 119.398438 L 12.15625 119.378906 L 12.351562 119.320312 L 12.507812 119.277344 L 12.609375 119.253906 L 12.734375 119.253906 L 12.757812 119.242188 Z M 13.269531 119.242188 Z M 12.15625 122.394531 C 11.171875 122.5625 10.851562 123.753906 10.976562 124.558594 C 11.035156 125.320312 11.328125 126.328125 12.203125 126.488281 C 13.132812 126.613281 13.734375 125.613281 13.757812 124.808594 C 13.800781 123.992188 13.757812 123.0625 13.042969 122.53125 L 12.882812 122.449219 L 12.757812 122.417969 L 12.65625 122.394531 L 12.632812 122.371094 L 12.179688 122.371094 Z M 12.15625 122.394531 Z M 12.15625 122.394531 "/>
<path style=" stroke:none;fill-rule:nonzero;fill:rgb(0%,0%,0%);fill-opacity:1;" d="M 18.199219 119.242188 C 19.277344 119.320312 19.992188 120.308594 20.183594 121.304688 C 20.285156 121.757812 20.308594 122.191406 20.355469 122.644531 L 20.355469 123.800781 C 20.296875 124.980469 20.015625 126.53125 18.734375 127.007812 C 17.621094 127.449219 16.320312 126.757812 15.988281 125.625 C 15.738281 125.023438 15.71875 124.410156 15.660156 123.800781 L 15.660156 122.644531 C 15.71875 121.464844 15.96875 119.898438 17.238281 119.378906 L 17.292969 119.355469 L 17.339844 119.34375 L 17.394531 119.320312 L 17.566406 119.277344 L 17.667969 119.253906 L 17.792969 119.253906 L 17.816406 119.242188 Z M 18.199219 119.242188 Z M 17.847656 119.933594 C 16.898438 120.046875 16.613281 121.191406 16.546875 121.960938 L 16.546875 122.269531 L 16.523438 122.292969 L 16.523438 123.867188 C 16.589844 124.683594 16.648438 125.738281 17.394531 126.28125 C 18.085938 126.757812 19.003906 126.226562 19.199219 125.488281 C 19.402344 124.945312 19.449219 124.410156 19.492188 123.867188 L 19.492188 122.292969 C 19.425781 121.464844 19.3125 120.308594 18.359375 119.980469 L 18.28125 119.957031 L 18.257812 119.933594 L 18.15625 119.933594 L 18.132812 119.910156 L 17.871094 119.910156 Z M 17.847656 119.933594 Z M 17.847656 119.933594 "/>
<path style=" stroke:none;fill-rule:nonzero;fill:rgb(0%,0%,0%);fill-opacity:1;" d="M 23.871094 119.242188 C 24.945312 119.320312 25.660156 120.308594 25.855469 121.304688 C 25.957031 121.757812 25.980469 122.191406 26.023438 122.644531 L 26.023438 123.800781 C 25.96875 124.980469 25.683594 126.53125 24.402344 127.007812 C 23.292969 127.449219 21.988281 126.757812 21.660156 125.625 C 21.410156 125.023438 21.386719 124.410156 21.332031 123.800781 L 21.332031 122.644531 C 21.386719 121.464844 21.636719 119.898438 22.90625 119.378906 L 22.960938 119.355469 L 23.007812 119.34375 L 23.066406 119.320312 L 23.234375 119.277344 L 23.335938 119.253906 L 23.460938 119.253906 L 23.484375 119.242188 Z M 23.871094 119.242188 Z M 23.519531 119.933594 C 22.566406 120.046875 22.28125 121.191406 22.214844 121.960938 L 22.214844 122.269531 L 22.191406 122.292969 L 22.191406 123.867188 C 22.261719 124.683594 22.316406 125.738281 23.066406 126.28125 C 23.757812 126.757812 24.675781 126.226562 24.867188 125.488281 C 25.070312 124.945312 25.117188 124.410156 25.164062 123.867188 L 25.164062 122.292969 C 25.09375 121.464844 24.980469 120.308594 24.027344 119.980469 L 23.949219 119.957031 L 23.925781 119.933594 L 23.824219 119.933594 L 23.800781 119.910156 L 23.542969 119.910156 Z M 23.519531 119.933594 Z M 23.519531 119.933594 "/>
<path style=" stroke:none;fill-rule:nonzero;fill:rgb(0%,0%,0%);fill-opacity:1;" d="M 12.554688 80.703125 C 13.757812 80.75 14.890625 82.042969 14.414062 83.246094 C 14.210938 83.800781 13.640625 84.140625 13.175781 84.378906 C 14.335938 84.71875 15.039062 86.066406 14.515625 87.179688 C 13.972656 88.617188 11.90625 89.074219 10.773438 88.027344 C 9.742188 87.214844 9.707031 85.445312 10.851562 84.71875 C 11.023438 84.535156 11.339844 84.480469 11.488281 84.34375 C 10.5 84.0625 9.832031 82.914062 10.296875 81.953125 C 10.671875 81.089844 11.636719 80.613281 12.554688 80.703125 Z M 12.554688 80.703125 Z M 12.125 81.351562 C 11.285156 81.375 10.695312 82.324219 10.976562 83.074219 C 11.308594 84.367188 13.472656 84.320312 13.722656 82.996094 C 13.949219 82.257812 13.359375 81.375 12.554688 81.351562 L 12.53125 81.339844 L 12.144531 81.339844 Z M 12.125 81.351562 Z M 12.144531 84.71875 C 11.160156 84.785156 10.671875 85.964844 10.933594 86.804688 C 11.101562 87.996094 12.804688 88.347656 13.472656 87.394531 C 14.117188 86.519531 13.800781 84.957031 12.632812 84.71875 L 12.53125 84.71875 L 12.507812 84.695312 L 12.15625 84.695312 Z M 12.144531 84.71875 Z M 12.144531 84.71875 "/>
<path style=" stroke:none;fill-rule:nonzero;fill:rgb(0%,0%,0%);fill-opacity:1;" d="M 18.199219 80.703125 C 19.277344 80.785156 19.992188 81.769531 20.183594 82.769531 C 20.285156 83.222656 20.308594 83.652344 20.355469 84.105469 L 20.355469 85.261719 C 20.296875 86.441406 20.015625 87.996094 18.734375 88.472656 C 17.621094 88.914062 16.320312 88.222656 15.988281 87.089844 C 15.738281 86.488281 15.71875 85.875 15.660156 85.261719 L 15.660156 84.105469 C 15.71875 82.925781 15.96875 81.363281 17.238281 80.839844 L 17.292969 80.816406 L 17.339844 80.804688 L 17.394531 80.785156 L 17.566406 80.738281 L 17.667969 80.714844 L 17.792969 80.714844 L 17.816406 80.703125 Z M 18.199219 80.703125 Z M 17.847656 81.394531 C 16.898438 81.507812 16.613281 82.65625 16.546875 83.425781 L 16.546875 83.730469 L 16.523438 83.753906 L 16.523438 85.332031 C 16.589844 86.148438 16.648438 87.203125 17.394531 87.746094 C 18.085938 88.222656 19.003906 87.6875 19.199219 86.953125 C 19.402344 86.40625 19.449219 85.875 19.492188 85.332031 L 19.492188 83.753906 C 19.425781 82.925781 19.3125 81.769531 18.359375 81.441406 L 18.28125 81.417969 L 18.257812 81.394531 L 18.15625 81.394531 L 18.132812 81.375 L 17.871094 81.375 Z M 17.847656 81.394531 Z M 17.847656 81.394531 "/>
<path style=" stroke:none;fill-rule:nonzero;fill:rgb(0%,0%,0%);fill-opacity:1;" d="M 23.871094 80.703125 C 24.945312 80.785156 25.660156 81.769531 25.855469 82.769531 C 25.957031 83.222656 25.980469 83.652344 26.023438 84.105469 L 26.023438 85.261719 C 25.96875 86.441406 25.683594 87.996094 24.402344 88.472656 C 23.292969 88.914062 21.988281 88.222656 21.660156 87.089844 C 21.410156 86.488281 21.386719 85.875 21.332031 85.261719 L 21.332031 84.105469 C 21.386719 82.925781 21.636719 81.363281 22.90625 80.839844 L 22.960938 80.816406 L 23.007812 80.804688 L 23.066406 80.785156 L 23.234375 80.738281 L 23.335938 80.714844 L 23.460938 80.714844 L 23.484375 80.703125 Z M 23.871094 80.703125 Z M 23.519531 81.394531 C 22.566406 81.507812 22.28125 82.65625 22.214844 83.425781 L 22.214844 83.730469 L 22.191406 83.753906 L 22.191406 85.332031 C 22.261719 86.148438 22.316406 87.203125 23.066406 87.746094 C 23.757812 88.222656 24.675781 87.6875 24.867188 86.953125 C 25.070312 86.40625 25.117188 85.875 25.164062 85.332031 L 25.164062 83.753906 C 25.09375 82.925781 24.980469 81.769531 24.027344 81.441406 L 23.949219 81.417969 L 23.925781 81.394531 L 23.824219 81.394531 L 23.800781 81.375 L 23.542969 81.375 Z M 23.519531 81.394531 Z M 23.519531 81.394531 "/>
<path style=" stroke:none;fill-rule:nonzero;fill:rgb(0%,0%,0%);fill-opacity:1;" d="M 7.214844 42.167969 L 7.214844 49.164062 L 7.226562 49.1875 L 8.621094 49.1875 L 8.621094 49.808594 L 4.933594 49.808594 L 4.933594 49.1875 L 6.328125 49.1875 L 6.351562 49.164062 L 6.351562 43.289062 C 5.875 43.449219 5.375 43.550781 4.878906 43.539062 L 4.878906 42.90625 C 5.625 42.914062 6.441406 42.710938 7.007812 42.167969 Z M 7.214844 42.167969 Z M 7.214844 42.167969 "/>
<path style=" stroke:none;fill-rule:nonzero;fill:rgb(0%,0%,0%);fill-opacity:1;" d="M 12.53125 42.167969 C 13.609375 42.246094 14.324219 43.234375 14.515625 44.230469 C 14.617188 44.683594 14.640625 45.117188 14.6875 45.570312 L 14.6875 46.726562 C 14.628906 47.90625 14.34375 49.457031 13.0625 49.933594 C 11.953125 50.375 10.648438 49.683594 10.320312 48.550781 C 10.070312 47.949219 10.046875 47.339844 9.992188 46.726562 L 9.992188 45.570312 C 10.046875 44.390625 10.296875 42.824219 11.566406 42.304688 L 11.625 42.28125 L 11.667969 42.269531 L 11.726562 42.246094 L 11.894531 42.203125 L 12 42.179688 L 12.125 42.179688 L 12.144531 42.167969 Z M 12.53125 42.167969 Z M 12.179688 42.859375 C 11.226562 42.972656 10.945312 44.117188 10.875 44.890625 L 10.875 45.195312 L 10.851562 45.21875 L 10.851562 46.792969 C 10.921875 47.609375 10.976562 48.664062 11.726562 49.207031 C 12.417969 49.683594 13.335938 49.152344 13.527344 48.414062 C 13.734375 47.871094 13.777344 47.339844 13.824219 46.792969 L 13.824219 45.21875 C 13.757812 44.390625 13.640625 43.234375 12.691406 42.90625 L 12.609375 42.882812 L 12.589844 42.859375 L 12.484375 42.859375 L 12.464844 42.835938 L 12.203125 42.835938 Z M 12.179688 42.859375 Z M 12.179688 42.859375 "/>
<path style=" stroke:none;fill-rule:nonzero;fill:rgb(0%,0%,0%);fill-opacity:1;" d="M 18.199219 42.167969 C 19.277344 42.246094 19.992188 43.234375 20.183594 44.230469 C 20.285156 44.683594 20.308594 45.117188 20.355469 45.570312 L 20.355469 46.726562 C 20.296875 47.90625 20.015625 49.457031 18.734375 49.933594 C 17.621094 50.375 16.320312 49.683594 15.988281 48.550781 C 15.738281 47.949219 15.71875 47.339844 15.660156 46.726562 L 15.660156 45.570312 C 15.71875 44.390625 15.96875 42.824219 17.238281 42.304688 L 17.292969 42.28125 L 17.339844 42.269531 L 17.394531 42.246094 L 17.566406 42.203125 L 17.667969 42.179688 L 17.792969 42.179688 L 17.816406 42.167969 Z M 18.199219 42.167969 Z M 17.847656 42.859375 C 16.898438 42.972656 16.613281 44.117188 16.546875 44.890625 L 16.546875 45.195312 L 16.523438 45.21875 L 16.523438 46.792969 C 16.589844 47.609375 16.648438 48.664062 17.394531 49.207031 C 18.085938 49.683594 19.003906 49.152344 19.199219 48.414062 C 19.402344 47.871094 19.449219 47.339844 19.492188 46.792969 L 19.492188 45.21875 C 19.425781 44.390625 19.3125 43.234375 18.359375 42.90625 L 18.28125 42.882812 L 18.257812 42.859375 L 18.15625 42.859375 L 18.132812 42.835938 L 17.871094 42.835938 Z M 17.847656 42.859375 Z M 17.847656 42.859375 "/>
<path style=" stroke:none;fill-rule:nonzero;fill:rgb(0%,0%,0%);fill-opacity:1;" d="M 23.871094 42.167969 C 24.945312 42.246094 25.660156 43.234375 25.855469 44.230469 C 25.957031 44.683594 25.980469 45.117188 26.023438 45.570312 L 26.023438 46.726562 C 25.96875 47.90625 25.683594 49.457031 24.402344 49.933594 C 23.292969 50.375 21.988281 49.683594 21.660156 48.550781 C 21.410156 47.949219 21.386719 47.339844 21.332031 46.726562 L 21.332031 45.570312 C 21.386719 44.390625 21.636719 42.824219 22.90625 42.304688 L 22.960938 42.28125 L 23.007812 42.269531 L 23.066406 42.246094 L 23.234375 42.203125 L 23.335938 42.179688 L 23.460938 42.179688 L 23.484375 42.167969 Z M 23.871094 42.167969 Z M 23.519531 42.859375 C 22.566406 42.972656 22.28125 44.117188 22.214844 44.890625 L 22.214844 45.195312 L 22.191406 45.21875 L 22.191406 46.792969 C 22.261719 47.609375 22.316406 48.664062 23.066406 49.207031 C 23.757812 49.683594 24.675781 49.152344 24.867188 48.414062 C 25.070312 47.871094 25.117188 47.339844 25.164062 46.792969 L 25.164062 45.21875 C 25.09375 44.390625 24.980469 43.234375 24.027344 42.90625 L 23.949219 42.882812 L 23.925781 42.859375 L 23.824219 42.859375 L 23.800781 42.835938 L 23.542969 42.835938 Z M 23.519531 42.859375 Z M 23.519531 42.859375 "/>
<path style=" stroke:none;fill-rule:nonzero;fill:rgb(0%,0%,0%);fill-opacity:1;" d="M 7.214844 3.628906 L 7.214844 10.625 L 7.226562 10.648438 L 8.621094 10.648438 L 8.621094 11.273438 L 4.933594 11.273438 L 4.933594 10.648438 L 6.328125 10.648438 L 6.351562 10.625 L 6.351562 4.753906 C 5.875 4.910156 5.375 5.015625 4.878906 5.003906 L 4.878906 4.367188 C 5.625 4.378906 6.441406 4.175781 7.007812 3.628906 Z M 7.214844 3.628906 Z M 7.214844 3.628906 "/>
<path style=" stroke:none;fill-rule:nonzero;fill:rgb(0%,0%,0%);fill-opacity:1;" d="M 12.40625 3.628906 C 13.722656 3.664062 14.765625 5.015625 14.5625 6.285156 C 14.425781 7.554688 13.234375 8.28125 12.382812 9.074219 L 12.019531 9.445312 L 11.976562 9.46875 L 11.523438 9.914062 L 11.488281 9.933594 L 11.035156 10.386719 L 10.988281 10.410156 L 10.886719 10.511719 L 10.910156 10.523438 L 14.582031 10.523438 L 14.582031 11.273438 L 10.09375 11.273438 L 10.09375 10.59375 L 11.917969 8.765625 C 12.792969 8.007812 13.8125 7.019531 13.652344 5.773438 C 13.5625 5.046875 12.949219 4.378906 12.203125 4.320312 C 11.441406 4.207031 10.773438 4.808594 10.605469 5.535156 L 10.582031 5.570312 L 10.558594 5.648438 L 10.523438 5.773438 L 10.457031 6.023438 L 10.445312 6.078125 C 10.285156 5.886719 10.117188 5.683594 9.992188 5.46875 C 10.21875 4.539062 10.964844 3.664062 11.953125 3.628906 Z M 12.40625 3.628906 Z M 12.40625 3.628906 "/>
<path style=" stroke:none;fill-rule:nonzero;fill:rgb(0%,0%,0%);fill-opacity:1;" d="M 18.199219 3.628906 C 19.277344 3.710938 19.992188 4.695312 20.183594 5.695312 C 20.285156 6.148438 20.308594 6.578125 20.355469 7.03125 L 20.355469 8.1875 C 20.296875 9.367188 20.015625 10.921875 18.734375 11.398438 C 17.621094 11.839844 16.320312 11.148438 15.988281 10.015625 C 15.738281 9.414062 15.71875 8.800781 15.660156 8.1875 L 15.660156 7.03125 C 15.71875 5.851562 15.96875 4.289062 17.238281 3.765625 L 17.292969 3.742188 L 17.339844 3.734375 L 17.394531 3.710938 L 17.566406 3.664062 L 17.667969 3.640625 L 17.792969 3.640625 L 17.816406 3.628906 Z M 18.199219 3.628906 Z M 17.847656 4.320312 C 16.898438 4.4375 16.613281 5.582031 16.546875 6.351562 L 16.546875 6.65625 L 16.523438 6.679688 L 16.523438 8.257812 C 16.589844 9.074219 16.648438 10.128906 17.394531 10.671875 C 18.085938 11.148438 19.003906 10.613281 19.199219 9.878906 C 19.402344 9.332031 19.449219 8.800781 19.492188 8.257812 L 19.492188 6.679688 C 19.425781 5.851562 19.3125 4.695312 18.359375 4.367188 L 18.28125 4.34375 L 18.257812 4.320312 L 18.15625 4.320312 L 18.132812 4.300781 L 17.871094 4.300781 Z M 17.847656 4.320312 Z M 17.847656 4.320312 "/>
<path style=" stroke:none;fill-rule:nonzero;fill:rgb(0%,0%,0%);fill-opacity:1;" d="M 23.871094 3.628906 C 24.945312 3.710938 25.660156 4.695312 25.855469 5.695312 C 25.957031 6.148438 25.980469 6.578125 26.023438 7.03125 L 26.023438 8.1875 C 25.96875 9.367188 25.683594 10.921875 24.402344 11.398438 C 23.292969 11.839844 21.988281 11.148438 21.660156 10.015625 C 21.410156 9.414062 21.386719 8.800781 21.332031 8.1875 L 21.332031 7.03125 C 21.386719 5.851562 21.636719 4.289062 22.90625 3.765625 L 22.960938 3.742188 L 23.007812 3.734375 L 23.066406 3.710938 L 23.234375 3.664062 L 23.335938 3.640625 L 23.460938 3.640625 L 23.484375 3.628906 Z M 23.871094 3.628906 Z M 23.519531 4.320312 C 22.566406 4.4375 22.28125 5.582031 22.214844 6.351562 L 22.214844 6.65625 L 22.191406 6.679688 L 22.191406 8.257812 C 22.261719 9.074219 22.316406 10.128906 23.066406 10.671875 C 23.757812 11.148438 24.675781 10.613281 24.867188 9.878906 C 25.070312 9.332031 25.117188 8.800781 25.164062 8.257812 L 25.164062 6.679688 C 25.09375 5.851562 24.980469 4.695312 24.027344 4.367188 L 23.949219 4.34375 L 23.925781 4.320312 L 23.824219 4.320312 L 23.800781 4.300781 L 23.542969 4.300781 Z M 23.519531 4.320312 Z M 23.519531 4.320312 "/>
<path style="fill:none;stroke-width:0.02;stroke-linecap:butt;stroke-linejoin:miter;stroke:rgb(0%,0%,0%);stroke-opacity:1;stroke-miterlimit:10;" d="M 11.699958 1.971454 L 11.550027 1.971454 " transform="matrix(28.346457,0,0,-28.346457,1,256.11811)"/>
<path style="fill:none;stroke-width:0.02;stroke-linecap:butt;stroke-linejoin:miter;stroke:rgb(0%,0%,0%);stroke-opacity:1;stroke-miterlimit:10;" d="M 11.699958 3.331026 L 11.550027 3.331026 " transform="matrix(28.346457,0,0,-28.346457,1,256.11811)"/>
<path style="fill:none;stroke-width:0.02;stroke-linecap:butt;stroke-linejoin:miter;stroke:rgb(0%,0%,0%);stroke-opacity:1;stroke-miterlimit:10;" d="M 11.699958 4.690461 L 11.550027 4.690461 " transform="matrix(28.346457,0,0,-28.346457,1,256.11811)"/>
<path style="fill:none;stroke-width:0.02;stroke-linecap:butt;stroke-linejoin:miter;stroke:rgb(0%,0%,0%);stroke-opacity:1;stroke-miterlimit:10;" d="M 11.699958 6.050034 L 11.550027 6.050034 " transform="matrix(28.346457,0,0,-28.346457,1,256.11811)"/>
<path style="fill:none;stroke-width:0.02;stroke-linecap:butt;stroke-linejoin:miter;stroke:rgb(0%,0%,0%);stroke-opacity:1;stroke-miterlimit:10;" d="M 11.699958 7.409468 L 11.550027 7.409468 " transform="matrix(28.346457,0,0,-28.346457,1,256.11811)"/>
<path style="fill:none;stroke-width:0.02;stroke-linecap:round;stroke-linejoin:miter;stroke:rgb(0%,0%,0%);stroke-opacity:1;stroke-miterlimit:10;" d="M 11.699958 0.612019 L 11.699958 8.769041 " transform="matrix(28.346457,0,0,-28.346457,1,256.11811)"/>
<path style="fill:none;stroke-width:0.02;stroke-linecap:butt;stroke-linejoin:miter;stroke:rgb(0%,0%,0%);stroke-opacity:1;stroke-miterlimit:10;" d="M 2.468755 0.612019 L 2.468755 0.76195 " transform="matrix(28.346457,0,0,-28.346457,1,256.11811)"/>
<path style="fill:none;stroke-width:0.02;stroke-linecap:butt;stroke-linejoin:miter;stroke:rgb(0%,0%,0%);stroke-opacity:1;stroke-miterlimit:10;" d="M 3.787538 0.612019 L 3.787538 0.76195 " transform="matrix(28.346457,0,0,-28.346457,1,256.11811)"/>
<path style="fill:none;stroke-width:0.02;stroke-linecap:butt;stroke-linejoin:miter;stroke:rgb(0%,0%,0%);stroke-opacity:1;stroke-miterlimit:10;" d="M 5.106183 0.612019 L 5.106183 0.76195 " transform="matrix(28.346457,0,0,-28.346457,1,256.11811)"/>
<path style="fill:none;stroke-width:0.02;stroke-linecap:butt;stroke-linejoin:miter;stroke:rgb(0%,0%,0%);stroke-opacity:1;stroke-miterlimit:10;" d="M 6.424965 0.612019 L 6.424965 0.76195 " transform="matrix(28.346457,0,0,-28.346457,1,256.11811)"/>
<path style="fill:none;stroke-width:0.02;stroke-linecap:butt;stroke-linejoin:miter;stroke:rgb(0%,0%,0%);stroke-opacity:1;stroke-miterlimit:10;" d="M 7.743748 0.612019 L 7.743748 0.76195 " transform="matrix(28.346457,0,0,-28.346457,1,256.11811)"/>
<path style="fill:none;stroke-width:0.02;stroke-linecap:butt;stroke-linejoin:miter;stroke:rgb(0%,0%,0%);stroke-opacity:1;stroke-miterlimit:10;" d="M 9.06253 0.612019 L 9.06253 0.76195 " transform="matrix(28.346457,0,0,-28.346457,1,256.11811)"/>
<path style="fill:none;stroke-width:0.02;stroke-linecap:butt;stroke-linejoin:miter;stroke:rgb(0%,0%,0%);stroke-opacity:1;stroke-miterlimit:10;" d="M 10.381313 0.612019 L 10.381313 0.76195 " transform="matrix(28.346457,0,0,-28.346457,1,256.11811)"/>
<path style="fill:none;stroke-width:0.02;stroke-linecap:round;stroke-linejoin:miter;stroke:rgb(0%,0%,0%);stroke-opacity:1;stroke-miterlimit:10;" d="M 1.149973 0.612019 L 11.699958 0.612019 " transform="matrix(28.346457,0,0,-28.346457,1,256.11811)"/>
<path style=" stroke:none;fill-rule:nonzero;fill:rgb(0%,0%,0%);fill-opacity:1;" d="M 31.984375 250.484375 L 31.984375 251.117188 L 29.011719 251.117188 L 29.011719 250.484375 Z M 31.984375 250.484375 Z M 31.984375 250.484375 "/>
<path style=" stroke:none;fill-rule:nonzero;fill:rgb(0%,0%,0%);fill-opacity:1;" d="M 36.417969 245.652344 C 36.710938 245.699219 37.050781 245.730469 37.335938 245.867188 L 37.335938 246.527344 C 36.550781 246.183594 35.53125 246.140625 34.917969 246.832031 C 34.375 247.410156 34.125 248.273438 34.101562 249.03125 C 34.761719 248.160156 36.246094 247.671875 37.050781 248.578125 C 37.855469 249.507812 37.992188 250.84375 37.628906 251.980469 C 37.234375 252.886719 36.3125 253.714844 35.292969 253.523438 C 33.910156 253.40625 33.285156 251.867188 33.21875 250.6875 C 32.957031 249.019531 33.355469 246.921875 34.941406 245.96875 L 34.964844 245.957031 L 35.203125 245.835938 L 35.269531 245.8125 L 35.304688 245.789062 L 35.496094 245.730469 L 35.65625 245.6875 L 35.757812 245.664062 L 35.882812 245.664062 L 35.90625 245.652344 Z M 36.417969 245.652344 Z M 35.304688 248.804688 C 34.320312 248.976562 34 250.164062 34.125 250.96875 C 34.183594 251.730469 34.476562 252.738281 35.351562 252.898438 C 36.28125 253.023438 36.882812 252.023438 36.902344 251.21875 C 36.949219 250.402344 36.902344 249.472656 36.1875 248.941406 L 36.03125 248.863281 L 35.90625 248.828125 L 35.804688 248.804688 L 35.78125 248.78125 L 35.328125 248.78125 Z M 35.304688 248.804688 Z M 35.304688 248.804688 "/>
<path style=" stroke:none;fill-rule:nonzero;fill:rgb(0%,0%,0%);fill-opacity:1;" d="M 69.363281 250.484375 L 69.363281 251.117188 L 66.394531 251.117188 L 66.394531 250.484375 Z M 69.363281 250.484375 Z M 69.363281 250.484375 "/>
<path style=" stroke:none;fill-rule:nonzero;fill:rgb(0%,0%,0%);fill-opacity:1;" d="M 74.230469 245.890625 L 74.230469 250.664062 L 74.25 250.6875 L 75.375 250.6875 L 75.375 251.367188 L 74.25 251.367188 L 74.230469 251.378906 L 74.230469 253.292969 L 73.367188 253.292969 L 73.367188 251.378906 L 73.34375 251.367188 L 70.351562 251.367188 L 70.351562 250.664062 C 71.304688 249.078125 72.257812 247.476562 73.207031 245.890625 Z M 74.230469 245.890625 Z M 73.390625 246.320312 C 73.164062 247.5 72.4375 248.511719 71.894531 249.542969 C 71.675781 249.914062 71.394531 250.324219 71.234375 250.6875 L 73.414062 250.6875 L 73.421875 250.664062 L 73.421875 246.320312 L 73.414062 246.300781 Z M 73.390625 246.320312 Z M 73.390625 246.320312 "/>
<path style=" stroke:none;fill-rule:nonzero;fill:rgb(0%,0%,0%);fill-opacity:1;" d="M 106.746094 250.484375 L 106.746094 251.117188 L 103.777344 251.117188 L 103.777344 250.484375 Z M 106.746094 250.484375 Z M 106.746094 250.484375 "/>
<path style=" stroke:none;fill-rule:nonzero;fill:rgb(0%,0%,0%);fill-opacity:1;" d="M 110.316406 245.652344 C 111.632812 245.6875 112.675781 247.035156 112.472656 248.304688 C 112.335938 249.574219 111.144531 250.300781 110.296875 251.09375 L 109.933594 251.46875 L 109.886719 251.492188 L 109.433594 251.933594 L 109.398438 251.957031 L 108.945312 252.410156 L 108.902344 252.433594 L 108.796875 252.535156 L 108.820312 252.546875 L 112.496094 252.546875 L 112.496094 253.292969 L 108.003906 253.292969 L 108.003906 252.613281 L 109.832031 250.789062 C 110.703125 250.027344 111.722656 249.042969 111.566406 247.796875 C 111.476562 247.070312 110.863281 246.402344 110.113281 246.34375 C 109.355469 246.230469 108.683594 246.832031 108.515625 247.558594 L 108.492188 247.589844 L 108.46875 247.671875 L 108.4375 247.796875 L 108.367188 248.046875 L 108.355469 248.101562 C 108.199219 247.910156 108.027344 247.703125 107.902344 247.488281 C 108.128906 246.558594 108.878906 245.6875 109.863281 245.652344 Z M 110.316406 245.652344 Z M 110.316406 245.652344 "/>
<path style=" stroke:none;fill-rule:nonzero;fill:rgb(0%,0%,0%);fill-opacity:1;" d="M 145.9375 245.652344 C 147.015625 245.730469 147.726562 246.71875 147.921875 247.714844 C 148.023438 248.167969 148.046875 248.601562 148.089844 249.054688 L 148.089844 250.210938 C 148.035156 251.390625 147.75 252.941406 146.46875 253.417969 C 145.359375 253.863281 144.054688 253.171875 143.726562 252.035156 C 143.476562 251.433594 143.453125 250.824219 143.398438 250.210938 L 143.398438 249.054688 C 143.453125 247.875 143.703125 246.308594 144.972656 245.789062 L 145.03125 245.765625 L 145.074219 245.753906 L 145.132812 245.730469 L 145.300781 245.6875 L 145.402344 245.664062 L 145.527344 245.664062 L 145.550781 245.652344 Z M 145.9375 245.652344 Z M 145.585938 246.34375 C 144.632812 246.457031 144.347656 247.601562 144.28125 248.375 L 144.28125 248.679688 L 144.257812 248.703125 L 144.257812 250.277344 C 144.328125 251.09375 144.382812 252.148438 145.132812 252.695312 C 145.824219 253.171875 146.742188 252.636719 146.933594 251.898438 C 147.140625 251.355469 147.183594 250.824219 147.230469 250.277344 L 147.230469 248.703125 C 147.160156 247.875 147.046875 246.71875 146.09375 246.390625 L 146.015625 246.367188 L 145.992188 246.34375 L 145.890625 246.34375 L 145.867188 246.320312 L 145.609375 246.320312 Z M 145.585938 246.34375 Z M 145.585938 246.34375 "/>
<path style=" stroke:none;fill-rule:nonzero;fill:rgb(0%,0%,0%);fill-opacity:1;" d="M 183.195312 245.652344 C 184.507812 245.6875 185.550781 247.035156 185.347656 248.304688 C 185.210938 249.574219 184.023438 250.300781 183.171875 251.09375 L 182.808594 251.46875 L 182.761719 251.492188 L 182.308594 251.933594 L 182.277344 251.957031 L 181.820312 252.410156 L 181.777344 252.433594 L 181.675781 252.535156 L 181.699219 252.546875 L 185.371094 252.546875 L 185.371094 253.292969 L 180.882812 253.292969 L 180.882812 252.613281 L 182.707031 250.789062 C 183.578125 250.027344 184.601562 249.042969 184.441406 247.796875 C 184.351562 247.070312 183.738281 246.402344 182.988281 246.34375 C 182.230469 246.230469 181.5625 246.832031 181.390625 247.558594 L 181.367188 247.589844 L 181.347656 247.671875 L 181.242188 248.046875 L 181.234375 248.101562 C 181.074219 247.910156 180.902344 247.703125 180.777344 247.488281 C 181.003906 246.558594 181.753906 245.6875 182.742188 245.652344 Z M 183.195312 245.652344 Z M 183.195312 245.652344 "/>
<path style=" stroke:none;fill-rule:nonzero;fill:rgb(0%,0%,0%);fill-opacity:1;" d="M 221.867188 245.890625 L 221.867188 250.664062 L 221.890625 250.6875 L 223.015625 250.6875 L 223.015625 251.367188 L 221.890625 251.367188 L 221.867188 251.378906 L 221.867188 253.292969 L 221.007812 253.292969 L 221.007812 251.378906 L 220.984375 251.367188 L 217.992188 251.367188 L 217.992188 250.664062 C 218.941406 249.078125 219.894531 247.476562 220.847656 245.890625 Z M 221.867188 245.890625 Z M 221.03125 246.320312 C 220.800781 247.5 220.078125 248.511719 219.53125 249.542969 C 219.316406 249.914062 219.035156 250.324219 218.875 250.6875 L 221.050781 250.6875 L 221.0625 250.664062 L 221.0625 246.320312 L 221.050781 246.300781 Z M 221.03125 246.320312 Z M 221.03125 246.320312 "/>
<path style=" stroke:none;fill-rule:nonzero;fill:rgb(0%,0%,0%);fill-opacity:1;" d="M 258.820312 245.652344 C 259.113281 245.699219 259.453125 245.730469 259.738281 245.867188 L 259.738281 246.527344 C 258.957031 246.183594 257.933594 246.140625 257.324219 246.832031 C 256.777344 247.410156 256.527344 248.273438 256.507812 249.03125 C 257.164062 248.160156 258.648438 247.671875 259.453125 248.578125 C 260.257812 249.507812 260.394531 250.84375 260.03125 251.980469 C 259.636719 252.886719 258.71875 253.714844 257.695312 253.523438 C 256.3125 253.40625 255.691406 251.867188 255.621094 250.6875 C 255.359375 249.019531 255.757812 246.921875 257.34375 245.96875 L 257.367188 245.957031 L 257.605469 245.835938 L 257.675781 245.8125 L 257.707031 245.789062 L 257.902344 245.730469 L 258.058594 245.6875 L 258.160156 245.664062 L 258.285156 245.664062 L 258.308594 245.652344 Z M 258.820312 245.652344 Z M 257.707031 248.804688 C 256.722656 248.976562 256.40625 250.164062 256.527344 250.96875 C 256.585938 251.730469 256.878906 252.738281 257.753906 252.898438 C 258.683594 253.023438 259.285156 252.023438 259.308594 251.21875 C 259.351562 250.402344 259.308594 249.472656 258.59375 248.941406 L 258.433594 248.863281 L 258.308594 248.828125 L 258.207031 248.804688 L 258.183594 248.78125 L 257.730469 248.78125 Z M 257.707031 248.804688 Z M 257.707031 248.804688 "/>
<path style=" stroke:none;fill-rule:nonzero;fill:rgb(0%,0%,0%);fill-opacity:1;" d="M 295.488281 245.652344 C 296.6875 245.699219 297.824219 246.992188 297.347656 248.191406 C 297.140625 248.746094 296.574219 249.089844 296.109375 249.328125 C 297.265625 249.667969 297.96875 251.015625 297.449219 252.125 C 296.90625 253.566406 294.839844 254.019531 293.707031 252.976562 C 292.675781 252.160156 292.640625 250.390625 293.785156 249.667969 C 293.957031 249.484375 294.273438 249.429688 294.421875 249.292969 C 293.433594 249.007812 292.765625 247.863281 293.230469 246.898438 C 293.605469 246.039062 294.570312 245.5625 295.488281 245.652344 Z M 295.488281 245.652344 Z M 295.054688 246.300781 C 294.21875 246.320312 293.628906 247.273438 293.910156 248.023438 C 294.238281 249.316406 296.40625 249.269531 296.65625 247.941406 C 296.882812 247.207031 296.292969 246.320312 295.488281 246.300781 L 295.464844 246.289062 L 295.078125 246.289062 Z M 295.054688 246.300781 Z M 295.078125 249.667969 C 294.09375 249.734375 293.605469 250.914062 293.867188 251.753906 C 294.035156 252.941406 295.738281 253.292969 296.40625 252.34375 C 297.050781 251.46875 296.734375 249.90625 295.566406 249.667969 L 295.464844 249.667969 L 295.441406 249.644531 L 295.089844 249.644531 Z M 295.078125 249.667969 Z M 295.078125 249.667969 "/>
<path style=" stroke:none;fill-rule:nonzero;fill:rgb(0%,0%,0%);fill-opacity:1;" d="M 330.363281 245.652344 L 330.363281 252.648438 L 330.375 252.671875 L 331.769531 252.671875 L 331.769531 253.292969 L 328.085938 253.292969 L 328.085938 252.671875 L 329.480469 252.671875 L 329.5 252.648438 L 329.5 246.773438 C 329.023438 246.933594 328.527344 247.035156 328.027344 247.023438 L 328.027344 246.390625 C 328.777344 246.402344 329.59375 246.195312 330.160156 245.652344 Z M 330.363281 245.652344 Z M 330.363281 245.652344 "/>
<path style=" stroke:none;fill-rule:nonzero;fill:rgb(0%,0%,0%);fill-opacity:1;" d="M 335.679688 245.652344 C 336.757812 245.730469 337.472656 246.71875 337.664062 247.714844 C 337.765625 248.167969 337.789062 248.601562 337.835938 249.054688 L 337.835938 250.210938 C 337.777344 251.390625 337.496094 252.941406 336.214844 253.417969 C 335.101562 253.863281 333.796875 253.171875 333.46875 252.035156 C 333.21875 251.433594 333.199219 250.824219 333.140625 250.210938 L 333.140625 249.054688 C 333.199219 247.875 333.445312 246.308594 334.71875 245.789062 L 334.773438 245.765625 L 334.820312 245.753906 L 334.875 245.730469 L 335.046875 245.6875 L 335.148438 245.664062 L 335.273438 245.664062 L 335.296875 245.652344 Z M 335.679688 245.652344 Z M 335.328125 246.34375 C 334.378906 246.457031 334.09375 247.601562 334.027344 248.375 L 334.027344 248.679688 L 334.003906 248.703125 L 334.003906 250.277344 C 334.070312 251.09375 334.128906 252.148438 334.875 252.695312 C 335.566406 253.171875 336.484375 252.636719 336.679688 251.898438 C 336.882812 251.355469 336.929688 250.824219 336.972656 250.277344 L 336.972656 248.703125 C 336.90625 247.875 336.792969 246.71875 335.839844 246.390625 L 335.761719 246.367188 L 335.738281 246.34375 L 335.636719 246.34375 L 335.613281 246.320312 L 335.351562 246.320312 Z M 335.328125 246.34375 Z M 335.328125 246.34375 "/>
<path style="fill:none;stroke-width:0.02;stroke-linecap:butt;stroke-linejoin:miter;stroke:rgb(0%,0%,0%);stroke-opacity:1;stroke-miterlimit:10;" d="M 2.468755 8.769041 L 2.468755 8.618972 " transform="matrix(28.346457,0,0,-28.346457,1,256.11811)"/>
<path style="fill:none;stroke-width:0.02;stroke-linecap:butt;stroke-linejoin:miter;stroke:rgb(0%,0%,0%);stroke-opacity:1;stroke-miterlimit:10;" d="M 3.787538 8.769041 L 3.787538 8.618972 " transform="matrix(28.346457,0,0,-28.346457,1,256.11811)"/>
<path style="fill:none;stroke-width:0.02;stroke-linecap:butt;stroke-linejoin:miter;stroke:rgb(0%,0%,0%);stroke-opacity:1;stroke-miterlimit:10;" d="M 5.106183 8.769041 L 5.106183 8.618972 " transform="matrix(28.346457,0,0,-28.346457,1,256.11811)"/>
<path style="fill:none;stroke-width:0.02;stroke-linecap:butt;stroke-linejoin:miter;stroke:rgb(0%,0%,0%);stroke-opacity:1;stroke-miterlimit:10;" d="M 6.424965 8.769041 L 6.424965 8.618972 " transform="matrix(28.346457,0,0,-28.346457,1,256.11811)"/>
<path style="fill:none;stroke-width:0.02;stroke-linecap:butt;stroke-linejoin:miter;stroke:rgb(0%,0%,0%);stroke-opacity:1;stroke-miterlimit:10;" d="M 7.743748 8.769041 L 7.743748 8.618972 " transform="matrix(28.346457,0,0,-28.346457,1,256.11811)"/>
<path style="fill:none;stroke-width:0.02;stroke-linecap:butt;stroke-linejoin:miter;stroke:rgb(0%,0%,0%);stroke-opacity:1;stroke-miterlimit:10;" d="M 9.06253 8.769041 L 9.06253 8.618972 " transform="matrix(28.346457,0,0,-28.346457,1,256.11811)"/>
<path style="fill:none;stroke-width:0.02;stroke-linecap:butt;stroke-linejoin:miter;stroke:rgb(0%,0%,0%);stroke-opacity:1;stroke-miterlimit:10;" d="M 10.381313 8.769041 L 10.381313 8.618972 " transform="matrix(28.346457,0,0,-28.346457,1,256.11811)"/>
<path style="fill:none;stroke-width:0.02;stroke-linecap:round;stroke-linejoin:miter;stroke:rgb(0%,0%,0%);stroke-opacity:1;stroke-miterlimit:10;" d="M 1.149973 8.769041 L 11.699958 8.769041 " transform="matrix(28.346457,0,0,-28.346457,1,256.11811)"/>
</g>
</svg>
