<svg xmlns="http://www.w3.org/2000/svg" width="456.21" height="342.824" viewBox="0 0 342.157 257.118"><path style="fill-rule:nonzero;fill:#6495ed;fill-opacity:1;stroke-width:.02;stroke-linecap:butt;stroke-linejoin:miter;stroke:#fff;stroke-opacity:1;stroke-miterlimit:10" d="M1.706.612h.65v.007h-.65ZM2.357.612h.65v.027h-.65ZM3.007.612h.65v.245h-.65ZM3.657.612h.65v.924h-.65ZM4.307.612h.65v2.4h-.65Zm0 0" transform="matrix(28.34646 0 0 -28.34646 1 256.118)"/><path style="fill-rule:nonzero;fill:#6495ed;fill-opacity:1;stroke-width:.02;stroke-linecap:butt;stroke-linejoin:miter;stroke:#fff;stroke-opacity:1;stroke-miterlimit:10" d="M4.957.612h.65v4.717h-.65ZM5.608.612h.65v7.076h-.65ZM6.258.612h.65v7.103h-.65ZM6.908.612h.65v5.771h-.65Zm0 0" transform="matrix(28.34646 0 0 -28.34646 1 256.118)"/><path style="fill-rule:nonzero;fill:#6495ed;fill-opacity:1;stroke-width:.02;stroke-linecap:butt;stroke-linejoin:miter;stroke:#fff;stroke-opacity:1;stroke-miterlimit:10" d="M7.558.612h.65v3.521h-.65ZM8.208.612h.65V2.23h-.65ZM8.858.612h.65v.421h-.65ZM9.509.612h.65v.109h-.65ZM10.159.612h.65v.04h-.65Zm0 0" transform="matrix(28.34646 0 0 -28.34646 1 256.118)"/><path style="fill:none;stroke-width:.02;stroke-linecap:butt;stroke-linejoin:miter;stroke:#000;stroke-opacity:1;stroke-miterlimit:10" d="M1.15 1.971h.15M1.15 3.331h.15M1.15 4.69h.15M1.15 6.05h.15M1.15 7.41h.15" transform="matrix(28.34646 0 0 -28.34646 1 256.118)"/><path style="fill:none;stroke-width:.02;stroke-linecap:round;stroke-linejoin:miter;stroke:#000;stroke-opacity:1;stroke-miterlimit:10" d="M1.15.612v8.157" transform="matrix(28.34646 0 0 -28.34646 1 256.118)"/><path style="stroke:none;fill-rule:nonzero;fill:#000;fill-opacity:1" d="M23.871 234.852c1.074.082 1.79 1.066 1.984 2.066.102.453.125.883.168 1.336v1.156c-.054 1.18-.34 2.735-1.62 3.211-1.11.441-2.415-.25-2.743-1.387-.25-.597-.273-1.21-.328-1.824v-1.156c.055-1.18.305-2.742 1.574-3.266l.055-.023.047-.012.058-.02.168-.046.102-.024h.125l.023-.011Zm0 0Zm-.351.691c-.954.113-1.239 1.262-1.305 2.031v.305l-.024.023v1.578c.07.817.125 1.868.875 2.415.692.476 1.61-.06 1.801-.793.203-.547.25-1.079.297-1.622v-1.578c-.07-.828-.184-1.984-1.137-2.312l-.078-.024-.023-.023h-.102l-.023-.02h-.258Zm0 0ZM12.406 196.316c1.317.032 2.36 1.383 2.156 2.653-.136 1.27-1.328 1.996-2.18 2.789l-.362.375-.043.023-.454.442-.035.023-.453.453-.047.024-.101.101.023.012h3.672v.746h-4.488v-.68l1.824-1.824c.875-.762 1.895-1.746 1.734-2.996-.09-.723-.703-1.394-1.449-1.45-.762-.112-1.43.49-1.598 1.212l-.023.035-.023.078-.036.125-.066.25-.012.059c-.16-.196-.328-.399-.453-.614.227-.93.973-1.804 1.961-1.836Zm0 0ZM18.2 196.316c1.077.079 1.792 1.067 1.984 2.063.101.453.125.883.171 1.34v1.156c-.058 1.18-.34 2.73-1.62 3.207-1.114.441-2.415-.25-2.747-1.383-.25-.601-.27-1.215-.328-1.824v-1.156c.059-1.18.309-2.746 1.578-3.266l.055-.023.047-.012.055-.023.171-.047.102-.02h.125l.023-.012Zm0 0Zm-.352.692c-.95.113-1.235 1.258-1.301 2.027v.309l-.024.023v1.574c.067.817.125 1.871.872 2.414.69.477 1.609-.054 1.804-.792.203-.543.25-1.079.293-1.622v-1.574c-.066-.828-.18-1.984-1.133-2.316l-.078-.02-.023-.023h-.102l-.023-.024h-.262Zm0 0ZM23.871 196.316c1.074.079 1.79 1.067 1.984 2.063.102.453.125.883.168 1.34v1.156c-.054 1.18-.34 2.73-1.62 3.207-1.11.441-2.415-.25-2.743-1.383-.25-.601-.273-1.215-.328-1.824v-1.156c.055-1.18.305-2.746 1.574-3.266l.055-.023.047-.012.058-.023.168-.047.102-.02h.125l.023-.012Zm0 0Zm-.351.692c-.954.113-1.239 1.258-1.305 2.027v.309l-.024.023v1.574c.07.817.125 1.871.875 2.414.692.477 1.61-.054 1.801-.792.203-.543.25-1.079.297-1.622v-1.574c-.07-.828-.184-1.984-1.137-2.316l-.078-.02-.023-.023h-.102l-.023-.024h-.258Zm0 0ZM13.7 158.016v4.773l.023.024h1.12v.68h-1.12l-.024.01v1.919h-.863v-1.918l-.02-.012H9.82v-.703c.953-1.586 1.907-3.184 2.86-4.773Zm0 0Zm-.84.433c-.227 1.176-.954 2.188-1.497 3.219-.215.375-.5.781-.656 1.144h2.176l.012-.023v-4.34l-.012-.023Zm0 0ZM18.2 157.777c1.077.082 1.792 1.067 1.984 2.067.101.453.125.883.171 1.336v1.156c-.058 1.18-.34 2.734-1.62 3.21-1.114.442-2.415-.25-2.747-1.382-.25-.601-.27-1.215-.328-1.828v-1.156c.059-1.18.309-2.743 1.578-3.266l.055-.023.047-.012.055-.02.171-.047.102-.023h.125l.023-.012Zm0 0Zm-.352.692c-.95.113-1.235 1.261-1.301 2.031v.305l-.024.023v1.578c.067.817.125 1.871.872 2.414.69.477 1.609-.058 1.804-.793.203-.547.25-1.078.293-1.62v-1.579c-.066-.828-.18-1.984-1.133-2.312l-.078-.024-.023-.023h-.102l-.023-.02h-.262Zm0 0ZM23.871 157.777c1.074.082 1.79 1.067 1.984 2.067.102.453.125.883.168 1.336v1.156c-.054 1.18-.34 2.734-1.62 3.21-1.11.442-2.415-.25-2.743-1.382-.25-.601-.273-1.215-.328-1.828v-1.156c.055-1.18.305-2.743 1.574-3.266l.055-.023.047-.012.058-.02.168-.047.102-.023h.125l.023-.012Zm0 0Zm-.351.692c-.954.113-1.239 1.261-1.305 2.031v.305l-.024.023v1.578c.07.817.125 1.871.875 2.414.692.477 1.61-.058 1.801-.793.203-.547.25-1.078.297-1.62v-1.579c-.07-.828-.184-1.984-1.137-2.312l-.078-.024-.023-.023h-.102l-.023-.02h-.258Zm0 0ZM13.27 119.242c.293.043.632.078.918.215v.656c-.782-.34-1.805-.383-2.415.309-.546.578-.796 1.437-.816 2.2.656-.876 2.14-1.36 2.945-.454.805.93.942 2.266.578 3.402-.394.907-1.312 1.735-2.335 1.54-1.383-.114-2.004-1.653-2.075-2.833-.261-1.668.137-3.765 1.723-4.718l.023-.012.239-.125.07-.024.031-.02.196-.058.156-.043.101-.023h.125l.024-.012Zm0 0Zm-1.114 3.153c-.984.168-1.304 1.359-1.18 2.164.06.761.352 1.77 1.227 1.93.93.124 1.531-.876 1.555-1.68.043-.817 0-1.746-.715-2.278l-.16-.082-.125-.031-.102-.023-.023-.024h-.453Zm0 0ZM18.2 119.242c1.077.078 1.792 1.067 1.984 2.063.101.453.125.886.171 1.34v1.156c-.058 1.18-.34 2.73-1.62 3.207-1.114.441-2.415-.25-2.747-1.383-.25-.602-.27-1.215-.328-1.824v-1.156c.059-1.18.309-2.747 1.578-3.266l.055-.024.047-.011.055-.024.171-.043.102-.023h.125l.023-.012Zm0 0Zm-.352.692c-.95.113-1.235 1.257-1.301 2.027v.309l-.024.023v1.574c.067.817.125 1.871.872 2.414.69.477 1.609-.054 1.804-.793.203-.543.25-1.078.293-1.62v-1.575c-.066-.828-.18-1.984-1.133-2.313l-.078-.023-.023-.023h-.102l-.023-.024h-.262Zm0 0ZM23.871 119.242c1.074.078 1.79 1.067 1.984 2.063.102.453.125.886.168 1.34v1.156c-.054 1.18-.34 2.73-1.62 3.207-1.11.441-2.415-.25-2.743-1.383-.25-.602-.273-1.215-.328-1.824v-1.156c.055-1.18.305-2.747 1.574-3.266l.055-.024.047-.011.058-.024.168-.043.102-.023h.125l.023-.012Zm0 0Zm-.351.692c-.954.113-1.239 1.257-1.305 2.027v.309l-.024.023v1.574c.07.817.125 1.871.875 2.414.692.477 1.61-.054 1.801-.793.203-.543.25-1.078.297-1.62v-1.575c-.07-.828-.184-1.984-1.137-2.313l-.078-.023-.023-.023h-.102l-.023-.024h-.258Zm0 0ZM12.555 80.703c1.203.047 2.336 1.34 1.86 2.543-.204.555-.774.895-1.24 1.133 1.16.34 1.864 1.687 1.34 2.8-.542 1.438-2.609 1.895-3.742.848-1.03-.812-1.066-2.582.079-3.308.171-.184.488-.239.636-.375-.988-.281-1.656-1.43-1.191-2.39.375-.864 1.34-1.34 2.258-1.25Zm0 0Zm-.43.649c-.84.023-1.43.972-1.148 1.722.332 1.293 2.496 1.246 2.746-.078.226-.738-.364-1.621-1.168-1.644l-.024-.012h-.386Zm0 0Zm.02 3.367c-.985.066-1.473 1.246-1.211 2.086.168 1.191 1.87 1.543 2.539.59.644-.875.328-2.438-.84-2.676h-.102l-.023-.024h-.352Zm0 0ZM18.2 80.703c1.077.082 1.792 1.067 1.984 2.067.101.453.125.882.171 1.335v1.157c-.058 1.18-.34 2.734-1.62 3.21-1.114.442-2.415-.25-2.747-1.382-.25-.602-.27-1.215-.328-1.828v-1.157c.059-1.18.309-2.742 1.578-3.265l.055-.024.047-.011.055-.02.171-.047.102-.023h.125l.023-.012Zm0 0Zm-.352.692c-.95.113-1.235 1.261-1.301 2.03v.305l-.024.024v1.578c.067.816.125 1.871.872 2.414.69.477 1.609-.058 1.804-.793.203-.547.25-1.078.293-1.621v-1.578c-.066-.828-.18-1.984-1.133-2.313l-.078-.023-.023-.023h-.102l-.023-.02h-.262Zm0 0ZM23.871 80.703c1.074.082 1.79 1.067 1.984 2.067.102.453.125.882.168 1.335v1.157c-.054 1.18-.34 2.734-1.62 3.21-1.11.442-2.415-.25-2.743-1.382-.25-.602-.273-1.215-.328-1.828v-1.157c.055-1.18.305-2.742 1.574-3.265l.055-.024.047-.011.058-.02.168-.047.102-.023h.125l.023-.012Zm0 0Zm-.351.692c-.954.113-1.239 1.261-1.305 2.03v.305l-.024.024v1.578c.07.816.125 1.871.875 2.414.692.477 1.61-.058 1.801-.793.203-.547.25-1.078.297-1.621v-1.578c-.07-.828-.184-1.984-1.137-2.313l-.078-.023-.023-.023h-.102l-.023-.02h-.258Zm0 0ZM7.215 42.168v6.996l.012.023H8.62v.622H4.934v-.621h1.394l.024-.024V43.29c-.477.16-.977.262-1.473.25v-.633c.746.008 1.562-.195 2.129-.738Zm0 0ZM12.531 42.168c1.078.078 1.793 1.066 1.985 2.062.101.454.125.887.171 1.34v1.157c-.058 1.18-.343 2.73-1.624 3.207-1.11.441-2.415-.25-2.743-1.383-.25-.602-.273-1.211-.328-1.824V45.57c.055-1.18.305-2.746 1.574-3.265l.059-.024.043-.011.059-.024.168-.043.105-.023h.125l.02-.012Zm0 0Zm-.351.691c-.953.114-1.235 1.258-1.305 2.032v.304l-.023.024v1.574c.07.816.125 1.871.875 2.414.691.477 1.609-.055 1.8-.793.207-.543.25-1.074.297-1.621v-1.574c-.066-.828-.183-1.985-1.133-2.313l-.082-.023-.02-.024h-.105l-.02-.023h-.26Zm0 0ZM18.2 42.168c1.077.078 1.792 1.066 1.984 2.062.101.454.125.887.171 1.34v1.157c-.058 1.18-.34 2.73-1.62 3.207-1.114.441-2.415-.25-2.747-1.383-.25-.602-.27-1.211-.328-1.824V45.57c.059-1.18.309-2.746 1.578-3.265l.055-.024.047-.011.055-.024.171-.043.102-.023h.125l.023-.012Zm0 0Zm-.352.691c-.95.114-1.235 1.258-1.301 2.032v.304l-.024.024v1.574c.067.816.125 1.871.872 2.414.69.477 1.609-.055 1.804-.793.203-.543.25-1.074.293-1.621v-1.574c-.066-.828-.18-1.985-1.133-2.313l-.078-.023-.023-.024h-.102l-.023-.023h-.262Zm0 0ZM23.871 42.168c1.074.078 1.79 1.066 1.984 2.062.102.454.125.887.168 1.34v1.157c-.054 1.18-.34 2.73-1.62 3.207-1.11.441-2.415-.25-2.743-1.383-.25-.602-.273-1.211-.328-1.824V45.57c.055-1.18.305-2.746 1.574-3.265l.055-.024.047-.011.058-.024.168-.043.102-.023h.125l.023-.012Zm0 0Zm-.351.691c-.954.114-1.239 1.258-1.305 2.032v.304l-.024.024v1.574c.07.816.125 1.871.875 2.414.692.477 1.61-.055 1.801-.793.203-.543.25-1.074.297-1.621v-1.574c-.07-.828-.184-1.985-1.137-2.313l-.078-.023-.023-.024h-.102l-.023-.023h-.258Zm0 0ZM7.215 3.629v6.996l.012.023H8.62v.625H4.934v-.625h1.394l.024-.023V4.754c-.477.156-.977.262-1.473.25v-.637c.746.012 1.562-.191 2.129-.738Zm0 0ZM12.406 3.629c1.317.035 2.36 1.387 2.156 2.656-.136 1.27-1.328 1.996-2.18 2.79l-.362.37-.043.024-.454.445-.035.02-.453.453-.047.023-.101.102.023.011h3.672v.75h-4.488v-.68l1.824-1.827c.875-.758 1.895-1.746 1.734-2.993-.09-.726-.703-1.394-1.449-1.453-.762-.113-1.43.489-1.598 1.215l-.023.035-.023.078-.036.125-.066.25-.012.055a4.563 4.563 0 0 1-.453-.61c.227-.929.973-1.804 1.961-1.84Zm0 0ZM18.2 3.629c1.077.082 1.792 1.066 1.984 2.066.101.453.125.883.171 1.336v1.157c-.058 1.18-.34 2.734-1.62 3.21-1.114.442-2.415-.25-2.747-1.382-.25-.602-.27-1.215-.328-1.829V7.032c.059-1.18.309-2.742 1.578-3.265l.055-.024.047-.008.055-.023.171-.047.102-.023h.125l.023-.012Zm0 0Zm-.352.691c-.95.117-1.235 1.262-1.301 2.032v.304l-.024.024v1.578c.067.816.125 1.87.872 2.414.69.476 1.609-.059 1.804-.793.203-.547.25-1.078.293-1.621V6.68c-.066-.828-.18-1.985-1.133-2.313l-.078-.023-.023-.024h-.102l-.023-.02h-.262Zm0 0ZM23.871 3.629c1.074.082 1.79 1.066 1.984 2.066.102.453.125.883.168 1.336v1.157c-.054 1.18-.34 2.734-1.62 3.21-1.11.442-2.415-.25-2.743-1.382-.25-.602-.273-1.215-.328-1.829V7.032c.055-1.18.305-2.742 1.574-3.265l.055-.024.047-.008.058-.023.168-.047.102-.023h.125l.023-.012Zm0 0Zm-.351.691c-.954.117-1.239 1.262-1.305 2.032v.304l-.024.024v1.578c.07.816.125 1.87.875 2.414.692.476 1.61-.059 1.801-.793.203-.547.25-1.078.297-1.621V6.68c-.07-.828-.184-1.985-1.137-2.313l-.078-.023-.023-.024h-.102l-.023-.02h-.258Zm0 0Zm0 0"/><path style="fill:none;stroke-width:.02;stroke-linecap:butt;stroke-linejoin:miter;stroke:#000;stroke-opacity:1;stroke-miterlimit:10" d="M11.7 1.971h-.15M11.7 3.331h-.15M11.7 4.69h-.15M11.7 6.05h-.15M11.7 7.41h-.15" transform="matrix(28.34646 0 0 -28.34646 1 256.118)"/><path style="fill:none;stroke-width:.02;stroke-linecap:round;stroke-linejoin:miter;stroke:#000;stroke-opacity:1;stroke-miterlimit:10" d="M11.7.612v8.157" transform="matrix(28.34646 0 0 -28.34646 1 256.118)"/><path style="fill:none;stroke-width:.02;stroke-linecap:butt;stroke-linejoin:miter;stroke:#000;stroke-opacity:1;stroke-miterlimit:10" d="M2.322.612v.15M3.494.612v.15M4.667.612v.15M5.839.612v.15M7.011.612v.15M8.183.612v.15M9.356.612v.15M10.528.612v.15" transform="matrix(28.34646 0 0 -28.34646 1 256.118)"/><path style="fill:none;stroke-width:.02;stroke-linecap:round;stroke-linejoin:miter;stroke:#000;stroke-opacity:1;stroke-miterlimit:10" d="M1.15.612H11.7" transform="matrix(28.34646 0 0 -28.34646 1 256.118)"/><path style="stroke:none;fill-rule:nonzero;fill:#000;fill-opacity:1" d="M31.984 250.484v.633h-2.972v-.633Zm0 0ZM36.418 245.652c.293.047.633.078.918.215v.66c-.785-.343-1.805-.386-2.418.305-.543.578-.793 1.441-.816 2.2.66-.872 2.144-1.36 2.949-.454.804.93.941 2.266.578 3.402-.395.907-1.316 1.735-2.336 1.543-1.383-.117-2.008-1.656-2.074-2.835-.262-1.668.136-3.766 1.722-4.72l.024-.011.238-.121.067-.024.035-.023.191-.059.16-.042.102-.024h.125l.023-.012Zm0 0Zm-1.113 3.153c-.985.172-1.305 1.36-1.18 2.164.059.761.352 1.77 1.227 1.93.93.124 1.53-.876 1.55-1.68.047-.817 0-1.746-.715-2.278l-.156-.078-.125-.035-.101-.023-.024-.024h-.453Zm0 0ZM65.21 250.484v.633h-2.968v-.633Zm0 0ZM70.074 245.89v4.774l.024.024h1.12v.68h-1.12l-.024.01v1.915h-.86v-1.914l-.023-.012H66.2v-.703c.95-1.586 1.903-3.187 2.856-4.773Zm0 0Zm-.84.43c-.226 1.18-.949 2.192-1.496 3.223-.215.371-.496.781-.656 1.144h2.176l.012-.023v-4.344l-.012-.02Zm0 0ZM98.438 250.484v.633h-2.97v-.633Zm0 0ZM102.012 245.652c1.316.036 2.36 1.383 2.152 2.653-.137 1.27-1.324 1.996-2.176 2.789l-.363.375-.043.023-.457.442-.031.023-.453.453-.047.024-.102.101.024.012h3.671v.746H99.7v-.68l1.824-1.824c.875-.762 1.895-1.746 1.735-2.992-.09-.727-.703-1.395-1.45-1.453-.761-.114-1.43.488-1.601 1.215l-.023.03-.02.083-.035.125-.067.25-.011.055a4.283 4.283 0 0 1-.453-.614c.226-.93.972-1.8 1.96-1.836Zm0 0ZM133.477 245.652c1.078.078 1.793 1.067 1.984 2.063.101.453.125.887.168 1.34v1.156c-.055 1.18-.34 2.73-1.621 3.207-1.11.445-2.414-.246-2.742-1.383-.25-.601-.274-1.21-.328-1.824v-1.156c.054-1.18.304-2.746 1.574-3.266l.058-.023.043-.012.059-.024.168-.042.101-.024h.125l.024-.012Zm0 0Zm-.352.692c-.953.113-1.234 1.258-1.305 2.031v.305l-.023.023v1.574c.07.817.125 1.871.875 2.418.691.477 1.61-.058 1.8-.797.208-.543.25-1.074.298-1.62v-1.575c-.07-.828-.184-1.984-1.133-2.312l-.082-.024-.024-.023h-.101l-.024-.024h-.258Zm0 0ZM166.578 245.652c1.317.036 2.36 1.383 2.156 2.653-.136 1.27-1.328 1.996-2.175 2.789l-.364.375-.047.023-.453.442-.035.023-.453.453-.043.024-.105.101.023.012h3.676v.746h-4.492v-.68l1.828-1.824c.87-.762 1.89-1.746 1.734-2.992-.09-.727-.703-1.395-1.453-1.453-.758-.114-1.43.488-1.598 1.215l-.023.03-.024.083-.03.125-.071.25-.012.055c-.156-.192-.328-.399-.453-.614.227-.93.977-1.8 1.961-1.836Zm0 0ZM201.102 245.89v4.774l.023.024h1.121v.68h-1.121l-.023.01v1.915h-.864v-1.914l-.023-.012h-2.992v-.703c.953-1.586 1.906-3.187 2.859-4.773Zm0 0Zm-.84.43c-.227 1.18-.953 2.192-1.496 3.223-.215.371-.5.781-.66 1.144h2.18l.01-.023v-4.344l-.01-.02Zm0 0ZM233.898 245.652c.293.047.637.078.918.215v.66c-.78-.343-1.8-.386-2.414.305-.547.578-.793 1.441-.816 2.2.656-.872 2.14-1.36 2.95-.454.804.93.937 2.266.577 3.402-.398.907-1.316 1.735-2.336 1.543-1.386-.117-2.007-1.656-2.078-2.835-.258-1.668.137-3.766 1.727-4.72l.02-.011.238-.121.07-.024.031-.023.195-.059.157-.042.105-.024h.125l.02-.012Zm0 0Zm-1.113 3.153c-.984.172-1.3 1.36-1.176 2.164.055.761.352 1.77 1.223 1.93.93.124 1.531-.876 1.555-1.68.043-.817 0-1.746-.715-2.278l-.16-.078-.125-.035-.102-.023-.023-.024h-.453Zm0 0ZM266.414 245.652c1.2.047 2.332 1.34 1.86 2.54-.208.554-.774.898-1.239 1.136 1.156.34 1.86 1.688 1.34 2.797-.547 1.441-2.61 1.895-3.742.852-1.031-.817-1.067-2.586.078-3.309.172-.184.488-.238.637-.375-.989-.285-1.657-1.43-1.192-2.395.375-.859 1.336-1.335 2.258-1.246Zm0 0Zm-.434.649c-.84.02-1.425.972-1.144 1.722.328 1.293 2.496 1.247 2.746-.082.227-.734-.363-1.62-1.168-1.64l-.023-.012h-.387Zm0 0Zm.024 3.367c-.984.066-1.473 1.246-1.215 2.086.172 1.187 1.871 1.539 2.543.59.645-.875.328-2.438-.84-2.676h-.101l-.024-.023h-.351Zm0 0ZM297.137 245.652v6.996l.008.024h1.394v.621h-3.684v-.621h1.395l.023-.024v-5.875c-.476.16-.976.262-1.472.25v-.632c.746.011 1.562-.196 2.129-.739Zm0 0ZM302.453 245.652c1.078.078 1.79 1.067 1.985 2.063.101.453.125.887.167 1.34v1.156c-.054 1.18-.34 2.73-1.62 3.207-1.11.445-2.415-.246-2.743-1.383-.25-.601-.273-1.21-.328-1.824v-1.156c.055-1.18.305-2.746 1.574-3.266l.059-.023.043-.012.058-.024.168-.042.102-.024h.125l.023-.012Zm0 0Zm-.351.692c-.954.113-1.239 1.258-1.305 2.031v.305l-.024.023v1.574c.07.817.125 1.871.875 2.418.692.477 1.61-.058 1.801-.797.207-.543.25-1.074.297-1.62v-1.575c-.07-.828-.183-1.984-1.133-2.312l-.082-.024-.023-.023h-.102l-.023-.024h-.258Zm0 0ZM330.363 245.652v6.996l.012.024h1.395v.621h-3.684v-.621h1.394l.02-.024v-5.875c-.477.16-.973.262-1.473.25v-.632c.75.011 1.567-.196 2.133-.739Zm0 0ZM335.555 245.652c1.316.036 2.36 1.383 2.156 2.653-.137 1.27-1.328 1.996-2.176 2.789l-.363.375-.047.023-.453.442-.035.023-.453.453-.043.024-.106.101.024.012h3.675v.746h-4.492v-.68l1.828-1.824c.871-.762 1.89-1.746 1.735-2.992-.094-.727-.703-1.395-1.453-1.453-.758-.114-1.43.488-1.598 1.215l-.024.03-.023.083-.031.125-.07.25-.012.055c-.156-.192-.328-.399-.453-.614.226-.93.976-1.8 1.96-1.836Zm0 0Zm0 0"/><path style="fill:none;stroke-width:.02;stroke-linecap:butt;stroke-linejoin:miter;stroke:#000;stroke-opacity:1;stroke-miterlimit:10" d="M2.322 8.769v-.15M3.494 8.769v-.15M4.667 8.769v-.15M5.839 8.769v-.15M7.011 8.769v-.15M8.183 8.769v-.15M9.356 8.769v-.15M10.528 8.769v-.15" transform="matrix(28.34646 0 0 -28.34646 1 256.118)"/><path style="fill:none;stroke-width:.02;stroke-linecap:round;stroke-linejoin:miter;stroke:#000;stroke-opacity:1;stroke-miterlimit:10" d="M1.15 8.769H11.7" transform="matrix(28.34646 0 0 -28.34646 1 256.118)"/></svg>