<svg xmlns="http://www.w3.org/2000/svg" width="456.21" height="342.824" viewBox="0 0 342.157 257.118"><path style="fill-rule:nonzero;fill:#6495ed;fill-opacity:1;stroke-width:.02;stroke-linecap:butt;stroke-linejoin:miter;stroke:#fff;stroke-opacity:1;stroke-miterlimit:10" d="M1.622.612h.656v.007h-.656Zm0 0" transform="matrix(28.34646 0 0 -28.34646 1 256.118)"/><path style="fill-rule:nonzero;fill:#6495ed;fill-opacity:1;stroke-width:.02;stroke-linecap:butt;stroke-linejoin:miter;stroke:#fff;stroke-opacity:1;stroke-miterlimit:10" d="M2.277.612h.656v.03h-.656Zm0 0" transform="matrix(28.34646 0 0 -28.34646 1 256.118)"/><path style="fill-rule:nonzero;fill:#6495ed;fill-opacity:1;stroke-width:.02;stroke-linecap:butt;stroke-linejoin:miter;stroke:#fff;stroke-opacity:1;stroke-miterlimit:10" d="M2.933.612h.656v.265h-.656ZM3.589.612h.656v1h-.656ZM4.245.612H4.9v2.596h-.655ZM4.9.612h.656v5.103H4.9ZM5.556.612h.656v7.654h-.656ZM6.212.612h.655v7.684h-.655ZM6.867.612h.656v6.243h-.656ZM7.523.612h.656v3.809h-.656ZM8.179.612h.655v1.75H8.18ZM8.834.612h.656v.456h-.656ZM9.49.612h.656V.73H9.49ZM10.146.612h.656v.044h-.656Zm0 0" transform="matrix(28.34646 0 0 -28.34646 1 256.118)"/><path style="fill:none;stroke-width:.02;stroke-linecap:butt;stroke-linejoin:miter;stroke:#000;stroke-opacity:1;stroke-miterlimit:10" d="M1.06 1.428h.15M1.06 2.243h.15M1.06 3.06h.15M1.06 3.875h.15M1.06 4.69h.15M1.06 5.506h.15M1.06 6.322h.15M1.06 7.138h.15M1.06 7.953h.15" transform="matrix(28.34646 0 0 -28.34646 1 256.118)"/><path style="fill:none;stroke-width:.02;stroke-linecap:round;stroke-linejoin:miter;stroke:#000;stroke-opacity:1;stroke-miterlimit:10" d="M1.06.612v8.157" transform="matrix(28.34646 0 0 -28.34646 1 256.118)"/><path style="stroke:none;fill-rule:nonzero;fill:#000;fill-opacity:1" d="M12.531 234.852c1.078.082 1.793 1.066 1.985 2.066.101.453.125.883.171 1.336v1.156c-.058 1.18-.343 2.735-1.624 3.211-1.11.441-2.415-.25-2.743-1.387-.25-.597-.273-1.21-.328-1.824v-1.156c.055-1.18.305-2.742 1.574-3.266l.059-.023.043-.012.059-.02.168-.046.105-.024h.125l.02-.011Zm0 0Zm-.351.691c-.953.113-1.235 1.262-1.305 2.031v.305l-.023.023v1.578c.07.817.125 1.868.875 2.415.691.476 1.609-.06 1.8-.793.207-.547.25-1.079.297-1.622v-1.578c-.066-.828-.183-1.984-1.133-2.312l-.082-.024-.02-.023h-.105l-.02-.02h-.26Zm0 0ZM17.215 241.586v.91h-.918v-.91Zm0 0ZM21.34 234.852c1.078.082 1.793 1.066 1.984 2.066.102.453.125.883.172 1.336v1.156c-.058 1.18-.34 2.735-1.621 3.211-1.113.441-2.414-.25-2.746-1.387-.246-.597-.27-1.21-.328-1.824v-1.156c.058-1.18.308-2.742 1.578-3.266l.055-.023.046-.012.055-.02.172-.046.102-.024h.125l.023-.011Zm0 0Zm-.352.691c-.949.113-1.234 1.262-1.3 2.031v.305l-.024.023v1.578c.066.817.125 1.868.871 2.415.692.476 1.61-.06 1.805-.793.203-.547.25-1.079.293-1.622v-1.578c-.067-.828-.18-1.984-1.133-2.312l-.078-.024-.024-.023h-.101l-.024-.02h-.261Zm0 0ZM6.863 211.73c1.074.079 1.79 1.067 1.985 2.063.101.453.125.887.168 1.34v1.156c-.055 1.18-.34 2.73-1.621 3.207-1.11.445-2.415-.25-2.743-1.383-.25-.601-.273-1.21-.332-1.824v-1.156c.059-1.18.309-2.746 1.578-3.266l.055-.023.047-.012.059-.023.168-.043.101-.024h.125l.024-.012Zm0 0Zm-.351.692c-.953.113-1.239 1.258-1.305 2.031v.305l-.023.023v1.574c.07.817.125 1.872.875 2.418.691.473 1.609-.058 1.8-.796.204-.543.25-1.075.297-1.622v-1.574c-.07-.828-.183-1.984-1.136-2.312l-.079-.024-.023-.023h-.102l-.023-.024h-.258Zm0 0ZM11.543 218.465v.906h-.918v-.906Zm0 0ZM15.672 211.73c1.078.079 1.793 1.067 1.984 2.063.102.453.125.887.172 1.34v1.156c-.058 1.18-.344 2.73-1.625 3.207-1.11.445-2.414-.25-2.742-1.383-.25-.601-.274-1.21-.328-1.824v-1.156c.055-1.18.305-2.746 1.574-3.266l.059-.023.043-.012.058-.023.172-.043.102-.024h.125l.02-.012Zm0 0Zm-.352.692c-.953.113-1.234 1.258-1.304 2.031v.305l-.024.023v1.574c.07.817.125 1.872.875 2.418.692.473 1.61-.058 1.801-.796.207-.543.25-1.075.297-1.622v-1.574c-.067-.828-.18-1.984-1.133-2.312l-.082-.024-.02-.023h-.105l-.02-.024h-.261Zm0 0ZM21.215 211.73c1.316.036 2.36 1.383 2.156 2.653-.137 1.27-1.328 1.996-2.176 2.789l-.363.375-.047.023-.453.442-.035.023-.453.453-.043.024-.102.101.02.012h3.676v.746h-4.493v-.68l1.828-1.824c.872-.762 1.891-1.746 1.735-2.992-.09-.727-.703-1.395-1.453-1.453-.758-.113-1.43.488-1.598 1.215l-.023.031-.024.082-.031.125-.07.246-.012.059c-.156-.192-.328-.399-.453-.614.226-.93.976-1.8 1.96-1.836Zm0 0ZM6.863 188.61c1.074.077 1.79 1.066 1.985 2.062.101.453.125.883.168 1.336v1.16c-.055 1.176-.34 2.73-1.621 3.207-1.11.441-2.415-.25-2.743-1.383-.25-.601-.273-1.215-.332-1.824v-1.16c.059-1.176.309-2.742 1.578-3.262l.055-.023.047-.012.059-.024.168-.046.101-.02h.125l.024-.012Zm0 0Zm-.351.69c-.953.114-1.239 1.259-1.305 2.028v.309l-.023.023v1.574c.07.817.125 1.871.875 2.414.691.477 1.609-.054 1.8-.793.204-.542.25-1.078.297-1.62v-1.575c-.07-.828-.183-1.984-1.136-2.316l-.079-.02-.023-.023h-.102l-.023-.024h-.258Zm0 0ZM11.543 195.344v.906h-.918v-.906Zm0 0ZM15.672 188.61c1.078.077 1.793 1.066 1.984 2.062.102.453.125.883.172 1.336v1.16c-.058 1.176-.344 2.73-1.625 3.207-1.11.441-2.414-.25-2.742-1.383-.25-.601-.274-1.215-.328-1.824v-1.16c.055-1.176.305-2.742 1.574-3.262l.059-.023.043-.012.058-.024.172-.046.102-.02h.125l.02-.012Zm0 0Zm-.352.69c-.953.114-1.234 1.259-1.304 2.028v.309l-.024.023v1.574c.07.817.125 1.871.875 2.414.692.477 1.61-.054 1.801-.793.207-.542.25-1.078.297-1.62v-1.575c-.067-.828-.18-1.984-1.133-2.316l-.082-.02-.02-.023h-.105l-.02-.024h-.261Zm0 0ZM22.508 188.848v4.773l.023.02h1.125v.683h-1.125l-.023.012v1.914h-.86v-1.914l-.023-.012h-2.992v-.703c.949-1.59 1.902-3.187 2.855-4.773Zm0 0Zm-.836.43c-.227 1.179-.953 2.187-1.5 3.218-.215.375-.496.785-.656 1.145h2.175l.012-.02v-4.344l-.012-.023Zm0 0ZM6.863 165.484c1.074.082 1.79 1.067 1.985 2.067.101.453.125.883.168 1.336v1.156c-.055 1.18-.34 2.734-1.621 3.21-1.11.442-2.415-.25-2.743-1.382-.25-.601-.273-1.215-.332-1.828v-1.156c.059-1.18.309-2.742 1.578-3.266l.055-.023.047-.008.059-.024.168-.046.101-.024h.125l.024-.012Zm0 0Zm-.351.692c-.953.117-1.239 1.262-1.305 2.031v.305l-.023.023v1.578c.07.817.125 1.871.875 2.414.691.477 1.609-.058 1.8-.793.204-.547.25-1.078.297-1.62v-1.579c-.07-.828-.183-1.984-1.136-2.312l-.079-.024-.023-.023h-.102l-.023-.02h-.258Zm0 0ZM11.543 172.223v.906h-.918v-.906Zm0 0ZM15.672 165.484c1.078.082 1.793 1.067 1.984 2.067.102.453.125.883.172 1.336v1.156c-.058 1.18-.344 2.734-1.625 3.21-1.11.442-2.414-.25-2.742-1.382-.25-.601-.274-1.215-.328-1.828v-1.156c.055-1.18.305-2.742 1.574-3.266l.059-.023.043-.008.058-.024.172-.046.102-.024h.125l.02-.012Zm0 0Zm-.352.692c-.953.117-1.234 1.262-1.304 2.031v.305l-.024.023v1.578c.07.817.125 1.871.875 2.414.692.477 1.61-.058 1.801-.793.207-.547.25-1.078.297-1.62v-1.579c-.067-.828-.18-1.984-1.133-2.312l-.082-.024-.02-.023h-.105l-.02-.02h-.261Zm0 0ZM22.078 165.484c.297.047.637.082.918.22v.655c-.781-.34-1.8-.386-2.414.305-.543.578-.793 1.441-.816 2.2.656-.872 2.144-1.36 2.949-.454.805.93.941 2.27.578 3.403-.398.906-1.316 1.734-2.336 1.542-1.383-.113-2.008-1.656-2.074-2.835-.262-1.665.133-3.762 1.722-4.715l.024-.012.234-.125.07-.023.036-.024.191-.055.16-.046.102-.024h.125l.02-.012Zm0 0Zm-1.11 3.153c-.988.172-1.304 1.363-1.179 2.168.055.757.352 1.77 1.223 1.925.93.125 1.531-.87 1.554-1.675.047-.817 0-1.746-.714-2.282l-.16-.078-.126-.035-.101-.023-.02-.02h-.457Zm0 0ZM6.863 142.363c1.074.078 1.79 1.067 1.985 2.063.101.457.125.887.168 1.34v1.156c-.055 1.18-.34 2.734-1.621 3.207-1.11.445-2.415-.246-2.743-1.383-.25-.601-.273-1.21-.332-1.824v-1.156c.059-1.18.309-2.746 1.578-3.266l.055-.023.047-.012.059-.024.168-.043.101-.023h.125l.024-.012Zm0 0Zm-.351.692c-.953.113-1.239 1.257-1.305 2.03v.306l-.023.023v1.574c.07.817.125 1.871.875 2.418.691.477 1.609-.058 1.8-.793.204-.547.25-1.078.297-1.625v-1.574c-.07-.828-.183-1.984-1.136-2.312l-.079-.024-.023-.023h-.102l-.023-.024h-.258Zm0 0ZM11.543 149.098v.91h-.918v-.91Zm0 0ZM15.672 142.363c1.078.078 1.793 1.067 1.984 2.063.102.457.125.887.172 1.34v1.156c-.058 1.18-.344 2.734-1.625 3.207-1.11.445-2.414-.246-2.742-1.383-.25-.601-.274-1.21-.328-1.824v-1.156c.055-1.18.305-2.746 1.574-3.266l.059-.023.043-.012.058-.024.172-.043.102-.023h.125l.02-.012Zm0 0Zm-.352.692c-.953.113-1.234 1.257-1.304 2.03v.306l-.024.023v1.574c.07.817.125 1.871.875 2.418.692.477 1.61-.058 1.801-.793.207-.547.25-1.078.297-1.625v-1.574c-.067-.828-.18-1.984-1.133-2.312l-.082-.024-.02-.023h-.105l-.02-.024h-.261Zm0 0ZM21.363 142.363c1.203.047 2.336 1.34 1.86 2.54-.203.558-.77.898-1.235 1.136 1.157.34 1.86 1.688 1.336 2.8-.543 1.438-2.605 1.891-3.742.849-1.031-.817-1.062-2.586.082-3.31.168-.183.488-.237.633-.374-.985-.285-1.652-1.43-1.188-2.395.371-.859 1.336-1.336 2.254-1.246Zm0 0Zm-.43.649c-.84.02-1.43.972-1.144 1.722.328 1.293 2.492 1.246 2.742-.082.227-.734-.363-1.62-1.168-1.64L21.34 143h-.383Zm0 0Zm.024 3.367c-.988.066-1.477 1.246-1.215 2.086.172 1.191 1.871 1.543 2.54.59.648-.875.331-2.438-.837-2.676h-.105l-.02-.024h-.351Zm0 0ZM12.531 119.242c1.078.078 1.793 1.067 1.985 2.063.101.453.125.886.171 1.34v1.156c-.058 1.18-.343 2.73-1.624 3.207-1.11.441-2.415-.25-2.743-1.383-.25-.602-.273-1.215-.328-1.824v-1.156c.055-1.18.305-2.747 1.574-3.266l.059-.024.043-.011.059-.024.168-.043.105-.023h.125l.02-.012Zm0 0Zm-.351.692c-.953.113-1.235 1.257-1.305 2.027v.309l-.023.023v1.574c.07.817.125 1.871.875 2.414.691.477 1.609-.054 1.8-.793.207-.543.25-1.078.297-1.62v-1.575c-.066-.828-.183-1.984-1.133-2.313l-.082-.023-.02-.023h-.105l-.02-.024h-.26Zm0 0ZM17.215 125.977v.906h-.918v-.906Zm0 0ZM21.691 119.242v6.996l.012.024h1.395v.62h-3.684v-.62h1.395l.023-.024v-5.875c-.477.16-.977.262-1.477.25v-.633c.75.008 1.567-.195 2.133-.738Zm0 0ZM6.863 96.121c1.074.078 1.79 1.063 1.985 2.063.101.453.125.882.168 1.336v1.156c-.055 1.18-.34 2.734-1.621 3.21-1.11.442-2.415-.25-2.743-1.382-.25-.602-.273-1.215-.332-1.828V99.52c.059-1.18.309-2.743 1.578-3.266l.055-.02.047-.011.059-.024.168-.047.101-.023h.125l.024-.008Zm0 0Zm-.351.692c-.953.113-1.239 1.257-1.305 2.027v.308l-.023.02v1.578c.07.817.125 1.871.875 2.414.691.477 1.609-.055 1.8-.793.204-.543.25-1.078.297-1.62v-1.579c-.07-.828-.183-1.984-1.136-2.313l-.079-.023-.023-.02h-.102l-.023-.023h-.258Zm0 0ZM11.543 102.855v.907h-.918v-.907Zm0 0ZM16.023 96.121v6.996l.012.02h1.395v.625h-3.684v-.625h1.395l.02-.02v-5.875c-.473.16-.973.262-1.473.25v-.637c.75.012 1.566-.19 2.132-.734Zm0 0ZM21.215 96.121c1.316.031 2.36 1.383 2.156 2.652-.137 1.27-1.328 1.997-2.176 2.79l-.363.374-.047.02-.453.445-.035.02-.453.457-.043.02-.102.101.02.012h3.676v.75h-4.493v-.68l1.828-1.828c.872-.758 1.891-1.746 1.735-2.992-.09-.727-.703-1.395-1.453-1.45-.758-.113-1.43.485-1.598 1.211l-.023.036-.024.078-.031.125-.07.25-.012.058c-.156-.195-.328-.398-.453-.613.226-.93.976-1.805 1.96-1.836Zm0 0ZM6.863 72.996c1.074.082 1.79 1.067 1.985 2.067.101.453.125.882.168 1.335v1.157c-.055 1.18-.34 2.734-1.621 3.21-1.11.442-2.415-.25-2.743-1.386-.25-.598-.273-1.211-.332-1.824v-1.157c.059-1.18.309-2.742 1.578-3.265l.055-.024.047-.011.059-.02.168-.047.101-.023h.125l.024-.012Zm0 0Zm-.351.692c-.953.113-1.239 1.261-1.305 2.03v.305l-.023.024v1.578c.07.816.125 1.871.875 2.414.691.477 1.609-.059 1.8-.793.204-.547.25-1.078.297-1.621v-1.578c-.07-.828-.183-1.984-1.136-2.313l-.079-.023-.023-.023h-.102l-.023-.02h-.258Zm0 0ZM11.543 79.73v.91h-.918v-.91Zm0 0ZM16.023 72.996v6.996l.012.024h1.395v.625h-3.684v-.625h1.395l.02-.024v-5.87c-.473.155-.973.257-1.473.245v-.633c.75.012 1.566-.191 2.132-.738Zm0 0ZM22.508 73.234v4.774l.023.023h1.125v.68h-1.125l-.023.012v1.918h-.86v-1.918l-.023-.012h-2.992v-.703c.949-1.586 1.902-3.184 2.855-4.774Zm0 0Zm-.836.434c-.227 1.176-.953 2.187-1.5 3.219-.215.375-.496.781-.656 1.144h2.175l.012-.023v-4.34l-.012-.023Zm0 0ZM6.863 49.875c1.074.078 1.79 1.066 1.985 2.063.101.453.125.886.168 1.34v1.156c-.055 1.18-.34 2.73-1.621 3.207-1.11.445-2.415-.25-2.743-1.383-.25-.602-.273-1.211-.332-1.824v-1.157c.059-1.18.309-2.746 1.578-3.265l.055-.024.047-.011.059-.024.168-.043.101-.023h.125l.024-.012Zm0 0Zm-.351.691c-.953.114-1.239 1.258-1.305 2.032v.304l-.023.024V54.5c.07.816.125 1.871.875 2.418.691.473 1.609-.059 1.8-.797.204-.543.25-1.074.297-1.621v-1.574c-.07-.828-.183-1.985-1.136-2.313l-.079-.023-.023-.024h-.102l-.023-.023h-.258Zm0 0ZM11.543 56.61v.906h-.918v-.907Zm0 0ZM16.023 49.875v6.996l.012.024h1.395v.62h-3.684v-.62h1.395l.02-.024v-5.875c-.473.16-.973.262-1.473.25v-.633c.75.012 1.566-.195 2.132-.738Zm0 0ZM22.078 49.875c.297.047.637.078.918.215v.656c-.781-.34-1.8-.383-2.414.309-.543.578-.793 1.441-.816 2.199.656-.875 2.144-1.36 2.949-.453.805.93.941 2.265.578 3.402-.398.906-1.316 1.734-2.336 1.54-1.383-.114-2.008-1.653-2.074-2.833-.262-1.668.133-3.765 1.722-4.719l.024-.011.234-.125.07-.02.036-.023.191-.059.16-.043.102-.023h.125l.02-.012Zm0 0Zm-1.11 3.152c-.988.168-1.304 1.36-1.179 2.164.055.762.352 1.77 1.223 1.93.93.125 1.531-.875 1.554-1.68.047-.816 0-1.746-.714-2.277l-.16-.082-.126-.031-.101-.024-.02-.023h-.457Zm0 0ZM6.863 26.754c1.074.078 1.79 1.066 1.985 2.062.101.454.125.883.168 1.34v1.157c-.055 1.175-.34 2.73-1.621 3.207-1.11.44-2.415-.25-2.743-1.383-.25-.602-.273-1.215-.332-1.825v-1.156c.059-1.18.309-2.746 1.578-3.265l.055-.024.047-.012.059-.023.168-.047.101-.02h.125l.024-.011Zm0 0Zm-.351.691c-.953.114-1.239 1.258-1.305 2.028v.308l-.023.024v1.574c.07.816.125 1.871.875 2.414.691.477 1.609-.055 1.8-.793.204-.543.25-1.078.297-1.621v-1.574c-.07-.828-.183-1.985-1.136-2.317l-.079-.02-.023-.023h-.102l-.023-.023h-.258Zm0 0ZM11.543 33.488v.907h-.918v-.907Zm0 0ZM16.023 26.754v6.996l.012.02h1.395v.625h-3.684v-.625h1.395l.02-.02v-5.875c-.473.16-.973.262-1.473.25v-.637c.75.012 1.566-.191 2.132-.734Zm0 0ZM21.363 26.754c1.203.043 2.336 1.336 1.86 2.539-.203.555-.77.895-1.235 1.133 1.157.34 1.86 1.691 1.336 2.8-.543 1.442-2.605 1.895-3.742.852-1.031-.816-1.062-2.586.082-3.312.168-.18.488-.239.633-.375-.985-.282-1.652-1.426-1.188-2.391.371-.863 1.336-1.34 2.254-1.246Zm0 0Zm-.43.644c-.84.024-1.43.977-1.144 1.723.328 1.293 2.492 1.25 2.742-.078.227-.738-.363-1.621-1.168-1.645l-.023-.011h-.383Zm0 0Zm.024 3.368c-.988.07-1.477 1.25-1.215 2.086.172 1.191 1.871 1.543 2.54.59.648-.872.331-2.438-.837-2.676h-.105l-.02-.024h-.351Zm0 0ZM12.531 3.629c1.078.082 1.793 1.066 1.985 2.066.101.453.125.883.171 1.336v1.157c-.058 1.18-.343 2.734-1.624 3.21-1.11.442-2.415-.25-2.743-1.382-.25-.602-.273-1.215-.328-1.829V7.032c.055-1.18.305-2.742 1.574-3.265l.059-.024.043-.008.059-.023.168-.047.105-.023h.125l.02-.012Zm0 0Zm-.351.691c-.953.117-1.235 1.262-1.305 2.032v.304l-.023.024v1.578c.07.816.125 1.87.875 2.414.691.476 1.609-.059 1.8-.793.207-.547.25-1.078.297-1.621V6.68c-.066-.828-.183-1.985-1.133-2.313l-.082-.023-.02-.024h-.105l-.02-.02h-.26Zm0 0ZM17.215 10.367v.906h-.918v-.906Zm0 0ZM21.215 3.629c1.316.035 2.36 1.387 2.156 2.656-.137 1.27-1.328 1.996-2.176 2.79l-.363.37-.047.024-.453.445-.035.02-.453.453-.043.023-.102.102.02.011h3.676v.75h-4.493v-.68l1.828-1.827c.872-.758 1.891-1.746 1.735-2.993-.09-.726-.703-1.394-1.453-1.453-.758-.113-1.43.489-1.598 1.215l-.023.035-.024.078-.031.125-.07.25-.012.055c-.156-.191-.328-.394-.453-.61.226-.929.976-1.804 1.96-1.84Zm0 0Zm0 0"/><path style="fill:none;stroke-width:.02;stroke-linecap:butt;stroke-linejoin:miter;stroke:#000;stroke-opacity:1;stroke-miterlimit:10" d="M11.7 1.428h-.15M11.7 2.243h-.15M11.7 3.06h-.15M11.7 3.875h-.15M11.7 4.69h-.15M11.7 5.506h-.15M11.7 6.322h-.15M11.7 7.138h-.15M11.7 7.953h-.15" transform="matrix(28.34646 0 0 -28.34646 1 256.118)"/><path style="fill:none;stroke-width:.02;stroke-linecap:round;stroke-linejoin:miter;stroke:#000;stroke-opacity:1;stroke-miterlimit:10" d="M11.7.612v8.157" transform="matrix(28.34646 0 0 -28.34646 1 256.118)"/><path style="fill:none;stroke-width:.02;stroke-linecap:butt;stroke-linejoin:miter;stroke:#000;stroke-opacity:1;stroke-miterlimit:10" d="M2.243.612v.15M3.425.612v.15M4.607.612v.15M5.79.612v.15M6.971.612v.15M8.154.612v.15M9.336.612v.15M10.518.612v.15" transform="matrix(28.34646 0 0 -28.34646 1 256.118)"/><path style="fill:none;stroke-width:.02;stroke-linecap:round;stroke-linejoin:miter;stroke:#000;stroke-opacity:1;stroke-miterlimit:10" d="M1.06.612H11.7" transform="matrix(28.34646 0 0 -28.34646 1 256.118)"/><path style="stroke:none;fill-rule:nonzero;fill:#000;fill-opacity:1" d="M29.453 250.484v.633h-2.969v-.633Zm0 0ZM33.887 245.652c.297.047.636.078.918.215v.66c-.782-.343-1.801-.386-2.414.305-.543.578-.793 1.441-.817 2.2.656-.872 2.145-1.36 2.95-.454.804.93.94 2.266.578 3.402-.399.907-1.317 1.735-2.336 1.543-1.383-.117-2.008-1.656-2.075-2.835-.261-1.668.133-3.766 1.723-4.72l.023-.011.239-.121.066-.024.035-.023.192-.059.16-.042.101-.024h.125l.024-.012Zm0 0Zm-1.11 3.153c-.988.172-1.304 1.36-1.18 2.164.055.761.352 1.77 1.223 1.93.93.124 1.532-.876 1.555-1.68.047-.817 0-1.746-.715-2.278l-.156-.078-.125-.035-.106-.023-.02-.024h-.452Zm0 0ZM62.965 250.484v.633h-2.973v-.633Zm0 0ZM67.828 245.89v4.774l.024.024h1.12v.68h-1.12l-.024.01v1.915h-.863v-1.914l-.024-.012H63.95v-.703c.953-1.586 1.906-3.187 2.86-4.773Zm0 0Zm-.84.43c-.226 1.18-.953 2.192-1.496 3.223-.215.371-.5.781-.656 1.144h2.176l.011-.023v-4.344l-.011-.02Zm0 0ZM96.473 250.484v.633h-2.97v-.633Zm0 0ZM100.043 245.652c1.316.036 2.36 1.383 2.156 2.653-.136 1.27-1.328 1.996-2.176 2.789l-.363.375-.047.023-.453.442-.035.023-.453.453-.043.024-.106.101.024.012h3.676v.746H97.73v-.68l1.829-1.824c.87-.762 1.89-1.746 1.734-2.992-.094-.727-.703-1.395-1.453-1.453-.758-.114-1.43.488-1.598 1.215l-.023.03-.024.083-.03.125-.071.25-.012.055c-.156-.192-.328-.399-.453-.614.226-.93.976-1.8 1.96-1.836Zm0 0ZM131.79 245.652c1.077.078 1.792 1.067 1.983 2.063.102.453.125.887.172 1.34v1.156c-.058 1.18-.34 2.73-1.62 3.207-1.114.445-2.415-.246-2.747-1.383-.246-.601-.27-1.21-.328-1.824v-1.156c.059-1.18.309-2.746 1.578-3.266l.055-.023.047-.012.054-.024.172-.042.102-.024h.125l.023-.012Zm0 0Zm-.352.692c-.95.113-1.235 1.258-1.301 2.031v.305l-.024.023v1.574c.067.817.125 1.871.871 2.418.692.477 1.61-.058 1.805-.797.203-.543.25-1.074.293-1.62v-1.575c-.066-.828-.18-1.984-1.133-2.312l-.078-.024-.023-.023h-.102l-.023-.024h-.262Zm0 0ZM165.176 245.652c1.316.036 2.36 1.383 2.152 2.653-.133 1.27-1.324 1.996-2.176 2.789l-.363.375-.043.023-.457.442-.031.023-.453.453-.047.024-.102.101.024.012h3.672v.746h-4.489v-.68l1.825-1.824c.875-.762 1.894-1.746 1.734-2.992-.09-.727-.703-1.395-1.45-1.453-.761-.114-1.429.488-1.6 1.215l-.024.03-.02.083-.035.125-.066.25-.012.055a4.283 4.283 0 0 1-.453-.614c.226-.93.972-1.8 1.96-1.836Zm0 0ZM199.977 245.89v4.774l.023.024h1.121v.68H200l-.023.01v1.915h-.86v-1.914l-.023-.012h-2.996v-.703c.953-1.586 1.906-3.187 2.859-4.773Zm0 0Zm-.84.43c-.227 1.18-.953 2.192-1.496 3.223-.215.371-.5.781-.657 1.144h2.176l.012-.023v-4.344l-.012-.02Zm0 0ZM233.055 245.652c.297.047.636.078.918.215v.66c-.782-.343-1.801-.386-2.414.305-.543.578-.793 1.441-.817 2.2.656-.872 2.145-1.36 2.95-.454.804.93.94 2.266.578 3.402-.399.907-1.317 1.735-2.336 1.543-1.383-.117-2.008-1.656-2.075-2.835-.261-1.668.133-3.766 1.723-4.72l.023-.011.239-.121.066-.024.035-.023.192-.059.16-.042.101-.024h.125l.024-.012Zm0 0Zm-1.11 3.153c-.988.172-1.304 1.36-1.18 2.164.055.761.352 1.77 1.223 1.93.93.124 1.532-.876 1.555-1.68.047-.817 0-1.746-.715-2.278l-.16-.078-.121-.035-.106-.023-.02-.024h-.452Zm0 0ZM265.852 245.652c1.199.047 2.336 1.34 1.859 2.54-.207.554-.774.898-1.238 1.136 1.156.34 1.859 1.688 1.34 2.797-.543 1.441-2.61 1.895-3.743.852-1.03-.817-1.066-2.586.078-3.309.172-.184.489-.238.637-.375-.988-.285-1.656-1.43-1.191-2.395.375-.859 1.34-1.335 2.258-1.246Zm0 0Zm-.434.649c-.836.02-1.426.972-1.145 1.722.329 1.293 2.497 1.247 2.747-.082.226-.734-.364-1.62-1.168-1.64l-.024-.012h-.387Zm0 0Zm.023 3.367c-.984.066-1.472 1.246-1.21 2.086.167 1.187 1.87 1.539 2.539.59.644-.875.328-2.438-.84-2.676h-.102l-.023-.023h-.352Zm0 0ZM296.855 245.652v6.996l.008.024h1.399v.621h-3.688v-.621h1.395l.023-.024v-5.875c-.476.16-.976.262-1.472.25v-.632c.746.011 1.562-.196 2.128-.739Zm0 0ZM302.172 245.652c1.078.078 1.793 1.067 1.984 2.063.102.453.125.887.168 1.34v1.156c-.054 1.18-.34 2.73-1.62 3.207-1.11.445-2.415-.246-2.743-1.383-.25-.601-.274-1.21-.328-1.824v-1.156c.055-1.18.305-2.746 1.574-3.266l.059-.023.043-.012.058-.024.168-.042.106-.024h.12l.024-.012Zm0 0Zm-.352.692c-.953.113-1.234 1.258-1.304 2.031v.305l-.024.023v1.574c.07.817.125 1.871.875 2.418.692.477 1.61-.058 1.801-.797.207-.543.25-1.074.297-1.62v-1.575c-.07-.828-.184-1.984-1.133-2.312l-.082-.024-.023-.023h-.102l-.02-.024h-.261Zm0 0ZM330.363 245.652v6.996l.012.024h1.395v.621h-3.684v-.621h1.394l.02-.024v-5.875c-.477.16-.973.262-1.473.25v-.632c.75.011 1.567-.196 2.133-.739Zm0 0ZM335.555 245.652c1.316.036 2.36 1.383 2.156 2.653-.137 1.27-1.328 1.996-2.176 2.789l-.363.375-.047.023-.453.442-.035.023-.453.453-.043.024-.106.101.024.012h3.675v.746h-4.492v-.68l1.828-1.824c.871-.762 1.89-1.746 1.735-2.992-.094-.727-.703-1.395-1.453-1.453-.758-.114-1.43.488-1.598 1.215l-.024.03-.023.083-.031.125-.07.25-.012.055c-.156-.192-.328-.399-.453-.614.226-.93.976-1.8 1.96-1.836Zm0 0Zm0 0"/><path style="fill:none;stroke-width:.02;stroke-linecap:butt;stroke-linejoin:miter;stroke:#000;stroke-opacity:1;stroke-miterlimit:10" d="M2.243 8.769v-.15M3.425 8.769v-.15M4.607 8.769v-.15M5.79 8.769v-.15M6.971 8.769v-.15M8.154 8.769v-.15M9.336 8.769v-.15M10.518 8.769v-.15" transform="matrix(28.34646 0 0 -28.34646 1 256.118)"/><path style="fill:none;stroke-width:.02;stroke-linecap:round;stroke-linejoin:miter;stroke:#000;stroke-opacity:1;stroke-miterlimit:10" d="M1.06 8.769H11.7" transform="matrix(28.34646 0 0 -28.34646 1 256.118)"/><path style="fill:none;stroke-width:.05;stroke-linecap:butt;stroke-linejoin:miter;stroke:#d15e5c;stroke-opacity:1;stroke-miterlimit:10" d="m2.243.63.032.002.032.002.031.002.032.002.032.002.032.003.032.003.032.003.032.003.031.004.032.004.032.004.032.005.032.005.032.005.031.006.032.007.032.006.032.008.032.007.032.009.031.009.032.01.032.01.032.01.032.013.032.012.031.014.032.014.032.015.032.016.032.018.032.018.032.02.031.02.032.022.032.023.032.025.032.026.032.027.031.03.032.03.032.032.032.034.032.036.032.037.031.04.032.041.032.044.032.045.032.047.032.05.032.052.031.054.032.057.032.059.032.061.032.064.032.066.031.069.032.07.032.075.032.076.032.08.032.081.032.084.031.087.032.09.032.092.032.095.032.097.032.1.031.103.032.105.032.107.032.11.032.111.032.115.032.116.031.118.032.12.032.123.032.123.032.126.031.126.032.128.032.13.032.13.032.131.032.132.031.133.032.133.032.132.096.398.032.132.031.13.032.13.032.128.032.127.032.125.032.124.031.12.032.12.032.116.032.113.032.11.032.107.032.104.031.1.032.096.032.092.032.088.032.084.032.079.031.074.032.07.032.064.032.06.032.053.032.049.032.043.031.037.032.032.032.026.032.02.032.014.032.009.031.002.032-.003.032-.01.032-.014.032-.021.032-.027.031-.032.032-.038.032-.044.032-.05.032-.054.032-.06.032-.065.031-.07.032-.075.032-.08.032-.083.032-.089.032-.093.031-.096.032-.1.032-.105.032-.107.032-.111.032-.114.031-.116.032-.12.032-.12.032-.124.032-.126.032-.127.031-.128.032-.13.032-.131.032-.132.032-.132.032-.133.032-.132.031-.133.032-.133.032-.132.032-.132.032-.131.032-.13.031-.13.032-.128.032-.126.032-.125.032-.124.032-.122.031-.12.032-.118.032-.116.032-.114.032-.111.032-.11.032-.107.031-.104.032-.102.032-.1.032-.097.032-.095.032-.091.031-.09.032-.086.032-.084.032-.082.032-.078.032-.077.032-.073.031-.071.032-.069.032-.065.032-.064.032-.06.032-.06.031-.056.032-.053.032-.052.032-.05.032-.047.032-.045.031-.043.032-.041.032-.04.032-.037.032-.035.032-.034.031-.032.032-.03.032-.029.032-.027.032-.026.032-.024.031-.024.032-.021.032-.02.032-.02.032-.019.032-.017.032-.016.031-.015.032-.014.032-.013.032-.013.032-.012.032-.01.031-.01.032-.01.032-.01.032-.008.032-.007.032-.008.032-.006.031-.006.032-.006.032-.006.032-.005.032-.004.032-.004.031-.004.032-.004.032-.003.032-.003.032-.003.032-.003.032-.002.031-.003.032-.002.032-.002.032-.001.064-.004.063-.002.064-.002.095-.003h.032l.032-.001.064-.001h.032L11 .615h.063l.032-.001h.064l.063-.001h.16l.095-.001h.223" transform="matrix(28.34646 0 0 -28.34646 1 256.118)"/></svg>