<?xml version="1.0" encoding="UTF-8"?>
<svg xmlns="http://www.w3.org/2000/svg" xmlns:xlink="http://www.w3.org/1999/xlink" width="342.15748pt" height="257.11811pt" viewBox="0 0 342.15748 257.11811" version="1.1">
<g id="surface1">
<path style="fill-rule:nonzero;fill:rgb(39.215686%,58.431373%,92.941176%);fill-opacity:1;stroke-width:0.02;stroke-linecap:butt;stroke-linejoin:miter;stroke:rgb(100%,100%,100%);stroke-opacity:1;stroke-miterlimit:10;" d="M 1.842161 0.612019 L 2.456629 0.612019 L 2.456629 0.627729 L 1.842161 0.627729 Z M 1.842161 0.612019 " transform="matrix(28.346457,0,0,-28.346457,1,256.11811)"/>
<path style="fill-rule:nonzero;fill:rgb(39.215686%,58.431373%,92.941176%);fill-opacity:1;stroke-width:0.02;stroke-linecap:butt;stroke-linejoin:miter;stroke:rgb(100%,100%,100%);stroke-opacity:1;stroke-miterlimit:10;" d="M 2.456629 0.612019 L 3.071234 0.612019 L 3.071234 0.713994 L 2.456629 0.713994 Z M 2.456629 0.612019 " transform="matrix(28.346457,0,0,-28.346457,1,256.11811)"/>
<path style="fill-rule:nonzero;fill:rgb(39.215686%,58.431373%,92.941176%);fill-opacity:1;stroke-width:0.02;stroke-linecap:butt;stroke-linejoin:miter;stroke:rgb(100%,100%,100%);stroke-opacity:1;stroke-miterlimit:10;" d="M 3.071234 0.612019 L 3.685839 0.612019 L 3.685839 0.870953 L 3.071234 0.870953 Z M 3.071234 0.612019 " transform="matrix(28.346457,0,0,-28.346457,1,256.11811)"/>
<path style="fill-rule:nonzero;fill:rgb(39.215686%,58.431373%,92.941176%);fill-opacity:1;stroke-width:0.02;stroke-linecap:butt;stroke-linejoin:miter;stroke:rgb(100%,100%,100%);stroke-opacity:1;stroke-miterlimit:10;" d="M 3.685839 0.612019 L 4.300306 0.612019 L 4.300306 1.765299 L 3.685839 1.765299 Z M 3.685839 0.612019 " transform="matrix(28.346457,0,0,-28.346457,1,256.11811)"/>
<path style="fill-rule:nonzero;fill:rgb(39.215686%,58.431373%,92.941176%);fill-opacity:1;stroke-width:0.02;stroke-linecap:butt;stroke-linejoin:miter;stroke:rgb(100%,100%,100%);stroke-opacity:1;stroke-miterlimit:10;" d="M 4.300306 0.612019 L 4.914911 0.612019 L 4.914911 3.240214 L 4.300306 3.240214 Z M 4.300306 0.612019 " transform="matrix(28.346457,0,0,-28.346457,1,256.11811)"/>
<path style="fill-rule:nonzero;fill:rgb(39.215686%,58.431373%,92.941176%);fill-opacity:1;stroke-width:0.02;stroke-linecap:butt;stroke-linejoin:miter;stroke:rgb(100%,100%,100%);stroke-opacity:1;stroke-miterlimit:10;" d="M 4.914911 0.612019 L 5.529378 0.612019 L 5.529378 5.421097 L 4.914911 5.421097 Z M 4.914911 0.612019 " transform="matrix(28.346457,0,0,-28.346457,1,256.11811)"/>
<path style="fill-rule:nonzero;fill:rgb(39.215686%,58.431373%,92.941176%);fill-opacity:1;stroke-width:0.02;stroke-linecap:butt;stroke-linejoin:miter;stroke:rgb(100%,100%,100%);stroke-opacity:1;stroke-miterlimit:10;" d="M 5.529516 0.612019 L 6.143983 0.612019 L 6.143983 7.390314 L 5.529516 7.390314 Z M 5.529516 0.612019 " transform="matrix(28.346457,0,0,-28.346457,1,256.11811)"/>
<path style="fill-rule:nonzero;fill:rgb(39.215686%,58.431373%,92.941176%);fill-opacity:1;stroke-width:0.02;stroke-linecap:butt;stroke-linejoin:miter;stroke:rgb(100%,100%,100%);stroke-opacity:1;stroke-miterlimit:10;" d="M 6.143983 0.612019 L 6.758588 0.612019 L 6.758588 8.731834 L 6.143983 8.731834 Z M 6.143983 0.612019 " transform="matrix(28.346457,0,0,-28.346457,1,256.11811)"/>
<path style="fill-rule:nonzero;fill:rgb(39.215686%,58.431373%,92.941176%);fill-opacity:1;stroke-width:0.02;stroke-linecap:butt;stroke-linejoin:miter;stroke:rgb(100%,100%,100%);stroke-opacity:1;stroke-miterlimit:10;" d="M 6.758588 0.612019 L 7.373056 0.612019 L 7.373056 7.680666 L 6.758588 7.680666 Z M 6.758588 0.612019 " transform="matrix(28.346457,0,0,-28.346457,1,256.11811)"/>
<path style="fill-rule:nonzero;fill:rgb(39.215686%,58.431373%,92.941176%);fill-opacity:1;stroke-width:0.02;stroke-linecap:butt;stroke-linejoin:miter;stroke:rgb(100%,100%,100%);stroke-opacity:1;stroke-miterlimit:10;" d="M 7.373056 0.612019 L 7.987661 0.612019 L 7.987661 5.405525 L 7.373056 5.405525 Z M 7.373056 0.612019 " transform="matrix(28.346457,0,0,-28.346457,1,256.11811)"/>
<path style="fill-rule:nonzero;fill:rgb(39.215686%,58.431373%,92.941176%);fill-opacity:1;stroke-width:0.02;stroke-linecap:butt;stroke-linejoin:miter;stroke:rgb(100%,100%,100%);stroke-opacity:1;stroke-miterlimit:10;" d="M 7.987661 0.612019 L 8.602266 0.612019 L 8.602266 2.989135 L 7.987661 2.989135 Z M 7.987661 0.612019 " transform="matrix(28.346457,0,0,-28.346457,1,256.11811)"/>
<path style="fill-rule:nonzero;fill:rgb(39.215686%,58.431373%,92.941176%);fill-opacity:1;stroke-width:0.02;stroke-linecap:butt;stroke-linejoin:miter;stroke:rgb(100%,100%,100%);stroke-opacity:1;stroke-miterlimit:10;" d="M 8.602266 0.612019 L 9.216733 0.612019 L 9.216733 1.459237 L 8.602266 1.459237 Z M 8.602266 0.612019 " transform="matrix(28.346457,0,0,-28.346457,1,256.11811)"/>
<path style="fill-rule:nonzero;fill:rgb(39.215686%,58.431373%,92.941176%);fill-opacity:1;stroke-width:0.02;stroke-linecap:butt;stroke-linejoin:miter;stroke:rgb(100%,100%,100%);stroke-opacity:1;stroke-miterlimit:10;" d="M 9.216733 0.612019 L 9.831338 0.612019 L 9.831338 0.815969 L 9.216733 0.815969 Z M 9.216733 0.612019 " transform="matrix(28.346457,0,0,-28.346457,1,256.11811)"/>
<path style="fill-rule:nonzero;fill:rgb(39.215686%,58.431373%,92.941176%);fill-opacity:1;stroke-width:0.02;stroke-linecap:butt;stroke-linejoin:miter;stroke:rgb(100%,100%,100%);stroke-opacity:1;stroke-miterlimit:10;" d="M 9.831338 0.612019 L 10.445805 0.612019 L 10.445805 0.67472 L 9.831338 0.67472 Z M 9.831338 0.612019 " transform="matrix(28.346457,0,0,-28.346457,1,256.11811)"/>
<path style="fill:none;stroke-width:0.02;stroke-linecap:butt;stroke-linejoin:miter;stroke:rgb(0%,0%,0%);stroke-opacity:1;stroke-miterlimit:10;" d="M 1.060814 1.42768 L 1.210744 1.42768 " transform="matrix(28.346457,0,0,-28.346457,1,256.11811)"/>
<path style="fill:none;stroke-width:0.02;stroke-linecap:butt;stroke-linejoin:miter;stroke:rgb(0%,0%,0%);stroke-opacity:1;stroke-miterlimit:10;" d="M 1.060814 2.243341 L 1.210744 2.243341 " transform="matrix(28.346457,0,0,-28.346457,1,256.11811)"/>
<path style="fill:none;stroke-width:0.02;stroke-linecap:butt;stroke-linejoin:miter;stroke:rgb(0%,0%,0%);stroke-opacity:1;stroke-miterlimit:10;" d="M 1.060814 3.05914 L 1.210744 3.05914 " transform="matrix(28.346457,0,0,-28.346457,1,256.11811)"/>
<path style="fill:none;stroke-width:0.02;stroke-linecap:butt;stroke-linejoin:miter;stroke:rgb(0%,0%,0%);stroke-opacity:1;stroke-miterlimit:10;" d="M 1.060814 3.8748 L 1.210744 3.8748 " transform="matrix(28.346457,0,0,-28.346457,1,256.11811)"/>
<path style="fill:none;stroke-width:0.02;stroke-linecap:butt;stroke-linejoin:miter;stroke:rgb(0%,0%,0%);stroke-opacity:1;stroke-miterlimit:10;" d="M 1.060814 4.690461 L 1.210744 4.690461 " transform="matrix(28.346457,0,0,-28.346457,1,256.11811)"/>
<path style="fill:none;stroke-width:0.02;stroke-linecap:butt;stroke-linejoin:miter;stroke:rgb(0%,0%,0%);stroke-opacity:1;stroke-miterlimit:10;" d="M 1.060814 5.50626 L 1.210744 5.50626 " transform="matrix(28.346457,0,0,-28.346457,1,256.11811)"/>
<path style="fill:none;stroke-width:0.02;stroke-linecap:butt;stroke-linejoin:miter;stroke:rgb(0%,0%,0%);stroke-opacity:1;stroke-miterlimit:10;" d="M 1.060814 6.321921 L 1.210744 6.321921 " transform="matrix(28.346457,0,0,-28.346457,1,256.11811)"/>
<path style="fill:none;stroke-width:0.02;stroke-linecap:butt;stroke-linejoin:miter;stroke:rgb(0%,0%,0%);stroke-opacity:1;stroke-miterlimit:10;" d="M 1.060814 7.137581 L 1.210744 7.137581 " transform="matrix(28.346457,0,0,-28.346457,1,256.11811)"/>
<path style="fill:none;stroke-width:0.02;stroke-linecap:butt;stroke-linejoin:miter;stroke:rgb(0%,0%,0%);stroke-opacity:1;stroke-miterlimit:10;" d="M 1.060814 7.953242 L 1.210744 7.953242 " transform="matrix(28.346457,0,0,-28.346457,1,256.11811)"/>
<path style="fill:none;stroke-width:0.02;stroke-linecap:round;stroke-linejoin:miter;stroke:rgb(0%,0%,0%);stroke-opacity:1;stroke-miterlimit:10;" d="M 1.060814 0.612019 L 1.060814 8.769041 " transform="matrix(28.346457,0,0,-28.346457,1,256.11811)"/>
<path style=" stroke:none;fill-rule:nonzero;fill:rgb(0%,0%,0%);fill-opacity:1;" d="M 12.53125 234.851562 C 13.609375 234.933594 14.324219 235.917969 14.515625 236.917969 C 14.617188 237.371094 14.640625 237.800781 14.6875 238.253906 L 14.6875 239.410156 C 14.628906 240.589844 14.34375 242.144531 13.0625 242.621094 C 11.953125 243.0625 10.648438 242.371094 10.320312 241.234375 C 10.070312 240.636719 10.046875 240.023438 9.992188 239.410156 L 9.992188 238.253906 C 10.046875 237.074219 10.296875 235.511719 11.566406 234.988281 L 11.625 234.964844 L 11.667969 234.953125 L 11.726562 234.933594 L 11.894531 234.886719 L 12 234.863281 L 12.125 234.863281 L 12.144531 234.851562 Z M 12.53125 234.851562 Z M 12.179688 235.542969 C 11.226562 235.65625 10.945312 236.804688 10.875 237.574219 L 10.875 237.878906 L 10.851562 237.902344 L 10.851562 239.480469 C 10.921875 240.296875 10.976562 241.347656 11.726562 241.894531 C 12.417969 242.371094 13.335938 241.835938 13.527344 241.101562 C 13.734375 240.554688 13.777344 240.023438 13.824219 239.480469 L 13.824219 237.902344 C 13.757812 237.074219 13.640625 235.917969 12.691406 235.589844 L 12.609375 235.566406 L 12.589844 235.542969 L 12.484375 235.542969 L 12.464844 235.523438 L 12.203125 235.523438 Z M 12.179688 235.542969 Z M 12.179688 235.542969 "/>
<path style=" stroke:none;fill-rule:nonzero;fill:rgb(0%,0%,0%);fill-opacity:1;" d="M 17.214844 241.585938 L 17.214844 242.496094 L 16.296875 242.496094 L 16.296875 241.585938 Z M 17.214844 241.585938 Z M 17.214844 241.585938 "/>
<path style=" stroke:none;fill-rule:nonzero;fill:rgb(0%,0%,0%);fill-opacity:1;" d="M 21.339844 234.851562 C 22.417969 234.933594 23.132812 235.917969 23.324219 236.917969 C 23.425781 237.371094 23.449219 237.800781 23.496094 238.253906 L 23.496094 239.410156 C 23.4375 240.589844 23.15625 242.144531 21.875 242.621094 C 20.761719 243.0625 19.460938 242.371094 19.128906 241.234375 C 18.882812 240.636719 18.859375 240.023438 18.800781 239.410156 L 18.800781 238.253906 C 18.859375 237.074219 19.109375 235.511719 20.378906 234.988281 L 20.433594 234.964844 L 20.480469 234.953125 L 20.535156 234.933594 L 20.707031 234.886719 L 20.808594 234.863281 L 20.933594 234.863281 L 20.957031 234.851562 Z M 21.339844 234.851562 Z M 20.988281 235.542969 C 20.039062 235.65625 19.753906 236.804688 19.6875 237.574219 L 19.6875 237.878906 L 19.664062 237.902344 L 19.664062 239.480469 C 19.730469 240.296875 19.789062 241.347656 20.535156 241.894531 C 21.226562 242.371094 22.144531 241.835938 22.339844 241.101562 C 22.542969 240.554688 22.589844 240.023438 22.632812 239.480469 L 22.632812 237.902344 C 22.566406 237.074219 22.453125 235.917969 21.5 235.589844 L 21.421875 235.566406 L 21.398438 235.542969 L 21.296875 235.542969 L 21.273438 235.523438 L 21.011719 235.523438 Z M 20.988281 235.542969 Z M 20.988281 235.542969 "/>
<path style=" stroke:none;fill-rule:nonzero;fill:rgb(0%,0%,0%);fill-opacity:1;" d="M 6.863281 211.730469 C 7.9375 211.808594 8.652344 212.796875 8.847656 213.792969 C 8.949219 214.246094 8.972656 214.679688 9.015625 215.132812 L 9.015625 216.289062 C 8.960938 217.46875 8.675781 219.019531 7.394531 219.496094 C 6.285156 219.941406 4.980469 219.246094 4.652344 218.113281 C 4.402344 217.511719 4.378906 216.902344 4.320312 216.289062 L 4.320312 215.132812 C 4.378906 213.953125 4.628906 212.386719 5.898438 211.867188 L 5.953125 211.84375 L 6 211.832031 L 6.058594 211.808594 L 6.226562 211.765625 L 6.328125 211.742188 L 6.453125 211.742188 L 6.476562 211.730469 Z M 6.863281 211.730469 Z M 6.511719 212.421875 C 5.558594 212.535156 5.273438 213.679688 5.207031 214.453125 L 5.207031 214.757812 L 5.183594 214.78125 L 5.183594 216.355469 C 5.253906 217.171875 5.308594 218.226562 6.058594 218.773438 C 6.75 219.246094 7.667969 218.714844 7.859375 217.976562 C 8.0625 217.433594 8.109375 216.902344 8.15625 216.355469 L 8.15625 214.78125 C 8.085938 213.953125 7.972656 212.796875 7.019531 212.46875 L 6.941406 212.445312 L 6.917969 212.421875 L 6.816406 212.421875 L 6.792969 212.398438 L 6.535156 212.398438 Z M 6.511719 212.421875 Z M 6.511719 212.421875 "/>
<path style=" stroke:none;fill-rule:nonzero;fill:rgb(0%,0%,0%);fill-opacity:1;" d="M 11.542969 218.464844 L 11.542969 219.371094 L 10.625 219.371094 L 10.625 218.464844 Z M 11.542969 218.464844 Z M 11.542969 218.464844 "/>
<path style=" stroke:none;fill-rule:nonzero;fill:rgb(0%,0%,0%);fill-opacity:1;" d="M 15.671875 211.730469 C 16.75 211.808594 17.464844 212.796875 17.65625 213.792969 C 17.757812 214.246094 17.78125 214.679688 17.828125 215.132812 L 17.828125 216.289062 C 17.769531 217.46875 17.484375 219.019531 16.203125 219.496094 C 15.09375 219.941406 13.789062 219.246094 13.460938 218.113281 C 13.210938 217.511719 13.1875 216.902344 13.132812 216.289062 L 13.132812 215.132812 C 13.1875 213.953125 13.4375 212.386719 14.707031 211.867188 L 14.765625 211.84375 L 14.808594 211.832031 L 14.867188 211.808594 L 15.039062 211.765625 L 15.140625 211.742188 L 15.265625 211.742188 L 15.285156 211.730469 Z M 15.671875 211.730469 Z M 15.320312 212.421875 C 14.367188 212.535156 14.085938 213.679688 14.015625 214.453125 L 14.015625 214.757812 L 13.992188 214.78125 L 13.992188 216.355469 C 14.0625 217.171875 14.117188 218.226562 14.867188 218.773438 C 15.558594 219.246094 16.476562 218.714844 16.667969 217.976562 C 16.875 217.433594 16.917969 216.902344 16.964844 216.355469 L 16.964844 214.78125 C 16.898438 213.953125 16.785156 212.796875 15.832031 212.46875 L 15.75 212.445312 L 15.730469 212.421875 L 15.625 212.421875 L 15.605469 212.398438 L 15.34375 212.398438 Z M 15.320312 212.421875 Z M 15.320312 212.421875 "/>
<path style=" stroke:none;fill-rule:nonzero;fill:rgb(0%,0%,0%);fill-opacity:1;" d="M 21.214844 211.730469 C 22.53125 211.765625 23.574219 213.113281 23.371094 214.382812 C 23.234375 215.652344 22.042969 216.378906 21.195312 217.171875 L 20.832031 217.546875 L 20.785156 217.570312 L 20.332031 218.011719 L 20.296875 218.035156 L 19.84375 218.488281 L 19.800781 218.511719 L 19.699219 218.613281 L 19.71875 218.625 L 23.394531 218.625 L 23.394531 219.371094 L 18.902344 219.371094 L 18.902344 218.691406 L 20.730469 216.867188 C 21.601562 216.105469 22.621094 215.121094 22.464844 213.875 C 22.375 213.148438 21.761719 212.480469 21.011719 212.421875 C 20.253906 212.308594 19.582031 212.910156 19.414062 213.636719 L 19.390625 213.667969 L 19.367188 213.75 L 19.335938 213.875 L 19.265625 214.121094 L 19.253906 214.179688 C 19.097656 213.988281 18.925781 213.78125 18.800781 213.566406 C 19.027344 212.636719 19.777344 211.765625 20.761719 211.730469 Z M 21.214844 211.730469 Z M 21.214844 211.730469 "/>
<path style=" stroke:none;fill-rule:nonzero;fill:rgb(0%,0%,0%);fill-opacity:1;" d="M 6.863281 188.609375 C 7.9375 188.6875 8.652344 189.675781 8.847656 190.671875 C 8.949219 191.125 8.972656 191.554688 9.015625 192.007812 L 9.015625 193.167969 C 8.960938 194.34375 8.675781 195.898438 7.394531 196.375 C 6.285156 196.816406 4.980469 196.125 4.652344 194.992188 C 4.402344 194.390625 4.378906 193.777344 4.320312 193.167969 L 4.320312 192.007812 C 4.378906 190.832031 4.628906 189.265625 5.898438 188.746094 L 5.953125 188.722656 L 6 188.710938 L 6.058594 188.6875 L 6.226562 188.640625 L 6.328125 188.621094 L 6.453125 188.621094 L 6.476562 188.609375 Z M 6.863281 188.609375 Z M 6.511719 189.300781 C 5.558594 189.414062 5.273438 190.558594 5.207031 191.328125 L 5.207031 191.636719 L 5.183594 191.660156 L 5.183594 193.234375 C 5.253906 194.050781 5.308594 195.105469 6.058594 195.648438 C 6.75 196.125 7.667969 195.59375 7.859375 194.855469 C 8.0625 194.3125 8.109375 193.777344 8.15625 193.234375 L 8.15625 191.660156 C 8.085938 190.832031 7.972656 189.675781 7.019531 189.34375 L 6.941406 189.324219 L 6.917969 189.300781 L 6.816406 189.300781 L 6.792969 189.277344 L 6.535156 189.277344 Z M 6.511719 189.300781 Z M 6.511719 189.300781 "/>
<path style=" stroke:none;fill-rule:nonzero;fill:rgb(0%,0%,0%);fill-opacity:1;" d="M 11.542969 195.34375 L 11.542969 196.25 L 10.625 196.25 L 10.625 195.34375 Z M 11.542969 195.34375 Z M 11.542969 195.34375 "/>
<path style=" stroke:none;fill-rule:nonzero;fill:rgb(0%,0%,0%);fill-opacity:1;" d="M 15.671875 188.609375 C 16.75 188.6875 17.464844 189.675781 17.65625 190.671875 C 17.757812 191.125 17.78125 191.554688 17.828125 192.007812 L 17.828125 193.167969 C 17.769531 194.34375 17.484375 195.898438 16.203125 196.375 C 15.09375 196.816406 13.789062 196.125 13.460938 194.992188 C 13.210938 194.390625 13.1875 193.777344 13.132812 193.167969 L 13.132812 192.007812 C 13.1875 190.832031 13.4375 189.265625 14.707031 188.746094 L 14.765625 188.722656 L 14.808594 188.710938 L 14.867188 188.6875 L 15.039062 188.640625 L 15.140625 188.621094 L 15.265625 188.621094 L 15.285156 188.609375 Z M 15.671875 188.609375 Z M 15.320312 189.300781 C 14.367188 189.414062 14.085938 190.558594 14.015625 191.328125 L 14.015625 191.636719 L 13.992188 191.660156 L 13.992188 193.234375 C 14.0625 194.050781 14.117188 195.105469 14.867188 195.648438 C 15.558594 196.125 16.476562 195.59375 16.667969 194.855469 C 16.875 194.3125 16.917969 193.777344 16.964844 193.234375 L 16.964844 191.660156 C 16.898438 190.832031 16.785156 189.675781 15.832031 189.34375 L 15.75 189.324219 L 15.730469 189.300781 L 15.625 189.300781 L 15.605469 189.277344 L 15.34375 189.277344 Z M 15.320312 189.300781 Z M 15.320312 189.300781 "/>
<path style=" stroke:none;fill-rule:nonzero;fill:rgb(0%,0%,0%);fill-opacity:1;" d="M 22.507812 188.847656 L 22.507812 193.621094 L 22.53125 193.640625 L 23.65625 193.640625 L 23.65625 194.324219 L 22.53125 194.324219 L 22.507812 194.335938 L 22.507812 196.25 L 21.648438 196.25 L 21.648438 194.335938 L 21.625 194.324219 L 18.632812 194.324219 L 18.632812 193.621094 C 19.582031 192.03125 20.535156 190.433594 21.488281 188.847656 Z M 22.507812 188.847656 Z M 21.671875 189.277344 C 21.445312 190.457031 20.71875 191.464844 20.171875 192.496094 C 19.957031 192.871094 19.675781 193.28125 19.515625 193.640625 L 21.691406 193.640625 L 21.703125 193.621094 L 21.703125 189.277344 L 21.691406 189.253906 Z M 21.671875 189.277344 Z M 21.671875 189.277344 "/>
<path style=" stroke:none;fill-rule:nonzero;fill:rgb(0%,0%,0%);fill-opacity:1;" d="M 6.863281 165.484375 C 7.9375 165.566406 8.652344 166.550781 8.847656 167.550781 C 8.949219 168.003906 8.972656 168.433594 9.015625 168.886719 L 9.015625 170.042969 C 8.960938 171.222656 8.675781 172.777344 7.394531 173.253906 C 6.285156 173.695312 4.980469 173.003906 4.652344 171.871094 C 4.402344 171.269531 4.378906 170.65625 4.320312 170.042969 L 4.320312 168.886719 C 4.378906 167.707031 4.628906 166.144531 5.898438 165.621094 L 5.953125 165.597656 L 6 165.589844 L 6.058594 165.566406 L 6.226562 165.519531 L 6.328125 165.496094 L 6.453125 165.496094 L 6.476562 165.484375 Z M 6.863281 165.484375 Z M 6.511719 166.175781 C 5.558594 166.292969 5.273438 167.4375 5.207031 168.207031 L 5.207031 168.511719 L 5.183594 168.535156 L 5.183594 170.113281 C 5.253906 170.929688 5.308594 171.984375 6.058594 172.527344 C 6.75 173.003906 7.667969 172.46875 7.859375 171.734375 C 8.0625 171.1875 8.109375 170.65625 8.15625 170.113281 L 8.15625 168.535156 C 8.085938 167.707031 7.972656 166.550781 7.019531 166.222656 L 6.941406 166.199219 L 6.917969 166.175781 L 6.816406 166.175781 L 6.792969 166.15625 L 6.535156 166.15625 Z M 6.511719 166.175781 Z M 6.511719 166.175781 "/>
<path style=" stroke:none;fill-rule:nonzero;fill:rgb(0%,0%,0%);fill-opacity:1;" d="M 11.542969 172.222656 L 11.542969 173.128906 L 10.625 173.128906 L 10.625 172.222656 Z M 11.542969 172.222656 Z M 11.542969 172.222656 "/>
<path style=" stroke:none;fill-rule:nonzero;fill:rgb(0%,0%,0%);fill-opacity:1;" d="M 15.671875 165.484375 C 16.75 165.566406 17.464844 166.550781 17.65625 167.550781 C 17.757812 168.003906 17.78125 168.433594 17.828125 168.886719 L 17.828125 170.042969 C 17.769531 171.222656 17.484375 172.777344 16.203125 173.253906 C 15.09375 173.695312 13.789062 173.003906 13.460938 171.871094 C 13.210938 171.269531 13.1875 170.65625 13.132812 170.042969 L 13.132812 168.886719 C 13.1875 167.707031 13.4375 166.144531 14.707031 165.621094 L 14.765625 165.597656 L 14.808594 165.589844 L 14.867188 165.566406 L 15.039062 165.519531 L 15.140625 165.496094 L 15.265625 165.496094 L 15.285156 165.484375 Z M 15.671875 165.484375 Z M 15.320312 166.175781 C 14.367188 166.292969 14.085938 167.4375 14.015625 168.207031 L 14.015625 168.511719 L 13.992188 168.535156 L 13.992188 170.113281 C 14.0625 170.929688 14.117188 171.984375 14.867188 172.527344 C 15.558594 173.003906 16.476562 172.46875 16.667969 171.734375 C 16.875 171.1875 16.917969 170.65625 16.964844 170.113281 L 16.964844 168.535156 C 16.898438 167.707031 16.785156 166.550781 15.832031 166.222656 L 15.75 166.199219 L 15.730469 166.175781 L 15.625 166.175781 L 15.605469 166.15625 L 15.34375 166.15625 Z M 15.320312 166.175781 Z M 15.320312 166.175781 "/>
<path style=" stroke:none;fill-rule:nonzero;fill:rgb(0%,0%,0%);fill-opacity:1;" d="M 22.078125 165.484375 C 22.375 165.53125 22.714844 165.566406 22.996094 165.703125 L 22.996094 166.359375 C 22.214844 166.019531 21.195312 165.972656 20.582031 166.664062 C 20.039062 167.242188 19.789062 168.105469 19.765625 168.863281 C 20.421875 167.992188 21.910156 167.503906 22.714844 168.410156 C 23.519531 169.339844 23.65625 170.679688 23.292969 171.8125 C 22.894531 172.71875 21.976562 173.546875 20.957031 173.355469 C 19.574219 173.242188 18.949219 171.699219 18.882812 170.519531 C 18.621094 168.855469 19.015625 166.757812 20.605469 165.804688 L 20.628906 165.792969 L 20.863281 165.667969 L 20.933594 165.644531 L 20.96875 165.621094 L 21.160156 165.566406 L 21.320312 165.519531 L 21.421875 165.496094 L 21.546875 165.496094 L 21.566406 165.484375 Z M 22.078125 165.484375 Z M 20.96875 168.636719 C 19.980469 168.808594 19.664062 170 19.789062 170.804688 C 19.84375 171.5625 20.140625 172.574219 21.011719 172.730469 C 21.941406 172.855469 22.542969 171.859375 22.566406 171.054688 C 22.613281 170.238281 22.566406 169.308594 21.851562 168.773438 L 21.691406 168.695312 L 21.566406 168.660156 L 21.464844 168.636719 L 21.445312 168.617188 L 20.988281 168.617188 Z M 20.96875 168.636719 Z M 20.96875 168.636719 "/>
<path style=" stroke:none;fill-rule:nonzero;fill:rgb(0%,0%,0%);fill-opacity:1;" d="M 6.863281 142.363281 C 7.9375 142.441406 8.652344 143.429688 8.847656 144.425781 C 8.949219 144.882812 8.972656 145.3125 9.015625 145.765625 L 9.015625 146.921875 C 8.960938 148.101562 8.675781 149.65625 7.394531 150.128906 C 6.285156 150.574219 4.980469 149.882812 4.652344 148.746094 C 4.402344 148.144531 4.378906 147.535156 4.320312 146.921875 L 4.320312 145.765625 C 4.378906 144.585938 4.628906 143.019531 5.898438 142.5 L 5.953125 142.476562 L 6 142.464844 L 6.058594 142.441406 L 6.226562 142.398438 L 6.328125 142.375 L 6.453125 142.375 L 6.476562 142.363281 Z M 6.863281 142.363281 Z M 6.511719 143.054688 C 5.558594 143.167969 5.273438 144.3125 5.207031 145.085938 L 5.207031 145.390625 L 5.183594 145.414062 L 5.183594 146.988281 C 5.253906 147.804688 5.308594 148.859375 6.058594 149.40625 C 6.75 149.882812 7.667969 149.347656 7.859375 148.613281 C 8.0625 148.066406 8.109375 147.535156 8.15625 146.988281 L 8.15625 145.414062 C 8.085938 144.585938 7.972656 143.429688 7.019531 143.101562 L 6.941406 143.078125 L 6.917969 143.054688 L 6.816406 143.054688 L 6.792969 143.03125 L 6.535156 143.03125 Z M 6.511719 143.054688 Z M 6.511719 143.054688 "/>
<path style=" stroke:none;fill-rule:nonzero;fill:rgb(0%,0%,0%);fill-opacity:1;" d="M 11.542969 149.097656 L 11.542969 150.007812 L 10.625 150.007812 L 10.625 149.097656 Z M 11.542969 149.097656 Z M 11.542969 149.097656 "/>
<path style=" stroke:none;fill-rule:nonzero;fill:rgb(0%,0%,0%);fill-opacity:1;" d="M 15.671875 142.363281 C 16.75 142.441406 17.464844 143.429688 17.65625 144.425781 C 17.757812 144.882812 17.78125 145.3125 17.828125 145.765625 L 17.828125 146.921875 C 17.769531 148.101562 17.484375 149.65625 16.203125 150.128906 C 15.09375 150.574219 13.789062 149.882812 13.460938 148.746094 C 13.210938 148.144531 13.1875 147.535156 13.132812 146.921875 L 13.132812 145.765625 C 13.1875 144.585938 13.4375 143.019531 14.707031 142.5 L 14.765625 142.476562 L 14.808594 142.464844 L 14.867188 142.441406 L 15.039062 142.398438 L 15.140625 142.375 L 15.265625 142.375 L 15.285156 142.363281 Z M 15.671875 142.363281 Z M 15.320312 143.054688 C 14.367188 143.167969 14.085938 144.3125 14.015625 145.085938 L 14.015625 145.390625 L 13.992188 145.414062 L 13.992188 146.988281 C 14.0625 147.804688 14.117188 148.859375 14.867188 149.40625 C 15.558594 149.882812 16.476562 149.347656 16.667969 148.613281 C 16.875 148.066406 16.917969 147.535156 16.964844 146.988281 L 16.964844 145.414062 C 16.898438 144.585938 16.785156 143.429688 15.832031 143.101562 L 15.75 143.078125 L 15.730469 143.054688 L 15.625 143.054688 L 15.605469 143.03125 L 15.34375 143.03125 Z M 15.320312 143.054688 Z M 15.320312 143.054688 "/>
<path style=" stroke:none;fill-rule:nonzero;fill:rgb(0%,0%,0%);fill-opacity:1;" d="M 21.363281 142.363281 C 22.566406 142.410156 23.699219 143.703125 23.222656 144.902344 C 23.019531 145.460938 22.453125 145.800781 21.988281 146.039062 C 23.144531 146.378906 23.847656 147.726562 23.324219 148.839844 C 22.78125 150.277344 20.71875 150.730469 19.582031 149.6875 C 18.550781 148.871094 18.519531 147.101562 19.664062 146.378906 C 19.832031 146.195312 20.152344 146.140625 20.296875 146.003906 C 19.3125 145.71875 18.644531 144.574219 19.109375 143.609375 C 19.480469 142.75 20.445312 142.273438 21.363281 142.363281 Z M 21.363281 142.363281 Z M 20.933594 143.011719 C 20.09375 143.03125 19.503906 143.984375 19.789062 144.734375 C 20.117188 146.027344 22.28125 145.980469 22.53125 144.652344 C 22.757812 143.917969 22.167969 143.03125 21.363281 143.011719 L 21.339844 143 L 20.957031 143 Z M 20.933594 143.011719 Z M 20.957031 146.378906 C 19.96875 146.445312 19.480469 147.625 19.742188 148.464844 C 19.914062 149.65625 21.613281 150.007812 22.28125 149.054688 C 22.929688 148.179688 22.613281 146.617188 21.445312 146.378906 L 21.339844 146.378906 L 21.320312 146.355469 L 20.96875 146.355469 Z M 20.957031 146.378906 Z M 20.957031 146.378906 "/>
<path style=" stroke:none;fill-rule:nonzero;fill:rgb(0%,0%,0%);fill-opacity:1;" d="M 12.53125 119.242188 C 13.609375 119.320312 14.324219 120.308594 14.515625 121.304688 C 14.617188 121.757812 14.640625 122.191406 14.6875 122.644531 L 14.6875 123.800781 C 14.628906 124.980469 14.34375 126.53125 13.0625 127.007812 C 11.953125 127.449219 10.648438 126.757812 10.320312 125.625 C 10.070312 125.023438 10.046875 124.410156 9.992188 123.800781 L 9.992188 122.644531 C 10.046875 121.464844 10.296875 119.898438 11.566406 119.378906 L 11.625 119.355469 L 11.667969 119.34375 L 11.726562 119.320312 L 11.894531 119.277344 L 12 119.253906 L 12.125 119.253906 L 12.144531 119.242188 Z M 12.53125 119.242188 Z M 12.179688 119.933594 C 11.226562 120.046875 10.945312 121.191406 10.875 121.960938 L 10.875 122.269531 L 10.851562 122.292969 L 10.851562 123.867188 C 10.921875 124.683594 10.976562 125.738281 11.726562 126.28125 C 12.417969 126.757812 13.335938 126.226562 13.527344 125.488281 C 13.734375 124.945312 13.777344 124.410156 13.824219 123.867188 L 13.824219 122.292969 C 13.757812 121.464844 13.640625 120.308594 12.691406 119.980469 L 12.609375 119.957031 L 12.589844 119.933594 L 12.484375 119.933594 L 12.464844 119.910156 L 12.203125 119.910156 Z M 12.179688 119.933594 Z M 12.179688 119.933594 "/>
<path style=" stroke:none;fill-rule:nonzero;fill:rgb(0%,0%,0%);fill-opacity:1;" d="M 17.214844 125.976562 L 17.214844 126.882812 L 16.296875 126.882812 L 16.296875 125.976562 Z M 17.214844 125.976562 Z M 17.214844 125.976562 "/>
<path style=" stroke:none;fill-rule:nonzero;fill:rgb(0%,0%,0%);fill-opacity:1;" d="M 21.691406 119.242188 L 21.691406 126.238281 L 21.703125 126.261719 L 23.097656 126.261719 L 23.097656 126.882812 L 19.414062 126.882812 L 19.414062 126.261719 L 20.808594 126.261719 L 20.832031 126.238281 L 20.832031 120.363281 C 20.355469 120.523438 19.855469 120.625 19.355469 120.613281 L 19.355469 119.980469 C 20.105469 119.988281 20.921875 119.785156 21.488281 119.242188 Z M 21.691406 119.242188 Z M 21.691406 119.242188 "/>
<path style=" stroke:none;fill-rule:nonzero;fill:rgb(0%,0%,0%);fill-opacity:1;" d="M 6.863281 96.121094 C 7.9375 96.199219 8.652344 97.183594 8.847656 98.183594 C 8.949219 98.636719 8.972656 99.066406 9.015625 99.519531 L 9.015625 100.675781 C 8.960938 101.855469 8.675781 103.410156 7.394531 103.886719 C 6.285156 104.328125 4.980469 103.636719 4.652344 102.503906 C 4.402344 101.902344 4.378906 101.289062 4.320312 100.675781 L 4.320312 99.519531 C 4.378906 98.339844 4.628906 96.777344 5.898438 96.253906 L 5.953125 96.234375 L 6 96.222656 L 6.058594 96.199219 L 6.226562 96.152344 L 6.328125 96.128906 L 6.453125 96.128906 L 6.476562 96.121094 Z M 6.863281 96.121094 Z M 6.511719 96.8125 C 5.558594 96.925781 5.273438 98.070312 5.207031 98.839844 L 5.207031 99.148438 L 5.183594 99.167969 L 5.183594 100.746094 C 5.253906 101.5625 5.308594 102.617188 6.058594 103.160156 C 6.75 103.636719 7.667969 103.105469 7.859375 102.367188 C 8.0625 101.824219 8.109375 101.289062 8.15625 100.746094 L 8.15625 99.167969 C 8.085938 98.339844 7.972656 97.183594 7.019531 96.855469 L 6.941406 96.832031 L 6.917969 96.8125 L 6.816406 96.8125 L 6.792969 96.789062 L 6.535156 96.789062 Z M 6.511719 96.8125 Z M 6.511719 96.8125 "/>
<path style=" stroke:none;fill-rule:nonzero;fill:rgb(0%,0%,0%);fill-opacity:1;" d="M 11.542969 102.855469 L 11.542969 103.761719 L 10.625 103.761719 L 10.625 102.855469 Z M 11.542969 102.855469 Z M 11.542969 102.855469 "/>
<path style=" stroke:none;fill-rule:nonzero;fill:rgb(0%,0%,0%);fill-opacity:1;" d="M 16.023438 96.121094 L 16.023438 103.117188 L 16.035156 103.136719 L 17.429688 103.136719 L 17.429688 103.761719 L 13.746094 103.761719 L 13.746094 103.136719 L 15.140625 103.136719 L 15.160156 103.117188 L 15.160156 97.242188 C 14.6875 97.402344 14.1875 97.503906 13.6875 97.492188 L 13.6875 96.855469 C 14.4375 96.867188 15.253906 96.664062 15.820312 96.121094 Z M 16.023438 96.121094 Z M 16.023438 96.121094 "/>
<path style=" stroke:none;fill-rule:nonzero;fill:rgb(0%,0%,0%);fill-opacity:1;" d="M 21.214844 96.121094 C 22.53125 96.152344 23.574219 97.503906 23.371094 98.773438 C 23.234375 100.042969 22.042969 100.769531 21.195312 101.5625 L 20.832031 101.9375 L 20.785156 101.957031 L 20.332031 102.402344 L 20.296875 102.421875 L 19.84375 102.878906 L 19.800781 102.898438 L 19.699219 103 L 19.71875 103.011719 L 23.394531 103.011719 L 23.394531 103.761719 L 18.902344 103.761719 L 18.902344 103.082031 L 20.730469 101.253906 C 21.601562 100.496094 22.621094 99.507812 22.464844 98.261719 C 22.375 97.535156 21.761719 96.867188 21.011719 96.8125 C 20.253906 96.699219 19.582031 97.296875 19.414062 98.023438 L 19.390625 98.058594 L 19.367188 98.136719 L 19.335938 98.261719 L 19.265625 98.511719 L 19.253906 98.570312 C 19.097656 98.375 18.925781 98.171875 18.800781 97.957031 C 19.027344 97.027344 19.777344 96.152344 20.761719 96.121094 Z M 21.214844 96.121094 Z M 21.214844 96.121094 "/>
<path style=" stroke:none;fill-rule:nonzero;fill:rgb(0%,0%,0%);fill-opacity:1;" d="M 6.863281 72.996094 C 7.9375 73.078125 8.652344 74.0625 8.847656 75.0625 C 8.949219 75.515625 8.972656 75.945312 9.015625 76.398438 L 9.015625 77.554688 C 8.960938 78.734375 8.675781 80.289062 7.394531 80.765625 C 6.285156 81.207031 4.980469 80.515625 4.652344 79.378906 C 4.402344 78.78125 4.378906 78.167969 4.320312 77.554688 L 4.320312 76.398438 C 4.378906 75.21875 4.628906 73.65625 5.898438 73.132812 L 5.953125 73.109375 L 6 73.097656 L 6.058594 73.078125 L 6.226562 73.03125 L 6.328125 73.007812 L 6.453125 73.007812 L 6.476562 72.996094 Z M 6.863281 72.996094 Z M 6.511719 73.6875 C 5.558594 73.800781 5.273438 74.949219 5.207031 75.71875 L 5.207031 76.023438 L 5.183594 76.046875 L 5.183594 77.625 C 5.253906 78.441406 5.308594 79.496094 6.058594 80.039062 C 6.75 80.515625 7.667969 79.980469 7.859375 79.246094 C 8.0625 78.699219 8.109375 78.167969 8.15625 77.625 L 8.15625 76.046875 C 8.085938 75.21875 7.972656 74.0625 7.019531 73.734375 L 6.941406 73.710938 L 6.917969 73.6875 L 6.816406 73.6875 L 6.792969 73.667969 L 6.535156 73.667969 Z M 6.511719 73.6875 Z M 6.511719 73.6875 "/>
<path style=" stroke:none;fill-rule:nonzero;fill:rgb(0%,0%,0%);fill-opacity:1;" d="M 11.542969 79.730469 L 11.542969 80.640625 L 10.625 80.640625 L 10.625 79.730469 Z M 11.542969 79.730469 Z M 11.542969 79.730469 "/>
<path style=" stroke:none;fill-rule:nonzero;fill:rgb(0%,0%,0%);fill-opacity:1;" d="M 16.023438 72.996094 L 16.023438 79.992188 L 16.035156 80.015625 L 17.429688 80.015625 L 17.429688 80.640625 L 13.746094 80.640625 L 13.746094 80.015625 L 15.140625 80.015625 L 15.160156 79.992188 L 15.160156 74.121094 C 14.6875 74.277344 14.1875 74.378906 13.6875 74.367188 L 13.6875 73.734375 C 14.4375 73.746094 15.253906 73.542969 15.820312 72.996094 Z M 16.023438 72.996094 Z M 16.023438 72.996094 "/>
<path style=" stroke:none;fill-rule:nonzero;fill:rgb(0%,0%,0%);fill-opacity:1;" d="M 22.507812 73.234375 L 22.507812 78.007812 L 22.53125 78.03125 L 23.65625 78.03125 L 23.65625 78.710938 L 22.53125 78.710938 L 22.507812 78.722656 L 22.507812 80.640625 L 21.648438 80.640625 L 21.648438 78.722656 L 21.625 78.710938 L 18.632812 78.710938 L 18.632812 78.007812 C 19.582031 76.421875 20.535156 74.824219 21.488281 73.234375 Z M 22.507812 73.234375 Z M 21.671875 73.667969 C 21.445312 74.84375 20.71875 75.855469 20.171875 76.886719 C 19.957031 77.261719 19.675781 77.667969 19.515625 78.03125 L 21.691406 78.03125 L 21.703125 78.007812 L 21.703125 73.667969 L 21.691406 73.644531 Z M 21.671875 73.667969 Z M 21.671875 73.667969 "/>
<path style=" stroke:none;fill-rule:nonzero;fill:rgb(0%,0%,0%);fill-opacity:1;" d="M 6.863281 49.875 C 7.9375 49.953125 8.652344 50.941406 8.847656 51.9375 C 8.949219 52.390625 8.972656 52.824219 9.015625 53.277344 L 9.015625 54.433594 C 8.960938 55.613281 8.675781 57.164062 7.394531 57.640625 C 6.285156 58.085938 4.980469 57.390625 4.652344 56.257812 C 4.402344 55.65625 4.378906 55.046875 4.320312 54.433594 L 4.320312 53.277344 C 4.378906 52.097656 4.628906 50.53125 5.898438 50.011719 L 5.953125 49.988281 L 6 49.976562 L 6.058594 49.953125 L 6.226562 49.910156 L 6.328125 49.886719 L 6.453125 49.886719 L 6.476562 49.875 Z M 6.863281 49.875 Z M 6.511719 50.566406 C 5.558594 50.679688 5.273438 51.824219 5.207031 52.597656 L 5.207031 52.902344 L 5.183594 52.925781 L 5.183594 54.5 C 5.253906 55.316406 5.308594 56.371094 6.058594 56.917969 C 6.75 57.390625 7.667969 56.859375 7.859375 56.121094 C 8.0625 55.578125 8.109375 55.046875 8.15625 54.5 L 8.15625 52.925781 C 8.085938 52.097656 7.972656 50.941406 7.019531 50.613281 L 6.941406 50.589844 L 6.917969 50.566406 L 6.816406 50.566406 L 6.792969 50.542969 L 6.535156 50.542969 Z M 6.511719 50.566406 Z M 6.511719 50.566406 "/>
<path style=" stroke:none;fill-rule:nonzero;fill:rgb(0%,0%,0%);fill-opacity:1;" d="M 11.542969 56.609375 L 11.542969 57.515625 L 10.625 57.515625 L 10.625 56.609375 Z M 11.542969 56.609375 Z M 11.542969 56.609375 "/>
<path style=" stroke:none;fill-rule:nonzero;fill:rgb(0%,0%,0%);fill-opacity:1;" d="M 16.023438 49.875 L 16.023438 56.871094 L 16.035156 56.894531 L 17.429688 56.894531 L 17.429688 57.515625 L 13.746094 57.515625 L 13.746094 56.894531 L 15.140625 56.894531 L 15.160156 56.871094 L 15.160156 50.996094 C 14.6875 51.15625 14.1875 51.257812 13.6875 51.246094 L 13.6875 50.613281 C 14.4375 50.625 15.253906 50.417969 15.820312 49.875 Z M 16.023438 49.875 Z M 16.023438 49.875 "/>
<path style=" stroke:none;fill-rule:nonzero;fill:rgb(0%,0%,0%);fill-opacity:1;" d="M 22.078125 49.875 C 22.375 49.921875 22.714844 49.953125 22.996094 50.089844 L 22.996094 50.746094 C 22.214844 50.40625 21.195312 50.363281 20.582031 51.054688 C 20.039062 51.632812 19.789062 52.496094 19.765625 53.253906 C 20.421875 52.378906 21.910156 51.894531 22.714844 52.800781 C 23.519531 53.730469 23.65625 55.066406 23.292969 56.203125 C 22.894531 57.109375 21.976562 57.9375 20.957031 57.742188 C 19.574219 57.628906 18.949219 56.089844 18.882812 54.910156 C 18.621094 53.242188 19.015625 51.144531 20.605469 50.191406 L 20.628906 50.179688 L 20.863281 50.054688 L 20.933594 50.035156 L 20.96875 50.011719 L 21.160156 49.953125 L 21.320312 49.910156 L 21.421875 49.886719 L 21.546875 49.886719 L 21.566406 49.875 Z M 22.078125 49.875 Z M 20.96875 53.027344 C 19.980469 53.195312 19.664062 54.386719 19.789062 55.191406 C 19.84375 55.953125 20.140625 56.960938 21.011719 57.121094 C 21.941406 57.246094 22.542969 56.246094 22.566406 55.441406 C 22.613281 54.625 22.566406 53.695312 21.851562 53.164062 L 21.691406 53.082031 L 21.566406 53.050781 L 21.464844 53.027344 L 21.445312 53.003906 L 20.988281 53.003906 Z M 20.96875 53.027344 Z M 20.96875 53.027344 "/>
<path style=" stroke:none;fill-rule:nonzero;fill:rgb(0%,0%,0%);fill-opacity:1;" d="M 6.863281 26.753906 C 7.9375 26.832031 8.652344 27.820312 8.847656 28.816406 C 8.949219 29.269531 8.972656 29.699219 9.015625 30.15625 L 9.015625 31.3125 C 8.960938 32.488281 8.675781 34.042969 7.394531 34.519531 C 6.285156 34.960938 4.980469 34.269531 4.652344 33.136719 C 4.402344 32.535156 4.378906 31.921875 4.320312 31.3125 L 4.320312 30.15625 C 4.378906 28.976562 4.628906 27.410156 5.898438 26.890625 L 5.953125 26.867188 L 6 26.855469 L 6.058594 26.832031 L 6.226562 26.785156 L 6.328125 26.765625 L 6.453125 26.765625 L 6.476562 26.753906 Z M 6.863281 26.753906 Z M 6.511719 27.445312 C 5.558594 27.558594 5.273438 28.703125 5.207031 29.472656 L 5.207031 29.78125 L 5.183594 29.804688 L 5.183594 31.378906 C 5.253906 32.195312 5.308594 33.25 6.058594 33.792969 C 6.75 34.269531 7.667969 33.738281 7.859375 33 C 8.0625 32.457031 8.109375 31.921875 8.15625 31.378906 L 8.15625 29.804688 C 8.085938 28.976562 7.972656 27.820312 7.019531 27.488281 L 6.941406 27.46875 L 6.917969 27.445312 L 6.816406 27.445312 L 6.792969 27.421875 L 6.535156 27.421875 Z M 6.511719 27.445312 Z M 6.511719 27.445312 "/>
<path style=" stroke:none;fill-rule:nonzero;fill:rgb(0%,0%,0%);fill-opacity:1;" d="M 11.542969 33.488281 L 11.542969 34.394531 L 10.625 34.394531 L 10.625 33.488281 Z M 11.542969 33.488281 Z M 11.542969 33.488281 "/>
<path style=" stroke:none;fill-rule:nonzero;fill:rgb(0%,0%,0%);fill-opacity:1;" d="M 16.023438 26.753906 L 16.023438 33.75 L 16.035156 33.769531 L 17.429688 33.769531 L 17.429688 34.394531 L 13.746094 34.394531 L 13.746094 33.769531 L 15.140625 33.769531 L 15.160156 33.75 L 15.160156 27.875 C 14.6875 28.035156 14.1875 28.136719 13.6875 28.125 L 13.6875 27.488281 C 14.4375 27.5 15.253906 27.296875 15.820312 26.753906 Z M 16.023438 26.753906 Z M 16.023438 26.753906 "/>
<path style=" stroke:none;fill-rule:nonzero;fill:rgb(0%,0%,0%);fill-opacity:1;" d="M 21.363281 26.753906 C 22.566406 26.796875 23.699219 28.089844 23.222656 29.292969 C 23.019531 29.847656 22.453125 30.1875 21.988281 30.425781 C 23.144531 30.765625 23.847656 32.117188 23.324219 33.226562 C 22.78125 34.667969 20.71875 35.121094 19.582031 34.078125 C 18.550781 33.261719 18.519531 31.492188 19.664062 30.765625 C 19.832031 30.585938 20.152344 30.527344 20.296875 30.390625 C 19.3125 30.109375 18.644531 28.964844 19.109375 28 C 19.480469 27.136719 20.445312 26.660156 21.363281 26.753906 Z M 21.363281 26.753906 Z M 20.933594 27.398438 C 20.09375 27.421875 19.503906 28.375 19.789062 29.121094 C 20.117188 30.414062 22.28125 30.371094 22.53125 29.042969 C 22.757812 28.304688 22.167969 27.421875 21.363281 27.398438 L 21.339844 27.386719 L 20.957031 27.386719 Z M 20.933594 27.398438 Z M 20.957031 30.765625 C 19.96875 30.835938 19.480469 32.015625 19.742188 32.851562 C 19.914062 34.042969 21.613281 34.394531 22.28125 33.441406 C 22.929688 32.570312 22.613281 31.003906 21.445312 30.765625 L 21.339844 30.765625 L 21.320312 30.742188 L 20.96875 30.742188 Z M 20.957031 30.765625 Z M 20.957031 30.765625 "/>
<path style=" stroke:none;fill-rule:nonzero;fill:rgb(0%,0%,0%);fill-opacity:1;" d="M 12.53125 3.628906 C 13.609375 3.710938 14.324219 4.695312 14.515625 5.695312 C 14.617188 6.148438 14.640625 6.578125 14.6875 7.03125 L 14.6875 8.1875 C 14.628906 9.367188 14.34375 10.921875 13.0625 11.398438 C 11.953125 11.839844 10.648438 11.148438 10.320312 10.015625 C 10.070312 9.414062 10.046875 8.800781 9.992188 8.1875 L 9.992188 7.03125 C 10.046875 5.851562 10.296875 4.289062 11.566406 3.765625 L 11.625 3.742188 L 11.667969 3.734375 L 11.726562 3.710938 L 11.894531 3.664062 L 12 3.640625 L 12.125 3.640625 L 12.144531 3.628906 Z M 12.53125 3.628906 Z M 12.179688 4.320312 C 11.226562 4.4375 10.945312 5.582031 10.875 6.351562 L 10.875 6.65625 L 10.851562 6.679688 L 10.851562 8.257812 C 10.921875 9.074219 10.976562 10.128906 11.726562 10.671875 C 12.417969 11.148438 13.335938 10.613281 13.527344 9.878906 C 13.734375 9.332031 13.777344 8.800781 13.824219 8.257812 L 13.824219 6.679688 C 13.757812 5.851562 13.640625 4.695312 12.691406 4.367188 L 12.609375 4.34375 L 12.589844 4.320312 L 12.484375 4.320312 L 12.464844 4.300781 L 12.203125 4.300781 Z M 12.179688 4.320312 Z M 12.179688 4.320312 "/>
<path style=" stroke:none;fill-rule:nonzero;fill:rgb(0%,0%,0%);fill-opacity:1;" d="M 17.214844 10.367188 L 17.214844 11.273438 L 16.296875 11.273438 L 16.296875 10.367188 Z M 17.214844 10.367188 Z M 17.214844 10.367188 "/>
<path style=" stroke:none;fill-rule:nonzero;fill:rgb(0%,0%,0%);fill-opacity:1;" d="M 21.214844 3.628906 C 22.53125 3.664062 23.574219 5.015625 23.371094 6.285156 C 23.234375 7.554688 22.042969 8.28125 21.195312 9.074219 L 20.832031 9.445312 L 20.785156 9.46875 L 20.332031 9.914062 L 20.296875 9.933594 L 19.84375 10.386719 L 19.800781 10.410156 L 19.699219 10.511719 L 19.71875 10.523438 L 23.394531 10.523438 L 23.394531 11.273438 L 18.902344 11.273438 L 18.902344 10.59375 L 20.730469 8.765625 C 21.601562 8.007812 22.621094 7.019531 22.464844 5.773438 C 22.375 5.046875 21.761719 4.378906 21.011719 4.320312 C 20.253906 4.207031 19.582031 4.808594 19.414062 5.535156 L 19.390625 5.570312 L 19.367188 5.648438 L 19.335938 5.773438 L 19.265625 6.023438 L 19.253906 6.078125 C 19.097656 5.886719 18.925781 5.683594 18.800781 5.46875 C 19.027344 4.539062 19.777344 3.664062 20.761719 3.628906 Z M 21.214844 3.628906 Z M 21.214844 3.628906 "/>
<path style="fill:none;stroke-width:0.02;stroke-linecap:butt;stroke-linejoin:miter;stroke:rgb(0%,0%,0%);stroke-opacity:1;stroke-miterlimit:10;" d="M 11.699958 1.42768 L 11.550027 1.42768 " transform="matrix(28.346457,0,0,-28.346457,1,256.11811)"/>
<path style="fill:none;stroke-width:0.02;stroke-linecap:butt;stroke-linejoin:miter;stroke:rgb(0%,0%,0%);stroke-opacity:1;stroke-miterlimit:10;" d="M 11.699958 2.243341 L 11.550027 2.243341 " transform="matrix(28.346457,0,0,-28.346457,1,256.11811)"/>
<path style="fill:none;stroke-width:0.02;stroke-linecap:butt;stroke-linejoin:miter;stroke:rgb(0%,0%,0%);stroke-opacity:1;stroke-miterlimit:10;" d="M 11.699958 3.05914 L 11.550027 3.05914 " transform="matrix(28.346457,0,0,-28.346457,1,256.11811)"/>
<path style="fill:none;stroke-width:0.02;stroke-linecap:butt;stroke-linejoin:miter;stroke:rgb(0%,0%,0%);stroke-opacity:1;stroke-miterlimit:10;" d="M 11.699958 3.8748 L 11.550027 3.8748 " transform="matrix(28.346457,0,0,-28.346457,1,256.11811)"/>
<path style="fill:none;stroke-width:0.02;stroke-linecap:butt;stroke-linejoin:miter;stroke:rgb(0%,0%,0%);stroke-opacity:1;stroke-miterlimit:10;" d="M 11.699958 4.690461 L 11.550027 4.690461 " transform="matrix(28.346457,0,0,-28.346457,1,256.11811)"/>
<path style="fill:none;stroke-width:0.02;stroke-linecap:butt;stroke-linejoin:miter;stroke:rgb(0%,0%,0%);stroke-opacity:1;stroke-miterlimit:10;" d="M 11.699958 5.50626 L 11.550027 5.50626 " transform="matrix(28.346457,0,0,-28.346457,1,256.11811)"/>
<path style="fill:none;stroke-width:0.02;stroke-linecap:butt;stroke-linejoin:miter;stroke:rgb(0%,0%,0%);stroke-opacity:1;stroke-miterlimit:10;" d="M 11.699958 6.321921 L 11.550027 6.321921 " transform="matrix(28.346457,0,0,-28.346457,1,256.11811)"/>
<path style="fill:none;stroke-width:0.02;stroke-linecap:butt;stroke-linejoin:miter;stroke:rgb(0%,0%,0%);stroke-opacity:1;stroke-miterlimit:10;" d="M 11.699958 7.137581 L 11.550027 7.137581 " transform="matrix(28.346457,0,0,-28.346457,1,256.11811)"/>
<path style="fill:none;stroke-width:0.02;stroke-linecap:butt;stroke-linejoin:miter;stroke:rgb(0%,0%,0%);stroke-opacity:1;stroke-miterlimit:10;" d="M 11.699958 7.953242 L 11.550027 7.953242 " transform="matrix(28.346457,0,0,-28.346457,1,256.11811)"/>
<path style="fill:none;stroke-width:0.02;stroke-linecap:round;stroke-linejoin:miter;stroke:rgb(0%,0%,0%);stroke-opacity:1;stroke-miterlimit:10;" d="M 11.699958 0.612019 L 11.699958 8.769041 " transform="matrix(28.346457,0,0,-28.346457,1,256.11811)"/>
<path style="fill:none;stroke-width:0.02;stroke-linecap:butt;stroke-linejoin:miter;stroke:rgb(0%,0%,0%);stroke-opacity:1;stroke-miterlimit:10;" d="M 2.242895 0.612019 L 2.242895 0.76195 " transform="matrix(28.346457,0,0,-28.346457,1,256.11811)"/>
<path style="fill:none;stroke-width:0.02;stroke-linecap:butt;stroke-linejoin:miter;stroke:rgb(0%,0%,0%);stroke-opacity:1;stroke-miterlimit:10;" d="M 3.425114 0.612019 L 3.425114 0.76195 " transform="matrix(28.346457,0,0,-28.346457,1,256.11811)"/>
<path style="fill:none;stroke-width:0.02;stroke-linecap:butt;stroke-linejoin:miter;stroke:rgb(0%,0%,0%);stroke-opacity:1;stroke-miterlimit:10;" d="M 4.607195 0.612019 L 4.607195 0.76195 " transform="matrix(28.346457,0,0,-28.346457,1,256.11811)"/>
<path style="fill:none;stroke-width:0.02;stroke-linecap:butt;stroke-linejoin:miter;stroke:rgb(0%,0%,0%);stroke-opacity:1;stroke-miterlimit:10;" d="M 5.789276 0.612019 L 5.789276 0.76195 " transform="matrix(28.346457,0,0,-28.346457,1,256.11811)"/>
<path style="fill:none;stroke-width:0.02;stroke-linecap:butt;stroke-linejoin:miter;stroke:rgb(0%,0%,0%);stroke-opacity:1;stroke-miterlimit:10;" d="M 6.971495 0.612019 L 6.971495 0.76195 " transform="matrix(28.346457,0,0,-28.346457,1,256.11811)"/>
<path style="fill:none;stroke-width:0.02;stroke-linecap:butt;stroke-linejoin:miter;stroke:rgb(0%,0%,0%);stroke-opacity:1;stroke-miterlimit:10;" d="M 8.153576 0.612019 L 8.153576 0.76195 " transform="matrix(28.346457,0,0,-28.346457,1,256.11811)"/>
<path style="fill:none;stroke-width:0.02;stroke-linecap:butt;stroke-linejoin:miter;stroke:rgb(0%,0%,0%);stroke-opacity:1;stroke-miterlimit:10;" d="M 9.335795 0.612019 L 9.335795 0.76195 " transform="matrix(28.346457,0,0,-28.346457,1,256.11811)"/>
<path style="fill:none;stroke-width:0.02;stroke-linecap:butt;stroke-linejoin:miter;stroke:rgb(0%,0%,0%);stroke-opacity:1;stroke-miterlimit:10;" d="M 10.517877 0.612019 L 10.517877 0.76195 " transform="matrix(28.346457,0,0,-28.346457,1,256.11811)"/>
<path style="fill:none;stroke-width:0.02;stroke-linecap:round;stroke-linejoin:miter;stroke:rgb(0%,0%,0%);stroke-opacity:1;stroke-miterlimit:10;" d="M 1.060814 0.612019 L 11.699958 0.612019 " transform="matrix(28.346457,0,0,-28.346457,1,256.11811)"/>
<path style=" stroke:none;fill-rule:nonzero;fill:rgb(0%,0%,0%);fill-opacity:1;" d="M 29.453125 250.484375 L 29.453125 251.117188 L 26.484375 251.117188 L 26.484375 250.484375 Z M 29.453125 250.484375 Z M 29.453125 250.484375 "/>
<path style=" stroke:none;fill-rule:nonzero;fill:rgb(0%,0%,0%);fill-opacity:1;" d="M 33.886719 245.652344 C 34.183594 245.699219 34.523438 245.730469 34.804688 245.867188 L 34.804688 246.527344 C 34.023438 246.183594 33.003906 246.140625 32.390625 246.832031 C 31.847656 247.410156 31.597656 248.273438 31.574219 249.03125 C 32.230469 248.160156 33.71875 247.671875 34.523438 248.578125 C 35.328125 249.507812 35.464844 250.84375 35.101562 251.980469 C 34.703125 252.886719 33.785156 253.714844 32.765625 253.523438 C 31.382812 253.40625 30.757812 251.867188 30.691406 250.6875 C 30.429688 249.019531 30.824219 246.921875 32.414062 245.96875 L 32.4375 245.957031 L 32.675781 245.835938 L 32.742188 245.8125 L 32.777344 245.789062 L 32.96875 245.730469 L 33.128906 245.6875 L 33.230469 245.664062 L 33.355469 245.664062 L 33.378906 245.652344 Z M 33.886719 245.652344 Z M 32.777344 248.804688 C 31.789062 248.976562 31.472656 250.164062 31.597656 250.96875 C 31.652344 251.730469 31.949219 252.738281 32.820312 252.898438 C 33.75 253.023438 34.351562 252.023438 34.375 251.21875 C 34.421875 250.402344 34.375 249.472656 33.660156 248.941406 L 33.503906 248.863281 L 33.378906 248.828125 L 33.273438 248.804688 L 33.253906 248.78125 L 32.800781 248.78125 Z M 32.777344 248.804688 Z M 32.777344 248.804688 "/>
<path style=" stroke:none;fill-rule:nonzero;fill:rgb(0%,0%,0%);fill-opacity:1;" d="M 62.964844 250.484375 L 62.964844 251.117188 L 59.992188 251.117188 L 59.992188 250.484375 Z M 62.964844 250.484375 Z M 62.964844 250.484375 "/>
<path style=" stroke:none;fill-rule:nonzero;fill:rgb(0%,0%,0%);fill-opacity:1;" d="M 67.828125 245.890625 L 67.828125 250.664062 L 67.851562 250.6875 L 68.972656 250.6875 L 68.972656 251.367188 L 67.851562 251.367188 L 67.828125 251.378906 L 67.828125 253.292969 L 66.964844 253.292969 L 66.964844 251.378906 L 66.941406 251.367188 L 63.949219 251.367188 L 63.949219 250.664062 C 64.902344 249.078125 65.855469 247.476562 66.808594 245.890625 Z M 67.828125 245.890625 Z M 66.988281 246.320312 C 66.761719 247.5 66.035156 248.511719 65.492188 249.542969 C 65.277344 249.914062 64.992188 250.324219 64.835938 250.6875 L 67.011719 250.6875 L 67.023438 250.664062 L 67.023438 246.320312 L 67.011719 246.300781 Z M 66.988281 246.320312 Z M 66.988281 246.320312 "/>
<path style=" stroke:none;fill-rule:nonzero;fill:rgb(0%,0%,0%);fill-opacity:1;" d="M 96.472656 250.484375 L 96.472656 251.117188 L 93.503906 251.117188 L 93.503906 250.484375 Z M 96.472656 250.484375 Z M 96.472656 250.484375 "/>
<path style=" stroke:none;fill-rule:nonzero;fill:rgb(0%,0%,0%);fill-opacity:1;" d="M 100.042969 245.652344 C 101.359375 245.6875 102.402344 247.035156 102.199219 248.304688 C 102.0625 249.574219 100.871094 250.300781 100.023438 251.09375 L 99.660156 251.46875 L 99.613281 251.492188 L 99.160156 251.933594 L 99.125 251.957031 L 98.671875 252.410156 L 98.628906 252.433594 L 98.523438 252.535156 L 98.546875 252.546875 L 102.222656 252.546875 L 102.222656 253.292969 L 97.730469 253.292969 L 97.730469 252.613281 L 99.558594 250.789062 C 100.429688 250.027344 101.449219 249.042969 101.292969 247.796875 C 101.199219 247.070312 100.589844 246.402344 99.839844 246.34375 C 99.082031 246.230469 98.410156 246.832031 98.242188 247.558594 L 98.21875 247.589844 L 98.195312 247.671875 L 98.164062 247.796875 L 98.09375 248.046875 L 98.082031 248.101562 C 97.925781 247.910156 97.753906 247.703125 97.628906 247.488281 C 97.855469 246.558594 98.605469 245.6875 99.589844 245.652344 Z M 100.042969 245.652344 Z M 100.042969 245.652344 "/>
<path style=" stroke:none;fill-rule:nonzero;fill:rgb(0%,0%,0%);fill-opacity:1;" d="M 131.789062 245.652344 C 132.867188 245.730469 133.582031 246.71875 133.773438 247.714844 C 133.875 248.167969 133.898438 248.601562 133.945312 249.054688 L 133.945312 250.210938 C 133.886719 251.390625 133.605469 252.941406 132.324219 253.417969 C 131.210938 253.863281 129.910156 253.171875 129.578125 252.035156 C 129.332031 251.433594 129.308594 250.824219 129.25 250.210938 L 129.25 249.054688 C 129.308594 247.875 129.558594 246.308594 130.828125 245.789062 L 130.882812 245.765625 L 130.929688 245.753906 L 130.984375 245.730469 L 131.15625 245.6875 L 131.257812 245.664062 L 131.382812 245.664062 L 131.40625 245.652344 Z M 131.789062 245.652344 Z M 131.4375 246.34375 C 130.488281 246.457031 130.203125 247.601562 130.136719 248.375 L 130.136719 248.679688 L 130.113281 248.703125 L 130.113281 250.277344 C 130.179688 251.09375 130.238281 252.148438 130.984375 252.695312 C 131.675781 253.171875 132.59375 252.636719 132.789062 251.898438 C 132.992188 251.355469 133.039062 250.824219 133.082031 250.277344 L 133.082031 248.703125 C 133.015625 247.875 132.902344 246.71875 131.949219 246.390625 L 131.871094 246.367188 L 131.847656 246.34375 L 131.746094 246.34375 L 131.722656 246.320312 L 131.460938 246.320312 Z M 131.4375 246.34375 Z M 131.4375 246.34375 "/>
<path style=" stroke:none;fill-rule:nonzero;fill:rgb(0%,0%,0%);fill-opacity:1;" d="M 165.175781 245.652344 C 166.492188 245.6875 167.535156 247.035156 167.328125 248.304688 C 167.195312 249.574219 166.003906 250.300781 165.152344 251.09375 L 164.789062 251.46875 L 164.746094 251.492188 L 164.289062 251.933594 L 164.257812 251.957031 L 163.804688 252.410156 L 163.757812 252.433594 L 163.65625 252.535156 L 163.679688 252.546875 L 167.351562 252.546875 L 167.351562 253.292969 L 162.863281 253.292969 L 162.863281 252.613281 L 164.6875 250.789062 C 165.5625 250.027344 166.582031 249.042969 166.421875 247.796875 C 166.332031 247.070312 165.71875 246.402344 164.972656 246.34375 C 164.210938 246.230469 163.542969 246.832031 163.371094 247.558594 L 163.347656 247.589844 L 163.328125 247.671875 L 163.292969 247.796875 L 163.226562 248.046875 L 163.214844 248.101562 C 163.054688 247.910156 162.882812 247.703125 162.761719 247.488281 C 162.988281 246.558594 163.734375 245.6875 164.722656 245.652344 Z M 165.175781 245.652344 Z M 165.175781 245.652344 "/>
<path style=" stroke:none;fill-rule:nonzero;fill:rgb(0%,0%,0%);fill-opacity:1;" d="M 199.976562 245.890625 L 199.976562 250.664062 L 200 250.6875 L 201.121094 250.6875 L 201.121094 251.367188 L 200 251.367188 L 199.976562 251.378906 L 199.976562 253.292969 L 199.117188 253.292969 L 199.117188 251.378906 L 199.09375 251.367188 L 196.097656 251.367188 L 196.097656 250.664062 C 197.050781 249.078125 198.003906 247.476562 198.957031 245.890625 Z M 199.976562 245.890625 Z M 199.136719 246.320312 C 198.910156 247.5 198.183594 248.511719 197.640625 249.542969 C 197.425781 249.914062 197.140625 250.324219 196.984375 250.6875 L 199.160156 250.6875 L 199.171875 250.664062 L 199.171875 246.320312 L 199.160156 246.300781 Z M 199.136719 246.320312 Z M 199.136719 246.320312 "/>
<path style=" stroke:none;fill-rule:nonzero;fill:rgb(0%,0%,0%);fill-opacity:1;" d="M 233.054688 245.652344 C 233.351562 245.699219 233.691406 245.730469 233.972656 245.867188 L 233.972656 246.527344 C 233.191406 246.183594 232.171875 246.140625 231.558594 246.832031 C 231.015625 247.410156 230.765625 248.273438 230.742188 249.03125 C 231.398438 248.160156 232.886719 247.671875 233.691406 248.578125 C 234.496094 249.507812 234.632812 250.84375 234.269531 251.980469 C 233.871094 252.886719 232.953125 253.714844 231.933594 253.523438 C 230.550781 253.40625 229.925781 251.867188 229.859375 250.6875 C 229.597656 249.019531 229.992188 246.921875 231.582031 245.96875 L 231.605469 245.957031 L 231.84375 245.835938 L 231.910156 245.8125 L 231.945312 245.789062 L 232.136719 245.730469 L 232.296875 245.6875 L 232.398438 245.664062 L 232.523438 245.664062 L 232.546875 245.652344 Z M 233.054688 245.652344 Z M 231.945312 248.804688 C 230.957031 248.976562 230.640625 250.164062 230.765625 250.96875 C 230.820312 251.730469 231.117188 252.738281 231.988281 252.898438 C 232.917969 253.023438 233.519531 252.023438 233.542969 251.21875 C 233.589844 250.402344 233.542969 249.472656 232.828125 248.941406 L 232.667969 248.863281 L 232.546875 248.828125 L 232.441406 248.804688 L 232.421875 248.78125 L 231.96875 248.78125 Z M 231.945312 248.804688 Z M 231.945312 248.804688 "/>
<path style=" stroke:none;fill-rule:nonzero;fill:rgb(0%,0%,0%);fill-opacity:1;" d="M 265.851562 245.652344 C 267.050781 245.699219 268.1875 246.992188 267.710938 248.191406 C 267.503906 248.746094 266.9375 249.089844 266.472656 249.328125 C 267.628906 249.667969 268.332031 251.015625 267.8125 252.125 C 267.269531 253.566406 265.203125 254.019531 264.070312 252.976562 C 263.039062 252.160156 263.003906 250.390625 264.148438 249.667969 C 264.320312 249.484375 264.636719 249.429688 264.785156 249.292969 C 263.796875 249.007812 263.128906 247.863281 263.59375 246.898438 C 263.96875 246.039062 264.933594 245.5625 265.851562 245.652344 Z M 265.851562 245.652344 Z M 265.417969 246.300781 C 264.582031 246.320312 263.992188 247.273438 264.273438 248.023438 C 264.601562 249.316406 266.769531 249.269531 267.019531 247.941406 C 267.246094 247.207031 266.65625 246.320312 265.851562 246.300781 L 265.828125 246.289062 L 265.441406 246.289062 Z M 265.417969 246.300781 Z M 265.441406 249.667969 C 264.457031 249.734375 263.96875 250.914062 264.230469 251.753906 C 264.398438 252.941406 266.101562 253.292969 266.769531 252.34375 C 267.414062 251.46875 267.097656 249.90625 265.929688 249.667969 L 265.828125 249.667969 L 265.804688 249.644531 L 265.453125 249.644531 Z M 265.441406 249.667969 Z M 265.441406 249.667969 "/>
<path style=" stroke:none;fill-rule:nonzero;fill:rgb(0%,0%,0%);fill-opacity:1;" d="M 296.855469 245.652344 L 296.855469 252.648438 L 296.863281 252.671875 L 298.261719 252.671875 L 298.261719 253.292969 L 294.574219 253.292969 L 294.574219 252.671875 L 295.96875 252.671875 L 295.992188 252.648438 L 295.992188 246.773438 C 295.515625 246.933594 295.015625 247.035156 294.519531 247.023438 L 294.519531 246.390625 C 295.265625 246.402344 296.082031 246.195312 296.648438 245.652344 Z M 296.855469 245.652344 Z M 296.855469 245.652344 "/>
<path style=" stroke:none;fill-rule:nonzero;fill:rgb(0%,0%,0%);fill-opacity:1;" d="M 302.171875 245.652344 C 303.25 245.730469 303.964844 246.71875 304.15625 247.714844 C 304.257812 248.167969 304.28125 248.601562 304.324219 249.054688 L 304.324219 250.210938 C 304.269531 251.390625 303.984375 252.941406 302.703125 253.417969 C 301.59375 253.863281 300.289062 253.171875 299.960938 252.035156 C 299.710938 251.433594 299.6875 250.824219 299.632812 250.210938 L 299.632812 249.054688 C 299.6875 247.875 299.9375 246.308594 301.207031 245.789062 L 301.265625 245.765625 L 301.308594 245.753906 L 301.367188 245.730469 L 301.535156 245.6875 L 301.640625 245.664062 L 301.761719 245.664062 L 301.785156 245.652344 Z M 302.171875 245.652344 Z M 301.820312 246.34375 C 300.867188 246.457031 300.585938 247.601562 300.515625 248.375 L 300.515625 248.679688 L 300.492188 248.703125 L 300.492188 250.277344 C 300.5625 251.09375 300.617188 252.148438 301.367188 252.695312 C 302.058594 253.171875 302.976562 252.636719 303.167969 251.898438 C 303.375 251.355469 303.417969 250.824219 303.464844 250.277344 L 303.464844 248.703125 C 303.394531 247.875 303.28125 246.71875 302.332031 246.390625 L 302.25 246.367188 L 302.226562 246.34375 L 302.125 246.34375 L 302.105469 246.320312 L 301.84375 246.320312 Z M 301.820312 246.34375 Z M 301.820312 246.34375 "/>
<path style=" stroke:none;fill-rule:nonzero;fill:rgb(0%,0%,0%);fill-opacity:1;" d="M 330.363281 245.652344 L 330.363281 252.648438 L 330.375 252.671875 L 331.769531 252.671875 L 331.769531 253.292969 L 328.085938 253.292969 L 328.085938 252.671875 L 329.480469 252.671875 L 329.5 252.648438 L 329.5 246.773438 C 329.023438 246.933594 328.527344 247.035156 328.027344 247.023438 L 328.027344 246.390625 C 328.777344 246.402344 329.59375 246.195312 330.160156 245.652344 Z M 330.363281 245.652344 Z M 330.363281 245.652344 "/>
<path style=" stroke:none;fill-rule:nonzero;fill:rgb(0%,0%,0%);fill-opacity:1;" d="M 335.554688 245.652344 C 336.871094 245.6875 337.914062 247.035156 337.710938 248.304688 C 337.574219 249.574219 336.382812 250.300781 335.535156 251.09375 L 335.171875 251.46875 L 335.125 251.492188 L 334.671875 251.933594 L 334.636719 251.957031 L 334.183594 252.410156 L 334.140625 252.433594 L 334.035156 252.535156 L 334.058594 252.546875 L 337.734375 252.546875 L 337.734375 253.292969 L 333.242188 253.292969 L 333.242188 252.613281 L 335.070312 250.789062 C 335.941406 250.027344 336.960938 249.042969 336.804688 247.796875 C 336.710938 247.070312 336.101562 246.402344 335.351562 246.34375 C 334.59375 246.230469 333.921875 246.832031 333.753906 247.558594 L 333.730469 247.589844 L 333.707031 247.671875 L 333.675781 247.796875 L 333.605469 248.046875 L 333.59375 248.101562 C 333.4375 247.910156 333.265625 247.703125 333.140625 247.488281 C 333.367188 246.558594 334.117188 245.6875 335.101562 245.652344 Z M 335.554688 245.652344 Z M 335.554688 245.652344 "/>
<path style="fill:none;stroke-width:0.02;stroke-linecap:butt;stroke-linejoin:miter;stroke:rgb(0%,0%,0%);stroke-opacity:1;stroke-miterlimit:10;" d="M 2.242895 8.769041 L 2.242895 8.618972 " transform="matrix(28.346457,0,0,-28.346457,1,256.11811)"/>
<path style="fill:none;stroke-width:0.02;stroke-linecap:butt;stroke-linejoin:miter;stroke:rgb(0%,0%,0%);stroke-opacity:1;stroke-miterlimit:10;" d="M 3.425114 8.769041 L 3.425114 8.618972 " transform="matrix(28.346457,0,0,-28.346457,1,256.11811)"/>
<path style="fill:none;stroke-width:0.02;stroke-linecap:butt;stroke-linejoin:miter;stroke:rgb(0%,0%,0%);stroke-opacity:1;stroke-miterlimit:10;" d="M 4.607195 8.769041 L 4.607195 8.618972 " transform="matrix(28.346457,0,0,-28.346457,1,256.11811)"/>
<path style="fill:none;stroke-width:0.02;stroke-linecap:butt;stroke-linejoin:miter;stroke:rgb(0%,0%,0%);stroke-opacity:1;stroke-miterlimit:10;" d="M 5.789276 8.769041 L 5.789276 8.618972 " transform="matrix(28.346457,0,0,-28.346457,1,256.11811)"/>
<path style="fill:none;stroke-width:0.02;stroke-linecap:butt;stroke-linejoin:miter;stroke:rgb(0%,0%,0%);stroke-opacity:1;stroke-miterlimit:10;" d="M 6.971495 8.769041 L 6.971495 8.618972 " transform="matrix(28.346457,0,0,-28.346457,1,256.11811)"/>
<path style="fill:none;stroke-width:0.02;stroke-linecap:butt;stroke-linejoin:miter;stroke:rgb(0%,0%,0%);stroke-opacity:1;stroke-miterlimit:10;" d="M 8.153576 8.769041 L 8.153576 8.618972 " transform="matrix(28.346457,0,0,-28.346457,1,256.11811)"/>
<path style="fill:none;stroke-width:0.02;stroke-linecap:butt;stroke-linejoin:miter;stroke:rgb(0%,0%,0%);stroke-opacity:1;stroke-miterlimit:10;" d="M 9.335795 8.769041 L 9.335795 8.618972 " transform="matrix(28.346457,0,0,-28.346457,1,256.11811)"/>
<path style="fill:none;stroke-width:0.02;stroke-linecap:butt;stroke-linejoin:miter;stroke:rgb(0%,0%,0%);stroke-opacity:1;stroke-miterlimit:10;" d="M 10.517877 8.769041 L 10.517877 8.618972 " transform="matrix(28.346457,0,0,-28.346457,1,256.11811)"/>
<path style="fill:none;stroke-width:0.02;stroke-linecap:round;stroke-linejoin:miter;stroke:rgb(0%,0%,0%);stroke-opacity:1;stroke-miterlimit:10;" d="M 1.060814 8.769041 L 11.699958 8.769041 " transform="matrix(28.346457,0,0,-28.346457,1,256.11811)"/>
<path style="fill:none;stroke-width:0.05;stroke-linecap:butt;stroke-linejoin:miter;stroke:rgb(82%,37%,36%);stroke-opacity:1;stroke-miterlimit:10;" d="M 2.242895 0.629796 L 2.274728 0.631587 L 2.30656 0.633517 L 2.338393 0.635584 L 2.370363 0.637789 L 2.402196 0.640269 L 2.434029 0.642887 L 2.465862 0.645781 L 2.497694 0.648951 L 2.529527 0.652396 L 2.56136 0.655979 L 2.593192 0.660113 L 2.625025 0.664385 L 2.656858 0.668932 L 2.68869 0.674031 L 2.720523 0.679405 L 2.752356 0.685331 L 2.784188 0.69167 L 2.816021 0.698285 L 2.847992 0.705588 L 2.879824 0.713443 L 2.911657 0.721849 L 2.94349 0.730806 L 2.975322 0.740452 L 3.007155 0.750788 L 3.038988 0.761812 L 3.07082 0.773663 L 3.102653 0.786203 L 3.134486 0.79957 L 3.166318 0.813902 L 3.198151 0.829198 L 3.229984 0.845459 L 3.261816 0.862822 L 3.293787 0.88115 L 3.32562 0.900581 L 3.357452 0.921251 L 3.389285 0.943162 L 3.421118 0.966451 L 3.45295 0.991118 L 3.484783 1.017025 L 3.516616 1.044448 L 3.548448 1.073524 L 3.580281 1.104117 L 3.612114 1.136225 L 3.643946 1.170263 L 3.675779 1.205954 L 3.707612 1.243436 L 3.739444 1.282986 L 3.771415 1.324189 L 3.803248 1.367598 L 3.83508 1.413073 L 3.866913 1.460477 L 3.898746 1.510225 L 3.930578 1.562177 L 3.962411 1.616334 L 3.994244 1.672695 L 4.026076 1.731675 L 4.057909 1.792998 L 4.089742 1.856663 L 4.121574 1.922947 L 4.153407 1.991573 L 4.18524 2.062818 L 4.217072 2.136819 L 4.249043 2.213162 L 4.280876 2.292261 L 4.312708 2.373979 L 4.344541 2.458315 L 4.376374 2.545269 L 4.408206 2.634842 L 4.440039 2.72717 L 4.471872 2.821979 L 4.503704 2.919269 L 4.535537 3.019176 L 4.56737 3.121702 L 4.599202 3.226571 L 4.631035 3.33392 L 4.662868 3.443612 L 4.694701 3.555371 L 4.726671 3.66961 L 4.758504 3.785917 L 4.790336 3.904153 L 4.822169 4.024455 L 4.854002 4.146549 L 4.885834 4.27016 L 4.917667 4.395561 L 4.9495 4.522478 L 4.981332 4.650498 L 5.013165 4.779896 L 5.044998 4.910258 L 5.076831 5.04131 L 5.108663 5.173326 L 5.140496 5.305893 L 5.172329 5.438598 L 5.204299 5.571303 L 5.299797 5.969005 L 5.33163 6.100608 L 5.363462 6.231108 L 5.395295 6.360919 L 5.427128 6.489352 L 5.458961 6.615994 L 5.490793 6.741258 L 5.522626 6.86473 L 5.554459 6.985446 L 5.586291 7.104371 L 5.618124 7.220677 L 5.649957 7.333676 L 5.681927 7.444195 L 5.71376 7.551406 L 5.745592 7.654759 L 5.777425 7.754942 L 5.809258 7.851267 L 5.84109 7.943183 L 5.872923 8.031239 L 5.904756 8.115024 L 5.936589 8.19371 L 5.968421 8.268124 L 6.000254 8.337715 L 6.032087 8.401794 L 6.063919 8.461187 L 6.095752 8.515206 L 6.127722 8.563575 L 6.159555 8.60657 L 6.191388 8.644191 L 6.22322 8.675748 L 6.255053 8.701793 L 6.286886 8.72205 L 6.318719 8.736381 L 6.350551 8.744787 L 6.382384 8.747406 L 6.414217 8.744098 L 6.446049 8.734865 L 6.477882 8.719845 L 6.509715 8.698899 L 6.541547 8.672165 L 6.57338 8.639643 L 6.60535 8.601609 L 6.637183 8.557788 L 6.669016 8.508592 L 6.700849 8.454159 L 6.732681 8.394214 L 6.764514 8.329033 L 6.796347 8.259304 L 6.828179 8.184201 L 6.860012 8.104551 L 6.891845 8.020628 L 6.923677 7.93202 L 6.95551 7.839278 L 6.987343 7.742816 L 7.019175 7.642219 L 7.051008 7.537901 L 7.082979 7.43069 L 7.114811 7.319896 L 7.146644 7.205932 L 7.178477 7.089763 L 7.210309 6.970563 L 7.242142 6.849158 L 7.273975 6.725961 L 7.305807 6.600422 L 7.33764 6.473091 L 7.369473 6.344934 L 7.401305 6.214985 L 7.433138 6.083933 L 7.464971 5.952469 L 7.496803 5.820177 L 7.528636 5.687472 L 7.560607 5.554629 L 7.592439 5.421786 L 7.624272 5.289357 L 7.656105 5.157065 L 7.687937 5.024911 L 7.71977 4.893722 L 7.751603 4.763773 L 7.783435 4.634513 L 7.815268 4.506355 L 7.847101 4.379989 L 7.878933 4.254725 L 7.910766 4.130978 L 7.942599 4.009297 L 7.974431 3.88927 L 8.006264 3.771172 L 8.038235 3.655279 L 8.070067 3.541315 L 8.1019 3.429694 L 8.133733 3.320416 L 8.165565 3.213342 L 8.197398 3.108749 L 8.229231 3.006636 L 8.261063 2.907004 L 8.292896 2.809852 L 8.324729 2.715457 L 8.356561 2.623542 L 8.388394 2.534245 L 8.420227 2.447704 L 8.452059 2.363644 L 8.483892 2.282202 L 8.515863 2.203516 L 8.547695 2.127448 L 8.579528 2.053861 L 8.611361 1.982892 L 8.643193 1.914403 L 8.675026 1.848533 L 8.706859 1.785143 L 8.738691 1.724234 L 8.770524 1.665667 L 8.802357 1.609306 L 8.834189 1.555562 L 8.866022 1.503886 L 8.897855 1.454414 L 8.929688 1.407147 L 8.961658 1.362086 L 8.993491 1.318953 L 9.025323 1.277887 L 9.057156 1.238751 L 9.088989 1.201406 L 9.120821 1.165853 L 9.152654 1.132229 L 9.184487 1.10012 L 9.216319 1.069804 L 9.248152 1.041003 L 9.279985 1.013717 L 9.311817 0.987948 L 9.34365 0.963557 L 9.375483 0.940406 L 9.407316 0.918633 L 9.439286 0.8981 L 9.471119 0.87867 L 9.502951 0.86048 L 9.534784 0.843392 L 9.566617 0.827269 L 9.598449 0.81211 L 9.630282 0.797917 L 9.662115 0.78455 L 9.693947 0.77201 L 9.72578 0.760434 L 9.757613 0.74941 L 9.789446 0.739212 L 9.821278 0.729704 L 9.853111 0.720747 L 9.884944 0.712478 L 9.916914 0.704761 L 9.948747 0.697458 L 9.980579 0.690843 L 10.012412 0.684504 L 10.044245 0.678716 L 10.076077 0.673342 L 10.10791 0.668381 L 10.139743 0.663834 L 10.171576 0.659562 L 10.203408 0.655565 L 10.235241 0.651982 L 10.267074 0.648537 L 10.298906 0.645506 L 10.330739 0.642612 L 10.362572 0.639993 L 10.394542 0.637513 L 10.426375 0.635308 L 10.458207 0.633241 L 10.49004 0.631312 L 10.521873 0.62952 L 10.585538 0.626489 L 10.649204 0.624008 L 10.712869 0.621803 L 10.808367 0.619323 L 10.8402 0.618634 L 10.87217 0.617945 L 10.935836 0.616842 L 10.967668 0.616429 L 10.999501 0.615878 L 11.031334 0.615602 L 11.063166 0.615189 L 11.094999 0.614913 L 11.126832 0.6145 L 11.158664 0.614362 L 11.22233 0.613811 L 11.285995 0.613535 L 11.317828 0.61326 L 11.349798 0.613122 L 11.381631 0.613122 L 11.477129 0.612708 L 11.508962 0.612708 L 11.540794 0.612571 L 11.572627 0.612571 L 11.60446 0.612433 L 11.668125 0.612433 L 11.699958 0.612295 " transform="matrix(28.346457,0,0,-28.346457,1,256.11811)"/>
</g>
</svg>
