<?xml version="1.0" encoding="UTF-8"?>
<svg xmlns="http://www.w3.org/2000/svg" xmlns:xlink="http://www.w3.org/1999/xlink" width="342.15748pt" height="257.11811pt" viewBox="0 0 342.15748 257.11811" version="1.1">
<g id="surface1">
<path style="fill:none;stroke-width:0.02;stroke-linecap:butt;stroke-linejoin:miter;stroke:rgb(0%,0%,0%);stroke-opacity:1;stroke-miterlimit:10;" d="M 0.993979 1.42768 L 1.144047 1.42768 " transform="matrix(28.346457,0,0,-28.346457,1,256.11811)"/>
<path style="fill:none;stroke-width:0.02;stroke-linecap:butt;stroke-linejoin:miter;stroke:rgb(0%,0%,0%);stroke-opacity:1;stroke-miterlimit:10;" d="M 0.993979 2.243341 L 1.144047 2.243341 " transform="matrix(28.346457,0,0,-28.346457,1,256.11811)"/>
<path style="fill:none;stroke-width:0.02;stroke-linecap:butt;stroke-linejoin:miter;stroke:rgb(0%,0%,0%);stroke-opacity:1;stroke-miterlimit:10;" d="M 0.993979 3.05914 L 1.144047 3.05914 " transform="matrix(28.346457,0,0,-28.346457,1,256.11811)"/>
<path style="fill:none;stroke-width:0.02;stroke-linecap:butt;stroke-linejoin:miter;stroke:rgb(0%,0%,0%);stroke-opacity:1;stroke-miterlimit:10;" d="M 0.993979 3.8748 L 1.144047 3.8748 " transform="matrix(28.346457,0,0,-28.346457,1,256.11811)"/>
<path style="fill:none;stroke-width:0.02;stroke-linecap:butt;stroke-linejoin:miter;stroke:rgb(0%,0%,0%);stroke-opacity:1;stroke-miterlimit:10;" d="M 0.993979 4.690461 L 1.144047 4.690461 " transform="matrix(28.346457,0,0,-28.346457,1,256.11811)"/>
<path style="fill:none;stroke-width:0.02;stroke-linecap:butt;stroke-linejoin:miter;stroke:rgb(0%,0%,0%);stroke-opacity:1;stroke-miterlimit:10;" d="M 0.993979 5.50626 L 1.144047 5.50626 " transform="matrix(28.346457,0,0,-28.346457,1,256.11811)"/>
<path style="fill:none;stroke-width:0.02;stroke-linecap:butt;stroke-linejoin:miter;stroke:rgb(0%,0%,0%);stroke-opacity:1;stroke-miterlimit:10;" d="M 0.993979 6.321921 L 1.144047 6.321921 " transform="matrix(28.346457,0,0,-28.346457,1,256.11811)"/>
<path style="fill:none;stroke-width:0.02;stroke-linecap:butt;stroke-linejoin:miter;stroke:rgb(0%,0%,0%);stroke-opacity:1;stroke-miterlimit:10;" d="M 0.993979 7.137581 L 1.144047 7.137581 " transform="matrix(28.346457,0,0,-28.346457,1,256.11811)"/>
<path style="fill:none;stroke-width:0.02;stroke-linecap:butt;stroke-linejoin:miter;stroke:rgb(0%,0%,0%);stroke-opacity:1;stroke-miterlimit:10;" d="M 0.993979 7.953242 L 1.144047 7.953242 " transform="matrix(28.346457,0,0,-28.346457,1,256.11811)"/>
<path style="fill:none;stroke-width:0.02;stroke-linecap:round;stroke-linejoin:miter;stroke:rgb(0%,0%,0%);stroke-opacity:1;stroke-miterlimit:10;" d="M 0.993979 0.612019 L 0.993979 8.769041 " transform="matrix(28.346457,0,0,-28.346457,1,256.11811)"/>
<path style=" stroke:none;fill-rule:nonzero;fill:rgb(0%,0%,0%);fill-opacity:1;" d="M 6.941406 239.683594 L 6.941406 240.316406 L 3.972656 240.316406 L 3.972656 239.683594 Z M 6.941406 239.683594 Z M 6.941406 239.683594 "/>
<path style=" stroke:none;fill-rule:nonzero;fill:rgb(0%,0%,0%);fill-opacity:1;" d="M 10.988281 234.851562 L 10.988281 241.847656 L 11 241.871094 L 12.394531 241.871094 L 12.394531 242.496094 L 8.710938 242.496094 L 8.710938 241.871094 L 10.105469 241.871094 L 10.128906 241.847656 L 10.128906 235.976562 C 9.652344 236.132812 9.152344 236.234375 8.652344 236.222656 L 8.652344 235.589844 C 9.402344 235.601562 10.21875 235.398438 10.785156 234.851562 Z M 10.988281 234.851562 Z M 10.988281 234.851562 "/>
<path style=" stroke:none;fill-rule:nonzero;fill:rgb(0%,0%,0%);fill-opacity:1;" d="M 15.320312 241.585938 L 15.320312 242.496094 L 14.402344 242.496094 L 14.402344 241.585938 Z M 15.320312 241.585938 Z M 15.320312 241.585938 "/>
<path style=" stroke:none;fill-rule:nonzero;fill:rgb(0%,0%,0%);fill-opacity:1;" d="M 19.449219 234.851562 C 20.523438 234.933594 21.238281 235.917969 21.433594 236.917969 C 21.535156 237.371094 21.558594 237.800781 21.601562 238.253906 L 21.601562 239.410156 C 21.546875 240.589844 21.261719 242.144531 19.980469 242.621094 C 18.871094 243.0625 17.566406 242.371094 17.238281 241.234375 C 16.988281 240.636719 16.964844 240.023438 16.90625 239.410156 L 16.90625 238.253906 C 16.964844 237.074219 17.214844 235.511719 18.484375 234.988281 L 18.539062 234.964844 L 18.585938 234.953125 L 18.644531 234.933594 L 18.8125 234.886719 L 18.914062 234.863281 L 19.039062 234.863281 L 19.0625 234.851562 Z M 19.449219 234.851562 Z M 19.097656 235.542969 C 18.144531 235.65625 17.859375 236.804688 17.792969 237.574219 L 17.792969 237.878906 L 17.769531 237.902344 L 17.769531 239.480469 C 17.835938 240.296875 17.894531 241.347656 18.644531 241.894531 C 19.335938 242.371094 20.253906 241.835938 20.445312 241.101562 C 20.648438 240.554688 20.695312 240.023438 20.742188 239.480469 L 20.742188 237.902344 C 20.671875 237.074219 20.558594 235.917969 19.605469 235.589844 L 19.527344 235.566406 L 19.503906 235.542969 L 19.402344 235.542969 L 19.378906 235.523438 L 19.117188 235.523438 Z M 19.097656 235.542969 Z M 19.097656 235.542969 "/>
<path style=" stroke:none;fill-rule:nonzero;fill:rgb(0%,0%,0%);fill-opacity:1;" d="M 6.941406 216.5625 L 6.941406 217.195312 L 3.972656 217.195312 L 3.972656 216.5625 Z M 6.941406 216.5625 Z M 6.941406 216.5625 "/>
<path style=" stroke:none;fill-rule:nonzero;fill:rgb(0%,0%,0%);fill-opacity:1;" d="M 10.636719 211.730469 C 11.714844 211.808594 12.429688 212.796875 12.621094 213.792969 C 12.722656 214.246094 12.746094 214.679688 12.792969 215.132812 L 12.792969 216.289062 C 12.734375 217.46875 12.453125 219.019531 11.171875 219.496094 C 10.058594 219.941406 8.753906 219.246094 8.425781 218.113281 C 8.175781 217.511719 8.15625 216.902344 8.097656 216.289062 L 8.097656 215.132812 C 8.15625 213.953125 8.402344 212.386719 9.675781 211.867188 L 9.730469 211.84375 L 9.777344 211.832031 L 9.832031 211.808594 L 10.003906 211.765625 L 10.105469 211.742188 L 10.230469 211.742188 L 10.253906 211.730469 Z M 10.636719 211.730469 Z M 10.285156 212.421875 C 9.332031 212.535156 9.050781 213.679688 8.980469 214.453125 L 8.980469 214.757812 L 8.960938 214.78125 L 8.960938 216.355469 C 9.027344 217.171875 9.085938 218.226562 9.832031 218.773438 C 10.523438 219.246094 11.441406 218.714844 11.636719 217.976562 C 11.839844 217.433594 11.886719 216.902344 11.929688 216.355469 L 11.929688 214.78125 C 11.863281 213.953125 11.75 212.796875 10.796875 212.46875 L 10.71875 212.445312 L 10.695312 212.421875 L 10.59375 212.421875 L 10.570312 212.398438 L 10.308594 212.398438 Z M 10.285156 212.421875 Z M 10.285156 212.421875 "/>
<path style=" stroke:none;fill-rule:nonzero;fill:rgb(0%,0%,0%);fill-opacity:1;" d="M 15.320312 218.464844 L 15.320312 219.371094 L 14.402344 219.371094 L 14.402344 218.464844 Z M 15.320312 218.464844 Z M 15.320312 218.464844 "/>
<path style=" stroke:none;fill-rule:nonzero;fill:rgb(0%,0%,0%);fill-opacity:1;" d="M 19.46875 211.730469 C 20.671875 211.777344 21.804688 213.066406 21.332031 214.269531 C 21.125 214.824219 20.558594 215.164062 20.09375 215.402344 C 21.25 215.746094 21.953125 217.09375 21.433594 218.203125 C 20.886719 219.644531 18.824219 220.097656 17.691406 219.054688 C 16.660156 218.238281 16.625 216.46875 17.769531 215.746094 C 17.941406 215.5625 18.257812 215.507812 18.40625 215.371094 C 17.417969 215.085938 16.75 213.941406 17.214844 212.976562 C 17.589844 212.117188 18.550781 211.640625 19.46875 211.730469 Z M 19.46875 211.730469 Z M 19.039062 212.375 C 18.199219 212.398438 17.609375 213.351562 17.894531 214.101562 C 18.222656 215.394531 20.390625 215.347656 20.636719 214.019531 C 20.863281 213.285156 20.277344 212.398438 19.46875 212.375 L 19.449219 212.367188 L 19.0625 212.367188 Z M 19.039062 212.375 Z M 19.0625 215.746094 C 18.074219 215.8125 17.589844 216.992188 17.847656 217.832031 C 18.019531 219.019531 19.71875 219.371094 20.390625 218.421875 C 21.035156 217.546875 20.71875 215.980469 19.550781 215.746094 L 19.449219 215.746094 L 19.425781 215.722656 L 19.074219 215.722656 Z M 19.0625 215.746094 Z M 19.0625 215.746094 "/>
<path style=" stroke:none;fill-rule:nonzero;fill:rgb(0%,0%,0%);fill-opacity:1;" d="M 6.941406 193.4375 L 6.941406 194.074219 L 3.972656 194.074219 L 3.972656 193.4375 Z M 6.941406 193.4375 Z M 6.941406 193.4375 "/>
<path style=" stroke:none;fill-rule:nonzero;fill:rgb(0%,0%,0%);fill-opacity:1;" d="M 10.636719 188.609375 C 11.714844 188.6875 12.429688 189.675781 12.621094 190.671875 C 12.722656 191.125 12.746094 191.554688 12.792969 192.007812 L 12.792969 193.167969 C 12.734375 194.34375 12.453125 195.898438 11.171875 196.375 C 10.058594 196.816406 8.753906 196.125 8.425781 194.992188 C 8.175781 194.390625 8.15625 193.777344 8.097656 193.167969 L 8.097656 192.007812 C 8.15625 190.832031 8.402344 189.265625 9.675781 188.746094 L 9.730469 188.722656 L 9.777344 188.710938 L 9.832031 188.6875 L 10.003906 188.640625 L 10.105469 188.621094 L 10.230469 188.621094 L 10.253906 188.609375 Z M 10.636719 188.609375 Z M 10.285156 189.300781 C 9.332031 189.414062 9.050781 190.558594 8.980469 191.328125 L 8.980469 191.636719 L 8.960938 191.660156 L 8.960938 193.234375 C 9.027344 194.050781 9.085938 195.105469 9.832031 195.648438 C 10.523438 196.125 11.441406 195.59375 11.636719 194.855469 C 11.839844 194.3125 11.886719 193.777344 11.929688 193.234375 L 11.929688 191.660156 C 11.863281 190.832031 11.75 189.675781 10.796875 189.34375 L 10.71875 189.324219 L 10.695312 189.300781 L 10.59375 189.300781 L 10.570312 189.277344 L 10.308594 189.277344 Z M 10.285156 189.300781 Z M 10.285156 189.300781 "/>
<path style=" stroke:none;fill-rule:nonzero;fill:rgb(0%,0%,0%);fill-opacity:1;" d="M 15.320312 195.34375 L 15.320312 196.25 L 14.402344 196.25 L 14.402344 195.34375 Z M 15.320312 195.34375 Z M 15.320312 195.34375 "/>
<path style=" stroke:none;fill-rule:nonzero;fill:rgb(0%,0%,0%);fill-opacity:1;" d="M 20.183594 188.609375 C 20.480469 188.652344 20.820312 188.6875 21.101562 188.824219 L 21.101562 189.480469 C 20.320312 189.140625 19.300781 189.097656 18.6875 189.789062 C 18.144531 190.367188 17.894531 191.226562 17.871094 191.988281 C 18.53125 191.113281 20.015625 190.625 20.820312 191.535156 C 21.625 192.464844 21.761719 193.800781 21.398438 194.933594 C 21 195.84375 20.082031 196.667969 19.0625 196.476562 C 17.679688 196.363281 17.054688 194.820312 16.988281 193.640625 C 16.726562 191.976562 17.125 189.878906 18.710938 188.925781 L 18.734375 188.914062 L 18.972656 188.789062 L 19.039062 188.765625 L 19.074219 188.746094 L 19.265625 188.6875 L 19.425781 188.640625 L 19.527344 188.621094 L 19.652344 188.621094 L 19.675781 188.609375 Z M 20.183594 188.609375 Z M 19.074219 191.761719 C 18.085938 191.929688 17.769531 193.121094 17.894531 193.925781 C 17.953125 194.6875 18.246094 195.695312 19.117188 195.855469 C 20.046875 195.976562 20.648438 194.980469 20.671875 194.175781 C 20.71875 193.359375 20.671875 192.429688 19.957031 191.894531 L 19.800781 191.816406 L 19.675781 191.78125 L 19.574219 191.761719 L 19.550781 191.738281 L 19.097656 191.738281 Z M 19.074219 191.761719 Z M 19.074219 191.761719 "/>
<path style=" stroke:none;fill-rule:nonzero;fill:rgb(0%,0%,0%);fill-opacity:1;" d="M 6.941406 170.316406 L 6.941406 170.953125 L 3.972656 170.953125 L 3.972656 170.316406 Z M 6.941406 170.316406 Z M 6.941406 170.316406 "/>
<path style=" stroke:none;fill-rule:nonzero;fill:rgb(0%,0%,0%);fill-opacity:1;" d="M 10.636719 165.484375 C 11.714844 165.566406 12.429688 166.550781 12.621094 167.550781 C 12.722656 168.003906 12.746094 168.433594 12.792969 168.886719 L 12.792969 170.042969 C 12.734375 171.222656 12.453125 172.777344 11.171875 173.253906 C 10.058594 173.695312 8.753906 173.003906 8.425781 171.871094 C 8.175781 171.269531 8.15625 170.65625 8.097656 170.042969 L 8.097656 168.886719 C 8.15625 167.707031 8.402344 166.144531 9.675781 165.621094 L 9.730469 165.597656 L 9.777344 165.589844 L 9.832031 165.566406 L 10.003906 165.519531 L 10.105469 165.496094 L 10.230469 165.496094 L 10.253906 165.484375 Z M 10.636719 165.484375 Z M 10.285156 166.175781 C 9.332031 166.292969 9.050781 167.4375 8.980469 168.207031 L 8.980469 168.511719 L 8.960938 168.535156 L 8.960938 170.113281 C 9.027344 170.929688 9.085938 171.984375 9.832031 172.527344 C 10.523438 173.003906 11.441406 172.46875 11.636719 171.734375 C 11.839844 171.1875 11.886719 170.65625 11.929688 170.113281 L 11.929688 168.535156 C 11.863281 167.707031 11.75 166.550781 10.796875 166.222656 L 10.71875 166.199219 L 10.695312 166.175781 L 10.59375 166.175781 L 10.570312 166.15625 L 10.308594 166.15625 Z M 10.285156 166.175781 Z M 10.285156 166.175781 "/>
<path style=" stroke:none;fill-rule:nonzero;fill:rgb(0%,0%,0%);fill-opacity:1;" d="M 15.320312 172.222656 L 15.320312 173.128906 L 14.402344 173.128906 L 14.402344 172.222656 Z M 15.320312 172.222656 Z M 15.320312 172.222656 "/>
<path style=" stroke:none;fill-rule:nonzero;fill:rgb(0%,0%,0%);fill-opacity:1;" d="M 20.617188 165.722656 L 20.617188 170.496094 L 20.636719 170.519531 L 21.761719 170.519531 L 21.761719 171.199219 L 20.636719 171.199219 L 20.617188 171.210938 L 20.617188 173.128906 L 19.753906 173.128906 L 19.753906 171.210938 L 19.730469 171.199219 L 16.738281 171.199219 L 16.738281 170.496094 C 17.691406 168.910156 18.644531 167.3125 19.59375 165.722656 Z M 20.617188 165.722656 Z M 19.777344 166.15625 C 19.550781 167.335938 18.824219 168.34375 18.28125 169.375 C 18.066406 169.75 17.78125 170.15625 17.621094 170.519531 L 19.800781 170.519531 L 19.8125 170.496094 L 19.8125 166.15625 L 19.800781 166.132812 Z M 19.777344 166.15625 Z M 19.777344 166.15625 "/>
<path style=" stroke:none;fill-rule:nonzero;fill:rgb(0%,0%,0%);fill-opacity:1;" d="M 6.941406 147.195312 L 6.941406 147.828125 L 3.972656 147.828125 L 3.972656 147.195312 Z M 6.941406 147.195312 Z M 6.941406 147.195312 "/>
<path style=" stroke:none;fill-rule:nonzero;fill:rgb(0%,0%,0%);fill-opacity:1;" d="M 10.636719 142.363281 C 11.714844 142.441406 12.429688 143.429688 12.621094 144.425781 C 12.722656 144.882812 12.746094 145.3125 12.792969 145.765625 L 12.792969 146.921875 C 12.734375 148.101562 12.453125 149.65625 11.171875 150.128906 C 10.058594 150.574219 8.753906 149.882812 8.425781 148.746094 C 8.175781 148.144531 8.15625 147.535156 8.097656 146.921875 L 8.097656 145.765625 C 8.15625 144.585938 8.402344 143.019531 9.675781 142.5 L 9.730469 142.476562 L 9.777344 142.464844 L 9.832031 142.441406 L 10.003906 142.398438 L 10.105469 142.375 L 10.230469 142.375 L 10.253906 142.363281 Z M 10.636719 142.363281 Z M 10.285156 143.054688 C 9.332031 143.167969 9.050781 144.3125 8.980469 145.085938 L 8.980469 145.390625 L 8.960938 145.414062 L 8.960938 146.988281 C 9.027344 147.804688 9.085938 148.859375 9.832031 149.40625 C 10.523438 149.882812 11.441406 149.347656 11.636719 148.613281 C 11.839844 148.066406 11.886719 147.535156 11.929688 146.988281 L 11.929688 145.414062 C 11.863281 144.585938 11.75 143.429688 10.796875 143.101562 L 10.71875 143.078125 L 10.695312 143.054688 L 10.59375 143.054688 L 10.570312 143.03125 L 10.308594 143.03125 Z M 10.285156 143.054688 Z M 10.285156 143.054688 "/>
<path style=" stroke:none;fill-rule:nonzero;fill:rgb(0%,0%,0%);fill-opacity:1;" d="M 15.320312 149.097656 L 15.320312 150.007812 L 14.402344 150.007812 L 14.402344 149.097656 Z M 15.320312 149.097656 Z M 15.320312 149.097656 "/>
<path style=" stroke:none;fill-rule:nonzero;fill:rgb(0%,0%,0%);fill-opacity:1;" d="M 19.324219 142.363281 C 20.636719 142.398438 21.679688 143.746094 21.476562 145.015625 C 21.339844 146.285156 20.152344 147.011719 19.300781 147.804688 L 18.9375 148.179688 L 18.890625 148.203125 L 18.4375 148.644531 L 18.40625 148.667969 L 17.953125 149.121094 L 17.90625 149.144531 L 17.804688 149.246094 L 17.828125 149.257812 L 21.5 149.257812 L 21.5 150.007812 L 17.011719 150.007812 L 17.011719 149.324219 L 18.835938 147.5 C 19.707031 146.742188 20.730469 145.753906 20.570312 144.507812 C 20.480469 143.78125 19.867188 143.113281 19.117188 143.054688 C 18.359375 142.941406 17.691406 143.542969 17.519531 144.269531 L 17.496094 144.300781 L 17.476562 144.382812 L 17.371094 144.757812 L 17.363281 144.8125 C 17.203125 144.621094 17.03125 144.417969 16.90625 144.199219 C 17.136719 143.269531 17.882812 142.398438 18.871094 142.363281 Z M 19.324219 142.363281 Z M 19.324219 142.363281 "/>
<path style=" stroke:none;fill-rule:nonzero;fill:rgb(0%,0%,0%);fill-opacity:1;" d="M 10.636719 119.242188 C 11.714844 119.320312 12.429688 120.308594 12.621094 121.304688 C 12.722656 121.757812 12.746094 122.191406 12.792969 122.644531 L 12.792969 123.800781 C 12.734375 124.980469 12.453125 126.53125 11.171875 127.007812 C 10.058594 127.449219 8.753906 126.757812 8.425781 125.625 C 8.175781 125.023438 8.15625 124.410156 8.097656 123.800781 L 8.097656 122.644531 C 8.15625 121.464844 8.402344 119.898438 9.675781 119.378906 L 9.730469 119.355469 L 9.777344 119.34375 L 9.832031 119.320312 L 10.003906 119.277344 L 10.105469 119.253906 L 10.230469 119.253906 L 10.253906 119.242188 Z M 10.636719 119.242188 Z M 10.285156 119.933594 C 9.332031 120.046875 9.050781 121.191406 8.980469 121.960938 L 8.980469 122.269531 L 8.960938 122.292969 L 8.960938 123.867188 C 9.027344 124.683594 9.085938 125.738281 9.832031 126.28125 C 10.523438 126.757812 11.441406 126.226562 11.636719 125.488281 C 11.839844 124.945312 11.886719 124.410156 11.929688 123.867188 L 11.929688 122.292969 C 11.863281 121.464844 11.75 120.308594 10.796875 119.980469 L 10.71875 119.957031 L 10.695312 119.933594 L 10.59375 119.933594 L 10.570312 119.910156 L 10.308594 119.910156 Z M 10.285156 119.933594 Z M 10.285156 119.933594 "/>
<path style=" stroke:none;fill-rule:nonzero;fill:rgb(0%,0%,0%);fill-opacity:1;" d="M 15.320312 125.976562 L 15.320312 126.882812 L 14.402344 126.882812 L 14.402344 125.976562 Z M 15.320312 125.976562 Z M 15.320312 125.976562 "/>
<path style=" stroke:none;fill-rule:nonzero;fill:rgb(0%,0%,0%);fill-opacity:1;" d="M 19.449219 119.242188 C 20.523438 119.320312 21.238281 120.308594 21.433594 121.304688 C 21.535156 121.757812 21.558594 122.191406 21.601562 122.644531 L 21.601562 123.800781 C 21.546875 124.980469 21.261719 126.53125 19.980469 127.007812 C 18.871094 127.449219 17.566406 126.757812 17.238281 125.625 C 16.988281 125.023438 16.964844 124.410156 16.90625 123.800781 L 16.90625 122.644531 C 16.964844 121.464844 17.214844 119.898438 18.484375 119.378906 L 18.539062 119.355469 L 18.585938 119.34375 L 18.644531 119.320312 L 18.8125 119.277344 L 18.914062 119.253906 L 19.039062 119.253906 L 19.0625 119.242188 Z M 19.449219 119.242188 Z M 19.097656 119.933594 C 18.144531 120.046875 17.859375 121.191406 17.792969 121.960938 L 17.792969 122.269531 L 17.769531 122.292969 L 17.769531 123.867188 C 17.835938 124.683594 17.894531 125.738281 18.644531 126.28125 C 19.335938 126.757812 20.253906 126.226562 20.445312 125.488281 C 20.648438 124.945312 20.695312 124.410156 20.742188 123.867188 L 20.742188 122.292969 C 20.671875 121.464844 20.558594 120.308594 19.605469 119.980469 L 19.527344 119.957031 L 19.503906 119.933594 L 19.402344 119.933594 L 19.378906 119.910156 L 19.117188 119.910156 Z M 19.097656 119.933594 Z M 19.097656 119.933594 "/>
<path style=" stroke:none;fill-rule:nonzero;fill:rgb(0%,0%,0%);fill-opacity:1;" d="M 10.636719 96.121094 C 11.714844 96.199219 12.429688 97.183594 12.621094 98.183594 C 12.722656 98.636719 12.746094 99.066406 12.792969 99.519531 L 12.792969 100.675781 C 12.734375 101.855469 12.453125 103.410156 11.171875 103.886719 C 10.058594 104.328125 8.753906 103.636719 8.425781 102.503906 C 8.175781 101.902344 8.15625 101.289062 8.097656 100.675781 L 8.097656 99.519531 C 8.15625 98.339844 8.402344 96.777344 9.675781 96.253906 L 9.730469 96.234375 L 9.777344 96.222656 L 9.832031 96.199219 L 10.003906 96.152344 L 10.105469 96.128906 L 10.230469 96.128906 L 10.253906 96.121094 Z M 10.636719 96.121094 Z M 10.285156 96.8125 C 9.332031 96.925781 9.050781 98.070312 8.980469 98.839844 L 8.980469 99.148438 L 8.960938 99.167969 L 8.960938 100.746094 C 9.027344 101.5625 9.085938 102.617188 9.832031 103.160156 C 10.523438 103.636719 11.441406 103.105469 11.636719 102.367188 C 11.839844 101.824219 11.886719 101.289062 11.929688 100.746094 L 11.929688 99.167969 C 11.863281 98.339844 11.75 97.183594 10.796875 96.855469 L 10.71875 96.832031 L 10.695312 96.8125 L 10.59375 96.8125 L 10.570312 96.789062 L 10.308594 96.789062 Z M 10.285156 96.8125 Z M 10.285156 96.8125 "/>
<path style=" stroke:none;fill-rule:nonzero;fill:rgb(0%,0%,0%);fill-opacity:1;" d="M 15.320312 102.855469 L 15.320312 103.761719 L 14.402344 103.761719 L 14.402344 102.855469 Z M 15.320312 102.855469 Z M 15.320312 102.855469 "/>
<path style=" stroke:none;fill-rule:nonzero;fill:rgb(0%,0%,0%);fill-opacity:1;" d="M 19.324219 96.121094 C 20.636719 96.152344 21.679688 97.503906 21.476562 98.773438 C 21.339844 100.042969 20.152344 100.769531 19.300781 101.5625 L 18.9375 101.9375 L 18.890625 101.957031 L 18.4375 102.402344 L 18.40625 102.421875 L 17.953125 102.878906 L 17.90625 102.898438 L 17.804688 103 L 17.828125 103.011719 L 21.5 103.011719 L 21.5 103.761719 L 17.011719 103.761719 L 17.011719 103.082031 L 18.835938 101.253906 C 19.707031 100.496094 20.730469 99.507812 20.570312 98.261719 C 20.480469 97.535156 19.867188 96.867188 19.117188 96.8125 C 18.359375 96.699219 17.691406 97.296875 17.519531 98.023438 L 17.496094 98.058594 L 17.476562 98.136719 L 17.371094 98.511719 L 17.363281 98.570312 C 17.203125 98.375 17.03125 98.171875 16.90625 97.957031 C 17.136719 97.027344 17.882812 96.152344 18.871094 96.121094 Z M 19.324219 96.121094 Z M 19.324219 96.121094 "/>
<path style=" stroke:none;fill-rule:nonzero;fill:rgb(0%,0%,0%);fill-opacity:1;" d="M 10.636719 72.996094 C 11.714844 73.078125 12.429688 74.0625 12.621094 75.0625 C 12.722656 75.515625 12.746094 75.945312 12.792969 76.398438 L 12.792969 77.554688 C 12.734375 78.734375 12.453125 80.289062 11.171875 80.765625 C 10.058594 81.207031 8.753906 80.515625 8.425781 79.378906 C 8.175781 78.78125 8.15625 78.167969 8.097656 77.554688 L 8.097656 76.398438 C 8.15625 75.21875 8.402344 73.65625 9.675781 73.132812 L 9.730469 73.109375 L 9.777344 73.097656 L 9.832031 73.078125 L 10.003906 73.03125 L 10.105469 73.007812 L 10.230469 73.007812 L 10.253906 72.996094 Z M 10.636719 72.996094 Z M 10.285156 73.6875 C 9.332031 73.800781 9.050781 74.949219 8.980469 75.71875 L 8.980469 76.023438 L 8.960938 76.046875 L 8.960938 77.625 C 9.027344 78.441406 9.085938 79.496094 9.832031 80.039062 C 10.523438 80.515625 11.441406 79.980469 11.636719 79.246094 C 11.839844 78.699219 11.886719 78.167969 11.929688 77.625 L 11.929688 76.046875 C 11.863281 75.21875 11.75 74.0625 10.796875 73.734375 L 10.71875 73.710938 L 10.695312 73.6875 L 10.59375 73.6875 L 10.570312 73.667969 L 10.308594 73.667969 Z M 10.285156 73.6875 Z M 10.285156 73.6875 "/>
<path style=" stroke:none;fill-rule:nonzero;fill:rgb(0%,0%,0%);fill-opacity:1;" d="M 15.320312 79.730469 L 15.320312 80.640625 L 14.402344 80.640625 L 14.402344 79.730469 Z M 15.320312 79.730469 Z M 15.320312 79.730469 "/>
<path style=" stroke:none;fill-rule:nonzero;fill:rgb(0%,0%,0%);fill-opacity:1;" d="M 20.617188 73.234375 L 20.617188 78.007812 L 20.636719 78.03125 L 21.761719 78.03125 L 21.761719 78.710938 L 20.636719 78.710938 L 20.617188 78.722656 L 20.617188 80.640625 L 19.753906 80.640625 L 19.753906 78.722656 L 19.730469 78.710938 L 16.738281 78.710938 L 16.738281 78.007812 C 17.691406 76.421875 18.644531 74.824219 19.59375 73.234375 Z M 20.617188 73.234375 Z M 19.777344 73.667969 C 19.550781 74.84375 18.824219 75.855469 18.28125 76.886719 C 18.066406 77.261719 17.78125 77.667969 17.621094 78.03125 L 19.800781 78.03125 L 19.8125 78.007812 L 19.8125 73.667969 L 19.800781 73.644531 Z M 19.777344 73.667969 Z M 19.777344 73.667969 "/>
<path style=" stroke:none;fill-rule:nonzero;fill:rgb(0%,0%,0%);fill-opacity:1;" d="M 10.636719 49.875 C 11.714844 49.953125 12.429688 50.941406 12.621094 51.9375 C 12.722656 52.390625 12.746094 52.824219 12.792969 53.277344 L 12.792969 54.433594 C 12.734375 55.613281 12.453125 57.164062 11.171875 57.640625 C 10.058594 58.085938 8.753906 57.390625 8.425781 56.257812 C 8.175781 55.65625 8.15625 55.046875 8.097656 54.433594 L 8.097656 53.277344 C 8.15625 52.097656 8.402344 50.53125 9.675781 50.011719 L 9.730469 49.988281 L 9.777344 49.976562 L 9.832031 49.953125 L 10.003906 49.910156 L 10.105469 49.886719 L 10.230469 49.886719 L 10.253906 49.875 Z M 10.636719 49.875 Z M 10.285156 50.566406 C 9.332031 50.679688 9.050781 51.824219 8.980469 52.597656 L 8.980469 52.902344 L 8.960938 52.925781 L 8.960938 54.5 C 9.027344 55.316406 9.085938 56.371094 9.832031 56.917969 C 10.523438 57.390625 11.441406 56.859375 11.636719 56.121094 C 11.839844 55.578125 11.886719 55.046875 11.929688 54.5 L 11.929688 52.925781 C 11.863281 52.097656 11.75 50.941406 10.796875 50.613281 L 10.71875 50.589844 L 10.695312 50.566406 L 10.59375 50.566406 L 10.570312 50.542969 L 10.308594 50.542969 Z M 10.285156 50.566406 Z M 10.285156 50.566406 "/>
<path style=" stroke:none;fill-rule:nonzero;fill:rgb(0%,0%,0%);fill-opacity:1;" d="M 15.320312 56.609375 L 15.320312 57.515625 L 14.402344 57.515625 L 14.402344 56.609375 Z M 15.320312 56.609375 Z M 15.320312 56.609375 "/>
<path style=" stroke:none;fill-rule:nonzero;fill:rgb(0%,0%,0%);fill-opacity:1;" d="M 20.183594 49.875 C 20.480469 49.921875 20.820312 49.953125 21.101562 50.089844 L 21.101562 50.746094 C 20.320312 50.40625 19.300781 50.363281 18.6875 51.054688 C 18.144531 51.632812 17.894531 52.496094 17.871094 53.253906 C 18.53125 52.378906 20.015625 51.894531 20.820312 52.800781 C 21.625 53.730469 21.761719 55.066406 21.398438 56.203125 C 21 57.109375 20.082031 57.9375 19.0625 57.742188 C 17.679688 57.628906 17.054688 56.089844 16.988281 54.910156 C 16.726562 53.242188 17.125 51.144531 18.710938 50.191406 L 18.734375 50.179688 L 18.972656 50.054688 L 19.039062 50.035156 L 19.074219 50.011719 L 19.265625 49.953125 L 19.425781 49.910156 L 19.527344 49.886719 L 19.652344 49.886719 L 19.675781 49.875 Z M 20.183594 49.875 Z M 19.074219 53.027344 C 18.085938 53.195312 17.769531 54.386719 17.894531 55.191406 C 17.953125 55.953125 18.246094 56.960938 19.117188 57.121094 C 20.046875 57.246094 20.648438 56.246094 20.671875 55.441406 C 20.71875 54.625 20.671875 53.695312 19.957031 53.164062 L 19.800781 53.082031 L 19.675781 53.050781 L 19.574219 53.027344 L 19.550781 53.003906 L 19.097656 53.003906 Z M 19.074219 53.027344 Z M 19.074219 53.027344 "/>
<path style=" stroke:none;fill-rule:nonzero;fill:rgb(0%,0%,0%);fill-opacity:1;" d="M 10.636719 26.753906 C 11.714844 26.832031 12.429688 27.820312 12.621094 28.816406 C 12.722656 29.269531 12.746094 29.699219 12.792969 30.15625 L 12.792969 31.3125 C 12.734375 32.488281 12.453125 34.042969 11.171875 34.519531 C 10.058594 34.960938 8.753906 34.269531 8.425781 33.136719 C 8.175781 32.535156 8.15625 31.921875 8.097656 31.3125 L 8.097656 30.15625 C 8.15625 28.976562 8.402344 27.410156 9.675781 26.890625 L 9.730469 26.867188 L 9.777344 26.855469 L 9.832031 26.832031 L 10.003906 26.785156 L 10.105469 26.765625 L 10.230469 26.765625 L 10.253906 26.753906 Z M 10.636719 26.753906 Z M 10.285156 27.445312 C 9.332031 27.558594 9.050781 28.703125 8.980469 29.472656 L 8.980469 29.78125 L 8.960938 29.804688 L 8.960938 31.378906 C 9.027344 32.195312 9.085938 33.25 9.832031 33.792969 C 10.523438 34.269531 11.441406 33.738281 11.636719 33 C 11.839844 32.457031 11.886719 31.921875 11.929688 31.378906 L 11.929688 29.804688 C 11.863281 28.976562 11.75 27.820312 10.796875 27.488281 L 10.71875 27.46875 L 10.695312 27.445312 L 10.59375 27.445312 L 10.570312 27.421875 L 10.308594 27.421875 Z M 10.285156 27.445312 Z M 10.285156 27.445312 "/>
<path style=" stroke:none;fill-rule:nonzero;fill:rgb(0%,0%,0%);fill-opacity:1;" d="M 15.320312 33.488281 L 15.320312 34.394531 L 14.402344 34.394531 L 14.402344 33.488281 Z M 15.320312 33.488281 Z M 15.320312 33.488281 "/>
<path style=" stroke:none;fill-rule:nonzero;fill:rgb(0%,0%,0%);fill-opacity:1;" d="M 19.46875 26.753906 C 20.671875 26.796875 21.804688 28.089844 21.332031 29.292969 C 21.125 29.847656 20.558594 30.1875 20.09375 30.425781 C 21.25 30.765625 21.953125 32.117188 21.433594 33.226562 C 20.886719 34.667969 18.824219 35.121094 17.691406 34.078125 C 16.660156 33.261719 16.625 31.492188 17.769531 30.765625 C 17.941406 30.585938 18.257812 30.527344 18.40625 30.390625 C 17.417969 30.109375 16.75 28.964844 17.214844 28 C 17.589844 27.136719 18.550781 26.660156 19.46875 26.753906 Z M 19.46875 26.753906 Z M 19.039062 27.398438 C 18.199219 27.421875 17.609375 28.375 17.894531 29.121094 C 18.222656 30.414062 20.390625 30.371094 20.636719 29.042969 C 20.863281 28.304688 20.277344 27.421875 19.46875 27.398438 L 19.449219 27.386719 L 19.0625 27.386719 Z M 19.039062 27.398438 Z M 19.0625 30.765625 C 18.074219 30.835938 17.589844 32.015625 17.847656 32.851562 C 18.019531 34.042969 19.71875 34.394531 20.390625 33.441406 C 21.035156 32.570312 20.71875 31.003906 19.550781 30.765625 L 19.449219 30.765625 L 19.425781 30.742188 L 19.074219 30.742188 Z M 19.0625 30.765625 Z M 19.0625 30.765625 "/>
<path style=" stroke:none;fill-rule:nonzero;fill:rgb(0%,0%,0%);fill-opacity:1;" d="M 10.988281 3.628906 L 10.988281 10.625 L 11 10.648438 L 12.394531 10.648438 L 12.394531 11.273438 L 8.710938 11.273438 L 8.710938 10.648438 L 10.105469 10.648438 L 10.128906 10.625 L 10.128906 4.753906 C 9.652344 4.910156 9.152344 5.015625 8.652344 5.003906 L 8.652344 4.367188 C 9.402344 4.378906 10.21875 4.175781 10.785156 3.628906 Z M 10.988281 3.628906 Z M 10.988281 3.628906 "/>
<path style=" stroke:none;fill-rule:nonzero;fill:rgb(0%,0%,0%);fill-opacity:1;" d="M 15.320312 10.367188 L 15.320312 11.273438 L 14.402344 11.273438 L 14.402344 10.367188 Z M 15.320312 10.367188 Z M 15.320312 10.367188 "/>
<path style=" stroke:none;fill-rule:nonzero;fill:rgb(0%,0%,0%);fill-opacity:1;" d="M 19.449219 3.628906 C 20.523438 3.710938 21.238281 4.695312 21.433594 5.695312 C 21.535156 6.148438 21.558594 6.578125 21.601562 7.03125 L 21.601562 8.1875 C 21.546875 9.367188 21.261719 10.921875 19.980469 11.398438 C 18.871094 11.839844 17.566406 11.148438 17.238281 10.015625 C 16.988281 9.414062 16.964844 8.800781 16.90625 8.1875 L 16.90625 7.03125 C 16.964844 5.851562 17.214844 4.289062 18.484375 3.765625 L 18.539062 3.742188 L 18.585938 3.734375 L 18.644531 3.710938 L 18.8125 3.664062 L 18.914062 3.640625 L 19.039062 3.640625 L 19.0625 3.628906 Z M 19.449219 3.628906 Z M 19.097656 4.320312 C 18.144531 4.4375 17.859375 5.582031 17.792969 6.351562 L 17.792969 6.65625 L 17.769531 6.679688 L 17.769531 8.257812 C 17.835938 9.074219 17.894531 10.128906 18.644531 10.671875 C 19.335938 11.148438 20.253906 10.613281 20.445312 9.878906 C 20.648438 9.332031 20.695312 8.800781 20.742188 8.257812 L 20.742188 6.679688 C 20.671875 5.851562 20.558594 4.695312 19.605469 4.367188 L 19.527344 4.34375 L 19.503906 4.320312 L 19.402344 4.320312 L 19.378906 4.300781 L 19.117188 4.300781 Z M 19.097656 4.320312 Z M 19.097656 4.320312 "/>
<path style="fill:none;stroke-width:0.02;stroke-linecap:butt;stroke-linejoin:miter;stroke:rgb(0%,0%,0%);stroke-opacity:1;stroke-miterlimit:10;" d="M 11.800003 1.42768 L 11.649935 1.42768 " transform="matrix(28.346457,0,0,-28.346457,1,256.11811)"/>
<path style="fill:none;stroke-width:0.02;stroke-linecap:butt;stroke-linejoin:miter;stroke:rgb(0%,0%,0%);stroke-opacity:1;stroke-miterlimit:10;" d="M 11.800003 2.243341 L 11.649935 2.243341 " transform="matrix(28.346457,0,0,-28.346457,1,256.11811)"/>
<path style="fill:none;stroke-width:0.02;stroke-linecap:butt;stroke-linejoin:miter;stroke:rgb(0%,0%,0%);stroke-opacity:1;stroke-miterlimit:10;" d="M 11.800003 3.05914 L 11.649935 3.05914 " transform="matrix(28.346457,0,0,-28.346457,1,256.11811)"/>
<path style="fill:none;stroke-width:0.02;stroke-linecap:butt;stroke-linejoin:miter;stroke:rgb(0%,0%,0%);stroke-opacity:1;stroke-miterlimit:10;" d="M 11.800003 3.8748 L 11.649935 3.8748 " transform="matrix(28.346457,0,0,-28.346457,1,256.11811)"/>
<path style="fill:none;stroke-width:0.02;stroke-linecap:butt;stroke-linejoin:miter;stroke:rgb(0%,0%,0%);stroke-opacity:1;stroke-miterlimit:10;" d="M 11.800003 4.690461 L 11.649935 4.690461 " transform="matrix(28.346457,0,0,-28.346457,1,256.11811)"/>
<path style="fill:none;stroke-width:0.02;stroke-linecap:butt;stroke-linejoin:miter;stroke:rgb(0%,0%,0%);stroke-opacity:1;stroke-miterlimit:10;" d="M 11.800003 5.50626 L 11.649935 5.50626 " transform="matrix(28.346457,0,0,-28.346457,1,256.11811)"/>
<path style="fill:none;stroke-width:0.02;stroke-linecap:butt;stroke-linejoin:miter;stroke:rgb(0%,0%,0%);stroke-opacity:1;stroke-miterlimit:10;" d="M 11.800003 6.321921 L 11.649935 6.321921 " transform="matrix(28.346457,0,0,-28.346457,1,256.11811)"/>
<path style="fill:none;stroke-width:0.02;stroke-linecap:butt;stroke-linejoin:miter;stroke:rgb(0%,0%,0%);stroke-opacity:1;stroke-miterlimit:10;" d="M 11.800003 7.137581 L 11.649935 7.137581 " transform="matrix(28.346457,0,0,-28.346457,1,256.11811)"/>
<path style="fill:none;stroke-width:0.02;stroke-linecap:butt;stroke-linejoin:miter;stroke:rgb(0%,0%,0%);stroke-opacity:1;stroke-miterlimit:10;" d="M 11.800003 7.953242 L 11.649935 7.953242 " transform="matrix(28.346457,0,0,-28.346457,1,256.11811)"/>
<path style="fill:none;stroke-width:0.02;stroke-linecap:round;stroke-linejoin:miter;stroke:rgb(0%,0%,0%);stroke-opacity:1;stroke-miterlimit:10;" d="M 11.800003 0.612019 L 11.800003 8.769041 " transform="matrix(28.346457,0,0,-28.346457,1,256.11811)"/>
<path style="fill:none;stroke-width:0.02;stroke-linecap:butt;stroke-linejoin:miter;stroke:rgb(0%,0%,0%);stroke-opacity:1;stroke-miterlimit:10;" d="M 2.537657 0.612019 L 2.537657 0.76195 " transform="matrix(28.346457,0,0,-28.346457,1,256.11811)"/>
<path style="fill:none;stroke-width:0.02;stroke-linecap:butt;stroke-linejoin:miter;stroke:rgb(0%,0%,0%);stroke-opacity:1;stroke-miterlimit:10;" d="M 4.081474 0.612019 L 4.081474 0.76195 " transform="matrix(28.346457,0,0,-28.346457,1,256.11811)"/>
<path style="fill:none;stroke-width:0.02;stroke-linecap:butt;stroke-linejoin:miter;stroke:rgb(0%,0%,0%);stroke-opacity:1;stroke-miterlimit:10;" d="M 5.625152 0.612019 L 5.625152 0.76195 " transform="matrix(28.346457,0,0,-28.346457,1,256.11811)"/>
<path style="fill:none;stroke-width:0.02;stroke-linecap:butt;stroke-linejoin:miter;stroke:rgb(0%,0%,0%);stroke-opacity:1;stroke-miterlimit:10;" d="M 7.16883 0.612019 L 7.16883 0.76195 " transform="matrix(28.346457,0,0,-28.346457,1,256.11811)"/>
<path style="fill:none;stroke-width:0.02;stroke-linecap:butt;stroke-linejoin:miter;stroke:rgb(0%,0%,0%);stroke-opacity:1;stroke-miterlimit:10;" d="M 8.712509 0.612019 L 8.712509 0.76195 " transform="matrix(28.346457,0,0,-28.346457,1,256.11811)"/>
<path style="fill:none;stroke-width:0.02;stroke-linecap:butt;stroke-linejoin:miter;stroke:rgb(0%,0%,0%);stroke-opacity:1;stroke-miterlimit:10;" d="M 10.256325 0.612019 L 10.256325 0.76195 " transform="matrix(28.346457,0,0,-28.346457,1,256.11811)"/>
<path style="fill:none;stroke-width:0.02;stroke-linecap:round;stroke-linejoin:miter;stroke:rgb(0%,0%,0%);stroke-opacity:1;stroke-miterlimit:10;" d="M 0.993979 0.612019 L 11.800003 0.612019 " transform="matrix(28.346457,0,0,-28.346457,1,256.11811)"/>
<path style=" stroke:none;fill-rule:nonzero;fill:rgb(0%,0%,0%);fill-opacity:1;" d="M 29.367188 245.652344 C 30.445312 245.730469 31.160156 246.71875 31.351562 247.714844 C 31.457031 248.167969 31.476562 248.601562 31.523438 249.054688 L 31.523438 250.210938 C 31.464844 251.390625 31.183594 252.941406 29.902344 253.417969 C 28.789062 253.863281 27.488281 253.171875 27.15625 252.035156 C 26.910156 251.433594 26.886719 250.824219 26.828125 250.210938 L 26.828125 249.054688 C 26.886719 247.875 27.136719 246.308594 28.40625 245.789062 L 28.460938 245.765625 L 28.507812 245.753906 L 28.5625 245.730469 L 28.734375 245.6875 L 28.835938 245.664062 L 28.960938 245.664062 L 28.984375 245.652344 Z M 29.367188 245.652344 Z M 29.019531 246.34375 C 28.066406 246.457031 27.78125 247.601562 27.714844 248.375 L 27.714844 248.679688 L 27.691406 248.703125 L 27.691406 250.277344 C 27.757812 251.09375 27.816406 252.148438 28.5625 252.695312 C 29.253906 253.171875 30.175781 252.636719 30.367188 251.898438 C 30.570312 251.355469 30.617188 250.824219 30.660156 250.277344 L 30.660156 248.703125 C 30.59375 247.875 30.480469 246.71875 29.527344 246.390625 L 29.449219 246.367188 L 29.425781 246.34375 L 29.324219 246.34375 L 29.300781 246.320312 L 29.039062 246.320312 Z M 29.019531 246.34375 Z M 29.019531 246.34375 "/>
<path style=" stroke:none;fill-rule:nonzero;fill:rgb(0%,0%,0%);fill-opacity:1;" d="M 73.480469 245.652344 L 73.480469 252.648438 L 73.492188 252.671875 L 74.886719 252.671875 L 74.886719 253.292969 L 71.199219 253.292969 L 71.199219 252.671875 L 72.59375 252.671875 L 72.617188 252.648438 L 72.617188 246.773438 C 72.140625 246.933594 71.644531 247.035156 71.144531 247.023438 L 71.144531 246.390625 C 71.890625 246.402344 72.707031 246.195312 73.273438 245.652344 Z M 73.480469 245.652344 Z M 73.480469 245.652344 "/>
<path style=" stroke:none;fill-rule:nonzero;fill:rgb(0%,0%,0%);fill-opacity:1;" d="M 116.761719 245.652344 C 118.078125 245.6875 119.121094 247.035156 118.917969 248.304688 C 118.78125 249.574219 117.589844 250.300781 116.738281 251.09375 L 116.375 251.46875 L 116.332031 251.492188 L 115.878906 251.933594 L 115.84375 251.957031 L 115.390625 252.410156 L 115.34375 252.433594 L 115.242188 252.535156 L 115.265625 252.546875 L 118.9375 252.546875 L 118.9375 253.292969 L 114.449219 253.292969 L 114.449219 252.613281 L 116.273438 250.789062 C 117.148438 250.027344 118.167969 249.042969 118.007812 247.796875 C 117.917969 247.070312 117.304688 246.402344 116.558594 246.34375 C 115.796875 246.230469 115.128906 246.832031 114.960938 247.558594 L 114.9375 247.589844 L 114.914062 247.671875 L 114.878906 247.796875 L 114.8125 248.046875 L 114.800781 248.101562 C 114.640625 247.910156 114.472656 247.703125 114.347656 247.488281 C 114.574219 246.558594 115.320312 245.6875 116.308594 245.652344 Z M 116.761719 245.652344 Z M 116.761719 245.652344 "/>
<path style=" stroke:none;fill-rule:nonzero;fill:rgb(0%,0%,0%);fill-opacity:1;" d="M 160.667969 245.652344 C 161.667969 245.699219 162.710938 246.617188 162.472656 247.671875 C 162.359375 248.386719 161.859375 248.976562 161.234375 249.292969 C 162.246094 249.609375 163.027344 250.675781 162.753906 251.730469 C 162.484375 253.101562 160.90625 253.863281 159.636719 253.441406 C 159.023438 253.261719 158.402344 252.875 158.105469 252.308594 C 158.171875 252.136719 158.152344 251.84375 158.230469 251.730469 C 158.832031 252.613281 160.101562 253.214844 161.097656 252.714844 C 162.1875 252.023438 162.019531 250.007812 160.703125 249.667969 L 160.601562 249.667969 L 160.578125 249.644531 L 159.523438 249.644531 L 159.523438 248.964844 C 160.167969 248.953125 160.972656 248.871094 161.335938 248.203125 C 161.722656 247.625 161.6875 246.671875 160.953125 246.390625 C 160.078125 246.050781 159 246.605469 158.671875 247.488281 C 158.535156 247.296875 158.402344 247.105469 158.265625 246.898438 C 158.730469 246.0625 159.714844 245.5625 160.667969 245.652344 Z M 160.667969 245.652344 Z M 160.667969 245.652344 "/>
<path style=" stroke:none;fill-rule:nonzero;fill:rgb(0%,0%,0%);fill-opacity:1;" d="M 205.574219 245.890625 L 205.574219 250.664062 L 205.59375 250.6875 L 206.71875 250.6875 L 206.71875 251.367188 L 205.59375 251.367188 L 205.574219 251.378906 L 205.574219 253.292969 L 204.710938 253.292969 L 204.710938 251.378906 L 204.6875 251.367188 L 201.695312 251.367188 L 201.695312 250.664062 C 202.648438 249.078125 203.597656 247.476562 204.550781 245.890625 Z M 205.574219 245.890625 Z M 204.734375 246.320312 C 204.507812 247.5 203.78125 248.511719 203.238281 249.542969 C 203.019531 249.914062 202.738281 250.324219 202.578125 250.6875 L 204.757812 250.6875 L 204.765625 250.664062 L 204.765625 246.320312 L 204.757812 246.300781 Z M 204.734375 246.320312 Z M 204.734375 246.320312 "/>
<path style=" stroke:none;fill-rule:nonzero;fill:rgb(0%,0%,0%);fill-opacity:1;" d="M 249.839844 245.890625 L 249.839844 246.59375 L 246.894531 246.59375 L 246.871094 246.605469 L 246.871094 248.929688 C 247.144531 248.746094 247.527344 248.511719 247.890625 248.5 C 249.171875 248.363281 250.160156 249.621094 250.214844 250.789062 C 250.398438 252.273438 249.003906 253.75 247.503906 253.523438 C 246.757812 253.5 246.03125 253.058594 245.601562 252.445312 C 245.726562 252.273438 245.828125 251.980469 245.976562 251.878906 C 246.507812 252.921875 248.230469 253.339844 248.921875 252.242188 C 249.363281 251.414062 249.355469 250.359375 248.84375 249.5625 C 248.253906 248.804688 247.085938 249.269531 246.8125 250.074219 L 246.078125 250.074219 L 246.078125 245.890625 Z M 249.839844 245.890625 Z M 249.839844 245.890625 "/>
<path style=" stroke:none;fill-rule:nonzero;fill:rgb(0%,0%,0%);fill-opacity:1;" d="M 292.660156 245.652344 C 292.953125 245.699219 293.292969 245.730469 293.578125 245.867188 L 293.578125 246.527344 C 292.796875 246.183594 291.773438 246.140625 291.164062 246.832031 C 290.617188 247.410156 290.367188 248.273438 290.347656 249.03125 C 291.003906 248.160156 292.488281 247.671875 293.292969 248.578125 C 294.097656 249.507812 294.234375 250.84375 293.871094 251.980469 C 293.476562 252.886719 292.558594 253.714844 291.535156 253.523438 C 290.152344 253.40625 289.53125 251.867188 289.460938 250.6875 C 289.199219 249.019531 289.597656 246.921875 291.183594 245.96875 L 291.207031 245.957031 L 291.445312 245.835938 L 291.515625 245.8125 L 291.546875 245.789062 L 291.742188 245.730469 L 291.898438 245.6875 L 292 245.664062 L 292.125 245.664062 L 292.148438 245.652344 Z M 292.660156 245.652344 Z M 291.546875 248.804688 C 290.5625 248.976562 290.242188 250.164062 290.367188 250.96875 C 290.425781 251.730469 290.71875 252.738281 291.59375 252.898438 C 292.523438 253.023438 293.125 252.023438 293.148438 251.21875 C 293.191406 250.402344 293.148438 249.472656 292.433594 248.941406 L 292.273438 248.863281 L 292.148438 248.828125 L 292.046875 248.804688 L 292.023438 248.78125 L 291.570312 248.78125 Z M 291.546875 248.804688 Z M 291.546875 248.804688 "/>
<path style=" stroke:none;fill-rule:nonzero;fill:rgb(0%,0%,0%);fill-opacity:1;" d="M 337.835938 245.890625 L 337.835938 246.605469 C 336.226562 248.488281 335.316406 251.027344 335.328125 253.417969 L 334.410156 253.417969 C 334.386719 251.003906 335.375 248.453125 337.097656 246.671875 L 337.074219 246.652344 L 333.140625 246.652344 L 333.140625 245.890625 L 337.835938 245.890625 L 337.835938 246.605469 Z M 337.835938 245.890625 Z M 337.835938 245.890625 "/>
<path style="fill:none;stroke-width:0.02;stroke-linecap:butt;stroke-linejoin:miter;stroke:rgb(0%,0%,0%);stroke-opacity:1;stroke-miterlimit:10;" d="M 2.537657 8.769041 L 2.537657 8.618972 " transform="matrix(28.346457,0,0,-28.346457,1,256.11811)"/>
<path style="fill:none;stroke-width:0.02;stroke-linecap:butt;stroke-linejoin:miter;stroke:rgb(0%,0%,0%);stroke-opacity:1;stroke-miterlimit:10;" d="M 4.081474 8.769041 L 4.081474 8.618972 " transform="matrix(28.346457,0,0,-28.346457,1,256.11811)"/>
<path style="fill:none;stroke-width:0.02;stroke-linecap:butt;stroke-linejoin:miter;stroke:rgb(0%,0%,0%);stroke-opacity:1;stroke-miterlimit:10;" d="M 5.625152 8.769041 L 5.625152 8.618972 " transform="matrix(28.346457,0,0,-28.346457,1,256.11811)"/>
<path style="fill:none;stroke-width:0.02;stroke-linecap:butt;stroke-linejoin:miter;stroke:rgb(0%,0%,0%);stroke-opacity:1;stroke-miterlimit:10;" d="M 7.16883 8.769041 L 7.16883 8.618972 " transform="matrix(28.346457,0,0,-28.346457,1,256.11811)"/>
<path style="fill:none;stroke-width:0.02;stroke-linecap:butt;stroke-linejoin:miter;stroke:rgb(0%,0%,0%);stroke-opacity:1;stroke-miterlimit:10;" d="M 8.712509 8.769041 L 8.712509 8.618972 " transform="matrix(28.346457,0,0,-28.346457,1,256.11811)"/>
<path style="fill:none;stroke-width:0.02;stroke-linecap:butt;stroke-linejoin:miter;stroke:rgb(0%,0%,0%);stroke-opacity:1;stroke-miterlimit:10;" d="M 10.256325 8.769041 L 10.256325 8.618972 " transform="matrix(28.346457,0,0,-28.346457,1,256.11811)"/>
<path style="fill:none;stroke-width:0.02;stroke-linecap:round;stroke-linejoin:miter;stroke:rgb(0%,0%,0%);stroke-opacity:1;stroke-miterlimit:10;" d="M 0.993979 8.769041 L 11.800003 8.769041 " transform="matrix(28.346457,0,0,-28.346457,1,256.11811)"/>
<path style="fill:none;stroke-width:0.05;stroke-linecap:butt;stroke-linejoin:miter;stroke:rgb(33%,47%,64%);stroke-opacity:1;stroke-miterlimit:10;" d="M 0.993979 4.690461 L 1.026501 4.776451 L 1.05916 4.86244 L 1.091682 4.948292 L 1.156725 5.11972 L 1.189247 5.205021 L 1.221906 5.290321 L 1.254428 5.375208 L 1.28695 5.45982 L 1.319472 5.544018 L 1.351993 5.627941 L 1.384515 5.71145 L 1.417174 5.794408 L 1.449696 5.876952 L 1.482218 5.958945 L 1.51474 6.040387 L 1.547261 6.121278 L 1.579921 6.20148 L 1.612442 6.280993 L 1.644964 6.359817 L 1.677486 6.437951 L 1.710008 6.515259 L 1.742667 6.59174 L 1.775189 6.667395 L 1.807711 6.742084 L 1.840232 6.815947 L 1.872754 6.888983 L 1.905413 6.960917 L 1.937935 7.031748 L 1.970457 7.101615 L 2.002979 7.170516 L 2.0355 7.238178 L 2.06816 7.304737 L 2.100681 7.370194 L 2.133203 7.434411 L 2.165725 7.497387 L 2.198247 7.559261 L 2.230906 7.619619 L 2.263428 7.678875 L 2.295949 7.736752 L 2.328471 7.793252 L 2.360993 7.848373 L 2.393652 7.901979 L 2.426174 7.954345 L 2.458696 8.005194 L 2.491217 8.054528 L 2.523739 8.102346 L 2.556261 8.148786 L 2.58892 8.193572 L 2.621442 8.236842 L 2.653964 8.278459 L 2.686485 8.31856 L 2.719007 8.357007 L 2.751667 8.393939 L 2.784188 8.429079 L 2.81671 8.462703 L 2.849232 8.494536 L 2.881753 8.524715 L 2.914413 8.553102 L 2.946935 8.579836 L 2.979456 8.604916 L 3.011978 8.628205 L 3.0445 8.649703 L 3.077159 8.669409 L 3.109681 8.687461 L 3.142203 8.703722 L 3.174724 8.718053 L 3.207246 8.730731 L 3.239906 8.741618 L 3.272427 8.750713 L 3.304949 8.757879 L 3.337471 8.763391 L 3.369992 8.766974 L 3.402652 8.768765 L 3.435174 8.768765 L 3.467695 8.766974 L 3.500217 8.763391 L 3.532739 8.757879 L 3.56526 8.750713 L 3.59792 8.741618 L 3.630442 8.730731 L 3.662963 8.718053 L 3.695485 8.703722 L 3.728007 8.687461 L 3.760666 8.669409 L 3.793188 8.649703 L 3.82571 8.628205 L 3.858231 8.604916 L 3.890753 8.579836 L 3.923413 8.553102 L 3.955934 8.524715 L 3.988456 8.494536 L 4.020978 8.462703 L 4.053499 8.429079 L 4.086159 8.393939 L 4.118681 8.357007 L 4.151202 8.31856 L 4.183724 8.278459 L 4.216246 8.236842 L 4.248905 8.193572 L 4.281427 8.148786 L 4.313949 8.102346 L 4.34647 8.054528 L 4.378992 8.005194 L 4.411651 7.954345 L 4.444173 7.901979 L 4.476695 7.848373 L 4.509217 7.793252 L 4.541738 7.736752 L 4.574398 7.678875 L 4.606919 7.619619 L 4.639441 7.559261 L 4.671963 7.497387 L 4.704485 7.434411 L 4.737006 7.370194 L 4.769666 7.304737 L 4.802187 7.238178 L 4.834709 7.170516 L 4.867231 7.101615 L 4.899753 7.031748 L 4.932412 6.960917 L 4.964934 6.888983 L 4.997456 6.815947 L 5.029977 6.742084 L 5.062499 6.667395 L 5.095158 6.59174 L 5.12768 6.515259 L 5.160202 6.437951 L 5.192724 6.359817 L 5.225245 6.280993 L 5.257905 6.20148 L 5.290426 6.121278 L 5.322948 6.040387 L 5.35547 5.958945 L 5.387992 5.876952 L 5.420651 5.794408 L 5.453173 5.71145 L 5.485694 5.627941 L 5.518216 5.544018 L 5.550738 5.45982 L 5.583397 5.375208 L 5.615919 5.290321 L 5.680962 5.11972 L 5.713484 5.034006 L 5.746144 4.948292 L 5.778665 4.86244 L 5.87623 4.604472 L 5.908752 4.51862 L 5.941412 4.43263 L 5.973933 4.346916 L 6.006455 4.26134 L 6.038977 4.175902 L 6.071498 4.090739 L 6.104158 4.005852 L 6.13668 3.92124 L 6.169201 3.836904 L 6.201723 3.752982 L 6.234245 3.66961 L 6.266904 3.586515 L 6.299426 3.50397 L 6.331948 3.421977 L 6.364469 3.340535 L 6.396991 3.259782 L 6.429651 3.17958 L 6.462172 3.099929 L 6.494694 3.021106 L 6.527216 2.943109 L 6.559737 2.865801 L 6.592397 2.78932 L 6.624919 2.713665 L 6.65744 2.638838 L 6.689962 2.564975 L 6.722484 2.492077 L 6.755143 2.420143 L 6.787665 2.349174 L 6.820187 2.279308 L 6.852708 2.210544 L 6.88523 2.142744 L 6.91789 2.076185 L 6.950411 2.010866 L 6.982933 1.946512 L 7.015455 1.883535 L 7.047976 1.821799 L 7.080498 1.761303 L 7.113158 1.702185 L 7.145679 1.644308 L 7.178201 1.587808 L 7.210723 1.532687 L 7.243244 1.478943 L 7.275904 1.426715 L 7.308426 1.375866 L 7.340947 1.326394 L 7.373469 1.278576 L 7.405991 1.232274 L 7.43865 1.187488 L 7.471172 1.144218 L 7.503694 1.102463 L 7.536215 1.062362 L 7.568737 1.023915 L 7.601396 0.987121 L 7.633918 0.951844 L 7.66644 0.918357 L 7.698962 0.886525 L 7.731483 0.856345 L 7.764143 0.82782 L 7.796664 0.801086 L 7.829186 0.776144 L 7.861708 0.752855 L 7.89423 0.731357 L 7.926889 0.711514 L 7.959411 0.693599 L 7.991933 0.677338 L 8.024454 0.662869 L 8.056976 0.650191 L 8.089498 0.639442 L 8.122157 0.630347 L 8.154679 0.623044 L 8.187201 0.617669 L 8.219722 0.614086 L 8.252244 0.612295 L 8.284903 0.612295 L 8.317425 0.614086 L 8.349947 0.617669 L 8.382469 0.623044 L 8.41499 0.630347 L 8.44765 0.639442 L 8.480171 0.650191 L 8.512693 0.662869 L 8.545215 0.677338 L 8.577737 0.693599 L 8.610396 0.711514 L 8.642918 0.731357 L 8.675439 0.752855 L 8.707961 0.776144 L 8.740483 0.801086 L 8.773142 0.82782 L 8.805664 0.856345 L 8.838186 0.886525 L 8.870707 0.918357 L 8.903229 0.951844 L 8.935889 0.987121 L 8.96841 1.023915 L 9.000932 1.062362 L 9.033454 1.102463 L 9.065975 1.144218 L 9.098635 1.187488 L 9.131157 1.232274 L 9.163678 1.278576 L 9.1962 1.326394 L 9.228722 1.375866 L 9.261243 1.426715 L 9.293903 1.478943 L 9.326425 1.532687 L 9.358946 1.587808 L 9.391468 1.644308 L 9.42399 1.702185 L 9.456649 1.761303 L 9.489171 1.821799 L 9.521693 1.883535 L 9.554214 1.946512 L 9.586736 2.010866 L 9.619396 2.076185 L 9.651917 2.142744 L 9.684439 2.210544 L 9.716961 2.279308 L 9.749482 2.349174 L 9.782142 2.420143 L 9.814664 2.492077 L 9.847185 2.564975 L 9.879707 2.638838 L 9.912229 2.713665 L 9.944888 2.78932 L 9.97741 2.865801 L 10.009932 2.943109 L 10.042453 3.021106 L 10.074975 3.099929 L 10.107635 3.17958 L 10.140156 3.259782 L 10.172678 3.340535 L 10.2052 3.421977 L 10.237721 3.50397 L 10.270381 3.586515 L 10.302903 3.66961 L 10.335424 3.752982 L 10.367946 3.836904 L 10.400468 3.92124 L 10.432989 4.005852 L 10.465649 4.090739 L 10.498171 4.175902 L 10.530692 4.26134 L 10.563214 4.346916 L 10.595736 4.432768 L 10.628395 4.51862 L 10.660917 4.604472 L 10.693439 4.690461 " transform="matrix(28.346457,0,0,-28.346457,1,256.11811)"/>
</g>
</svg>
