<svg xmlns="http://www.w3.org/2000/svg" width="456.21" height="342.824" viewBox="0 0 342.157 257.118"><path style="fill:none;stroke-width:.02;stroke-linecap:butt;stroke-linejoin:miter;stroke:#000;stroke-opacity:1;stroke-miterlimit:10" d="M.994 1.971h.15M.994 3.331h.15M.994 4.69h.15M.994 6.05h.15M.994 7.41h.15" transform="matrix(28.34646 0 0 -28.34646 1 256.118)"/><path style="fill:none;stroke-width:.02;stroke-linecap:round;stroke-linejoin:miter;stroke:#000;stroke-opacity:1;stroke-miterlimit:10" d="M.994.612v8.157" transform="matrix(28.34646 0 0 -28.34646 1 256.118)"/><path style="stroke:none;fill-rule:nonzero;fill:#000;fill-opacity:1" d="M6.941 239.684v.632H3.973v-.632Zm0 0ZM10.988 234.852v6.996l.012.023h1.395v.625H8.71v-.625h1.394l.024-.023v-5.871c-.477.156-.977.257-1.477.246v-.633c.75.012 1.567-.192 2.133-.738Zm0 0ZM15.32 241.586v.91h-.918v-.91Zm0 0ZM19.45 234.852c1.073.082 1.788 1.066 1.984 2.066.101.453.125.883.168 1.336v1.156c-.055 1.18-.34 2.735-1.622 3.211-1.109.441-2.414-.25-2.742-1.387-.25-.597-.273-1.21-.332-1.824v-1.156c.059-1.18.309-2.742 1.578-3.266l.055-.023.047-.012.059-.02.168-.046.101-.024h.125l.023-.011Zm0 0Zm-.352.691c-.953.113-1.239 1.262-1.305 2.031v.305l-.023.023v1.578c.066.817.125 1.868.875 2.415.69.476 1.609-.06 1.8-.793.203-.547.25-1.079.297-1.622v-1.578c-.07-.828-.183-1.984-1.137-2.312l-.078-.024-.023-.023h-.102l-.023-.02h-.262Zm0 0ZM6.941 201.145v.636H3.973v-.636Zm0 0ZM10.637 196.316c1.078.079 1.793 1.067 1.984 2.063.102.453.125.883.172 1.34v1.156c-.059 1.18-.34 2.73-1.621 3.207-1.113.441-2.418-.25-2.746-1.383-.25-.601-.27-1.215-.328-1.824v-1.156c.058-1.18.304-2.746 1.578-3.266l.054-.023.047-.012.055-.023.172-.047.101-.02h.125l.024-.012Zm0 0Zm-.352.692c-.953.113-1.234 1.258-1.305 2.027v.309l-.02.023v1.574c.067.817.126 1.871.872 2.414.691.477 1.61-.054 1.805-.792.203-.543.25-1.079.293-1.622v-1.574c-.067-.828-.18-1.984-1.133-2.316l-.078-.02-.024-.023h-.101l-.024-.024h-.261Zm0 0ZM15.32 203.05v.907h-.918v-.906Zm0 0ZM21.125 196.555v.703H18.18l-.024.012v2.324c.27-.184.657-.422 1.02-.434 1.281-.133 2.27 1.125 2.324 2.293.18 1.484-1.215 2.957-2.71 2.73-.747-.023-1.474-.464-1.903-1.078.125-.167.226-.464.37-.566.536 1.043 2.259 1.465 2.95.363.441-.828.43-1.882-.078-2.675-.59-.758-1.758-.293-2.031.511h-.735v-4.183Zm0 0ZM10.637 157.777c1.078.082 1.793 1.067 1.984 2.067.102.453.125.883.172 1.336v1.156c-.059 1.18-.34 2.734-1.621 3.21-1.113.442-2.418-.25-2.746-1.382-.25-.601-.27-1.215-.328-1.828v-1.156c.058-1.18.304-2.743 1.578-3.266l.054-.023.047-.012.055-.02.172-.047.101-.023h.125l.024-.012Zm0 0Zm-.352.692c-.953.113-1.234 1.261-1.305 2.031v.305l-.02.023v1.578c.067.817.126 1.871.872 2.414.691.477 1.61-.058 1.805-.793.203-.547.25-1.078.293-1.62v-1.579c-.067-.828-.18-1.984-1.133-2.312l-.078-.024-.024-.023h-.101l-.024-.02h-.261Zm0 0ZM15.32 164.516v.906h-.918v-.906Zm0 0ZM19.45 157.777c1.073.082 1.788 1.067 1.984 2.067.101.453.125.883.168 1.336v1.156c-.055 1.18-.34 2.734-1.622 3.21-1.109.442-2.414-.25-2.742-1.382-.25-.601-.273-1.215-.332-1.828v-1.156c.059-1.18.309-2.743 1.578-3.266l.055-.023.047-.012.059-.02.168-.047.101-.023h.125l.023-.012Zm0 0Zm-.352.692c-.953.113-1.239 1.261-1.305 2.031v.305l-.023.023v1.578c.066.817.125 1.871.875 2.414.69.477 1.609-.058 1.8-.793.203-.547.25-1.078.297-1.62v-1.579c-.07-.828-.183-1.984-1.137-2.312l-.078-.024-.023-.023h-.102l-.023-.02h-.262Zm0 0ZM10.637 119.242c1.078.078 1.793 1.067 1.984 2.063.102.453.125.886.172 1.34v1.156c-.059 1.18-.34 2.73-1.621 3.207-1.113.441-2.418-.25-2.746-1.383-.25-.602-.27-1.215-.328-1.824v-1.156c.058-1.18.304-2.747 1.578-3.266l.054-.024.047-.011.055-.024.172-.043.101-.023h.125l.024-.012Zm0 0Zm-.352.692c-.953.113-1.234 1.257-1.305 2.027v.309l-.02.023v1.574c.067.817.126 1.871.872 2.414.691.477 1.61-.054 1.805-.793.203-.543.25-1.078.293-1.62v-1.575c-.067-.828-.18-1.984-1.133-2.313l-.078-.023-.024-.023h-.101l-.024-.024h-.261Zm0 0ZM15.32 125.977v.906h-.918v-.906Zm0 0ZM21.125 119.48v.704H18.18l-.024.011v2.325c.27-.184.657-.422 1.02-.434 1.281-.133 2.27 1.125 2.324 2.293.18 1.484-1.215 2.957-2.71 2.73-.747-.023-1.474-.464-1.903-1.074.125-.172.226-.465.37-.57.536 1.043 2.259 1.465 2.95.363.441-.828.43-1.883-.078-2.676-.59-.757-1.758-.293-2.031.512h-.735v-4.184Zm0 0ZM10.988 80.703V87.7l.012.024h1.395v.625H8.71v-.625h1.394l.024-.024v-5.87a4.543 4.543 0 0 1-1.477.25v-.638c.75.012 1.567-.191 2.133-.738Zm0 0ZM15.32 87.441v.907h-.918v-.907Zm0 0ZM19.45 80.703c1.073.082 1.788 1.067 1.984 2.067.101.453.125.882.168 1.335v1.157c-.055 1.18-.34 2.734-1.622 3.21-1.109.442-2.414-.25-2.742-1.382-.25-.602-.273-1.215-.332-1.828v-1.157c.059-1.18.309-2.742 1.578-3.265l.055-.024.047-.011.059-.02.168-.047.101-.023h.125l.023-.012Zm0 0Zm-.352.692c-.953.113-1.239 1.261-1.305 2.03v.305l-.023.024v1.578c.066.816.125 1.871.875 2.414.69.477 1.609-.058 1.8-.793.203-.547.25-1.078.297-1.621v-1.578c-.07-.828-.183-1.984-1.137-2.313l-.078-.023-.023-.023h-.102l-.023-.02h-.262Zm0 0ZM10.988 42.168v6.996l.012.023h1.395v.622H8.71v-.621h1.394l.024-.024V43.29c-.477.16-.977.262-1.477.25v-.633c.75.008 1.567-.195 2.133-.738Zm0 0ZM15.32 48.902v.907h-.918v-.907Zm0 0ZM21.125 42.406v.703H18.18l-.024.012v2.324c.27-.183.657-.422 1.02-.433 1.281-.133 2.27 1.125 2.324 2.293.18 1.484-1.215 2.957-2.71 2.73-.747-.02-1.474-.465-1.903-1.074.125-.172.226-.465.37-.57.536 1.047 2.259 1.464 2.95.363.441-.828.43-1.879-.078-2.676-.59-.758-1.758-.293-2.031.512h-.735v-4.184Zm0 0ZM10.512 3.629c1.316.035 2.36 1.387 2.156 2.656-.137 1.27-1.328 1.996-2.176 2.79l-.363.37-.047.024-.453.445-.035.02-.453.453-.043.023-.106.102.024.011h3.675v.75H8.2v-.68l1.828-1.827c.871-.758 1.891-1.746 1.735-2.993-.094-.726-.703-1.394-1.453-1.453-.758-.113-1.43.489-1.598 1.215l-.024.035-.023.078-.031.125-.07.25-.012.055c-.156-.191-.328-.394-.453-.61.226-.929.976-1.804 1.96-1.84Zm0 0ZM15.32 10.367v.906h-.918v-.906Zm0 0ZM19.45 3.629c1.073.082 1.788 1.066 1.984 2.066.101.453.125.883.168 1.336v1.157c-.055 1.18-.34 2.734-1.622 3.21-1.109.442-2.414-.25-2.742-1.382-.25-.602-.273-1.215-.332-1.829V7.032c.059-1.18.309-2.742 1.578-3.265l.055-.024.047-.008.059-.023.168-.047.101-.023h.125l.023-.012Zm0 0Zm-.352.691c-.953.117-1.239 1.262-1.305 2.032v.304l-.023.024v1.578c.066.816.125 1.87.875 2.414.69.476 1.609-.059 1.8-.793.203-.547.25-1.078.297-1.621V6.68c-.07-.828-.183-1.985-1.137-2.313l-.078-.023-.023-.024h-.102l-.023-.02h-.262Zm0 0Zm0 0"/><path style="fill:none;stroke-width:.02;stroke-linecap:butt;stroke-linejoin:miter;stroke:#000;stroke-opacity:1;stroke-miterlimit:10" d="M11.8 1.971h-.15M11.8 3.331h-.15M11.8 4.69h-.15M11.8 6.05h-.15M11.8 7.41h-.15" transform="matrix(28.34646 0 0 -28.34646 1 256.118)"/><path style="fill:none;stroke-width:.02;stroke-linecap:round;stroke-linejoin:miter;stroke:#000;stroke-opacity:1;stroke-miterlimit:10" d="M11.8.612v8.157" transform="matrix(28.34646 0 0 -28.34646 1 256.118)"/><path style="fill:none;stroke-width:.02;stroke-linecap:butt;stroke-linejoin:miter;stroke:#000;stroke-opacity:1;stroke-miterlimit:10" d="M2.795.612v.15M4.596.612v.15M6.397.612v.15M8.198.612v.15M9.999.612v.15" transform="matrix(28.34646 0 0 -28.34646 1 256.118)"/><path style="fill:none;stroke-width:.02;stroke-linecap:round;stroke-linejoin:miter;stroke:#000;stroke-opacity:1;stroke-miterlimit:10" d="M.994.612H11.8" transform="matrix(28.34646 0 0 -28.34646 1 256.118)"/><path style="stroke:none;fill-rule:nonzero;fill:#000;fill-opacity:1" d="M27.563 250.484v.633H24.59v-.633Zm0 0ZM31.281 245.652c.996.047 2.04.965 1.801 2.02-.113.715-.613 1.305-1.234 1.621 1.007.316 1.789 1.383 1.52 2.437-.274 1.372-1.848 2.133-3.122 1.711-.61-.18-1.234-.566-1.527-1.132.066-.172.043-.465.125-.579.597.883 1.867 1.485 2.867.985 1.09-.692.918-2.707-.398-3.047h-.102l-.023-.023h-1.055v-.68c.648-.012 1.453-.094 1.816-.762.387-.578.352-1.531-.387-1.812-.87-.34-1.949.214-2.277 1.097-.137-.191-.273-.383-.41-.59.465-.835 1.453-1.335 2.406-1.246Zm0 0ZM78.613 250.484v.633h-2.972v-.633Zm0 0ZM82.184 245.652c1.316.036 2.359 1.383 2.156 2.653-.137 1.27-1.328 1.996-2.18 2.789l-.363.375-.043.023-.453.442-.035.023-.454.453-.046.024-.102.101.023.012h3.672v.746h-4.488v-.68l1.824-1.824c.875-.762 1.895-1.746 1.735-2.992-.09-.727-.703-1.395-1.45-1.453-.761-.114-1.43.488-1.597 1.215l-.024.03-.023.083-.035.125-.067.25-.011.055a4.6 4.6 0 0 1-.453-.614c.226-.93.976-1.8 1.96-1.836Zm0 0ZM129.664 250.484v.633h-2.969v-.633Zm0 0ZM133.71 245.652v6.996l.013.024h1.394v.621h-3.683v-.621h1.394l.024-.024v-5.875c-.477.16-.977.262-1.477.25v-.632c.75.011 1.566-.196 2.133-.739Zm0 0ZM182.523 245.652c1.079.078 1.793 1.067 1.985 2.063.105.453.125.887.172 1.34v1.156c-.059 1.18-.34 2.73-1.621 3.207-1.114.445-2.414-.246-2.746-1.383-.247-.601-.27-1.21-.329-1.824v-1.156c.059-1.18.309-2.746 1.578-3.266l.055-.023.047-.012.055-.024.172-.042.101-.024h.125l.024-.012Zm0 0Zm-.351.692c-.95.113-1.234 1.258-1.3 2.031v.305l-.024.023v1.574c.066.817.125 1.871.87 2.418.692.477 1.614-.058 1.805-.797.204-.543.25-1.074.293-1.62v-1.575c-.066-.828-.18-1.984-1.132-2.312l-.079-.024-.023-.023h-.102l-.023-.024h-.262Zm0 0ZM233.93 245.652v6.996l.011.024h1.395v.621h-3.688v-.621h1.395l.023-.024v-5.875c-.476.16-.976.262-1.472.25v-.632c.746.011 1.562-.196 2.129-.739Zm0 0ZM284.504 245.652c1.316.036 2.36 1.383 2.156 2.653-.137 1.27-1.328 1.996-2.18 2.789l-.363.375-.043.023-.453.442-.035.023-.453.453-.047.024-.102.101.024.012h3.672v.746h-4.489v-.68l1.825-1.824c.875-.762 1.894-1.746 1.734-2.992-.09-.727-.703-1.395-1.45-1.453-.76-.114-1.429.488-1.597 1.215l-.023.03-.024.083-.035.125-.066.25-.012.055a4.6 4.6 0 0 1-.453-.614c.226-.93.973-1.8 1.96-1.836Zm0 0ZM335.703 245.652c1 .047 2.043.965 1.805 2.02-.113.715-.613 1.305-1.238 1.621 1.011.316 1.793 1.383 1.52 2.437-.27 1.372-1.849 2.133-3.118 1.711-.613-.18-1.235-.566-1.531-1.132.07-.172.046-.465.125-.579.601.883 1.87 1.485 2.867.985 1.09-.692.922-2.707-.395-3.047h-.101l-.024-.023h-1.054v-.68c.644-.012 1.449-.094 1.812-.762.387-.578.352-1.531-.383-1.812-.875-.34-1.953.214-2.281 1.097a19.29 19.29 0 0 1-.406-.59c.465-.835 1.449-1.335 2.402-1.246Zm0 0Zm0 0"/><path style="fill:none;stroke-width:.02;stroke-linecap:butt;stroke-linejoin:miter;stroke:#000;stroke-opacity:1;stroke-miterlimit:10" d="M2.795 8.769v-.15M4.596 8.769v-.15M6.397 8.769v-.15M8.198 8.769v-.15M9.999 8.769v-.15" transform="matrix(28.34646 0 0 -28.34646 1 256.118)"/><path style="fill:none;stroke-width:.02;stroke-linecap:round;stroke-linejoin:miter;stroke:#000;stroke-opacity:1;stroke-miterlimit:10" d="M.994 8.769H11.8" transform="matrix(28.34646 0 0 -28.34646 1 256.118)"/><path style="fill:none;stroke-width:.05;stroke-linecap:butt;stroke-linejoin:miter;stroke:#5478a3;stroke-opacity:1;stroke-miterlimit:10" d="m.994 2.947.036-.06.037-.06.036-.058.036-.058.037-.056.036-.056.037-.055.036-.055.036-.053.037-.053.036-.052.037-.05.036-.051.036-.05.037-.049.036-.048.037-.047.036-.047.036-.046.037-.046.036-.044.036-.044.037-.044.036-.042.037-.042.036-.042.036-.04.037-.041.036-.04.037-.04.036-.038.036-.038.037-.037.036-.037.036-.036.037-.035.036-.034.037-.034.036-.033.036-.031.037-.031.036-.03.036-.03.037-.028L2.63.98l.037-.027.036-.025.036-.025.037-.024.036-.022.037-.022.036-.021.036-.02.037-.02.036-.017.037-.017.036-.016.036-.015.037-.014.036-.013.036-.012.037-.011.036-.01.037-.009.036-.008.036-.007.037-.005.036-.005.019-.002M3.755.612h.004l.037.005.036.006.036.007.037.008.036.01.036.01.037.012.036.013.037.014.036.016.036.017.037.018.036.02.037.02.036.023.036.024.037.025.036.027.037.028.036.03.036.031.037.033.036.034.036.035.037.036.036.036.037.036.036.037.036.037.037.038.036.038.036.039.037.038.036.04.037.04.036.04.036.04.037.042.036.042.036.042.037.042.036.043.037.044.036.044.036.045.037.045.036.045.037.046.036.047.036.047.037.048.036.048.037.049.036.049.036.05.037.05.036.051.036.052.037.052.036.052.037.053.036.054.036.053.037.055.036.054.037.055.072.11.037.055.072.11.146.223.073.11.036.055.036.055.037.055.036.054.037.054.036.054.036.054.037.053.036.052.037.052.036.052.036.05.037.051.036.05.037.05.036.048.036.048.037.048.036.047.036.047.037.046.036.045.037.045.036.045.036.044.037.044.036.043.036.042.037.042.036.042.037.041.036.041.036.04.037.04.036.04.037.038.036.039.036.038.037.038.036.037.036.037.037.036.036.036.037.036.036.035.036.034.037.033.036.031.036.03.037.028.036.027.037.025.036.024.037.022.036.021.036.02.037.018.036.017.036.016.037.014.036.013.037.012.036.01.036.01.037.008.036.007.036.006.037.005.036.003.037.003h.036l.036.001h.037l.036-.002.036-.003.037-.004.036-.005.037-.006.036-.006.036-.008.037-.009.036-.01.037-.01.036-.013.036-.013.037-.014.036-.015.037-.016.036-.017.036-.018.037-.019.036-.02.036-.02.037-.022.036-.023.037-.024.036-.025.036-.025.037-.027.036-.027.037-.028.036-.03.036-.03.037-.03.036-.032.036-.033.037-.034.036-.034.037-.035.036-.036.036-.037.037-.037.036-.038.036-.039.037-.04.036-.039.037-.04.036-.041.036-.041.037-.043.036-.042.037-.044.036-.044.036-.044.037-.046.036-.046.037-.047.036-.047.036-.048.037-.049.036-.05.036-.05.037-.051.036-.052.037-.053.036-.053.036-.055.037-.055.036-.056.036-.057.037-.057.036-.059.037-.059.036-.06" transform="matrix(28.34646 0 0 -28.34646 1 256.118)"/><path style="fill:none;stroke-width:.05;stroke-linecap:butt;stroke-linejoin:miter;stroke:#e69142;stroke-opacity:1;stroke-miterlimit:10" d="m.994 5.666 1.2-1.582 1.201-.74 1.201.418 1.2 1.398 1.201 1.78 1.2 1.398 1.202.419 1.2-.74L11.8 6.433" transform="matrix(28.34646 0 0 -28.34646 1 256.118)"/></svg>