<svg xmlns="http://www.w3.org/2000/svg" width="456.21" height="342.824" viewBox="0 0 342.157 257.118"><path style="fill:none;stroke-width:.02;stroke-linecap:butt;stroke-linejoin:miter;stroke:#000;stroke-opacity:1;stroke-miterlimit:10" d="M.86 1.428h.15M.86 2.243h.15M.86 3.06h.15M.86 3.875h.15M.86 4.69h.15M.86 5.506h.15M.86 6.322h.15M.86 7.138h.15M.86 7.953h.15" transform="matrix(28.34646 0 0 -28.34646 1 256.118)"/><path style="fill:none;stroke-width:.02;stroke-linecap:round;stroke-linejoin:miter;stroke:#000;stroke-opacity:1;stroke-miterlimit:10" d="M.86.612v8.157" transform="matrix(28.34646 0 0 -28.34646 1 256.118)"/><path style="stroke:none;fill-rule:nonzero;fill:#000;fill-opacity:1" d="M6.863 234.852c1.074.082 1.79 1.066 1.985 2.066.101.453.125.883.168 1.336v1.156c-.055 1.18-.34 2.735-1.621 3.211-1.11.441-2.415-.25-2.743-1.387-.25-.597-.273-1.21-.332-1.824v-1.156c.059-1.18.309-2.742 1.578-3.266l.055-.023.047-.012.059-.02.168-.046.101-.024h.125l.024-.011Zm0 0Zm-.351.691c-.953.113-1.239 1.262-1.305 2.031v.305l-.023.023v1.578c.07.817.125 1.868.875 2.415.691.476 1.609-.06 1.8-.793.204-.547.25-1.079.297-1.622v-1.578c-.07-.828-.183-1.984-1.136-2.312l-.079-.024-.023-.023h-.102l-.023-.02h-.258Zm0 0ZM11.543 241.586v.91h-.918v-.91Zm0 0ZM15.672 234.852c1.078.082 1.793 1.066 1.984 2.066.102.453.125.883.172 1.336v1.156c-.058 1.18-.344 2.735-1.625 3.211-1.11.441-2.414-.25-2.742-1.387-.25-.597-.274-1.21-.328-1.824v-1.156c.055-1.18.305-2.742 1.574-3.266l.059-.023.043-.012.058-.02.172-.046.102-.024h.125l.02-.011Zm0 0Zm-.352.691c-.953.113-1.234 1.262-1.304 2.031v.305l-.024.023v1.578c.07.817.125 1.868.875 2.415.692.476 1.61-.06 1.801-.793.207-.547.25-1.079.297-1.622v-1.578c-.067-.828-.18-1.984-1.133-2.312l-.082-.024-.02-.023h-.105l-.02-.02h-.261Zm0 0ZM6.863 211.73c1.074.079 1.79 1.067 1.985 2.063.101.453.125.887.168 1.34v1.156c-.055 1.18-.34 2.73-1.621 3.207-1.11.445-2.415-.25-2.743-1.383-.25-.601-.273-1.21-.332-1.824v-1.156c.059-1.18.309-2.746 1.578-3.266l.055-.023.047-.012.059-.023.168-.043.101-.024h.125l.024-.012Zm0 0Zm-.351.692c-.953.113-1.239 1.258-1.305 2.031v.305l-.023.023v1.574c.07.817.125 1.872.875 2.418.691.473 1.609-.058 1.8-.796.204-.543.25-1.075.297-1.622v-1.574c-.07-.828-.183-1.984-1.136-2.312l-.079-.024-.023-.023h-.102l-.023-.024h-.258Zm0 0ZM11.543 218.465v.906h-.918v-.906Zm0 0ZM16.023 211.73v6.997l.012.023h1.395v.621h-3.684v-.621h1.395l.02-.023v-5.875c-.473.16-.973.261-1.473.25v-.633c.75.011 1.566-.196 2.132-.739Zm0 0ZM6.863 188.61c1.074.077 1.79 1.066 1.985 2.062.101.453.125.883.168 1.336v1.16c-.055 1.176-.34 2.73-1.621 3.207-1.11.441-2.415-.25-2.743-1.383-.25-.601-.273-1.215-.332-1.824v-1.16c.059-1.176.309-2.742 1.578-3.262l.055-.023.047-.012.059-.024.168-.046.101-.02h.125l.024-.012Zm0 0Zm-.351.69c-.953.114-1.239 1.259-1.305 2.028v.309l-.023.023v1.574c.07.817.125 1.871.875 2.414.691.477 1.609-.054 1.8-.793.204-.542.25-1.078.297-1.62v-1.575c-.07-.828-.183-1.984-1.136-2.316l-.079-.02-.023-.023h-.102l-.023-.024h-.258Zm0 0ZM11.543 195.344v.906h-.918v-.906Zm0 0ZM15.547 188.61c1.316.03 2.36 1.382 2.156 2.652-.137 1.27-1.328 1.996-2.18 2.789l-.363.375-.043.023-.453.442-.035.023-.453.453-.047.02-.102.105.024.012h3.672v.746h-4.489v-.68l1.825-1.824c.875-.762 1.894-1.746 1.734-2.996-.09-.723-.703-1.395-1.45-1.45-.761-.113-1.429.49-1.597 1.212l-.023.035-.024.078-.035.125-.066.25-.012.059c-.16-.196-.328-.399-.453-.614.226-.93.972-1.804 1.96-1.836Zm0 0ZM6.863 165.484c1.074.082 1.79 1.067 1.985 2.067.101.453.125.883.168 1.336v1.156c-.055 1.18-.34 2.734-1.621 3.21-1.11.442-2.415-.25-2.743-1.382-.25-.601-.273-1.215-.332-1.828v-1.156c.059-1.18.309-2.742 1.578-3.266l.055-.023.047-.008.059-.024.168-.046.101-.024h.125l.024-.012Zm0 0Zm-.351.692c-.953.117-1.239 1.262-1.305 2.031v.305l-.023.023v1.578c.07.817.125 1.871.875 2.414.691.477 1.609-.058 1.8-.793.204-.547.25-1.078.297-1.62v-1.579c-.07-.828-.183-1.984-1.136-2.312l-.079-.024-.023-.023h-.102l-.023-.02h-.258Zm0 0ZM11.543 172.223v.906h-.918v-.906Zm0 0ZM15.695 165.484c.996.047 2.04.965 1.801 2.02-.113.715-.61 1.305-1.234 1.621 1.008.316 1.793 1.383 1.52 2.438-.274 1.37-1.848 2.132-3.118 1.714-.613-.183-1.238-.57-1.531-1.136.066-.168.043-.465.125-.578.601.886 1.87 1.484 2.867.988 1.09-.692.918-2.711-.395-3.051h-.105l-.02-.023h-1.054v-.68c.644-.012 1.449-.09 1.812-.758.387-.582.352-1.531-.386-1.816-.872-.34-1.95.214-2.278 1.101-.136-.195-.273-.387-.406-.59.465-.84 1.45-1.34 2.402-1.25Zm0 0ZM6.863 142.363c1.074.078 1.79 1.067 1.985 2.063.101.457.125.887.168 1.34v1.156c-.055 1.18-.34 2.734-1.621 3.207-1.11.445-2.415-.246-2.743-1.383-.25-.601-.273-1.21-.332-1.824v-1.156c.059-1.18.309-2.746 1.578-3.266l.055-.023.047-.012.059-.024.168-.043.101-.023h.125l.024-.012Zm0 0Zm-.351.692c-.953.113-1.239 1.257-1.305 2.03v.306l-.023.023v1.574c.07.817.125 1.871.875 2.418.691.477 1.609-.058 1.8-.793.204-.547.25-1.078.297-1.625v-1.574c-.07-.828-.183-1.984-1.136-2.312l-.079-.024-.023-.023h-.102l-.023-.024h-.258Zm0 0ZM11.543 149.098v.91h-.918v-.91Zm0 0ZM16.84 142.602v4.773l.023.023h1.121v.68h-1.12l-.024.012v1.918h-.863v-1.918l-.02-.012h-2.996v-.703c.953-1.586 1.906-3.188 2.86-4.773Zm0 0Zm-.84.43c-.227 1.179-.953 2.19-1.496 3.222-.215.375-.5.781-.656 1.144h2.175l.012-.023v-4.344l-.012-.02Zm0 0ZM6.863 119.242c1.074.078 1.79 1.067 1.985 2.063.101.453.125.886.168 1.34v1.156c-.055 1.18-.34 2.73-1.621 3.207-1.11.441-2.415-.25-2.743-1.383-.25-.602-.273-1.215-.332-1.824v-1.156c.059-1.18.309-2.747 1.578-3.266l.055-.024.047-.011.059-.024.168-.043.101-.023h.125l.024-.012Zm0 0Zm-.351.692c-.953.113-1.239 1.257-1.305 2.027v.309l-.023.023v1.574c.07.817.125 1.871.875 2.414.691.477 1.609-.054 1.8-.793.204-.543.25-1.078.297-1.62v-1.575c-.07-.828-.183-1.984-1.136-2.313l-.079-.023-.023-.023h-.102l-.023-.024h-.258Zm0 0ZM11.543 125.977v.906h-.918v-.906Zm0 0ZM17.352 119.48v.704h-2.95l-.023.011v2.325c.273-.184.66-.422 1.02-.434 1.28-.133 2.269 1.125 2.324 2.293.183 1.484-1.211 2.957-2.707 2.73-.75-.023-1.477-.464-1.907-1.074.125-.172.227-.465.375-.57.532 1.043 2.254 1.465 2.95.363.441-.828.43-1.883-.082-2.676-.59-.757-1.758-.293-2.028.512h-.738v-4.184Zm0 0ZM6.863 96.121c1.074.078 1.79 1.063 1.985 2.063.101.453.125.882.168 1.336v1.156c-.055 1.18-.34 2.734-1.621 3.21-1.11.442-2.415-.25-2.743-1.382-.25-.602-.273-1.215-.332-1.828V99.52c.059-1.18.309-2.743 1.578-3.266l.055-.02.047-.011.059-.024.168-.047.101-.023h.125l.024-.008Zm0 0Zm-.351.692c-.953.113-1.239 1.257-1.305 2.027v.308l-.023.02v1.578c.07.817.125 1.871.875 2.414.691.477 1.609-.055 1.8-.793.204-.543.25-1.078.297-1.62v-1.579c-.07-.828-.183-1.984-1.136-2.313l-.079-.023-.023-.02h-.102l-.023-.023h-.258Zm0 0ZM11.543 102.855v.907h-.918v-.907Zm0 0ZM16.41 96.121c.293.043.633.078.918.215v.656c-.781-.34-1.805-.387-2.414.305-.547.578-.797 1.441-.816 2.203.656-.875 2.14-1.363 2.945-.457.805.93.941 2.27.578 3.402-.394.907-1.312 1.735-2.336 1.543-1.383-.113-2.004-1.656-2.074-2.836-.262-1.664.137-3.761 1.723-4.715l.023-.011.238-.125.07-.024.032-.023.195-.055.156-.047.102-.023h.125l.023-.008Zm0 0Zm-1.113 3.152c-.985.168-1.305 1.36-1.18 2.165.059.757.352 1.769 1.227 1.925.93.125 1.531-.87 1.554-1.675.043-.817 0-1.747-.714-2.282l-.16-.078-.126-.035-.101-.02-.024-.023h-.453Zm0 0ZM6.863 72.996c1.074.082 1.79 1.067 1.985 2.067.101.453.125.882.168 1.335v1.157c-.055 1.18-.34 2.734-1.621 3.21-1.11.442-2.415-.25-2.743-1.386-.25-.598-.273-1.211-.332-1.824v-1.157c.059-1.18.309-2.742 1.578-3.265l.055-.024.047-.011.059-.02.168-.047.101-.023h.125l.024-.012Zm0 0Zm-.351.692c-.953.113-1.239 1.261-1.305 2.03v.305l-.023.024v1.578c.07.816.125 1.871.875 2.414.691.477 1.609-.059 1.8-.793.204-.547.25-1.078.297-1.621v-1.578c-.07-.828-.183-1.984-1.136-2.313l-.079-.023-.023-.023h-.102l-.023-.02h-.258Zm0 0ZM11.543 79.73v.91h-.918v-.91Zm0 0ZM17.828 73.234v.715c-1.613 1.883-2.52 4.422-2.508 6.817h-.918c-.023-2.418.965-4.97 2.688-6.746l-.024-.024h-3.933v-.762h4.695v.715Zm0 0ZM6.863 49.875c1.074.078 1.79 1.066 1.985 2.063.101.453.125.886.168 1.34v1.156c-.055 1.18-.34 2.73-1.621 3.207-1.11.445-2.415-.25-2.743-1.383-.25-.602-.273-1.211-.332-1.824v-1.157c.059-1.18.309-2.746 1.578-3.265l.055-.024.047-.011.059-.024.168-.043.101-.023h.125l.024-.012Zm0 0Zm-.351.691c-.953.114-1.239 1.258-1.305 2.032v.304l-.023.024V54.5c.07.816.125 1.871.875 2.418.691.473 1.609-.059 1.8-.797.204-.543.25-1.074.297-1.621v-1.574c-.07-.828-.183-1.985-1.136-2.313l-.079-.023-.023-.024h-.102l-.023-.023h-.258Zm0 0ZM11.543 56.61v.906h-.918v-.907Zm0 0ZM15.695 49.875c1.203.047 2.336 1.34 1.86 2.54-.203.554-.77.898-1.235 1.132 1.157.344 1.86 1.691 1.336 2.8-.543 1.442-2.61 1.895-3.742.852-1.031-.816-1.066-2.586.078-3.308.172-.184.488-.239.637-.375-.988-.286-1.656-1.43-1.191-2.395.374-.86 1.34-1.336 2.257-1.246Zm0 0Zm-.43.645c-.84.023-1.43.976-1.148 1.726.332 1.293 2.496 1.246 2.746-.082.227-.734-.363-1.621-1.168-1.644l-.023-.008h-.387Zm0 0Zm.02 3.37c-.984.067-1.473 1.247-1.21 2.087.167 1.187 1.87 1.539 2.538.59.645-.876.328-2.442-.84-2.676h-.101l-.024-.024h-.351Zm0 0ZM6.863 26.754c1.074.078 1.79 1.066 1.985 2.062.101.454.125.883.168 1.34v1.157c-.055 1.175-.34 2.73-1.621 3.207-1.11.44-2.415-.25-2.743-1.383-.25-.602-.273-1.215-.332-1.825v-1.156c.059-1.18.309-2.746 1.578-3.265l.055-.024.047-.012.059-.023.168-.047.101-.02h.125l.024-.011Zm0 0Zm-.351.691c-.953.114-1.239 1.258-1.305 2.028v.308l-.023.024v1.574c.07.816.125 1.871.875 2.414.691.477 1.609-.055 1.8-.793.204-.543.25-1.078.297-1.621v-1.574c-.07-.828-.183-1.985-1.136-2.317l-.079-.02-.023-.023h-.102l-.023-.023h-.258Zm0 0ZM11.543 33.488v.907h-.918v-.907Zm0 0ZM15.719 26.754c1.36.144 1.949 1.687 2.039 2.867.16 1.531-.024 3.324-1.27 4.422-.781.781-2.164.805-3.004.102.102-.192.215-.418.34-.579.739.715 2.031.512 2.504-.406.34-.558.547-1.27.535-1.883-.668.86-2.144 1.36-2.949.453-.816-.94-.965-2.312-.555-3.445.418-.898 1.317-1.668 2.36-1.531Zm0 0Zm-.375.644c-.817.07-1.239.977-1.293 1.692-.035.805 0 1.746.715 2.265.793.489 1.812-.101 1.996-.964.215-.836.078-1.735-.352-2.516-.238-.328-.672-.566-1.066-.477Zm0 0ZM7.215 3.629v6.996l.012.023H8.62v.625H4.934v-.625h1.394l.024-.023V4.754c-.477.156-.977.262-1.473.25v-.637c.746.012 1.562-.191 2.129-.738Zm0 0ZM11.543 10.367v.906h-.918v-.906Zm0 0ZM15.672 3.629c1.078.082 1.793 1.066 1.984 2.066.102.453.125.883.172 1.336v1.157c-.058 1.18-.344 2.734-1.625 3.21-1.11.442-2.414-.25-2.742-1.382-.25-.602-.274-1.215-.328-1.829V7.032c.055-1.18.305-2.742 1.574-3.265l.059-.024.043-.008.058-.023.172-.047.102-.023h.125l.02-.012Zm0 0Zm-.352.691c-.953.117-1.234 1.262-1.304 2.032v.304l-.024.024v1.578c.07.816.125 1.87.875 2.414.692.476 1.61-.059 1.801-.793.207-.547.25-1.078.297-1.621V6.68c-.067-.828-.18-1.985-1.133-2.313l-.082-.023-.02-.024h-.105l-.02-.02h-.261Zm0 0Zm0 0"/><path style="fill:none;stroke-width:.02;stroke-linecap:butt;stroke-linejoin:miter;stroke:#000;stroke-opacity:1;stroke-miterlimit:10" d="M11.8 1.428h-.15M11.8 2.243h-.15M11.8 3.06h-.15M11.8 3.875h-.15M11.8 4.69h-.15M11.8 5.506h-.15M11.8 6.322h-.15M11.8 7.138h-.15M11.8 7.953h-.15" transform="matrix(28.34646 0 0 -28.34646 1 256.118)"/><path style="fill:none;stroke-width:.02;stroke-linecap:round;stroke-linejoin:miter;stroke:#000;stroke-opacity:1;stroke-miterlimit:10" d="M11.8.612v8.157" transform="matrix(28.34646 0 0 -28.34646 1 256.118)"/><path style="fill:none;stroke-width:.02;stroke-linecap:butt;stroke-linejoin:miter;stroke:#000;stroke-opacity:1;stroke-miterlimit:10" d="M2.684.612v.15M4.507.612v.15M6.33.612v.15M8.154.612v.15M9.977.612v.15" transform="matrix(28.34646 0 0 -28.34646 1 256.118)"/><path style="fill:none;stroke-width:.02;stroke-linecap:round;stroke-linejoin:miter;stroke:#000;stroke-opacity:1;stroke-miterlimit:10" d="M.86.612H11.8" transform="matrix(28.34646 0 0 -28.34646 1 256.118)"/><path style="stroke:none;fill-rule:nonzero;fill:#000;fill-opacity:1" d="M23.785 250.484v.633h-2.973v-.633Zm0 0ZM27.504 245.652c.996.047 2.039.965 1.805 2.02-.114.715-.614 1.305-1.239 1.621 1.008.316 1.793 1.383 1.52 2.437-.274 1.372-1.848 2.133-3.117 1.711-.614-.18-1.239-.566-1.532-1.132.067-.172.047-.465.125-.579.602.883 1.872 1.485 2.868.985 1.09-.692.918-2.707-.395-3.047h-.102l-.023-.023H26.36v-.68c.645-.012 1.45-.094 1.813-.762.387-.578.351-1.531-.383-1.812-.875-.34-1.953.214-2.281 1.097-.137-.191-.274-.383-.406-.59.464-.835 1.449-1.335 2.402-1.246Zm0 0ZM75.465 250.484v.633h-2.969v-.633Zm0 0ZM79.04 245.652c1.312.036 2.355 1.383 2.151 2.653-.136 1.27-1.324 1.996-2.175 2.789l-.364.375-.047.023-.453.442-.03.023-.458.453-.043.024-.101.101.023.012h3.672v.746h-4.488v-.68l1.824-1.824c.87-.762 1.894-1.746 1.734-2.992-.09-.727-.703-1.395-1.453-1.453-.758-.114-1.426.488-1.598 1.215l-.023.03-.02.083-.105.375-.008.055a4.63 4.63 0 0 1-.457-.614c.227-.93.977-1.8 1.965-1.836Zm0 0ZM127.148 250.484v.633h-2.972v-.633Zm0 0ZM131.195 245.652v6.996l.012.024h1.395v.621h-3.684v-.621h1.394l.02-.024v-5.875c-.477.16-.973.262-1.473.25v-.632c.75.011 1.567-.196 2.133-.739Zm0 0ZM180.637 245.652c1.078.078 1.793 1.067 1.984 2.063.102.453.125.887.172 1.34v1.156c-.059 1.18-.34 2.73-1.621 3.207-1.113.445-2.418-.246-2.746-1.383-.25-.601-.274-1.21-.328-1.824v-1.156c.054-1.18.304-2.746 1.574-3.266l.058-.023.047-.012.055-.024.172-.042.101-.024h.125l.02-.012Zm0 0Zm-.352.692c-.953.113-1.234 1.258-1.305 2.031v.305l-.02.023v1.574c.067.817.122 1.871.872 2.418.691.477 1.61-.058 1.805-.797.203-.543.246-1.074.293-1.62v-1.575c-.067-.828-.18-1.984-1.133-2.312l-.082-.024-.02-.023h-.101l-.024-.024h-.261Zm0 0ZM232.668 245.652v6.996l.012.024h1.394v.621h-3.683v-.621h1.394l.024-.024v-5.875c-.477.16-.977.262-1.473.25v-.632c.746.011 1.562-.196 2.129-.739Zm0 0ZM283.875 245.652c1.316.036 2.36 1.383 2.152 2.653-.132 1.27-1.324 1.996-2.175 2.789l-.364.375-.043.023-.453.442-.035.023-.453.453-.047.024-.102.101.024.012h3.672v.746h-4.488v-.68l1.824-1.824c.875-.762 1.894-1.746 1.734-2.992-.09-.727-.703-1.395-1.45-1.453-.76-.114-1.429.488-1.6 1.215l-.02.03-.024.083-.035.125-.066.25-.012.055a4.6 4.6 0 0 1-.453-.614c.226-.93.973-1.8 1.96-1.836Zm0 0ZM335.703 245.652c1 .047 2.043.965 1.805 2.02-.113.715-.613 1.305-1.238 1.621 1.011.316 1.793 1.383 1.52 2.437-.27 1.372-1.849 2.133-3.118 1.711-.613-.18-1.235-.566-1.531-1.132.07-.172.046-.465.125-.579.601.883 1.87 1.485 2.867.985 1.09-.692.922-2.707-.395-3.047h-.101l-.024-.023h-1.054v-.68c.644-.012 1.449-.094 1.812-.762.387-.578.352-1.531-.383-1.812-.875-.34-1.953.214-2.281 1.097a19.29 19.29 0 0 1-.406-.59c.465-.835 1.449-1.335 2.402-1.246Zm0 0Zm0 0"/><path style="fill:none;stroke-width:.02;stroke-linecap:butt;stroke-linejoin:miter;stroke:#000;stroke-opacity:1;stroke-miterlimit:10" d="M2.684 8.769v-.15M4.507 8.769v-.15M6.33 8.769v-.15M8.154 8.769v-.15M9.977 8.769v-.15" transform="matrix(28.34646 0 0 -28.34646 1 256.118)"/><path style="fill:none;stroke-width:.02;stroke-linecap:round;stroke-linejoin:miter;stroke:#000;stroke-opacity:1;stroke-miterlimit:10" d="M.86 8.769H11.8" transform="matrix(28.34646 0 0 -28.34646 1 256.118)"/><path style="fill:none;stroke-width:.05;stroke-linecap:butt;stroke-linejoin:miter;stroke:#5478a3;stroke-opacity:1;stroke-miterlimit:10" d="M.86.613h.133l.088.001h.087l.088.001.044.001h.044l.088.002h.044L1.52.62h.044l.044.002.088.003.043.001.044.002.044.002.044.003.044.002.044.003.044.003.044.004.044.004.044.004.044.005.044.005.044.006.044.006.044.007.043.008.044.008.044.01.044.01.044.011.044.012.044.013.044.015.044.015.044.017.044.019.044.02.044.021.044.024.043.025.044.027.044.03.044.03.044.034.044.036.044.039.044.041.044.044.044.047.044.05.044.053.044.056.044.06.044.062.043.067.044.07.044.074.044.078.044.082.044.086.044.09.044.094.044.098.044.103.044.106.044.111.044.115.044.12.043.123.044.128.044.131.044.136.044.139.044.143.044.146.044.15.044.153.044.155.044.158.044.161.044.163.044.164.044.166.043.168.044.168.044.168.044.169.044.168.044.168.044.166.044.165.044.162.044.16.044.158.044.154.044.15.044.146.044.141.043.136.044.13.044.126.044.118.044.112.044.104.044.097.044.09.044.08.044.074.044.064.044.056.044.047.044.037.044.028.044.02.043.009h.044l.044-.01.044-.019.044-.028.044-.037.044-.047.044-.056.044-.064.044-.073.044-.081.044-.09.044-.097.044-.104.044-.112.043-.118.044-.125.044-.13.044-.137.044-.141.044-.146.044-.15.044-.154.044-.157.044-.16.044-.163.044-.165.044-.166.044-.168.044-.168.043-.169.044-.168.044-.168.044-.168.044-.166.044-.164.044-.163.044-.16.044-.159.044-.155.044-.153.044-.15.044-.146.044-.143.043-.14.044-.135.044-.131.044-.128.044-.123.044-.12.044-.115.044-.11.044-.107.044-.103.044-.098.044-.094.044-.09.044-.086.044-.082.043-.078.044-.074.044-.07.044-.067.044-.063.044-.06.044-.055.044-.053.044-.05.044-.047.044-.044.044-.041.044-.039.044-.036.043-.033.044-.032.044-.029.044-.027.044-.025.044-.024L9.78.84l.044-.02L9.867.8l.044-.017.044-.015.044-.015.044-.013.044-.012.044-.011.043-.01.044-.01.044-.008.044-.008.044-.007.044-.006.044-.006.044-.005.044-.005.044-.004.044-.004.044-.004.044-.003.044-.003.043-.002.044-.003.044-.002.044-.002.044-.001.044-.002.044-.001.044-.001.088-.002.044-.001h.044l.044-.001.088-.002h.087l.176-.001h.088L11.8.612" transform="matrix(28.34646 0 0 -28.34646 1 256.118)"/><path style="fill:none;stroke-width:.05;stroke-linecap:butt;stroke-linejoin:miter;stroke:#e69142;stroke-opacity:1;stroke-miterlimit:10" d="m.86.612.038.056.037.055.075.111.037.055L1.12 1l.038.056.074.111.037.055.075.111.037.056.074.11.037.056.075.111.037.056.074.11.038.056L1.79 2l.037.056.075.11.037.056.074.111.037.056.075.11.037.056.075.111.037.056.074.11.037.056.075.111.037.055.074.112.038.055.074.111.037.055.075.111.037.056.111.166.038.056.074.111.037.055.075.111.037.056.074.11.038.056.074.111.037.056.075.11.037.056.074.111.037.056.075.11.037.056.074.111.038.056.074.11.037.056.075.111.037.056.074.11.037.056.075.111.037.055.075.112.037.055.074.111.037.055.075.112.037.055.074.111.038.055.074.111.037.056.075.11.037.056.111.167.038.055.074.111.037.056.075.11.037.056.074.111.038.056.074.11.037.056.075.111.037.056.074.11.038.056.074.111.037.056.075.11.037.056.074.111.037.056.075.11.037.047.037.028.037.009.038-.01.037-.027.037-.046.074-.111.038-.056.074-.111.037-.055.075-.111.037-.056.074-.11.038-.056.074-.111L7 7.77l.075-.11.037-.056.074-.111.037-.056.075-.11.037-.056.074-.111.038-.056.074-.11.037-.056.112-.167.037-.055.075-.111.037-.056.074-.11.037-.056.075-.111.037-.055.074-.112.038-.055.074-.111.037-.055.075-.112.037-.055.074-.111.037-.055.075-.111.037-.056.074-.11.038-.056.074-.111.037-.056.075-.11.037-.056.074-.111.038-.056.074-.11.037-.056.075-.111.037-.056.074-.11.037-.056.075-.111.037-.056.074-.11.038-.056.037-.056.037-.055.037-.056.112-.166.037-.056.075-.11.037-.056.074-.111.037-.055.075-.112.037-.055.075-.111.037-.055.074-.111.037-.056.075-.11.037-.056.074-.111.038-.056.074-.11.037-.056.075-.111.037-.056.074-.11.037-.056.075-.111.037-.056.074-.11.038-.056.074-.111.037-.056.075-.11.037-.056.074-.111L11.54 1l.074-.11.037-.056.075-.111.037-.055.037-.056" transform="matrix(28.34646 0 0 -28.34646 1 256.118)"/></svg>