<?xml version="1.0" encoding="UTF-8"?>
<svg xmlns="http://www.w3.org/2000/svg" xmlns:xlink="http://www.w3.org/1999/xlink" width="342.15748pt" height="257.11811pt" viewBox="0 0 342.15748 257.11811" version="1.1">
<g id="surface1">
<path style="fill:none;stroke-width:0.02;stroke-linecap:butt;stroke-linejoin:miter;stroke:rgb(0%,0%,0%);stroke-opacity:1;stroke-miterlimit:10;" d="M 0.86086 1.42768 L 1.010791 1.42768 " transform="matrix(28.346457,0,0,-28.346457,1,256.11811)"/>
<path style="fill:none;stroke-width:0.02;stroke-linecap:butt;stroke-linejoin:miter;stroke:rgb(0%,0%,0%);stroke-opacity:1;stroke-miterlimit:10;" d="M 0.86086 2.243341 L 1.010791 2.243341 " transform="matrix(28.346457,0,0,-28.346457,1,256.11811)"/>
<path style="fill:none;stroke-width:0.02;stroke-linecap:butt;stroke-linejoin:miter;stroke:rgb(0%,0%,0%);stroke-opacity:1;stroke-miterlimit:10;" d="M 0.86086 3.05914 L 1.010791 3.05914 " transform="matrix(28.346457,0,0,-28.346457,1,256.11811)"/>
<path style="fill:none;stroke-width:0.02;stroke-linecap:butt;stroke-linejoin:miter;stroke:rgb(0%,0%,0%);stroke-opacity:1;stroke-miterlimit:10;" d="M 0.86086 3.8748 L 1.010791 3.8748 " transform="matrix(28.346457,0,0,-28.346457,1,256.11811)"/>
<path style="fill:none;stroke-width:0.02;stroke-linecap:butt;stroke-linejoin:miter;stroke:rgb(0%,0%,0%);stroke-opacity:1;stroke-miterlimit:10;" d="M 0.86086 4.690461 L 1.010791 4.690461 " transform="matrix(28.346457,0,0,-28.346457,1,256.11811)"/>
<path style="fill:none;stroke-width:0.02;stroke-linecap:butt;stroke-linejoin:miter;stroke:rgb(0%,0%,0%);stroke-opacity:1;stroke-miterlimit:10;" d="M 0.86086 5.50626 L 1.010791 5.50626 " transform="matrix(28.346457,0,0,-28.346457,1,256.11811)"/>
<path style="fill:none;stroke-width:0.02;stroke-linecap:butt;stroke-linejoin:miter;stroke:rgb(0%,0%,0%);stroke-opacity:1;stroke-miterlimit:10;" d="M 0.86086 6.321921 L 1.010791 6.321921 " transform="matrix(28.346457,0,0,-28.346457,1,256.11811)"/>
<path style="fill:none;stroke-width:0.02;stroke-linecap:butt;stroke-linejoin:miter;stroke:rgb(0%,0%,0%);stroke-opacity:1;stroke-miterlimit:10;" d="M 0.86086 7.137581 L 1.010791 7.137581 " transform="matrix(28.346457,0,0,-28.346457,1,256.11811)"/>
<path style="fill:none;stroke-width:0.02;stroke-linecap:butt;stroke-linejoin:miter;stroke:rgb(0%,0%,0%);stroke-opacity:1;stroke-miterlimit:10;" d="M 0.86086 7.953242 L 1.010791 7.953242 " transform="matrix(28.346457,0,0,-28.346457,1,256.11811)"/>
<path style="fill:none;stroke-width:0.02;stroke-linecap:round;stroke-linejoin:miter;stroke:rgb(0%,0%,0%);stroke-opacity:1;stroke-miterlimit:10;" d="M 0.86086 0.612019 L 0.86086 8.769041 " transform="matrix(28.346457,0,0,-28.346457,1,256.11811)"/>
<path style=" stroke:none;fill-rule:nonzero;fill:rgb(0%,0%,0%);fill-opacity:1;" d="M 6.863281 234.851562 C 7.9375 234.933594 8.652344 235.917969 8.847656 236.917969 C 8.949219 237.371094 8.972656 237.800781 9.015625 238.253906 L 9.015625 239.410156 C 8.960938 240.589844 8.675781 242.144531 7.394531 242.621094 C 6.285156 243.0625 4.980469 242.371094 4.652344 241.234375 C 4.402344 240.636719 4.378906 240.023438 4.320312 239.410156 L 4.320312 238.253906 C 4.378906 237.074219 4.628906 235.511719 5.898438 234.988281 L 5.953125 234.964844 L 6 234.953125 L 6.058594 234.933594 L 6.226562 234.886719 L 6.328125 234.863281 L 6.453125 234.863281 L 6.476562 234.851562 Z M 6.863281 234.851562 Z M 6.511719 235.542969 C 5.558594 235.65625 5.273438 236.804688 5.207031 237.574219 L 5.207031 237.878906 L 5.183594 237.902344 L 5.183594 239.480469 C 5.253906 240.296875 5.308594 241.347656 6.058594 241.894531 C 6.75 242.371094 7.667969 241.835938 7.859375 241.101562 C 8.0625 240.554688 8.109375 240.023438 8.15625 239.480469 L 8.15625 237.902344 C 8.085938 237.074219 7.972656 235.917969 7.019531 235.589844 L 6.941406 235.566406 L 6.917969 235.542969 L 6.816406 235.542969 L 6.792969 235.523438 L 6.535156 235.523438 Z M 6.511719 235.542969 Z M 6.511719 235.542969 "/>
<path style=" stroke:none;fill-rule:nonzero;fill:rgb(0%,0%,0%);fill-opacity:1;" d="M 11.542969 241.585938 L 11.542969 242.496094 L 10.625 242.496094 L 10.625 241.585938 Z M 11.542969 241.585938 Z M 11.542969 241.585938 "/>
<path style=" stroke:none;fill-rule:nonzero;fill:rgb(0%,0%,0%);fill-opacity:1;" d="M 15.671875 234.851562 C 16.75 234.933594 17.464844 235.917969 17.65625 236.917969 C 17.757812 237.371094 17.78125 237.800781 17.828125 238.253906 L 17.828125 239.410156 C 17.769531 240.589844 17.484375 242.144531 16.203125 242.621094 C 15.09375 243.0625 13.789062 242.371094 13.460938 241.234375 C 13.210938 240.636719 13.1875 240.023438 13.132812 239.410156 L 13.132812 238.253906 C 13.1875 237.074219 13.4375 235.511719 14.707031 234.988281 L 14.765625 234.964844 L 14.808594 234.953125 L 14.867188 234.933594 L 15.039062 234.886719 L 15.140625 234.863281 L 15.265625 234.863281 L 15.285156 234.851562 Z M 15.671875 234.851562 Z M 15.320312 235.542969 C 14.367188 235.65625 14.085938 236.804688 14.015625 237.574219 L 14.015625 237.878906 L 13.992188 237.902344 L 13.992188 239.480469 C 14.0625 240.296875 14.117188 241.347656 14.867188 241.894531 C 15.558594 242.371094 16.476562 241.835938 16.667969 241.101562 C 16.875 240.554688 16.917969 240.023438 16.964844 239.480469 L 16.964844 237.902344 C 16.898438 237.074219 16.785156 235.917969 15.832031 235.589844 L 15.75 235.566406 L 15.730469 235.542969 L 15.625 235.542969 L 15.605469 235.523438 L 15.34375 235.523438 Z M 15.320312 235.542969 Z M 15.320312 235.542969 "/>
<path style=" stroke:none;fill-rule:nonzero;fill:rgb(0%,0%,0%);fill-opacity:1;" d="M 6.863281 211.730469 C 7.9375 211.808594 8.652344 212.796875 8.847656 213.792969 C 8.949219 214.246094 8.972656 214.679688 9.015625 215.132812 L 9.015625 216.289062 C 8.960938 217.46875 8.675781 219.019531 7.394531 219.496094 C 6.285156 219.941406 4.980469 219.246094 4.652344 218.113281 C 4.402344 217.511719 4.378906 216.902344 4.320312 216.289062 L 4.320312 215.132812 C 4.378906 213.953125 4.628906 212.386719 5.898438 211.867188 L 5.953125 211.84375 L 6 211.832031 L 6.058594 211.808594 L 6.226562 211.765625 L 6.328125 211.742188 L 6.453125 211.742188 L 6.476562 211.730469 Z M 6.863281 211.730469 Z M 6.511719 212.421875 C 5.558594 212.535156 5.273438 213.679688 5.207031 214.453125 L 5.207031 214.757812 L 5.183594 214.78125 L 5.183594 216.355469 C 5.253906 217.171875 5.308594 218.226562 6.058594 218.773438 C 6.75 219.246094 7.667969 218.714844 7.859375 217.976562 C 8.0625 217.433594 8.109375 216.902344 8.15625 216.355469 L 8.15625 214.78125 C 8.085938 213.953125 7.972656 212.796875 7.019531 212.46875 L 6.941406 212.445312 L 6.917969 212.421875 L 6.816406 212.421875 L 6.792969 212.398438 L 6.535156 212.398438 Z M 6.511719 212.421875 Z M 6.511719 212.421875 "/>
<path style=" stroke:none;fill-rule:nonzero;fill:rgb(0%,0%,0%);fill-opacity:1;" d="M 11.542969 218.464844 L 11.542969 219.371094 L 10.625 219.371094 L 10.625 218.464844 Z M 11.542969 218.464844 Z M 11.542969 218.464844 "/>
<path style=" stroke:none;fill-rule:nonzero;fill:rgb(0%,0%,0%);fill-opacity:1;" d="M 16.023438 211.730469 L 16.023438 218.726562 L 16.035156 218.75 L 17.429688 218.75 L 17.429688 219.371094 L 13.746094 219.371094 L 13.746094 218.75 L 15.140625 218.75 L 15.160156 218.726562 L 15.160156 212.851562 C 14.6875 213.011719 14.1875 213.113281 13.6875 213.101562 L 13.6875 212.46875 C 14.4375 212.480469 15.253906 212.273438 15.820312 211.730469 Z M 16.023438 211.730469 Z M 16.023438 211.730469 "/>
<path style=" stroke:none;fill-rule:nonzero;fill:rgb(0%,0%,0%);fill-opacity:1;" d="M 6.863281 188.609375 C 7.9375 188.6875 8.652344 189.675781 8.847656 190.671875 C 8.949219 191.125 8.972656 191.554688 9.015625 192.007812 L 9.015625 193.167969 C 8.960938 194.34375 8.675781 195.898438 7.394531 196.375 C 6.285156 196.816406 4.980469 196.125 4.652344 194.992188 C 4.402344 194.390625 4.378906 193.777344 4.320312 193.167969 L 4.320312 192.007812 C 4.378906 190.832031 4.628906 189.265625 5.898438 188.746094 L 5.953125 188.722656 L 6 188.710938 L 6.058594 188.6875 L 6.226562 188.640625 L 6.328125 188.621094 L 6.453125 188.621094 L 6.476562 188.609375 Z M 6.863281 188.609375 Z M 6.511719 189.300781 C 5.558594 189.414062 5.273438 190.558594 5.207031 191.328125 L 5.207031 191.636719 L 5.183594 191.660156 L 5.183594 193.234375 C 5.253906 194.050781 5.308594 195.105469 6.058594 195.648438 C 6.75 196.125 7.667969 195.59375 7.859375 194.855469 C 8.0625 194.3125 8.109375 193.777344 8.15625 193.234375 L 8.15625 191.660156 C 8.085938 190.832031 7.972656 189.675781 7.019531 189.34375 L 6.941406 189.324219 L 6.917969 189.300781 L 6.816406 189.300781 L 6.792969 189.277344 L 6.535156 189.277344 Z M 6.511719 189.300781 Z M 6.511719 189.300781 "/>
<path style=" stroke:none;fill-rule:nonzero;fill:rgb(0%,0%,0%);fill-opacity:1;" d="M 11.542969 195.34375 L 11.542969 196.25 L 10.625 196.25 L 10.625 195.34375 Z M 11.542969 195.34375 Z M 11.542969 195.34375 "/>
<path style=" stroke:none;fill-rule:nonzero;fill:rgb(0%,0%,0%);fill-opacity:1;" d="M 15.546875 188.609375 C 16.863281 188.640625 17.90625 189.992188 17.703125 191.261719 C 17.566406 192.53125 16.375 193.257812 15.523438 194.050781 L 15.160156 194.425781 L 15.117188 194.449219 L 14.664062 194.890625 L 14.628906 194.914062 L 14.175781 195.367188 L 14.128906 195.386719 L 14.027344 195.492188 L 14.050781 195.503906 L 17.722656 195.503906 L 17.722656 196.25 L 13.234375 196.25 L 13.234375 195.570312 L 15.058594 193.746094 C 15.933594 192.984375 16.953125 192 16.792969 190.75 C 16.703125 190.027344 16.089844 189.355469 15.34375 189.300781 C 14.582031 189.1875 13.914062 189.789062 13.746094 190.511719 L 13.722656 190.546875 L 13.699219 190.625 L 13.664062 190.75 L 13.597656 191 L 13.585938 191.058594 C 13.425781 190.863281 13.257812 190.660156 13.132812 190.445312 C 13.359375 189.515625 14.105469 188.640625 15.09375 188.609375 Z M 15.546875 188.609375 Z M 15.546875 188.609375 "/>
<path style=" stroke:none;fill-rule:nonzero;fill:rgb(0%,0%,0%);fill-opacity:1;" d="M 6.863281 165.484375 C 7.9375 165.566406 8.652344 166.550781 8.847656 167.550781 C 8.949219 168.003906 8.972656 168.433594 9.015625 168.886719 L 9.015625 170.042969 C 8.960938 171.222656 8.675781 172.777344 7.394531 173.253906 C 6.285156 173.695312 4.980469 173.003906 4.652344 171.871094 C 4.402344 171.269531 4.378906 170.65625 4.320312 170.042969 L 4.320312 168.886719 C 4.378906 167.707031 4.628906 166.144531 5.898438 165.621094 L 5.953125 165.597656 L 6 165.589844 L 6.058594 165.566406 L 6.226562 165.519531 L 6.328125 165.496094 L 6.453125 165.496094 L 6.476562 165.484375 Z M 6.863281 165.484375 Z M 6.511719 166.175781 C 5.558594 166.292969 5.273438 167.4375 5.207031 168.207031 L 5.207031 168.511719 L 5.183594 168.535156 L 5.183594 170.113281 C 5.253906 170.929688 5.308594 171.984375 6.058594 172.527344 C 6.75 173.003906 7.667969 172.46875 7.859375 171.734375 C 8.0625 171.1875 8.109375 170.65625 8.15625 170.113281 L 8.15625 168.535156 C 8.085938 167.707031 7.972656 166.550781 7.019531 166.222656 L 6.941406 166.199219 L 6.917969 166.175781 L 6.816406 166.175781 L 6.792969 166.15625 L 6.535156 166.15625 Z M 6.511719 166.175781 Z M 6.511719 166.175781 "/>
<path style=" stroke:none;fill-rule:nonzero;fill:rgb(0%,0%,0%);fill-opacity:1;" d="M 11.542969 172.222656 L 11.542969 173.128906 L 10.625 173.128906 L 10.625 172.222656 Z M 11.542969 172.222656 Z M 11.542969 172.222656 "/>
<path style=" stroke:none;fill-rule:nonzero;fill:rgb(0%,0%,0%);fill-opacity:1;" d="M 15.695312 165.484375 C 16.691406 165.53125 17.734375 166.449219 17.496094 167.503906 C 17.382812 168.21875 16.886719 168.808594 16.261719 169.125 C 17.269531 169.441406 18.054688 170.507812 17.78125 171.5625 C 17.507812 172.933594 15.933594 173.695312 14.664062 173.277344 C 14.050781 173.09375 13.425781 172.707031 13.132812 172.140625 C 13.199219 171.972656 13.175781 171.675781 13.257812 171.5625 C 13.859375 172.449219 15.128906 173.046875 16.125 172.550781 C 17.214844 171.859375 17.042969 169.839844 15.730469 169.5 L 15.625 169.5 L 15.605469 169.476562 L 14.550781 169.476562 L 14.550781 168.796875 C 15.195312 168.785156 16 168.707031 16.363281 168.039062 C 16.75 167.457031 16.714844 166.507812 15.976562 166.222656 C 15.105469 165.882812 14.027344 166.4375 13.699219 167.324219 C 13.5625 167.128906 13.425781 166.9375 13.292969 166.734375 C 13.757812 165.894531 14.742188 165.394531 15.695312 165.484375 Z M 15.695312 165.484375 Z M 15.695312 165.484375 "/>
<path style=" stroke:none;fill-rule:nonzero;fill:rgb(0%,0%,0%);fill-opacity:1;" d="M 6.863281 142.363281 C 7.9375 142.441406 8.652344 143.429688 8.847656 144.425781 C 8.949219 144.882812 8.972656 145.3125 9.015625 145.765625 L 9.015625 146.921875 C 8.960938 148.101562 8.675781 149.65625 7.394531 150.128906 C 6.285156 150.574219 4.980469 149.882812 4.652344 148.746094 C 4.402344 148.144531 4.378906 147.535156 4.320312 146.921875 L 4.320312 145.765625 C 4.378906 144.585938 4.628906 143.019531 5.898438 142.5 L 5.953125 142.476562 L 6 142.464844 L 6.058594 142.441406 L 6.226562 142.398438 L 6.328125 142.375 L 6.453125 142.375 L 6.476562 142.363281 Z M 6.863281 142.363281 Z M 6.511719 143.054688 C 5.558594 143.167969 5.273438 144.3125 5.207031 145.085938 L 5.207031 145.390625 L 5.183594 145.414062 L 5.183594 146.988281 C 5.253906 147.804688 5.308594 148.859375 6.058594 149.40625 C 6.75 149.882812 7.667969 149.347656 7.859375 148.613281 C 8.0625 148.066406 8.109375 147.535156 8.15625 146.988281 L 8.15625 145.414062 C 8.085938 144.585938 7.972656 143.429688 7.019531 143.101562 L 6.941406 143.078125 L 6.917969 143.054688 L 6.816406 143.054688 L 6.792969 143.03125 L 6.535156 143.03125 Z M 6.511719 143.054688 Z M 6.511719 143.054688 "/>
<path style=" stroke:none;fill-rule:nonzero;fill:rgb(0%,0%,0%);fill-opacity:1;" d="M 11.542969 149.097656 L 11.542969 150.007812 L 10.625 150.007812 L 10.625 149.097656 Z M 11.542969 149.097656 Z M 11.542969 149.097656 "/>
<path style=" stroke:none;fill-rule:nonzero;fill:rgb(0%,0%,0%);fill-opacity:1;" d="M 16.839844 142.601562 L 16.839844 147.375 L 16.863281 147.398438 L 17.984375 147.398438 L 17.984375 148.078125 L 16.863281 148.078125 L 16.839844 148.089844 L 16.839844 150.007812 L 15.976562 150.007812 L 15.976562 148.089844 L 15.957031 148.078125 L 12.960938 148.078125 L 12.960938 147.375 C 13.914062 145.789062 14.867188 144.1875 15.820312 142.601562 Z M 16.839844 142.601562 Z M 16 143.03125 C 15.773438 144.210938 15.046875 145.222656 14.503906 146.253906 C 14.289062 146.628906 14.003906 147.035156 13.847656 147.398438 L 16.023438 147.398438 L 16.035156 147.375 L 16.035156 143.03125 L 16.023438 143.011719 Z M 16 143.03125 Z M 16 143.03125 "/>
<path style=" stroke:none;fill-rule:nonzero;fill:rgb(0%,0%,0%);fill-opacity:1;" d="M 6.863281 119.242188 C 7.9375 119.320312 8.652344 120.308594 8.847656 121.304688 C 8.949219 121.757812 8.972656 122.191406 9.015625 122.644531 L 9.015625 123.800781 C 8.960938 124.980469 8.675781 126.53125 7.394531 127.007812 C 6.285156 127.449219 4.980469 126.757812 4.652344 125.625 C 4.402344 125.023438 4.378906 124.410156 4.320312 123.800781 L 4.320312 122.644531 C 4.378906 121.464844 4.628906 119.898438 5.898438 119.378906 L 5.953125 119.355469 L 6 119.34375 L 6.058594 119.320312 L 6.226562 119.277344 L 6.328125 119.253906 L 6.453125 119.253906 L 6.476562 119.242188 Z M 6.863281 119.242188 Z M 6.511719 119.933594 C 5.558594 120.046875 5.273438 121.191406 5.207031 121.960938 L 5.207031 122.269531 L 5.183594 122.292969 L 5.183594 123.867188 C 5.253906 124.683594 5.308594 125.738281 6.058594 126.28125 C 6.75 126.757812 7.667969 126.226562 7.859375 125.488281 C 8.0625 124.945312 8.109375 124.410156 8.15625 123.867188 L 8.15625 122.292969 C 8.085938 121.464844 7.972656 120.308594 7.019531 119.980469 L 6.941406 119.957031 L 6.917969 119.933594 L 6.816406 119.933594 L 6.792969 119.910156 L 6.535156 119.910156 Z M 6.511719 119.933594 Z M 6.511719 119.933594 "/>
<path style=" stroke:none;fill-rule:nonzero;fill:rgb(0%,0%,0%);fill-opacity:1;" d="M 11.542969 125.976562 L 11.542969 126.882812 L 10.625 126.882812 L 10.625 125.976562 Z M 11.542969 125.976562 Z M 11.542969 125.976562 "/>
<path style=" stroke:none;fill-rule:nonzero;fill:rgb(0%,0%,0%);fill-opacity:1;" d="M 17.351562 119.480469 L 17.351562 120.183594 L 14.402344 120.183594 L 14.378906 120.195312 L 14.378906 122.519531 C 14.652344 122.335938 15.039062 122.097656 15.398438 122.085938 C 16.679688 121.953125 17.667969 123.210938 17.722656 124.378906 C 17.90625 125.863281 16.511719 127.335938 15.015625 127.109375 C 14.265625 127.085938 13.539062 126.644531 13.109375 126.035156 C 13.234375 125.863281 13.335938 125.570312 13.484375 125.464844 C 14.015625 126.507812 15.738281 126.929688 16.433594 125.828125 C 16.875 125 16.863281 123.945312 16.351562 123.152344 C 15.761719 122.394531 14.59375 122.859375 14.324219 123.664062 L 13.585938 123.664062 L 13.585938 119.480469 Z M 17.351562 119.480469 Z M 17.351562 119.480469 "/>
<path style=" stroke:none;fill-rule:nonzero;fill:rgb(0%,0%,0%);fill-opacity:1;" d="M 6.863281 96.121094 C 7.9375 96.199219 8.652344 97.183594 8.847656 98.183594 C 8.949219 98.636719 8.972656 99.066406 9.015625 99.519531 L 9.015625 100.675781 C 8.960938 101.855469 8.675781 103.410156 7.394531 103.886719 C 6.285156 104.328125 4.980469 103.636719 4.652344 102.503906 C 4.402344 101.902344 4.378906 101.289062 4.320312 100.675781 L 4.320312 99.519531 C 4.378906 98.339844 4.628906 96.777344 5.898438 96.253906 L 5.953125 96.234375 L 6 96.222656 L 6.058594 96.199219 L 6.226562 96.152344 L 6.328125 96.128906 L 6.453125 96.128906 L 6.476562 96.121094 Z M 6.863281 96.121094 Z M 6.511719 96.8125 C 5.558594 96.925781 5.273438 98.070312 5.207031 98.839844 L 5.207031 99.148438 L 5.183594 99.167969 L 5.183594 100.746094 C 5.253906 101.5625 5.308594 102.617188 6.058594 103.160156 C 6.75 103.636719 7.667969 103.105469 7.859375 102.367188 C 8.0625 101.824219 8.109375 101.289062 8.15625 100.746094 L 8.15625 99.167969 C 8.085938 98.339844 7.972656 97.183594 7.019531 96.855469 L 6.941406 96.832031 L 6.917969 96.8125 L 6.816406 96.8125 L 6.792969 96.789062 L 6.535156 96.789062 Z M 6.511719 96.8125 Z M 6.511719 96.8125 "/>
<path style=" stroke:none;fill-rule:nonzero;fill:rgb(0%,0%,0%);fill-opacity:1;" d="M 11.542969 102.855469 L 11.542969 103.761719 L 10.625 103.761719 L 10.625 102.855469 Z M 11.542969 102.855469 Z M 11.542969 102.855469 "/>
<path style=" stroke:none;fill-rule:nonzero;fill:rgb(0%,0%,0%);fill-opacity:1;" d="M 16.410156 96.121094 C 16.703125 96.164062 17.042969 96.199219 17.328125 96.335938 L 17.328125 96.992188 C 16.546875 96.652344 15.523438 96.605469 14.914062 97.296875 C 14.367188 97.875 14.117188 98.738281 14.097656 99.5 C 14.753906 98.625 16.238281 98.136719 17.042969 99.042969 C 17.847656 99.972656 17.984375 101.3125 17.621094 102.445312 C 17.226562 103.351562 16.308594 104.179688 15.285156 103.988281 C 13.902344 103.875 13.28125 102.332031 13.210938 101.152344 C 12.949219 99.488281 13.347656 97.390625 14.933594 96.4375 L 14.957031 96.425781 L 15.195312 96.300781 L 15.265625 96.277344 L 15.296875 96.253906 L 15.492188 96.199219 L 15.648438 96.152344 L 15.75 96.128906 L 15.875 96.128906 L 15.898438 96.121094 Z M 16.410156 96.121094 Z M 15.296875 99.273438 C 14.3125 99.441406 13.992188 100.632812 14.117188 101.4375 C 14.175781 102.195312 14.46875 103.207031 15.34375 103.363281 C 16.273438 103.488281 16.875 102.492188 16.898438 101.6875 C 16.941406 100.871094 16.898438 99.941406 16.183594 99.40625 L 16.023438 99.328125 L 15.898438 99.292969 L 15.796875 99.273438 L 15.773438 99.25 L 15.320312 99.25 Z M 15.296875 99.273438 Z M 15.296875 99.273438 "/>
<path style=" stroke:none;fill-rule:nonzero;fill:rgb(0%,0%,0%);fill-opacity:1;" d="M 6.863281 72.996094 C 7.9375 73.078125 8.652344 74.0625 8.847656 75.0625 C 8.949219 75.515625 8.972656 75.945312 9.015625 76.398438 L 9.015625 77.554688 C 8.960938 78.734375 8.675781 80.289062 7.394531 80.765625 C 6.285156 81.207031 4.980469 80.515625 4.652344 79.378906 C 4.402344 78.78125 4.378906 78.167969 4.320312 77.554688 L 4.320312 76.398438 C 4.378906 75.21875 4.628906 73.65625 5.898438 73.132812 L 5.953125 73.109375 L 6 73.097656 L 6.058594 73.078125 L 6.226562 73.03125 L 6.328125 73.007812 L 6.453125 73.007812 L 6.476562 72.996094 Z M 6.863281 72.996094 Z M 6.511719 73.6875 C 5.558594 73.800781 5.273438 74.949219 5.207031 75.71875 L 5.207031 76.023438 L 5.183594 76.046875 L 5.183594 77.625 C 5.253906 78.441406 5.308594 79.496094 6.058594 80.039062 C 6.75 80.515625 7.667969 79.980469 7.859375 79.246094 C 8.0625 78.699219 8.109375 78.167969 8.15625 77.625 L 8.15625 76.046875 C 8.085938 75.21875 7.972656 74.0625 7.019531 73.734375 L 6.941406 73.710938 L 6.917969 73.6875 L 6.816406 73.6875 L 6.792969 73.667969 L 6.535156 73.667969 Z M 6.511719 73.6875 Z M 6.511719 73.6875 "/>
<path style=" stroke:none;fill-rule:nonzero;fill:rgb(0%,0%,0%);fill-opacity:1;" d="M 11.542969 79.730469 L 11.542969 80.640625 L 10.625 80.640625 L 10.625 79.730469 Z M 11.542969 79.730469 Z M 11.542969 79.730469 "/>
<path style=" stroke:none;fill-rule:nonzero;fill:rgb(0%,0%,0%);fill-opacity:1;" d="M 17.828125 73.234375 L 17.828125 73.949219 C 16.214844 75.832031 15.308594 78.371094 15.320312 80.765625 L 14.402344 80.765625 C 14.378906 78.347656 15.367188 75.796875 17.089844 74.019531 L 17.066406 73.996094 L 13.132812 73.996094 L 13.132812 73.234375 L 17.828125 73.234375 L 17.828125 73.949219 Z M 17.828125 73.234375 Z M 17.828125 73.234375 "/>
<path style=" stroke:none;fill-rule:nonzero;fill:rgb(0%,0%,0%);fill-opacity:1;" d="M 6.863281 49.875 C 7.9375 49.953125 8.652344 50.941406 8.847656 51.9375 C 8.949219 52.390625 8.972656 52.824219 9.015625 53.277344 L 9.015625 54.433594 C 8.960938 55.613281 8.675781 57.164062 7.394531 57.640625 C 6.285156 58.085938 4.980469 57.390625 4.652344 56.257812 C 4.402344 55.65625 4.378906 55.046875 4.320312 54.433594 L 4.320312 53.277344 C 4.378906 52.097656 4.628906 50.53125 5.898438 50.011719 L 5.953125 49.988281 L 6 49.976562 L 6.058594 49.953125 L 6.226562 49.910156 L 6.328125 49.886719 L 6.453125 49.886719 L 6.476562 49.875 Z M 6.863281 49.875 Z M 6.511719 50.566406 C 5.558594 50.679688 5.273438 51.824219 5.207031 52.597656 L 5.207031 52.902344 L 5.183594 52.925781 L 5.183594 54.5 C 5.253906 55.316406 5.308594 56.371094 6.058594 56.917969 C 6.75 57.390625 7.667969 56.859375 7.859375 56.121094 C 8.0625 55.578125 8.109375 55.046875 8.15625 54.5 L 8.15625 52.925781 C 8.085938 52.097656 7.972656 50.941406 7.019531 50.613281 L 6.941406 50.589844 L 6.917969 50.566406 L 6.816406 50.566406 L 6.792969 50.542969 L 6.535156 50.542969 Z M 6.511719 50.566406 Z M 6.511719 50.566406 "/>
<path style=" stroke:none;fill-rule:nonzero;fill:rgb(0%,0%,0%);fill-opacity:1;" d="M 11.542969 56.609375 L 11.542969 57.515625 L 10.625 57.515625 L 10.625 56.609375 Z M 11.542969 56.609375 Z M 11.542969 56.609375 "/>
<path style=" stroke:none;fill-rule:nonzero;fill:rgb(0%,0%,0%);fill-opacity:1;" d="M 15.695312 49.875 C 16.898438 49.921875 18.03125 51.214844 17.554688 52.414062 C 17.351562 52.96875 16.785156 53.3125 16.320312 53.546875 C 17.476562 53.890625 18.179688 55.238281 17.65625 56.347656 C 17.113281 57.789062 15.046875 58.242188 13.914062 57.199219 C 12.882812 56.382812 12.847656 54.613281 13.992188 53.890625 C 14.164062 53.707031 14.480469 53.652344 14.628906 53.515625 C 13.640625 53.230469 12.972656 52.085938 13.4375 51.121094 C 13.8125 50.261719 14.777344 49.785156 15.695312 49.875 Z M 15.695312 49.875 Z M 15.265625 50.519531 C 14.425781 50.542969 13.835938 51.496094 14.117188 52.246094 C 14.449219 53.539062 16.613281 53.492188 16.863281 52.164062 C 17.089844 51.429688 16.5 50.542969 15.695312 50.519531 L 15.671875 50.511719 L 15.285156 50.511719 Z M 15.265625 50.519531 Z M 15.285156 53.890625 C 14.300781 53.957031 13.8125 55.136719 14.074219 55.976562 C 14.242188 57.164062 15.945312 57.515625 16.613281 56.566406 C 17.257812 55.691406 16.941406 54.125 15.773438 53.890625 L 15.671875 53.890625 L 15.648438 53.867188 L 15.296875 53.867188 Z M 15.285156 53.890625 Z M 15.285156 53.890625 "/>
<path style=" stroke:none;fill-rule:nonzero;fill:rgb(0%,0%,0%);fill-opacity:1;" d="M 6.863281 26.753906 C 7.9375 26.832031 8.652344 27.820312 8.847656 28.816406 C 8.949219 29.269531 8.972656 29.699219 9.015625 30.15625 L 9.015625 31.3125 C 8.960938 32.488281 8.675781 34.042969 7.394531 34.519531 C 6.285156 34.960938 4.980469 34.269531 4.652344 33.136719 C 4.402344 32.535156 4.378906 31.921875 4.320312 31.3125 L 4.320312 30.15625 C 4.378906 28.976562 4.628906 27.410156 5.898438 26.890625 L 5.953125 26.867188 L 6 26.855469 L 6.058594 26.832031 L 6.226562 26.785156 L 6.328125 26.765625 L 6.453125 26.765625 L 6.476562 26.753906 Z M 6.863281 26.753906 Z M 6.511719 27.445312 C 5.558594 27.558594 5.273438 28.703125 5.207031 29.472656 L 5.207031 29.78125 L 5.183594 29.804688 L 5.183594 31.378906 C 5.253906 32.195312 5.308594 33.25 6.058594 33.792969 C 6.75 34.269531 7.667969 33.738281 7.859375 33 C 8.0625 32.457031 8.109375 31.921875 8.15625 31.378906 L 8.15625 29.804688 C 8.085938 28.976562 7.972656 27.820312 7.019531 27.488281 L 6.941406 27.46875 L 6.917969 27.445312 L 6.816406 27.445312 L 6.792969 27.421875 L 6.535156 27.421875 Z M 6.511719 27.445312 Z M 6.511719 27.445312 "/>
<path style=" stroke:none;fill-rule:nonzero;fill:rgb(0%,0%,0%);fill-opacity:1;" d="M 11.542969 33.488281 L 11.542969 34.394531 L 10.625 34.394531 L 10.625 33.488281 Z M 11.542969 33.488281 Z M 11.542969 33.488281 "/>
<path style=" stroke:none;fill-rule:nonzero;fill:rgb(0%,0%,0%);fill-opacity:1;" d="M 15.71875 26.753906 C 17.078125 26.898438 17.667969 28.441406 17.757812 29.621094 C 17.917969 31.152344 17.734375 32.945312 16.488281 34.042969 C 15.707031 34.824219 14.324219 34.847656 13.484375 34.144531 C 13.585938 33.953125 13.699219 33.726562 13.824219 33.566406 C 14.5625 34.28125 15.855469 34.078125 16.328125 33.160156 C 16.667969 32.601562 16.875 31.890625 16.863281 31.277344 C 16.195312 32.136719 14.71875 32.636719 13.914062 31.730469 C 13.097656 30.789062 12.949219 29.417969 13.359375 28.285156 C 13.777344 27.386719 14.675781 26.617188 15.71875 26.753906 Z M 15.71875 26.753906 Z M 15.34375 27.398438 C 14.527344 27.46875 14.105469 28.375 14.050781 29.089844 C 14.015625 29.894531 14.050781 30.835938 14.765625 31.355469 C 15.558594 31.84375 16.578125 31.253906 16.761719 30.390625 C 16.976562 29.554688 16.839844 28.65625 16.410156 27.875 C 16.171875 27.546875 15.738281 27.308594 15.34375 27.398438 Z M 15.34375 27.398438 Z M 15.34375 27.398438 "/>
<path style=" stroke:none;fill-rule:nonzero;fill:rgb(0%,0%,0%);fill-opacity:1;" d="M 7.214844 3.628906 L 7.214844 10.625 L 7.226562 10.648438 L 8.621094 10.648438 L 8.621094 11.273438 L 4.933594 11.273438 L 4.933594 10.648438 L 6.328125 10.648438 L 6.351562 10.625 L 6.351562 4.753906 C 5.875 4.910156 5.375 5.015625 4.878906 5.003906 L 4.878906 4.367188 C 5.625 4.378906 6.441406 4.175781 7.007812 3.628906 Z M 7.214844 3.628906 Z M 7.214844 3.628906 "/>
<path style=" stroke:none;fill-rule:nonzero;fill:rgb(0%,0%,0%);fill-opacity:1;" d="M 11.542969 10.367188 L 11.542969 11.273438 L 10.625 11.273438 L 10.625 10.367188 Z M 11.542969 10.367188 Z M 11.542969 10.367188 "/>
<path style=" stroke:none;fill-rule:nonzero;fill:rgb(0%,0%,0%);fill-opacity:1;" d="M 15.671875 3.628906 C 16.75 3.710938 17.464844 4.695312 17.65625 5.695312 C 17.757812 6.148438 17.78125 6.578125 17.828125 7.03125 L 17.828125 8.1875 C 17.769531 9.367188 17.484375 10.921875 16.203125 11.398438 C 15.09375 11.839844 13.789062 11.148438 13.460938 10.015625 C 13.210938 9.414062 13.1875 8.800781 13.132812 8.1875 L 13.132812 7.03125 C 13.1875 5.851562 13.4375 4.289062 14.707031 3.765625 L 14.765625 3.742188 L 14.808594 3.734375 L 14.867188 3.710938 L 15.039062 3.664062 L 15.140625 3.640625 L 15.265625 3.640625 L 15.285156 3.628906 Z M 15.671875 3.628906 Z M 15.320312 4.320312 C 14.367188 4.4375 14.085938 5.582031 14.015625 6.351562 L 14.015625 6.65625 L 13.992188 6.679688 L 13.992188 8.257812 C 14.0625 9.074219 14.117188 10.128906 14.867188 10.671875 C 15.558594 11.148438 16.476562 10.613281 16.667969 9.878906 C 16.875 9.332031 16.917969 8.800781 16.964844 8.257812 L 16.964844 6.679688 C 16.898438 5.851562 16.785156 4.695312 15.832031 4.367188 L 15.75 4.34375 L 15.730469 4.320312 L 15.625 4.320312 L 15.605469 4.300781 L 15.34375 4.300781 Z M 15.320312 4.320312 Z M 15.320312 4.320312 "/>
<path style="fill:none;stroke-width:0.02;stroke-linecap:butt;stroke-linejoin:miter;stroke:rgb(0%,0%,0%);stroke-opacity:1;stroke-miterlimit:10;" d="M 11.800003 1.42768 L 11.649935 1.42768 " transform="matrix(28.346457,0,0,-28.346457,1,256.11811)"/>
<path style="fill:none;stroke-width:0.02;stroke-linecap:butt;stroke-linejoin:miter;stroke:rgb(0%,0%,0%);stroke-opacity:1;stroke-miterlimit:10;" d="M 11.800003 2.243341 L 11.649935 2.243341 " transform="matrix(28.346457,0,0,-28.346457,1,256.11811)"/>
<path style="fill:none;stroke-width:0.02;stroke-linecap:butt;stroke-linejoin:miter;stroke:rgb(0%,0%,0%);stroke-opacity:1;stroke-miterlimit:10;" d="M 11.800003 3.05914 L 11.649935 3.05914 " transform="matrix(28.346457,0,0,-28.346457,1,256.11811)"/>
<path style="fill:none;stroke-width:0.02;stroke-linecap:butt;stroke-linejoin:miter;stroke:rgb(0%,0%,0%);stroke-opacity:1;stroke-miterlimit:10;" d="M 11.800003 3.8748 L 11.649935 3.8748 " transform="matrix(28.346457,0,0,-28.346457,1,256.11811)"/>
<path style="fill:none;stroke-width:0.02;stroke-linecap:butt;stroke-linejoin:miter;stroke:rgb(0%,0%,0%);stroke-opacity:1;stroke-miterlimit:10;" d="M 11.800003 4.690461 L 11.649935 4.690461 " transform="matrix(28.346457,0,0,-28.346457,1,256.11811)"/>
<path style="fill:none;stroke-width:0.02;stroke-linecap:butt;stroke-linejoin:miter;stroke:rgb(0%,0%,0%);stroke-opacity:1;stroke-miterlimit:10;" d="M 11.800003 5.50626 L 11.649935 5.50626 " transform="matrix(28.346457,0,0,-28.346457,1,256.11811)"/>
<path style="fill:none;stroke-width:0.02;stroke-linecap:butt;stroke-linejoin:miter;stroke:rgb(0%,0%,0%);stroke-opacity:1;stroke-miterlimit:10;" d="M 11.800003 6.321921 L 11.649935 6.321921 " transform="matrix(28.346457,0,0,-28.346457,1,256.11811)"/>
<path style="fill:none;stroke-width:0.02;stroke-linecap:butt;stroke-linejoin:miter;stroke:rgb(0%,0%,0%);stroke-opacity:1;stroke-miterlimit:10;" d="M 11.800003 7.137581 L 11.649935 7.137581 " transform="matrix(28.346457,0,0,-28.346457,1,256.11811)"/>
<path style="fill:none;stroke-width:0.02;stroke-linecap:butt;stroke-linejoin:miter;stroke:rgb(0%,0%,0%);stroke-opacity:1;stroke-miterlimit:10;" d="M 11.800003 7.953242 L 11.649935 7.953242 " transform="matrix(28.346457,0,0,-28.346457,1,256.11811)"/>
<path style="fill:none;stroke-width:0.02;stroke-linecap:round;stroke-linejoin:miter;stroke:rgb(0%,0%,0%);stroke-opacity:1;stroke-miterlimit:10;" d="M 11.800003 0.612019 L 11.800003 8.769041 " transform="matrix(28.346457,0,0,-28.346457,1,256.11811)"/>
<path style="fill:none;stroke-width:0.02;stroke-linecap:butt;stroke-linejoin:miter;stroke:rgb(0%,0%,0%);stroke-opacity:1;stroke-miterlimit:10;" d="M 2.684005 0.612019 L 2.684005 0.76195 " transform="matrix(28.346457,0,0,-28.346457,1,256.11811)"/>
<path style="fill:none;stroke-width:0.02;stroke-linecap:butt;stroke-linejoin:miter;stroke:rgb(0%,0%,0%);stroke-opacity:1;stroke-miterlimit:10;" d="M 4.50715 0.612019 L 4.50715 0.76195 " transform="matrix(28.346457,0,0,-28.346457,1,256.11811)"/>
<path style="fill:none;stroke-width:0.02;stroke-linecap:butt;stroke-linejoin:miter;stroke:rgb(0%,0%,0%);stroke-opacity:1;stroke-miterlimit:10;" d="M 6.330432 0.612019 L 6.330432 0.76195 " transform="matrix(28.346457,0,0,-28.346457,1,256.11811)"/>
<path style="fill:none;stroke-width:0.02;stroke-linecap:butt;stroke-linejoin:miter;stroke:rgb(0%,0%,0%);stroke-opacity:1;stroke-miterlimit:10;" d="M 8.153576 0.612019 L 8.153576 0.76195 " transform="matrix(28.346457,0,0,-28.346457,1,256.11811)"/>
<path style="fill:none;stroke-width:0.02;stroke-linecap:butt;stroke-linejoin:miter;stroke:rgb(0%,0%,0%);stroke-opacity:1;stroke-miterlimit:10;" d="M 9.976859 0.612019 L 9.976859 0.76195 " transform="matrix(28.346457,0,0,-28.346457,1,256.11811)"/>
<path style="fill:none;stroke-width:0.02;stroke-linecap:round;stroke-linejoin:miter;stroke:rgb(0%,0%,0%);stroke-opacity:1;stroke-miterlimit:10;" d="M 0.86086 0.612019 L 11.800003 0.612019 " transform="matrix(28.346457,0,0,-28.346457,1,256.11811)"/>
<path style=" stroke:none;fill-rule:nonzero;fill:rgb(0%,0%,0%);fill-opacity:1;" d="M 23.785156 250.484375 L 23.785156 251.117188 L 20.8125 251.117188 L 20.8125 250.484375 Z M 23.785156 250.484375 Z M 23.785156 250.484375 "/>
<path style=" stroke:none;fill-rule:nonzero;fill:rgb(0%,0%,0%);fill-opacity:1;" d="M 27.503906 245.652344 C 28.5 245.699219 29.542969 246.617188 29.308594 247.671875 C 29.195312 248.386719 28.695312 248.976562 28.070312 249.292969 C 29.078125 249.609375 29.863281 250.675781 29.589844 251.730469 C 29.316406 253.101562 27.742188 253.863281 26.472656 253.441406 C 25.859375 253.261719 25.234375 252.875 24.941406 252.308594 C 25.007812 252.136719 24.988281 251.84375 25.066406 251.730469 C 25.667969 252.613281 26.9375 253.214844 27.933594 252.714844 C 29.023438 252.023438 28.851562 250.007812 27.539062 249.667969 L 27.4375 249.667969 L 27.414062 249.644531 L 26.359375 249.644531 L 26.359375 248.964844 C 27.003906 248.953125 27.808594 248.871094 28.171875 248.203125 C 28.558594 247.625 28.523438 246.671875 27.789062 246.390625 C 26.914062 246.050781 25.835938 246.605469 25.507812 247.488281 C 25.371094 247.296875 25.234375 247.105469 25.101562 246.898438 C 25.566406 246.0625 26.550781 245.5625 27.503906 245.652344 Z M 27.503906 245.652344 Z M 27.503906 245.652344 "/>
<path style=" stroke:none;fill-rule:nonzero;fill:rgb(0%,0%,0%);fill-opacity:1;" d="M 75.464844 250.484375 L 75.464844 251.117188 L 72.496094 251.117188 L 72.496094 250.484375 Z M 75.464844 250.484375 Z M 75.464844 250.484375 "/>
<path style=" stroke:none;fill-rule:nonzero;fill:rgb(0%,0%,0%);fill-opacity:1;" d="M 79.039062 245.652344 C 80.351562 245.6875 81.394531 247.035156 81.191406 248.304688 C 81.054688 249.574219 79.867188 250.300781 79.015625 251.09375 L 78.652344 251.46875 L 78.605469 251.492188 L 78.152344 251.933594 L 78.121094 251.957031 L 77.664062 252.410156 L 77.621094 252.433594 L 77.519531 252.535156 L 77.542969 252.546875 L 81.214844 252.546875 L 81.214844 253.292969 L 76.726562 253.292969 L 76.726562 252.613281 L 78.550781 250.789062 C 79.421875 250.027344 80.445312 249.042969 80.285156 247.796875 C 80.195312 247.070312 79.582031 246.402344 78.832031 246.34375 C 78.074219 246.230469 77.40625 246.832031 77.234375 247.558594 L 77.210938 247.589844 L 77.191406 247.671875 L 77.085938 248.046875 L 77.078125 248.101562 C 76.917969 247.910156 76.746094 247.703125 76.621094 247.488281 C 76.847656 246.558594 77.597656 245.6875 78.585938 245.652344 Z M 79.039062 245.652344 Z M 79.039062 245.652344 "/>
<path style=" stroke:none;fill-rule:nonzero;fill:rgb(0%,0%,0%);fill-opacity:1;" d="M 127.148438 250.484375 L 127.148438 251.117188 L 124.175781 251.117188 L 124.175781 250.484375 Z M 127.148438 250.484375 Z M 127.148438 250.484375 "/>
<path style=" stroke:none;fill-rule:nonzero;fill:rgb(0%,0%,0%);fill-opacity:1;" d="M 131.195312 245.652344 L 131.195312 252.648438 L 131.207031 252.671875 L 132.601562 252.671875 L 132.601562 253.292969 L 128.917969 253.292969 L 128.917969 252.671875 L 130.3125 252.671875 L 130.332031 252.648438 L 130.332031 246.773438 C 129.855469 246.933594 129.359375 247.035156 128.859375 247.023438 L 128.859375 246.390625 C 129.609375 246.402344 130.425781 246.195312 130.992188 245.652344 Z M 131.195312 245.652344 Z M 131.195312 245.652344 "/>
<path style=" stroke:none;fill-rule:nonzero;fill:rgb(0%,0%,0%);fill-opacity:1;" d="M 180.636719 245.652344 C 181.714844 245.730469 182.429688 246.71875 182.621094 247.714844 C 182.722656 248.167969 182.746094 248.601562 182.792969 249.054688 L 182.792969 250.210938 C 182.734375 251.390625 182.453125 252.941406 181.171875 253.417969 C 180.058594 253.863281 178.753906 253.171875 178.425781 252.035156 C 178.175781 251.433594 178.152344 250.824219 178.097656 250.210938 L 178.097656 249.054688 C 178.152344 247.875 178.402344 246.308594 179.671875 245.789062 L 179.730469 245.765625 L 179.777344 245.753906 L 179.832031 245.730469 L 180.003906 245.6875 L 180.105469 245.664062 L 180.230469 245.664062 L 180.25 245.652344 Z M 180.636719 245.652344 Z M 180.285156 246.34375 C 179.332031 246.457031 179.050781 247.601562 178.980469 248.375 L 178.980469 248.679688 L 178.960938 248.703125 L 178.960938 250.277344 C 179.027344 251.09375 179.082031 252.148438 179.832031 252.695312 C 180.523438 253.171875 181.441406 252.636719 181.636719 251.898438 C 181.839844 251.355469 181.882812 250.824219 181.929688 250.277344 L 181.929688 248.703125 C 181.863281 247.875 181.75 246.71875 180.796875 246.390625 L 180.714844 246.367188 L 180.695312 246.34375 L 180.59375 246.34375 L 180.570312 246.320312 L 180.308594 246.320312 Z M 180.285156 246.34375 Z M 180.285156 246.34375 "/>
<path style=" stroke:none;fill-rule:nonzero;fill:rgb(0%,0%,0%);fill-opacity:1;" d="M 232.667969 245.652344 L 232.667969 252.648438 L 232.679688 252.671875 L 234.074219 252.671875 L 234.074219 253.292969 L 230.390625 253.292969 L 230.390625 252.671875 L 231.785156 252.671875 L 231.808594 252.648438 L 231.808594 246.773438 C 231.332031 246.933594 230.832031 247.035156 230.335938 247.023438 L 230.335938 246.390625 C 231.082031 246.402344 231.898438 246.195312 232.464844 245.652344 Z M 232.667969 245.652344 Z M 232.667969 245.652344 "/>
<path style=" stroke:none;fill-rule:nonzero;fill:rgb(0%,0%,0%);fill-opacity:1;" d="M 283.875 245.652344 C 285.191406 245.6875 286.234375 247.035156 286.027344 248.304688 C 285.894531 249.574219 284.703125 250.300781 283.851562 251.09375 L 283.488281 251.46875 L 283.445312 251.492188 L 282.992188 251.933594 L 282.957031 251.957031 L 282.503906 252.410156 L 282.457031 252.433594 L 282.355469 252.535156 L 282.378906 252.546875 L 286.050781 252.546875 L 286.050781 253.292969 L 281.5625 253.292969 L 281.5625 252.613281 L 283.386719 250.789062 C 284.261719 250.027344 285.28125 249.042969 285.121094 247.796875 C 285.03125 247.070312 284.417969 246.402344 283.671875 246.34375 C 282.910156 246.230469 282.242188 246.832031 282.070312 247.558594 L 282.050781 247.589844 L 282.027344 247.671875 L 281.992188 247.796875 L 281.925781 248.046875 L 281.914062 248.101562 C 281.753906 247.910156 281.585938 247.703125 281.460938 247.488281 C 281.6875 246.558594 282.433594 245.6875 283.421875 245.652344 Z M 283.875 245.652344 Z M 283.875 245.652344 "/>
<path style=" stroke:none;fill-rule:nonzero;fill:rgb(0%,0%,0%);fill-opacity:1;" d="M 335.703125 245.652344 C 336.703125 245.699219 337.746094 246.617188 337.507812 247.671875 C 337.394531 248.386719 336.894531 248.976562 336.269531 249.292969 C 337.28125 249.609375 338.0625 250.675781 337.789062 251.730469 C 337.519531 253.101562 335.941406 253.863281 334.671875 253.441406 C 334.058594 253.261719 333.4375 252.875 333.140625 252.308594 C 333.210938 252.136719 333.1875 251.84375 333.265625 251.730469 C 333.867188 252.613281 335.136719 253.214844 336.132812 252.714844 C 337.222656 252.023438 337.054688 250.007812 335.738281 249.667969 L 335.636719 249.667969 L 335.613281 249.644531 L 334.558594 249.644531 L 334.558594 248.964844 C 335.203125 248.953125 336.007812 248.871094 336.371094 248.203125 C 336.757812 247.625 336.722656 246.671875 335.988281 246.390625 C 335.113281 246.050781 334.035156 246.605469 333.707031 247.488281 C 333.570312 247.296875 333.4375 247.105469 333.300781 246.898438 C 333.765625 246.0625 334.75 245.5625 335.703125 245.652344 Z M 335.703125 245.652344 Z M 335.703125 245.652344 "/>
<path style="fill:none;stroke-width:0.02;stroke-linecap:butt;stroke-linejoin:miter;stroke:rgb(0%,0%,0%);stroke-opacity:1;stroke-miterlimit:10;" d="M 2.684005 8.769041 L 2.684005 8.618972 " transform="matrix(28.346457,0,0,-28.346457,1,256.11811)"/>
<path style="fill:none;stroke-width:0.02;stroke-linecap:butt;stroke-linejoin:miter;stroke:rgb(0%,0%,0%);stroke-opacity:1;stroke-miterlimit:10;" d="M 4.50715 8.769041 L 4.50715 8.618972 " transform="matrix(28.346457,0,0,-28.346457,1,256.11811)"/>
<path style="fill:none;stroke-width:0.02;stroke-linecap:butt;stroke-linejoin:miter;stroke:rgb(0%,0%,0%);stroke-opacity:1;stroke-miterlimit:10;" d="M 6.330432 8.769041 L 6.330432 8.618972 " transform="matrix(28.346457,0,0,-28.346457,1,256.11811)"/>
<path style="fill:none;stroke-width:0.02;stroke-linecap:butt;stroke-linejoin:miter;stroke:rgb(0%,0%,0%);stroke-opacity:1;stroke-miterlimit:10;" d="M 8.153576 8.769041 L 8.153576 8.618972 " transform="matrix(28.346457,0,0,-28.346457,1,256.11811)"/>
<path style="fill:none;stroke-width:0.02;stroke-linecap:butt;stroke-linejoin:miter;stroke:rgb(0%,0%,0%);stroke-opacity:1;stroke-miterlimit:10;" d="M 9.976859 8.769041 L 9.976859 8.618972 " transform="matrix(28.346457,0,0,-28.346457,1,256.11811)"/>
<path style="fill:none;stroke-width:0.02;stroke-linecap:round;stroke-linejoin:miter;stroke:rgb(0%,0%,0%);stroke-opacity:1;stroke-miterlimit:10;" d="M 0.86086 8.769041 L 11.800003 8.769041 " transform="matrix(28.346457,0,0,-28.346457,1,256.11811)"/>
<path style="fill:none;stroke-width:0.05;stroke-linecap:butt;stroke-linejoin:miter;stroke:rgb(33%,47%,64%);stroke-opacity:1;stroke-miterlimit:10;" d="M 0.86086 0.612984 L 0.904682 0.613122 L 0.948641 0.613397 L 0.992601 0.613535 L 1.08052 0.614086 L 1.124341 0.614362 L 1.168301 0.614638 L 1.25622 0.615464 L 1.300179 0.616016 L 1.344001 0.616567 L 1.431919 0.617945 L 1.475879 0.618772 L 1.519838 0.619736 L 1.56366 0.620701 L 1.607619 0.621941 L 1.695538 0.624697 L 1.739498 0.626351 L 1.783319 0.62828 L 1.827279 0.630347 L 1.871238 0.632552 L 1.915197 0.63517 L 1.959157 0.638064 L 2.002979 0.641234 L 2.046938 0.644679 L 2.090897 0.648537 L 2.134857 0.652947 L 2.178816 0.657632 L 2.222776 0.662869 L 2.266597 0.668794 L 2.310557 0.675133 L 2.354516 0.682161 L 2.398475 0.689878 L 2.442435 0.698422 L 2.486257 0.707655 L 2.530216 0.717853 L 2.574175 0.729015 L 2.618135 0.741141 L 2.662094 0.754371 L 2.705916 0.768702 L 2.749875 0.784412 L 2.793835 0.801362 L 2.837794 0.819827 L 2.881753 0.839809 L 2.925575 0.861444 L 2.969535 0.884733 L 3.013494 0.909951 L 3.057453 0.937099 L 3.101413 0.966175 L 3.145234 0.997594 L 3.189194 1.031219 L 3.233153 1.067185 L 3.277113 1.10577 L 3.321072 1.146974 L 3.364894 1.190933 L 3.408853 1.237786 L 3.452812 1.287534 L 3.496772 1.340588 L 3.540731 1.396812 L 3.584553 1.456343 L 3.628512 1.51932 L 3.672472 1.586017 L 3.716431 1.656297 L 3.760391 1.730297 L 3.804212 1.808156 L 3.848172 1.890012 L 3.892131 1.976002 L 3.93609 2.06585 L 3.98005 2.15997 L 4.024009 2.258224 L 4.067831 2.36075 L 4.11179 2.46741 L 4.15575 2.578342 L 4.199709 2.693408 L 4.243669 2.812746 L 4.28749 2.936219 L 4.33145 3.063825 L 4.375409 3.19529 L 4.419368 3.330751 L 4.463328 3.469933 L 4.50715 3.612835 L 4.551109 3.759183 L 4.595068 3.9087 L 4.639028 4.061525 L 4.682987 4.217105 L 4.726809 4.375442 L 4.770768 4.536121 L 4.814728 4.698867 L 4.858687 4.863405 L 4.902646 5.029459 L 4.946468 5.196752 L 4.990428 5.364873 L 5.034387 5.533269 L 5.078346 5.701941 L 5.122306 5.870062 L 5.166127 6.037631 L 5.210087 6.203961 L 5.254046 6.368636 L 5.298006 6.531245 L 5.341965 6.69151 L 5.385787 6.848882 L 5.429746 7.002809 L 5.473706 7.153015 L 5.517665 7.29895 L 5.561624 7.440199 L 5.605446 7.576349 L 5.649405 7.706849 L 5.693365 7.831561 L 5.737324 7.949935 L 5.781284 8.061556 L 5.825243 8.166011 L 5.869065 8.263163 L 5.913024 8.352598 L 5.956984 8.433902 L 6.000943 8.506938 L 6.044902 8.571292 L 6.088724 8.626965 L 6.132683 8.673681 L 6.176643 8.711163 L 6.220602 8.739413 L 6.264562 8.758292 L 6.308383 8.767801 L 6.352343 8.767801 L 6.396302 8.758292 L 6.440262 8.739413 L 6.484221 8.711163 L 6.528043 8.673681 L 6.572002 8.626965 L 6.615961 8.571292 L 6.659921 8.506938 L 6.70388 8.433902 L 6.747702 8.352598 L 6.791661 8.263163 L 6.835621 8.166011 L 6.87958 8.061556 L 6.923539 7.949935 L 6.967361 7.831561 L 7.011321 7.706849 L 7.05528 7.576349 L 7.099239 7.440199 L 7.143199 7.29895 L 7.18702 7.153015 L 7.23098 7.002809 L 7.274939 6.848882 L 7.318899 6.69151 L 7.362858 6.531245 L 7.40668 6.368636 L 7.450639 6.203961 L 7.494599 6.037631 L 7.538558 5.870062 L 7.582517 5.701941 L 7.626477 5.533269 L 7.670298 5.364873 L 7.714258 5.196752 L 7.758217 5.029459 L 7.802177 4.863405 L 7.846136 4.698867 L 7.889958 4.536121 L 7.933917 4.375442 L 7.977877 4.217105 L 8.021836 4.061525 L 8.065795 3.9087 L 8.109617 3.759183 L 8.153576 3.612835 L 8.197536 3.469933 L 8.241495 3.330751 L 8.285455 3.19529 L 8.329276 3.063825 L 8.373236 2.936219 L 8.417195 2.812746 L 8.461155 2.693408 L 8.505114 2.578342 L 8.548936 2.46741 L 8.592895 2.36075 L 8.636854 2.258224 L 8.680814 2.15997 L 8.724773 2.06585 L 8.768595 1.976002 L 8.812554 1.890012 L 8.856514 1.808156 L 8.900473 1.730297 L 8.944433 1.656297 L 8.988254 1.586017 L 9.032214 1.51932 L 9.076173 1.456343 L 9.120132 1.396812 L 9.164092 1.340588 L 9.207913 1.287534 L 9.251873 1.237786 L 9.295832 1.190933 L 9.339792 1.146974 L 9.383751 1.10577 L 9.427711 1.067185 L 9.471532 1.031219 L 9.515492 0.997594 L 9.559451 0.966175 L 9.60341 0.937099 L 9.64737 0.909951 L 9.691191 0.884733 L 9.735151 0.861444 L 9.77911 0.839809 L 9.82307 0.819827 L 9.867029 0.801362 L 9.910851 0.784412 L 9.95481 0.768702 L 9.99877 0.754371 L 10.042729 0.741141 L 10.086688 0.729015 L 10.13051 0.717853 L 10.174469 0.707655 L 10.218429 0.698422 L 10.262388 0.689878 L 10.306348 0.682161 L 10.350169 0.675133 L 10.394129 0.668794 L 10.438088 0.662869 L 10.482048 0.657632 L 10.526007 0.652947 L 10.569829 0.648537 L 10.613788 0.644679 L 10.657747 0.641234 L 10.701707 0.638064 L 10.745666 0.63517 L 10.789488 0.632552 L 10.833447 0.630347 L 10.877407 0.62828 L 10.921366 0.626351 L 10.965326 0.624697 L 11.009147 0.623319 L 11.053107 0.621941 L 11.097066 0.620701 L 11.184985 0.618772 L 11.228944 0.617945 L 11.272766 0.617256 L 11.316725 0.616567 L 11.404644 0.615464 L 11.448604 0.615051 L 11.492425 0.614638 L 11.668263 0.613535 L 11.712084 0.613397 L 11.756044 0.613122 L 11.800003 0.612984 " transform="matrix(28.346457,0,0,-28.346457,1,256.11811)"/>
<path style="fill:none;stroke-width:0.05;stroke-linecap:butt;stroke-linejoin:miter;stroke:rgb(90%,57%,26%);stroke-opacity:1;stroke-miterlimit:10;" d="M 0.86086 0.612019 L 0.898067 0.667554 L 0.935275 0.722951 L 1.009689 0.834021 L 1.046896 0.889418 L 1.12131 1.000488 L 1.158517 1.055885 L 1.232931 1.166955 L 1.270138 1.222352 L 1.344552 1.333422 L 1.381759 1.388819 L 1.456173 1.499889 L 1.49338 1.555286 L 1.567794 1.666356 L 1.605001 1.721753 L 1.679415 1.832823 L 1.716622 1.88822 L 1.791036 1.99929 L 1.828243 2.054688 L 1.902657 2.165757 L 1.939864 2.221155 L 2.014278 2.332224 L 2.051485 2.387622 L 2.1259 2.498691 L 2.163107 2.554089 L 2.237521 2.665158 L 2.274728 2.720556 L 2.349142 2.831625 L 2.386349 2.887023 L 2.460763 2.998092 L 2.49797 3.05349 L 2.572384 3.164559 L 2.609591 3.219957 L 2.684005 3.331026 L 2.721212 3.386424 L 2.795626 3.497493 L 2.832833 3.552891 L 2.944454 3.719495 L 2.981661 3.774893 L 3.056075 3.885962 L 3.093282 3.94136 L 3.167696 4.052429 L 3.204903 4.107827 L 3.279317 4.218896 L 3.316525 4.274294 L 3.390939 4.385363 L 3.428146 4.440761 L 3.50256 4.551831 L 3.539767 4.607228 L 3.614181 4.718298 L 3.651388 4.773695 L 3.725802 4.884765 L 3.763009 4.940162 L 3.837423 5.051232 L 3.87463 5.106629 L 3.949044 5.217699 L 3.986251 5.273096 L 4.060665 5.384166 L 4.097872 5.439563 L 4.172286 5.550633 L 4.209493 5.60603 L 4.283907 5.7171 L 4.321114 5.772497 L 4.395528 5.883567 L 4.432735 5.938964 L 4.50715 6.050034 L 4.544357 6.105431 L 4.618771 6.216501 L 4.655978 6.271898 L 4.730392 6.382968 L 4.767599 6.438365 L 4.842013 6.549435 L 4.87922 6.604832 L 4.953634 6.715902 L 4.990841 6.771299 L 5.102462 6.937904 L 5.139807 6.993301 L 5.214221 7.104371 L 5.251428 7.159768 L 5.325842 7.270838 L 5.363049 7.326235 L 5.437463 7.437305 L 5.47467 7.492702 L 5.549084 7.603772 L 5.586291 7.659169 L 5.660705 7.770239 L 5.697912 7.825636 L 5.772326 7.936706 L 5.809533 7.992103 L 5.883947 8.103173 L 5.921155 8.15857 L 5.995569 8.26964 L 6.032776 8.325037 L 6.10719 8.436107 L 6.144397 8.491504 L 6.218811 8.602574 L 6.256018 8.648738 L 6.293225 8.676574 L 6.330432 8.685807 L 6.367639 8.676574 L 6.404846 8.648738 L 6.442053 8.602574 L 6.516467 8.491504 L 6.553674 8.436107 L 6.628088 8.325037 L 6.665295 8.26964 L 6.739709 8.15857 L 6.776916 8.103173 L 6.85133 7.992103 L 6.888537 7.936706 L 6.962951 7.825636 L 7.000158 7.770239 L 7.074572 7.659169 L 7.11178 7.603772 L 7.186194 7.492702 L 7.223401 7.437305 L 7.297815 7.326235 L 7.335022 7.270838 L 7.409436 7.159768 L 7.446643 7.104371 L 7.521057 6.993301 L 7.558264 6.937904 L 7.669885 6.771299 L 7.707092 6.715902 L 7.781506 6.604832 L 7.818713 6.549435 L 7.893127 6.438365 L 7.930334 6.382968 L 8.004748 6.271898 L 8.041955 6.216501 L 8.116369 6.105431 L 8.153576 6.050034 L 8.22799 5.938964 L 8.265197 5.883567 L 8.339612 5.772497 L 8.376819 5.7171 L 8.451233 5.60603 L 8.48844 5.550633 L 8.562854 5.439563 L 8.600061 5.384166 L 8.674475 5.273096 L 8.711682 5.217699 L 8.786096 5.106629 L 8.823303 5.051232 L 8.897717 4.940162 L 8.934924 4.884765 L 9.009338 4.773695 L 9.046545 4.718298 L 9.120959 4.607228 L 9.158166 4.551831 L 9.23258 4.440761 L 9.269787 4.385363 L 9.344201 4.274294 L 9.381408 4.218896 L 9.455822 4.107827 L 9.49303 4.052429 L 9.567444 3.94136 L 9.604651 3.885962 L 9.641858 3.830428 L 9.679202 3.774893 L 9.71641 3.719495 L 9.828031 3.552891 L 9.865238 3.497493 L 9.939652 3.386424 L 9.976859 3.331026 L 10.051273 3.219957 L 10.08848 3.164559 L 10.162894 3.05349 L 10.200101 2.998092 L 10.274515 2.887023 L 10.311722 2.831625 L 10.386136 2.720556 L 10.423343 2.665158 L 10.497757 2.554089 L 10.534964 2.498691 L 10.609378 2.387622 L 10.646585 2.332224 L 10.720999 2.221155 L 10.758206 2.165757 L 10.83262 2.054688 L 10.869827 1.99929 L 10.944242 1.88822 L 10.981449 1.832823 L 11.055863 1.721753 L 11.09307 1.666356 L 11.167484 1.555286 L 11.204691 1.499889 L 11.279105 1.388819 L 11.316312 1.333422 L 11.390726 1.222352 L 11.427933 1.166955 L 11.502347 1.055885 L 11.539554 1.000488 L 11.613968 0.889418 L 11.651175 0.834021 L 11.725589 0.722951 L 11.762796 0.667554 L 11.800003 0.612019 " transform="matrix(28.346457,0,0,-28.346457,1,256.11811)"/>
</g>
</svg>
