<?xml version="1.0" encoding="UTF-8"?>
<svg xmlns="http://www.w3.org/2000/svg" xmlns:xlink="http://www.w3.org/1999/xlink" width="342.15748pt" height="257.11811pt" viewBox="0 0 342.15748 257.11811" version="1.1">
<g id="surface1">
<path style="fill:none;stroke-width:0.02;stroke-linecap:butt;stroke-linejoin:miter;stroke:rgb(0%,0%,0%);stroke-opacity:1;stroke-miterlimit:10;" d="M 0.993979 1.971454 L 1.144047 1.971454 " transform="matrix(28.346457,0,0,-28.346457,1,256.11811)"/>
<path style="fill:none;stroke-width:0.02;stroke-linecap:butt;stroke-linejoin:miter;stroke:rgb(0%,0%,0%);stroke-opacity:1;stroke-miterlimit:10;" d="M 0.993979 3.331026 L 1.144047 3.331026 " transform="matrix(28.346457,0,0,-28.346457,1,256.11811)"/>
<path style="fill:none;stroke-width:0.02;stroke-linecap:butt;stroke-linejoin:miter;stroke:rgb(0%,0%,0%);stroke-opacity:1;stroke-miterlimit:10;" d="M 0.993979 4.690461 L 1.144047 4.690461 " transform="matrix(28.346457,0,0,-28.346457,1,256.11811)"/>
<path style="fill:none;stroke-width:0.02;stroke-linecap:butt;stroke-linejoin:miter;stroke:rgb(0%,0%,0%);stroke-opacity:1;stroke-miterlimit:10;" d="M 0.993979 6.050034 L 1.144047 6.050034 " transform="matrix(28.346457,0,0,-28.346457,1,256.11811)"/>
<path style="fill:none;stroke-width:0.02;stroke-linecap:butt;stroke-linejoin:miter;stroke:rgb(0%,0%,0%);stroke-opacity:1;stroke-miterlimit:10;" d="M 0.993979 7.409468 L 1.144047 7.409468 " transform="matrix(28.346457,0,0,-28.346457,1,256.11811)"/>
<path style="fill:none;stroke-width:0.02;stroke-linecap:round;stroke-linejoin:miter;stroke:rgb(0%,0%,0%);stroke-opacity:1;stroke-miterlimit:10;" d="M 0.993979 0.612019 L 0.993979 8.769041 " transform="matrix(28.346457,0,0,-28.346457,1,256.11811)"/>
<path style=" stroke:none;fill-rule:nonzero;fill:rgb(0%,0%,0%);fill-opacity:1;" d="M 6.941406 239.683594 L 6.941406 240.316406 L 3.972656 240.316406 L 3.972656 239.683594 Z M 6.941406 239.683594 Z M 6.941406 239.683594 "/>
<path style=" stroke:none;fill-rule:nonzero;fill:rgb(0%,0%,0%);fill-opacity:1;" d="M 10.636719 234.851562 C 11.714844 234.933594 12.429688 235.917969 12.621094 236.917969 C 12.722656 237.371094 12.746094 237.800781 12.792969 238.253906 L 12.792969 239.410156 C 12.734375 240.589844 12.453125 242.144531 11.171875 242.621094 C 10.058594 243.0625 8.753906 242.371094 8.425781 241.234375 C 8.175781 240.636719 8.15625 240.023438 8.097656 239.410156 L 8.097656 238.253906 C 8.15625 237.074219 8.402344 235.511719 9.675781 234.988281 L 9.730469 234.964844 L 9.777344 234.953125 L 9.832031 234.933594 L 10.003906 234.886719 L 10.105469 234.863281 L 10.230469 234.863281 L 10.253906 234.851562 Z M 10.636719 234.851562 Z M 10.285156 235.542969 C 9.332031 235.65625 9.050781 236.804688 8.980469 237.574219 L 8.980469 237.878906 L 8.960938 237.902344 L 8.960938 239.480469 C 9.027344 240.296875 9.085938 241.347656 9.832031 241.894531 C 10.523438 242.371094 11.441406 241.835938 11.636719 241.101562 C 11.839844 240.554688 11.886719 240.023438 11.929688 239.480469 L 11.929688 237.902344 C 11.863281 237.074219 11.75 235.917969 10.796875 235.589844 L 10.71875 235.566406 L 10.695312 235.542969 L 10.59375 235.542969 L 10.570312 235.523438 L 10.308594 235.523438 Z M 10.285156 235.542969 Z M 10.285156 235.542969 "/>
<path style=" stroke:none;fill-rule:nonzero;fill:rgb(0%,0%,0%);fill-opacity:1;" d="M 15.320312 241.585938 L 15.320312 242.496094 L 14.402344 242.496094 L 14.402344 241.585938 Z M 15.320312 241.585938 Z M 15.320312 241.585938 "/>
<path style=" stroke:none;fill-rule:nonzero;fill:rgb(0%,0%,0%);fill-opacity:1;" d="M 19.324219 234.851562 C 20.636719 234.886719 21.679688 236.234375 21.476562 237.503906 C 21.339844 238.777344 20.152344 239.5 19.300781 240.296875 L 18.9375 240.667969 L 18.890625 240.691406 L 18.4375 241.132812 L 18.40625 241.15625 L 17.953125 241.609375 L 17.90625 241.632812 L 17.804688 241.734375 L 17.828125 241.746094 L 21.5 241.746094 L 21.5 242.496094 L 17.011719 242.496094 L 17.011719 241.816406 L 18.835938 239.988281 C 19.707031 239.230469 20.730469 238.242188 20.570312 236.996094 C 20.480469 236.269531 19.867188 235.601562 19.117188 235.542969 C 18.359375 235.429688 17.691406 236.03125 17.519531 236.757812 L 17.496094 236.792969 L 17.476562 236.871094 L 17.371094 237.246094 L 17.363281 237.300781 C 17.203125 237.109375 17.03125 236.90625 16.90625 236.6875 C 17.136719 235.757812 17.882812 234.886719 18.871094 234.851562 Z M 19.324219 234.851562 Z M 19.324219 234.851562 "/>
<path style=" stroke:none;fill-rule:nonzero;fill:rgb(0%,0%,0%);fill-opacity:1;" d="M 10.636719 196.316406 C 11.714844 196.394531 12.429688 197.382812 12.621094 198.378906 C 12.722656 198.832031 12.746094 199.261719 12.792969 199.71875 L 12.792969 200.875 C 12.734375 202.054688 12.453125 203.605469 11.171875 204.082031 C 10.058594 204.523438 8.753906 203.832031 8.425781 202.699219 C 8.175781 202.097656 8.15625 201.484375 8.097656 200.875 L 8.097656 199.71875 C 8.15625 198.539062 8.402344 196.972656 9.675781 196.453125 L 9.730469 196.429688 L 9.777344 196.417969 L 9.832031 196.394531 L 10.003906 196.347656 L 10.105469 196.328125 L 10.230469 196.328125 L 10.253906 196.316406 Z M 10.636719 196.316406 Z M 10.285156 197.007812 C 9.332031 197.121094 9.050781 198.265625 8.980469 199.035156 L 8.980469 199.34375 L 8.960938 199.367188 L 8.960938 200.941406 C 9.027344 201.757812 9.085938 202.8125 9.832031 203.355469 C 10.523438 203.832031 11.441406 203.300781 11.636719 202.5625 C 11.839844 202.019531 11.886719 201.484375 11.929688 200.941406 L 11.929688 199.367188 C 11.863281 198.539062 11.75 197.382812 10.796875 197.050781 L 10.71875 197.03125 L 10.695312 197.007812 L 10.59375 197.007812 L 10.570312 196.984375 L 10.308594 196.984375 Z M 10.285156 197.007812 Z M 10.285156 197.007812 "/>
<path style=" stroke:none;fill-rule:nonzero;fill:rgb(0%,0%,0%);fill-opacity:1;" d="M 15.320312 203.050781 L 15.320312 203.957031 L 14.402344 203.957031 L 14.402344 203.050781 Z M 15.320312 203.050781 Z M 15.320312 203.050781 "/>
<path style=" stroke:none;fill-rule:nonzero;fill:rgb(0%,0%,0%);fill-opacity:1;" d="M 19.449219 196.316406 C 20.523438 196.394531 21.238281 197.382812 21.433594 198.378906 C 21.535156 198.832031 21.558594 199.261719 21.601562 199.71875 L 21.601562 200.875 C 21.546875 202.054688 21.261719 203.605469 19.980469 204.082031 C 18.871094 204.523438 17.566406 203.832031 17.238281 202.699219 C 16.988281 202.097656 16.964844 201.484375 16.90625 200.875 L 16.90625 199.71875 C 16.964844 198.539062 17.214844 196.972656 18.484375 196.453125 L 18.539062 196.429688 L 18.585938 196.417969 L 18.644531 196.394531 L 18.8125 196.347656 L 18.914062 196.328125 L 19.039062 196.328125 L 19.0625 196.316406 Z M 19.449219 196.316406 Z M 19.097656 197.007812 C 18.144531 197.121094 17.859375 198.265625 17.792969 199.035156 L 17.792969 199.34375 L 17.769531 199.367188 L 17.769531 200.941406 C 17.835938 201.757812 17.894531 202.8125 18.644531 203.355469 C 19.335938 203.832031 20.253906 203.300781 20.445312 202.5625 C 20.648438 202.019531 20.695312 201.484375 20.742188 200.941406 L 20.742188 199.367188 C 20.671875 198.539062 20.558594 197.382812 19.605469 197.050781 L 19.527344 197.03125 L 19.503906 197.007812 L 19.402344 197.007812 L 19.378906 196.984375 L 19.117188 196.984375 Z M 19.097656 197.007812 Z M 19.097656 197.007812 "/>
<path style=" stroke:none;fill-rule:nonzero;fill:rgb(0%,0%,0%);fill-opacity:1;" d="M 10.636719 157.777344 C 11.714844 157.859375 12.429688 158.84375 12.621094 159.84375 C 12.722656 160.296875 12.746094 160.726562 12.792969 161.179688 L 12.792969 162.335938 C 12.734375 163.515625 12.453125 165.070312 11.171875 165.546875 C 10.058594 165.988281 8.753906 165.296875 8.425781 164.164062 C 8.175781 163.5625 8.15625 162.949219 8.097656 162.335938 L 8.097656 161.179688 C 8.15625 160 8.402344 158.4375 9.675781 157.914062 L 9.730469 157.890625 L 9.777344 157.878906 L 9.832031 157.859375 L 10.003906 157.8125 L 10.105469 157.789062 L 10.230469 157.789062 L 10.253906 157.777344 Z M 10.636719 157.777344 Z M 10.285156 158.46875 C 9.332031 158.582031 9.050781 159.730469 8.980469 160.5 L 8.980469 160.804688 L 8.960938 160.828125 L 8.960938 162.40625 C 9.027344 163.222656 9.085938 164.277344 9.832031 164.820312 C 10.523438 165.296875 11.441406 164.761719 11.636719 164.027344 C 11.839844 163.480469 11.886719 162.949219 11.929688 162.40625 L 11.929688 160.828125 C 11.863281 160 11.75 158.84375 10.796875 158.515625 L 10.71875 158.492188 L 10.695312 158.46875 L 10.59375 158.46875 L 10.570312 158.449219 L 10.308594 158.449219 Z M 10.285156 158.46875 Z M 10.285156 158.46875 "/>
<path style=" stroke:none;fill-rule:nonzero;fill:rgb(0%,0%,0%);fill-opacity:1;" d="M 15.320312 164.515625 L 15.320312 165.421875 L 14.402344 165.421875 L 14.402344 164.515625 Z M 15.320312 164.515625 Z M 15.320312 164.515625 "/>
<path style=" stroke:none;fill-rule:nonzero;fill:rgb(0%,0%,0%);fill-opacity:1;" d="M 19.324219 157.777344 C 20.636719 157.8125 21.679688 159.160156 21.476562 160.433594 C 21.339844 161.703125 20.152344 162.425781 19.300781 163.222656 L 18.9375 163.59375 L 18.890625 163.617188 L 18.4375 164.058594 L 18.40625 164.082031 L 17.953125 164.535156 L 17.90625 164.558594 L 17.804688 164.660156 L 17.828125 164.671875 L 21.5 164.671875 L 21.5 165.421875 L 17.011719 165.421875 L 17.011719 164.742188 L 18.835938 162.914062 C 19.707031 162.15625 20.730469 161.167969 20.570312 159.921875 C 20.480469 159.195312 19.867188 158.527344 19.117188 158.46875 C 18.359375 158.355469 17.691406 158.957031 17.519531 159.683594 L 17.496094 159.71875 L 17.476562 159.796875 L 17.371094 160.171875 L 17.363281 160.226562 C 17.203125 160.035156 17.03125 159.832031 16.90625 159.617188 C 17.136719 158.6875 17.882812 157.8125 18.871094 157.777344 Z M 19.324219 157.777344 Z M 19.324219 157.777344 "/>
<path style=" stroke:none;fill-rule:nonzero;fill:rgb(0%,0%,0%);fill-opacity:1;" d="M 10.636719 119.242188 C 11.714844 119.320312 12.429688 120.308594 12.621094 121.304688 C 12.722656 121.757812 12.746094 122.191406 12.792969 122.644531 L 12.792969 123.800781 C 12.734375 124.980469 12.453125 126.53125 11.171875 127.007812 C 10.058594 127.449219 8.753906 126.757812 8.425781 125.625 C 8.175781 125.023438 8.15625 124.410156 8.097656 123.800781 L 8.097656 122.644531 C 8.15625 121.464844 8.402344 119.898438 9.675781 119.378906 L 9.730469 119.355469 L 9.777344 119.34375 L 9.832031 119.320312 L 10.003906 119.277344 L 10.105469 119.253906 L 10.230469 119.253906 L 10.253906 119.242188 Z M 10.636719 119.242188 Z M 10.285156 119.933594 C 9.332031 120.046875 9.050781 121.191406 8.980469 121.960938 L 8.980469 122.269531 L 8.960938 122.292969 L 8.960938 123.867188 C 9.027344 124.683594 9.085938 125.738281 9.832031 126.28125 C 10.523438 126.757812 11.441406 126.226562 11.636719 125.488281 C 11.839844 124.945312 11.886719 124.410156 11.929688 123.867188 L 11.929688 122.292969 C 11.863281 121.464844 11.75 120.308594 10.796875 119.980469 L 10.71875 119.957031 L 10.695312 119.933594 L 10.59375 119.933594 L 10.570312 119.910156 L 10.308594 119.910156 Z M 10.285156 119.933594 Z M 10.285156 119.933594 "/>
<path style=" stroke:none;fill-rule:nonzero;fill:rgb(0%,0%,0%);fill-opacity:1;" d="M 15.320312 125.976562 L 15.320312 126.882812 L 14.402344 126.882812 L 14.402344 125.976562 Z M 15.320312 125.976562 Z M 15.320312 125.976562 "/>
<path style=" stroke:none;fill-rule:nonzero;fill:rgb(0%,0%,0%);fill-opacity:1;" d="M 20.617188 119.480469 L 20.617188 124.253906 L 20.636719 124.277344 L 21.761719 124.277344 L 21.761719 124.957031 L 20.636719 124.957031 L 20.617188 124.96875 L 20.617188 126.882812 L 19.753906 126.882812 L 19.753906 124.96875 L 19.730469 124.957031 L 16.738281 124.957031 L 16.738281 124.253906 C 17.691406 122.664062 18.644531 121.066406 19.59375 119.480469 Z M 20.617188 119.480469 Z M 19.777344 119.910156 C 19.550781 121.089844 18.824219 122.097656 18.28125 123.128906 C 18.066406 123.503906 17.78125 123.914062 17.621094 124.277344 L 19.800781 124.277344 L 19.8125 124.253906 L 19.8125 119.910156 L 19.800781 119.886719 Z M 19.777344 119.910156 Z M 19.777344 119.910156 "/>
<path style=" stroke:none;fill-rule:nonzero;fill:rgb(0%,0%,0%);fill-opacity:1;" d="M 10.636719 80.703125 C 11.714844 80.785156 12.429688 81.769531 12.621094 82.769531 C 12.722656 83.222656 12.746094 83.652344 12.792969 84.105469 L 12.792969 85.261719 C 12.734375 86.441406 12.453125 87.996094 11.171875 88.472656 C 10.058594 88.914062 8.753906 88.222656 8.425781 87.089844 C 8.175781 86.488281 8.15625 85.875 8.097656 85.261719 L 8.097656 84.105469 C 8.15625 82.925781 8.402344 81.363281 9.675781 80.839844 L 9.730469 80.816406 L 9.777344 80.804688 L 9.832031 80.785156 L 10.003906 80.738281 L 10.105469 80.714844 L 10.230469 80.714844 L 10.253906 80.703125 Z M 10.636719 80.703125 Z M 10.285156 81.394531 C 9.332031 81.507812 9.050781 82.65625 8.980469 83.425781 L 8.980469 83.730469 L 8.960938 83.753906 L 8.960938 85.332031 C 9.027344 86.148438 9.085938 87.203125 9.832031 87.746094 C 10.523438 88.222656 11.441406 87.6875 11.636719 86.953125 C 11.839844 86.40625 11.886719 85.875 11.929688 85.332031 L 11.929688 83.753906 C 11.863281 82.925781 11.75 81.769531 10.796875 81.441406 L 10.71875 81.417969 L 10.695312 81.394531 L 10.59375 81.394531 L 10.570312 81.375 L 10.308594 81.375 Z M 10.285156 81.394531 Z M 10.285156 81.394531 "/>
<path style=" stroke:none;fill-rule:nonzero;fill:rgb(0%,0%,0%);fill-opacity:1;" d="M 15.320312 87.441406 L 15.320312 88.347656 L 14.402344 88.347656 L 14.402344 87.441406 Z M 15.320312 87.441406 Z M 15.320312 87.441406 "/>
<path style=" stroke:none;fill-rule:nonzero;fill:rgb(0%,0%,0%);fill-opacity:1;" d="M 20.183594 80.703125 C 20.480469 80.75 20.820312 80.785156 21.101562 80.921875 L 21.101562 81.578125 C 20.320312 81.238281 19.300781 81.191406 18.6875 81.882812 C 18.144531 82.460938 17.894531 83.324219 17.871094 84.082031 C 18.53125 83.210938 20.015625 82.722656 20.820312 83.628906 C 21.625 84.558594 21.761719 85.898438 21.398438 87.03125 C 21 87.9375 20.082031 88.765625 19.0625 88.574219 C 17.679688 88.460938 17.054688 86.917969 16.988281 85.738281 C 16.726562 84.070312 17.125 81.972656 18.710938 81.023438 L 18.734375 81.011719 L 18.972656 80.886719 L 19.039062 80.863281 L 19.074219 80.839844 L 19.265625 80.785156 L 19.425781 80.738281 L 19.527344 80.714844 L 19.652344 80.714844 L 19.675781 80.703125 Z M 20.183594 80.703125 Z M 19.074219 83.855469 C 18.085938 84.027344 17.769531 85.21875 17.894531 86.023438 C 17.953125 86.78125 18.246094 87.792969 19.117188 87.949219 C 20.046875 88.074219 20.648438 87.078125 20.671875 86.273438 C 20.71875 85.457031 20.671875 84.527344 19.957031 83.992188 L 19.800781 83.914062 L 19.675781 83.878906 L 19.574219 83.855469 L 19.550781 83.835938 L 19.097656 83.835938 Z M 19.074219 83.855469 Z M 19.074219 83.855469 "/>
<path style=" stroke:none;fill-rule:nonzero;fill:rgb(0%,0%,0%);fill-opacity:1;" d="M 10.636719 42.167969 C 11.714844 42.246094 12.429688 43.234375 12.621094 44.230469 C 12.722656 44.683594 12.746094 45.117188 12.792969 45.570312 L 12.792969 46.726562 C 12.734375 47.90625 12.453125 49.457031 11.171875 49.933594 C 10.058594 50.375 8.753906 49.683594 8.425781 48.550781 C 8.175781 47.949219 8.15625 47.339844 8.097656 46.726562 L 8.097656 45.570312 C 8.15625 44.390625 8.402344 42.824219 9.675781 42.304688 L 9.730469 42.28125 L 9.777344 42.269531 L 9.832031 42.246094 L 10.003906 42.203125 L 10.105469 42.179688 L 10.230469 42.179688 L 10.253906 42.167969 Z M 10.636719 42.167969 Z M 10.285156 42.859375 C 9.332031 42.972656 9.050781 44.117188 8.980469 44.890625 L 8.980469 45.195312 L 8.960938 45.21875 L 8.960938 46.792969 C 9.027344 47.609375 9.085938 48.664062 9.832031 49.207031 C 10.523438 49.683594 11.441406 49.152344 11.636719 48.414062 C 11.839844 47.871094 11.886719 47.339844 11.929688 46.792969 L 11.929688 45.21875 C 11.863281 44.390625 11.75 43.234375 10.796875 42.90625 L 10.71875 42.882812 L 10.695312 42.859375 L 10.59375 42.859375 L 10.570312 42.835938 L 10.308594 42.835938 Z M 10.285156 42.859375 Z M 10.285156 42.859375 "/>
<path style=" stroke:none;fill-rule:nonzero;fill:rgb(0%,0%,0%);fill-opacity:1;" d="M 15.320312 48.902344 L 15.320312 49.808594 L 14.402344 49.808594 L 14.402344 48.902344 Z M 15.320312 48.902344 Z M 15.320312 48.902344 "/>
<path style=" stroke:none;fill-rule:nonzero;fill:rgb(0%,0%,0%);fill-opacity:1;" d="M 19.46875 42.167969 C 20.671875 42.214844 21.804688 43.503906 21.332031 44.707031 C 21.125 45.261719 20.558594 45.601562 20.09375 45.839844 C 21.25 46.179688 21.953125 47.53125 21.433594 48.640625 C 20.886719 50.082031 18.824219 50.535156 17.691406 49.492188 C 16.660156 48.675781 16.625 46.90625 17.769531 46.179688 C 17.941406 46 18.257812 45.941406 18.40625 45.808594 C 17.417969 45.523438 16.75 44.378906 17.214844 43.414062 C 17.589844 42.554688 18.550781 42.078125 19.46875 42.167969 Z M 19.46875 42.167969 Z M 19.039062 42.8125 C 18.199219 42.835938 17.609375 43.789062 17.894531 44.539062 C 18.222656 45.828125 20.390625 45.785156 20.636719 44.457031 C 20.863281 43.722656 20.277344 42.835938 19.46875 42.8125 L 19.449219 42.800781 L 19.0625 42.800781 Z M 19.039062 42.8125 Z M 19.0625 46.179688 C 18.074219 46.25 17.589844 47.429688 17.847656 48.269531 C 18.019531 49.457031 19.71875 49.808594 20.390625 48.855469 C 21.035156 47.984375 20.71875 46.417969 19.550781 46.179688 L 19.449219 46.179688 L 19.425781 46.160156 L 19.074219 46.160156 Z M 19.0625 46.179688 Z M 19.0625 46.179688 "/>
<path style=" stroke:none;fill-rule:nonzero;fill:rgb(0%,0%,0%);fill-opacity:1;" d="M 10.988281 3.628906 L 10.988281 10.625 L 11 10.648438 L 12.394531 10.648438 L 12.394531 11.273438 L 8.710938 11.273438 L 8.710938 10.648438 L 10.105469 10.648438 L 10.128906 10.625 L 10.128906 4.753906 C 9.652344 4.910156 9.152344 5.015625 8.652344 5.003906 L 8.652344 4.367188 C 9.402344 4.378906 10.21875 4.175781 10.785156 3.628906 Z M 10.988281 3.628906 Z M 10.988281 3.628906 "/>
<path style=" stroke:none;fill-rule:nonzero;fill:rgb(0%,0%,0%);fill-opacity:1;" d="M 15.320312 10.367188 L 15.320312 11.273438 L 14.402344 11.273438 L 14.402344 10.367188 Z M 15.320312 10.367188 Z M 15.320312 10.367188 "/>
<path style=" stroke:none;fill-rule:nonzero;fill:rgb(0%,0%,0%);fill-opacity:1;" d="M 19.449219 3.628906 C 20.523438 3.710938 21.238281 4.695312 21.433594 5.695312 C 21.535156 6.148438 21.558594 6.578125 21.601562 7.03125 L 21.601562 8.1875 C 21.546875 9.367188 21.261719 10.921875 19.980469 11.398438 C 18.871094 11.839844 17.566406 11.148438 17.238281 10.015625 C 16.988281 9.414062 16.964844 8.800781 16.90625 8.1875 L 16.90625 7.03125 C 16.964844 5.851562 17.214844 4.289062 18.484375 3.765625 L 18.539062 3.742188 L 18.585938 3.734375 L 18.644531 3.710938 L 18.8125 3.664062 L 18.914062 3.640625 L 19.039062 3.640625 L 19.0625 3.628906 Z M 19.449219 3.628906 Z M 19.097656 4.320312 C 18.144531 4.4375 17.859375 5.582031 17.792969 6.351562 L 17.792969 6.65625 L 17.769531 6.679688 L 17.769531 8.257812 C 17.835938 9.074219 17.894531 10.128906 18.644531 10.671875 C 19.335938 11.148438 20.253906 10.613281 20.445312 9.878906 C 20.648438 9.332031 20.695312 8.800781 20.742188 8.257812 L 20.742188 6.679688 C 20.671875 5.851562 20.558594 4.695312 19.605469 4.367188 L 19.527344 4.34375 L 19.503906 4.320312 L 19.402344 4.320312 L 19.378906 4.300781 L 19.117188 4.300781 Z M 19.097656 4.320312 Z M 19.097656 4.320312 "/>
<path style="fill:none;stroke-width:0.02;stroke-linecap:butt;stroke-linejoin:miter;stroke:rgb(0%,0%,0%);stroke-opacity:1;stroke-miterlimit:10;" d="M 11.644561 1.971454 L 11.49463 1.971454 " transform="matrix(28.346457,0,0,-28.346457,1,256.11811)"/>
<path style="fill:none;stroke-width:0.02;stroke-linecap:butt;stroke-linejoin:miter;stroke:rgb(0%,0%,0%);stroke-opacity:1;stroke-miterlimit:10;" d="M 11.644561 3.331026 L 11.49463 3.331026 " transform="matrix(28.346457,0,0,-28.346457,1,256.11811)"/>
<path style="fill:none;stroke-width:0.02;stroke-linecap:butt;stroke-linejoin:miter;stroke:rgb(0%,0%,0%);stroke-opacity:1;stroke-miterlimit:10;" d="M 11.644561 4.690461 L 11.49463 4.690461 " transform="matrix(28.346457,0,0,-28.346457,1,256.11811)"/>
<path style="fill:none;stroke-width:0.02;stroke-linecap:butt;stroke-linejoin:miter;stroke:rgb(0%,0%,0%);stroke-opacity:1;stroke-miterlimit:10;" d="M 11.644561 6.050034 L 11.49463 6.050034 " transform="matrix(28.346457,0,0,-28.346457,1,256.11811)"/>
<path style="fill:none;stroke-width:0.02;stroke-linecap:butt;stroke-linejoin:miter;stroke:rgb(0%,0%,0%);stroke-opacity:1;stroke-miterlimit:10;" d="M 11.644561 7.409468 L 11.49463 7.409468 " transform="matrix(28.346457,0,0,-28.346457,1,256.11811)"/>
<path style="fill:none;stroke-width:0.02;stroke-linecap:round;stroke-linejoin:miter;stroke:rgb(0%,0%,0%);stroke-opacity:1;stroke-miterlimit:10;" d="M 11.644561 0.612019 L 11.644561 8.769041 " transform="matrix(28.346457,0,0,-28.346457,1,256.11811)"/>
<path style="fill:none;stroke-width:0.02;stroke-linecap:butt;stroke-linejoin:miter;stroke:rgb(0%,0%,0%);stroke-opacity:1;stroke-miterlimit:10;" d="M 2.059065 0.612019 L 2.059065 0.76195 " transform="matrix(28.346457,0,0,-28.346457,1,256.11811)"/>
<path style="fill:none;stroke-width:0.02;stroke-linecap:butt;stroke-linejoin:miter;stroke:rgb(0%,0%,0%);stroke-opacity:1;stroke-miterlimit:10;" d="M 3.12415 0.612019 L 3.12415 0.76195 " transform="matrix(28.346457,0,0,-28.346457,1,256.11811)"/>
<path style="fill:none;stroke-width:0.02;stroke-linecap:butt;stroke-linejoin:miter;stroke:rgb(0%,0%,0%);stroke-opacity:1;stroke-miterlimit:10;" d="M 4.189236 0.612019 L 4.189236 0.76195 " transform="matrix(28.346457,0,0,-28.346457,1,256.11811)"/>
<path style="fill:none;stroke-width:0.02;stroke-linecap:butt;stroke-linejoin:miter;stroke:rgb(0%,0%,0%);stroke-opacity:1;stroke-miterlimit:10;" d="M 5.254184 0.612019 L 5.254184 0.76195 " transform="matrix(28.346457,0,0,-28.346457,1,256.11811)"/>
<path style="fill:none;stroke-width:0.02;stroke-linecap:butt;stroke-linejoin:miter;stroke:rgb(0%,0%,0%);stroke-opacity:1;stroke-miterlimit:10;" d="M 6.31927 0.612019 L 6.31927 0.76195 " transform="matrix(28.346457,0,0,-28.346457,1,256.11811)"/>
<path style="fill:none;stroke-width:0.02;stroke-linecap:butt;stroke-linejoin:miter;stroke:rgb(0%,0%,0%);stroke-opacity:1;stroke-miterlimit:10;" d="M 7.384355 0.612019 L 7.384355 0.76195 " transform="matrix(28.346457,0,0,-28.346457,1,256.11811)"/>
<path style="fill:none;stroke-width:0.02;stroke-linecap:butt;stroke-linejoin:miter;stroke:rgb(0%,0%,0%);stroke-opacity:1;stroke-miterlimit:10;" d="M 8.449441 0.612019 L 8.449441 0.76195 " transform="matrix(28.346457,0,0,-28.346457,1,256.11811)"/>
<path style="fill:none;stroke-width:0.02;stroke-linecap:butt;stroke-linejoin:miter;stroke:rgb(0%,0%,0%);stroke-opacity:1;stroke-miterlimit:10;" d="M 9.514527 0.612019 L 9.514527 0.76195 " transform="matrix(28.346457,0,0,-28.346457,1,256.11811)"/>
<path style="fill:none;stroke-width:0.02;stroke-linecap:butt;stroke-linejoin:miter;stroke:rgb(0%,0%,0%);stroke-opacity:1;stroke-miterlimit:10;" d="M 10.579475 0.612019 L 10.579475 0.76195 " transform="matrix(28.346457,0,0,-28.346457,1,256.11811)"/>
<path style="fill:none;stroke-width:0.02;stroke-linecap:round;stroke-linejoin:miter;stroke:rgb(0%,0%,0%);stroke-opacity:1;stroke-miterlimit:10;" d="M 0.993979 0.612019 L 11.644561 0.612019 " transform="matrix(28.346457,0,0,-28.346457,1,256.11811)"/>
<path style=" stroke:none;fill-rule:nonzero;fill:rgb(0%,0%,0%);fill-opacity:1;" d="M 23.15625 250.484375 L 23.15625 251.117188 L 20.183594 251.117188 L 20.183594 250.484375 Z M 23.15625 250.484375 Z M 23.15625 250.484375 "/>
<path style=" stroke:none;fill-rule:nonzero;fill:rgb(0%,0%,0%);fill-opacity:1;" d="M 27.203125 245.652344 L 27.203125 252.648438 L 27.214844 252.671875 L 28.609375 252.671875 L 28.609375 253.292969 L 24.925781 253.292969 L 24.925781 252.671875 L 26.320312 252.671875 L 26.339844 252.648438 L 26.339844 246.773438 C 25.867188 246.933594 25.367188 247.035156 24.867188 247.023438 L 24.867188 246.390625 C 25.617188 246.402344 26.433594 246.195312 27 245.652344 Z M 27.203125 245.652344 Z M 27.203125 245.652344 "/>
<path style=" stroke:none;fill-rule:nonzero;fill:rgb(0%,0%,0%);fill-opacity:1;" d="M 31.535156 252.386719 L 31.535156 253.292969 L 30.617188 253.292969 L 30.617188 252.386719 Z M 31.535156 252.386719 Z M 31.535156 252.386719 "/>
<path style=" stroke:none;fill-rule:nonzero;fill:rgb(0%,0%,0%);fill-opacity:1;" d="M 35.660156 245.652344 C 36.738281 245.730469 37.453125 246.71875 37.644531 247.714844 C 37.75 248.167969 37.769531 248.601562 37.816406 249.054688 L 37.816406 250.210938 C 37.757812 251.390625 37.476562 252.941406 36.195312 253.417969 C 35.082031 253.863281 33.78125 253.171875 33.449219 252.035156 C 33.203125 251.433594 33.179688 250.824219 33.121094 250.210938 L 33.121094 249.054688 C 33.179688 247.875 33.429688 246.308594 34.699219 245.789062 L 34.753906 245.765625 L 34.800781 245.753906 L 34.855469 245.730469 L 35.027344 245.6875 L 35.128906 245.664062 L 35.253906 245.664062 L 35.277344 245.652344 Z M 35.660156 245.652344 Z M 35.3125 246.34375 C 34.359375 246.457031 34.074219 247.601562 34.007812 248.375 L 34.007812 248.679688 L 33.984375 248.703125 L 33.984375 250.277344 C 34.050781 251.09375 34.109375 252.148438 34.855469 252.695312 C 35.546875 253.171875 36.46875 252.636719 36.660156 251.898438 C 36.863281 251.355469 36.910156 250.824219 36.953125 250.277344 L 36.953125 248.703125 C 36.886719 247.875 36.773438 246.71875 35.820312 246.390625 L 35.742188 246.367188 L 35.71875 246.34375 L 35.617188 246.34375 L 35.59375 246.320312 L 35.332031 246.320312 Z M 35.3125 246.34375 Z M 35.3125 246.34375 "/>
<path style=" stroke:none;fill-rule:nonzero;fill:rgb(0%,0%,0%);fill-opacity:1;" d="M 53.347656 250.484375 L 53.347656 251.117188 L 50.375 251.117188 L 50.375 250.484375 Z M 53.347656 250.484375 Z M 53.347656 250.484375 "/>
<path style=" stroke:none;fill-rule:nonzero;fill:rgb(0%,0%,0%);fill-opacity:1;" d="M 57.042969 245.652344 C 58.121094 245.730469 58.835938 246.71875 59.027344 247.714844 C 59.128906 248.167969 59.152344 248.601562 59.195312 249.054688 L 59.195312 250.210938 C 59.140625 251.390625 58.855469 252.941406 57.574219 253.417969 C 56.464844 253.863281 55.160156 253.171875 54.832031 252.035156 C 54.582031 251.433594 54.558594 250.824219 54.503906 250.210938 L 54.503906 249.054688 C 54.558594 247.875 54.808594 246.308594 56.078125 245.789062 L 56.136719 245.765625 L 56.179688 245.753906 L 56.238281 245.730469 L 56.40625 245.6875 L 56.507812 245.664062 L 56.632812 245.664062 L 56.65625 245.652344 Z M 57.042969 245.652344 Z M 56.691406 246.34375 C 55.738281 246.457031 55.457031 247.601562 55.386719 248.375 L 55.386719 248.679688 L 55.363281 248.703125 L 55.363281 250.277344 C 55.433594 251.09375 55.488281 252.148438 56.238281 252.695312 C 56.929688 253.171875 57.847656 252.636719 58.039062 251.898438 C 58.246094 251.355469 58.289062 250.824219 58.335938 250.277344 L 58.335938 248.703125 C 58.265625 247.875 58.152344 246.71875 57.203125 246.390625 L 57.121094 246.367188 L 57.097656 246.34375 L 56.996094 246.34375 L 56.976562 246.320312 L 56.714844 246.320312 Z M 56.691406 246.34375 Z M 56.691406 246.34375 "/>
<path style=" stroke:none;fill-rule:nonzero;fill:rgb(0%,0%,0%);fill-opacity:1;" d="M 61.726562 252.386719 L 61.726562 253.292969 L 60.808594 253.292969 L 60.808594 252.386719 Z M 61.726562 252.386719 Z M 61.726562 252.386719 "/>
<path style=" stroke:none;fill-rule:nonzero;fill:rgb(0%,0%,0%);fill-opacity:1;" d="M 65.875 245.652344 C 67.078125 245.699219 68.210938 246.992188 67.734375 248.191406 C 67.53125 248.746094 66.964844 249.089844 66.5 249.328125 C 67.65625 249.667969 68.359375 251.015625 67.835938 252.125 C 67.292969 253.566406 65.230469 254.019531 64.09375 252.976562 C 63.0625 252.160156 63.03125 250.390625 64.175781 249.667969 C 64.34375 249.484375 64.664062 249.429688 64.808594 249.292969 C 63.824219 249.007812 63.152344 247.863281 63.617188 246.898438 C 63.992188 246.039062 64.957031 245.5625 65.875 245.652344 Z M 65.875 245.652344 Z M 65.445312 246.300781 C 64.605469 246.320312 64.015625 247.273438 64.300781 248.023438 C 64.628906 249.316406 66.792969 249.269531 67.042969 247.941406 C 67.269531 247.207031 66.679688 246.320312 65.875 246.300781 L 65.851562 246.289062 L 65.46875 246.289062 Z M 65.445312 246.300781 Z M 65.46875 249.667969 C 64.480469 249.734375 63.992188 250.914062 64.253906 251.753906 C 64.425781 252.941406 66.125 253.292969 66.792969 252.34375 C 67.441406 251.46875 67.121094 249.90625 65.953125 249.667969 L 65.851562 249.667969 L 65.828125 249.644531 L 65.480469 249.644531 Z M 65.46875 249.667969 Z M 65.46875 249.667969 "/>
<path style=" stroke:none;fill-rule:nonzero;fill:rgb(0%,0%,0%);fill-opacity:1;" d="M 83.535156 250.484375 L 83.535156 251.117188 L 80.566406 251.117188 L 80.566406 250.484375 Z M 83.535156 250.484375 Z M 83.535156 250.484375 "/>
<path style=" stroke:none;fill-rule:nonzero;fill:rgb(0%,0%,0%);fill-opacity:1;" d="M 87.234375 245.652344 C 88.308594 245.730469 89.023438 246.71875 89.21875 247.714844 C 89.320312 248.167969 89.34375 248.601562 89.386719 249.054688 L 89.386719 250.210938 C 89.332031 251.390625 89.046875 252.941406 87.765625 253.417969 C 86.65625 253.863281 85.351562 253.171875 85.023438 252.035156 C 84.773438 251.433594 84.75 250.824219 84.695312 250.210938 L 84.695312 249.054688 C 84.75 247.875 85 246.308594 86.269531 245.789062 L 86.328125 245.765625 L 86.371094 245.753906 L 86.429688 245.730469 L 86.597656 245.6875 L 86.699219 245.664062 L 86.824219 245.664062 L 86.847656 245.652344 Z M 87.234375 245.652344 Z M 86.882812 246.34375 C 85.929688 246.457031 85.644531 247.601562 85.578125 248.375 L 85.578125 248.679688 L 85.554688 248.703125 L 85.554688 250.277344 C 85.625 251.09375 85.679688 252.148438 86.429688 252.695312 C 87.121094 253.171875 88.039062 252.636719 88.230469 251.898438 C 88.433594 251.355469 88.480469 250.824219 88.527344 250.277344 L 88.527344 248.703125 C 88.457031 247.875 88.34375 246.71875 87.390625 246.390625 L 87.3125 246.367188 L 87.289062 246.34375 L 87.1875 246.34375 L 87.164062 246.320312 L 86.90625 246.320312 Z M 86.882812 246.34375 Z M 86.882812 246.34375 "/>
<path style=" stroke:none;fill-rule:nonzero;fill:rgb(0%,0%,0%);fill-opacity:1;" d="M 91.917969 252.386719 L 91.917969 253.292969 L 90.996094 253.292969 L 90.996094 252.386719 Z M 91.917969 252.386719 Z M 91.917969 252.386719 "/>
<path style=" stroke:none;fill-rule:nonzero;fill:rgb(0%,0%,0%);fill-opacity:1;" d="M 96.78125 245.652344 C 97.074219 245.699219 97.414062 245.730469 97.699219 245.867188 L 97.699219 246.527344 C 96.917969 246.183594 95.894531 246.140625 95.285156 246.832031 C 94.738281 247.410156 94.488281 248.273438 94.46875 249.03125 C 95.125 248.160156 96.609375 247.671875 97.414062 248.578125 C 98.21875 249.507812 98.355469 250.84375 97.992188 251.980469 C 97.597656 252.886719 96.679688 253.714844 95.65625 253.523438 C 94.273438 253.40625 93.652344 251.867188 93.582031 250.6875 C 93.320312 249.019531 93.71875 246.921875 95.304688 245.96875 L 95.328125 245.957031 L 95.566406 245.835938 L 95.636719 245.8125 L 95.667969 245.789062 L 95.863281 245.730469 L 96.019531 245.6875 L 96.121094 245.664062 L 96.246094 245.664062 L 96.269531 245.652344 Z M 96.78125 245.652344 Z M 95.667969 248.804688 C 94.683594 248.976562 94.367188 250.164062 94.488281 250.96875 C 94.546875 251.730469 94.839844 252.738281 95.714844 252.898438 C 96.644531 253.023438 97.246094 252.023438 97.269531 251.21875 C 97.3125 250.402344 97.269531 249.472656 96.554688 248.941406 L 96.394531 248.863281 L 96.269531 248.828125 L 96.167969 248.804688 L 96.144531 248.78125 L 95.691406 248.78125 Z M 95.667969 248.804688 Z M 95.667969 248.804688 "/>
<path style=" stroke:none;fill-rule:nonzero;fill:rgb(0%,0%,0%);fill-opacity:1;" d="M 113.726562 250.484375 L 113.726562 251.117188 L 110.757812 251.117188 L 110.757812 250.484375 Z M 113.726562 250.484375 Z M 113.726562 250.484375 "/>
<path style=" stroke:none;fill-rule:nonzero;fill:rgb(0%,0%,0%);fill-opacity:1;" d="M 117.425781 245.652344 C 118.5 245.730469 119.214844 246.71875 119.410156 247.714844 C 119.511719 248.167969 119.53125 248.601562 119.578125 249.054688 L 119.578125 250.210938 C 119.523438 251.390625 119.238281 252.941406 117.957031 253.417969 C 116.847656 253.863281 115.542969 253.171875 115.214844 252.035156 C 114.964844 251.433594 114.941406 250.824219 114.882812 250.210938 L 114.882812 249.054688 C 114.941406 247.875 115.191406 246.308594 116.460938 245.789062 L 116.515625 245.765625 L 116.5625 245.753906 L 116.617188 245.730469 L 116.789062 245.6875 L 116.890625 245.664062 L 117.015625 245.664062 L 117.039062 245.652344 Z M 117.425781 245.652344 Z M 117.074219 246.34375 C 116.121094 246.457031 115.835938 247.601562 115.769531 248.375 L 115.769531 248.679688 L 115.746094 248.703125 L 115.746094 250.277344 C 115.8125 251.09375 115.871094 252.148438 116.617188 252.695312 C 117.3125 253.171875 118.230469 252.636719 118.421875 251.898438 C 118.625 251.355469 118.671875 250.824219 118.714844 250.277344 L 118.714844 248.703125 C 118.648438 247.875 118.535156 246.71875 117.582031 246.390625 L 117.503906 246.367188 L 117.480469 246.34375 L 117.378906 246.34375 L 117.355469 246.320312 L 117.09375 246.320312 Z M 117.074219 246.34375 Z M 117.074219 246.34375 "/>
<path style=" stroke:none;fill-rule:nonzero;fill:rgb(0%,0%,0%);fill-opacity:1;" d="M 122.105469 252.386719 L 122.105469 253.292969 L 121.1875 253.292969 L 121.1875 252.386719 Z M 122.105469 252.386719 Z M 122.105469 252.386719 "/>
<path style=" stroke:none;fill-rule:nonzero;fill:rgb(0%,0%,0%);fill-opacity:1;" d="M 127.402344 245.890625 L 127.402344 250.664062 L 127.425781 250.6875 L 128.546875 250.6875 L 128.546875 251.367188 L 127.425781 251.367188 L 127.402344 251.378906 L 127.402344 253.292969 L 126.539062 253.292969 L 126.539062 251.378906 L 126.515625 251.367188 L 123.523438 251.367188 L 123.523438 250.664062 C 124.476562 249.078125 125.429688 247.476562 126.382812 245.890625 Z M 127.402344 245.890625 Z M 126.5625 246.320312 C 126.335938 247.5 125.609375 248.511719 125.066406 249.542969 C 124.851562 249.914062 124.566406 250.324219 124.410156 250.6875 L 126.585938 250.6875 L 126.597656 250.664062 L 126.597656 246.320312 L 126.585938 246.300781 Z M 126.5625 246.320312 Z M 126.5625 246.320312 "/>
<path style=" stroke:none;fill-rule:nonzero;fill:rgb(0%,0%,0%);fill-opacity:1;" d="M 143.917969 250.484375 L 143.917969 251.117188 L 140.949219 251.117188 L 140.949219 250.484375 Z M 143.917969 250.484375 Z M 143.917969 250.484375 "/>
<path style=" stroke:none;fill-rule:nonzero;fill:rgb(0%,0%,0%);fill-opacity:1;" d="M 147.613281 245.652344 C 148.691406 245.730469 149.40625 246.71875 149.597656 247.714844 C 149.699219 248.167969 149.722656 248.601562 149.769531 249.054688 L 149.769531 250.210938 C 149.710938 251.390625 149.429688 252.941406 148.148438 253.417969 C 147.035156 253.863281 145.734375 253.171875 145.402344 252.035156 C 145.152344 251.433594 145.132812 250.824219 145.074219 250.210938 L 145.074219 249.054688 C 145.132812 247.875 145.382812 246.308594 146.652344 245.789062 L 146.707031 245.765625 L 146.753906 245.753906 L 146.808594 245.730469 L 146.980469 245.6875 L 147.082031 245.664062 L 147.207031 245.664062 L 147.230469 245.652344 Z M 147.613281 245.652344 Z M 147.261719 246.34375 C 146.3125 246.457031 146.027344 247.601562 145.960938 248.375 L 145.960938 248.679688 L 145.9375 248.703125 L 145.9375 250.277344 C 146.003906 251.09375 146.0625 252.148438 146.808594 252.695312 C 147.5 253.171875 148.417969 252.636719 148.613281 251.898438 C 148.816406 251.355469 148.863281 250.824219 148.90625 250.277344 L 148.90625 248.703125 C 148.839844 247.875 148.726562 246.71875 147.773438 246.390625 L 147.695312 246.367188 L 147.671875 246.34375 L 147.570312 246.34375 L 147.546875 246.320312 L 147.285156 246.320312 Z M 147.261719 246.34375 Z M 147.261719 246.34375 "/>
<path style=" stroke:none;fill-rule:nonzero;fill:rgb(0%,0%,0%);fill-opacity:1;" d="M 152.296875 252.386719 L 152.296875 253.292969 L 151.378906 253.292969 L 151.378906 252.386719 Z M 152.296875 252.386719 Z M 152.296875 252.386719 "/>
<path style=" stroke:none;fill-rule:nonzero;fill:rgb(0%,0%,0%);fill-opacity:1;" d="M 156.300781 245.652344 C 157.617188 245.6875 158.660156 247.035156 158.453125 248.304688 C 158.316406 249.574219 157.128906 250.300781 156.277344 251.09375 L 155.914062 251.46875 L 155.871094 251.492188 L 155.414062 251.933594 L 155.382812 251.957031 L 154.929688 252.410156 L 154.882812 252.433594 L 154.78125 252.535156 L 154.804688 252.546875 L 158.476562 252.546875 L 158.476562 253.292969 L 153.988281 253.292969 L 153.988281 252.613281 L 155.8125 250.789062 C 156.683594 250.027344 157.707031 249.042969 157.546875 247.796875 C 157.457031 247.070312 156.84375 246.402344 156.097656 246.34375 C 155.335938 246.230469 154.667969 246.832031 154.496094 247.558594 L 154.472656 247.589844 L 154.453125 247.671875 L 154.417969 247.796875 L 154.351562 248.046875 L 154.339844 248.101562 C 154.179688 247.910156 154.007812 247.703125 153.886719 247.488281 C 154.113281 246.558594 154.859375 245.6875 155.847656 245.652344 Z M 156.300781 245.652344 Z M 156.300781 245.652344 "/>
<path style=" stroke:none;fill-rule:nonzero;fill:rgb(0%,0%,0%);fill-opacity:1;" d="M 175.917969 245.652344 C 176.996094 245.730469 177.707031 246.71875 177.902344 247.714844 C 178.003906 248.167969 178.027344 248.601562 178.070312 249.054688 L 178.070312 250.210938 C 178.015625 251.390625 177.730469 252.941406 176.449219 253.417969 C 175.339844 253.863281 174.035156 253.171875 173.707031 252.035156 C 173.457031 251.433594 173.433594 250.824219 173.378906 250.210938 L 173.378906 249.054688 C 173.433594 247.875 173.683594 246.308594 174.953125 245.789062 L 175.011719 245.765625 L 175.054688 245.753906 L 175.113281 245.730469 L 175.28125 245.6875 L 175.382812 245.664062 L 175.507812 245.664062 L 175.53125 245.652344 Z M 175.917969 245.652344 Z M 175.566406 246.34375 C 174.613281 246.457031 174.332031 247.601562 174.261719 248.375 L 174.261719 248.679688 L 174.238281 248.703125 L 174.238281 250.277344 C 174.308594 251.09375 174.363281 252.148438 175.113281 252.695312 C 175.804688 253.171875 176.722656 252.636719 176.914062 251.898438 C 177.121094 251.355469 177.164062 250.824219 177.210938 250.277344 L 177.210938 248.703125 C 177.140625 247.875 177.027344 246.71875 176.078125 246.390625 L 175.996094 246.367188 L 175.972656 246.34375 L 175.871094 246.34375 L 175.847656 246.320312 L 175.589844 246.320312 Z M 175.566406 246.34375 Z M 175.566406 246.34375 "/>
<path style=" stroke:none;fill-rule:nonzero;fill:rgb(0%,0%,0%);fill-opacity:1;" d="M 180.601562 252.386719 L 180.601562 253.292969 L 179.683594 253.292969 L 179.683594 252.386719 Z M 180.601562 252.386719 Z M 180.601562 252.386719 "/>
<path style=" stroke:none;fill-rule:nonzero;fill:rgb(0%,0%,0%);fill-opacity:1;" d="M 184.726562 245.652344 C 185.804688 245.730469 186.519531 246.71875 186.710938 247.714844 C 186.8125 248.167969 186.835938 248.601562 186.882812 249.054688 L 186.882812 250.210938 C 186.824219 251.390625 186.542969 252.941406 185.261719 253.417969 C 184.148438 253.863281 182.84375 253.171875 182.515625 252.035156 C 182.265625 251.433594 182.246094 250.824219 182.1875 250.210938 L 182.1875 249.054688 C 182.246094 247.875 182.492188 246.308594 183.765625 245.789062 L 183.820312 245.765625 L 183.867188 245.753906 L 183.921875 245.730469 L 184.09375 245.6875 L 184.195312 245.664062 L 184.320312 245.664062 L 184.34375 245.652344 Z M 184.726562 245.652344 Z M 184.375 246.34375 C 183.421875 246.457031 183.140625 247.601562 183.070312 248.375 L 183.070312 248.679688 L 183.050781 248.703125 L 183.050781 250.277344 C 183.117188 251.09375 183.175781 252.148438 183.921875 252.695312 C 184.613281 253.171875 185.53125 252.636719 185.726562 251.898438 C 185.929688 251.355469 185.976562 250.824219 186.019531 250.277344 L 186.019531 248.703125 C 185.953125 247.875 185.839844 246.71875 184.886719 246.390625 L 184.808594 246.367188 L 184.785156 246.34375 L 184.683594 246.34375 L 184.660156 246.320312 L 184.398438 246.320312 Z M 184.375 246.34375 Z M 184.375 246.34375 "/>
<path style=" stroke:none;fill-rule:nonzero;fill:rgb(0%,0%,0%);fill-opacity:1;" d="M 206.109375 245.652344 C 207.183594 245.730469 207.898438 246.71875 208.09375 247.714844 C 208.195312 248.167969 208.21875 248.601562 208.261719 249.054688 L 208.261719 250.210938 C 208.207031 251.390625 207.921875 252.941406 206.640625 253.417969 C 205.53125 253.863281 204.226562 253.171875 203.898438 252.035156 C 203.648438 251.433594 203.625 250.824219 203.566406 250.210938 L 203.566406 249.054688 C 203.625 247.875 203.875 246.308594 205.144531 245.789062 L 205.199219 245.765625 L 205.246094 245.753906 L 205.304688 245.730469 L 205.472656 245.6875 L 205.574219 245.664062 L 205.699219 245.664062 L 205.722656 245.652344 Z M 206.109375 245.652344 Z M 205.757812 246.34375 C 204.804688 246.457031 204.519531 247.601562 204.453125 248.375 L 204.453125 248.679688 L 204.429688 248.703125 L 204.429688 250.277344 C 204.5 251.09375 204.554688 252.148438 205.304688 252.695312 C 205.996094 253.171875 206.914062 252.636719 207.105469 251.898438 C 207.308594 251.355469 207.355469 250.824219 207.402344 250.277344 L 207.402344 248.703125 C 207.332031 247.875 207.21875 246.71875 206.265625 246.390625 L 206.1875 246.367188 L 206.164062 246.34375 L 206.0625 246.34375 L 206.039062 246.320312 L 205.78125 246.320312 Z M 205.757812 246.34375 Z M 205.757812 246.34375 "/>
<path style=" stroke:none;fill-rule:nonzero;fill:rgb(0%,0%,0%);fill-opacity:1;" d="M 210.789062 252.386719 L 210.789062 253.292969 L 209.871094 253.292969 L 209.871094 252.386719 Z M 210.789062 252.386719 Z M 210.789062 252.386719 "/>
<path style=" stroke:none;fill-rule:nonzero;fill:rgb(0%,0%,0%);fill-opacity:1;" d="M 214.792969 245.652344 C 216.109375 245.6875 217.152344 247.035156 216.949219 248.304688 C 216.8125 249.574219 215.621094 250.300781 214.769531 251.09375 L 214.40625 251.46875 L 214.363281 251.492188 L 213.910156 251.933594 L 213.875 251.957031 L 213.421875 252.410156 L 213.375 252.433594 L 213.273438 252.535156 L 213.296875 252.546875 L 216.96875 252.546875 L 216.96875 253.292969 L 212.480469 253.292969 L 212.480469 252.613281 L 214.304688 250.789062 C 215.179688 250.027344 216.199219 249.042969 216.039062 247.796875 C 215.949219 247.070312 215.335938 246.402344 214.589844 246.34375 C 213.828125 246.230469 213.160156 246.832031 212.992188 247.558594 L 212.96875 247.589844 L 212.945312 247.671875 L 212.910156 247.796875 L 212.84375 248.046875 L 212.832031 248.101562 C 212.671875 247.910156 212.503906 247.703125 212.378906 247.488281 C 212.605469 246.558594 213.351562 245.6875 214.339844 245.652344 Z M 214.792969 245.652344 Z M 214.792969 245.652344 "/>
<path style=" stroke:none;fill-rule:nonzero;fill:rgb(0%,0%,0%);fill-opacity:1;" d="M 236.300781 245.652344 C 237.375 245.730469 238.089844 246.71875 238.28125 247.714844 C 238.386719 248.167969 238.40625 248.601562 238.453125 249.054688 L 238.453125 250.210938 C 238.394531 251.390625 238.113281 252.941406 236.832031 253.417969 C 235.71875 253.863281 234.417969 253.171875 234.085938 252.035156 C 233.839844 251.433594 233.816406 250.824219 233.757812 250.210938 L 233.757812 249.054688 C 233.816406 247.875 234.066406 246.308594 235.335938 245.789062 L 235.390625 245.765625 L 235.4375 245.753906 L 235.492188 245.730469 L 235.664062 245.6875 L 235.765625 245.664062 L 235.890625 245.664062 L 235.914062 245.652344 Z M 236.300781 245.652344 Z M 235.949219 246.34375 C 234.996094 246.457031 234.710938 247.601562 234.644531 248.375 L 234.644531 248.679688 L 234.621094 248.703125 L 234.621094 250.277344 C 234.6875 251.09375 234.746094 252.148438 235.492188 252.695312 C 236.183594 253.171875 237.105469 252.636719 237.296875 251.898438 C 237.5 251.355469 237.546875 250.824219 237.589844 250.277344 L 237.589844 248.703125 C 237.523438 247.875 237.410156 246.71875 236.457031 246.390625 L 236.378906 246.367188 L 236.355469 246.34375 L 236.253906 246.34375 L 236.230469 246.320312 L 235.96875 246.320312 Z M 235.949219 246.34375 Z M 235.949219 246.34375 "/>
<path style=" stroke:none;fill-rule:nonzero;fill:rgb(0%,0%,0%);fill-opacity:1;" d="M 240.980469 252.386719 L 240.980469 253.292969 L 240.0625 253.292969 L 240.0625 252.386719 Z M 240.980469 252.386719 Z M 240.980469 252.386719 "/>
<path style=" stroke:none;fill-rule:nonzero;fill:rgb(0%,0%,0%);fill-opacity:1;" d="M 246.277344 245.890625 L 246.277344 250.664062 L 246.300781 250.6875 L 247.421875 250.6875 L 247.421875 251.367188 L 246.300781 251.367188 L 246.277344 251.378906 L 246.277344 253.292969 L 245.414062 253.292969 L 245.414062 251.378906 L 245.390625 251.367188 L 242.398438 251.367188 L 242.398438 250.664062 C 243.351562 249.078125 244.304688 247.476562 245.257812 245.890625 Z M 246.277344 245.890625 Z M 245.4375 246.320312 C 245.210938 247.5 244.484375 248.511719 243.941406 249.542969 C 243.726562 249.914062 243.441406 250.324219 243.285156 250.6875 L 245.460938 250.6875 L 245.472656 250.664062 L 245.472656 246.320312 L 245.460938 246.300781 Z M 245.4375 246.320312 Z M 245.4375 246.320312 "/>
<path style=" stroke:none;fill-rule:nonzero;fill:rgb(0%,0%,0%);fill-opacity:1;" d="M 266.488281 245.652344 C 267.566406 245.730469 268.28125 246.71875 268.472656 247.714844 C 268.574219 248.167969 268.597656 248.601562 268.644531 249.054688 L 268.644531 250.210938 C 268.585938 251.390625 268.304688 252.941406 267.023438 253.417969 C 265.910156 253.863281 264.605469 253.171875 264.277344 252.035156 C 264.027344 251.433594 264.007812 250.824219 263.949219 250.210938 L 263.949219 249.054688 C 264.007812 247.875 264.253906 246.308594 265.527344 245.789062 L 265.582031 245.765625 L 265.628906 245.753906 L 265.683594 245.730469 L 265.855469 245.6875 L 265.957031 245.664062 L 266.082031 245.664062 L 266.105469 245.652344 Z M 266.488281 245.652344 Z M 266.136719 246.34375 C 265.1875 246.457031 264.902344 247.601562 264.835938 248.375 L 264.835938 248.679688 L 264.8125 248.703125 L 264.8125 250.277344 C 264.878906 251.09375 264.9375 252.148438 265.683594 252.695312 C 266.375 253.171875 267.292969 252.636719 267.488281 251.898438 C 267.691406 251.355469 267.738281 250.824219 267.78125 250.277344 L 267.78125 248.703125 C 267.714844 247.875 267.601562 246.71875 266.648438 246.390625 L 266.570312 246.367188 L 266.546875 246.34375 L 266.445312 246.34375 L 266.421875 246.320312 L 266.160156 246.320312 Z M 266.136719 246.34375 Z M 266.136719 246.34375 "/>
<path style=" stroke:none;fill-rule:nonzero;fill:rgb(0%,0%,0%);fill-opacity:1;" d="M 271.171875 252.386719 L 271.171875 253.292969 L 270.253906 253.292969 L 270.253906 252.386719 Z M 271.171875 252.386719 Z M 271.171875 252.386719 "/>
<path style=" stroke:none;fill-rule:nonzero;fill:rgb(0%,0%,0%);fill-opacity:1;" d="M 276.035156 245.652344 C 276.332031 245.699219 276.671875 245.730469 276.953125 245.867188 L 276.953125 246.527344 C 276.171875 246.183594 275.152344 246.140625 274.539062 246.832031 C 273.996094 247.410156 273.746094 248.273438 273.722656 249.03125 C 274.382812 248.160156 275.867188 247.671875 276.671875 248.578125 C 277.476562 249.507812 277.613281 250.84375 277.25 251.980469 C 276.851562 252.886719 275.933594 253.714844 274.914062 253.523438 C 273.53125 253.40625 272.90625 251.867188 272.839844 250.6875 C 272.578125 249.019531 272.976562 246.921875 274.5625 245.96875 L 274.585938 245.957031 L 274.824219 245.835938 L 274.890625 245.8125 L 274.925781 245.789062 L 275.117188 245.730469 L 275.277344 245.6875 L 275.378906 245.664062 L 275.503906 245.664062 L 275.527344 245.652344 Z M 276.035156 245.652344 Z M 274.925781 248.804688 C 273.9375 248.976562 273.621094 250.164062 273.746094 250.96875 C 273.804688 251.730469 274.097656 252.738281 274.972656 252.898438 C 275.902344 253.023438 276.5 252.023438 276.523438 251.21875 C 276.570312 250.402344 276.523438 249.472656 275.808594 248.941406 L 275.652344 248.863281 L 275.527344 248.828125 L 275.425781 248.804688 L 275.402344 248.78125 L 274.949219 248.78125 Z M 274.925781 248.804688 Z M 274.925781 248.804688 "/>
<path style=" stroke:none;fill-rule:nonzero;fill:rgb(0%,0%,0%);fill-opacity:1;" d="M 296.679688 245.652344 C 297.757812 245.730469 298.472656 246.71875 298.664062 247.714844 C 298.765625 248.167969 298.789062 248.601562 298.835938 249.054688 L 298.835938 250.210938 C 298.777344 251.390625 298.496094 252.941406 297.214844 253.417969 C 296.101562 253.863281 294.796875 253.171875 294.46875 252.035156 C 294.21875 251.433594 294.195312 250.824219 294.140625 250.210938 L 294.140625 249.054688 C 294.195312 247.875 294.445312 246.308594 295.714844 245.789062 L 295.773438 245.765625 L 295.820312 245.753906 L 295.875 245.730469 L 296.046875 245.6875 L 296.148438 245.664062 L 296.273438 245.664062 L 296.292969 245.652344 Z M 296.679688 245.652344 Z M 296.328125 246.34375 C 295.375 246.457031 295.09375 247.601562 295.023438 248.375 L 295.023438 248.679688 L 295.003906 248.703125 L 295.003906 250.277344 C 295.070312 251.09375 295.125 252.148438 295.875 252.695312 C 296.566406 253.171875 297.484375 252.636719 297.679688 251.898438 C 297.882812 251.355469 297.925781 250.824219 297.972656 250.277344 L 297.972656 248.703125 C 297.90625 247.875 297.792969 246.71875 296.839844 246.390625 L 296.757812 246.367188 L 296.738281 246.34375 L 296.636719 246.34375 L 296.613281 246.320312 L 296.351562 246.320312 Z M 296.328125 246.34375 Z M 296.328125 246.34375 "/>
<path style=" stroke:none;fill-rule:nonzero;fill:rgb(0%,0%,0%);fill-opacity:1;" d="M 301.363281 252.386719 L 301.363281 253.292969 L 300.445312 253.292969 L 300.445312 252.386719 Z M 301.363281 252.386719 Z M 301.363281 252.386719 "/>
<path style=" stroke:none;fill-rule:nonzero;fill:rgb(0%,0%,0%);fill-opacity:1;" d="M 305.511719 245.652344 C 306.714844 245.699219 307.847656 246.992188 307.371094 248.191406 C 307.167969 248.746094 306.601562 249.089844 306.136719 249.328125 C 307.292969 249.667969 307.996094 251.015625 307.472656 252.125 C 306.929688 253.566406 304.867188 254.019531 303.734375 252.976562 C 302.699219 252.160156 302.667969 250.390625 303.8125 249.667969 C 303.980469 249.484375 304.300781 249.429688 304.445312 249.292969 C 303.460938 249.007812 302.792969 247.863281 303.257812 246.898438 C 303.628906 246.039062 304.59375 245.5625 305.511719 245.652344 Z M 305.511719 245.652344 Z M 305.082031 246.300781 C 304.242188 246.320312 303.652344 247.273438 303.9375 248.023438 C 304.265625 249.316406 306.429688 249.269531 306.679688 247.941406 C 306.90625 247.207031 306.316406 246.320312 305.511719 246.300781 L 305.492188 246.289062 L 305.105469 246.289062 Z M 305.082031 246.300781 Z M 305.105469 249.667969 C 304.117188 249.734375 303.628906 250.914062 303.890625 251.753906 C 304.0625 252.941406 305.761719 253.292969 306.429688 252.34375 C 307.078125 251.46875 306.761719 249.90625 305.59375 249.667969 L 305.492188 249.667969 L 305.46875 249.644531 L 305.117188 249.644531 Z M 305.105469 249.667969 Z M 305.105469 249.667969 "/>
<path style=" stroke:none;fill-rule:nonzero;fill:rgb(0%,0%,0%);fill-opacity:1;" d="M 327.222656 245.652344 L 327.222656 252.648438 L 327.234375 252.671875 L 328.628906 252.671875 L 328.628906 253.292969 L 324.941406 253.292969 L 324.941406 252.671875 L 326.339844 252.671875 L 326.359375 252.648438 L 326.359375 246.773438 C 325.882812 246.933594 325.386719 247.035156 324.886719 247.023438 L 324.886719 246.390625 C 325.636719 246.402344 326.453125 246.195312 327.019531 245.652344 Z M 327.222656 245.652344 Z M 327.222656 245.652344 "/>
<path style=" stroke:none;fill-rule:nonzero;fill:rgb(0%,0%,0%);fill-opacity:1;" d="M 331.554688 252.386719 L 331.554688 253.292969 L 330.636719 253.292969 L 330.636719 252.386719 Z M 331.554688 252.386719 Z M 331.554688 252.386719 "/>
<path style=" stroke:none;fill-rule:nonzero;fill:rgb(0%,0%,0%);fill-opacity:1;" d="M 335.679688 245.652344 C 336.757812 245.730469 337.472656 246.71875 337.664062 247.714844 C 337.765625 248.167969 337.789062 248.601562 337.835938 249.054688 L 337.835938 250.210938 C 337.777344 251.390625 337.496094 252.941406 336.214844 253.417969 C 335.101562 253.863281 333.796875 253.171875 333.46875 252.035156 C 333.21875 251.433594 333.199219 250.824219 333.140625 250.210938 L 333.140625 249.054688 C 333.199219 247.875 333.445312 246.308594 334.71875 245.789062 L 334.773438 245.765625 L 334.820312 245.753906 L 334.875 245.730469 L 335.046875 245.6875 L 335.148438 245.664062 L 335.273438 245.664062 L 335.296875 245.652344 Z M 335.679688 245.652344 Z M 335.328125 246.34375 C 334.378906 246.457031 334.09375 247.601562 334.027344 248.375 L 334.027344 248.679688 L 334.003906 248.703125 L 334.003906 250.277344 C 334.070312 251.09375 334.128906 252.148438 334.875 252.695312 C 335.566406 253.171875 336.484375 252.636719 336.679688 251.898438 C 336.882812 251.355469 336.929688 250.824219 336.972656 250.277344 L 336.972656 248.703125 C 336.90625 247.875 336.792969 246.71875 335.839844 246.390625 L 335.761719 246.367188 L 335.738281 246.34375 L 335.636719 246.34375 L 335.613281 246.320312 L 335.351562 246.320312 Z M 335.328125 246.34375 Z M 335.328125 246.34375 "/>
<path style="fill:none;stroke-width:0.02;stroke-linecap:butt;stroke-linejoin:miter;stroke:rgb(0%,0%,0%);stroke-opacity:1;stroke-miterlimit:10;" d="M 2.059065 8.769041 L 2.059065 8.618972 " transform="matrix(28.346457,0,0,-28.346457,1,256.11811)"/>
<path style="fill:none;stroke-width:0.02;stroke-linecap:butt;stroke-linejoin:miter;stroke:rgb(0%,0%,0%);stroke-opacity:1;stroke-miterlimit:10;" d="M 3.12415 8.769041 L 3.12415 8.618972 " transform="matrix(28.346457,0,0,-28.346457,1,256.11811)"/>
<path style="fill:none;stroke-width:0.02;stroke-linecap:butt;stroke-linejoin:miter;stroke:rgb(0%,0%,0%);stroke-opacity:1;stroke-miterlimit:10;" d="M 4.189236 8.769041 L 4.189236 8.618972 " transform="matrix(28.346457,0,0,-28.346457,1,256.11811)"/>
<path style="fill:none;stroke-width:0.02;stroke-linecap:butt;stroke-linejoin:miter;stroke:rgb(0%,0%,0%);stroke-opacity:1;stroke-miterlimit:10;" d="M 5.254184 8.769041 L 5.254184 8.618972 " transform="matrix(28.346457,0,0,-28.346457,1,256.11811)"/>
<path style="fill:none;stroke-width:0.02;stroke-linecap:butt;stroke-linejoin:miter;stroke:rgb(0%,0%,0%);stroke-opacity:1;stroke-miterlimit:10;" d="M 6.31927 8.769041 L 6.31927 8.618972 " transform="matrix(28.346457,0,0,-28.346457,1,256.11811)"/>
<path style="fill:none;stroke-width:0.02;stroke-linecap:butt;stroke-linejoin:miter;stroke:rgb(0%,0%,0%);stroke-opacity:1;stroke-miterlimit:10;" d="M 7.384355 8.769041 L 7.384355 8.618972 " transform="matrix(28.346457,0,0,-28.346457,1,256.11811)"/>
<path style="fill:none;stroke-width:0.02;stroke-linecap:butt;stroke-linejoin:miter;stroke:rgb(0%,0%,0%);stroke-opacity:1;stroke-miterlimit:10;" d="M 8.449441 8.769041 L 8.449441 8.618972 " transform="matrix(28.346457,0,0,-28.346457,1,256.11811)"/>
<path style="fill:none;stroke-width:0.02;stroke-linecap:butt;stroke-linejoin:miter;stroke:rgb(0%,0%,0%);stroke-opacity:1;stroke-miterlimit:10;" d="M 9.514527 8.769041 L 9.514527 8.618972 " transform="matrix(28.346457,0,0,-28.346457,1,256.11811)"/>
<path style="fill:none;stroke-width:0.02;stroke-linecap:butt;stroke-linejoin:miter;stroke:rgb(0%,0%,0%);stroke-opacity:1;stroke-miterlimit:10;" d="M 10.579475 8.769041 L 10.579475 8.618972 " transform="matrix(28.346457,0,0,-28.346457,1,256.11811)"/>
<path style="fill:none;stroke-width:0.02;stroke-linecap:round;stroke-linejoin:miter;stroke:rgb(0%,0%,0%);stroke-opacity:1;stroke-miterlimit:10;" d="M 0.993979 8.769041 L 11.644561 8.769041 " transform="matrix(28.346457,0,0,-28.346457,1,256.11811)"/>
<path style="fill:none;stroke-width:0.05;stroke-linecap:butt;stroke-linejoin:miter;stroke:rgb(33%,47%,64%);stroke-opacity:1;stroke-miterlimit:10;" d="M 0.993979 1.971454 L 1.029808 1.988955 L 1.065775 2.006594 L 1.101604 2.024233 L 1.173262 2.060062 L 1.209229 2.077976 L 1.245058 2.095064 L 1.280887 2.111187 L 1.316715 2.126759 L 1.352544 2.14109 L 1.388511 2.153493 L 1.42434 2.164655 L 1.460169 2.174026 L 1.495998 2.180916 L 1.531965 2.186015 L 1.567794 2.188771 L 1.603623 2.188908 L 1.639452 2.186428 L 1.675419 2.181605 L 1.711248 2.173888 L 1.747077 2.163415 L 1.782906 2.150323 L 1.818735 2.134889 L 1.854702 2.116424 L 1.890531 2.095753 L 1.92636 2.073015 L 1.962189 2.047797 L 1.998155 2.020788 L 2.033984 1.992676 L 2.069813 1.962359 L 2.141471 1.899245 L 2.177438 1.86755 L 2.213267 1.835855 L 2.249096 1.804298 L 2.284925 1.772603 L 2.320892 1.742424 L 2.356721 1.714588 L 2.39255 1.687854 L 2.428379 1.663325 L 2.464346 1.642378 L 2.500175 1.623775 L 2.536004 1.608479 L 2.571833 1.597454 L 2.607662 1.590013 L 2.643628 1.586568 L 2.679457 1.587946 L 2.715286 1.593734 L 2.751115 1.603931 L 2.787082 1.61909 L 2.822911 1.639071 L 2.85874 1.6636 L 2.894569 1.692401 L 2.930536 1.726301 L 2.966365 1.764059 L 3.002194 1.805263 L 3.038023 1.850876 L 3.073852 1.89952 L 3.109819 1.949957 L 3.145648 2.003838 L 3.181477 2.059786 L 3.217306 2.11601 L 3.253273 2.171959 L 3.289102 2.227907 L 3.36076 2.339252 L 3.396726 2.392031 L 3.432555 2.440676 L 3.468384 2.487254 L 3.504213 2.529559 L 3.540042 2.565664 L 3.576009 2.597635 L 3.611838 2.623542 L 3.647667 2.641732 L 3.683496 2.653721 L 3.719463 2.658406 L 3.755292 2.65441 L 3.791121 2.642559 L 3.82695 2.622715 L 3.862917 2.594052 L 3.898746 2.556707 L 3.934575 2.511232 L 3.970404 2.457764 L 4.006233 2.395339 L 4.042199 2.32561 L 4.078028 2.249542 L 4.113857 2.165482 L 4.149686 2.075634 L 4.185653 1.982203 L 4.221482 1.882157 L 4.257311 1.777564 L 4.29314 1.672833 L 4.328969 1.567827 L 4.364936 1.462407 L 4.400765 1.356711 L 4.436594 1.251291 L 4.472423 1.150419 L 4.50839 1.056161 L 4.544219 0.965486 L 4.580048 0.882115 L 4.615877 0.809906 L 4.651844 0.745138 L 4.687673 0.691257 L 4.723502 0.651982 L 4.759331 0.624008 L 4.790474 0.612019 " transform="matrix(28.346457,0,0,-28.346457,1,256.11811)"/>
<path style="fill:none;stroke-width:0.05;stroke-linecap:butt;stroke-linejoin:miter;stroke:rgb(33%,47%,64%);stroke-opacity:1;stroke-miterlimit:10;" d="M 4.815141 0.612019 L 4.831126 0.613535 L 4.866955 0.631587 L 4.902784 0.666176 L 4.938613 0.719644 L 4.97458 0.790475 L 5.010409 0.879083 L 5.046238 0.986846 L 5.082067 1.113487 L 5.118034 1.258044 L 5.153863 1.420652 L 5.189692 1.602415 L 5.225521 1.800991 L 5.26135 2.014724 L 5.297317 2.246648 L 5.333146 2.492766 L 5.368975 2.750183 L 5.404804 3.023173 L 5.44077 3.306635 L 5.476599 3.596299 L 5.512428 3.897676 L 5.548257 4.206908 L 5.584224 4.516553 L 5.620053 4.826611 L 5.655882 5.137635 L 5.691711 5.448933 L 5.72754 5.759957 L 5.763507 6.063538 L 5.799336 6.356785 L 5.835165 6.644382 L 5.870994 6.920678 L 5.906961 7.180025 L 5.94279 7.427796 L 5.978619 7.659444 L 6.014448 7.869457 L 6.050277 8.062521 L 6.086243 8.235051 L 6.122072 8.382914 L 6.157901 8.509143 L 6.19373 8.611944 L 6.229697 8.688288 L 6.265526 8.739826 L 6.301355 8.766285 L 6.337184 8.766285 L 6.373151 8.739826 L 6.40898 8.688288 L 6.444809 8.611944 L 6.480638 8.509143 L 6.516467 8.382914 L 6.552434 8.235051 L 6.588263 8.062521 L 6.624092 7.869457 L 6.659921 7.659444 L 6.695888 7.427796 L 6.731717 7.180025 L 6.767546 6.920678 L 6.803375 6.644382 L 6.839341 6.356785 L 6.87517 6.063538 L 6.910999 5.759957 L 6.946828 5.448933 L 6.982657 5.137635 L 7.018624 4.826611 L 7.054453 4.516553 L 7.090282 4.206908 L 7.126111 3.897676 L 7.162078 3.596299 L 7.197907 3.306635 L 7.233736 3.023173 L 7.269565 2.750183 L 7.305532 2.492766 L 7.341361 2.246648 L 7.37719 2.014724 L 7.413019 1.800991 L 7.448848 1.602415 L 7.484814 1.420652 L 7.520643 1.258044 L 7.556472 1.113487 L 7.592301 0.986846 L 7.628268 0.879083 L 7.664097 0.790475 L 7.699926 0.719644 L 7.735755 0.666176 L 7.771722 0.631587 L 7.807551 0.613535 L 7.823536 0.612019 " transform="matrix(28.346457,0,0,-28.346457,1,256.11811)"/>
<path style="fill:none;stroke-width:0.05;stroke-linecap:butt;stroke-linejoin:miter;stroke:rgb(33%,47%,64%);stroke-opacity:1;stroke-miterlimit:10;" d="M 7.848203 0.612019 L 7.879209 0.624008 L 7.915038 0.651982 L 7.951005 0.691257 L 7.986834 0.745138 L 8.022663 0.809906 L 8.058492 0.882115 L 8.094459 0.965486 L 8.130288 1.056161 L 8.166117 1.150419 L 8.201946 1.251291 L 8.237775 1.356711 L 8.273741 1.462407 L 8.30957 1.567827 L 8.345399 1.672833 L 8.381228 1.777564 L 8.417195 1.882157 L 8.453024 1.982203 L 8.488853 2.075634 L 8.524682 2.165482 L 8.560649 2.249542 L 8.596478 2.32561 L 8.632307 2.395339 L 8.668136 2.457764 L 8.703965 2.511232 L 8.739932 2.556707 L 8.775761 2.594052 L 8.81159 2.622715 L 8.847419 2.642559 L 8.883385 2.65441 L 8.919214 2.658406 L 8.955043 2.653721 L 8.990872 2.641732 L 9.026839 2.623542 L 9.062668 2.597635 L 9.098497 2.565664 L 9.134326 2.529559 L 9.170155 2.487254 L 9.206122 2.440676 L 9.241951 2.392031 L 9.27778 2.339252 L 9.313609 2.28358 L 9.349576 2.227907 L 9.421234 2.11601 L 9.457063 2.059786 L 9.49303 2.003838 L 9.528859 1.949957 L 9.564687 1.89952 L 9.600516 1.850876 L 9.636345 1.805263 L 9.672312 1.764059 L 9.708141 1.726301 L 9.74397 1.692401 L 9.779799 1.6636 L 9.815766 1.639071 L 9.851595 1.61909 L 9.887424 1.603931 L 9.923253 1.593734 L 9.95922 1.587946 L 9.995049 1.586568 L 10.030878 1.590013 L 10.066707 1.597454 L 10.102536 1.608479 L 10.138503 1.623775 L 10.174332 1.642378 L 10.210161 1.663325 L 10.24599 1.687854 L 10.281956 1.714588 L 10.317785 1.742424 L 10.353614 1.772603 L 10.389443 1.804298 L 10.425272 1.835855 L 10.461239 1.86755 L 10.497068 1.899245 L 10.568726 1.962359 L 10.604693 1.992676 L 10.640522 2.020788 L 10.676351 2.047797 L 10.71218 2.073015 L 10.748147 2.095753 L 10.783976 2.116424 L 10.819805 2.134889 L 10.855634 2.150323 L 10.891463 2.163415 L 10.927429 2.173888 L 10.963258 2.181605 L 10.999087 2.186428 L 11.034916 2.188908 L 11.070883 2.188771 L 11.106712 2.186015 L 11.142541 2.180916 L 11.17837 2.174026 L 11.214337 2.164655 L 11.250166 2.153493 L 11.285995 2.14109 L 11.321824 2.126759 L 11.357653 2.111187 L 11.39362 2.095064 L 11.429449 2.077976 L 11.501107 2.042147 L 11.537074 2.024233 L 11.608732 1.988955 L 11.644561 1.971454 " transform="matrix(28.346457,0,0,-28.346457,1,256.11811)"/>
</g>
</svg>
