<?xml version="1.0" encoding="UTF-8"?>
<svg xmlns="http://www.w3.org/2000/svg" xmlns:xlink="http://www.w3.org/1999/xlink" width="342.15748pt" height="257.11811pt" viewBox="0 0 342.15748 257.11811" version="1.1">
<g id="surface1">
<path style=" stroke:none;fill-rule:nonzero;fill:rgb(100%,100%,100%);fill-opacity:1;" d="M -0.417969 257.535156 L 342.574219 257.535156 L 342.574219 -0.417969 L -0.417969 -0.417969 Z M -0.417969 257.535156 "/>
<path style="fill:none;stroke-width:0.02;stroke-linecap:butt;stroke-linejoin:miter;stroke:rgb(0%,0%,0%);stroke-opacity:1;stroke-miterlimit:10;" d="M 0.645749 1.579816 L 0.750755 1.579816 " transform="matrix(28.346457,0,0,-28.346457,1,256.11811)"/>
<path style="fill:none;stroke-width:0.02;stroke-linecap:butt;stroke-linejoin:miter;stroke:rgb(0%,0%,0%);stroke-opacity:1;stroke-miterlimit:10;" d="M 0.645749 2.781189 L 0.750755 2.781189 " transform="matrix(28.346457,0,0,-28.346457,1,256.11811)"/>
<path style="fill:none;stroke-width:0.02;stroke-linecap:butt;stroke-linejoin:miter;stroke:rgb(0%,0%,0%);stroke-opacity:1;stroke-miterlimit:10;" d="M 0.645749 3.982701 L 0.750755 3.982701 " transform="matrix(28.346457,0,0,-28.346457,1,256.11811)"/>
<path style="fill:none;stroke-width:0.02;stroke-linecap:butt;stroke-linejoin:miter;stroke:rgb(0%,0%,0%);stroke-opacity:1;stroke-miterlimit:10;" d="M 0.645749 5.184074 L 0.750755 5.184074 " transform="matrix(28.346457,0,0,-28.346457,1,256.11811)"/>
<path style="fill:none;stroke-width:0.02;stroke-linecap:butt;stroke-linejoin:miter;stroke:rgb(0%,0%,0%);stroke-opacity:1;stroke-miterlimit:10;" d="M 0.645749 6.385448 L 0.750755 6.385448 " transform="matrix(28.346457,0,0,-28.346457,1,256.11811)"/>
<path style="fill:none;stroke-width:0.02;stroke-linecap:butt;stroke-linejoin:miter;stroke:rgb(0%,0%,0%);stroke-opacity:1;stroke-miterlimit:10;" d="M 0.645749 7.586822 L 0.750755 7.586822 " transform="matrix(28.346457,0,0,-28.346457,1,256.11811)"/>
<path style="fill:none;stroke-width:0.02;stroke-linecap:round;stroke-linejoin:miter;stroke:rgb(0%,0%,0%);stroke-opacity:1;stroke-miterlimit:10;" d="M 0.645749 0.378442 L 0.645749 8.788333 " transform="matrix(28.346457,0,0,-28.346457,1,256.11811)"/>
<path style=" stroke:none;fill-rule:nonzero;fill:rgb(0%,0%,0%);fill-opacity:1;" d="M 3.742188 246.03125 L 3.742188 246.476562 L 1.664062 246.476562 L 1.664062 246.03125 Z M 3.742188 246.03125 Z M 3.742188 246.03125 "/>
<path style=" stroke:none;fill-rule:nonzero;fill:rgb(0%,0%,0%);fill-opacity:1;" d="M 6.328125 242.648438 C 7.082031 242.707031 7.582031 243.394531 7.71875 244.09375 C 7.789062 244.410156 7.804688 244.714844 7.835938 245.03125 L 7.835938 245.839844 C 7.796875 246.664062 7.597656 247.753906 6.703125 248.085938 C 5.925781 248.394531 5.011719 247.910156 4.78125 247.117188 C 4.605469 246.699219 4.589844 246.269531 4.550781 245.839844 L 4.550781 245.03125 C 4.589844 244.207031 4.765625 243.109375 5.65625 242.746094 L 5.695312 242.730469 L 5.726562 242.722656 L 5.765625 242.707031 L 5.882812 242.671875 L 5.957031 242.65625 L 6.042969 242.65625 L 6.058594 242.648438 Z M 6.328125 242.648438 Z M 6.082031 243.132812 C 5.417969 243.214844 5.21875 244.015625 5.171875 244.554688 L 5.171875 244.769531 L 5.15625 244.785156 L 5.15625 245.886719 C 5.203125 246.460938 5.242188 247.199219 5.765625 247.578125 C 6.25 247.910156 6.894531 247.539062 7.027344 247.023438 C 7.171875 246.640625 7.203125 246.269531 7.234375 245.886719 L 7.234375 244.785156 C 7.1875 244.207031 7.105469 243.394531 6.441406 243.164062 L 6.382812 243.148438 L 6.367188 243.132812 L 6.296875 243.132812 L 6.28125 243.117188 L 6.097656 243.117188 Z M 6.082031 243.132812 Z M 6.082031 243.132812 "/>
<path style=" stroke:none;fill-rule:nonzero;fill:rgb(0%,0%,0%);fill-opacity:1;" d="M 9.605469 247.363281 L 9.605469 248 L 8.964844 248 L 8.964844 247.363281 Z M 9.605469 247.363281 Z M 9.605469 247.363281 "/>
<path style=" stroke:none;fill-rule:nonzero;fill:rgb(0%,0%,0%);fill-opacity:1;" d="M 13.3125 242.816406 L 13.3125 246.15625 L 13.328125 246.171875 L 14.117188 246.171875 L 14.117188 246.648438 L 13.328125 246.648438 L 13.3125 246.65625 L 13.3125 248 L 12.710938 248 L 12.710938 246.65625 L 12.695312 246.648438 L 10.597656 246.648438 L 10.597656 246.15625 C 11.265625 245.046875 11.933594 243.925781 12.597656 242.816406 Z M 13.3125 242.816406 Z M 12.726562 243.117188 C 12.566406 243.941406 12.058594 244.648438 11.679688 245.371094 C 11.527344 245.632812 11.328125 245.917969 11.21875 246.171875 L 12.742188 246.171875 L 12.75 246.15625 L 12.75 243.117188 L 12.742188 243.101562 Z M 12.726562 243.117188 Z M 12.726562 243.117188 "/>
<path style=" stroke:none;fill-rule:nonzero;fill:rgb(0%,0%,0%);fill-opacity:1;" d="M 3.742188 211.976562 L 3.742188 212.417969 L 1.664062 212.417969 L 1.664062 211.976562 Z M 3.742188 211.976562 Z M 3.742188 211.976562 "/>
<path style=" stroke:none;fill-rule:nonzero;fill:rgb(0%,0%,0%);fill-opacity:1;" d="M 6.328125 208.59375 C 7.082031 208.648438 7.582031 209.339844 7.71875 210.039062 C 7.789062 210.355469 7.804688 210.65625 7.835938 210.976562 L 7.835938 211.785156 C 7.796875 212.609375 7.597656 213.695312 6.703125 214.03125 C 5.925781 214.339844 5.011719 213.855469 4.78125 213.0625 C 4.605469 212.640625 4.589844 212.214844 4.550781 211.785156 L 4.550781 210.976562 C 4.589844 210.148438 4.765625 209.054688 5.65625 208.6875 L 5.695312 208.671875 L 5.726562 208.664062 L 5.765625 208.648438 L 5.882812 208.617188 L 5.957031 208.601562 L 6.042969 208.601562 L 6.058594 208.59375 Z M 6.328125 208.59375 Z M 6.082031 209.078125 C 5.417969 209.15625 5.21875 209.957031 5.171875 210.5 L 5.171875 210.714844 L 5.15625 210.730469 L 5.15625 211.832031 C 5.203125 212.402344 5.242188 213.140625 5.765625 213.523438 C 6.25 213.855469 6.894531 213.484375 7.027344 212.96875 C 7.171875 212.585938 7.203125 212.214844 7.234375 211.832031 L 7.234375 210.730469 C 7.1875 210.148438 7.105469 209.339844 6.441406 209.109375 L 6.382812 209.09375 L 6.367188 209.078125 L 6.296875 209.078125 L 6.28125 209.0625 L 6.097656 209.0625 Z M 6.082031 209.078125 Z M 6.082031 209.078125 "/>
<path style=" stroke:none;fill-rule:nonzero;fill:rgb(0%,0%,0%);fill-opacity:1;" d="M 9.605469 213.308594 L 9.605469 213.941406 L 8.964844 213.941406 L 8.964844 213.308594 Z M 9.605469 213.308594 Z M 9.605469 213.308594 "/>
<path style=" stroke:none;fill-rule:nonzero;fill:rgb(0%,0%,0%);fill-opacity:1;" d="M 12.410156 208.59375 C 13.328125 208.617188 14.058594 209.5625 13.917969 210.449219 C 13.820312 211.339844 12.988281 211.847656 12.394531 212.402344 L 12.140625 212.664062 L 12.105469 212.679688 L 11.789062 212.992188 L 11.765625 213.007812 L 11.449219 213.324219 L 11.417969 213.339844 L 11.34375 213.410156 L 11.359375 213.417969 L 13.933594 213.417969 L 13.933594 213.941406 L 10.789062 213.941406 L 10.789062 213.46875 L 12.066406 212.1875 C 12.679688 211.65625 13.394531 210.96875 13.28125 210.09375 C 13.21875 209.585938 12.789062 209.117188 12.265625 209.078125 C 11.734375 209 11.265625 209.417969 11.148438 209.925781 L 11.132812 209.949219 L 11.113281 210.007812 L 11.089844 210.09375 L 11.042969 210.269531 L 11.035156 210.308594 C 10.925781 210.171875 10.804688 210.03125 10.71875 209.878906 C 10.878906 209.230469 11.402344 208.617188 12.089844 208.59375 Z M 12.410156 208.59375 Z M 12.410156 208.59375 "/>
<path style=" stroke:none;fill-rule:nonzero;fill:rgb(0%,0%,0%);fill-opacity:1;" d="M 6.328125 174.539062 C 7.082031 174.59375 7.582031 175.285156 7.71875 175.984375 C 7.789062 176.300781 7.804688 176.601562 7.835938 176.917969 L 7.835938 177.730469 C 7.796875 178.554688 7.597656 179.640625 6.703125 179.976562 C 5.925781 180.285156 5.011719 179.800781 4.78125 179.007812 C 4.605469 178.585938 4.589844 178.15625 4.550781 177.730469 L 4.550781 176.917969 C 4.589844 176.09375 4.765625 175 5.65625 174.632812 L 5.695312 174.617188 L 5.726562 174.609375 L 5.765625 174.59375 L 5.882812 174.5625 L 5.957031 174.546875 L 6.042969 174.546875 L 6.058594 174.539062 Z M 6.328125 174.539062 Z M 6.082031 175.023438 C 5.417969 175.101562 5.21875 175.902344 5.171875 176.441406 L 5.171875 176.65625 L 5.15625 176.671875 L 5.15625 177.777344 C 5.203125 178.347656 5.242188 179.085938 5.765625 179.464844 C 6.25 179.800781 6.894531 179.425781 7.027344 178.910156 C 7.171875 178.53125 7.203125 178.15625 7.234375 177.777344 L 7.234375 176.671875 C 7.1875 176.09375 7.105469 175.285156 6.441406 175.054688 L 6.382812 175.039062 L 6.367188 175.023438 L 6.296875 175.023438 L 6.28125 175.007812 L 6.097656 175.007812 Z M 6.082031 175.023438 Z M 6.082031 175.023438 "/>
<path style=" stroke:none;fill-rule:nonzero;fill:rgb(0%,0%,0%);fill-opacity:1;" d="M 9.605469 179.253906 L 9.605469 179.886719 L 8.964844 179.886719 L 8.964844 179.253906 Z M 9.605469 179.253906 Z M 9.605469 179.253906 "/>
<path style=" stroke:none;fill-rule:nonzero;fill:rgb(0%,0%,0%);fill-opacity:1;" d="M 12.496094 174.539062 C 13.25 174.59375 13.75 175.285156 13.886719 175.984375 C 13.957031 176.300781 13.972656 176.601562 14.003906 176.917969 L 14.003906 177.730469 C 13.964844 178.554688 13.765625 179.640625 12.871094 179.976562 C 12.089844 180.285156 11.179688 179.800781 10.949219 179.007812 C 10.773438 178.585938 10.757812 178.15625 10.71875 177.730469 L 10.71875 176.917969 C 10.757812 176.09375 10.933594 175 11.820312 174.632812 L 11.859375 174.617188 L 11.894531 174.609375 L 11.933594 174.59375 L 12.050781 174.5625 L 12.125 174.546875 L 12.210938 174.546875 L 12.226562 174.539062 Z M 12.496094 174.539062 Z M 12.25 175.023438 C 11.582031 175.101562 11.386719 175.902344 11.335938 176.441406 L 11.335938 176.65625 L 11.320312 176.671875 L 11.320312 177.777344 C 11.367188 178.347656 11.410156 179.085938 11.933594 179.464844 C 12.417969 179.800781 13.058594 179.425781 13.195312 178.910156 C 13.335938 178.53125 13.371094 178.15625 13.402344 177.777344 L 13.402344 176.671875 C 13.351562 176.09375 13.273438 175.285156 12.605469 175.054688 L 12.550781 175.039062 L 12.535156 175.023438 L 12.464844 175.023438 L 12.449219 175.007812 L 12.265625 175.007812 Z M 12.25 175.023438 Z M 12.25 175.023438 "/>
<path style=" stroke:none;fill-rule:nonzero;fill:rgb(0%,0%,0%);fill-opacity:1;" d="M 6.328125 140.480469 C 7.082031 140.539062 7.582031 141.226562 7.71875 141.925781 C 7.789062 142.242188 7.804688 142.546875 7.835938 142.863281 L 7.835938 143.671875 C 7.796875 144.5 7.597656 145.585938 6.703125 145.917969 C 5.925781 146.226562 5.011719 145.746094 4.78125 144.949219 C 4.605469 144.53125 4.589844 144.101562 4.550781 143.671875 L 4.550781 142.863281 C 4.589844 142.039062 4.765625 140.941406 5.65625 140.578125 L 5.695312 140.5625 L 5.726562 140.554688 L 5.765625 140.539062 L 5.882812 140.507812 L 5.957031 140.488281 L 6.042969 140.488281 L 6.058594 140.480469 Z M 6.328125 140.480469 Z M 6.082031 140.964844 C 5.417969 141.046875 5.21875 141.847656 5.171875 142.386719 L 5.171875 142.601562 L 5.15625 142.617188 L 5.15625 143.71875 C 5.203125 144.292969 5.242188 145.03125 5.765625 145.410156 C 6.25 145.746094 6.894531 145.371094 7.027344 144.855469 C 7.171875 144.472656 7.203125 144.101562 7.234375 143.71875 L 7.234375 142.617188 C 7.1875 142.039062 7.105469 141.226562 6.441406 140.996094 L 6.382812 140.980469 L 6.367188 140.964844 L 6.296875 140.964844 L 6.28125 140.949219 L 6.097656 140.949219 Z M 6.082031 140.964844 Z M 6.082031 140.964844 "/>
<path style=" stroke:none;fill-rule:nonzero;fill:rgb(0%,0%,0%);fill-opacity:1;" d="M 9.605469 145.195312 L 9.605469 145.832031 L 8.964844 145.832031 L 8.964844 145.195312 Z M 9.605469 145.195312 Z M 9.605469 145.195312 "/>
<path style=" stroke:none;fill-rule:nonzero;fill:rgb(0%,0%,0%);fill-opacity:1;" d="M 12.410156 140.480469 C 13.328125 140.507812 14.058594 141.449219 13.917969 142.339844 C 13.820312 143.226562 12.988281 143.734375 12.394531 144.292969 L 12.140625 144.554688 L 12.105469 144.570312 L 11.789062 144.878906 L 11.765625 144.894531 L 11.449219 145.210938 L 11.417969 145.226562 L 11.34375 145.300781 L 11.359375 145.308594 L 13.933594 145.308594 L 13.933594 145.832031 L 10.789062 145.832031 L 10.789062 145.355469 L 12.066406 144.078125 C 12.679688 143.546875 13.394531 142.855469 13.28125 141.980469 C 13.21875 141.472656 12.789062 141.007812 12.265625 140.964844 C 11.734375 140.886719 11.265625 141.308594 11.148438 141.816406 L 11.132812 141.839844 L 11.113281 141.894531 L 11.089844 141.980469 L 11.042969 142.15625 L 11.035156 142.195312 C 10.925781 142.0625 10.804688 141.917969 10.71875 141.769531 C 10.878906 141.117188 11.402344 140.507812 12.089844 140.480469 Z M 12.410156 140.480469 Z M 12.410156 140.480469 "/>
<path style=" stroke:none;fill-rule:nonzero;fill:rgb(0%,0%,0%);fill-opacity:1;" d="M 6.328125 106.425781 C 7.082031 106.480469 7.582031 107.171875 7.71875 107.871094 C 7.789062 108.1875 7.804688 108.488281 7.835938 108.808594 L 7.835938 109.617188 C 7.796875 110.441406 7.597656 111.53125 6.703125 111.863281 C 5.925781 112.171875 5.011719 111.6875 4.78125 110.894531 C 4.605469 110.472656 4.589844 110.046875 4.550781 109.617188 L 4.550781 108.808594 C 4.589844 107.980469 4.765625 106.886719 5.65625 106.519531 L 5.695312 106.503906 L 5.726562 106.496094 L 5.765625 106.480469 L 5.882812 106.449219 L 5.957031 106.433594 L 6.042969 106.433594 L 6.058594 106.425781 Z M 6.328125 106.425781 Z M 6.082031 106.910156 C 5.417969 106.988281 5.21875 107.792969 5.171875 108.332031 L 5.171875 108.546875 L 5.15625 108.5625 L 5.15625 109.664062 C 5.203125 110.234375 5.242188 110.972656 5.765625 111.355469 C 6.25 111.6875 6.894531 111.316406 7.027344 110.800781 C 7.171875 110.417969 7.203125 110.046875 7.234375 109.664062 L 7.234375 108.5625 C 7.1875 107.980469 7.105469 107.171875 6.441406 106.941406 L 6.382812 106.925781 L 6.367188 106.910156 L 6.296875 106.910156 L 6.28125 106.894531 L 6.097656 106.894531 Z M 6.082031 106.910156 Z M 6.082031 106.910156 "/>
<path style=" stroke:none;fill-rule:nonzero;fill:rgb(0%,0%,0%);fill-opacity:1;" d="M 9.605469 111.140625 L 9.605469 111.777344 L 8.964844 111.777344 L 8.964844 111.140625 Z M 9.605469 111.140625 Z M 9.605469 111.140625 "/>
<path style=" stroke:none;fill-rule:nonzero;fill:rgb(0%,0%,0%);fill-opacity:1;" d="M 13.3125 106.59375 L 13.3125 109.933594 L 13.328125 109.949219 L 14.117188 109.949219 L 14.117188 110.425781 L 13.328125 110.425781 L 13.3125 110.433594 L 13.3125 111.777344 L 12.710938 111.777344 L 12.710938 110.433594 L 12.695312 110.425781 L 10.597656 110.425781 L 10.597656 109.933594 C 11.265625 108.824219 11.933594 107.703125 12.597656 106.59375 Z M 13.3125 106.59375 Z M 12.726562 106.894531 C 12.566406 107.71875 12.058594 108.425781 11.679688 109.148438 C 11.527344 109.410156 11.328125 109.695312 11.21875 109.949219 L 12.742188 109.949219 L 12.75 109.933594 L 12.75 106.894531 L 12.742188 106.878906 Z M 12.726562 106.894531 Z M 12.726562 106.894531 "/>
<path style=" stroke:none;fill-rule:nonzero;fill:rgb(0%,0%,0%);fill-opacity:1;" d="M 6.328125 72.371094 C 7.082031 72.425781 7.582031 73.117188 7.71875 73.816406 C 7.789062 74.132812 7.804688 74.433594 7.835938 74.75 L 7.835938 75.5625 C 7.796875 76.386719 7.597656 77.472656 6.703125 77.808594 C 5.925781 78.117188 5.011719 77.632812 4.78125 76.839844 C 4.605469 76.417969 4.589844 75.988281 4.550781 75.5625 L 4.550781 74.75 C 4.589844 73.925781 4.765625 72.832031 5.65625 72.464844 L 5.695312 72.449219 L 5.726562 72.441406 L 5.765625 72.425781 L 5.882812 72.394531 L 5.957031 72.378906 L 6.042969 72.378906 L 6.058594 72.371094 Z M 6.328125 72.371094 Z M 6.082031 72.855469 C 5.417969 72.933594 5.21875 73.734375 5.171875 74.273438 L 5.171875 74.488281 L 5.15625 74.503906 L 5.15625 75.609375 C 5.203125 76.179688 5.242188 76.917969 5.765625 77.300781 C 6.25 77.632812 6.894531 77.257812 7.027344 76.742188 C 7.171875 76.363281 7.203125 75.988281 7.234375 75.609375 L 7.234375 74.503906 C 7.1875 73.925781 7.105469 73.117188 6.441406 72.886719 L 6.382812 72.871094 L 6.367188 72.855469 L 6.296875 72.855469 L 6.28125 72.839844 L 6.097656 72.839844 Z M 6.082031 72.855469 Z M 6.082031 72.855469 "/>
<path style=" stroke:none;fill-rule:nonzero;fill:rgb(0%,0%,0%);fill-opacity:1;" d="M 9.605469 77.085938 L 9.605469 77.71875 L 8.964844 77.71875 L 8.964844 77.085938 Z M 9.605469 77.085938 Z M 9.605469 77.085938 "/>
<path style=" stroke:none;fill-rule:nonzero;fill:rgb(0%,0%,0%);fill-opacity:1;" d="M 13.011719 72.371094 C 13.21875 72.402344 13.457031 72.425781 13.65625 72.519531 L 13.65625 72.980469 C 13.105469 72.742188 12.394531 72.710938 11.964844 73.195312 C 11.582031 73.601562 11.410156 74.203125 11.394531 74.734375 C 11.851562 74.125 12.894531 73.78125 13.457031 74.417969 C 14.019531 75.070312 14.117188 76.003906 13.863281 76.800781 C 13.582031 77.433594 12.941406 78.011719 12.226562 77.878906 C 11.257812 77.800781 10.820312 76.71875 10.773438 75.894531 C 10.589844 74.726562 10.867188 73.257812 11.980469 72.59375 L 11.996094 72.585938 L 12.164062 72.496094 L 12.210938 72.480469 L 12.234375 72.464844 L 12.480469 72.394531 L 12.550781 72.378906 L 12.640625 72.378906 L 12.65625 72.371094 Z M 13.011719 72.371094 Z M 12.234375 74.578125 C 11.542969 74.695312 11.320312 75.53125 11.410156 76.09375 C 11.449219 76.625 11.65625 77.332031 12.265625 77.441406 C 12.917969 77.53125 13.335938 76.832031 13.351562 76.265625 C 13.386719 75.695312 13.351562 75.046875 12.851562 74.671875 L 12.742188 74.617188 L 12.65625 74.59375 L 12.582031 74.578125 L 12.566406 74.5625 L 12.25 74.5625 Z M 12.234375 74.578125 Z M 12.234375 74.578125 "/>
<path style=" stroke:none;fill-rule:nonzero;fill:rgb(0%,0%,0%);fill-opacity:1;" d="M 6.328125 38.316406 C 7.082031 38.371094 7.582031 39.0625 7.71875 39.757812 C 7.789062 40.078125 7.804688 40.378906 7.835938 40.695312 L 7.835938 41.503906 C 7.796875 42.332031 7.597656 43.417969 6.703125 43.75 C 5.925781 44.0625 5.011719 43.578125 4.78125 42.78125 C 4.605469 42.363281 4.589844 41.933594 4.550781 41.503906 L 4.550781 40.695312 C 4.589844 39.871094 4.765625 38.773438 5.65625 38.410156 L 5.695312 38.394531 L 5.726562 38.386719 L 5.765625 38.371094 L 5.882812 38.339844 L 5.957031 38.324219 L 6.042969 38.324219 L 6.058594 38.316406 Z M 6.328125 38.316406 Z M 6.082031 38.796875 C 5.417969 38.878906 5.21875 39.679688 5.171875 40.21875 L 5.171875 40.433594 L 5.15625 40.449219 L 5.15625 41.554688 C 5.203125 42.125 5.242188 42.863281 5.765625 43.242188 C 6.25 43.578125 6.894531 43.203125 7.027344 42.6875 C 7.171875 42.308594 7.203125 41.933594 7.234375 41.554688 L 7.234375 40.449219 C 7.1875 39.871094 7.105469 39.0625 6.441406 38.832031 L 6.382812 38.816406 L 6.367188 38.796875 L 6.296875 38.796875 L 6.28125 38.78125 L 6.097656 38.78125 Z M 6.082031 38.796875 Z M 6.082031 38.796875 "/>
<path style=" stroke:none;fill-rule:nonzero;fill:rgb(0%,0%,0%);fill-opacity:1;" d="M 9.605469 43.027344 L 9.605469 43.664062 L 8.964844 43.664062 L 8.964844 43.027344 Z M 9.605469 43.027344 Z M 9.605469 43.027344 "/>
<path style=" stroke:none;fill-rule:nonzero;fill:rgb(0%,0%,0%);fill-opacity:1;" d="M 12.511719 38.316406 C 13.351562 38.347656 14.148438 39.25 13.8125 40.09375 C 13.671875 40.480469 13.273438 40.71875 12.949219 40.886719 C 13.757812 41.125 14.25 42.070312 13.886719 42.847656 C 13.503906 43.855469 12.058594 44.171875 11.265625 43.441406 C 10.542969 42.871094 10.519531 41.632812 11.320312 41.125 C 11.441406 40.996094 11.664062 40.957031 11.765625 40.863281 C 11.074219 40.664062 10.605469 39.863281 10.933594 39.1875 C 11.195312 38.585938 11.871094 38.25 12.511719 38.316406 Z M 12.511719 38.316406 Z M 12.210938 38.765625 C 11.625 38.78125 11.210938 39.449219 11.410156 39.972656 C 11.640625 40.878906 13.15625 40.847656 13.328125 39.917969 C 13.488281 39.402344 13.074219 38.78125 12.511719 38.765625 L 12.496094 38.757812 L 12.226562 38.757812 Z M 12.210938 38.765625 Z M 12.226562 41.125 C 11.535156 41.171875 11.195312 41.996094 11.378906 42.585938 C 11.496094 43.417969 12.6875 43.664062 13.15625 42.996094 C 13.605469 42.386719 13.386719 41.289062 12.566406 41.125 L 12.496094 41.125 L 12.480469 41.109375 L 12.234375 41.109375 Z M 12.226562 41.125 Z M 12.226562 41.125 "/>
<path style=" stroke:none;fill-rule:nonzero;fill:rgb(0%,0%,0%);fill-opacity:1;" d="M 6.574219 4.257812 L 6.574219 9.15625 L 6.582031 9.171875 L 7.558594 9.171875 L 7.558594 9.609375 L 4.980469 9.609375 L 4.980469 9.171875 L 5.957031 9.171875 L 5.972656 9.15625 L 5.972656 5.042969 C 5.636719 5.15625 5.289062 5.226562 4.941406 5.21875 L 4.941406 4.773438 C 5.464844 4.78125 6.035156 4.640625 6.433594 4.257812 Z M 6.574219 4.257812 Z M 6.574219 4.257812 "/>
<path style=" stroke:none;fill-rule:nonzero;fill:rgb(0%,0%,0%);fill-opacity:1;" d="M 9.605469 8.972656 L 9.605469 9.609375 L 8.964844 9.609375 L 8.964844 8.972656 Z M 9.605469 8.972656 Z M 9.605469 8.972656 "/>
<path style=" stroke:none;fill-rule:nonzero;fill:rgb(0%,0%,0%);fill-opacity:1;" d="M 12.496094 4.257812 C 13.25 4.3125 13.75 5.003906 13.886719 5.703125 C 13.957031 6.019531 13.972656 6.324219 14.003906 6.640625 L 14.003906 7.449219 C 13.964844 8.273438 13.765625 9.363281 12.871094 9.695312 C 12.089844 10.003906 11.179688 9.519531 10.949219 8.726562 C 10.773438 8.304688 10.757812 7.878906 10.71875 7.449219 L 10.71875 6.640625 C 10.757812 5.8125 10.933594 4.71875 11.820312 4.355469 L 11.859375 4.339844 L 11.894531 4.332031 L 11.933594 4.3125 L 12.050781 4.28125 L 12.125 4.265625 L 12.210938 4.265625 L 12.226562 4.257812 Z M 12.496094 4.257812 Z M 12.25 4.742188 C 11.582031 4.820312 11.386719 5.625 11.335938 6.164062 L 11.335938 6.378906 L 11.320312 6.394531 L 11.320312 7.496094 C 11.367188 8.070312 11.410156 8.804688 11.933594 9.1875 C 12.417969 9.519531 13.058594 9.148438 13.195312 8.632812 C 13.335938 8.25 13.371094 7.878906 13.402344 7.496094 L 13.402344 6.394531 C 13.351562 5.8125 13.273438 5.003906 12.605469 4.773438 L 12.550781 4.757812 L 12.535156 4.742188 L 12.464844 4.742188 L 12.449219 4.726562 L 12.265625 4.726562 Z M 12.25 4.742188 Z M 12.25 4.742188 "/>
<path style="fill:none;stroke-width:0.02;stroke-linecap:butt;stroke-linejoin:miter;stroke:rgb(0%,0%,0%);stroke-opacity:1;stroke-miterlimit:10;" d="M 11.701198 1.579816 L 11.596191 1.579816 " transform="matrix(28.346457,0,0,-28.346457,1,256.11811)"/>
<path style="fill:none;stroke-width:0.02;stroke-linecap:butt;stroke-linejoin:miter;stroke:rgb(0%,0%,0%);stroke-opacity:1;stroke-miterlimit:10;" d="M 11.701198 2.781189 L 11.596191 2.781189 " transform="matrix(28.346457,0,0,-28.346457,1,256.11811)"/>
<path style="fill:none;stroke-width:0.02;stroke-linecap:butt;stroke-linejoin:miter;stroke:rgb(0%,0%,0%);stroke-opacity:1;stroke-miterlimit:10;" d="M 11.701198 3.982701 L 11.596191 3.982701 " transform="matrix(28.346457,0,0,-28.346457,1,256.11811)"/>
<path style="fill:none;stroke-width:0.02;stroke-linecap:butt;stroke-linejoin:miter;stroke:rgb(0%,0%,0%);stroke-opacity:1;stroke-miterlimit:10;" d="M 11.701198 5.184074 L 11.596191 5.184074 " transform="matrix(28.346457,0,0,-28.346457,1,256.11811)"/>
<path style="fill:none;stroke-width:0.02;stroke-linecap:butt;stroke-linejoin:miter;stroke:rgb(0%,0%,0%);stroke-opacity:1;stroke-miterlimit:10;" d="M 11.701198 6.385448 L 11.596191 6.385448 " transform="matrix(28.346457,0,0,-28.346457,1,256.11811)"/>
<path style="fill:none;stroke-width:0.02;stroke-linecap:butt;stroke-linejoin:miter;stroke:rgb(0%,0%,0%);stroke-opacity:1;stroke-miterlimit:10;" d="M 11.701198 7.586822 L 11.596191 7.586822 " transform="matrix(28.346457,0,0,-28.346457,1,256.11811)"/>
<path style="fill:none;stroke-width:0.02;stroke-linecap:round;stroke-linejoin:miter;stroke:rgb(0%,0%,0%);stroke-opacity:1;stroke-miterlimit:10;" d="M 11.701198 0.378442 L 11.701198 8.788333 " transform="matrix(28.346457,0,0,-28.346457,1,256.11811)"/>
<path style="fill:none;stroke-width:0.02;stroke-linecap:butt;stroke-linejoin:miter;stroke:rgb(0%,0%,0%);stroke-opacity:1;stroke-miterlimit:10;" d="M 2.027783 0.378442 L 2.027783 0.483448 " transform="matrix(28.346457,0,0,-28.346457,1,256.11811)"/>
<path style="fill:none;stroke-width:0.02;stroke-linecap:butt;stroke-linejoin:miter;stroke:rgb(0%,0%,0%);stroke-opacity:1;stroke-miterlimit:10;" d="M 3.40968 0.378442 L 3.40968 0.483448 " transform="matrix(28.346457,0,0,-28.346457,1,256.11811)"/>
<path style="fill:none;stroke-width:0.02;stroke-linecap:butt;stroke-linejoin:miter;stroke:rgb(0%,0%,0%);stroke-opacity:1;stroke-miterlimit:10;" d="M 4.791577 0.378442 L 4.791577 0.483448 " transform="matrix(28.346457,0,0,-28.346457,1,256.11811)"/>
<path style="fill:none;stroke-width:0.02;stroke-linecap:butt;stroke-linejoin:miter;stroke:rgb(0%,0%,0%);stroke-opacity:1;stroke-miterlimit:10;" d="M 6.173473 0.378442 L 6.173473 0.483448 " transform="matrix(28.346457,0,0,-28.346457,1,256.11811)"/>
<path style="fill:none;stroke-width:0.02;stroke-linecap:butt;stroke-linejoin:miter;stroke:rgb(0%,0%,0%);stroke-opacity:1;stroke-miterlimit:10;" d="M 7.55537 0.378442 L 7.55537 0.483448 " transform="matrix(28.346457,0,0,-28.346457,1,256.11811)"/>
<path style="fill:none;stroke-width:0.02;stroke-linecap:butt;stroke-linejoin:miter;stroke:rgb(0%,0%,0%);stroke-opacity:1;stroke-miterlimit:10;" d="M 8.937405 0.378442 L 8.937405 0.483448 " transform="matrix(28.346457,0,0,-28.346457,1,256.11811)"/>
<path style="fill:none;stroke-width:0.02;stroke-linecap:butt;stroke-linejoin:miter;stroke:rgb(0%,0%,0%);stroke-opacity:1;stroke-miterlimit:10;" d="M 10.319301 0.378442 L 10.319301 0.483448 " transform="matrix(28.346457,0,0,-28.346457,1,256.11811)"/>
<path style="fill:none;stroke-width:0.02;stroke-linecap:round;stroke-linejoin:miter;stroke:rgb(0%,0%,0%);stroke-opacity:1;stroke-miterlimit:10;" d="M 0.645749 0.378442 L 11.701198 0.378442 " transform="matrix(28.346457,0,0,-28.346457,1,256.11811)"/>
<path style=" stroke:none;fill-rule:nonzero;fill:rgb(0%,0%,0%);fill-opacity:1;" d="M 15.089844 253.589844 L 15.089844 254.035156 L 13.011719 254.035156 L 13.011719 253.589844 Z M 15.089844 253.589844 Z M 15.089844 253.589844 "/>
<path style=" stroke:none;fill-rule:nonzero;fill:rgb(0%,0%,0%);fill-opacity:1;" d="M 17.589844 250.210938 C 18.511719 250.234375 19.242188 251.179688 19.101562 252.066406 C 19.003906 252.957031 18.171875 253.464844 17.574219 254.019531 L 17.320312 254.28125 L 17.289062 254.296875 L 16.972656 254.605469 L 16.949219 254.621094 L 16.632812 254.941406 L 16.601562 254.957031 L 16.527344 255.027344 L 16.542969 255.035156 L 19.117188 255.035156 L 19.117188 255.558594 L 15.972656 255.558594 L 15.972656 255.082031 L 17.25 253.804688 C 17.863281 253.273438 18.574219 252.582031 18.464844 251.710938 C 18.402344 251.203125 17.972656 250.734375 17.449219 250.695312 C 16.917969 250.613281 16.449219 251.035156 16.328125 251.542969 L 16.3125 251.566406 L 16.296875 251.621094 L 16.273438 251.710938 L 16.226562 251.882812 L 16.21875 251.925781 C 16.109375 251.789062 15.988281 251.644531 15.902344 251.496094 C 16.058594 250.84375 16.582031 250.234375 17.273438 250.210938 Z M 17.589844 250.210938 Z M 17.589844 250.210938 "/>
<path style=" stroke:none;fill-rule:nonzero;fill:rgb(0%,0%,0%);fill-opacity:1;" d="M 20.957031 254.925781 L 20.957031 255.558594 L 20.3125 255.558594 L 20.3125 254.925781 Z M 20.957031 254.925781 Z M 20.957031 254.925781 "/>
<path style=" stroke:none;fill-rule:nonzero;fill:rgb(0%,0%,0%);fill-opacity:1;" d="M 23.847656 250.210938 C 24.601562 250.265625 25.101562 250.957031 25.234375 251.652344 C 25.304688 251.972656 25.324219 252.273438 25.355469 252.589844 L 25.355469 253.398438 C 25.316406 254.226562 25.117188 255.3125 24.21875 255.644531 C 23.441406 255.957031 22.527344 255.472656 22.296875 254.679688 C 22.125 254.257812 22.109375 253.828125 22.066406 253.398438 L 22.066406 252.589844 C 22.109375 251.765625 22.28125 250.667969 23.171875 250.304688 L 23.210938 250.289062 L 23.242188 250.28125 L 23.28125 250.265625 L 23.402344 250.234375 L 23.472656 250.21875 L 23.558594 250.21875 L 23.578125 250.210938 Z M 23.847656 250.210938 Z M 23.601562 250.695312 C 22.933594 250.773438 22.734375 251.574219 22.6875 252.113281 L 22.6875 252.328125 L 22.671875 252.34375 L 22.671875 253.449219 C 22.71875 254.019531 22.757812 254.757812 23.28125 255.136719 C 23.765625 255.472656 24.410156 255.097656 24.542969 254.582031 C 24.6875 254.203125 24.71875 253.828125 24.75 253.449219 L 24.75 252.34375 C 24.703125 251.765625 24.625 250.957031 23.957031 250.726562 L 23.902344 250.710938 L 23.886719 250.695312 L 23.8125 250.695312 L 23.796875 250.679688 L 23.617188 250.679688 Z M 23.601562 250.695312 Z M 23.601562 250.695312 "/>
<path style=" stroke:none;fill-rule:nonzero;fill:rgb(0%,0%,0%);fill-opacity:1;" d="M 54.265625 253.589844 L 54.265625 254.035156 L 52.183594 254.035156 L 52.183594 253.589844 Z M 54.265625 253.589844 Z M 54.265625 253.589844 "/>
<path style=" stroke:none;fill-rule:nonzero;fill:rgb(0%,0%,0%);fill-opacity:1;" d="M 57.097656 250.210938 L 57.097656 255.105469 L 57.105469 255.121094 L 58.082031 255.121094 L 58.082031 255.558594 L 55.503906 255.558594 L 55.503906 255.121094 L 56.480469 255.121094 L 56.496094 255.105469 L 56.496094 250.996094 C 56.160156 251.105469 55.8125 251.179688 55.460938 251.171875 L 55.460938 250.726562 C 55.988281 250.734375 56.558594 250.589844 56.953125 250.210938 Z M 57.097656 250.210938 Z M 57.097656 250.210938 "/>
<path style=" stroke:none;fill-rule:nonzero;fill:rgb(0%,0%,0%);fill-opacity:1;" d="M 60.128906 254.925781 L 60.128906 255.558594 L 59.488281 255.558594 L 59.488281 254.925781 Z M 60.128906 254.925781 Z M 60.128906 254.925781 "/>
<path style=" stroke:none;fill-rule:nonzero;fill:rgb(0%,0%,0%);fill-opacity:1;" d="M 64.195312 250.375 L 64.195312 250.867188 L 62.128906 250.867188 L 62.113281 250.875 L 62.113281 252.503906 C 62.304688 252.375 62.574219 252.210938 62.828125 252.203125 C 63.726562 252.105469 64.414062 252.988281 64.457031 253.804688 C 64.582031 254.84375 63.605469 255.875 62.558594 255.71875 C 62.035156 255.703125 61.527344 255.390625 61.226562 254.964844 C 61.3125 254.84375 61.382812 254.636719 61.488281 254.566406 C 61.859375 255.296875 63.066406 255.589844 63.550781 254.820312 C 63.859375 254.242188 63.851562 253.503906 63.496094 252.949219 C 63.082031 252.417969 62.265625 252.742188 62.074219 253.304688 L 61.558594 253.304688 L 61.558594 250.375 Z M 64.195312 250.375 Z M 64.195312 250.375 "/>
<path style=" stroke:none;fill-rule:nonzero;fill:rgb(0%,0%,0%);fill-opacity:1;" d="M 93.4375 253.589844 L 93.4375 254.035156 L 91.359375 254.035156 L 91.359375 253.589844 Z M 93.4375 253.589844 Z M 93.4375 253.589844 "/>
<path style=" stroke:none;fill-rule:nonzero;fill:rgb(0%,0%,0%);fill-opacity:1;" d="M 96.269531 250.210938 L 96.269531 255.105469 L 96.277344 255.121094 L 97.253906 255.121094 L 97.253906 255.558594 L 94.675781 255.558594 L 94.675781 255.121094 L 95.652344 255.121094 L 95.667969 255.105469 L 95.667969 250.996094 C 95.335938 251.105469 94.984375 251.179688 94.636719 251.171875 L 94.636719 250.726562 C 95.160156 250.734375 95.730469 250.589844 96.128906 250.210938 Z M 96.269531 250.210938 Z M 96.269531 250.210938 "/>
<path style=" stroke:none;fill-rule:nonzero;fill:rgb(0%,0%,0%);fill-opacity:1;" d="M 99.300781 254.925781 L 99.300781 255.558594 L 98.660156 255.558594 L 98.660156 254.925781 Z M 99.300781 254.925781 Z M 99.300781 254.925781 "/>
<path style=" stroke:none;fill-rule:nonzero;fill:rgb(0%,0%,0%);fill-opacity:1;" d="M 102.191406 250.210938 C 102.945312 250.265625 103.445312 250.957031 103.582031 251.652344 C 103.652344 251.972656 103.667969 252.273438 103.699219 252.589844 L 103.699219 253.398438 C 103.660156 254.226562 103.460938 255.3125 102.566406 255.644531 C 101.785156 255.957031 100.875 255.472656 100.644531 254.679688 C 100.46875 254.257812 100.453125 253.828125 100.414062 253.398438 L 100.414062 252.589844 C 100.453125 251.765625 100.628906 250.667969 101.515625 250.304688 L 101.558594 250.289062 L 101.589844 250.28125 L 101.628906 250.265625 L 101.746094 250.234375 L 101.820312 250.21875 L 101.90625 250.21875 L 101.921875 250.210938 Z M 102.191406 250.210938 Z M 101.945312 250.695312 C 101.277344 250.773438 101.082031 251.574219 101.03125 252.113281 L 101.03125 252.328125 L 101.015625 252.34375 L 101.015625 253.449219 C 101.066406 254.019531 101.105469 254.757812 101.628906 255.136719 C 102.113281 255.472656 102.753906 255.097656 102.890625 254.582031 C 103.03125 254.203125 103.066406 253.828125 103.097656 253.449219 L 103.097656 252.34375 C 103.046875 251.765625 102.96875 250.957031 102.300781 250.726562 L 102.246094 250.710938 L 102.230469 250.695312 L 102.160156 250.695312 L 102.144531 250.679688 L 101.960938 250.679688 Z M 101.945312 250.695312 Z M 101.945312 250.695312 "/>
<path style=" stroke:none;fill-rule:nonzero;fill:rgb(0%,0%,0%);fill-opacity:1;" d="M 132.609375 253.589844 L 132.609375 254.035156 L 130.53125 254.035156 L 130.53125 253.589844 Z M 132.609375 253.589844 Z M 132.609375 253.589844 "/>
<path style=" stroke:none;fill-rule:nonzero;fill:rgb(0%,0%,0%);fill-opacity:1;" d="M 135.199219 250.210938 C 135.953125 250.265625 136.453125 250.957031 136.585938 251.652344 C 136.65625 251.972656 136.671875 252.273438 136.707031 252.589844 L 136.707031 253.398438 C 136.664062 254.226562 136.46875 255.3125 135.570312 255.644531 C 134.792969 255.957031 133.878906 255.472656 133.648438 254.679688 C 133.476562 254.257812 133.460938 253.828125 133.417969 253.398438 L 133.417969 252.589844 C 133.460938 251.765625 133.632812 250.667969 134.523438 250.304688 L 134.5625 250.289062 L 134.59375 250.28125 L 134.632812 250.265625 L 134.753906 250.234375 L 134.824219 250.21875 L 134.910156 250.21875 L 134.925781 250.210938 Z M 135.199219 250.210938 Z M 134.953125 250.695312 C 134.285156 250.773438 134.085938 251.574219 134.039062 252.113281 L 134.039062 252.328125 L 134.023438 252.34375 L 134.023438 253.449219 C 134.070312 254.019531 134.109375 254.757812 134.632812 255.136719 C 135.117188 255.472656 135.761719 255.097656 135.894531 254.582031 C 136.039062 254.203125 136.070312 253.828125 136.101562 253.449219 L 136.101562 252.34375 C 136.054688 251.765625 135.976562 250.957031 135.308594 250.726562 L 135.253906 250.710938 L 135.238281 250.695312 L 135.164062 250.695312 L 135.148438 250.679688 L 134.96875 250.679688 Z M 134.953125 250.695312 Z M 134.953125 250.695312 "/>
<path style=" stroke:none;fill-rule:nonzero;fill:rgb(0%,0%,0%);fill-opacity:1;" d="M 138.476562 254.925781 L 138.476562 255.558594 L 137.832031 255.558594 L 137.832031 254.925781 Z M 138.476562 254.925781 Z M 138.476562 254.925781 "/>
<path style=" stroke:none;fill-rule:nonzero;fill:rgb(0%,0%,0%);fill-opacity:1;" d="M 142.539062 250.375 L 142.539062 250.867188 L 140.476562 250.867188 L 140.460938 250.875 L 140.460938 252.503906 C 140.648438 252.375 140.917969 252.210938 141.175781 252.203125 C 142.070312 252.105469 142.761719 252.988281 142.800781 253.804688 C 142.929688 254.84375 141.953125 255.875 140.902344 255.71875 C 140.378906 255.703125 139.871094 255.390625 139.570312 254.964844 C 139.65625 254.84375 139.730469 254.636719 139.832031 254.566406 C 140.207031 255.296875 141.410156 255.589844 141.894531 254.820312 C 142.207031 254.242188 142.199219 253.503906 141.839844 252.949219 C 141.429688 252.417969 140.609375 252.742188 140.417969 253.304688 L 139.902344 253.304688 L 139.902344 250.375 Z M 142.539062 250.375 Z M 142.539062 250.375 "/>
<path style=" stroke:none;fill-rule:nonzero;fill:rgb(0%,0%,0%);fill-opacity:1;" d="M 173.046875 250.210938 C 173.800781 250.265625 174.300781 250.957031 174.4375 251.652344 C 174.507812 251.972656 174.523438 252.273438 174.554688 252.589844 L 174.554688 253.398438 C 174.515625 254.226562 174.320312 255.3125 173.421875 255.644531 C 172.644531 255.957031 171.730469 255.472656 171.5 254.679688 C 171.328125 254.257812 171.308594 253.828125 171.269531 253.398438 L 171.269531 252.589844 C 171.308594 251.765625 171.484375 250.667969 172.375 250.304688 L 172.414062 250.289062 L 172.445312 250.28125 L 172.484375 250.265625 L 172.605469 250.234375 L 172.675781 250.21875 L 172.761719 250.21875 L 172.777344 250.210938 Z M 173.046875 250.210938 Z M 172.800781 250.695312 C 172.136719 250.773438 171.9375 251.574219 171.890625 252.113281 L 171.890625 252.328125 L 171.875 252.34375 L 171.875 253.449219 C 171.921875 254.019531 171.960938 254.757812 172.484375 255.136719 C 172.96875 255.472656 173.613281 255.097656 173.746094 254.582031 C 173.890625 254.203125 173.921875 253.828125 173.953125 253.449219 L 173.953125 252.34375 C 173.90625 251.765625 173.828125 250.957031 173.160156 250.726562 L 173.105469 250.710938 L 173.089844 250.695312 L 173.015625 250.695312 L 173 250.679688 L 172.820312 250.679688 Z M 172.800781 250.695312 Z M 172.800781 250.695312 "/>
<path style=" stroke:none;fill-rule:nonzero;fill:rgb(0%,0%,0%);fill-opacity:1;" d="M 176.328125 254.925781 L 176.328125 255.558594 L 175.683594 255.558594 L 175.683594 254.925781 Z M 176.328125 254.925781 Z M 176.328125 254.925781 "/>
<path style=" stroke:none;fill-rule:nonzero;fill:rgb(0%,0%,0%);fill-opacity:1;" d="M 179.214844 250.210938 C 179.96875 250.265625 180.46875 250.957031 180.605469 251.652344 C 180.675781 251.972656 180.691406 252.273438 180.722656 252.589844 L 180.722656 253.398438 C 180.683594 254.226562 180.484375 255.3125 179.589844 255.644531 C 178.8125 255.957031 177.898438 255.472656 177.667969 254.679688 C 177.492188 254.257812 177.476562 253.828125 177.4375 253.398438 L 177.4375 252.589844 C 177.476562 251.765625 177.652344 250.667969 178.539062 250.304688 L 178.582031 250.289062 L 178.613281 250.28125 L 178.652344 250.265625 L 178.769531 250.234375 L 178.84375 250.21875 L 178.929688 250.21875 L 178.945312 250.210938 Z M 179.214844 250.210938 Z M 178.96875 250.695312 C 178.304688 250.773438 178.105469 251.574219 178.058594 252.113281 L 178.058594 252.328125 L 178.039062 252.34375 L 178.039062 253.449219 C 178.089844 254.019531 178.128906 254.757812 178.652344 255.136719 C 179.136719 255.472656 179.777344 255.097656 179.914062 254.582031 C 180.058594 254.203125 180.089844 253.828125 180.121094 253.449219 L 180.121094 252.34375 C 180.074219 251.765625 179.992188 250.957031 179.328125 250.726562 L 179.269531 250.710938 L 179.253906 250.695312 L 179.183594 250.695312 L 179.167969 250.679688 L 178.984375 250.679688 Z M 178.96875 250.695312 Z M 178.96875 250.695312 "/>
<path style=" stroke:none;fill-rule:nonzero;fill:rgb(0%,0%,0%);fill-opacity:1;" d="M 212.222656 250.210938 C 212.976562 250.265625 213.476562 250.957031 213.609375 251.652344 C 213.683594 251.972656 213.699219 252.273438 213.730469 252.589844 L 213.730469 253.398438 C 213.691406 254.226562 213.492188 255.3125 212.59375 255.644531 C 211.816406 255.957031 210.902344 255.472656 210.671875 254.679688 C 210.5 254.257812 210.484375 253.828125 210.445312 253.398438 L 210.445312 252.589844 C 210.484375 251.765625 210.65625 250.667969 211.546875 250.304688 L 211.585938 250.289062 L 211.617188 250.28125 L 211.65625 250.265625 L 211.777344 250.234375 L 211.847656 250.21875 L 211.9375 250.21875 L 211.953125 250.210938 Z M 212.222656 250.210938 Z M 211.976562 250.695312 C 211.308594 250.773438 211.109375 251.574219 211.0625 252.113281 L 211.0625 252.328125 L 211.046875 252.34375 L 211.046875 253.449219 C 211.09375 254.019531 211.132812 254.757812 211.65625 255.136719 C 212.140625 255.472656 212.785156 255.097656 212.917969 254.582031 C 213.0625 254.203125 213.09375 253.828125 213.125 253.449219 L 213.125 252.34375 C 213.078125 251.765625 213 250.957031 212.332031 250.726562 L 212.277344 250.710938 L 212.261719 250.695312 L 212.191406 250.695312 L 212.171875 250.679688 L 211.992188 250.679688 Z M 211.976562 250.695312 Z M 211.976562 250.695312 "/>
<path style=" stroke:none;fill-rule:nonzero;fill:rgb(0%,0%,0%);fill-opacity:1;" d="M 215.5 254.925781 L 215.5 255.558594 L 214.855469 255.558594 L 214.855469 254.925781 Z M 215.5 254.925781 Z M 215.5 254.925781 "/>
<path style=" stroke:none;fill-rule:nonzero;fill:rgb(0%,0%,0%);fill-opacity:1;" d="M 219.5625 250.375 L 219.5625 250.867188 L 217.5 250.867188 L 217.484375 250.875 L 217.484375 252.503906 C 217.675781 252.375 217.945312 252.210938 218.199219 252.203125 C 219.09375 252.105469 219.785156 252.988281 219.824219 253.804688 C 219.953125 254.84375 218.976562 255.875 217.929688 255.71875 C 217.402344 255.703125 216.894531 255.390625 216.59375 254.964844 C 216.683594 254.84375 216.753906 254.636719 216.855469 254.566406 C 217.230469 255.296875 218.4375 255.589844 218.921875 254.820312 C 219.230469 254.242188 219.222656 253.503906 218.863281 252.949219 C 218.453125 252.417969 217.632812 252.742188 217.445312 253.304688 L 216.929688 253.304688 L 216.929688 250.375 Z M 219.5625 250.375 Z M 219.5625 250.375 "/>
<path style=" stroke:none;fill-rule:nonzero;fill:rgb(0%,0%,0%);fill-opacity:1;" d="M 251.640625 250.210938 L 251.640625 255.105469 L 251.648438 255.121094 L 252.625 255.121094 L 252.625 255.558594 L 250.042969 255.558594 L 250.042969 255.121094 L 251.019531 255.121094 L 251.035156 255.105469 L 251.035156 250.996094 C 250.703125 251.105469 250.355469 251.179688 250.003906 251.171875 L 250.003906 250.726562 C 250.527344 250.734375 251.101562 250.589844 251.496094 250.210938 Z M 251.640625 250.210938 Z M 251.640625 250.210938 "/>
<path style=" stroke:none;fill-rule:nonzero;fill:rgb(0%,0%,0%);fill-opacity:1;" d="M 254.671875 254.925781 L 254.671875 255.558594 L 254.027344 255.558594 L 254.027344 254.925781 Z M 254.671875 254.925781 Z M 254.671875 254.925781 "/>
<path style=" stroke:none;fill-rule:nonzero;fill:rgb(0%,0%,0%);fill-opacity:1;" d="M 257.5625 250.210938 C 258.316406 250.265625 258.816406 250.957031 258.949219 251.652344 C 259.023438 251.972656 259.039062 252.273438 259.070312 252.589844 L 259.070312 253.398438 C 259.03125 254.226562 258.832031 255.3125 257.933594 255.644531 C 257.15625 255.957031 256.242188 255.472656 256.011719 254.679688 C 255.839844 254.257812 255.824219 253.828125 255.78125 253.398438 L 255.78125 252.589844 C 255.824219 251.765625 255.996094 250.667969 256.886719 250.304688 L 256.925781 250.289062 L 256.957031 250.28125 L 256.996094 250.265625 L 257.117188 250.234375 L 257.1875 250.21875 L 257.273438 250.21875 L 257.292969 250.210938 Z M 257.5625 250.210938 Z M 257.316406 250.695312 C 256.648438 250.773438 256.449219 251.574219 256.402344 252.113281 L 256.402344 252.328125 L 256.386719 252.34375 L 256.386719 253.449219 C 256.433594 254.019531 256.472656 254.757812 256.996094 255.136719 C 257.480469 255.472656 258.125 255.097656 258.257812 254.582031 C 258.402344 254.203125 258.433594 253.828125 258.464844 253.449219 L 258.464844 252.34375 C 258.417969 251.765625 258.339844 250.957031 257.671875 250.726562 L 257.617188 250.710938 L 257.601562 250.695312 L 257.53125 250.695312 L 257.511719 250.679688 L 257.332031 250.679688 Z M 257.316406 250.695312 Z M 257.316406 250.695312 "/>
<path style=" stroke:none;fill-rule:nonzero;fill:rgb(0%,0%,0%);fill-opacity:1;" d="M 290.8125 250.210938 L 290.8125 255.105469 L 290.820312 255.121094 L 291.796875 255.121094 L 291.796875 255.558594 L 289.21875 255.558594 L 289.21875 255.121094 L 290.195312 255.121094 L 290.210938 255.105469 L 290.210938 250.996094 C 289.875 251.105469 289.527344 251.179688 289.179688 251.171875 L 289.179688 250.726562 C 289.703125 250.734375 290.273438 250.589844 290.671875 250.210938 Z M 290.8125 250.210938 Z M 290.8125 250.210938 "/>
<path style=" stroke:none;fill-rule:nonzero;fill:rgb(0%,0%,0%);fill-opacity:1;" d="M 293.84375 254.925781 L 293.84375 255.558594 L 293.203125 255.558594 L 293.203125 254.925781 Z M 293.84375 254.925781 Z M 293.84375 254.925781 "/>
<path style=" stroke:none;fill-rule:nonzero;fill:rgb(0%,0%,0%);fill-opacity:1;" d="M 297.910156 250.375 L 297.910156 250.867188 L 295.84375 250.867188 L 295.828125 250.875 L 295.828125 252.503906 C 296.019531 252.375 296.289062 252.210938 296.542969 252.203125 C 297.441406 252.105469 298.128906 252.988281 298.171875 253.804688 C 298.296875 254.84375 297.320312 255.875 296.273438 255.71875 C 295.75 255.703125 295.242188 255.390625 294.941406 254.964844 C 295.027344 254.84375 295.097656 254.636719 295.203125 254.566406 C 295.574219 255.296875 296.78125 255.589844 297.265625 254.820312 C 297.574219 254.242188 297.566406 253.503906 297.210938 252.949219 C 296.796875 252.417969 295.980469 252.742188 295.789062 253.304688 L 295.273438 253.304688 L 295.273438 250.375 Z M 297.910156 250.375 Z M 297.910156 250.375 "/>
<path style=" stroke:none;fill-rule:nonzero;fill:rgb(0%,0%,0%);fill-opacity:1;" d="M 329.652344 250.210938 C 330.574219 250.234375 331.304688 251.179688 331.160156 252.066406 C 331.066406 252.957031 330.230469 253.464844 329.636719 254.019531 L 329.382812 254.28125 L 329.351562 254.296875 L 329.03125 254.605469 L 329.007812 254.621094 L 328.691406 254.941406 L 328.660156 254.957031 L 328.589844 255.027344 L 328.605469 255.035156 L 331.175781 255.035156 L 331.175781 255.558594 L 328.03125 255.558594 L 328.03125 255.082031 L 329.3125 253.804688 C 329.921875 253.273438 330.636719 252.582031 330.523438 251.710938 C 330.460938 251.203125 330.03125 250.734375 329.507812 250.695312 C 328.976562 250.613281 328.507812 251.035156 328.390625 251.542969 L 328.375 251.566406 L 328.359375 251.621094 L 328.335938 251.710938 L 328.285156 251.882812 L 328.277344 251.925781 C 328.167969 251.789062 328.050781 251.644531 327.960938 251.496094 C 328.121094 250.84375 328.644531 250.234375 329.335938 250.210938 Z M 329.652344 250.210938 Z M 329.652344 250.210938 "/>
<path style=" stroke:none;fill-rule:nonzero;fill:rgb(0%,0%,0%);fill-opacity:1;" d="M 333.015625 254.925781 L 333.015625 255.558594 L 332.375 255.558594 L 332.375 254.925781 Z M 333.015625 254.925781 Z M 333.015625 254.925781 "/>
<path style=" stroke:none;fill-rule:nonzero;fill:rgb(0%,0%,0%);fill-opacity:1;" d="M 335.90625 250.210938 C 336.660156 250.265625 337.160156 250.957031 337.296875 251.652344 C 337.367188 251.972656 337.382812 252.273438 337.414062 252.589844 L 337.414062 253.398438 C 337.375 254.226562 337.175781 255.3125 336.28125 255.644531 C 335.5 255.957031 334.589844 255.472656 334.359375 254.679688 C 334.183594 254.257812 334.167969 253.828125 334.128906 253.398438 L 334.128906 252.589844 C 334.167969 251.765625 334.34375 250.667969 335.230469 250.304688 L 335.273438 250.289062 L 335.304688 250.28125 L 335.34375 250.265625 L 335.460938 250.234375 L 335.535156 250.21875 L 335.621094 250.21875 L 335.636719 250.210938 Z M 335.90625 250.210938 Z M 335.660156 250.695312 C 334.992188 250.773438 334.796875 251.574219 334.746094 252.113281 L 334.746094 252.328125 L 334.730469 252.34375 L 334.730469 253.449219 C 334.78125 254.019531 334.820312 254.757812 335.34375 255.136719 C 335.828125 255.472656 336.46875 255.097656 336.605469 254.582031 C 336.746094 254.203125 336.78125 253.828125 336.8125 253.449219 L 336.8125 252.34375 C 336.765625 251.765625 336.683594 250.957031 336.019531 250.726562 L 335.960938 250.710938 L 335.945312 250.695312 L 335.875 250.695312 L 335.859375 250.679688 L 335.675781 250.679688 Z M 335.660156 250.695312 Z M 335.660156 250.695312 "/>
<path style="fill:none;stroke-width:0.02;stroke-linecap:butt;stroke-linejoin:miter;stroke:rgb(0%,0%,0%);stroke-opacity:1;stroke-miterlimit:10;" d="M 2.027783 8.788333 L 2.027783 8.683327 " transform="matrix(28.346457,0,0,-28.346457,1,256.11811)"/>
<path style="fill:none;stroke-width:0.02;stroke-linecap:butt;stroke-linejoin:miter;stroke:rgb(0%,0%,0%);stroke-opacity:1;stroke-miterlimit:10;" d="M 3.40968 8.788333 L 3.40968 8.683327 " transform="matrix(28.346457,0,0,-28.346457,1,256.11811)"/>
<path style="fill:none;stroke-width:0.02;stroke-linecap:butt;stroke-linejoin:miter;stroke:rgb(0%,0%,0%);stroke-opacity:1;stroke-miterlimit:10;" d="M 4.791577 8.788333 L 4.791577 8.683327 " transform="matrix(28.346457,0,0,-28.346457,1,256.11811)"/>
<path style="fill:none;stroke-width:0.02;stroke-linecap:butt;stroke-linejoin:miter;stroke:rgb(0%,0%,0%);stroke-opacity:1;stroke-miterlimit:10;" d="M 6.173473 8.788333 L 6.173473 8.683327 " transform="matrix(28.346457,0,0,-28.346457,1,256.11811)"/>
<path style="fill:none;stroke-width:0.02;stroke-linecap:butt;stroke-linejoin:miter;stroke:rgb(0%,0%,0%);stroke-opacity:1;stroke-miterlimit:10;" d="M 7.55537 8.788333 L 7.55537 8.683327 " transform="matrix(28.346457,0,0,-28.346457,1,256.11811)"/>
<path style="fill:none;stroke-width:0.02;stroke-linecap:butt;stroke-linejoin:miter;stroke:rgb(0%,0%,0%);stroke-opacity:1;stroke-miterlimit:10;" d="M 8.937405 8.788333 L 8.937405 8.683327 " transform="matrix(28.346457,0,0,-28.346457,1,256.11811)"/>
<path style="fill:none;stroke-width:0.02;stroke-linecap:butt;stroke-linejoin:miter;stroke:rgb(0%,0%,0%);stroke-opacity:1;stroke-miterlimit:10;" d="M 10.319301 8.788333 L 10.319301 8.683327 " transform="matrix(28.346457,0,0,-28.346457,1,256.11811)"/>
<path style="fill:none;stroke-width:0.02;stroke-linecap:round;stroke-linejoin:miter;stroke:rgb(0%,0%,0%);stroke-opacity:1;stroke-miterlimit:10;" d="M 0.645749 8.788333 L 11.701198 8.788333 " transform="matrix(28.346457,0,0,-28.346457,1,256.11811)"/>
<path style="fill:none;stroke-width:0.05;stroke-linecap:butt;stroke-linejoin:miter;stroke:rgb(33%,47%,64%);stroke-opacity:1;stroke-miterlimit:10;" d="M 0.645749 2.781189 L 0.684609 2.733371 L 0.723332 2.686242 L 0.762193 2.63994 L 0.800916 2.594465 L 0.839776 2.549541 L 0.878499 2.505306 L 0.91736 2.46176 L 0.956083 2.41849 L 0.994944 2.37577 L 1.033666 2.333327 L 1.072527 2.291297 L 1.11125 2.249542 L 1.150111 2.207925 L 1.188834 2.166309 L 1.227694 2.124967 L 1.266417 2.08404 L 1.305278 2.044352 L 1.344001 2.005629 L 1.382861 1.968009 L 1.421584 1.931215 L 1.460445 1.895524 L 1.499168 1.86066 L 1.538028 1.826484 L 1.576751 1.793274 L 1.615612 1.760614 L 1.654335 1.728781 L 1.693196 1.697638 L 1.731918 1.666908 L 1.770779 1.636866 L 1.809502 1.607238 L 1.848363 1.579816 L 1.887086 1.555975 L 1.925946 1.535718 L 1.964669 1.518768 L 2.00353 1.50485 L 2.042253 1.493964 L 2.081113 1.485833 L 2.119836 1.480459 L 2.158697 1.477427 L 2.19742 1.476738 L 2.23628 1.478116 L 2.275003 1.481561 L 2.313864 1.48666 L 2.352587 1.493413 L 2.391447 1.501543 L 2.43017 1.512016 L 2.469031 1.525796 L 2.507754 1.542746 L 2.546615 1.563003 L 2.585337 1.58643 L 2.624198 1.613164 L 2.662921 1.64293 L 2.701782 1.676003 L 2.740505 1.712245 L 2.779365 1.751519 L 2.818088 1.7941 L 2.856949 1.839714 L 2.895672 1.888496 L 2.934532 1.94031 L 2.973255 1.995294 L 3.012116 2.052483 L 3.050839 2.111463 L 3.089562 2.172096 L 3.128422 2.234935 L 3.167145 2.29984 L 3.206006 2.367227 L 3.244729 2.437231 L 3.283589 2.509991 L 3.322312 2.585783 L 3.361173 2.664745 L 3.399896 2.747014 L 3.438757 2.832866 L 3.477479 2.9223 L 3.51634 3.015869 L 3.555063 3.113434 L 3.593924 3.21348 L 3.632646 3.314214 L 3.671507 3.415638 L 3.71023 3.517888 L 3.749091 3.62069 L 3.787814 3.724319 L 3.826674 3.828636 L 3.865397 3.93378 L 3.904258 4.039476 L 3.942981 4.146136 L 3.981841 4.253347 L 4.020564 4.361523 L 4.059425 4.470388 L 4.098148 4.579942 L 4.137008 4.690461 L 4.175731 4.801944 L 4.214592 4.914392 L 4.253315 5.027943 L 4.292176 5.142182 L 4.330898 5.25711 L 4.369759 5.372452 L 4.408482 5.48807 L 4.447343 5.603687 L 4.486066 5.719304 L 4.524926 5.834646 L 4.563649 5.949575 L 4.60251 6.063952 L 4.641233 6.17764 L 4.680093 6.290226 L 4.718816 6.401847 L 4.757677 6.511539 L 4.7964 6.618888 L 4.83526 6.723894 L 4.873983 6.826834 L 4.912844 6.927706 L 4.951567 7.026649 L 4.990428 7.123801 L 5.02915 7.219161 L 5.068011 7.313143 L 5.106734 7.40561 L 5.145595 7.496698 L 5.184317 7.586546 L 5.223178 7.67543 L 5.261901 7.763211 L 5.300762 7.850303 L 5.339485 7.934363 L 5.378345 8.013325 L 5.417068 8.087601 L 5.455929 8.15733 L 5.494652 8.222649 L 5.533512 8.283696 L 5.572235 8.340747 L 5.611096 8.394214 L 5.649819 8.443962 L 5.688679 8.490401 L 5.727402 8.533672 L 5.766263 8.574048 L 5.804986 8.611669 L 5.843847 8.646671 L 5.882569 8.679468 L 5.92143 8.708958 L 5.960153 8.734314 L 5.999014 8.755398 L 6.037737 8.77221 L 6.076597 8.784888 L 6.092307 8.788333 " transform="matrix(28.346457,0,0,-28.346457,1,256.11811)"/>
<path style="fill:none;stroke-width:0.05;stroke-linecap:butt;stroke-linejoin:miter;stroke:rgb(33%,47%,64%);stroke-opacity:1;stroke-miterlimit:10;" d="M 6.254778 8.788333 L 6.270487 8.784888 L 6.30921 8.77221 L 6.348071 8.755398 L 6.386794 8.734314 L 6.425654 8.708958 L 6.464377 8.679468 L 6.503238 8.646671 L 6.541961 8.611669 L 6.580821 8.574048 L 6.619544 8.533672 L 6.658405 8.490401 L 6.697128 8.443962 L 6.735988 8.394214 L 6.774711 8.340747 L 6.813572 8.283696 L 6.852295 8.222649 L 6.891156 8.15733 L 6.929878 8.087601 L 6.968739 8.013325 L 7.007462 7.934363 L 7.046323 7.850303 L 7.085046 7.763211 L 7.123906 7.67543 L 7.162629 7.586546 L 7.20149 7.496698 L 7.240213 7.40561 L 7.279073 7.313143 L 7.317796 7.219161 L 7.356657 7.123801 L 7.39538 7.026649 L 7.43424 6.927706 L 7.472963 6.826834 L 7.511824 6.723894 L 7.550547 6.618888 L 7.589408 6.511539 L 7.62813 6.401847 L 7.666991 6.290226 L 7.705714 6.17764 L 7.744575 6.063952 L 7.783298 5.949575 L 7.822158 5.834646 L 7.860881 5.719304 L 7.899742 5.603687 L 7.938465 5.48807 L 7.977325 5.372452 L 8.016048 5.25711 L 8.054909 5.142182 L 8.093632 5.027943 L 8.132492 4.914392 L 8.171215 4.801944 L 8.210076 4.690461 L 8.248799 4.579942 L 8.28766 4.470388 L 8.326382 4.361523 L 8.365243 4.253347 L 8.403966 4.146136 L 8.442827 4.039476 L 8.481549 3.93378 L 8.52041 3.828636 L 8.559133 3.724319 L 8.597994 3.62069 L 8.636717 3.517888 L 8.675577 3.415638 L 8.7143 3.314214 L 8.753161 3.21348 L 8.791884 3.113434 L 8.830744 3.015869 L 8.869467 2.9223 L 8.908328 2.832866 L 8.947051 2.747014 L 8.985911 2.664745 L 9.024634 2.585783 L 9.063495 2.509991 L 9.102218 2.437231 L 9.141079 2.367227 L 9.179801 2.29984 L 9.218662 2.234935 L 9.257385 2.172096 L 9.296246 2.111463 L 9.334969 2.052483 L 9.373829 1.995294 L 9.412552 1.94031 L 9.451413 1.888496 L 9.490136 1.839714 L 9.528859 1.7941 L 9.567719 1.751519 L 9.606442 1.712245 L 9.645303 1.676003 L 9.684026 1.64293 L 9.722886 1.613164 L 9.761609 1.58643 L 9.80047 1.563003 L 9.839193 1.542746 L 9.878053 1.525796 L 9.916776 1.512016 L 9.955637 1.501543 L 9.99436 1.493413 L 10.03322 1.48666 L 10.071943 1.481561 L 10.110804 1.478116 L 10.149527 1.476738 L 10.188388 1.477427 L 10.22711 1.480459 L 10.265971 1.485833 L 10.304694 1.493964 L 10.343555 1.50485 L 10.382278 1.518768 L 10.421138 1.535718 L 10.459861 1.555975 L 10.498722 1.579816 L 10.537445 1.607238 L 10.576305 1.636866 L 10.615028 1.666908 L 10.653889 1.697638 L 10.692612 1.728781 L 10.731472 1.760614 L 10.770195 1.793274 L 10.809056 1.826484 L 10.847779 1.86066 L 10.88664 1.895524 L 10.925362 1.931215 L 10.964223 1.968009 L 11.002946 2.005629 L 11.041807 2.044352 L 11.08053 2.08404 L 11.11939 2.124967 L 11.158113 2.166309 L 11.196974 2.207925 L 11.235697 2.249542 L 11.274557 2.291297 L 11.31328 2.333327 L 11.352141 2.37577 L 11.390864 2.41849 L 11.429724 2.46176 L 11.468447 2.505306 L 11.507308 2.549541 L 11.546031 2.594465 L 11.584891 2.63994 L 11.623614 2.686242 L 11.662475 2.733371 L 11.701198 2.781189 " transform="matrix(28.346457,0,0,-28.346457,1,256.11811)"/>
<path style="fill-rule:nonzero;fill:rgb(33%,47%,64%);fill-opacity:1;stroke-width:0.05;stroke-linecap:butt;stroke-linejoin:round;stroke:rgb(33%,47%,64%);stroke-opacity:1;stroke-miterlimit:10;" d="M 0.680751 2.781189 C 0.680751 2.827905 0.610747 2.827905 0.610747 2.781189 C 0.610747 2.734612 0.680751 2.734612 0.680751 2.781189 Z M 0.680751 2.781189 " transform="matrix(28.346457,0,0,-28.346457,1,256.11811)"/>
<path style="fill-rule:nonzero;fill:rgb(33%,47%,64%);fill-opacity:1;stroke-width:0.05;stroke-linecap:butt;stroke-linejoin:round;stroke:rgb(33%,47%,64%);stroke-opacity:1;stroke-miterlimit:10;" d="M 1.262696 2.124967 C 1.262696 2.171545 1.192692 2.171545 1.192692 2.124967 C 1.192692 2.078252 1.262696 2.078252 1.262696 2.124967 Z M 1.262696 2.124967 " transform="matrix(28.346457,0,0,-28.346457,1,256.11811)"/>
<path style="fill-rule:nonzero;fill:rgb(33%,47%,64%);fill-opacity:1;stroke-width:0.05;stroke-linecap:butt;stroke-linejoin:round;stroke:rgb(33%,47%,64%);stroke-opacity:1;stroke-miterlimit:10;" d="M 1.844504 1.607238 C 1.844504 1.653954 1.7745 1.653954 1.7745 1.607238 C 1.7745 1.560661 1.844504 1.560661 1.844504 1.607238 Z M 1.844504 1.607238 " transform="matrix(28.346457,0,0,-28.346457,1,256.11811)"/>
<path style="fill-rule:nonzero;fill:rgb(33%,47%,64%);fill-opacity:1;stroke-width:0.05;stroke-linecap:butt;stroke-linejoin:round;stroke:rgb(33%,47%,64%);stroke-opacity:1;stroke-miterlimit:10;" d="M 2.42645 1.501543 C 2.42645 1.548258 2.356445 1.548258 2.356445 1.501543 C 2.356445 1.454965 2.42645 1.454965 2.42645 1.501543 Z M 2.42645 1.501543 " transform="matrix(28.346457,0,0,-28.346457,1,256.11811)"/>
<path style="fill-rule:nonzero;fill:rgb(33%,47%,64%);fill-opacity:1;stroke-width:0.05;stroke-linecap:butt;stroke-linejoin:round;stroke:rgb(33%,47%,64%);stroke-opacity:1;stroke-miterlimit:10;" d="M 3.008257 1.995294 C 3.008257 2.041872 2.938253 2.041872 2.938253 1.995294 C 2.938253 1.948579 3.008257 1.948579 3.008257 1.995294 Z M 3.008257 1.995294 " transform="matrix(28.346457,0,0,-28.346457,1,256.11811)"/>
<path style="fill-rule:nonzero;fill:rgb(33%,47%,64%);fill-opacity:1;stroke-width:0.05;stroke-linecap:butt;stroke-linejoin:round;stroke:rgb(33%,47%,64%);stroke-opacity:1;stroke-miterlimit:10;" d="M 3.590065 3.113434 C 3.590065 3.16015 3.520061 3.16015 3.520061 3.113434 C 3.520061 3.066719 3.590065 3.066719 3.590065 3.113434 Z M 3.590065 3.113434 " transform="matrix(28.346457,0,0,-28.346457,1,256.11811)"/>
<path style="fill-rule:nonzero;fill:rgb(33%,47%,64%);fill-opacity:1;stroke-width:0.05;stroke-linecap:butt;stroke-linejoin:round;stroke:rgb(33%,47%,64%);stroke-opacity:1;stroke-miterlimit:10;" d="M 4.172011 4.690461 C 4.172011 4.737039 4.102006 4.737039 4.102006 4.690461 C 4.102006 4.643746 4.172011 4.643746 4.172011 4.690461 Z M 4.172011 4.690461 " transform="matrix(28.346457,0,0,-28.346457,1,256.11811)"/>
<path style="fill-rule:nonzero;fill:rgb(33%,47%,64%);fill-opacity:1;stroke-width:0.05;stroke-linecap:butt;stroke-linejoin:round;stroke:rgb(33%,47%,64%);stroke-opacity:1;stroke-miterlimit:10;" d="M 4.753818 6.401847 C 4.753818 6.448562 4.683814 6.448562 4.683814 6.401847 C 4.683814 6.355131 4.753818 6.355131 4.753818 6.401847 Z M 4.753818 6.401847 " transform="matrix(28.346457,0,0,-28.346457,1,256.11811)"/>
<path style="fill-rule:nonzero;fill:rgb(33%,47%,64%);fill-opacity:1;stroke-width:0.05;stroke-linecap:butt;stroke-linejoin:round;stroke:rgb(33%,47%,64%);stroke-opacity:1;stroke-miterlimit:10;" d="M 5.335764 7.850303 C 5.335764 7.897018 5.26576 7.897018 5.26576 7.850303 C 5.26576 7.803587 5.335764 7.803587 5.335764 7.850303 Z M 5.335764 7.850303 " transform="matrix(28.346457,0,0,-28.346457,1,256.11811)"/>
<path style="fill-rule:nonzero;fill:rgb(33%,47%,64%);fill-opacity:1;stroke-width:0.05;stroke-linecap:butt;stroke-linejoin:round;stroke:rgb(33%,47%,64%);stroke-opacity:1;stroke-miterlimit:10;" d="M 5.917572 8.679468 C 5.917572 8.726046 5.847567 8.726046 5.847567 8.679468 C 5.847567 8.632753 5.917572 8.632753 5.917572 8.679468 Z M 5.917572 8.679468 " transform="matrix(28.346457,0,0,-28.346457,1,256.11811)"/>
<path style="fill-rule:nonzero;fill:rgb(33%,47%,64%);fill-opacity:1;stroke-width:0.05;stroke-linecap:butt;stroke-linejoin:round;stroke:rgb(33%,47%,64%);stroke-opacity:1;stroke-miterlimit:10;" d="M 6.499379 8.679468 C 6.499379 8.726046 6.429375 8.726046 6.429375 8.679468 C 6.429375 8.632753 6.499379 8.632753 6.499379 8.679468 Z M 6.499379 8.679468 " transform="matrix(28.346457,0,0,-28.346457,1,256.11811)"/>
<path style="fill-rule:nonzero;fill:rgb(33%,47%,64%);fill-opacity:1;stroke-width:0.05;stroke-linecap:butt;stroke-linejoin:round;stroke:rgb(33%,47%,64%);stroke-opacity:1;stroke-miterlimit:10;" d="M 7.081325 7.850303 C 7.081325 7.897018 7.011321 7.897018 7.011321 7.850303 C 7.011321 7.803587 7.081325 7.803587 7.081325 7.850303 Z M 7.081325 7.850303 " transform="matrix(28.346457,0,0,-28.346457,1,256.11811)"/>
<path style="fill-rule:nonzero;fill:rgb(33%,47%,64%);fill-opacity:1;stroke-width:0.05;stroke-linecap:butt;stroke-linejoin:round;stroke:rgb(33%,47%,64%);stroke-opacity:1;stroke-miterlimit:10;" d="M 7.663133 6.401847 C 7.663133 6.448562 7.593128 6.448562 7.593128 6.401847 C 7.593128 6.355131 7.663133 6.355131 7.663133 6.401847 Z M 7.663133 6.401847 " transform="matrix(28.346457,0,0,-28.346457,1,256.11811)"/>
<path style="fill-rule:nonzero;fill:rgb(33%,47%,64%);fill-opacity:1;stroke-width:0.05;stroke-linecap:butt;stroke-linejoin:round;stroke:rgb(33%,47%,64%);stroke-opacity:1;stroke-miterlimit:10;" d="M 8.245078 4.690461 C 8.245078 4.737039 8.175074 4.737039 8.175074 4.690461 C 8.175074 4.643746 8.245078 4.643746 8.245078 4.690461 Z M 8.245078 4.690461 " transform="matrix(28.346457,0,0,-28.346457,1,256.11811)"/>
<path style="fill-rule:nonzero;fill:rgb(33%,47%,64%);fill-opacity:1;stroke-width:0.05;stroke-linecap:butt;stroke-linejoin:round;stroke:rgb(33%,47%,64%);stroke-opacity:1;stroke-miterlimit:10;" d="M 8.826886 3.113434 C 8.826886 3.16015 8.756882 3.16015 8.756882 3.113434 C 8.756882 3.066719 8.826886 3.066719 8.826886 3.113434 Z M 8.826886 3.113434 " transform="matrix(28.346457,0,0,-28.346457,1,256.11811)"/>
<path style="fill-rule:nonzero;fill:rgb(33%,47%,64%);fill-opacity:1;stroke-width:0.05;stroke-linecap:butt;stroke-linejoin:round;stroke:rgb(33%,47%,64%);stroke-opacity:1;stroke-miterlimit:10;" d="M 9.408831 1.995294 C 9.408831 2.041872 9.338827 2.041872 9.338827 1.995294 C 9.338827 1.948579 9.408831 1.948579 9.408831 1.995294 Z M 9.408831 1.995294 " transform="matrix(28.346457,0,0,-28.346457,1,256.11811)"/>
<path style="fill-rule:nonzero;fill:rgb(33%,47%,64%);fill-opacity:1;stroke-width:0.05;stroke-linecap:butt;stroke-linejoin:round;stroke:rgb(33%,47%,64%);stroke-opacity:1;stroke-miterlimit:10;" d="M 9.990639 1.501543 C 9.990639 1.548258 9.920635 1.548258 9.920635 1.501543 C 9.920635 1.454965 9.990639 1.454965 9.990639 1.501543 Z M 9.990639 1.501543 " transform="matrix(28.346457,0,0,-28.346457,1,256.11811)"/>
<path style="fill-rule:nonzero;fill:rgb(33%,47%,64%);fill-opacity:1;stroke-width:0.05;stroke-linecap:butt;stroke-linejoin:round;stroke:rgb(33%,47%,64%);stroke-opacity:1;stroke-miterlimit:10;" d="M 10.572447 1.607238 C 10.572447 1.653954 10.502442 1.653954 10.502442 1.607238 C 10.502442 1.560661 10.572447 1.560661 10.572447 1.607238 Z M 10.572447 1.607238 " transform="matrix(28.346457,0,0,-28.346457,1,256.11811)"/>
<path style="fill-rule:nonzero;fill:rgb(33%,47%,64%);fill-opacity:1;stroke-width:0.05;stroke-linecap:butt;stroke-linejoin:round;stroke:rgb(33%,47%,64%);stroke-opacity:1;stroke-miterlimit:10;" d="M 11.154392 2.124967 C 11.154392 2.171545 11.084388 2.171545 11.084388 2.124967 C 11.084388 2.078252 11.154392 2.078252 11.154392 2.124967 Z M 11.154392 2.124967 " transform="matrix(28.346457,0,0,-28.346457,1,256.11811)"/>
<path style="fill-rule:nonzero;fill:rgb(33%,47%,64%);fill-opacity:1;stroke-width:0.05;stroke-linecap:butt;stroke-linejoin:round;stroke:rgb(33%,47%,64%);stroke-opacity:1;stroke-miterlimit:10;" d="M 11.7362 2.781189 C 11.7362 2.827905 11.666196 2.827905 11.666196 2.781189 C 11.666196 2.734612 11.7362 2.734612 11.7362 2.781189 Z M 11.7362 2.781189 " transform="matrix(28.346457,0,0,-28.346457,1,256.11811)"/>
<path style="fill:none;stroke-width:0.05;stroke-linecap:butt;stroke-linejoin:miter;stroke:rgb(90%,57%,26%);stroke-opacity:1;stroke-miterlimit:10;" d="M 0.645749 2.781189 L 0.684609 2.723174 L 0.723332 2.66819 L 0.762193 2.616238 L 0.800916 2.567456 L 0.839776 2.521842 L 0.878499 2.479537 L 0.91736 2.440676 L 0.956083 2.405398 L 0.994944 2.373566 L 1.033666 2.345591 L 1.072527 2.3212 L 1.11125 2.300667 L 1.150111 2.284269 L 1.188834 2.271729 L 1.227694 2.263322 L 1.266417 2.258499 L 1.305278 2.256708 L 1.344001 2.25781 L 1.382861 2.261807 L 1.421584 2.268697 L 1.460445 2.278619 L 1.499168 2.291297 L 1.538028 2.306731 L 1.576751 2.325059 L 1.615612 2.34628 L 1.654335 2.37012 L 1.693196 2.396854 L 1.731918 2.426207 L 1.770779 2.458315 L 1.809502 2.493041 L 1.848363 2.532178 L 1.887086 2.576964 L 1.925946 2.626573 L 1.964669 2.680179 L 2.00353 2.736816 L 2.042253 2.795796 L 2.081113 2.856292 L 2.119836 2.917477 L 2.158697 2.978524 L 2.19742 3.038469 L 2.23628 3.09676 L 2.275003 3.152295 L 2.313864 3.204523 L 2.352587 3.252478 L 2.391447 3.295197 L 2.43017 3.336125 L 2.469031 3.378155 L 2.507754 3.420048 L 2.546615 3.460562 L 2.585337 3.498596 L 2.624198 3.532771 L 2.662921 3.561986 L 2.701782 3.585137 L 2.740505 3.600846 L 2.779365 3.607874 L 2.818088 3.605256 L 2.856949 3.591613 L 2.895672 3.565706 L 2.934532 3.526432 L 2.973255 3.472413 L 3.012116 3.409988 L 3.050839 3.345771 L 3.089562 3.280177 L 3.128422 3.213204 L 3.167145 3.145267 L 3.206006 3.076503 L 3.244729 3.007188 L 3.283589 2.937321 L 3.322312 2.867317 L 3.361173 2.797174 L 3.399896 2.727308 L 3.438757 2.657717 L 3.477479 2.588815 L 3.51634 2.52074 L 3.555063 2.453492 L 3.593924 2.38707 L 3.632646 2.320787 L 3.671507 2.254641 L 3.71023 2.188771 L 3.749091 2.123176 L 3.787814 2.057857 L 3.826674 1.992951 L 3.865397 1.928321 L 3.904258 1.864105 L 3.942981 1.800164 L 3.981841 1.736774 L 4.020564 1.673936 L 4.059425 1.611373 L 4.098148 1.549499 L 4.137008 1.488176 L 4.175731 1.435948 L 4.214592 1.401222 L 4.253315 1.383859 L 4.292176 1.383859 L 4.330898 1.400946 L 4.369759 1.435122 L 4.408482 1.485971 L 4.447343 1.553633 L 4.486066 1.637693 L 4.524926 1.73829 L 4.563649 1.855148 L 4.60251 1.988128 L 4.641233 2.137094 L 4.680093 2.30177 L 4.718816 2.482293 L 4.757677 2.673151 L 4.7964 2.868695 L 4.83526 3.068372 L 4.873983 3.271633 L 4.912844 3.477788 L 4.951567 3.686009 L 4.990428 3.895884 L 5.02915 4.106586 L 5.068011 4.317564 L 5.106734 4.528266 L 5.145595 4.738003 L 5.184317 4.945949 L 5.223178 5.151691 L 5.261901 5.354538 L 5.300762 5.553802 L 5.339485 5.750724 L 5.378345 5.946956 L 5.417068 6.142224 L 5.455929 6.336528 L 5.494652 6.529591 L 5.533512 6.721414 L 5.572235 6.911721 L 5.611096 7.100237 L 5.649819 7.286961 L 5.688679 7.471618 L 5.727402 7.654208 L 5.766263 7.834593 L 5.804986 8.01236 L 5.843847 8.187509 L 5.882569 8.359763 L 5.92143 8.51934 L 5.960153 8.656042 L 5.999014 8.770005 L 6.006731 8.788333 " transform="matrix(28.346457,0,0,-28.346457,1,256.11811)"/>
<path style="fill:none;stroke-width:0.05;stroke-linecap:butt;stroke-linejoin:miter;stroke:rgb(90%,57%,26%);stroke-opacity:1;stroke-miterlimit:10;" d="M 6.340354 8.788333 L 6.348071 8.770005 L 6.386794 8.656042 L 6.425654 8.51934 L 6.464377 8.359763 L 6.503238 8.187509 L 6.541961 8.01236 L 6.580821 7.834593 L 6.619544 7.654208 L 6.658405 7.471618 L 6.697128 7.286961 L 6.735988 7.100237 L 6.774711 6.911721 L 6.813572 6.721414 L 6.852295 6.529591 L 6.891156 6.336528 L 6.929878 6.142224 L 6.968739 5.946956 L 7.007462 5.750724 L 7.046323 5.553802 L 7.085046 5.354538 L 7.123906 5.151691 L 7.162629 4.945949 L 7.20149 4.738003 L 7.240213 4.528266 L 7.279073 4.317564 L 7.317796 4.106586 L 7.356657 3.895884 L 7.39538 3.686009 L 7.43424 3.477788 L 7.472963 3.271633 L 7.511824 3.068372 L 7.550547 2.868695 L 7.589408 2.673151 L 7.62813 2.482293 L 7.666991 2.30177 L 7.705714 2.137094 L 7.744575 1.988128 L 7.783298 1.855148 L 7.822158 1.73829 L 7.860881 1.637693 L 7.899742 1.553633 L 7.938465 1.485971 L 7.977325 1.435122 L 8.016048 1.400946 L 8.054909 1.383859 L 8.093632 1.383859 L 8.132492 1.401222 L 8.171215 1.435948 L 8.210076 1.488176 L 8.248799 1.549499 L 8.28766 1.611373 L 8.326382 1.673936 L 8.365243 1.736774 L 8.403966 1.800164 L 8.442827 1.864105 L 8.481549 1.928321 L 8.52041 1.992951 L 8.559133 2.057857 L 8.597994 2.123176 L 8.636717 2.188771 L 8.675577 2.254641 L 8.7143 2.320787 L 8.753161 2.38707 L 8.791884 2.453492 L 8.830744 2.52074 L 8.869467 2.588815 L 8.908328 2.657717 L 8.947051 2.727308 L 8.985911 2.797174 L 9.024634 2.867317 L 9.063495 2.937321 L 9.102218 3.007188 L 9.141079 3.076503 L 9.179801 3.145267 L 9.218662 3.213204 L 9.257385 3.280177 L 9.296246 3.345771 L 9.334969 3.409988 L 9.373829 3.472413 L 9.412552 3.526432 L 9.451413 3.565706 L 9.490136 3.591613 L 9.528859 3.605256 L 9.567719 3.607874 L 9.606442 3.600846 L 9.645303 3.585137 L 9.684026 3.561986 L 9.722886 3.532771 L 9.761609 3.498596 L 9.80047 3.460562 L 9.839193 3.420048 L 9.878053 3.378155 L 9.916776 3.336125 L 9.955637 3.295197 L 9.99436 3.252478 L 10.03322 3.204523 L 10.071943 3.152295 L 10.110804 3.09676 L 10.149527 3.038469 L 10.188388 2.978524 L 10.22711 2.917477 L 10.265971 2.856292 L 10.304694 2.795796 L 10.343555 2.736816 L 10.382278 2.680179 L 10.421138 2.626573 L 10.459861 2.576964 L 10.498722 2.532178 L 10.537445 2.493041 L 10.576305 2.458315 L 10.615028 2.426207 L 10.653889 2.396854 L 10.692612 2.37012 L 10.731472 2.34628 L 10.770195 2.325059 L 10.809056 2.306731 L 10.847779 2.291297 L 10.88664 2.278619 L 10.925362 2.268697 L 10.964223 2.261807 L 11.002946 2.25781 L 11.041807 2.256708 L 11.08053 2.258499 L 11.11939 2.263322 L 11.158113 2.271729 L 11.196974 2.284269 L 11.235697 2.300667 L 11.274557 2.3212 L 11.31328 2.345591 L 11.352141 2.373566 L 11.390864 2.405398 L 11.429724 2.440676 L 11.468447 2.479537 L 11.507308 2.521842 L 11.546031 2.567456 L 11.584891 2.616238 L 11.623614 2.66819 L 11.662475 2.723174 L 11.701198 2.781189 " transform="matrix(28.346457,0,0,-28.346457,1,256.11811)"/>
<path style="fill-rule:nonzero;fill:rgb(90%,57%,26%);fill-opacity:1;stroke-width:0.05;stroke-linecap:butt;stroke-linejoin:round;stroke:rgb(90%,57%,26%);stroke-opacity:1;stroke-miterlimit:10;" d="M 0.733254 2.781189 C 0.733254 2.897909 0.558243 2.897909 0.558243 2.781189 C 0.558243 2.664607 0.733254 2.664607 0.733254 2.781189 Z M 0.733254 2.781189 " transform="matrix(28.346457,0,0,-28.346457,1,256.11811)"/>
<path style="fill-rule:nonzero;fill:rgb(90%,57%,26%);fill-opacity:1;stroke-width:0.05;stroke-linecap:butt;stroke-linejoin:round;stroke:rgb(90%,57%,26%);stroke-opacity:1;stroke-miterlimit:10;" d="M 1.3152 2.263322 C 1.3152 2.380042 1.140189 2.380042 1.140189 2.263322 C 1.140189 2.146603 1.3152 2.146603 1.3152 2.263322 Z M 1.3152 2.263322 " transform="matrix(28.346457,0,0,-28.346457,1,256.11811)"/>
<path style="fill-rule:nonzero;fill:rgb(90%,57%,26%);fill-opacity:1;stroke-width:0.05;stroke-linecap:butt;stroke-linejoin:round;stroke:rgb(90%,57%,26%);stroke-opacity:1;stroke-miterlimit:10;" d="M 1.897007 2.493041 C 1.897007 2.609761 1.721997 2.609761 1.721997 2.493041 C 1.721997 2.376322 1.897007 2.376322 1.897007 2.493041 Z M 1.897007 2.493041 " transform="matrix(28.346457,0,0,-28.346457,1,256.11811)"/>
<path style="fill-rule:nonzero;fill:rgb(90%,57%,26%);fill-opacity:1;stroke-width:0.05;stroke-linecap:butt;stroke-linejoin:round;stroke:rgb(90%,57%,26%);stroke-opacity:1;stroke-miterlimit:10;" d="M 2.478953 3.295197 C 2.478953 3.411917 2.303942 3.411917 2.303942 3.295197 C 2.303942 3.178615 2.478953 3.178615 2.478953 3.295197 Z M 2.478953 3.295197 " transform="matrix(28.346457,0,0,-28.346457,1,256.11811)"/>
<path style="fill-rule:nonzero;fill:rgb(90%,57%,26%);fill-opacity:1;stroke-width:0.05;stroke-linecap:butt;stroke-linejoin:round;stroke:rgb(90%,57%,26%);stroke-opacity:1;stroke-miterlimit:10;" d="M 3.060761 3.472413 C 3.060761 3.589133 2.88575 3.589133 2.88575 3.472413 C 2.88575 3.355831 3.060761 3.355831 3.060761 3.472413 Z M 3.060761 3.472413 " transform="matrix(28.346457,0,0,-28.346457,1,256.11811)"/>
<path style="fill-rule:nonzero;fill:rgb(90%,57%,26%);fill-opacity:1;stroke-width:0.05;stroke-linecap:butt;stroke-linejoin:round;stroke:rgb(90%,57%,26%);stroke-opacity:1;stroke-miterlimit:10;" d="M 3.642568 2.453492 C 3.642568 2.570212 3.467558 2.570212 3.467558 2.453492 C 3.467558 2.33691 3.642568 2.33691 3.642568 2.453492 Z M 3.642568 2.453492 " transform="matrix(28.346457,0,0,-28.346457,1,256.11811)"/>
<path style="fill-rule:nonzero;fill:rgb(90%,57%,26%);fill-opacity:1;stroke-width:0.05;stroke-linecap:butt;stroke-linejoin:round;stroke:rgb(90%,57%,26%);stroke-opacity:1;stroke-miterlimit:10;" d="M 4.224514 1.488176 C 4.224514 1.604758 4.049503 1.604758 4.049503 1.488176 C 4.049503 1.371456 4.224514 1.371456 4.224514 1.488176 Z M 4.224514 1.488176 " transform="matrix(28.346457,0,0,-28.346457,1,256.11811)"/>
<path style="fill-rule:nonzero;fill:rgb(90%,57%,26%);fill-opacity:1;stroke-width:0.05;stroke-linecap:butt;stroke-linejoin:round;stroke:rgb(90%,57%,26%);stroke-opacity:1;stroke-miterlimit:10;" d="M 4.806322 2.482293 C 4.806322 2.598875 4.631311 2.598875 4.631311 2.482293 C 4.631311 2.365573 4.806322 2.365573 4.806322 2.482293 Z M 4.806322 2.482293 " transform="matrix(28.346457,0,0,-28.346457,1,256.11811)"/>
<path style="fill-rule:nonzero;fill:rgb(90%,57%,26%);fill-opacity:1;stroke-width:0.05;stroke-linecap:butt;stroke-linejoin:round;stroke:rgb(90%,57%,26%);stroke-opacity:1;stroke-miterlimit:10;" d="M 5.388267 5.553802 C 5.388267 5.670384 5.213256 5.670384 5.213256 5.553802 C 5.213256 5.437082 5.388267 5.437082 5.388267 5.553802 Z M 5.388267 5.553802 " transform="matrix(28.346457,0,0,-28.346457,1,256.11811)"/>
<path style="fill-rule:nonzero;fill:rgb(90%,57%,26%);fill-opacity:1;stroke-width:0.05;stroke-linecap:butt;stroke-linejoin:round;stroke:rgb(90%,57%,26%);stroke-opacity:1;stroke-miterlimit:10;" d="M 5.970075 8.359763 C 5.970075 8.476483 5.795064 8.476483 5.795064 8.359763 C 5.795064 8.243181 5.970075 8.243181 5.970075 8.359763 Z M 5.970075 8.359763 " transform="matrix(28.346457,0,0,-28.346457,1,256.11811)"/>
<path style="fill-rule:nonzero;fill:rgb(90%,57%,26%);fill-opacity:1;stroke-width:0.05;stroke-linecap:butt;stroke-linejoin:round;stroke:rgb(90%,57%,26%);stroke-opacity:1;stroke-miterlimit:10;" d="M 6.551883 8.359763 C 6.551883 8.476483 6.37701 8.476483 6.37701 8.359763 C 6.37701 8.243181 6.551883 8.243181 6.551883 8.359763 Z M 6.551883 8.359763 " transform="matrix(28.346457,0,0,-28.346457,1,256.11811)"/>
<path style="fill-rule:nonzero;fill:rgb(90%,57%,26%);fill-opacity:1;stroke-width:0.05;stroke-linecap:butt;stroke-linejoin:round;stroke:rgb(90%,57%,26%);stroke-opacity:1;stroke-miterlimit:10;" d="M 7.133828 5.553802 C 7.133828 5.670384 6.958817 5.670384 6.958817 5.553802 C 6.958817 5.437082 7.133828 5.437082 7.133828 5.553802 Z M 7.133828 5.553802 " transform="matrix(28.346457,0,0,-28.346457,1,256.11811)"/>
<path style="fill-rule:nonzero;fill:rgb(90%,57%,26%);fill-opacity:1;stroke-width:0.05;stroke-linecap:butt;stroke-linejoin:round;stroke:rgb(90%,57%,26%);stroke-opacity:1;stroke-miterlimit:10;" d="M 7.715636 2.482293 C 7.715636 2.598875 7.540625 2.598875 7.540625 2.482293 C 7.540625 2.365573 7.715636 2.365573 7.715636 2.482293 Z M 7.715636 2.482293 " transform="matrix(28.346457,0,0,-28.346457,1,256.11811)"/>
<path style="fill-rule:nonzero;fill:rgb(90%,57%,26%);fill-opacity:1;stroke-width:0.05;stroke-linecap:butt;stroke-linejoin:round;stroke:rgb(90%,57%,26%);stroke-opacity:1;stroke-miterlimit:10;" d="M 8.297581 1.488176 C 8.297581 1.604758 8.122571 1.604758 8.122571 1.488176 C 8.122571 1.371456 8.297581 1.371456 8.297581 1.488176 Z M 8.297581 1.488176 " transform="matrix(28.346457,0,0,-28.346457,1,256.11811)"/>
<path style="fill-rule:nonzero;fill:rgb(90%,57%,26%);fill-opacity:1;stroke-width:0.05;stroke-linecap:butt;stroke-linejoin:round;stroke:rgb(90%,57%,26%);stroke-opacity:1;stroke-miterlimit:10;" d="M 8.879389 2.453492 C 8.879389 2.570212 8.704378 2.570212 8.704378 2.453492 C 8.704378 2.33691 8.879389 2.33691 8.879389 2.453492 Z M 8.879389 2.453492 " transform="matrix(28.346457,0,0,-28.346457,1,256.11811)"/>
<path style="fill-rule:nonzero;fill:rgb(90%,57%,26%);fill-opacity:1;stroke-width:0.05;stroke-linecap:butt;stroke-linejoin:round;stroke:rgb(90%,57%,26%);stroke-opacity:1;stroke-miterlimit:10;" d="M 9.461197 3.472413 C 9.461197 3.589133 9.286324 3.589133 9.286324 3.472413 C 9.286324 3.355831 9.461197 3.355831 9.461197 3.472413 Z M 9.461197 3.472413 " transform="matrix(28.346457,0,0,-28.346457,1,256.11811)"/>
<path style="fill-rule:nonzero;fill:rgb(90%,57%,26%);fill-opacity:1;stroke-width:0.05;stroke-linecap:butt;stroke-linejoin:round;stroke:rgb(90%,57%,26%);stroke-opacity:1;stroke-miterlimit:10;" d="M 10.043142 3.295197 C 10.043142 3.411917 9.868132 3.411917 9.868132 3.295197 C 9.868132 3.178615 10.043142 3.178615 10.043142 3.295197 Z M 10.043142 3.295197 " transform="matrix(28.346457,0,0,-28.346457,1,256.11811)"/>
<path style="fill-rule:nonzero;fill:rgb(90%,57%,26%);fill-opacity:1;stroke-width:0.05;stroke-linecap:butt;stroke-linejoin:round;stroke:rgb(90%,57%,26%);stroke-opacity:1;stroke-miterlimit:10;" d="M 10.62495 2.493041 C 10.62495 2.609761 10.449939 2.609761 10.449939 2.493041 C 10.449939 2.376322 10.62495 2.376322 10.62495 2.493041 Z M 10.62495 2.493041 " transform="matrix(28.346457,0,0,-28.346457,1,256.11811)"/>
<path style="fill-rule:nonzero;fill:rgb(90%,57%,26%);fill-opacity:1;stroke-width:0.05;stroke-linecap:butt;stroke-linejoin:round;stroke:rgb(90%,57%,26%);stroke-opacity:1;stroke-miterlimit:10;" d="M 11.206896 2.263322 C 11.206896 2.380042 11.031885 2.380042 11.031885 2.263322 C 11.031885 2.146603 11.206896 2.146603 11.206896 2.263322 Z M 11.206896 2.263322 " transform="matrix(28.346457,0,0,-28.346457,1,256.11811)"/>
<path style="fill-rule:nonzero;fill:rgb(90%,57%,26%);fill-opacity:1;stroke-width:0.05;stroke-linecap:butt;stroke-linejoin:round;stroke:rgb(90%,57%,26%);stroke-opacity:1;stroke-miterlimit:10;" d="M 11.788703 2.781189 C 11.788703 2.897909 11.613692 2.897909 11.613692 2.781189 C 11.613692 2.664607 11.788703 2.664607 11.788703 2.781189 Z M 11.788703 2.781189 " transform="matrix(28.346457,0,0,-28.346457,1,256.11811)"/>
<path style="fill:none;stroke-width:0.05;stroke-linecap:butt;stroke-linejoin:miter;stroke:rgb(82%,37%,36%);stroke-opacity:1;stroke-miterlimit:10;" d="M 0.645749 2.781189 L 0.684609 2.729788 L 0.723332 2.682108 L 0.762193 2.638424 L 0.800916 2.598875 L 0.839776 2.563321 L 0.878499 2.53204 L 0.91736 2.50503 L 0.956083 2.482568 L 0.994944 2.464378 L 1.033666 2.450873 L 1.072527 2.442054 L 1.11125 2.43792 L 1.150111 2.438747 L 1.188834 2.444397 L 1.227694 2.455008 L 1.266417 2.473887 L 1.305278 2.503101 L 1.344001 2.540859 L 1.382861 2.585646 L 1.421584 2.635806 L 1.460445 2.689688 L 1.499168 2.745911 L 1.538028 2.802549 L 1.576751 2.858084 L 1.615612 2.911 L 1.654335 2.959507 L 1.693196 3.002089 L 1.731918 3.037229 L 1.770779 3.063136 L 1.809502 3.078156 L 1.848363 3.085736 L 1.887086 3.090008 L 1.925946 3.09111 L 1.964669 3.089456 L 2.00353 3.085047 L 2.042253 3.078156 L 2.081113 3.068924 L 2.119836 3.057624 L 2.158697 3.044257 L 2.19742 3.029098 L 2.23628 3.012286 L 2.275003 2.993958 L 2.313864 2.974528 L 2.352587 2.953995 L 2.391447 2.932498 L 2.43017 2.904386 L 2.469031 2.865387 L 2.507754 2.817156 L 2.546615 2.761759 L 2.585337 2.701125 L 2.624198 2.637184 L 2.662921 2.572003 L 2.701782 2.507235 L 2.740505 2.444948 L 2.779365 2.387208 L 2.818088 2.335807 L 2.856949 2.292675 L 2.895672 2.259877 L 2.934532 2.239207 L 2.973255 2.232592 L 3.012116 2.242376 L 3.050839 2.267732 L 3.089562 2.306868 L 3.128422 2.357718 L 3.167145 2.418076 L 3.206006 2.486013 L 3.244729 2.559463 L 3.283589 2.636357 L 3.322312 2.714768 L 3.361173 2.792627 L 3.399896 2.867868 L 3.438757 2.938286 L 3.477479 3.002089 L 3.51634 3.05721 L 3.555063 3.101445 L 3.593924 3.137826 L 3.632646 3.170761 L 3.671507 3.200388 L 3.71023 3.226571 L 3.749091 3.249447 L 3.787814 3.26929 L 3.826674 3.285827 L 3.865397 3.299332 L 3.904258 3.309667 L 3.942981 3.317246 L 3.981841 3.321794 L 4.020564 3.323585 L 4.059425 3.32262 L 4.098148 3.3189 L 4.137008 3.312561 L 4.175731 3.28624 L 4.214592 3.22602 L 4.253315 3.136861 L 4.292176 3.023586 L 4.330898 2.891157 L 4.369759 2.744671 L 4.408482 2.588953 L 4.447343 2.4291 L 4.486066 2.269937 L 4.524926 2.116424 L 4.563649 1.973521 L 4.60251 1.84619 L 4.641233 1.739392 L 4.680093 1.658088 L 4.718816 1.607238 L 4.757677 1.58519 L 4.7964 1.586155 L 4.83526 1.608754 L 4.873983 1.651749 L 4.912844 1.714036 L 4.951567 1.7941 L 4.990428 1.890977 L 5.02915 2.003149 L 5.068011 2.129515 L 5.106734 2.268697 L 5.145595 2.419454 L 5.184317 2.580685 L 5.223178 2.750872 L 5.261901 2.928915 L 5.300762 3.113434 L 5.339485 3.325377 L 5.378345 3.581829 L 5.417068 3.875765 L 5.455929 4.200706 L 5.494652 4.549488 L 5.533512 4.915357 L 5.572235 5.291424 L 5.611096 5.671073 L 5.649819 6.047278 L 5.688679 6.413285 L 5.727402 6.762204 L 5.766263 7.087145 L 5.804986 7.381356 L 5.843847 7.638085 L 5.882569 7.850303 L 5.92143 8.025451 L 5.960153 8.175658 L 5.999014 8.300921 L 6.037737 8.400967 L 6.076597 8.47607 L 6.11532 8.526093 L 6.154181 8.551173 L 6.192904 8.551173 L 6.231764 8.526093 L 6.270487 8.47607 L 6.30921 8.400967 L 6.348071 8.300921 L 6.386794 8.175658 L 6.425654 8.025451 L 6.464377 7.850303 L 6.503238 7.638085 L 6.541961 7.381356 L 6.580821 7.087145 L 6.619544 6.762204 L 6.658405 6.413285 L 6.697128 6.047278 L 6.735988 5.671073 L 6.774711 5.291424 L 6.813572 4.915357 L 6.852295 4.549488 L 6.891156 4.200706 L 6.929878 3.875765 L 6.968739 3.581829 L 7.007462 3.325377 L 7.046323 3.113434 L 7.085046 2.928915 L 7.123906 2.750872 L 7.162629 2.580685 L 7.20149 2.419454 L 7.240213 2.268697 L 7.279073 2.129515 L 7.317796 2.003149 L 7.356657 1.890977 L 7.39538 1.7941 L 7.43424 1.714036 L 7.472963 1.651749 L 7.511824 1.608754 L 7.550547 1.586155 L 7.589408 1.58519 L 7.62813 1.607238 L 7.666991 1.658088 L 7.705714 1.739392 L 7.744575 1.84619 L 7.783298 1.973521 L 7.822158 2.116424 L 7.860881 2.269937 L 7.899742 2.4291 L 7.938465 2.588953 L 7.977325 2.744671 L 8.016048 2.891157 L 8.054909 3.023586 L 8.093632 3.136861 L 8.132492 3.22602 L 8.171215 3.28624 L 8.210076 3.312561 L 8.248799 3.3189 L 8.28766 3.32262 L 8.326382 3.323585 L 8.365243 3.321794 L 8.403966 3.317246 L 8.442827 3.309667 L 8.481549 3.299332 L 8.52041 3.285827 L 8.559133 3.26929 L 8.597994 3.249447 L 8.636717 3.226571 L 8.675577 3.200388 L 8.7143 3.170761 L 8.753161 3.137826 L 8.791884 3.101445 L 8.830744 3.05721 L 8.869467 3.002089 L 8.908328 2.938286 L 8.947051 2.867868 L 8.985911 2.792627 L 9.024634 2.714768 L 9.063495 2.636357 L 9.102218 2.559463 L 9.141079 2.486013 L 9.179801 2.418076 L 9.218662 2.357718 L 9.257385 2.306868 L 9.296246 2.267732 L 9.334969 2.242376 L 9.373829 2.232592 L 9.412552 2.239207 L 9.451413 2.259877 L 9.490136 2.292675 L 9.528859 2.335807 L 9.567719 2.387208 L 9.606442 2.444948 L 9.645303 2.507235 L 9.684026 2.572003 L 9.722886 2.637184 L 9.761609 2.701125 L 9.80047 2.761759 L 9.839193 2.817156 L 9.878053 2.865387 L 9.916776 2.904386 L 9.955637 2.932498 L 9.99436 2.953995 L 10.03322 2.974528 L 10.071943 2.993958 L 10.110804 3.012286 L 10.149527 3.029098 L 10.188388 3.044257 L 10.22711 3.057624 L 10.265971 3.068924 L 10.304694 3.078156 L 10.343555 3.085047 L 10.382278 3.089456 L 10.421138 3.09111 L 10.459861 3.090008 L 10.498722 3.085736 L 10.537445 3.078156 L 10.576305 3.063136 L 10.615028 3.037229 L 10.653889 3.002089 L 10.692612 2.959507 L 10.731472 2.911 L 10.770195 2.858084 L 10.809056 2.802549 L 10.847779 2.745911 L 10.88664 2.689688 L 10.925362 2.635806 L 10.964223 2.585646 L 11.002946 2.540859 L 11.041807 2.503101 L 11.08053 2.473887 L 11.11939 2.455008 L 11.158113 2.444397 L 11.196974 2.438747 L 11.235697 2.43792 L 11.274557 2.442054 L 11.31328 2.450873 L 11.352141 2.464378 L 11.390864 2.482568 L 11.429724 2.50503 L 11.468447 2.53204 L 11.507308 2.563321 L 11.546031 2.598875 L 11.584891 2.638424 L 11.623614 2.682108 L 11.662475 2.729788 L 11.701198 2.781189 " transform="matrix(28.346457,0,0,-28.346457,1,256.11811)"/>
<path style="fill-rule:nonzero;fill:rgb(82%,37%,36%);fill-opacity:1;stroke-width:0.05;stroke-linecap:butt;stroke-linejoin:round;stroke:rgb(82%,37%,36%);stroke-opacity:1;stroke-miterlimit:10;" d="M 0.82076 2.781189 C 0.82076 3.014629 0.470738 3.014629 0.470738 2.781189 C 0.470738 2.547887 0.82076 2.547887 0.82076 2.781189 Z M 0.82076 2.781189 " transform="matrix(28.346457,0,0,-28.346457,1,256.11811)"/>
<path style="fill-rule:nonzero;fill:rgb(82%,37%,36%);fill-opacity:1;stroke-width:0.05;stroke-linecap:butt;stroke-linejoin:round;stroke:rgb(82%,37%,36%);stroke-opacity:1;stroke-miterlimit:10;" d="M 1.402705 2.455008 C 1.402705 2.688447 1.052683 2.688447 1.052683 2.455008 C 1.052683 2.221706 1.402705 2.221706 1.402705 2.455008 Z M 1.402705 2.455008 " transform="matrix(28.346457,0,0,-28.346457,1,256.11811)"/>
<path style="fill-rule:nonzero;fill:rgb(82%,37%,36%);fill-opacity:1;stroke-width:0.05;stroke-linecap:butt;stroke-linejoin:round;stroke:rgb(82%,37%,36%);stroke-opacity:1;stroke-miterlimit:10;" d="M 1.984513 3.078156 C 1.984513 3.311596 1.634491 3.311596 1.634491 3.078156 C 1.634491 2.844855 1.984513 2.844855 1.984513 3.078156 Z M 1.984513 3.078156 " transform="matrix(28.346457,0,0,-28.346457,1,256.11811)"/>
<path style="fill-rule:nonzero;fill:rgb(82%,37%,36%);fill-opacity:1;stroke-width:0.05;stroke-linecap:butt;stroke-linejoin:round;stroke:rgb(82%,37%,36%);stroke-opacity:1;stroke-miterlimit:10;" d="M 2.566458 2.932498 C 2.566458 3.1658 2.216437 3.1658 2.216437 2.932498 C 2.216437 2.699196 2.566458 2.699196 2.566458 2.932498 Z M 2.566458 2.932498 " transform="matrix(28.346457,0,0,-28.346457,1,256.11811)"/>
<path style="fill-rule:nonzero;fill:rgb(82%,37%,36%);fill-opacity:1;stroke-width:0.05;stroke-linecap:butt;stroke-linejoin:round;stroke:rgb(82%,37%,36%);stroke-opacity:1;stroke-miterlimit:10;" d="M 3.148266 2.232592 C 3.148266 2.466032 2.798244 2.466032 2.798244 2.232592 C 2.798244 1.99929 3.148266 1.99929 3.148266 2.232592 Z M 3.148266 2.232592 " transform="matrix(28.346457,0,0,-28.346457,1,256.11811)"/>
<path style="fill-rule:nonzero;fill:rgb(82%,37%,36%);fill-opacity:1;stroke-width:0.05;stroke-linecap:butt;stroke-linejoin:round;stroke:rgb(82%,37%,36%);stroke-opacity:1;stroke-miterlimit:10;" d="M 3.730074 3.101445 C 3.730074 3.334747 3.38019 3.334747 3.38019 3.101445 C 3.38019 2.868143 3.730074 2.868143 3.730074 3.101445 Z M 3.730074 3.101445 " transform="matrix(28.346457,0,0,-28.346457,1,256.11811)"/>
<path style="fill-rule:nonzero;fill:rgb(82%,37%,36%);fill-opacity:1;stroke-width:0.05;stroke-linecap:butt;stroke-linejoin:round;stroke:rgb(82%,37%,36%);stroke-opacity:1;stroke-miterlimit:10;" d="M 4.312019 3.312561 C 4.312019 3.545863 3.961998 3.545863 3.961998 3.312561 C 3.961998 3.079259 4.312019 3.079259 4.312019 3.312561 Z M 4.312019 3.312561 " transform="matrix(28.346457,0,0,-28.346457,1,256.11811)"/>
<path style="fill-rule:nonzero;fill:rgb(82%,37%,36%);fill-opacity:1;stroke-width:0.05;stroke-linecap:butt;stroke-linejoin:round;stroke:rgb(82%,37%,36%);stroke-opacity:1;stroke-miterlimit:10;" d="M 4.893827 1.607238 C 4.893827 1.840678 4.543805 1.840678 4.543805 1.607238 C 4.543805 1.373937 4.893827 1.373937 4.893827 1.607238 Z M 4.893827 1.607238 " transform="matrix(28.346457,0,0,-28.346457,1,256.11811)"/>
<path style="fill-rule:nonzero;fill:rgb(82%,37%,36%);fill-opacity:1;stroke-width:0.05;stroke-linecap:butt;stroke-linejoin:round;stroke:rgb(82%,37%,36%);stroke-opacity:1;stroke-miterlimit:10;" d="M 5.475773 3.113434 C 5.475773 3.346736 5.125751 3.346736 5.125751 3.113434 C 5.125751 2.880132 5.475773 2.880132 5.475773 3.113434 Z M 5.475773 3.113434 " transform="matrix(28.346457,0,0,-28.346457,1,256.11811)"/>
<path style="fill-rule:nonzero;fill:rgb(82%,37%,36%);fill-opacity:1;stroke-width:0.05;stroke-linecap:butt;stroke-linejoin:round;stroke:rgb(82%,37%,36%);stroke-opacity:1;stroke-miterlimit:10;" d="M 6.05758 7.850303 C 6.05758 8.083605 5.707559 8.083605 5.707559 7.850303 C 5.707559 7.617001 6.05758 7.617001 6.05758 7.850303 Z M 6.05758 7.850303 " transform="matrix(28.346457,0,0,-28.346457,1,256.11811)"/>
<path style="fill-rule:nonzero;fill:rgb(82%,37%,36%);fill-opacity:1;stroke-width:0.05;stroke-linecap:butt;stroke-linejoin:round;stroke:rgb(82%,37%,36%);stroke-opacity:1;stroke-miterlimit:10;" d="M 6.639388 7.850303 C 6.639388 8.083605 6.289504 8.083605 6.289504 7.850303 C 6.289504 7.617001 6.639388 7.617001 6.639388 7.850303 Z M 6.639388 7.850303 " transform="matrix(28.346457,0,0,-28.346457,1,256.11811)"/>
<path style="fill-rule:nonzero;fill:rgb(82%,37%,36%);fill-opacity:1;stroke-width:0.05;stroke-linecap:butt;stroke-linejoin:round;stroke:rgb(82%,37%,36%);stroke-opacity:1;stroke-miterlimit:10;" d="M 7.221334 3.113434 C 7.221334 3.346736 6.871312 3.346736 6.871312 3.113434 C 6.871312 2.880132 7.221334 2.880132 7.221334 3.113434 Z M 7.221334 3.113434 " transform="matrix(28.346457,0,0,-28.346457,1,256.11811)"/>
<path style="fill-rule:nonzero;fill:rgb(82%,37%,36%);fill-opacity:1;stroke-width:0.05;stroke-linecap:butt;stroke-linejoin:round;stroke:rgb(82%,37%,36%);stroke-opacity:1;stroke-miterlimit:10;" d="M 7.803141 1.607238 C 7.803141 1.840678 7.45312 1.840678 7.45312 1.607238 C 7.45312 1.373937 7.803141 1.373937 7.803141 1.607238 Z M 7.803141 1.607238 " transform="matrix(28.346457,0,0,-28.346457,1,256.11811)"/>
<path style="fill-rule:nonzero;fill:rgb(82%,37%,36%);fill-opacity:1;stroke-width:0.05;stroke-linecap:butt;stroke-linejoin:round;stroke:rgb(82%,37%,36%);stroke-opacity:1;stroke-miterlimit:10;" d="M 8.385087 3.312561 C 8.385087 3.545863 8.035065 3.545863 8.035065 3.312561 C 8.035065 3.079259 8.385087 3.079259 8.385087 3.312561 Z M 8.385087 3.312561 " transform="matrix(28.346457,0,0,-28.346457,1,256.11811)"/>
<path style="fill-rule:nonzero;fill:rgb(82%,37%,36%);fill-opacity:1;stroke-width:0.05;stroke-linecap:butt;stroke-linejoin:round;stroke:rgb(82%,37%,36%);stroke-opacity:1;stroke-miterlimit:10;" d="M 8.966895 3.101445 C 8.966895 3.334747 8.616873 3.334747 8.616873 3.101445 C 8.616873 2.868143 8.966895 2.868143 8.966895 3.101445 Z M 8.966895 3.101445 " transform="matrix(28.346457,0,0,-28.346457,1,256.11811)"/>
<path style="fill-rule:nonzero;fill:rgb(82%,37%,36%);fill-opacity:1;stroke-width:0.05;stroke-linecap:butt;stroke-linejoin:round;stroke:rgb(82%,37%,36%);stroke-opacity:1;stroke-miterlimit:10;" d="M 9.548702 2.232592 C 9.548702 2.466032 9.198818 2.466032 9.198818 2.232592 C 9.198818 1.99929 9.548702 1.99929 9.548702 2.232592 Z M 9.548702 2.232592 " transform="matrix(28.346457,0,0,-28.346457,1,256.11811)"/>
<path style="fill-rule:nonzero;fill:rgb(82%,37%,36%);fill-opacity:1;stroke-width:0.05;stroke-linecap:butt;stroke-linejoin:round;stroke:rgb(82%,37%,36%);stroke-opacity:1;stroke-miterlimit:10;" d="M 10.130648 2.932498 C 10.130648 3.1658 9.780626 3.1658 9.780626 2.932498 C 9.780626 2.699196 10.130648 2.699196 10.130648 2.932498 Z M 10.130648 2.932498 " transform="matrix(28.346457,0,0,-28.346457,1,256.11811)"/>
<path style="fill-rule:nonzero;fill:rgb(82%,37%,36%);fill-opacity:1;stroke-width:0.05;stroke-linecap:butt;stroke-linejoin:round;stroke:rgb(82%,37%,36%);stroke-opacity:1;stroke-miterlimit:10;" d="M 10.712456 3.078156 C 10.712456 3.311596 10.362434 3.311596 10.362434 3.078156 C 10.362434 2.844855 10.712456 2.844855 10.712456 3.078156 Z M 10.712456 3.078156 " transform="matrix(28.346457,0,0,-28.346457,1,256.11811)"/>
<path style="fill-rule:nonzero;fill:rgb(82%,37%,36%);fill-opacity:1;stroke-width:0.05;stroke-linecap:butt;stroke-linejoin:round;stroke:rgb(82%,37%,36%);stroke-opacity:1;stroke-miterlimit:10;" d="M 11.294401 2.455008 C 11.294401 2.688447 10.944379 2.688447 10.944379 2.455008 C 10.944379 2.221706 11.294401 2.221706 11.294401 2.455008 Z M 11.294401 2.455008 " transform="matrix(28.346457,0,0,-28.346457,1,256.11811)"/>
<path style="fill-rule:nonzero;fill:rgb(82%,37%,36%);fill-opacity:1;stroke-width:0.05;stroke-linecap:butt;stroke-linejoin:round;stroke:rgb(82%,37%,36%);stroke-opacity:1;stroke-miterlimit:10;" d="M 11.876209 2.781189 C 11.876209 3.014629 11.526187 3.014629 11.526187 2.781189 C 11.526187 2.547887 11.876209 2.547887 11.876209 2.781189 Z M 11.876209 2.781189 " transform="matrix(28.346457,0,0,-28.346457,1,256.11811)"/>
</g>
</svg>
