<?xml version="1.0" encoding="UTF-8"?>
<svg xmlns="http://www.w3.org/2000/svg" xmlns:xlink="http://www.w3.org/1999/xlink" width="342.15748pt" height="257.11811pt" viewBox="0 0 342.15748 257.11811" version="1.1">
<g id="surface1">
<path style="fill:none;stroke-width:0.02;stroke-linecap:butt;stroke-linejoin:miter;stroke:rgb(0%,0%,0%);stroke-opacity:1;stroke-miterlimit:10;" d="M 0.993979 1.42768 L 1.144047 1.42768 " transform="matrix(28.346457,0,0,-28.346457,1,256.11811)"/>
<path style="fill:none;stroke-width:0.02;stroke-linecap:butt;stroke-linejoin:miter;stroke:rgb(0%,0%,0%);stroke-opacity:1;stroke-miterlimit:10;" d="M 0.993979 2.243341 L 1.144047 2.243341 " transform="matrix(28.346457,0,0,-28.346457,1,256.11811)"/>
<path style="fill:none;stroke-width:0.02;stroke-linecap:butt;stroke-linejoin:miter;stroke:rgb(0%,0%,0%);stroke-opacity:1;stroke-miterlimit:10;" d="M 0.993979 3.05914 L 1.144047 3.05914 " transform="matrix(28.346457,0,0,-28.346457,1,256.11811)"/>
<path style="fill:none;stroke-width:0.02;stroke-linecap:butt;stroke-linejoin:miter;stroke:rgb(0%,0%,0%);stroke-opacity:1;stroke-miterlimit:10;" d="M 0.993979 3.8748 L 1.144047 3.8748 " transform="matrix(28.346457,0,0,-28.346457,1,256.11811)"/>
<path style="fill:none;stroke-width:0.02;stroke-linecap:butt;stroke-linejoin:miter;stroke:rgb(0%,0%,0%);stroke-opacity:1;stroke-miterlimit:10;" d="M 0.993979 4.690461 L 1.144047 4.690461 " transform="matrix(28.346457,0,0,-28.346457,1,256.11811)"/>
<path style="fill:none;stroke-width:0.02;stroke-linecap:butt;stroke-linejoin:miter;stroke:rgb(0%,0%,0%);stroke-opacity:1;stroke-miterlimit:10;" d="M 0.993979 5.50626 L 1.144047 5.50626 " transform="matrix(28.346457,0,0,-28.346457,1,256.11811)"/>
<path style="fill:none;stroke-width:0.02;stroke-linecap:butt;stroke-linejoin:miter;stroke:rgb(0%,0%,0%);stroke-opacity:1;stroke-miterlimit:10;" d="M 0.993979 6.321921 L 1.144047 6.321921 " transform="matrix(28.346457,0,0,-28.346457,1,256.11811)"/>
<path style="fill:none;stroke-width:0.02;stroke-linecap:butt;stroke-linejoin:miter;stroke:rgb(0%,0%,0%);stroke-opacity:1;stroke-miterlimit:10;" d="M 0.993979 7.137581 L 1.144047 7.137581 " transform="matrix(28.346457,0,0,-28.346457,1,256.11811)"/>
<path style="fill:none;stroke-width:0.02;stroke-linecap:butt;stroke-linejoin:miter;stroke:rgb(0%,0%,0%);stroke-opacity:1;stroke-miterlimit:10;" d="M 0.993979 7.953242 L 1.144047 7.953242 " transform="matrix(28.346457,0,0,-28.346457,1,256.11811)"/>
<path style="fill:none;stroke-width:0.02;stroke-linecap:round;stroke-linejoin:miter;stroke:rgb(0%,0%,0%);stroke-opacity:1;stroke-miterlimit:10;" d="M 0.993979 0.612019 L 0.993979 8.769041 " transform="matrix(28.346457,0,0,-28.346457,1,256.11811)"/>
<path style=" stroke:none;fill-rule:nonzero;fill:rgb(0%,0%,0%);fill-opacity:1;" d="M 6.941406 239.683594 L 6.941406 240.316406 L 3.972656 240.316406 L 3.972656 239.683594 Z M 6.941406 239.683594 Z M 6.941406 239.683594 "/>
<path style=" stroke:none;fill-rule:nonzero;fill:rgb(0%,0%,0%);fill-opacity:1;" d="M 10.988281 234.851562 L 10.988281 241.847656 L 11 241.871094 L 12.394531 241.871094 L 12.394531 242.496094 L 8.710938 242.496094 L 8.710938 241.871094 L 10.105469 241.871094 L 10.128906 241.847656 L 10.128906 235.976562 C 9.652344 236.132812 9.152344 236.234375 8.652344 236.222656 L 8.652344 235.589844 C 9.402344 235.601562 10.21875 235.398438 10.785156 234.851562 Z M 10.988281 234.851562 Z M 10.988281 234.851562 "/>
<path style=" stroke:none;fill-rule:nonzero;fill:rgb(0%,0%,0%);fill-opacity:1;" d="M 15.320312 241.585938 L 15.320312 242.496094 L 14.402344 242.496094 L 14.402344 241.585938 Z M 15.320312 241.585938 Z M 15.320312 241.585938 "/>
<path style=" stroke:none;fill-rule:nonzero;fill:rgb(0%,0%,0%);fill-opacity:1;" d="M 19.324219 234.851562 C 20.636719 234.886719 21.679688 236.234375 21.476562 237.503906 C 21.339844 238.777344 20.152344 239.5 19.300781 240.296875 L 18.9375 240.667969 L 18.890625 240.691406 L 18.4375 241.132812 L 18.40625 241.15625 L 17.953125 241.609375 L 17.90625 241.632812 L 17.804688 241.734375 L 17.828125 241.746094 L 21.5 241.746094 L 21.5 242.496094 L 17.011719 242.496094 L 17.011719 241.816406 L 18.835938 239.988281 C 19.707031 239.230469 20.730469 238.242188 20.570312 236.996094 C 20.480469 236.269531 19.867188 235.601562 19.117188 235.542969 C 18.359375 235.429688 17.691406 236.03125 17.519531 236.757812 L 17.496094 236.792969 L 17.476562 236.871094 L 17.371094 237.246094 L 17.363281 237.300781 C 17.203125 237.109375 17.03125 236.90625 16.90625 236.6875 C 17.136719 235.757812 17.882812 234.886719 18.871094 234.851562 Z M 19.324219 234.851562 Z M 19.324219 234.851562 "/>
<path style=" stroke:none;fill-rule:nonzero;fill:rgb(0%,0%,0%);fill-opacity:1;" d="M 6.941406 216.5625 L 6.941406 217.195312 L 3.972656 217.195312 L 3.972656 216.5625 Z M 6.941406 216.5625 Z M 6.941406 216.5625 "/>
<path style=" stroke:none;fill-rule:nonzero;fill:rgb(0%,0%,0%);fill-opacity:1;" d="M 10.988281 211.730469 L 10.988281 218.726562 L 11 218.75 L 12.394531 218.75 L 12.394531 219.371094 L 8.710938 219.371094 L 8.710938 218.75 L 10.105469 218.75 L 10.128906 218.726562 L 10.128906 212.851562 C 9.652344 213.011719 9.152344 213.113281 8.652344 213.101562 L 8.652344 212.46875 C 9.402344 212.480469 10.21875 212.273438 10.785156 211.730469 Z M 10.988281 211.730469 Z M 10.988281 211.730469 "/>
<path style=" stroke:none;fill-rule:nonzero;fill:rgb(0%,0%,0%);fill-opacity:1;" d="M 15.320312 218.464844 L 15.320312 219.371094 L 14.402344 219.371094 L 14.402344 218.464844 Z M 15.320312 218.464844 Z M 15.320312 218.464844 "/>
<path style=" stroke:none;fill-rule:nonzero;fill:rgb(0%,0%,0%);fill-opacity:1;" d="M 19.449219 211.730469 C 20.523438 211.808594 21.238281 212.796875 21.433594 213.792969 C 21.535156 214.246094 21.558594 214.679688 21.601562 215.132812 L 21.601562 216.289062 C 21.546875 217.46875 21.261719 219.019531 19.980469 219.496094 C 18.871094 219.941406 17.566406 219.246094 17.238281 218.113281 C 16.988281 217.511719 16.964844 216.902344 16.90625 216.289062 L 16.90625 215.132812 C 16.964844 213.953125 17.214844 212.386719 18.484375 211.867188 L 18.539062 211.84375 L 18.585938 211.832031 L 18.644531 211.808594 L 18.8125 211.765625 L 18.914062 211.742188 L 19.039062 211.742188 L 19.0625 211.730469 Z M 19.449219 211.730469 Z M 19.097656 212.421875 C 18.144531 212.535156 17.859375 213.679688 17.792969 214.453125 L 17.792969 214.757812 L 17.769531 214.78125 L 17.769531 216.355469 C 17.835938 217.171875 17.894531 218.226562 18.644531 218.773438 C 19.335938 219.246094 20.253906 218.714844 20.445312 217.976562 C 20.648438 217.433594 20.695312 216.902344 20.742188 216.355469 L 20.742188 214.78125 C 20.671875 213.953125 20.558594 212.796875 19.605469 212.46875 L 19.527344 212.445312 L 19.503906 212.421875 L 19.402344 212.421875 L 19.378906 212.398438 L 19.117188 212.398438 Z M 19.097656 212.421875 Z M 19.097656 212.421875 "/>
<path style=" stroke:none;fill-rule:nonzero;fill:rgb(0%,0%,0%);fill-opacity:1;" d="M 6.941406 193.4375 L 6.941406 194.074219 L 3.972656 194.074219 L 3.972656 193.4375 Z M 6.941406 193.4375 Z M 6.941406 193.4375 "/>
<path style=" stroke:none;fill-rule:nonzero;fill:rgb(0%,0%,0%);fill-opacity:1;" d="M 10.636719 188.609375 C 11.714844 188.6875 12.429688 189.675781 12.621094 190.671875 C 12.722656 191.125 12.746094 191.554688 12.792969 192.007812 L 12.792969 193.167969 C 12.734375 194.34375 12.453125 195.898438 11.171875 196.375 C 10.058594 196.816406 8.753906 196.125 8.425781 194.992188 C 8.175781 194.390625 8.15625 193.777344 8.097656 193.167969 L 8.097656 192.007812 C 8.15625 190.832031 8.402344 189.265625 9.675781 188.746094 L 9.730469 188.722656 L 9.777344 188.710938 L 9.832031 188.6875 L 10.003906 188.640625 L 10.105469 188.621094 L 10.230469 188.621094 L 10.253906 188.609375 Z M 10.636719 188.609375 Z M 10.285156 189.300781 C 9.332031 189.414062 9.050781 190.558594 8.980469 191.328125 L 8.980469 191.636719 L 8.960938 191.660156 L 8.960938 193.234375 C 9.027344 194.050781 9.085938 195.105469 9.832031 195.648438 C 10.523438 196.125 11.441406 195.59375 11.636719 194.855469 C 11.839844 194.3125 11.886719 193.777344 11.929688 193.234375 L 11.929688 191.660156 C 11.863281 190.832031 11.75 189.675781 10.796875 189.34375 L 10.71875 189.324219 L 10.695312 189.300781 L 10.59375 189.300781 L 10.570312 189.277344 L 10.308594 189.277344 Z M 10.285156 189.300781 Z M 10.285156 189.300781 "/>
<path style=" stroke:none;fill-rule:nonzero;fill:rgb(0%,0%,0%);fill-opacity:1;" d="M 15.320312 195.34375 L 15.320312 196.25 L 14.402344 196.25 L 14.402344 195.34375 Z M 15.320312 195.34375 Z M 15.320312 195.34375 "/>
<path style=" stroke:none;fill-rule:nonzero;fill:rgb(0%,0%,0%);fill-opacity:1;" d="M 19.46875 188.609375 C 20.671875 188.652344 21.804688 189.945312 21.332031 191.148438 C 21.125 191.703125 20.558594 192.042969 20.09375 192.28125 C 21.25 192.621094 21.953125 193.972656 21.433594 195.082031 C 20.886719 196.523438 18.824219 196.976562 17.691406 195.933594 C 16.660156 195.117188 16.625 193.347656 17.769531 192.621094 C 17.941406 192.441406 18.257812 192.382812 18.40625 192.246094 C 17.417969 191.964844 16.75 190.820312 17.214844 189.855469 C 17.589844 188.992188 18.550781 188.515625 19.46875 188.609375 Z M 19.46875 188.609375 Z M 19.039062 189.253906 C 18.199219 189.277344 17.609375 190.230469 17.894531 190.976562 C 18.222656 192.269531 20.390625 192.226562 20.636719 190.898438 C 20.863281 190.160156 20.277344 189.277344 19.46875 189.253906 L 19.449219 189.242188 L 19.0625 189.242188 Z M 19.039062 189.253906 Z M 19.0625 192.621094 C 18.074219 192.691406 17.589844 193.871094 17.847656 194.707031 C 18.019531 195.898438 19.71875 196.25 20.390625 195.296875 C 21.035156 194.425781 20.71875 192.859375 19.550781 192.621094 L 19.449219 192.621094 L 19.425781 192.597656 L 19.074219 192.597656 Z M 19.0625 192.621094 Z M 19.0625 192.621094 "/>
<path style=" stroke:none;fill-rule:nonzero;fill:rgb(0%,0%,0%);fill-opacity:1;" d="M 6.941406 170.316406 L 6.941406 170.953125 L 3.972656 170.953125 L 3.972656 170.316406 Z M 6.941406 170.316406 Z M 6.941406 170.316406 "/>
<path style=" stroke:none;fill-rule:nonzero;fill:rgb(0%,0%,0%);fill-opacity:1;" d="M 10.636719 165.484375 C 11.714844 165.566406 12.429688 166.550781 12.621094 167.550781 C 12.722656 168.003906 12.746094 168.433594 12.792969 168.886719 L 12.792969 170.042969 C 12.734375 171.222656 12.453125 172.777344 11.171875 173.253906 C 10.058594 173.695312 8.753906 173.003906 8.425781 171.871094 C 8.175781 171.269531 8.15625 170.65625 8.097656 170.042969 L 8.097656 168.886719 C 8.15625 167.707031 8.402344 166.144531 9.675781 165.621094 L 9.730469 165.597656 L 9.777344 165.589844 L 9.832031 165.566406 L 10.003906 165.519531 L 10.105469 165.496094 L 10.230469 165.496094 L 10.253906 165.484375 Z M 10.636719 165.484375 Z M 10.285156 166.175781 C 9.332031 166.292969 9.050781 167.4375 8.980469 168.207031 L 8.980469 168.511719 L 8.960938 168.535156 L 8.960938 170.113281 C 9.027344 170.929688 9.085938 171.984375 9.832031 172.527344 C 10.523438 173.003906 11.441406 172.46875 11.636719 171.734375 C 11.839844 171.1875 11.886719 170.65625 11.929688 170.113281 L 11.929688 168.535156 C 11.863281 167.707031 11.75 166.550781 10.796875 166.222656 L 10.71875 166.199219 L 10.695312 166.175781 L 10.59375 166.175781 L 10.570312 166.15625 L 10.308594 166.15625 Z M 10.285156 166.175781 Z M 10.285156 166.175781 "/>
<path style=" stroke:none;fill-rule:nonzero;fill:rgb(0%,0%,0%);fill-opacity:1;" d="M 15.320312 172.222656 L 15.320312 173.128906 L 14.402344 173.128906 L 14.402344 172.222656 Z M 15.320312 172.222656 Z M 15.320312 172.222656 "/>
<path style=" stroke:none;fill-rule:nonzero;fill:rgb(0%,0%,0%);fill-opacity:1;" d="M 20.183594 165.484375 C 20.480469 165.53125 20.820312 165.566406 21.101562 165.703125 L 21.101562 166.359375 C 20.320312 166.019531 19.300781 165.972656 18.6875 166.664062 C 18.144531 167.242188 17.894531 168.105469 17.871094 168.863281 C 18.53125 167.992188 20.015625 167.503906 20.820312 168.410156 C 21.625 169.339844 21.761719 170.679688 21.398438 171.8125 C 21 172.71875 20.082031 173.546875 19.0625 173.355469 C 17.679688 173.242188 17.054688 171.699219 16.988281 170.519531 C 16.726562 168.855469 17.125 166.757812 18.710938 165.804688 L 18.734375 165.792969 L 18.972656 165.667969 L 19.039062 165.644531 L 19.074219 165.621094 L 19.265625 165.566406 L 19.425781 165.519531 L 19.527344 165.496094 L 19.652344 165.496094 L 19.675781 165.484375 Z M 20.183594 165.484375 Z M 19.074219 168.636719 C 18.085938 168.808594 17.769531 170 17.894531 170.804688 C 17.953125 171.5625 18.246094 172.574219 19.117188 172.730469 C 20.046875 172.855469 20.648438 171.859375 20.671875 171.054688 C 20.71875 170.238281 20.671875 169.308594 19.957031 168.773438 L 19.800781 168.695312 L 19.675781 168.660156 L 19.574219 168.636719 L 19.550781 168.617188 L 19.097656 168.617188 Z M 19.074219 168.636719 Z M 19.074219 168.636719 "/>
<path style=" stroke:none;fill-rule:nonzero;fill:rgb(0%,0%,0%);fill-opacity:1;" d="M 6.941406 147.195312 L 6.941406 147.828125 L 3.972656 147.828125 L 3.972656 147.195312 Z M 6.941406 147.195312 Z M 6.941406 147.195312 "/>
<path style=" stroke:none;fill-rule:nonzero;fill:rgb(0%,0%,0%);fill-opacity:1;" d="M 10.636719 142.363281 C 11.714844 142.441406 12.429688 143.429688 12.621094 144.425781 C 12.722656 144.882812 12.746094 145.3125 12.792969 145.765625 L 12.792969 146.921875 C 12.734375 148.101562 12.453125 149.65625 11.171875 150.128906 C 10.058594 150.574219 8.753906 149.882812 8.425781 148.746094 C 8.175781 148.144531 8.15625 147.535156 8.097656 146.921875 L 8.097656 145.765625 C 8.15625 144.585938 8.402344 143.019531 9.675781 142.5 L 9.730469 142.476562 L 9.777344 142.464844 L 9.832031 142.441406 L 10.003906 142.398438 L 10.105469 142.375 L 10.230469 142.375 L 10.253906 142.363281 Z M 10.636719 142.363281 Z M 10.285156 143.054688 C 9.332031 143.167969 9.050781 144.3125 8.980469 145.085938 L 8.980469 145.390625 L 8.960938 145.414062 L 8.960938 146.988281 C 9.027344 147.804688 9.085938 148.859375 9.832031 149.40625 C 10.523438 149.882812 11.441406 149.347656 11.636719 148.613281 C 11.839844 148.066406 11.886719 147.535156 11.929688 146.988281 L 11.929688 145.414062 C 11.863281 144.585938 11.75 143.429688 10.796875 143.101562 L 10.71875 143.078125 L 10.695312 143.054688 L 10.59375 143.054688 L 10.570312 143.03125 L 10.308594 143.03125 Z M 10.285156 143.054688 Z M 10.285156 143.054688 "/>
<path style=" stroke:none;fill-rule:nonzero;fill:rgb(0%,0%,0%);fill-opacity:1;" d="M 15.320312 149.097656 L 15.320312 150.007812 L 14.402344 150.007812 L 14.402344 149.097656 Z M 15.320312 149.097656 Z M 15.320312 149.097656 "/>
<path style=" stroke:none;fill-rule:nonzero;fill:rgb(0%,0%,0%);fill-opacity:1;" d="M 20.617188 142.601562 L 20.617188 147.375 L 20.636719 147.398438 L 21.761719 147.398438 L 21.761719 148.078125 L 20.636719 148.078125 L 20.617188 148.089844 L 20.617188 150.007812 L 19.753906 150.007812 L 19.753906 148.089844 L 19.730469 148.078125 L 16.738281 148.078125 L 16.738281 147.375 C 17.691406 145.789062 18.644531 144.1875 19.59375 142.601562 Z M 20.617188 142.601562 Z M 19.777344 143.03125 C 19.550781 144.210938 18.824219 145.222656 18.28125 146.253906 C 18.066406 146.628906 17.78125 147.035156 17.621094 147.398438 L 19.800781 147.398438 L 19.8125 147.375 L 19.8125 143.03125 L 19.800781 143.011719 Z M 19.777344 143.03125 Z M 19.777344 143.03125 "/>
<path style=" stroke:none;fill-rule:nonzero;fill:rgb(0%,0%,0%);fill-opacity:1;" d="M 6.941406 124.070312 L 6.941406 124.707031 L 3.972656 124.707031 L 3.972656 124.070312 Z M 6.941406 124.070312 Z M 6.941406 124.070312 "/>
<path style=" stroke:none;fill-rule:nonzero;fill:rgb(0%,0%,0%);fill-opacity:1;" d="M 10.636719 119.242188 C 11.714844 119.320312 12.429688 120.308594 12.621094 121.304688 C 12.722656 121.757812 12.746094 122.191406 12.792969 122.644531 L 12.792969 123.800781 C 12.734375 124.980469 12.453125 126.53125 11.171875 127.007812 C 10.058594 127.449219 8.753906 126.757812 8.425781 125.625 C 8.175781 125.023438 8.15625 124.410156 8.097656 123.800781 L 8.097656 122.644531 C 8.15625 121.464844 8.402344 119.898438 9.675781 119.378906 L 9.730469 119.355469 L 9.777344 119.34375 L 9.832031 119.320312 L 10.003906 119.277344 L 10.105469 119.253906 L 10.230469 119.253906 L 10.253906 119.242188 Z M 10.636719 119.242188 Z M 10.285156 119.933594 C 9.332031 120.046875 9.050781 121.191406 8.980469 121.960938 L 8.980469 122.269531 L 8.960938 122.292969 L 8.960938 123.867188 C 9.027344 124.683594 9.085938 125.738281 9.832031 126.28125 C 10.523438 126.757812 11.441406 126.226562 11.636719 125.488281 C 11.839844 124.945312 11.886719 124.410156 11.929688 123.867188 L 11.929688 122.292969 C 11.863281 121.464844 11.75 120.308594 10.796875 119.980469 L 10.71875 119.957031 L 10.695312 119.933594 L 10.59375 119.933594 L 10.570312 119.910156 L 10.308594 119.910156 Z M 10.285156 119.933594 Z M 10.285156 119.933594 "/>
<path style=" stroke:none;fill-rule:nonzero;fill:rgb(0%,0%,0%);fill-opacity:1;" d="M 15.320312 125.976562 L 15.320312 126.882812 L 14.402344 126.882812 L 14.402344 125.976562 Z M 15.320312 125.976562 Z M 15.320312 125.976562 "/>
<path style=" stroke:none;fill-rule:nonzero;fill:rgb(0%,0%,0%);fill-opacity:1;" d="M 19.324219 119.242188 C 20.636719 119.277344 21.679688 120.625 21.476562 121.894531 C 21.339844 123.164062 20.152344 123.890625 19.300781 124.683594 L 18.9375 125.058594 L 18.890625 125.082031 L 18.4375 125.523438 L 18.40625 125.546875 L 17.953125 126 L 17.90625 126.023438 L 17.804688 126.125 L 17.828125 126.136719 L 21.5 126.136719 L 21.5 126.882812 L 17.011719 126.882812 L 17.011719 126.203125 L 18.835938 124.378906 C 19.707031 123.617188 20.730469 122.632812 20.570312 121.382812 C 20.480469 120.660156 19.867188 119.988281 19.117188 119.933594 C 18.359375 119.820312 17.691406 120.421875 17.519531 121.144531 L 17.496094 121.179688 L 17.476562 121.261719 L 17.441406 121.382812 L 17.371094 121.632812 L 17.363281 121.691406 C 17.203125 121.496094 17.03125 121.292969 16.90625 121.078125 C 17.136719 120.148438 17.882812 119.277344 18.871094 119.242188 Z M 19.324219 119.242188 Z M 19.324219 119.242188 "/>
<path style=" stroke:none;fill-rule:nonzero;fill:rgb(0%,0%,0%);fill-opacity:1;" d="M 10.636719 96.121094 C 11.714844 96.199219 12.429688 97.183594 12.621094 98.183594 C 12.722656 98.636719 12.746094 99.066406 12.792969 99.519531 L 12.792969 100.675781 C 12.734375 101.855469 12.453125 103.410156 11.171875 103.886719 C 10.058594 104.328125 8.753906 103.636719 8.425781 102.503906 C 8.175781 101.902344 8.15625 101.289062 8.097656 100.675781 L 8.097656 99.519531 C 8.15625 98.339844 8.402344 96.777344 9.675781 96.253906 L 9.730469 96.234375 L 9.777344 96.222656 L 9.832031 96.199219 L 10.003906 96.152344 L 10.105469 96.128906 L 10.230469 96.128906 L 10.253906 96.121094 Z M 10.636719 96.121094 Z M 10.285156 96.8125 C 9.332031 96.925781 9.050781 98.070312 8.980469 98.839844 L 8.980469 99.148438 L 8.960938 99.167969 L 8.960938 100.746094 C 9.027344 101.5625 9.085938 102.617188 9.832031 103.160156 C 10.523438 103.636719 11.441406 103.105469 11.636719 102.367188 C 11.839844 101.824219 11.886719 101.289062 11.929688 100.746094 L 11.929688 99.167969 C 11.863281 98.339844 11.75 97.183594 10.796875 96.855469 L 10.71875 96.832031 L 10.695312 96.8125 L 10.59375 96.8125 L 10.570312 96.789062 L 10.308594 96.789062 Z M 10.285156 96.8125 Z M 10.285156 96.8125 "/>
<path style=" stroke:none;fill-rule:nonzero;fill:rgb(0%,0%,0%);fill-opacity:1;" d="M 15.320312 102.855469 L 15.320312 103.761719 L 14.402344 103.761719 L 14.402344 102.855469 Z M 15.320312 102.855469 Z M 15.320312 102.855469 "/>
<path style=" stroke:none;fill-rule:nonzero;fill:rgb(0%,0%,0%);fill-opacity:1;" d="M 19.449219 96.121094 C 20.523438 96.199219 21.238281 97.183594 21.433594 98.183594 C 21.535156 98.636719 21.558594 99.066406 21.601562 99.519531 L 21.601562 100.675781 C 21.546875 101.855469 21.261719 103.410156 19.980469 103.886719 C 18.871094 104.328125 17.566406 103.636719 17.238281 102.503906 C 16.988281 101.902344 16.964844 101.289062 16.90625 100.675781 L 16.90625 99.519531 C 16.964844 98.339844 17.214844 96.777344 18.484375 96.253906 L 18.539062 96.234375 L 18.585938 96.222656 L 18.644531 96.199219 L 18.8125 96.152344 L 18.914062 96.128906 L 19.039062 96.128906 L 19.0625 96.121094 Z M 19.449219 96.121094 Z M 19.097656 96.8125 C 18.144531 96.925781 17.859375 98.070312 17.792969 98.839844 L 17.792969 99.148438 L 17.769531 99.167969 L 17.769531 100.746094 C 17.835938 101.5625 17.894531 102.617188 18.644531 103.160156 C 19.335938 103.636719 20.253906 103.105469 20.445312 102.367188 C 20.648438 101.824219 20.695312 101.289062 20.742188 100.746094 L 20.742188 99.167969 C 20.671875 98.339844 20.558594 97.183594 19.605469 96.855469 L 19.527344 96.832031 L 19.503906 96.8125 L 19.402344 96.8125 L 19.378906 96.789062 L 19.117188 96.789062 Z M 19.097656 96.8125 Z M 19.097656 96.8125 "/>
<path style=" stroke:none;fill-rule:nonzero;fill:rgb(0%,0%,0%);fill-opacity:1;" d="M 10.636719 72.996094 C 11.714844 73.078125 12.429688 74.0625 12.621094 75.0625 C 12.722656 75.515625 12.746094 75.945312 12.792969 76.398438 L 12.792969 77.554688 C 12.734375 78.734375 12.453125 80.289062 11.171875 80.765625 C 10.058594 81.207031 8.753906 80.515625 8.425781 79.378906 C 8.175781 78.78125 8.15625 78.167969 8.097656 77.554688 L 8.097656 76.398438 C 8.15625 75.21875 8.402344 73.65625 9.675781 73.132812 L 9.730469 73.109375 L 9.777344 73.097656 L 9.832031 73.078125 L 10.003906 73.03125 L 10.105469 73.007812 L 10.230469 73.007812 L 10.253906 72.996094 Z M 10.636719 72.996094 Z M 10.285156 73.6875 C 9.332031 73.800781 9.050781 74.949219 8.980469 75.71875 L 8.980469 76.023438 L 8.960938 76.046875 L 8.960938 77.625 C 9.027344 78.441406 9.085938 79.496094 9.832031 80.039062 C 10.523438 80.515625 11.441406 79.980469 11.636719 79.246094 C 11.839844 78.699219 11.886719 78.167969 11.929688 77.625 L 11.929688 76.046875 C 11.863281 75.21875 11.75 74.0625 10.796875 73.734375 L 10.71875 73.710938 L 10.695312 73.6875 L 10.59375 73.6875 L 10.570312 73.667969 L 10.308594 73.667969 Z M 10.285156 73.6875 Z M 10.285156 73.6875 "/>
<path style=" stroke:none;fill-rule:nonzero;fill:rgb(0%,0%,0%);fill-opacity:1;" d="M 15.320312 79.730469 L 15.320312 80.640625 L 14.402344 80.640625 L 14.402344 79.730469 Z M 15.320312 79.730469 Z M 15.320312 79.730469 "/>
<path style=" stroke:none;fill-rule:nonzero;fill:rgb(0%,0%,0%);fill-opacity:1;" d="M 19.324219 72.996094 C 20.636719 73.03125 21.679688 74.378906 21.476562 75.652344 C 21.339844 76.921875 20.152344 77.644531 19.300781 78.441406 L 18.9375 78.8125 L 18.890625 78.835938 L 18.4375 79.277344 L 18.40625 79.300781 L 17.953125 79.753906 L 17.90625 79.777344 L 17.804688 79.878906 L 17.828125 79.890625 L 21.5 79.890625 L 21.5 80.640625 L 17.011719 80.640625 L 17.011719 79.960938 L 18.835938 78.132812 C 19.707031 77.375 20.730469 76.386719 20.570312 75.140625 C 20.480469 74.414062 19.867188 73.746094 19.117188 73.6875 C 18.359375 73.574219 17.691406 74.175781 17.519531 74.902344 L 17.496094 74.9375 L 17.476562 75.015625 L 17.371094 75.390625 L 17.363281 75.445312 C 17.203125 75.253906 17.03125 75.050781 16.90625 74.835938 C 17.136719 73.902344 17.882812 73.03125 18.871094 72.996094 Z M 19.324219 72.996094 Z M 19.324219 72.996094 "/>
<path style=" stroke:none;fill-rule:nonzero;fill:rgb(0%,0%,0%);fill-opacity:1;" d="M 10.636719 49.875 C 11.714844 49.953125 12.429688 50.941406 12.621094 51.9375 C 12.722656 52.390625 12.746094 52.824219 12.792969 53.277344 L 12.792969 54.433594 C 12.734375 55.613281 12.453125 57.164062 11.171875 57.640625 C 10.058594 58.085938 8.753906 57.390625 8.425781 56.257812 C 8.175781 55.65625 8.15625 55.046875 8.097656 54.433594 L 8.097656 53.277344 C 8.15625 52.097656 8.402344 50.53125 9.675781 50.011719 L 9.730469 49.988281 L 9.777344 49.976562 L 9.832031 49.953125 L 10.003906 49.910156 L 10.105469 49.886719 L 10.230469 49.886719 L 10.253906 49.875 Z M 10.636719 49.875 Z M 10.285156 50.566406 C 9.332031 50.679688 9.050781 51.824219 8.980469 52.597656 L 8.980469 52.902344 L 8.960938 52.925781 L 8.960938 54.5 C 9.027344 55.316406 9.085938 56.371094 9.832031 56.917969 C 10.523438 57.390625 11.441406 56.859375 11.636719 56.121094 C 11.839844 55.578125 11.886719 55.046875 11.929688 54.5 L 11.929688 52.925781 C 11.863281 52.097656 11.75 50.941406 10.796875 50.613281 L 10.71875 50.589844 L 10.695312 50.566406 L 10.59375 50.566406 L 10.570312 50.542969 L 10.308594 50.542969 Z M 10.285156 50.566406 Z M 10.285156 50.566406 "/>
<path style=" stroke:none;fill-rule:nonzero;fill:rgb(0%,0%,0%);fill-opacity:1;" d="M 15.320312 56.609375 L 15.320312 57.515625 L 14.402344 57.515625 L 14.402344 56.609375 Z M 15.320312 56.609375 Z M 15.320312 56.609375 "/>
<path style=" stroke:none;fill-rule:nonzero;fill:rgb(0%,0%,0%);fill-opacity:1;" d="M 20.617188 50.113281 L 20.617188 54.886719 L 20.636719 54.910156 L 21.761719 54.910156 L 21.761719 55.589844 L 20.636719 55.589844 L 20.617188 55.601562 L 20.617188 57.515625 L 19.753906 57.515625 L 19.753906 55.601562 L 19.730469 55.589844 L 16.738281 55.589844 L 16.738281 54.886719 C 17.691406 53.300781 18.644531 51.699219 19.59375 50.113281 Z M 20.617188 50.113281 Z M 19.777344 50.542969 C 19.550781 51.722656 18.824219 52.730469 18.28125 53.765625 C 18.066406 54.136719 17.78125 54.546875 17.621094 54.910156 L 19.800781 54.910156 L 19.8125 54.886719 L 19.8125 50.542969 L 19.800781 50.519531 Z M 19.777344 50.542969 Z M 19.777344 50.542969 "/>
<path style=" stroke:none;fill-rule:nonzero;fill:rgb(0%,0%,0%);fill-opacity:1;" d="M 10.636719 26.753906 C 11.714844 26.832031 12.429688 27.820312 12.621094 28.816406 C 12.722656 29.269531 12.746094 29.699219 12.792969 30.15625 L 12.792969 31.3125 C 12.734375 32.488281 12.453125 34.042969 11.171875 34.519531 C 10.058594 34.960938 8.753906 34.269531 8.425781 33.136719 C 8.175781 32.535156 8.15625 31.921875 8.097656 31.3125 L 8.097656 30.15625 C 8.15625 28.976562 8.402344 27.410156 9.675781 26.890625 L 9.730469 26.867188 L 9.777344 26.855469 L 9.832031 26.832031 L 10.003906 26.785156 L 10.105469 26.765625 L 10.230469 26.765625 L 10.253906 26.753906 Z M 10.636719 26.753906 Z M 10.285156 27.445312 C 9.332031 27.558594 9.050781 28.703125 8.980469 29.472656 L 8.980469 29.78125 L 8.960938 29.804688 L 8.960938 31.378906 C 9.027344 32.195312 9.085938 33.25 9.832031 33.792969 C 10.523438 34.269531 11.441406 33.738281 11.636719 33 C 11.839844 32.457031 11.886719 31.921875 11.929688 31.378906 L 11.929688 29.804688 C 11.863281 28.976562 11.75 27.820312 10.796875 27.488281 L 10.71875 27.46875 L 10.695312 27.445312 L 10.59375 27.445312 L 10.570312 27.421875 L 10.308594 27.421875 Z M 10.285156 27.445312 Z M 10.285156 27.445312 "/>
<path style=" stroke:none;fill-rule:nonzero;fill:rgb(0%,0%,0%);fill-opacity:1;" d="M 15.320312 33.488281 L 15.320312 34.394531 L 14.402344 34.394531 L 14.402344 33.488281 Z M 15.320312 33.488281 Z M 15.320312 33.488281 "/>
<path style=" stroke:none;fill-rule:nonzero;fill:rgb(0%,0%,0%);fill-opacity:1;" d="M 20.183594 26.753906 C 20.480469 26.796875 20.820312 26.832031 21.101562 26.96875 L 21.101562 27.625 C 20.320312 27.285156 19.300781 27.242188 18.6875 27.933594 C 18.144531 28.511719 17.894531 29.371094 17.871094 30.132812 C 18.53125 29.257812 20.015625 28.769531 20.820312 29.679688 C 21.625 30.609375 21.761719 31.945312 21.398438 33.078125 C 21 33.988281 20.082031 34.816406 19.0625 34.621094 C 17.679688 34.507812 17.054688 32.964844 16.988281 31.785156 C 16.726562 30.121094 17.125 28.023438 18.710938 27.070312 L 18.734375 27.058594 L 18.972656 26.933594 L 19.039062 26.910156 L 19.074219 26.890625 L 19.265625 26.832031 L 19.425781 26.785156 L 19.527344 26.765625 L 19.652344 26.765625 L 19.675781 26.753906 Z M 20.183594 26.753906 Z M 19.074219 29.90625 C 18.085938 30.074219 17.769531 31.265625 17.894531 32.070312 C 17.953125 32.832031 18.246094 33.839844 19.117188 34 C 20.046875 34.121094 20.648438 33.125 20.671875 32.320312 C 20.71875 31.503906 20.671875 30.574219 19.957031 30.039062 L 19.800781 29.960938 L 19.675781 29.925781 L 19.574219 29.90625 L 19.550781 29.882812 L 19.097656 29.882812 Z M 19.074219 29.90625 Z M 19.074219 29.90625 "/>
<path style=" stroke:none;fill-rule:nonzero;fill:rgb(0%,0%,0%);fill-opacity:1;" d="M 10.636719 3.628906 C 11.714844 3.710938 12.429688 4.695312 12.621094 5.695312 C 12.722656 6.148438 12.746094 6.578125 12.792969 7.03125 L 12.792969 8.1875 C 12.734375 9.367188 12.453125 10.921875 11.171875 11.398438 C 10.058594 11.839844 8.753906 11.148438 8.425781 10.015625 C 8.175781 9.414062 8.15625 8.800781 8.097656 8.1875 L 8.097656 7.03125 C 8.15625 5.851562 8.402344 4.289062 9.675781 3.765625 L 9.730469 3.742188 L 9.777344 3.734375 L 9.832031 3.710938 L 10.003906 3.664062 L 10.105469 3.640625 L 10.230469 3.640625 L 10.253906 3.628906 Z M 10.636719 3.628906 Z M 10.285156 4.320312 C 9.332031 4.4375 9.050781 5.582031 8.980469 6.351562 L 8.980469 6.65625 L 8.960938 6.679688 L 8.960938 8.257812 C 9.027344 9.074219 9.085938 10.128906 9.832031 10.671875 C 10.523438 11.148438 11.441406 10.613281 11.636719 9.878906 C 11.839844 9.332031 11.886719 8.800781 11.929688 8.257812 L 11.929688 6.679688 C 11.863281 5.851562 11.75 4.695312 10.796875 4.367188 L 10.71875 4.34375 L 10.695312 4.320312 L 10.59375 4.320312 L 10.570312 4.300781 L 10.308594 4.300781 Z M 10.285156 4.320312 Z M 10.285156 4.320312 "/>
<path style=" stroke:none;fill-rule:nonzero;fill:rgb(0%,0%,0%);fill-opacity:1;" d="M 15.320312 10.367188 L 15.320312 11.273438 L 14.402344 11.273438 L 14.402344 10.367188 Z M 15.320312 10.367188 Z M 15.320312 10.367188 "/>
<path style=" stroke:none;fill-rule:nonzero;fill:rgb(0%,0%,0%);fill-opacity:1;" d="M 19.46875 3.628906 C 20.671875 3.675781 21.804688 4.96875 21.332031 6.171875 C 21.125 6.726562 20.558594 7.066406 20.09375 7.304688 C 21.25 7.644531 21.953125 8.992188 21.433594 10.105469 C 20.886719 11.542969 18.824219 12 17.691406 10.957031 C 16.660156 10.140625 16.625 8.371094 17.769531 7.644531 C 17.941406 7.464844 18.257812 7.40625 18.40625 7.269531 C 17.417969 6.988281 16.75 5.839844 17.214844 4.878906 C 17.589844 4.015625 18.550781 3.539062 19.46875 3.628906 Z M 19.46875 3.628906 Z M 19.039062 4.277344 C 18.199219 4.300781 17.609375 5.253906 17.894531 6 C 18.222656 7.292969 20.390625 7.246094 20.636719 5.921875 C 20.863281 5.183594 20.277344 4.300781 19.46875 4.277344 L 19.449219 4.265625 L 19.0625 4.265625 Z M 19.039062 4.277344 Z M 19.0625 7.644531 C 18.074219 7.710938 17.589844 8.890625 17.847656 9.730469 C 18.019531 10.921875 19.71875 11.273438 20.390625 10.320312 C 21.035156 9.445312 20.71875 7.882812 19.550781 7.644531 L 19.449219 7.644531 L 19.425781 7.621094 L 19.074219 7.621094 Z M 19.0625 7.644531 Z M 19.0625 7.644531 "/>
<path style="fill:none;stroke-width:0.02;stroke-linecap:butt;stroke-linejoin:miter;stroke:rgb(0%,0%,0%);stroke-opacity:1;stroke-miterlimit:10;" d="M 11.644561 1.42768 L 11.49463 1.42768 " transform="matrix(28.346457,0,0,-28.346457,1,256.11811)"/>
<path style="fill:none;stroke-width:0.02;stroke-linecap:butt;stroke-linejoin:miter;stroke:rgb(0%,0%,0%);stroke-opacity:1;stroke-miterlimit:10;" d="M 11.644561 2.243341 L 11.49463 2.243341 " transform="matrix(28.346457,0,0,-28.346457,1,256.11811)"/>
<path style="fill:none;stroke-width:0.02;stroke-linecap:butt;stroke-linejoin:miter;stroke:rgb(0%,0%,0%);stroke-opacity:1;stroke-miterlimit:10;" d="M 11.644561 3.05914 L 11.49463 3.05914 " transform="matrix(28.346457,0,0,-28.346457,1,256.11811)"/>
<path style="fill:none;stroke-width:0.02;stroke-linecap:butt;stroke-linejoin:miter;stroke:rgb(0%,0%,0%);stroke-opacity:1;stroke-miterlimit:10;" d="M 11.644561 3.8748 L 11.49463 3.8748 " transform="matrix(28.346457,0,0,-28.346457,1,256.11811)"/>
<path style="fill:none;stroke-width:0.02;stroke-linecap:butt;stroke-linejoin:miter;stroke:rgb(0%,0%,0%);stroke-opacity:1;stroke-miterlimit:10;" d="M 11.644561 4.690461 L 11.49463 4.690461 " transform="matrix(28.346457,0,0,-28.346457,1,256.11811)"/>
<path style="fill:none;stroke-width:0.02;stroke-linecap:butt;stroke-linejoin:miter;stroke:rgb(0%,0%,0%);stroke-opacity:1;stroke-miterlimit:10;" d="M 11.644561 5.50626 L 11.49463 5.50626 " transform="matrix(28.346457,0,0,-28.346457,1,256.11811)"/>
<path style="fill:none;stroke-width:0.02;stroke-linecap:butt;stroke-linejoin:miter;stroke:rgb(0%,0%,0%);stroke-opacity:1;stroke-miterlimit:10;" d="M 11.644561 6.321921 L 11.49463 6.321921 " transform="matrix(28.346457,0,0,-28.346457,1,256.11811)"/>
<path style="fill:none;stroke-width:0.02;stroke-linecap:butt;stroke-linejoin:miter;stroke:rgb(0%,0%,0%);stroke-opacity:1;stroke-miterlimit:10;" d="M 11.644561 7.137581 L 11.49463 7.137581 " transform="matrix(28.346457,0,0,-28.346457,1,256.11811)"/>
<path style="fill:none;stroke-width:0.02;stroke-linecap:butt;stroke-linejoin:miter;stroke:rgb(0%,0%,0%);stroke-opacity:1;stroke-miterlimit:10;" d="M 11.644561 7.953242 L 11.49463 7.953242 " transform="matrix(28.346457,0,0,-28.346457,1,256.11811)"/>
<path style="fill:none;stroke-width:0.02;stroke-linecap:round;stroke-linejoin:miter;stroke:rgb(0%,0%,0%);stroke-opacity:1;stroke-miterlimit:10;" d="M 11.644561 0.612019 L 11.644561 8.769041 " transform="matrix(28.346457,0,0,-28.346457,1,256.11811)"/>
<path style="fill:none;stroke-width:0.02;stroke-linecap:butt;stroke-linejoin:miter;stroke:rgb(0%,0%,0%);stroke-opacity:1;stroke-miterlimit:10;" d="M 2.325302 0.612019 L 2.325302 0.76195 " transform="matrix(28.346457,0,0,-28.346457,1,256.11811)"/>
<path style="fill:none;stroke-width:0.02;stroke-linecap:butt;stroke-linejoin:miter;stroke:rgb(0%,0%,0%);stroke-opacity:1;stroke-miterlimit:10;" d="M 3.656624 0.612019 L 3.656624 0.76195 " transform="matrix(28.346457,0,0,-28.346457,1,256.11811)"/>
<path style="fill:none;stroke-width:0.02;stroke-linecap:butt;stroke-linejoin:miter;stroke:rgb(0%,0%,0%);stroke-opacity:1;stroke-miterlimit:10;" d="M 4.987947 0.612019 L 4.987947 0.76195 " transform="matrix(28.346457,0,0,-28.346457,1,256.11811)"/>
<path style="fill:none;stroke-width:0.02;stroke-linecap:butt;stroke-linejoin:miter;stroke:rgb(0%,0%,0%);stroke-opacity:1;stroke-miterlimit:10;" d="M 6.31927 0.612019 L 6.31927 0.76195 " transform="matrix(28.346457,0,0,-28.346457,1,256.11811)"/>
<path style="fill:none;stroke-width:0.02;stroke-linecap:butt;stroke-linejoin:miter;stroke:rgb(0%,0%,0%);stroke-opacity:1;stroke-miterlimit:10;" d="M 7.650592 0.612019 L 7.650592 0.76195 " transform="matrix(28.346457,0,0,-28.346457,1,256.11811)"/>
<path style="fill:none;stroke-width:0.02;stroke-linecap:butt;stroke-linejoin:miter;stroke:rgb(0%,0%,0%);stroke-opacity:1;stroke-miterlimit:10;" d="M 8.981915 0.612019 L 8.981915 0.76195 " transform="matrix(28.346457,0,0,-28.346457,1,256.11811)"/>
<path style="fill:none;stroke-width:0.02;stroke-linecap:butt;stroke-linejoin:miter;stroke:rgb(0%,0%,0%);stroke-opacity:1;stroke-miterlimit:10;" d="M 10.313238 0.612019 L 10.313238 0.76195 " transform="matrix(28.346457,0,0,-28.346457,1,256.11811)"/>
<path style="fill:none;stroke-width:0.02;stroke-linecap:round;stroke-linejoin:miter;stroke:rgb(0%,0%,0%);stroke-opacity:1;stroke-miterlimit:10;" d="M 0.993979 0.612019 L 11.644561 0.612019 " transform="matrix(28.346457,0,0,-28.346457,1,256.11811)"/>
<path style=" stroke:none;fill-rule:nonzero;fill:rgb(0%,0%,0%);fill-opacity:1;" d="M 25.316406 245.652344 L 25.316406 252.648438 L 25.328125 252.671875 L 26.722656 252.671875 L 26.722656 253.292969 L 23.035156 253.292969 L 23.035156 252.671875 L 24.429688 252.671875 L 24.453125 252.648438 L 24.453125 246.773438 C 23.976562 246.933594 23.480469 247.035156 22.980469 247.023438 L 22.980469 246.390625 C 23.726562 246.402344 24.542969 246.195312 25.113281 245.652344 Z M 25.316406 245.652344 Z M 25.316406 245.652344 "/>
<path style=" stroke:none;fill-rule:nonzero;fill:rgb(0%,0%,0%);fill-opacity:1;" d="M 29.648438 252.386719 L 29.648438 253.292969 L 28.726562 253.292969 L 28.726562 252.386719 Z M 29.648438 252.386719 Z M 29.648438 252.386719 "/>
<path style=" stroke:none;fill-rule:nonzero;fill:rgb(0%,0%,0%);fill-opacity:1;" d="M 33.773438 245.652344 C 34.851562 245.730469 35.566406 246.71875 35.757812 247.714844 C 35.859375 248.167969 35.882812 248.601562 35.929688 249.054688 L 35.929688 250.210938 C 35.871094 251.390625 35.589844 252.941406 34.308594 253.417969 C 33.195312 253.863281 31.890625 253.171875 31.5625 252.035156 C 31.3125 251.433594 31.292969 250.824219 31.234375 250.210938 L 31.234375 249.054688 C 31.292969 247.875 31.539062 246.308594 32.808594 245.789062 L 32.867188 245.765625 L 32.914062 245.753906 L 32.96875 245.730469 L 33.140625 245.6875 L 33.242188 245.664062 L 33.367188 245.664062 L 33.386719 245.652344 Z M 33.773438 245.652344 Z M 33.421875 246.34375 C 32.46875 246.457031 32.1875 247.601562 32.117188 248.375 L 32.117188 248.679688 L 32.097656 248.703125 L 32.097656 250.277344 C 32.164062 251.09375 32.222656 252.148438 32.96875 252.695312 C 33.660156 253.171875 34.578125 252.636719 34.773438 251.898438 C 34.976562 251.355469 35.019531 250.824219 35.066406 250.277344 L 35.066406 248.703125 C 35 247.875 34.886719 246.71875 33.933594 246.390625 L 33.855469 246.367188 L 33.832031 246.34375 L 33.730469 246.34375 L 33.707031 246.320312 L 33.445312 246.320312 Z M 33.421875 246.34375 Z M 33.421875 246.34375 "/>
<path style=" stroke:none;fill-rule:nonzero;fill:rgb(0%,0%,0%);fill-opacity:1;" d="M 63.054688 245.652344 L 63.054688 252.648438 L 63.066406 252.671875 L 64.460938 252.671875 L 64.460938 253.292969 L 60.773438 253.292969 L 60.773438 252.671875 L 62.167969 252.671875 L 62.191406 252.648438 L 62.191406 246.773438 C 61.714844 246.933594 61.21875 247.035156 60.71875 247.023438 L 60.71875 246.390625 C 61.464844 246.402344 62.28125 246.195312 62.851562 245.652344 Z M 63.054688 245.652344 Z M 63.054688 245.652344 "/>
<path style=" stroke:none;fill-rule:nonzero;fill:rgb(0%,0%,0%);fill-opacity:1;" d="M 67.386719 252.386719 L 67.386719 253.292969 L 66.46875 253.292969 L 66.46875 252.386719 Z M 67.386719 252.386719 Z M 67.386719 252.386719 "/>
<path style=" stroke:none;fill-rule:nonzero;fill:rgb(0%,0%,0%);fill-opacity:1;" d="M 73.191406 245.890625 L 73.191406 246.59375 L 70.242188 246.59375 L 70.21875 246.605469 L 70.21875 248.929688 C 70.492188 248.746094 70.878906 248.511719 71.242188 248.5 C 72.523438 248.363281 73.507812 249.621094 73.566406 250.789062 C 73.746094 252.273438 72.351562 253.75 70.855469 253.523438 C 70.105469 253.5 69.382812 253.058594 68.949219 252.445312 C 69.074219 252.273438 69.175781 251.980469 69.324219 251.878906 C 69.855469 252.921875 71.582031 253.339844 72.273438 252.242188 C 72.714844 251.414062 72.703125 250.359375 72.191406 249.5625 C 71.601562 248.804688 70.433594 249.269531 70.164062 250.074219 L 69.425781 250.074219 L 69.425781 245.890625 Z M 73.191406 245.890625 Z M 73.191406 245.890625 "/>
<path style=" stroke:none;fill-rule:nonzero;fill:rgb(0%,0%,0%);fill-opacity:1;" d="M 100.316406 245.652344 C 101.632812 245.6875 102.675781 247.035156 102.46875 248.304688 C 102.335938 249.574219 101.144531 250.300781 100.292969 251.09375 L 99.929688 251.46875 L 99.886719 251.492188 L 99.433594 251.933594 L 99.398438 251.957031 L 98.945312 252.410156 L 98.898438 252.433594 L 98.796875 252.535156 L 98.820312 252.546875 L 102.492188 252.546875 L 102.492188 253.292969 L 98.003906 253.292969 L 98.003906 252.613281 L 99.828125 250.789062 C 100.703125 250.027344 101.722656 249.042969 101.5625 247.796875 C 101.472656 247.070312 100.859375 246.402344 100.113281 246.34375 C 99.351562 246.230469 98.683594 246.832031 98.511719 247.558594 L 98.492188 247.589844 L 98.46875 247.671875 L 98.433594 247.796875 L 98.367188 248.046875 L 98.355469 248.101562 C 98.195312 247.910156 98.027344 247.703125 97.902344 247.488281 C 98.128906 246.558594 98.875 245.6875 99.863281 245.652344 Z M 100.316406 245.652344 Z M 100.316406 245.652344 "/>
<path style=" stroke:none;fill-rule:nonzero;fill:rgb(0%,0%,0%);fill-opacity:1;" d="M 105.125 252.386719 L 105.125 253.292969 L 104.207031 253.292969 L 104.207031 252.386719 Z M 105.125 252.386719 Z M 105.125 252.386719 "/>
<path style=" stroke:none;fill-rule:nonzero;fill:rgb(0%,0%,0%);fill-opacity:1;" d="M 109.25 245.652344 C 110.328125 245.730469 111.042969 246.71875 111.234375 247.714844 C 111.335938 248.167969 111.359375 248.601562 111.40625 249.054688 L 111.40625 250.210938 C 111.347656 251.390625 111.066406 252.941406 109.785156 253.417969 C 108.671875 253.863281 107.367188 253.171875 107.039062 252.035156 C 106.789062 251.433594 106.769531 250.824219 106.710938 250.210938 L 106.710938 249.054688 C 106.769531 247.875 107.015625 246.308594 108.285156 245.789062 L 108.34375 245.765625 L 108.390625 245.753906 L 108.445312 245.730469 L 108.617188 245.6875 L 108.71875 245.664062 L 108.84375 245.664062 L 108.867188 245.652344 Z M 109.25 245.652344 Z M 108.898438 246.34375 C 107.945312 246.457031 107.664062 247.601562 107.59375 248.375 L 107.59375 248.679688 L 107.574219 248.703125 L 107.574219 250.277344 C 107.640625 251.09375 107.699219 252.148438 108.445312 252.695312 C 109.136719 253.171875 110.054688 252.636719 110.25 251.898438 C 110.453125 251.355469 110.5 250.824219 110.542969 250.277344 L 110.542969 248.703125 C 110.476562 247.875 110.363281 246.71875 109.410156 246.390625 L 109.332031 246.367188 L 109.308594 246.34375 L 109.207031 246.34375 L 109.183594 246.320312 L 108.921875 246.320312 Z M 108.898438 246.34375 Z M 108.898438 246.34375 "/>
<path style=" stroke:none;fill-rule:nonzero;fill:rgb(0%,0%,0%);fill-opacity:1;" d="M 138.054688 245.652344 C 139.371094 245.6875 140.414062 247.035156 140.207031 248.304688 C 140.074219 249.574219 138.882812 250.300781 138.03125 251.09375 L 137.667969 251.46875 L 137.625 251.492188 L 137.171875 251.933594 L 137.136719 251.957031 L 136.683594 252.410156 L 136.636719 252.433594 L 136.535156 252.535156 L 136.558594 252.546875 L 140.230469 252.546875 L 140.230469 253.292969 L 135.742188 253.292969 L 135.742188 252.613281 L 137.566406 250.789062 C 138.441406 250.027344 139.460938 249.042969 139.300781 247.796875 C 139.210938 247.070312 138.597656 246.402344 137.851562 246.34375 C 137.089844 246.230469 136.421875 246.832031 136.25 247.558594 L 136.230469 247.589844 L 136.207031 247.671875 L 136.171875 247.796875 L 136.105469 248.046875 L 136.09375 248.101562 C 135.933594 247.910156 135.765625 247.703125 135.640625 247.488281 C 135.867188 246.558594 136.613281 245.6875 137.601562 245.652344 Z M 138.054688 245.652344 Z M 138.054688 245.652344 "/>
<path style=" stroke:none;fill-rule:nonzero;fill:rgb(0%,0%,0%);fill-opacity:1;" d="M 142.863281 252.386719 L 142.863281 253.292969 L 141.945312 253.292969 L 141.945312 252.386719 Z M 142.863281 252.386719 Z M 142.863281 252.386719 "/>
<path style=" stroke:none;fill-rule:nonzero;fill:rgb(0%,0%,0%);fill-opacity:1;" d="M 148.667969 245.890625 L 148.667969 246.59375 L 145.71875 246.59375 L 145.695312 246.605469 L 145.695312 248.929688 C 145.96875 248.746094 146.355469 248.511719 146.71875 248.5 C 148 248.363281 148.984375 249.621094 149.042969 250.789062 C 149.222656 252.273438 147.828125 253.75 146.332031 253.523438 C 145.582031 253.5 144.859375 253.058594 144.425781 252.445312 C 144.550781 252.273438 144.652344 251.980469 144.800781 251.878906 C 145.332031 252.921875 147.058594 253.339844 147.75 252.242188 C 148.191406 251.414062 148.179688 250.359375 147.667969 249.5625 C 147.078125 248.804688 145.910156 249.269531 145.640625 250.074219 L 144.902344 250.074219 L 144.902344 245.890625 Z M 148.667969 245.890625 Z M 148.667969 245.890625 "/>
<path style=" stroke:none;fill-rule:nonzero;fill:rgb(0%,0%,0%);fill-opacity:1;" d="M 175.941406 245.652344 C 176.9375 245.699219 177.980469 246.617188 177.742188 247.671875 C 177.628906 248.386719 177.128906 248.976562 176.507812 249.292969 C 177.515625 249.609375 178.296875 250.675781 178.027344 251.730469 C 177.753906 253.101562 176.179688 253.863281 174.910156 253.441406 C 174.296875 253.261719 173.671875 252.875 173.378906 252.308594 C 173.445312 252.136719 173.421875 251.84375 173.503906 251.730469 C 174.101562 252.613281 175.375 253.214844 176.371094 252.714844 C 177.460938 252.023438 177.289062 250.007812 175.972656 249.667969 L 175.871094 249.667969 L 175.847656 249.644531 L 174.796875 249.644531 L 174.796875 248.964844 C 175.441406 248.953125 176.246094 248.871094 176.609375 248.203125 C 176.996094 247.625 176.960938 246.671875 176.222656 246.390625 C 175.351562 246.050781 174.273438 246.605469 173.945312 247.488281 C 173.808594 247.296875 173.671875 247.105469 173.535156 246.898438 C 174 246.0625 174.988281 245.5625 175.941406 245.652344 Z M 175.941406 245.652344 Z M 175.941406 245.652344 "/>
<path style=" stroke:none;fill-rule:nonzero;fill:rgb(0%,0%,0%);fill-opacity:1;" d="M 180.601562 252.386719 L 180.601562 253.292969 L 179.683594 253.292969 L 179.683594 252.386719 Z M 180.601562 252.386719 Z M 180.601562 252.386719 "/>
<path style=" stroke:none;fill-rule:nonzero;fill:rgb(0%,0%,0%);fill-opacity:1;" d="M 184.726562 245.652344 C 185.804688 245.730469 186.519531 246.71875 186.710938 247.714844 C 186.8125 248.167969 186.835938 248.601562 186.882812 249.054688 L 186.882812 250.210938 C 186.824219 251.390625 186.542969 252.941406 185.261719 253.417969 C 184.148438 253.863281 182.84375 253.171875 182.515625 252.035156 C 182.265625 251.433594 182.246094 250.824219 182.1875 250.210938 L 182.1875 249.054688 C 182.246094 247.875 182.492188 246.308594 183.765625 245.789062 L 183.820312 245.765625 L 183.867188 245.753906 L 183.921875 245.730469 L 184.09375 245.6875 L 184.195312 245.664062 L 184.320312 245.664062 L 184.34375 245.652344 Z M 184.726562 245.652344 Z M 184.375 246.34375 C 183.421875 246.457031 183.140625 247.601562 183.070312 248.375 L 183.070312 248.679688 L 183.050781 248.703125 L 183.050781 250.277344 C 183.117188 251.09375 183.175781 252.148438 183.921875 252.695312 C 184.613281 253.171875 185.53125 252.636719 185.726562 251.898438 C 185.929688 251.355469 185.976562 250.824219 186.019531 250.277344 L 186.019531 248.703125 C 185.953125 247.875 185.839844 246.71875 184.886719 246.390625 L 184.808594 246.367188 L 184.785156 246.34375 L 184.683594 246.34375 L 184.660156 246.320312 L 184.398438 246.320312 Z M 184.375 246.34375 Z M 184.375 246.34375 "/>
<path style=" stroke:none;fill-rule:nonzero;fill:rgb(0%,0%,0%);fill-opacity:1;" d="M 213.679688 245.652344 C 214.675781 245.699219 215.71875 246.617188 215.480469 247.671875 C 215.367188 248.386719 214.867188 248.976562 214.246094 249.292969 C 215.253906 249.609375 216.035156 250.675781 215.765625 251.730469 C 215.492188 253.101562 213.917969 253.863281 212.648438 253.441406 C 212.035156 253.261719 211.410156 252.875 211.117188 252.308594 C 211.183594 252.136719 211.160156 251.84375 211.242188 251.730469 C 211.839844 252.613281 213.113281 253.214844 214.109375 252.714844 C 215.199219 252.023438 215.027344 250.007812 213.710938 249.667969 L 213.609375 249.667969 L 213.585938 249.644531 L 212.535156 249.644531 L 212.535156 248.964844 C 213.179688 248.953125 213.984375 248.871094 214.347656 248.203125 C 214.734375 247.625 214.699219 246.671875 213.960938 246.390625 C 213.089844 246.050781 212.011719 246.605469 211.683594 247.488281 C 211.546875 247.296875 211.410156 247.105469 211.273438 246.898438 C 211.738281 246.0625 212.726562 245.5625 213.679688 245.652344 Z M 213.679688 245.652344 Z M 213.679688 245.652344 "/>
<path style=" stroke:none;fill-rule:nonzero;fill:rgb(0%,0%,0%);fill-opacity:1;" d="M 218.339844 252.386719 L 218.339844 253.292969 L 217.421875 253.292969 L 217.421875 252.386719 Z M 218.339844 252.386719 Z M 218.339844 252.386719 "/>
<path style=" stroke:none;fill-rule:nonzero;fill:rgb(0%,0%,0%);fill-opacity:1;" d="M 224.144531 245.890625 L 224.144531 246.59375 L 221.195312 246.59375 L 221.171875 246.605469 L 221.171875 248.929688 C 221.445312 248.746094 221.832031 248.511719 222.195312 248.5 C 223.476562 248.363281 224.460938 249.621094 224.519531 250.789062 C 224.699219 252.273438 223.304688 253.75 221.808594 253.523438 C 221.058594 253.5 220.335938 253.058594 219.902344 252.445312 C 220.027344 252.273438 220.128906 251.980469 220.277344 251.878906 C 220.808594 252.921875 222.535156 253.339844 223.226562 252.242188 C 223.667969 251.414062 223.65625 250.359375 223.144531 249.5625 C 222.554688 248.804688 221.390625 249.269531 221.117188 250.074219 L 220.378906 250.074219 L 220.378906 245.890625 Z M 224.144531 245.890625 Z M 224.144531 245.890625 "/>
<path style=" stroke:none;fill-rule:nonzero;fill:rgb(0%,0%,0%);fill-opacity:1;" d="M 252.5625 245.890625 L 252.5625 250.664062 L 252.585938 250.6875 L 253.707031 250.6875 L 253.707031 251.367188 L 252.585938 251.367188 L 252.5625 251.378906 L 252.5625 253.292969 L 251.699219 253.292969 L 251.699219 251.378906 L 251.675781 251.367188 L 248.683594 251.367188 L 248.683594 250.664062 C 249.636719 249.078125 250.589844 247.476562 251.542969 245.890625 Z M 252.5625 245.890625 Z M 251.722656 246.320312 C 251.496094 247.5 250.769531 248.511719 250.226562 249.542969 C 250.011719 249.914062 249.726562 250.324219 249.570312 250.6875 L 251.746094 250.6875 L 251.757812 250.664062 L 251.757812 246.320312 L 251.746094 246.300781 Z M 251.722656 246.320312 Z M 251.722656 246.320312 "/>
<path style=" stroke:none;fill-rule:nonzero;fill:rgb(0%,0%,0%);fill-opacity:1;" d="M 256.078125 252.386719 L 256.078125 253.292969 L 255.160156 253.292969 L 255.160156 252.386719 Z M 256.078125 252.386719 Z M 256.078125 252.386719 "/>
<path style=" stroke:none;fill-rule:nonzero;fill:rgb(0%,0%,0%);fill-opacity:1;" d="M 260.203125 245.652344 C 261.28125 245.730469 261.996094 246.71875 262.1875 247.714844 C 262.289062 248.167969 262.3125 248.601562 262.359375 249.054688 L 262.359375 250.210938 C 262.300781 251.390625 262.019531 252.941406 260.738281 253.417969 C 259.625 253.863281 258.320312 253.171875 257.992188 252.035156 C 257.742188 251.433594 257.722656 250.824219 257.664062 250.210938 L 257.664062 249.054688 C 257.722656 247.875 257.96875 246.308594 259.242188 245.789062 L 259.296875 245.765625 L 259.34375 245.753906 L 259.398438 245.730469 L 259.570312 245.6875 L 259.671875 245.664062 L 259.796875 245.664062 L 259.820312 245.652344 Z M 260.203125 245.652344 Z M 259.851562 246.34375 C 258.898438 246.457031 258.617188 247.601562 258.546875 248.375 L 258.546875 248.679688 L 258.527344 248.703125 L 258.527344 250.277344 C 258.59375 251.09375 258.652344 252.148438 259.398438 252.695312 C 260.089844 253.171875 261.007812 252.636719 261.203125 251.898438 C 261.40625 251.355469 261.453125 250.824219 261.496094 250.277344 L 261.496094 248.703125 C 261.429688 247.875 261.316406 246.71875 260.363281 246.390625 L 260.285156 246.367188 L 260.261719 246.34375 L 260.160156 246.34375 L 260.136719 246.320312 L 259.875 246.320312 Z M 259.851562 246.34375 Z M 259.851562 246.34375 "/>
<path style=" stroke:none;fill-rule:nonzero;fill:rgb(0%,0%,0%);fill-opacity:1;" d="M 290.300781 245.890625 L 290.300781 250.664062 L 290.324219 250.6875 L 291.445312 250.6875 L 291.445312 251.367188 L 290.324219 251.367188 L 290.300781 251.378906 L 290.300781 253.292969 L 289.4375 253.292969 L 289.4375 251.378906 L 289.414062 251.367188 L 286.421875 251.367188 L 286.421875 250.664062 C 287.375 249.078125 288.328125 247.476562 289.28125 245.890625 Z M 290.300781 245.890625 Z M 289.460938 246.320312 C 289.234375 247.5 288.507812 248.511719 287.964844 249.542969 C 287.75 249.914062 287.464844 250.324219 287.308594 250.6875 L 289.484375 250.6875 L 289.496094 250.664062 L 289.496094 246.320312 L 289.484375 246.300781 Z M 289.460938 246.320312 Z M 289.460938 246.320312 "/>
<path style=" stroke:none;fill-rule:nonzero;fill:rgb(0%,0%,0%);fill-opacity:1;" d="M 293.816406 252.386719 L 293.816406 253.292969 L 292.898438 253.292969 L 292.898438 252.386719 Z M 293.816406 252.386719 Z M 293.816406 252.386719 "/>
<path style=" stroke:none;fill-rule:nonzero;fill:rgb(0%,0%,0%);fill-opacity:1;" d="M 299.621094 245.890625 L 299.621094 246.59375 L 296.671875 246.59375 L 296.648438 246.605469 L 296.648438 248.929688 C 296.921875 248.746094 297.308594 248.511719 297.671875 248.5 C 298.953125 248.363281 299.9375 249.621094 299.996094 250.789062 C 300.175781 252.273438 298.78125 253.75 297.285156 253.523438 C 296.535156 253.5 295.8125 253.058594 295.378906 252.445312 C 295.503906 252.273438 295.605469 251.980469 295.753906 251.878906 C 296.289062 252.921875 298.011719 253.339844 298.703125 252.242188 C 299.144531 251.414062 299.132812 250.359375 298.621094 249.5625 C 298.035156 248.804688 296.867188 249.269531 296.59375 250.074219 L 295.855469 250.074219 L 295.855469 245.890625 Z M 299.621094 245.890625 Z M 299.621094 245.890625 "/>
<path style=" stroke:none;fill-rule:nonzero;fill:rgb(0%,0%,0%);fill-opacity:1;" d="M 328.550781 245.890625 L 328.550781 246.59375 L 325.601562 246.59375 L 325.578125 246.605469 L 325.578125 248.929688 C 325.851562 248.746094 326.234375 248.511719 326.597656 248.5 C 327.878906 248.363281 328.867188 249.621094 328.921875 250.789062 C 329.105469 252.273438 327.710938 253.75 326.214844 253.523438 C 325.464844 253.5 324.738281 253.058594 324.308594 252.445312 C 324.433594 252.273438 324.535156 251.980469 324.683594 251.878906 C 325.214844 252.921875 326.9375 253.339844 327.628906 252.242188 C 328.074219 251.414062 328.0625 250.359375 327.550781 249.5625 C 326.960938 248.804688 325.792969 249.269531 325.523438 250.074219 L 324.785156 250.074219 L 324.785156 245.890625 Z M 328.550781 245.890625 Z M 328.550781 245.890625 "/>
<path style=" stroke:none;fill-rule:nonzero;fill:rgb(0%,0%,0%);fill-opacity:1;" d="M 331.554688 252.386719 L 331.554688 253.292969 L 330.636719 253.292969 L 330.636719 252.386719 Z M 331.554688 252.386719 Z M 331.554688 252.386719 "/>
<path style=" stroke:none;fill-rule:nonzero;fill:rgb(0%,0%,0%);fill-opacity:1;" d="M 335.679688 245.652344 C 336.757812 245.730469 337.472656 246.71875 337.664062 247.714844 C 337.765625 248.167969 337.789062 248.601562 337.835938 249.054688 L 337.835938 250.210938 C 337.777344 251.390625 337.496094 252.941406 336.214844 253.417969 C 335.101562 253.863281 333.796875 253.171875 333.46875 252.035156 C 333.21875 251.433594 333.199219 250.824219 333.140625 250.210938 L 333.140625 249.054688 C 333.199219 247.875 333.445312 246.308594 334.71875 245.789062 L 334.773438 245.765625 L 334.820312 245.753906 L 334.875 245.730469 L 335.046875 245.6875 L 335.148438 245.664062 L 335.273438 245.664062 L 335.296875 245.652344 Z M 335.679688 245.652344 Z M 335.328125 246.34375 C 334.378906 246.457031 334.09375 247.601562 334.027344 248.375 L 334.027344 248.679688 L 334.003906 248.703125 L 334.003906 250.277344 C 334.070312 251.09375 334.128906 252.148438 334.875 252.695312 C 335.566406 253.171875 336.484375 252.636719 336.679688 251.898438 C 336.882812 251.355469 336.929688 250.824219 336.972656 250.277344 L 336.972656 248.703125 C 336.90625 247.875 336.792969 246.71875 335.839844 246.390625 L 335.761719 246.367188 L 335.738281 246.34375 L 335.636719 246.34375 L 335.613281 246.320312 L 335.351562 246.320312 Z M 335.328125 246.34375 Z M 335.328125 246.34375 "/>
<path style="fill:none;stroke-width:0.02;stroke-linecap:butt;stroke-linejoin:miter;stroke:rgb(0%,0%,0%);stroke-opacity:1;stroke-miterlimit:10;" d="M 2.325302 8.769041 L 2.325302 8.618972 " transform="matrix(28.346457,0,0,-28.346457,1,256.11811)"/>
<path style="fill:none;stroke-width:0.02;stroke-linecap:butt;stroke-linejoin:miter;stroke:rgb(0%,0%,0%);stroke-opacity:1;stroke-miterlimit:10;" d="M 3.656624 8.769041 L 3.656624 8.618972 " transform="matrix(28.346457,0,0,-28.346457,1,256.11811)"/>
<path style="fill:none;stroke-width:0.02;stroke-linecap:butt;stroke-linejoin:miter;stroke:rgb(0%,0%,0%);stroke-opacity:1;stroke-miterlimit:10;" d="M 4.987947 8.769041 L 4.987947 8.618972 " transform="matrix(28.346457,0,0,-28.346457,1,256.11811)"/>
<path style="fill:none;stroke-width:0.02;stroke-linecap:butt;stroke-linejoin:miter;stroke:rgb(0%,0%,0%);stroke-opacity:1;stroke-miterlimit:10;" d="M 6.31927 8.769041 L 6.31927 8.618972 " transform="matrix(28.346457,0,0,-28.346457,1,256.11811)"/>
<path style="fill:none;stroke-width:0.02;stroke-linecap:butt;stroke-linejoin:miter;stroke:rgb(0%,0%,0%);stroke-opacity:1;stroke-miterlimit:10;" d="M 7.650592 8.769041 L 7.650592 8.618972 " transform="matrix(28.346457,0,0,-28.346457,1,256.11811)"/>
<path style="fill:none;stroke-width:0.02;stroke-linecap:butt;stroke-linejoin:miter;stroke:rgb(0%,0%,0%);stroke-opacity:1;stroke-miterlimit:10;" d="M 8.981915 8.769041 L 8.981915 8.618972 " transform="matrix(28.346457,0,0,-28.346457,1,256.11811)"/>
<path style="fill:none;stroke-width:0.02;stroke-linecap:butt;stroke-linejoin:miter;stroke:rgb(0%,0%,0%);stroke-opacity:1;stroke-miterlimit:10;" d="M 10.313238 8.769041 L 10.313238 8.618972 " transform="matrix(28.346457,0,0,-28.346457,1,256.11811)"/>
<path style="fill:none;stroke-width:0.02;stroke-linecap:round;stroke-linejoin:miter;stroke:rgb(0%,0%,0%);stroke-opacity:1;stroke-miterlimit:10;" d="M 0.993979 8.769041 L 11.644561 8.769041 " transform="matrix(28.346457,0,0,-28.346457,1,256.11811)"/>
<path style="fill:none;stroke-width:0.05;stroke-linecap:butt;stroke-linejoin:miter;stroke:rgb(33%,47%,64%);stroke-opacity:1;stroke-miterlimit:10;" d="M 0.993979 1.095986 L 3.656624 8.112819 L 6.31927 8.248969 L 8.981915 7.318656 L 11.644561 4.14338 " transform="matrix(28.346457,0,0,-28.346457,1,256.11811)"/>
</g>
</svg>
