<?xml version="1.0" encoding="UTF-8"?>
<svg xmlns="http://www.w3.org/2000/svg" xmlns:xlink="http://www.w3.org/1999/xlink" width="342.15748pt" height="257.11811pt" viewBox="0 0 342.15748 257.11811" version="1.1">
<g id="surface1">
<path style=" stroke:none;fill-rule:nonzero;fill:rgb(100%,100%,100%);fill-opacity:1;" d="M -0.417969 257.535156 L 342.574219 257.535156 L 342.574219 -0.417969 L -0.417969 -0.417969 Z M -0.417969 257.535156 "/>
<path style="fill:none;stroke-width:0.02;stroke-linecap:butt;stroke-linejoin:miter;stroke:rgb(0%,0%,0%);stroke-opacity:1;stroke-miterlimit:10;" d="M 0.645749 1.579816 L 0.750755 1.579816 " transform="matrix(28.346457,0,0,-28.346457,1,256.11811)"/>
<path style="fill:none;stroke-width:0.02;stroke-linecap:butt;stroke-linejoin:miter;stroke:rgb(0%,0%,0%);stroke-opacity:1;stroke-miterlimit:10;" d="M 0.645749 2.781189 L 0.750755 2.781189 " transform="matrix(28.346457,0,0,-28.346457,1,256.11811)"/>
<path style="fill:none;stroke-width:0.02;stroke-linecap:butt;stroke-linejoin:miter;stroke:rgb(0%,0%,0%);stroke-opacity:1;stroke-miterlimit:10;" d="M 0.645749 3.982701 L 0.750755 3.982701 " transform="matrix(28.346457,0,0,-28.346457,1,256.11811)"/>
<path style="fill:none;stroke-width:0.02;stroke-linecap:butt;stroke-linejoin:miter;stroke:rgb(0%,0%,0%);stroke-opacity:1;stroke-miterlimit:10;" d="M 0.645749 5.184074 L 0.750755 5.184074 " transform="matrix(28.346457,0,0,-28.346457,1,256.11811)"/>
<path style="fill:none;stroke-width:0.02;stroke-linecap:butt;stroke-linejoin:miter;stroke:rgb(0%,0%,0%);stroke-opacity:1;stroke-miterlimit:10;" d="M 0.645749 6.385448 L 0.750755 6.385448 " transform="matrix(28.346457,0,0,-28.346457,1,256.11811)"/>
<path style="fill:none;stroke-width:0.02;stroke-linecap:butt;stroke-linejoin:miter;stroke:rgb(0%,0%,0%);stroke-opacity:1;stroke-miterlimit:10;" d="M 0.645749 7.586822 L 0.750755 7.586822 " transform="matrix(28.346457,0,0,-28.346457,1,256.11811)"/>
<path style="fill:none;stroke-width:0.02;stroke-linecap:round;stroke-linejoin:miter;stroke:rgb(0%,0%,0%);stroke-opacity:1;stroke-miterlimit:10;" d="M 0.645749 0.378442 L 0.645749 8.788333 " transform="matrix(28.346457,0,0,-28.346457,1,256.11811)"/>
<path style=" stroke:none;fill-rule:nonzero;fill:rgb(0%,0%,0%);fill-opacity:1;" d="M 3.742188 246.03125 L 3.742188 246.476562 L 1.664062 246.476562 L 1.664062 246.03125 Z M 3.742188 246.03125 Z M 3.742188 246.03125 "/>
<path style=" stroke:none;fill-rule:nonzero;fill:rgb(0%,0%,0%);fill-opacity:1;" d="M 6.328125 242.648438 C 7.082031 242.707031 7.582031 243.394531 7.71875 244.09375 C 7.789062 244.410156 7.804688 244.714844 7.835938 245.03125 L 7.835938 245.839844 C 7.796875 246.664062 7.597656 247.753906 6.703125 248.085938 C 5.925781 248.394531 5.011719 247.910156 4.78125 247.117188 C 4.605469 246.699219 4.589844 246.269531 4.550781 245.839844 L 4.550781 245.03125 C 4.589844 244.207031 4.765625 243.109375 5.65625 242.746094 L 5.695312 242.730469 L 5.726562 242.722656 L 5.765625 242.707031 L 5.882812 242.671875 L 5.957031 242.65625 L 6.042969 242.65625 L 6.058594 242.648438 Z M 6.328125 242.648438 Z M 6.082031 243.132812 C 5.417969 243.214844 5.21875 244.015625 5.171875 244.554688 L 5.171875 244.769531 L 5.15625 244.785156 L 5.15625 245.886719 C 5.203125 246.460938 5.242188 247.199219 5.765625 247.578125 C 6.25 247.910156 6.894531 247.539062 7.027344 247.023438 C 7.171875 246.640625 7.203125 246.269531 7.234375 245.886719 L 7.234375 244.785156 C 7.1875 244.207031 7.105469 243.394531 6.441406 243.164062 L 6.382812 243.148438 L 6.367188 243.132812 L 6.296875 243.132812 L 6.28125 243.117188 L 6.097656 243.117188 Z M 6.082031 243.132812 Z M 6.082031 243.132812 "/>
<path style=" stroke:none;fill-rule:nonzero;fill:rgb(0%,0%,0%);fill-opacity:1;" d="M 9.605469 247.363281 L 9.605469 248 L 8.964844 248 L 8.964844 247.363281 Z M 9.605469 247.363281 Z M 9.605469 247.363281 "/>
<path style=" stroke:none;fill-rule:nonzero;fill:rgb(0%,0%,0%);fill-opacity:1;" d="M 13.3125 242.816406 L 13.3125 246.15625 L 13.328125 246.171875 L 14.117188 246.171875 L 14.117188 246.648438 L 13.328125 246.648438 L 13.3125 246.65625 L 13.3125 248 L 12.710938 248 L 12.710938 246.65625 L 12.695312 246.648438 L 10.597656 246.648438 L 10.597656 246.15625 C 11.265625 245.046875 11.933594 243.925781 12.597656 242.816406 Z M 13.3125 242.816406 Z M 12.726562 243.117188 C 12.566406 243.941406 12.058594 244.648438 11.679688 245.371094 C 11.527344 245.632812 11.328125 245.917969 11.21875 246.171875 L 12.742188 246.171875 L 12.75 246.15625 L 12.75 243.117188 L 12.742188 243.101562 Z M 12.726562 243.117188 Z M 12.726562 243.117188 "/>
<path style=" stroke:none;fill-rule:nonzero;fill:rgb(0%,0%,0%);fill-opacity:1;" d="M 3.742188 211.976562 L 3.742188 212.417969 L 1.664062 212.417969 L 1.664062 211.976562 Z M 3.742188 211.976562 Z M 3.742188 211.976562 "/>
<path style=" stroke:none;fill-rule:nonzero;fill:rgb(0%,0%,0%);fill-opacity:1;" d="M 6.328125 208.59375 C 7.082031 208.648438 7.582031 209.339844 7.71875 210.039062 C 7.789062 210.355469 7.804688 210.65625 7.835938 210.976562 L 7.835938 211.785156 C 7.796875 212.609375 7.597656 213.695312 6.703125 214.03125 C 5.925781 214.339844 5.011719 213.855469 4.78125 213.0625 C 4.605469 212.640625 4.589844 212.214844 4.550781 211.785156 L 4.550781 210.976562 C 4.589844 210.148438 4.765625 209.054688 5.65625 208.6875 L 5.695312 208.671875 L 5.726562 208.664062 L 5.765625 208.648438 L 5.882812 208.617188 L 5.957031 208.601562 L 6.042969 208.601562 L 6.058594 208.59375 Z M 6.328125 208.59375 Z M 6.082031 209.078125 C 5.417969 209.15625 5.21875 209.957031 5.171875 210.5 L 5.171875 210.714844 L 5.15625 210.730469 L 5.15625 211.832031 C 5.203125 212.402344 5.242188 213.140625 5.765625 213.523438 C 6.25 213.855469 6.894531 213.484375 7.027344 212.96875 C 7.171875 212.585938 7.203125 212.214844 7.234375 211.832031 L 7.234375 210.730469 C 7.1875 210.148438 7.105469 209.339844 6.441406 209.109375 L 6.382812 209.09375 L 6.367188 209.078125 L 6.296875 209.078125 L 6.28125 209.0625 L 6.097656 209.0625 Z M 6.082031 209.078125 Z M 6.082031 209.078125 "/>
<path style=" stroke:none;fill-rule:nonzero;fill:rgb(0%,0%,0%);fill-opacity:1;" d="M 9.605469 213.308594 L 9.605469 213.941406 L 8.964844 213.941406 L 8.964844 213.308594 Z M 9.605469 213.308594 Z M 9.605469 213.308594 "/>
<path style=" stroke:none;fill-rule:nonzero;fill:rgb(0%,0%,0%);fill-opacity:1;" d="M 12.410156 208.59375 C 13.328125 208.617188 14.058594 209.5625 13.917969 210.449219 C 13.820312 211.339844 12.988281 211.847656 12.394531 212.402344 L 12.140625 212.664062 L 12.105469 212.679688 L 11.789062 212.992188 L 11.765625 213.007812 L 11.449219 213.324219 L 11.417969 213.339844 L 11.34375 213.410156 L 11.359375 213.417969 L 13.933594 213.417969 L 13.933594 213.941406 L 10.789062 213.941406 L 10.789062 213.46875 L 12.066406 212.1875 C 12.679688 211.65625 13.394531 210.96875 13.28125 210.09375 C 13.21875 209.585938 12.789062 209.117188 12.265625 209.078125 C 11.734375 209 11.265625 209.417969 11.148438 209.925781 L 11.132812 209.949219 L 11.113281 210.007812 L 11.089844 210.09375 L 11.042969 210.269531 L 11.035156 210.308594 C 10.925781 210.171875 10.804688 210.03125 10.71875 209.878906 C 10.878906 209.230469 11.402344 208.617188 12.089844 208.59375 Z M 12.410156 208.59375 Z M 12.410156 208.59375 "/>
<path style=" stroke:none;fill-rule:nonzero;fill:rgb(0%,0%,0%);fill-opacity:1;" d="M 6.328125 174.539062 C 7.082031 174.59375 7.582031 175.285156 7.71875 175.984375 C 7.789062 176.300781 7.804688 176.601562 7.835938 176.917969 L 7.835938 177.730469 C 7.796875 178.554688 7.597656 179.640625 6.703125 179.976562 C 5.925781 180.285156 5.011719 179.800781 4.78125 179.007812 C 4.605469 178.585938 4.589844 178.15625 4.550781 177.730469 L 4.550781 176.917969 C 4.589844 176.09375 4.765625 175 5.65625 174.632812 L 5.695312 174.617188 L 5.726562 174.609375 L 5.765625 174.59375 L 5.882812 174.5625 L 5.957031 174.546875 L 6.042969 174.546875 L 6.058594 174.539062 Z M 6.328125 174.539062 Z M 6.082031 175.023438 C 5.417969 175.101562 5.21875 175.902344 5.171875 176.441406 L 5.171875 176.65625 L 5.15625 176.671875 L 5.15625 177.777344 C 5.203125 178.347656 5.242188 179.085938 5.765625 179.464844 C 6.25 179.800781 6.894531 179.425781 7.027344 178.910156 C 7.171875 178.53125 7.203125 178.15625 7.234375 177.777344 L 7.234375 176.671875 C 7.1875 176.09375 7.105469 175.285156 6.441406 175.054688 L 6.382812 175.039062 L 6.367188 175.023438 L 6.296875 175.023438 L 6.28125 175.007812 L 6.097656 175.007812 Z M 6.082031 175.023438 Z M 6.082031 175.023438 "/>
<path style=" stroke:none;fill-rule:nonzero;fill:rgb(0%,0%,0%);fill-opacity:1;" d="M 9.605469 179.253906 L 9.605469 179.886719 L 8.964844 179.886719 L 8.964844 179.253906 Z M 9.605469 179.253906 Z M 9.605469 179.253906 "/>
<path style=" stroke:none;fill-rule:nonzero;fill:rgb(0%,0%,0%);fill-opacity:1;" d="M 12.496094 174.539062 C 13.25 174.59375 13.75 175.285156 13.886719 175.984375 C 13.957031 176.300781 13.972656 176.601562 14.003906 176.917969 L 14.003906 177.730469 C 13.964844 178.554688 13.765625 179.640625 12.871094 179.976562 C 12.089844 180.285156 11.179688 179.800781 10.949219 179.007812 C 10.773438 178.585938 10.757812 178.15625 10.71875 177.730469 L 10.71875 176.917969 C 10.757812 176.09375 10.933594 175 11.820312 174.632812 L 11.859375 174.617188 L 11.894531 174.609375 L 11.933594 174.59375 L 12.050781 174.5625 L 12.125 174.546875 L 12.210938 174.546875 L 12.226562 174.539062 Z M 12.496094 174.539062 Z M 12.25 175.023438 C 11.582031 175.101562 11.386719 175.902344 11.335938 176.441406 L 11.335938 176.65625 L 11.320312 176.671875 L 11.320312 177.777344 C 11.367188 178.347656 11.410156 179.085938 11.933594 179.464844 C 12.417969 179.800781 13.058594 179.425781 13.195312 178.910156 C 13.335938 178.53125 13.371094 178.15625 13.402344 177.777344 L 13.402344 176.671875 C 13.351562 176.09375 13.273438 175.285156 12.605469 175.054688 L 12.550781 175.039062 L 12.535156 175.023438 L 12.464844 175.023438 L 12.449219 175.007812 L 12.265625 175.007812 Z M 12.25 175.023438 Z M 12.25 175.023438 "/>
<path style=" stroke:none;fill-rule:nonzero;fill:rgb(0%,0%,0%);fill-opacity:1;" d="M 6.328125 140.480469 C 7.082031 140.539062 7.582031 141.226562 7.71875 141.925781 C 7.789062 142.242188 7.804688 142.546875 7.835938 142.863281 L 7.835938 143.671875 C 7.796875 144.5 7.597656 145.585938 6.703125 145.917969 C 5.925781 146.226562 5.011719 145.746094 4.78125 144.949219 C 4.605469 144.53125 4.589844 144.101562 4.550781 143.671875 L 4.550781 142.863281 C 4.589844 142.039062 4.765625 140.941406 5.65625 140.578125 L 5.695312 140.5625 L 5.726562 140.554688 L 5.765625 140.539062 L 5.882812 140.507812 L 5.957031 140.488281 L 6.042969 140.488281 L 6.058594 140.480469 Z M 6.328125 140.480469 Z M 6.082031 140.964844 C 5.417969 141.046875 5.21875 141.847656 5.171875 142.386719 L 5.171875 142.601562 L 5.15625 142.617188 L 5.15625 143.71875 C 5.203125 144.292969 5.242188 145.03125 5.765625 145.410156 C 6.25 145.746094 6.894531 145.371094 7.027344 144.855469 C 7.171875 144.472656 7.203125 144.101562 7.234375 143.71875 L 7.234375 142.617188 C 7.1875 142.039062 7.105469 141.226562 6.441406 140.996094 L 6.382812 140.980469 L 6.367188 140.964844 L 6.296875 140.964844 L 6.28125 140.949219 L 6.097656 140.949219 Z M 6.082031 140.964844 Z M 6.082031 140.964844 "/>
<path style=" stroke:none;fill-rule:nonzero;fill:rgb(0%,0%,0%);fill-opacity:1;" d="M 9.605469 145.195312 L 9.605469 145.832031 L 8.964844 145.832031 L 8.964844 145.195312 Z M 9.605469 145.195312 Z M 9.605469 145.195312 "/>
<path style=" stroke:none;fill-rule:nonzero;fill:rgb(0%,0%,0%);fill-opacity:1;" d="M 12.410156 140.480469 C 13.328125 140.507812 14.058594 141.449219 13.917969 142.339844 C 13.820312 143.226562 12.988281 143.734375 12.394531 144.292969 L 12.140625 144.554688 L 12.105469 144.570312 L 11.789062 144.878906 L 11.765625 144.894531 L 11.449219 145.210938 L 11.417969 145.226562 L 11.34375 145.300781 L 11.359375 145.308594 L 13.933594 145.308594 L 13.933594 145.832031 L 10.789062 145.832031 L 10.789062 145.355469 L 12.066406 144.078125 C 12.679688 143.546875 13.394531 142.855469 13.28125 141.980469 C 13.21875 141.472656 12.789062 141.007812 12.265625 140.964844 C 11.734375 140.886719 11.265625 141.308594 11.148438 141.816406 L 11.132812 141.839844 L 11.113281 141.894531 L 11.089844 141.980469 L 11.042969 142.15625 L 11.035156 142.195312 C 10.925781 142.0625 10.804688 141.917969 10.71875 141.769531 C 10.878906 141.117188 11.402344 140.507812 12.089844 140.480469 Z M 12.410156 140.480469 Z M 12.410156 140.480469 "/>
<path style=" stroke:none;fill-rule:nonzero;fill:rgb(0%,0%,0%);fill-opacity:1;" d="M 6.328125 106.425781 C 7.082031 106.480469 7.582031 107.171875 7.71875 107.871094 C 7.789062 108.1875 7.804688 108.488281 7.835938 108.808594 L 7.835938 109.617188 C 7.796875 110.441406 7.597656 111.53125 6.703125 111.863281 C 5.925781 112.171875 5.011719 111.6875 4.78125 110.894531 C 4.605469 110.472656 4.589844 110.046875 4.550781 109.617188 L 4.550781 108.808594 C 4.589844 107.980469 4.765625 106.886719 5.65625 106.519531 L 5.695312 106.503906 L 5.726562 106.496094 L 5.765625 106.480469 L 5.882812 106.449219 L 5.957031 106.433594 L 6.042969 106.433594 L 6.058594 106.425781 Z M 6.328125 106.425781 Z M 6.082031 106.910156 C 5.417969 106.988281 5.21875 107.792969 5.171875 108.332031 L 5.171875 108.546875 L 5.15625 108.5625 L 5.15625 109.664062 C 5.203125 110.234375 5.242188 110.972656 5.765625 111.355469 C 6.25 111.6875 6.894531 111.316406 7.027344 110.800781 C 7.171875 110.417969 7.203125 110.046875 7.234375 109.664062 L 7.234375 108.5625 C 7.1875 107.980469 7.105469 107.171875 6.441406 106.941406 L 6.382812 106.925781 L 6.367188 106.910156 L 6.296875 106.910156 L 6.28125 106.894531 L 6.097656 106.894531 Z M 6.082031 106.910156 Z M 6.082031 106.910156 "/>
<path style=" stroke:none;fill-rule:nonzero;fill:rgb(0%,0%,0%);fill-opacity:1;" d="M 9.605469 111.140625 L 9.605469 111.777344 L 8.964844 111.777344 L 8.964844 111.140625 Z M 9.605469 111.140625 Z M 9.605469 111.140625 "/>
<path style=" stroke:none;fill-rule:nonzero;fill:rgb(0%,0%,0%);fill-opacity:1;" d="M 13.3125 106.59375 L 13.3125 109.933594 L 13.328125 109.949219 L 14.117188 109.949219 L 14.117188 110.425781 L 13.328125 110.425781 L 13.3125 110.433594 L 13.3125 111.777344 L 12.710938 111.777344 L 12.710938 110.433594 L 12.695312 110.425781 L 10.597656 110.425781 L 10.597656 109.933594 C 11.265625 108.824219 11.933594 107.703125 12.597656 106.59375 Z M 13.3125 106.59375 Z M 12.726562 106.894531 C 12.566406 107.71875 12.058594 108.425781 11.679688 109.148438 C 11.527344 109.410156 11.328125 109.695312 11.21875 109.949219 L 12.742188 109.949219 L 12.75 109.933594 L 12.75 106.894531 L 12.742188 106.878906 Z M 12.726562 106.894531 Z M 12.726562 106.894531 "/>
<path style=" stroke:none;fill-rule:nonzero;fill:rgb(0%,0%,0%);fill-opacity:1;" d="M 6.328125 72.371094 C 7.082031 72.425781 7.582031 73.117188 7.71875 73.816406 C 7.789062 74.132812 7.804688 74.433594 7.835938 74.75 L 7.835938 75.5625 C 7.796875 76.386719 7.597656 77.472656 6.703125 77.808594 C 5.925781 78.117188 5.011719 77.632812 4.78125 76.839844 C 4.605469 76.417969 4.589844 75.988281 4.550781 75.5625 L 4.550781 74.75 C 4.589844 73.925781 4.765625 72.832031 5.65625 72.464844 L 5.695312 72.449219 L 5.726562 72.441406 L 5.765625 72.425781 L 5.882812 72.394531 L 5.957031 72.378906 L 6.042969 72.378906 L 6.058594 72.371094 Z M 6.328125 72.371094 Z M 6.082031 72.855469 C 5.417969 72.933594 5.21875 73.734375 5.171875 74.273438 L 5.171875 74.488281 L 5.15625 74.503906 L 5.15625 75.609375 C 5.203125 76.179688 5.242188 76.917969 5.765625 77.300781 C 6.25 77.632812 6.894531 77.257812 7.027344 76.742188 C 7.171875 76.363281 7.203125 75.988281 7.234375 75.609375 L 7.234375 74.503906 C 7.1875 73.925781 7.105469 73.117188 6.441406 72.886719 L 6.382812 72.871094 L 6.367188 72.855469 L 6.296875 72.855469 L 6.28125 72.839844 L 6.097656 72.839844 Z M 6.082031 72.855469 Z M 6.082031 72.855469 "/>
<path style=" stroke:none;fill-rule:nonzero;fill:rgb(0%,0%,0%);fill-opacity:1;" d="M 9.605469 77.085938 L 9.605469 77.71875 L 8.964844 77.71875 L 8.964844 77.085938 Z M 9.605469 77.085938 Z M 9.605469 77.085938 "/>
<path style=" stroke:none;fill-rule:nonzero;fill:rgb(0%,0%,0%);fill-opacity:1;" d="M 13.011719 72.371094 C 13.21875 72.402344 13.457031 72.425781 13.65625 72.519531 L 13.65625 72.980469 C 13.105469 72.742188 12.394531 72.710938 11.964844 73.195312 C 11.582031 73.601562 11.410156 74.203125 11.394531 74.734375 C 11.851562 74.125 12.894531 73.78125 13.457031 74.417969 C 14.019531 75.070312 14.117188 76.003906 13.863281 76.800781 C 13.582031 77.433594 12.941406 78.011719 12.226562 77.878906 C 11.257812 77.800781 10.820312 76.71875 10.773438 75.894531 C 10.589844 74.726562 10.867188 73.257812 11.980469 72.59375 L 11.996094 72.585938 L 12.164062 72.496094 L 12.210938 72.480469 L 12.234375 72.464844 L 12.480469 72.394531 L 12.550781 72.378906 L 12.640625 72.378906 L 12.65625 72.371094 Z M 13.011719 72.371094 Z M 12.234375 74.578125 C 11.542969 74.695312 11.320312 75.53125 11.410156 76.09375 C 11.449219 76.625 11.65625 77.332031 12.265625 77.441406 C 12.917969 77.53125 13.335938 76.832031 13.351562 76.265625 C 13.386719 75.695312 13.351562 75.046875 12.851562 74.671875 L 12.742188 74.617188 L 12.65625 74.59375 L 12.582031 74.578125 L 12.566406 74.5625 L 12.25 74.5625 Z M 12.234375 74.578125 Z M 12.234375 74.578125 "/>
<path style=" stroke:none;fill-rule:nonzero;fill:rgb(0%,0%,0%);fill-opacity:1;" d="M 6.328125 38.316406 C 7.082031 38.371094 7.582031 39.0625 7.71875 39.757812 C 7.789062 40.078125 7.804688 40.378906 7.835938 40.695312 L 7.835938 41.503906 C 7.796875 42.332031 7.597656 43.417969 6.703125 43.75 C 5.925781 44.0625 5.011719 43.578125 4.78125 42.78125 C 4.605469 42.363281 4.589844 41.933594 4.550781 41.503906 L 4.550781 40.695312 C 4.589844 39.871094 4.765625 38.773438 5.65625 38.410156 L 5.695312 38.394531 L 5.726562 38.386719 L 5.765625 38.371094 L 5.882812 38.339844 L 5.957031 38.324219 L 6.042969 38.324219 L 6.058594 38.316406 Z M 6.328125 38.316406 Z M 6.082031 38.796875 C 5.417969 38.878906 5.21875 39.679688 5.171875 40.21875 L 5.171875 40.433594 L 5.15625 40.449219 L 5.15625 41.554688 C 5.203125 42.125 5.242188 42.863281 5.765625 43.242188 C 6.25 43.578125 6.894531 43.203125 7.027344 42.6875 C 7.171875 42.308594 7.203125 41.933594 7.234375 41.554688 L 7.234375 40.449219 C 7.1875 39.871094 7.105469 39.0625 6.441406 38.832031 L 6.382812 38.816406 L 6.367188 38.796875 L 6.296875 38.796875 L 6.28125 38.78125 L 6.097656 38.78125 Z M 6.082031 38.796875 Z M 6.082031 38.796875 "/>
<path style=" stroke:none;fill-rule:nonzero;fill:rgb(0%,0%,0%);fill-opacity:1;" d="M 9.605469 43.027344 L 9.605469 43.664062 L 8.964844 43.664062 L 8.964844 43.027344 Z M 9.605469 43.027344 Z M 9.605469 43.027344 "/>
<path style=" stroke:none;fill-rule:nonzero;fill:rgb(0%,0%,0%);fill-opacity:1;" d="M 12.511719 38.316406 C 13.351562 38.347656 14.148438 39.25 13.8125 40.09375 C 13.671875 40.480469 13.273438 40.71875 12.949219 40.886719 C 13.757812 41.125 14.25 42.070312 13.886719 42.847656 C 13.503906 43.855469 12.058594 44.171875 11.265625 43.441406 C 10.542969 42.871094 10.519531 41.632812 11.320312 41.125 C 11.441406 40.996094 11.664062 40.957031 11.765625 40.863281 C 11.074219 40.664062 10.605469 39.863281 10.933594 39.1875 C 11.195312 38.585938 11.871094 38.25 12.511719 38.316406 Z M 12.511719 38.316406 Z M 12.210938 38.765625 C 11.625 38.78125 11.210938 39.449219 11.410156 39.972656 C 11.640625 40.878906 13.15625 40.847656 13.328125 39.917969 C 13.488281 39.402344 13.074219 38.78125 12.511719 38.765625 L 12.496094 38.757812 L 12.226562 38.757812 Z M 12.210938 38.765625 Z M 12.226562 41.125 C 11.535156 41.171875 11.195312 41.996094 11.378906 42.585938 C 11.496094 43.417969 12.6875 43.664062 13.15625 42.996094 C 13.605469 42.386719 13.386719 41.289062 12.566406 41.125 L 12.496094 41.125 L 12.480469 41.109375 L 12.234375 41.109375 Z M 12.226562 41.125 Z M 12.226562 41.125 "/>
<path style=" stroke:none;fill-rule:nonzero;fill:rgb(0%,0%,0%);fill-opacity:1;" d="M 6.574219 4.257812 L 6.574219 9.15625 L 6.582031 9.171875 L 7.558594 9.171875 L 7.558594 9.609375 L 4.980469 9.609375 L 4.980469 9.171875 L 5.957031 9.171875 L 5.972656 9.15625 L 5.972656 5.042969 C 5.636719 5.15625 5.289062 5.226562 4.941406 5.21875 L 4.941406 4.773438 C 5.464844 4.78125 6.035156 4.640625 6.433594 4.257812 Z M 6.574219 4.257812 Z M 6.574219 4.257812 "/>
<path style=" stroke:none;fill-rule:nonzero;fill:rgb(0%,0%,0%);fill-opacity:1;" d="M 9.605469 8.972656 L 9.605469 9.609375 L 8.964844 9.609375 L 8.964844 8.972656 Z M 9.605469 8.972656 Z M 9.605469 8.972656 "/>
<path style=" stroke:none;fill-rule:nonzero;fill:rgb(0%,0%,0%);fill-opacity:1;" d="M 12.496094 4.257812 C 13.25 4.3125 13.75 5.003906 13.886719 5.703125 C 13.957031 6.019531 13.972656 6.324219 14.003906 6.640625 L 14.003906 7.449219 C 13.964844 8.273438 13.765625 9.363281 12.871094 9.695312 C 12.089844 10.003906 11.179688 9.519531 10.949219 8.726562 C 10.773438 8.304688 10.757812 7.878906 10.71875 7.449219 L 10.71875 6.640625 C 10.757812 5.8125 10.933594 4.71875 11.820312 4.355469 L 11.859375 4.339844 L 11.894531 4.332031 L 11.933594 4.3125 L 12.050781 4.28125 L 12.125 4.265625 L 12.210938 4.265625 L 12.226562 4.257812 Z M 12.496094 4.257812 Z M 12.25 4.742188 C 11.582031 4.820312 11.386719 5.625 11.335938 6.164062 L 11.335938 6.378906 L 11.320312 6.394531 L 11.320312 7.496094 C 11.367188 8.070312 11.410156 8.804688 11.933594 9.1875 C 12.417969 9.519531 13.058594 9.148438 13.195312 8.632812 C 13.335938 8.25 13.371094 7.878906 13.402344 7.496094 L 13.402344 6.394531 C 13.351562 5.8125 13.273438 5.003906 12.605469 4.773438 L 12.550781 4.757812 L 12.535156 4.742188 L 12.464844 4.742188 L 12.449219 4.726562 L 12.265625 4.726562 Z M 12.25 4.742188 Z M 12.25 4.742188 "/>
<path style="fill:none;stroke-width:0.02;stroke-linecap:butt;stroke-linejoin:miter;stroke:rgb(0%,0%,0%);stroke-opacity:1;stroke-miterlimit:10;" d="M 11.701198 1.579816 L 11.596191 1.579816 " transform="matrix(28.346457,0,0,-28.346457,1,256.11811)"/>
<path style="fill:none;stroke-width:0.02;stroke-linecap:butt;stroke-linejoin:miter;stroke:rgb(0%,0%,0%);stroke-opacity:1;stroke-miterlimit:10;" d="M 11.701198 2.781189 L 11.596191 2.781189 " transform="matrix(28.346457,0,0,-28.346457,1,256.11811)"/>
<path style="fill:none;stroke-width:0.02;stroke-linecap:butt;stroke-linejoin:miter;stroke:rgb(0%,0%,0%);stroke-opacity:1;stroke-miterlimit:10;" d="M 11.701198 3.982701 L 11.596191 3.982701 " transform="matrix(28.346457,0,0,-28.346457,1,256.11811)"/>
<path style="fill:none;stroke-width:0.02;stroke-linecap:butt;stroke-linejoin:miter;stroke:rgb(0%,0%,0%);stroke-opacity:1;stroke-miterlimit:10;" d="M 11.701198 5.184074 L 11.596191 5.184074 " transform="matrix(28.346457,0,0,-28.346457,1,256.11811)"/>
<path style="fill:none;stroke-width:0.02;stroke-linecap:butt;stroke-linejoin:miter;stroke:rgb(0%,0%,0%);stroke-opacity:1;stroke-miterlimit:10;" d="M 11.701198 6.385448 L 11.596191 6.385448 " transform="matrix(28.346457,0,0,-28.346457,1,256.11811)"/>
<path style="fill:none;stroke-width:0.02;stroke-linecap:butt;stroke-linejoin:miter;stroke:rgb(0%,0%,0%);stroke-opacity:1;stroke-miterlimit:10;" d="M 11.701198 7.586822 L 11.596191 7.586822 " transform="matrix(28.346457,0,0,-28.346457,1,256.11811)"/>
<path style="fill:none;stroke-width:0.02;stroke-linecap:round;stroke-linejoin:miter;stroke:rgb(0%,0%,0%);stroke-opacity:1;stroke-miterlimit:10;" d="M 11.701198 0.378442 L 11.701198 8.788333 " transform="matrix(28.346457,0,0,-28.346457,1,256.11811)"/>
<path style="fill:none;stroke-width:0.02;stroke-linecap:butt;stroke-linejoin:miter;stroke:rgb(0%,0%,0%);stroke-opacity:1;stroke-miterlimit:10;" d="M 1.751349 0.378442 L 1.751349 0.483448 " transform="matrix(28.346457,0,0,-28.346457,1,256.11811)"/>
<path style="fill:none;stroke-width:0.02;stroke-linecap:butt;stroke-linejoin:miter;stroke:rgb(0%,0%,0%);stroke-opacity:1;stroke-miterlimit:10;" d="M 2.856949 0.378442 L 2.856949 0.483448 " transform="matrix(28.346457,0,0,-28.346457,1,256.11811)"/>
<path style="fill:none;stroke-width:0.02;stroke-linecap:butt;stroke-linejoin:miter;stroke:rgb(0%,0%,0%);stroke-opacity:1;stroke-miterlimit:10;" d="M 3.962411 0.378442 L 3.962411 0.483448 " transform="matrix(28.346457,0,0,-28.346457,1,256.11811)"/>
<path style="fill:none;stroke-width:0.02;stroke-linecap:butt;stroke-linejoin:miter;stroke:rgb(0%,0%,0%);stroke-opacity:1;stroke-miterlimit:10;" d="M 5.068011 0.378442 L 5.068011 0.483448 " transform="matrix(28.346457,0,0,-28.346457,1,256.11811)"/>
<path style="fill:none;stroke-width:0.02;stroke-linecap:butt;stroke-linejoin:miter;stroke:rgb(0%,0%,0%);stroke-opacity:1;stroke-miterlimit:10;" d="M 6.173473 0.378442 L 6.173473 0.483448 " transform="matrix(28.346457,0,0,-28.346457,1,256.11811)"/>
<path style="fill:none;stroke-width:0.02;stroke-linecap:butt;stroke-linejoin:miter;stroke:rgb(0%,0%,0%);stroke-opacity:1;stroke-miterlimit:10;" d="M 7.279073 0.378442 L 7.279073 0.483448 " transform="matrix(28.346457,0,0,-28.346457,1,256.11811)"/>
<path style="fill:none;stroke-width:0.02;stroke-linecap:butt;stroke-linejoin:miter;stroke:rgb(0%,0%,0%);stroke-opacity:1;stroke-miterlimit:10;" d="M 8.384536 0.378442 L 8.384536 0.483448 " transform="matrix(28.346457,0,0,-28.346457,1,256.11811)"/>
<path style="fill:none;stroke-width:0.02;stroke-linecap:butt;stroke-linejoin:miter;stroke:rgb(0%,0%,0%);stroke-opacity:1;stroke-miterlimit:10;" d="M 9.490136 0.378442 L 9.490136 0.483448 " transform="matrix(28.346457,0,0,-28.346457,1,256.11811)"/>
<path style="fill:none;stroke-width:0.02;stroke-linecap:butt;stroke-linejoin:miter;stroke:rgb(0%,0%,0%);stroke-opacity:1;stroke-miterlimit:10;" d="M 10.595736 0.378442 L 10.595736 0.483448 " transform="matrix(28.346457,0,0,-28.346457,1,256.11811)"/>
<path style="fill:none;stroke-width:0.02;stroke-linecap:round;stroke-linejoin:miter;stroke:rgb(0%,0%,0%);stroke-opacity:1;stroke-miterlimit:10;" d="M 0.645749 0.378442 L 11.701198 0.378442 " transform="matrix(28.346457,0,0,-28.346457,1,256.11811)"/>
<path style=" stroke:none;fill-rule:nonzero;fill:rgb(0%,0%,0%);fill-opacity:1;" d="M 15.089844 253.589844 L 15.089844 254.035156 L 13.011719 254.035156 L 13.011719 253.589844 Z M 15.089844 253.589844 Z M 15.089844 253.589844 "/>
<path style=" stroke:none;fill-rule:nonzero;fill:rgb(0%,0%,0%);fill-opacity:1;" d="M 17.925781 250.210938 L 17.925781 255.105469 L 17.933594 255.121094 L 18.910156 255.121094 L 18.910156 255.558594 L 16.328125 255.558594 L 16.328125 255.121094 L 17.304688 255.121094 L 17.320312 255.105469 L 17.320312 250.996094 C 16.988281 251.105469 16.640625 251.179688 16.289062 251.171875 L 16.289062 250.726562 C 16.8125 250.734375 17.386719 250.589844 17.78125 250.210938 Z M 17.925781 250.210938 Z M 17.925781 250.210938 "/>
<path style=" stroke:none;fill-rule:nonzero;fill:rgb(0%,0%,0%);fill-opacity:1;" d="M 20.957031 254.925781 L 20.957031 255.558594 L 20.3125 255.558594 L 20.3125 254.925781 Z M 20.957031 254.925781 Z M 20.957031 254.925781 "/>
<path style=" stroke:none;fill-rule:nonzero;fill:rgb(0%,0%,0%);fill-opacity:1;" d="M 23.847656 250.210938 C 24.601562 250.265625 25.101562 250.957031 25.234375 251.652344 C 25.304688 251.972656 25.324219 252.273438 25.355469 252.589844 L 25.355469 253.398438 C 25.316406 254.226562 25.117188 255.3125 24.21875 255.644531 C 23.441406 255.957031 22.527344 255.472656 22.296875 254.679688 C 22.125 254.257812 22.109375 253.828125 22.066406 253.398438 L 22.066406 252.589844 C 22.109375 251.765625 22.28125 250.667969 23.171875 250.304688 L 23.210938 250.289062 L 23.242188 250.28125 L 23.28125 250.265625 L 23.402344 250.234375 L 23.472656 250.21875 L 23.558594 250.21875 L 23.578125 250.210938 Z M 23.847656 250.210938 Z M 23.601562 250.695312 C 22.933594 250.773438 22.734375 251.574219 22.6875 252.113281 L 22.6875 252.328125 L 22.671875 252.34375 L 22.671875 253.449219 C 22.71875 254.019531 22.757812 254.757812 23.28125 255.136719 C 23.765625 255.472656 24.410156 255.097656 24.542969 254.582031 C 24.6875 254.203125 24.71875 253.828125 24.75 253.449219 L 24.75 252.34375 C 24.703125 251.765625 24.625 250.957031 23.957031 250.726562 L 23.902344 250.710938 L 23.886719 250.695312 L 23.8125 250.695312 L 23.796875 250.679688 L 23.617188 250.679688 Z M 23.601562 250.695312 Z M 23.601562 250.695312 "/>
<path style=" stroke:none;fill-rule:nonzero;fill:rgb(0%,0%,0%);fill-opacity:1;" d="M 46.429688 253.589844 L 46.429688 254.035156 L 44.351562 254.035156 L 44.351562 253.589844 Z M 46.429688 253.589844 Z M 46.429688 253.589844 "/>
<path style=" stroke:none;fill-rule:nonzero;fill:rgb(0%,0%,0%);fill-opacity:1;" d="M 49.015625 250.210938 C 49.769531 250.265625 50.269531 250.957031 50.40625 251.652344 C 50.476562 251.972656 50.492188 252.273438 50.523438 252.589844 L 50.523438 253.398438 C 50.484375 254.226562 50.289062 255.3125 49.390625 255.644531 C 48.613281 255.957031 47.699219 255.472656 47.46875 254.679688 C 47.296875 254.257812 47.277344 253.828125 47.238281 253.398438 L 47.238281 252.589844 C 47.277344 251.765625 47.453125 250.667969 48.34375 250.304688 L 48.382812 250.289062 L 48.414062 250.28125 L 48.453125 250.265625 L 48.574219 250.234375 L 48.644531 250.21875 L 48.730469 250.21875 L 48.746094 250.210938 Z M 49.015625 250.210938 Z M 48.769531 250.695312 C 48.105469 250.773438 47.90625 251.574219 47.859375 252.113281 L 47.859375 252.328125 L 47.84375 252.34375 L 47.84375 253.449219 C 47.890625 254.019531 47.929688 254.757812 48.453125 255.136719 C 48.9375 255.472656 49.582031 255.097656 49.714844 254.582031 C 49.859375 254.203125 49.890625 253.828125 49.921875 253.449219 L 49.921875 252.34375 C 49.875 251.765625 49.796875 250.957031 49.128906 250.726562 L 49.074219 250.710938 L 49.058594 250.695312 L 48.984375 250.695312 L 48.96875 250.679688 L 48.785156 250.679688 Z M 48.769531 250.695312 Z M 48.769531 250.695312 "/>
<path style=" stroke:none;fill-rule:nonzero;fill:rgb(0%,0%,0%);fill-opacity:1;" d="M 52.296875 254.925781 L 52.296875 255.558594 L 51.652344 255.558594 L 51.652344 254.925781 Z M 52.296875 254.925781 Z M 52.296875 254.925781 "/>
<path style=" stroke:none;fill-rule:nonzero;fill:rgb(0%,0%,0%);fill-opacity:1;" d="M 55.199219 250.210938 C 56.042969 250.242188 56.835938 251.144531 56.5 251.988281 C 56.359375 252.375 55.960938 252.613281 55.636719 252.78125 C 56.445312 253.019531 56.9375 253.964844 56.574219 254.742188 C 56.191406 255.75 54.746094 256.066406 53.953125 255.335938 C 53.230469 254.765625 53.207031 253.527344 54.007812 253.019531 C 54.128906 252.890625 54.351562 252.851562 54.453125 252.757812 C 53.761719 252.558594 53.296875 251.757812 53.621094 251.082031 C 53.882812 250.480469 54.558594 250.144531 55.199219 250.210938 Z M 55.199219 250.210938 Z M 54.898438 250.660156 C 54.3125 250.679688 53.898438 251.34375 54.097656 251.867188 C 54.328125 252.773438 55.84375 252.742188 56.019531 251.8125 C 56.175781 251.296875 55.765625 250.679688 55.199219 250.660156 L 55.183594 250.652344 L 54.914062 250.652344 Z M 54.898438 250.660156 Z M 54.914062 253.019531 C 54.222656 253.066406 53.882812 253.890625 54.066406 254.480469 C 54.183594 255.3125 55.375 255.558594 55.84375 254.890625 C 56.296875 254.28125 56.074219 253.1875 55.253906 253.019531 L 55.183594 253.019531 L 55.167969 253.003906 L 54.921875 253.003906 Z M 54.914062 253.019531 Z M 54.914062 253.019531 "/>
<path style=" stroke:none;fill-rule:nonzero;fill:rgb(0%,0%,0%);fill-opacity:1;" d="M 77.769531 253.589844 L 77.769531 254.035156 L 75.6875 254.035156 L 75.6875 253.589844 Z M 77.769531 253.589844 Z M 77.769531 253.589844 "/>
<path style=" stroke:none;fill-rule:nonzero;fill:rgb(0%,0%,0%);fill-opacity:1;" d="M 80.355469 250.210938 C 81.109375 250.265625 81.609375 250.957031 81.746094 251.652344 C 81.816406 251.972656 81.832031 252.273438 81.863281 252.589844 L 81.863281 253.398438 C 81.824219 254.226562 81.625 255.3125 80.726562 255.644531 C 79.949219 255.957031 79.039062 255.472656 78.808594 254.679688 C 78.632812 254.257812 78.617188 253.828125 78.578125 253.398438 L 78.578125 252.589844 C 78.617188 251.765625 78.792969 250.667969 79.679688 250.304688 L 79.71875 250.289062 L 79.753906 250.28125 L 79.792969 250.265625 L 79.910156 250.234375 L 79.980469 250.21875 L 80.070312 250.21875 L 80.085938 250.210938 Z M 80.355469 250.210938 Z M 80.109375 250.695312 C 79.441406 250.773438 79.246094 251.574219 79.195312 252.113281 L 79.195312 252.328125 L 79.179688 252.34375 L 79.179688 253.449219 C 79.226562 254.019531 79.269531 254.757812 79.792969 255.136719 C 80.277344 255.472656 80.917969 255.097656 81.054688 254.582031 C 81.195312 254.203125 81.230469 253.828125 81.261719 253.449219 L 81.261719 252.34375 C 81.210938 251.765625 81.132812 250.957031 80.464844 250.726562 L 80.410156 250.710938 L 80.394531 250.695312 L 80.324219 250.695312 L 80.308594 250.679688 L 80.125 250.679688 Z M 80.109375 250.695312 Z M 80.109375 250.695312 "/>
<path style=" stroke:none;fill-rule:nonzero;fill:rgb(0%,0%,0%);fill-opacity:1;" d="M 83.632812 254.925781 L 83.632812 255.558594 L 82.992188 255.558594 L 82.992188 254.925781 Z M 83.632812 254.925781 Z M 83.632812 254.925781 "/>
<path style=" stroke:none;fill-rule:nonzero;fill:rgb(0%,0%,0%);fill-opacity:1;" d="M 87.039062 250.210938 C 87.246094 250.242188 87.484375 250.265625 87.679688 250.359375 L 87.679688 250.820312 C 87.132812 250.582031 86.417969 250.550781 85.992188 251.035156 C 85.609375 251.441406 85.433594 252.042969 85.417969 252.574219 C 85.878906 251.964844 86.917969 251.621094 87.484375 252.257812 C 88.046875 252.90625 88.140625 253.84375 87.886719 254.636719 C 87.609375 255.273438 86.96875 255.851562 86.253906 255.71875 C 85.285156 255.636719 84.847656 254.558594 84.800781 253.734375 C 84.617188 252.566406 84.894531 251.097656 86.007812 250.433594 L 86.023438 250.425781 L 86.1875 250.335938 L 86.238281 250.320312 L 86.261719 250.304688 L 86.394531 250.265625 L 86.507812 250.234375 L 86.578125 250.21875 L 86.664062 250.21875 L 86.679688 250.210938 Z M 87.039062 250.210938 Z M 86.261719 252.417969 C 85.570312 252.535156 85.347656 253.367188 85.433594 253.933594 C 85.476562 254.464844 85.679688 255.171875 86.292969 255.28125 C 86.941406 255.367188 87.363281 254.671875 87.378906 254.105469 C 87.410156 253.535156 87.378906 252.882812 86.878906 252.511719 L 86.769531 252.457031 L 86.679688 252.433594 L 86.609375 252.417969 L 86.59375 252.398438 L 86.277344 252.398438 Z M 86.261719 252.417969 Z M 86.261719 252.417969 "/>
<path style=" stroke:none;fill-rule:nonzero;fill:rgb(0%,0%,0%);fill-opacity:1;" d="M 109.105469 253.589844 L 109.105469 254.035156 L 107.027344 254.035156 L 107.027344 253.589844 Z M 109.105469 253.589844 Z M 109.105469 253.589844 "/>
<path style=" stroke:none;fill-rule:nonzero;fill:rgb(0%,0%,0%);fill-opacity:1;" d="M 111.695312 250.210938 C 112.449219 250.265625 112.949219 250.957031 113.082031 251.652344 C 113.152344 251.972656 113.171875 252.273438 113.203125 252.589844 L 113.203125 253.398438 C 113.160156 254.226562 112.964844 255.3125 112.066406 255.644531 C 111.289062 255.957031 110.375 255.472656 110.144531 254.679688 C 109.972656 254.257812 109.957031 253.828125 109.914062 253.398438 L 109.914062 252.589844 C 109.957031 251.765625 110.128906 250.667969 111.019531 250.304688 L 111.058594 250.289062 L 111.089844 250.28125 L 111.128906 250.265625 L 111.25 250.234375 L 111.320312 250.21875 L 111.40625 250.21875 L 111.421875 250.210938 Z M 111.695312 250.210938 Z M 111.449219 250.695312 C 110.78125 250.773438 110.582031 251.574219 110.535156 252.113281 L 110.535156 252.328125 L 110.519531 252.34375 L 110.519531 253.449219 C 110.566406 254.019531 110.605469 254.757812 111.128906 255.136719 C 111.613281 255.472656 112.257812 255.097656 112.390625 254.582031 C 112.535156 254.203125 112.566406 253.828125 112.597656 253.449219 L 112.597656 252.34375 C 112.550781 251.765625 112.472656 250.957031 111.804688 250.726562 L 111.75 250.710938 L 111.734375 250.695312 L 111.660156 250.695312 L 111.644531 250.679688 L 111.464844 250.679688 Z M 111.449219 250.695312 Z M 111.449219 250.695312 "/>
<path style=" stroke:none;fill-rule:nonzero;fill:rgb(0%,0%,0%);fill-opacity:1;" d="M 114.972656 254.925781 L 114.972656 255.558594 L 114.328125 255.558594 L 114.328125 254.925781 Z M 114.972656 254.925781 Z M 114.972656 254.925781 "/>
<path style=" stroke:none;fill-rule:nonzero;fill:rgb(0%,0%,0%);fill-opacity:1;" d="M 118.679688 250.375 L 118.679688 253.71875 L 118.695312 253.734375 L 119.480469 253.734375 L 119.480469 254.210938 L 118.695312 254.210938 L 118.679688 254.21875 L 118.679688 255.558594 L 118.074219 255.558594 L 118.074219 254.21875 L 118.058594 254.210938 L 115.964844 254.210938 L 115.964844 253.71875 C 116.628906 252.605469 117.296875 251.488281 117.964844 250.375 Z M 118.679688 250.375 Z M 118.089844 250.679688 C 117.933594 251.503906 117.425781 252.210938 117.042969 252.933594 C 116.890625 253.195312 116.695312 253.480469 116.582031 253.734375 L 118.105469 253.734375 L 118.113281 253.71875 L 118.113281 250.679688 L 118.105469 250.660156 Z M 118.089844 250.679688 Z M 118.089844 250.679688 "/>
<path style=" stroke:none;fill-rule:nonzero;fill:rgb(0%,0%,0%);fill-opacity:1;" d="M 140.445312 253.589844 L 140.445312 254.035156 L 138.363281 254.035156 L 138.363281 253.589844 Z M 140.445312 253.589844 Z M 140.445312 253.589844 "/>
<path style=" stroke:none;fill-rule:nonzero;fill:rgb(0%,0%,0%);fill-opacity:1;" d="M 143.03125 250.210938 C 143.785156 250.265625 144.285156 250.957031 144.421875 251.652344 C 144.492188 251.972656 144.507812 252.273438 144.539062 252.589844 L 144.539062 253.398438 C 144.5 254.226562 144.300781 255.3125 143.40625 255.644531 C 142.628906 255.957031 141.714844 255.472656 141.484375 254.679688 C 141.308594 254.257812 141.292969 253.828125 141.253906 253.398438 L 141.253906 252.589844 C 141.292969 251.765625 141.46875 250.667969 142.355469 250.304688 L 142.398438 250.289062 L 142.429688 250.28125 L 142.46875 250.265625 L 142.585938 250.234375 L 142.660156 250.21875 L 142.746094 250.21875 L 142.761719 250.210938 Z M 143.03125 250.210938 Z M 142.785156 250.695312 C 142.117188 250.773438 141.921875 251.574219 141.871094 252.113281 L 141.871094 252.328125 L 141.855469 252.34375 L 141.855469 253.449219 C 141.90625 254.019531 141.945312 254.757812 142.46875 255.136719 C 142.953125 255.472656 143.59375 255.097656 143.730469 254.582031 C 143.875 254.203125 143.90625 253.828125 143.9375 253.449219 L 143.9375 252.34375 C 143.890625 251.765625 143.808594 250.957031 143.144531 250.726562 L 143.085938 250.710938 L 143.070312 250.695312 L 143 250.695312 L 142.984375 250.679688 L 142.800781 250.679688 Z M 142.785156 250.695312 Z M 142.785156 250.695312 "/>
<path style=" stroke:none;fill-rule:nonzero;fill:rgb(0%,0%,0%);fill-opacity:1;" d="M 146.308594 254.925781 L 146.308594 255.558594 L 145.667969 255.558594 L 145.667969 254.925781 Z M 146.308594 254.925781 Z M 146.308594 254.925781 "/>
<path style=" stroke:none;fill-rule:nonzero;fill:rgb(0%,0%,0%);fill-opacity:1;" d="M 149.113281 250.210938 C 150.03125 250.234375 150.761719 251.179688 150.621094 252.066406 C 150.523438 252.957031 149.691406 253.464844 149.097656 254.019531 L 148.839844 254.28125 L 148.808594 254.296875 L 148.492188 254.605469 L 148.46875 254.621094 L 148.152344 254.941406 L 148.121094 254.957031 L 148.046875 255.027344 L 148.0625 255.035156 L 150.636719 255.035156 L 150.636719 255.558594 L 147.492188 255.558594 L 147.492188 255.082031 L 148.769531 253.804688 C 149.382812 253.273438 150.097656 252.582031 149.984375 251.710938 C 149.921875 251.203125 149.492188 250.734375 148.96875 250.695312 C 148.4375 250.613281 147.96875 251.035156 147.851562 251.542969 L 147.832031 251.566406 L 147.816406 251.621094 L 147.792969 251.710938 L 147.746094 251.882812 L 147.738281 251.925781 C 147.628906 251.789062 147.507812 251.644531 147.421875 251.496094 C 147.578125 250.84375 148.105469 250.234375 148.792969 250.210938 Z M 149.113281 250.210938 Z M 149.113281 250.210938 "/>
<path style=" stroke:none;fill-rule:nonzero;fill:rgb(0%,0%,0%);fill-opacity:1;" d="M 173.046875 250.210938 C 173.800781 250.265625 174.300781 250.957031 174.4375 251.652344 C 174.507812 251.972656 174.523438 252.273438 174.554688 252.589844 L 174.554688 253.398438 C 174.515625 254.226562 174.320312 255.3125 173.421875 255.644531 C 172.644531 255.957031 171.730469 255.472656 171.5 254.679688 C 171.328125 254.257812 171.308594 253.828125 171.269531 253.398438 L 171.269531 252.589844 C 171.308594 251.765625 171.484375 250.667969 172.375 250.304688 L 172.414062 250.289062 L 172.445312 250.28125 L 172.484375 250.265625 L 172.605469 250.234375 L 172.675781 250.21875 L 172.761719 250.21875 L 172.777344 250.210938 Z M 173.046875 250.210938 Z M 172.800781 250.695312 C 172.136719 250.773438 171.9375 251.574219 171.890625 252.113281 L 171.890625 252.328125 L 171.875 252.34375 L 171.875 253.449219 C 171.921875 254.019531 171.960938 254.757812 172.484375 255.136719 C 172.96875 255.472656 173.613281 255.097656 173.746094 254.582031 C 173.890625 254.203125 173.921875 253.828125 173.953125 253.449219 L 173.953125 252.34375 C 173.90625 251.765625 173.828125 250.957031 173.160156 250.726562 L 173.105469 250.710938 L 173.089844 250.695312 L 173.015625 250.695312 L 173 250.679688 L 172.820312 250.679688 Z M 172.800781 250.695312 Z M 172.800781 250.695312 "/>
<path style=" stroke:none;fill-rule:nonzero;fill:rgb(0%,0%,0%);fill-opacity:1;" d="M 176.328125 254.925781 L 176.328125 255.558594 L 175.683594 255.558594 L 175.683594 254.925781 Z M 176.328125 254.925781 Z M 176.328125 254.925781 "/>
<path style=" stroke:none;fill-rule:nonzero;fill:rgb(0%,0%,0%);fill-opacity:1;" d="M 179.214844 250.210938 C 179.96875 250.265625 180.46875 250.957031 180.605469 251.652344 C 180.675781 251.972656 180.691406 252.273438 180.722656 252.589844 L 180.722656 253.398438 C 180.683594 254.226562 180.484375 255.3125 179.589844 255.644531 C 178.8125 255.957031 177.898438 255.472656 177.667969 254.679688 C 177.492188 254.257812 177.476562 253.828125 177.4375 253.398438 L 177.4375 252.589844 C 177.476562 251.765625 177.652344 250.667969 178.539062 250.304688 L 178.582031 250.289062 L 178.613281 250.28125 L 178.652344 250.265625 L 178.769531 250.234375 L 178.84375 250.21875 L 178.929688 250.21875 L 178.945312 250.210938 Z M 179.214844 250.210938 Z M 178.96875 250.695312 C 178.304688 250.773438 178.105469 251.574219 178.058594 252.113281 L 178.058594 252.328125 L 178.039062 252.34375 L 178.039062 253.449219 C 178.089844 254.019531 178.128906 254.757812 178.652344 255.136719 C 179.136719 255.472656 179.777344 255.097656 179.914062 254.582031 C 180.058594 254.203125 180.089844 253.828125 180.121094 253.449219 L 180.121094 252.34375 C 180.074219 251.765625 179.992188 250.957031 179.328125 250.726562 L 179.269531 250.710938 L 179.253906 250.695312 L 179.183594 250.695312 L 179.167969 250.679688 L 178.984375 250.679688 Z M 178.96875 250.695312 Z M 178.96875 250.695312 "/>
<path style=" stroke:none;fill-rule:nonzero;fill:rgb(0%,0%,0%);fill-opacity:1;" d="M 204.386719 250.210938 C 205.140625 250.265625 205.640625 250.957031 205.777344 251.652344 C 205.847656 251.972656 205.863281 252.273438 205.894531 252.589844 L 205.894531 253.398438 C 205.855469 254.226562 205.65625 255.3125 204.761719 255.644531 C 203.980469 255.957031 203.070312 255.472656 202.839844 254.679688 C 202.664062 254.257812 202.648438 253.828125 202.609375 253.398438 L 202.609375 252.589844 C 202.648438 251.765625 202.824219 250.667969 203.710938 250.304688 L 203.75 250.289062 L 203.785156 250.28125 L 203.824219 250.265625 L 203.941406 250.234375 L 204.015625 250.21875 L 204.101562 250.21875 L 204.117188 250.210938 Z M 204.386719 250.210938 Z M 204.140625 250.695312 C 203.472656 250.773438 203.277344 251.574219 203.226562 252.113281 L 203.226562 252.328125 L 203.210938 252.34375 L 203.210938 253.449219 C 203.257812 254.019531 203.300781 254.757812 203.824219 255.136719 C 204.308594 255.472656 204.949219 255.097656 205.085938 254.582031 C 205.226562 254.203125 205.261719 253.828125 205.292969 253.449219 L 205.292969 252.34375 C 205.242188 251.765625 205.164062 250.957031 204.496094 250.726562 L 204.441406 250.710938 L 204.425781 250.695312 L 204.355469 250.695312 L 204.339844 250.679688 L 204.15625 250.679688 Z M 204.140625 250.695312 Z M 204.140625 250.695312 "/>
<path style=" stroke:none;fill-rule:nonzero;fill:rgb(0%,0%,0%);fill-opacity:1;" d="M 207.664062 254.925781 L 207.664062 255.558594 L 207.023438 255.558594 L 207.023438 254.925781 Z M 207.664062 254.925781 Z M 207.664062 254.925781 "/>
<path style=" stroke:none;fill-rule:nonzero;fill:rgb(0%,0%,0%);fill-opacity:1;" d="M 210.464844 250.210938 C 211.386719 250.234375 212.117188 251.179688 211.972656 252.066406 C 211.878906 252.957031 211.046875 253.464844 210.449219 254.019531 L 210.195312 254.28125 L 210.164062 254.296875 L 209.847656 254.605469 L 209.824219 254.621094 L 209.507812 254.941406 L 209.472656 254.957031 L 209.402344 255.027344 L 209.417969 255.035156 L 211.992188 255.035156 L 211.992188 255.558594 L 208.847656 255.558594 L 208.847656 255.082031 L 210.125 253.804688 C 210.738281 253.273438 211.449219 252.582031 211.339844 251.710938 C 211.277344 251.203125 210.847656 250.734375 210.324219 250.695312 C 209.792969 250.613281 209.324219 251.035156 209.203125 251.542969 L 209.1875 251.566406 L 209.171875 251.621094 L 209.148438 251.710938 L 209.101562 251.882812 L 209.09375 251.925781 C 208.980469 251.789062 208.863281 251.644531 208.777344 251.496094 C 208.933594 250.84375 209.457031 250.234375 210.148438 250.210938 Z M 210.464844 250.210938 Z M 210.464844 250.210938 "/>
<path style=" stroke:none;fill-rule:nonzero;fill:rgb(0%,0%,0%);fill-opacity:1;" d="M 235.726562 250.210938 C 236.480469 250.265625 236.980469 250.957031 237.113281 251.652344 C 237.183594 251.972656 237.203125 252.273438 237.234375 252.589844 L 237.234375 253.398438 C 237.191406 254.226562 236.996094 255.3125 236.097656 255.644531 C 235.320312 255.957031 234.40625 255.472656 234.175781 254.679688 C 234.003906 254.257812 233.988281 253.828125 233.945312 253.398438 L 233.945312 252.589844 C 233.988281 251.765625 234.160156 250.667969 235.050781 250.304688 L 235.089844 250.289062 L 235.121094 250.28125 L 235.160156 250.265625 L 235.28125 250.234375 L 235.351562 250.21875 L 235.4375 250.21875 L 235.453125 250.210938 Z M 235.726562 250.210938 Z M 235.480469 250.695312 C 234.8125 250.773438 234.613281 251.574219 234.566406 252.113281 L 234.566406 252.328125 L 234.550781 252.34375 L 234.550781 253.449219 C 234.597656 254.019531 234.636719 254.757812 235.160156 255.136719 C 235.644531 255.472656 236.289062 255.097656 236.421875 254.582031 C 236.566406 254.203125 236.597656 253.828125 236.628906 253.449219 L 236.628906 252.34375 C 236.582031 251.765625 236.503906 250.957031 235.835938 250.726562 L 235.78125 250.710938 L 235.765625 250.695312 L 235.691406 250.695312 L 235.675781 250.679688 L 235.496094 250.679688 Z M 235.480469 250.695312 Z M 235.480469 250.695312 "/>
<path style=" stroke:none;fill-rule:nonzero;fill:rgb(0%,0%,0%);fill-opacity:1;" d="M 239.003906 254.925781 L 239.003906 255.558594 L 238.359375 255.558594 L 238.359375 254.925781 Z M 239.003906 254.925781 Z M 239.003906 254.925781 "/>
<path style=" stroke:none;fill-rule:nonzero;fill:rgb(0%,0%,0%);fill-opacity:1;" d="M 242.710938 250.375 L 242.710938 253.71875 L 242.726562 253.734375 L 243.511719 253.734375 L 243.511719 254.210938 L 242.726562 254.210938 L 242.710938 254.21875 L 242.710938 255.558594 L 242.105469 255.558594 L 242.105469 254.21875 L 242.089844 254.210938 L 239.996094 254.210938 L 239.996094 253.71875 C 240.660156 252.605469 241.328125 251.488281 241.996094 250.375 Z M 242.710938 250.375 Z M 242.121094 250.679688 C 241.964844 251.503906 241.457031 252.210938 241.074219 252.933594 C 240.921875 253.195312 240.726562 253.480469 240.613281 253.734375 L 242.136719 253.734375 L 242.144531 253.71875 L 242.144531 250.679688 L 242.136719 250.660156 Z M 242.121094 250.679688 Z M 242.121094 250.679688 "/>
<path style=" stroke:none;fill-rule:nonzero;fill:rgb(0%,0%,0%);fill-opacity:1;" d="M 267.0625 250.210938 C 267.816406 250.265625 268.316406 250.957031 268.453125 251.652344 C 268.523438 251.972656 268.539062 252.273438 268.570312 252.589844 L 268.570312 253.398438 C 268.53125 254.226562 268.332031 255.3125 267.4375 255.644531 C 266.660156 255.957031 265.746094 255.472656 265.515625 254.679688 C 265.339844 254.257812 265.324219 253.828125 265.285156 253.398438 L 265.285156 252.589844 C 265.324219 251.765625 265.5 250.667969 266.386719 250.304688 L 266.429688 250.289062 L 266.460938 250.28125 L 266.5 250.265625 L 266.617188 250.234375 L 266.691406 250.21875 L 266.777344 250.21875 L 266.792969 250.210938 Z M 267.0625 250.210938 Z M 266.816406 250.695312 C 266.148438 250.773438 265.953125 251.574219 265.90625 252.113281 L 265.90625 252.328125 L 265.886719 252.34375 L 265.886719 253.449219 C 265.9375 254.019531 265.976562 254.757812 266.5 255.136719 C 266.984375 255.472656 267.625 255.097656 267.761719 254.582031 C 267.90625 254.203125 267.9375 253.828125 267.96875 253.449219 L 267.96875 252.34375 C 267.921875 251.765625 267.839844 250.957031 267.175781 250.726562 L 267.117188 250.710938 L 267.101562 250.695312 L 267.03125 250.695312 L 267.015625 250.679688 L 266.832031 250.679688 Z M 266.816406 250.695312 Z M 266.816406 250.695312 "/>
<path style=" stroke:none;fill-rule:nonzero;fill:rgb(0%,0%,0%);fill-opacity:1;" d="M 270.339844 254.925781 L 270.339844 255.558594 L 269.699219 255.558594 L 269.699219 254.925781 Z M 270.339844 254.925781 Z M 270.339844 254.925781 "/>
<path style=" stroke:none;fill-rule:nonzero;fill:rgb(0%,0%,0%);fill-opacity:1;" d="M 273.746094 250.210938 C 273.953125 250.242188 274.191406 250.265625 274.390625 250.359375 L 274.390625 250.820312 C 273.839844 250.582031 273.128906 250.550781 272.699219 251.035156 C 272.316406 251.441406 272.144531 252.042969 272.125 252.574219 C 272.585938 251.964844 273.628906 251.621094 274.191406 252.257812 C 274.753906 252.90625 274.847656 253.84375 274.59375 254.636719 C 274.316406 255.273438 273.675781 255.851562 272.960938 255.71875 C 271.992188 255.636719 271.554688 254.558594 271.507812 253.734375 C 271.324219 252.566406 271.601562 251.097656 272.714844 250.433594 L 272.730469 250.425781 L 272.898438 250.335938 L 272.945312 250.320312 L 272.96875 250.304688 L 273.101562 250.265625 L 273.214844 250.234375 L 273.285156 250.21875 L 273.375 250.21875 L 273.390625 250.210938 Z M 273.746094 250.210938 Z M 272.96875 252.417969 C 272.277344 252.535156 272.054688 253.367188 272.144531 253.933594 C 272.183594 254.464844 272.390625 255.171875 273 255.28125 C 273.652344 255.367188 274.070312 254.671875 274.085938 254.105469 C 274.117188 253.535156 274.085938 252.882812 273.585938 252.511719 L 273.476562 252.457031 L 273.390625 252.433594 L 273.316406 252.417969 L 273.300781 252.398438 L 272.984375 252.398438 Z M 272.96875 252.417969 Z M 272.96875 252.417969 "/>
<path style=" stroke:none;fill-rule:nonzero;fill:rgb(0%,0%,0%);fill-opacity:1;" d="M 298.402344 250.210938 C 299.15625 250.265625 299.65625 250.957031 299.789062 251.652344 C 299.863281 251.972656 299.878906 252.273438 299.910156 252.589844 L 299.910156 253.398438 C 299.871094 254.226562 299.671875 255.3125 298.773438 255.644531 C 297.996094 255.957031 297.082031 255.472656 296.855469 254.679688 C 296.679688 254.257812 296.664062 253.828125 296.625 253.398438 L 296.625 252.589844 C 296.664062 251.765625 296.835938 250.667969 297.726562 250.304688 L 297.765625 250.289062 L 297.796875 250.28125 L 297.835938 250.265625 L 297.957031 250.234375 L 298.027344 250.21875 L 298.117188 250.21875 L 298.132812 250.210938 Z M 298.402344 250.210938 Z M 298.15625 250.695312 C 297.488281 250.773438 297.289062 251.574219 297.242188 252.113281 L 297.242188 252.328125 L 297.226562 252.34375 L 297.226562 253.449219 C 297.273438 254.019531 297.3125 254.757812 297.835938 255.136719 C 298.320312 255.472656 298.964844 255.097656 299.101562 254.582031 C 299.242188 254.203125 299.273438 253.828125 299.304688 253.449219 L 299.304688 252.34375 C 299.257812 251.765625 299.179688 250.957031 298.511719 250.726562 L 298.457031 250.710938 L 298.441406 250.695312 L 298.371094 250.695312 L 298.355469 250.679688 L 298.171875 250.679688 Z M 298.15625 250.695312 Z M 298.15625 250.695312 "/>
<path style=" stroke:none;fill-rule:nonzero;fill:rgb(0%,0%,0%);fill-opacity:1;" d="M 301.679688 254.925781 L 301.679688 255.558594 L 301.035156 255.558594 L 301.035156 254.925781 Z M 301.679688 254.925781 Z M 301.679688 254.925781 "/>
<path style=" stroke:none;fill-rule:nonzero;fill:rgb(0%,0%,0%);fill-opacity:1;" d="M 304.585938 250.210938 C 305.425781 250.242188 306.21875 251.144531 305.886719 251.988281 C 305.742188 252.375 305.347656 252.613281 305.019531 252.78125 C 305.832031 253.019531 306.324219 253.964844 305.957031 254.742188 C 305.578125 255.75 304.132812 256.066406 303.339844 255.335938 C 302.617188 254.765625 302.59375 253.527344 303.394531 253.019531 C 303.511719 252.890625 303.734375 252.851562 303.839844 252.757812 C 303.148438 252.558594 302.679688 251.757812 303.003906 251.082031 C 303.265625 250.480469 303.941406 250.144531 304.585938 250.210938 Z M 304.585938 250.210938 Z M 304.28125 250.660156 C 303.695312 250.679688 303.28125 251.34375 303.480469 251.867188 C 303.710938 252.773438 305.226562 252.742188 305.402344 251.8125 C 305.558594 251.296875 305.148438 250.679688 304.585938 250.660156 L 304.570312 250.652344 L 304.296875 250.652344 Z M 304.28125 250.660156 Z M 304.296875 253.019531 C 303.609375 253.066406 303.265625 253.890625 303.449219 254.480469 C 303.566406 255.3125 304.757812 255.558594 305.226562 254.890625 C 305.679688 254.28125 305.457031 253.1875 304.640625 253.019531 L 304.570312 253.019531 L 304.550781 253.003906 L 304.304688 253.003906 Z M 304.296875 253.019531 Z M 304.296875 253.019531 "/>
<path style=" stroke:none;fill-rule:nonzero;fill:rgb(0%,0%,0%);fill-opacity:1;" d="M 329.984375 250.210938 L 329.984375 255.105469 L 329.992188 255.121094 L 330.96875 255.121094 L 330.96875 255.558594 L 328.390625 255.558594 L 328.390625 255.121094 L 329.367188 255.121094 L 329.382812 255.105469 L 329.382812 250.996094 C 329.050781 251.105469 328.699219 251.179688 328.351562 251.171875 L 328.351562 250.726562 C 328.875 250.734375 329.445312 250.589844 329.84375 250.210938 Z M 329.984375 250.210938 Z M 329.984375 250.210938 "/>
<path style=" stroke:none;fill-rule:nonzero;fill:rgb(0%,0%,0%);fill-opacity:1;" d="M 333.015625 254.925781 L 333.015625 255.558594 L 332.375 255.558594 L 332.375 254.925781 Z M 333.015625 254.925781 Z M 333.015625 254.925781 "/>
<path style=" stroke:none;fill-rule:nonzero;fill:rgb(0%,0%,0%);fill-opacity:1;" d="M 335.90625 250.210938 C 336.660156 250.265625 337.160156 250.957031 337.296875 251.652344 C 337.367188 251.972656 337.382812 252.273438 337.414062 252.589844 L 337.414062 253.398438 C 337.375 254.226562 337.175781 255.3125 336.28125 255.644531 C 335.5 255.957031 334.589844 255.472656 334.359375 254.679688 C 334.183594 254.257812 334.167969 253.828125 334.128906 253.398438 L 334.128906 252.589844 C 334.167969 251.765625 334.34375 250.667969 335.230469 250.304688 L 335.273438 250.289062 L 335.304688 250.28125 L 335.34375 250.265625 L 335.460938 250.234375 L 335.535156 250.21875 L 335.621094 250.21875 L 335.636719 250.210938 Z M 335.90625 250.210938 Z M 335.660156 250.695312 C 334.992188 250.773438 334.796875 251.574219 334.746094 252.113281 L 334.746094 252.328125 L 334.730469 252.34375 L 334.730469 253.449219 C 334.78125 254.019531 334.820312 254.757812 335.34375 255.136719 C 335.828125 255.472656 336.46875 255.097656 336.605469 254.582031 C 336.746094 254.203125 336.78125 253.828125 336.8125 253.449219 L 336.8125 252.34375 C 336.765625 251.765625 336.683594 250.957031 336.019531 250.726562 L 335.960938 250.710938 L 335.945312 250.695312 L 335.875 250.695312 L 335.859375 250.679688 L 335.675781 250.679688 Z M 335.660156 250.695312 Z M 335.660156 250.695312 "/>
<path style="fill:none;stroke-width:0.02;stroke-linecap:butt;stroke-linejoin:miter;stroke:rgb(0%,0%,0%);stroke-opacity:1;stroke-miterlimit:10;" d="M 1.751349 8.788333 L 1.751349 8.683327 " transform="matrix(28.346457,0,0,-28.346457,1,256.11811)"/>
<path style="fill:none;stroke-width:0.02;stroke-linecap:butt;stroke-linejoin:miter;stroke:rgb(0%,0%,0%);stroke-opacity:1;stroke-miterlimit:10;" d="M 2.856949 8.788333 L 2.856949 8.683327 " transform="matrix(28.346457,0,0,-28.346457,1,256.11811)"/>
<path style="fill:none;stroke-width:0.02;stroke-linecap:butt;stroke-linejoin:miter;stroke:rgb(0%,0%,0%);stroke-opacity:1;stroke-miterlimit:10;" d="M 3.962411 8.788333 L 3.962411 8.683327 " transform="matrix(28.346457,0,0,-28.346457,1,256.11811)"/>
<path style="fill:none;stroke-width:0.02;stroke-linecap:butt;stroke-linejoin:miter;stroke:rgb(0%,0%,0%);stroke-opacity:1;stroke-miterlimit:10;" d="M 5.068011 8.788333 L 5.068011 8.683327 " transform="matrix(28.346457,0,0,-28.346457,1,256.11811)"/>
<path style="fill:none;stroke-width:0.02;stroke-linecap:butt;stroke-linejoin:miter;stroke:rgb(0%,0%,0%);stroke-opacity:1;stroke-miterlimit:10;" d="M 6.173473 8.788333 L 6.173473 8.683327 " transform="matrix(28.346457,0,0,-28.346457,1,256.11811)"/>
<path style="fill:none;stroke-width:0.02;stroke-linecap:butt;stroke-linejoin:miter;stroke:rgb(0%,0%,0%);stroke-opacity:1;stroke-miterlimit:10;" d="M 7.279073 8.788333 L 7.279073 8.683327 " transform="matrix(28.346457,0,0,-28.346457,1,256.11811)"/>
<path style="fill:none;stroke-width:0.02;stroke-linecap:butt;stroke-linejoin:miter;stroke:rgb(0%,0%,0%);stroke-opacity:1;stroke-miterlimit:10;" d="M 8.384536 8.788333 L 8.384536 8.683327 " transform="matrix(28.346457,0,0,-28.346457,1,256.11811)"/>
<path style="fill:none;stroke-width:0.02;stroke-linecap:butt;stroke-linejoin:miter;stroke:rgb(0%,0%,0%);stroke-opacity:1;stroke-miterlimit:10;" d="M 9.490136 8.788333 L 9.490136 8.683327 " transform="matrix(28.346457,0,0,-28.346457,1,256.11811)"/>
<path style="fill:none;stroke-width:0.02;stroke-linecap:butt;stroke-linejoin:miter;stroke:rgb(0%,0%,0%);stroke-opacity:1;stroke-miterlimit:10;" d="M 10.595736 8.788333 L 10.595736 8.683327 " transform="matrix(28.346457,0,0,-28.346457,1,256.11811)"/>
<path style="fill:none;stroke-width:0.02;stroke-linecap:round;stroke-linejoin:miter;stroke:rgb(0%,0%,0%);stroke-opacity:1;stroke-miterlimit:10;" d="M 0.645749 8.788333 L 11.701198 8.788333 " transform="matrix(28.346457,0,0,-28.346457,1,256.11811)"/>
<path style="fill:none;stroke-width:0.05;stroke-linecap:butt;stroke-linejoin:miter;stroke:rgb(33%,47%,64%);stroke-opacity:1;stroke-miterlimit:10;" d="M 0.645749 2.781189 L 0.690259 2.799379 L 0.734632 2.818121 L 0.823378 2.856155 L 0.867751 2.874758 L 0.912261 2.89281 L 0.956634 2.90976 L 1.001007 2.925332 L 1.04538 2.93925 L 1.089753 2.951239 L 1.134125 2.960885 L 1.178636 2.967913 L 1.223009 2.972185 L 1.267382 2.973426 L 1.311755 2.971496 L 1.356127 2.96626 L 1.400638 2.957716 L 1.445011 2.945727 L 1.489384 2.930293 L 1.533757 2.911827 L 1.578129 2.890054 L 1.62264 2.865663 L 1.667013 2.838516 L 1.711386 2.809163 L 1.755758 2.77802 L 1.800131 2.745498 L 1.844642 2.712012 L 1.889015 2.678112 L 1.933388 2.64435 L 1.97776 2.611277 L 2.022133 2.579582 L 2.066644 2.549817 L 2.111017 2.522531 L 2.15539 2.498416 L 2.199762 2.477745 L 2.244135 2.461347 L 2.288508 2.449495 L 2.333019 2.442743 L 2.377391 2.441227 L 2.421764 2.445499 L 2.466137 2.455421 L 2.51051 2.471406 L 2.555021 2.493317 L 2.599393 2.521016 L 2.643766 2.554502 L 2.688139 2.593225 L 2.732512 2.636909 L 2.777023 2.68514 L 2.821395 2.73723 L 2.865768 2.792489 L 2.910141 2.850229 L 2.954514 2.909485 L 2.999025 2.969291 L 3.043397 3.028961 L 3.08777 3.087252 L 3.132143 3.1432 L 3.176516 3.195703 L 3.221026 3.243934 L 3.265399 3.286654 L 3.309772 3.323034 L 3.354145 3.35211 L 3.398518 3.373057 L 3.442891 3.385046 L 3.487401 3.387526 L 3.531774 3.380085 L 3.576147 3.36217 L 3.62052 3.333645 L 3.664893 3.294371 L 3.709403 3.244486 L 3.753776 3.184265 L 3.798149 3.114261 L 3.842522 3.034886 L 3.886895 2.947105 L 3.931405 2.851745 L 3.975778 2.750183 L 4.020151 2.643523 L 4.064524 2.53328 L 4.108896 2.421108 L 4.153407 2.308522 L 4.19778 2.197452 L 4.242153 2.089827 L 4.286526 1.987301 L 4.330898 1.892217 L 4.375271 1.806089 L 4.419782 1.731124 L 4.464155 1.669112 L 4.508528 1.621846 L 4.5529 1.591115 L 4.597273 1.5783 L 4.641784 1.584914 L 4.686157 1.612199 L 4.73053 1.66112 L 4.774902 1.732502 L 4.819275 1.82676 L 4.863786 1.944582 L 4.908159 2.085693 L 4.952531 2.249956 L 4.996904 2.436955 L 5.041277 2.645866 L 5.085788 2.875585 L 5.130161 3.124734 L 5.174533 3.391936 L 5.218906 3.67526 L 5.263279 3.972641 L 5.30779 4.281735 L 5.352163 4.6002 L 5.396535 4.925279 L 5.440908 5.254354 L 5.485281 5.584532 L 5.529654 5.912781 L 5.574164 6.236207 L 5.618537 6.551915 L 5.66291 6.856737 L 5.707283 7.147917 L 5.751656 7.422697 L 5.796166 7.678324 L 5.840539 7.912452 L 5.884912 8.122603 L 5.929285 8.306847 L 5.973658 8.463254 L 6.018168 8.590309 L 6.062541 8.686772 L 6.106914 8.751678 L 6.151287 8.784199 L 6.19566 8.784199 L 6.24017 8.751678 L 6.284543 8.686772 L 6.328916 8.590309 L 6.373289 8.463254 L 6.417662 8.306847 L 6.462172 8.122603 L 6.506545 7.912452 L 6.550918 7.678324 L 6.595291 7.422697 L 6.639664 7.147917 L 6.684036 6.856737 L 6.728547 6.551915 L 6.77292 6.236207 L 6.817293 5.912781 L 6.861666 5.584532 L 6.906038 5.254354 L 6.950549 4.925279 L 6.994922 4.6002 L 7.039295 4.281735 L 7.083668 3.972641 L 7.12804 3.67526 L 7.172551 3.391936 L 7.216924 3.124734 L 7.261297 2.875585 L 7.305669 2.645866 L 7.350042 2.436955 L 7.394553 2.249956 L 7.438926 2.085693 L 7.483299 1.944582 L 7.527671 1.82676 L 7.572044 1.732502 L 7.616555 1.66112 L 7.660928 1.612199 L 7.705301 1.584914 L 7.749673 1.5783 L 7.794046 1.591115 L 7.838419 1.621846 L 7.88293 1.669112 L 7.927303 1.731124 L 7.971675 1.806089 L 8.016048 1.892217 L 8.060421 1.987301 L 8.104932 2.089827 L 8.149304 2.197452 L 8.193677 2.308522 L 8.23805 2.421108 L 8.282423 2.53328 L 8.326934 2.643523 L 8.371306 2.750183 L 8.415679 2.851745 L 8.460052 2.947105 L 8.504425 3.034886 L 8.548936 3.114261 L 8.593308 3.184265 L 8.637681 3.244486 L 8.682054 3.294371 L 8.726427 3.333645 L 8.7708 3.36217 L 8.81531 3.380085 L 8.859683 3.387526 L 8.904056 3.385046 L 8.948429 3.373057 L 8.992802 3.35211 L 9.037312 3.323034 L 9.081685 3.286654 L 9.126058 3.243934 L 9.170431 3.195703 L 9.214804 3.1432 L 9.259314 3.087252 L 9.303687 3.028961 L 9.34806 2.969291 L 9.392433 2.909485 L 9.436806 2.850229 L 9.481316 2.792489 L 9.525689 2.73723 L 9.570062 2.68514 L 9.614435 2.636909 L 9.658808 2.593225 L 9.703318 2.554502 L 9.747691 2.521016 L 9.792064 2.493317 L 9.836437 2.471406 L 9.880809 2.455421 L 9.925182 2.445499 L 9.969693 2.441227 L 10.014066 2.442743 L 10.058439 2.449495 L 10.102811 2.461347 L 10.147184 2.477745 L 10.191695 2.498416 L 10.236068 2.522531 L 10.280441 2.549817 L 10.324813 2.579582 L 10.369186 2.611277 L 10.413697 2.64435 L 10.45807 2.678112 L 10.502442 2.712012 L 10.546815 2.745498 L 10.591188 2.77802 L 10.635699 2.809163 L 10.680072 2.838516 L 10.724444 2.865663 L 10.768817 2.890054 L 10.81319 2.911827 L 10.857701 2.930293 L 10.902074 2.945727 L 10.946446 2.957716 L 10.990819 2.96626 L 11.035192 2.971496 L 11.079565 2.973426 L 11.124076 2.972185 L 11.168448 2.967913 L 11.212821 2.960885 L 11.257194 2.951239 L 11.301567 2.93925 L 11.346077 2.925332 L 11.39045 2.90976 L 11.434823 2.89281 L 11.479196 2.874758 L 11.523569 2.856155 L 11.568079 2.837138 L 11.612452 2.818121 L 11.656825 2.799379 L 11.701198 2.781189 " transform="matrix(28.346457,0,0,-28.346457,1,256.11811)"/>
<path style="fill:none;stroke-width:0.05;stroke-linecap:butt;stroke-linejoin:miter;stroke:rgb(90%,57%,26%);stroke-opacity:1;stroke-miterlimit:10;" d="M 0.645749 2.781189 L 0.690259 2.910174 L 0.734632 3.034473 L 0.779005 3.153673 L 0.823378 3.267499 L 0.867751 3.375399 L 0.912261 3.477099 L 0.956634 3.572459 L 1.001007 3.661067 L 1.04538 3.742784 L 1.089753 3.817336 L 1.134125 3.884584 L 1.178636 3.944391 L 1.223009 3.996757 L 1.267382 4.041543 L 1.311755 4.07875 L 1.356127 4.10824 L 1.400638 4.130151 L 1.445011 4.144482 L 1.489384 4.151373 L 1.533757 4.150684 L 1.578129 4.142829 L 1.62264 4.127808 L 1.667013 4.105897 L 1.711386 4.077096 L 1.755758 4.041819 L 1.800131 4.000064 L 1.844642 3.952384 L 1.889015 3.898778 L 1.933388 3.839798 L 1.97776 3.775582 L 2.022133 3.706542 L 2.066644 3.632817 L 2.111017 3.555095 L 2.15539 3.473516 L 2.199762 3.388628 L 2.244135 3.300572 L 2.288508 3.210035 L 2.333019 3.117155 L 2.377391 3.022622 L 2.421764 2.92671 L 2.466137 2.829834 L 2.51051 2.732544 L 2.555021 2.635117 L 2.599393 2.538241 L 2.643766 2.442054 L 2.688139 2.347245 L 2.732512 2.254227 L 2.777023 2.163277 L 2.821395 2.074807 L 2.865768 1.989506 L 2.910141 1.907513 L 2.954514 1.829378 L 2.999025 1.755515 L 3.043397 1.686338 L 3.08777 1.622121 L 3.132143 1.563141 L 3.176516 1.509949 L 3.221026 1.46282 L 3.265399 1.42203 L 3.309772 1.387855 L 3.354145 1.360707 L 3.398518 1.340588 L 3.442891 1.328048 L 3.487401 1.323087 L 3.531774 1.325843 L 3.576147 1.33673 L 3.62052 1.355747 L 3.664893 1.382894 L 3.709403 1.418585 L 3.753776 1.462544 L 3.798149 1.515048 L 3.842522 1.576095 L 3.886895 1.64541 L 3.931405 1.723269 L 3.975778 1.809397 L 4.020151 1.90393 L 4.064524 2.006456 L 4.108896 2.116837 L 4.153407 2.235211 L 4.19778 2.361025 L 4.242153 2.494144 L 4.286526 2.63429 L 4.330898 2.781189 L 4.375271 2.934565 L 4.419782 3.094004 L 4.464155 3.259231 L 4.508528 3.429694 L 4.5529 3.605118 L 4.597273 3.784952 L 4.641784 3.968783 L 4.686157 4.156196 L 4.73053 4.346641 L 4.774902 4.539428 L 4.819275 4.734421 L 4.863786 4.930653 L 4.908159 5.127988 L 4.952531 5.325461 L 4.996904 5.522796 L 5.041277 5.719167 L 5.085788 5.914297 L 5.130161 6.10736 L 5.174533 6.297805 L 5.218906 6.48508 L 5.263279 6.668773 L 5.30779 6.847918 L 5.352163 7.022377 L 5.396535 7.191325 L 5.440908 7.354347 L 5.485281 7.510892 L 5.529654 7.660271 L 5.574164 7.802347 L 5.618537 7.936292 L 5.66291 8.061969 L 5.707283 8.178689 L 5.751656 8.286176 L 5.796166 8.384017 L 5.840539 8.471936 L 5.884912 8.549657 L 5.929285 8.616768 L 5.973658 8.673129 L 6.018168 8.718329 L 6.062541 8.752504 L 6.106914 8.77538 L 6.151287 8.786817 L 6.19566 8.786817 L 6.24017 8.77538 L 6.284543 8.752504 L 6.328916 8.718191 L 6.373289 8.672578 L 6.417662 8.615803 L 6.462172 8.548003 L 6.506545 8.469455 L 6.550918 8.380434 L 6.595291 8.281215 L 6.639664 8.172212 L 6.684036 8.053563 L 6.728547 7.925957 L 6.77292 7.789531 L 6.817293 7.644975 L 6.861666 7.492564 L 6.906038 7.333125 L 6.950549 7.166934 L 6.994922 6.994679 L 7.039295 6.816912 L 7.083668 6.634184 L 7.12804 6.447184 L 7.172551 6.256602 L 7.216924 6.062849 L 7.261297 5.866892 L 7.305669 5.669144 L 7.350042 5.470431 L 7.394553 5.271166 L 7.438926 5.072316 L 7.483299 4.874291 L 7.527671 4.677783 L 7.572044 4.48348 L 7.616555 4.291933 L 7.660928 4.103692 L 7.705301 3.919311 L 7.749673 3.739477 L 7.794046 3.564604 L 7.838419 3.395243 L 7.88293 3.231808 L 7.927303 3.074711 L 7.971675 2.924367 L 8.016048 2.781189 L 8.060421 2.64559 L 8.104932 2.517571 L 8.149304 2.397681 L 8.193677 2.285922 L 8.23805 2.182569 L 8.282423 2.087898 L 8.326934 2.001771 L 8.371306 1.924187 L 8.415679 1.855423 L 8.460052 1.795341 L 8.504425 1.74394 L 8.548936 1.700945 L 8.593308 1.666219 L 8.637681 1.63976 L 8.682054 1.621294 L 8.726427 1.610684 L 8.7708 1.607376 L 8.81531 1.611235 L 8.859683 1.622121 L 8.904056 1.639347 L 8.948429 1.662636 L 8.992802 1.691712 L 9.037312 1.726163 L 9.081685 1.765437 L 9.126058 1.809259 L 9.170431 1.856939 L 9.214804 1.908202 L 9.259314 1.962635 L 9.303687 2.019685 L 9.34806 2.078941 L 9.392433 2.139988 L 9.436806 2.202275 L 9.481316 2.26539 L 9.525689 2.329055 L 9.570062 2.392582 L 9.614435 2.455834 L 9.658808 2.518397 L 9.703318 2.57972 L 9.747691 2.639665 L 9.792064 2.697956 L 9.836437 2.754042 L 9.880809 2.807785 L 9.925182 2.859048 L 9.969693 2.907555 L 10.014066 2.953031 L 10.058439 2.995336 L 10.102811 3.034473 L 10.147184 3.070164 L 10.191695 3.10241 L 10.236068 3.131073 L 10.280441 3.156291 L 10.324813 3.177789 L 10.369186 3.195841 L 10.413697 3.210448 L 10.45807 3.22161 L 10.502442 3.229327 L 10.546815 3.233875 L 10.591188 3.235391 L 10.635699 3.233737 L 10.680072 3.229327 L 10.724444 3.222299 L 10.768817 3.212791 L 10.81319 3.20094 L 10.857701 3.186884 L 10.902074 3.171036 L 10.946446 3.153535 L 10.990819 3.13438 L 11.035192 3.113985 L 11.079565 3.092488 L 11.124076 3.070164 L 11.168448 3.047151 L 11.212821 3.023724 L 11.257194 2.999884 L 11.301567 2.975906 L 11.346077 2.952066 L 11.39045 2.928502 L 11.434823 2.905213 L 11.479196 2.882613 L 11.523569 2.860564 L 11.568079 2.839342 L 11.612452 2.818947 L 11.656825 2.799517 L 11.701198 2.781189 " transform="matrix(28.346457,0,0,-28.346457,1,256.11811)"/>
<path style="fill:none;stroke-width:0.05;stroke-linecap:butt;stroke-linejoin:miter;stroke:rgb(82%,37%,36%);stroke-opacity:1;stroke-miterlimit:10;" d="M 0.645749 2.781189 L 0.690259 2.762724 L 0.734632 2.74288 L 0.779005 2.72152 L 0.823378 2.69892 L 0.867751 2.674805 L 0.912261 2.649449 L 0.956634 2.622715 L 1.001007 2.594741 L 1.04538 2.565664 L 1.089753 2.535485 L 1.134125 2.504204 L 1.178636 2.471957 L 1.223009 2.439022 L 1.267382 2.40526 L 1.311755 2.370809 L 1.356127 2.335945 L 1.400638 2.300805 L 1.445011 2.265252 L 1.489384 2.229836 L 1.533757 2.194283 L 1.578129 2.159005 L 1.62264 2.124141 L 1.667013 2.089827 L 1.711386 2.056203 L 1.755758 2.023406 L 1.800131 1.991711 L 1.844642 1.961257 L 1.889015 1.93218 L 1.933388 1.904619 L 1.97776 1.87885 L 2.022133 1.855148 L 2.066644 1.833375 L 2.111017 1.813944 L 2.15539 1.796857 L 2.199762 1.782387 L 2.244135 1.770674 L 2.288508 1.761854 L 2.333019 1.756204 L 2.377391 1.753586 L 2.421764 1.754275 L 2.466137 1.758547 L 2.51051 1.766264 L 2.555021 1.777564 L 2.599393 1.792722 L 2.643766 1.811739 L 2.688139 1.834615 L 2.732512 1.861487 L 2.777023 1.892492 L 2.821395 1.927495 L 2.865768 1.966631 L 2.910141 2.010039 L 2.954514 2.057581 L 2.999025 2.109258 L 3.043397 2.165068 L 3.08777 2.225151 L 3.132143 2.289367 L 3.176516 2.357718 L 3.221026 2.430065 L 3.265399 2.506408 L 3.309772 2.58661 L 3.354145 2.670808 L 3.398518 2.758727 L 3.442891 2.850229 L 3.487401 2.945314 L 3.531774 3.043843 L 3.576147 3.145818 L 3.62052 3.250825 L 3.664893 3.359001 L 3.709403 3.470071 L 3.753776 3.583759 L 3.798149 3.700203 L 3.842522 3.81899 L 3.886895 3.940119 L 3.931405 4.063316 L 3.975778 4.188304 L 4.020151 4.315084 L 4.064524 4.443379 L 4.108896 4.573052 L 4.153407 4.703966 L 4.19778 4.835706 L 4.242153 4.968136 L 4.286526 5.101254 L 4.330898 5.234648 L 4.375271 5.36818 L 4.419782 5.501712 L 4.464155 5.634969 L 4.508528 5.767811 L 4.5529 5.899965 L 4.597273 6.031155 L 4.641784 6.161379 L 4.686157 6.290363 L 4.73053 6.41797 L 4.774902 6.543785 L 4.819275 6.667808 L 4.863786 6.789902 L 4.908159 6.909792 L 4.952531 7.027201 L 4.996904 7.142129 L 5.041277 7.254301 L 5.085788 7.36358 L 5.130161 7.469964 L 5.174533 7.573041 L 5.218906 7.672674 L 5.263279 7.768861 L 5.30779 7.861465 L 5.352163 7.950348 L 5.396535 8.035235 L 5.440908 8.116126 L 5.485281 8.192883 L 5.529654 8.265368 L 5.574164 8.333443 L 5.618537 8.397108 L 5.66291 8.456226 L 5.707283 8.510796 L 5.751656 8.560544 L 5.796166 8.605605 L 5.840539 8.645844 L 5.884912 8.681122 L 5.929285 8.711439 L 5.973658 8.736795 L 6.018168 8.757052 L 6.062541 8.772348 L 6.106914 8.782546 L 6.151287 8.787644 L 6.19566 8.787644 L 6.24017 8.782546 L 6.284543 8.772348 L 6.328916 8.757052 L 6.373289 8.736795 L 6.417662 8.711439 L 6.462172 8.681122 L 6.506545 8.645844 L 6.550918 8.605605 L 6.595291 8.560544 L 6.639664 8.510796 L 6.684036 8.456226 L 6.728547 8.397108 L 6.77292 8.333443 L 6.817293 8.265368 L 6.861666 8.192883 L 6.906038 8.116126 L 6.950549 8.035235 L 6.994922 7.950348 L 7.039295 7.861465 L 7.083668 7.768861 L 7.12804 7.672674 L 7.172551 7.573041 L 7.216924 7.469964 L 7.261297 7.36358 L 7.305669 7.254301 L 7.350042 7.142129 L 7.394553 7.027201 L 7.438926 6.909792 L 7.483299 6.789902 L 7.527671 6.667808 L 7.572044 6.543785 L 7.616555 6.41797 L 7.660928 6.290363 L 7.705301 6.161379 L 7.749673 6.031155 L 7.794046 5.899965 L 7.838419 5.767811 L 7.88293 5.634969 L 7.927303 5.501712 L 8.016048 5.234648 L 8.060421 5.101254 L 8.104932 4.968136 L 8.149304 4.835706 L 8.193677 4.703966 L 8.23805 4.573052 L 8.282423 4.443379 L 8.326934 4.315084 L 8.371306 4.188304 L 8.415679 4.063316 L 8.460052 3.940119 L 8.504425 3.81899 L 8.548936 3.700203 L 8.593308 3.583759 L 8.637681 3.470071 L 8.682054 3.359001 L 8.726427 3.250825 L 8.7708 3.145818 L 8.81531 3.043843 L 8.859683 2.945314 L 8.904056 2.850229 L 8.948429 2.758727 L 8.992802 2.670808 L 9.037312 2.58661 L 9.081685 2.506408 L 9.126058 2.430065 L 9.170431 2.357718 L 9.214804 2.289367 L 9.259314 2.225151 L 9.303687 2.165068 L 9.34806 2.109258 L 9.392433 2.057581 L 9.436806 2.010039 L 9.481316 1.966631 L 9.525689 1.927495 L 9.570062 1.892492 L 9.614435 1.861487 L 9.658808 1.834615 L 9.703318 1.811739 L 9.747691 1.792722 L 9.792064 1.777564 L 9.836437 1.766264 L 9.880809 1.758547 L 9.925182 1.754275 L 9.969693 1.753586 L 10.014066 1.756204 L 10.058439 1.761854 L 10.102811 1.770674 L 10.147184 1.782387 L 10.191695 1.796857 L 10.236068 1.813944 L 10.280441 1.833375 L 10.324813 1.855148 L 10.369186 1.87885 L 10.413697 1.904619 L 10.45807 1.93218 L 10.502442 1.961257 L 10.546815 1.991711 L 10.591188 2.023406 L 10.635699 2.056203 L 10.680072 2.089827 L 10.724444 2.124141 L 10.768817 2.159005 L 10.81319 2.194283 L 10.857701 2.229836 L 10.902074 2.265252 L 10.946446 2.300805 L 10.990819 2.335945 L 11.035192 2.370809 L 11.079565 2.40526 L 11.124076 2.439022 L 11.168448 2.471957 L 11.212821 2.504204 L 11.257194 2.535485 L 11.301567 2.565664 L 11.346077 2.594741 L 11.39045 2.622715 L 11.434823 2.649449 L 11.479196 2.674805 L 11.523569 2.69892 L 11.568079 2.72152 L 11.612452 2.74288 L 11.656825 2.762724 L 11.701198 2.781189 " transform="matrix(28.346457,0,0,-28.346457,1,256.11811)"/>
</g>
</svg>
