<svg xmlns="http://www.w3.org/2000/svg" width="456.21" height="342.824" viewBox="0 0 342.157 257.118"><path style="fill:none;stroke-width:.02;stroke-linecap:butt;stroke-linejoin:miter;stroke:#000;stroke-opacity:1;stroke-miterlimit:10" d="M.994 1.971h.15M.994 3.331h.15M.994 4.69h.15M.994 6.05h.15M.994 7.41h.15" transform="matrix(28.34646 0 0 -28.34646 1 256.118)"/><path style="fill:none;stroke-width:.02;stroke-linecap:round;stroke-linejoin:miter;stroke:#000;stroke-opacity:1;stroke-miterlimit:10" d="M.994.612v8.157" transform="matrix(28.34646 0 0 -28.34646 1 256.118)"/><path style="stroke:none;fill-rule:nonzero;fill:#000;fill-opacity:1" d="M6.941 239.684v.632H3.973v-.632Zm0 0ZM10.637 234.852c1.078.082 1.793 1.066 1.984 2.066.102.453.125.883.172 1.336v1.156c-.059 1.18-.34 2.735-1.621 3.211-1.113.441-2.418-.25-2.746-1.387-.25-.597-.27-1.21-.328-1.824v-1.156c.058-1.18.304-2.742 1.578-3.266l.054-.023.047-.012.055-.02.172-.046.101-.024h.125l.024-.011Zm0 0Zm-.352.691c-.953.113-1.234 1.262-1.305 2.031v.305l-.02.023v1.578c.067.817.126 1.868.872 2.415.691.476 1.61-.06 1.805-.793.203-.547.25-1.079.293-1.622v-1.578c-.067-.828-.18-1.984-1.133-2.312l-.078-.024-.024-.023h-.101l-.024-.02h-.261Zm0 0ZM15.32 241.586v.91h-.918v-.91Zm0 0ZM19.324 234.852c1.313.035 2.356 1.382 2.153 2.652-.137 1.273-1.325 1.996-2.176 2.793l-.363.371-.047.023-.453.442-.032.023-.453.453-.047.024-.101.101.023.012H21.5v.75h-4.488v-.68l1.824-1.828c.871-.758 1.894-1.746 1.734-2.992-.09-.726-.703-1.394-1.453-1.453-.758-.113-1.426.488-1.597 1.215l-.024.035-.02.078-.105.375-.008.055c-.16-.192-.332-.395-.457-.613.23-.93.977-1.801 1.965-1.836Zm0 0ZM10.637 196.316c1.078.079 1.793 1.067 1.984 2.063.102.453.125.883.172 1.34v1.156c-.059 1.18-.34 2.73-1.621 3.207-1.113.441-2.418-.25-2.746-1.383-.25-.601-.27-1.215-.328-1.824v-1.156c.058-1.18.304-2.746 1.578-3.266l.054-.023.047-.012.055-.023.172-.047.101-.02h.125l.024-.012Zm0 0Zm-.352.692c-.953.113-1.234 1.258-1.305 2.027v.309l-.02.023v1.574c.067.817.126 1.871.872 2.414.691.477 1.61-.054 1.805-.792.203-.543.25-1.079.293-1.622v-1.574c-.067-.828-.18-1.984-1.133-2.316l-.078-.02-.024-.023h-.101l-.024-.024h-.261Zm0 0ZM15.32 203.05v.907h-.918v-.906Zm0 0ZM19.45 196.316c1.073.079 1.788 1.067 1.984 2.063.101.453.125.883.168 1.34v1.156c-.055 1.18-.34 2.73-1.622 3.207-1.109.441-2.414-.25-2.742-1.383-.25-.601-.273-1.215-.332-1.824v-1.156c.059-1.18.309-2.746 1.578-3.266l.055-.023.047-.012.059-.023.168-.047.101-.02h.125l.023-.012Zm0 0Zm-.352.692c-.953.113-1.239 1.258-1.305 2.027v.309l-.023.023v1.574c.066.817.125 1.871.875 2.414.69.477 1.609-.054 1.8-.792.203-.543.25-1.079.297-1.622v-1.574c-.07-.828-.183-1.984-1.137-2.316l-.078-.02-.023-.023h-.102l-.023-.024h-.262Zm0 0ZM10.637 157.777c1.078.082 1.793 1.067 1.984 2.067.102.453.125.883.172 1.336v1.156c-.059 1.18-.34 2.734-1.621 3.21-1.113.442-2.418-.25-2.746-1.382-.25-.601-.27-1.215-.328-1.828v-1.156c.058-1.18.304-2.743 1.578-3.266l.054-.023.047-.012.055-.02.172-.047.101-.023h.125l.024-.012Zm0 0Zm-.352.692c-.953.113-1.234 1.261-1.305 2.031v.305l-.02.023v1.578c.067.817.126 1.871.872 2.414.691.477 1.61-.058 1.805-.793.203-.547.25-1.078.293-1.62v-1.579c-.067-.828-.18-1.984-1.133-2.312l-.078-.024-.024-.023h-.101l-.024-.02h-.261Zm0 0ZM15.32 164.516v.906h-.918v-.906Zm0 0ZM19.324 157.777c1.313.036 2.356 1.383 2.153 2.657-.137 1.27-1.325 1.992-2.176 2.789l-.363.37-.047.024-.453.442-.032.023-.453.453-.047.024-.101.101.023.012H21.5v.75h-4.488v-.68l1.824-1.828c.871-.758 1.894-1.746 1.734-2.992-.09-.727-.703-1.395-1.453-1.453-.758-.114-1.426.488-1.597 1.215l-.024.035-.02.078-.105.375-.008.055c-.16-.192-.332-.395-.457-.61.23-.93.977-1.804 1.965-1.84Zm0 0ZM10.637 119.242c1.078.078 1.793 1.067 1.984 2.063.102.453.125.886.172 1.34v1.156c-.059 1.18-.34 2.73-1.621 3.207-1.113.441-2.418-.25-2.746-1.383-.25-.602-.27-1.215-.328-1.824v-1.156c.058-1.18.304-2.747 1.578-3.266l.054-.024.047-.011.055-.024.172-.043.101-.023h.125l.024-.012Zm0 0Zm-.352.692c-.953.113-1.234 1.257-1.305 2.027v.309l-.02.023v1.574c.067.817.126 1.871.872 2.414.691.477 1.61-.054 1.805-.793.203-.543.25-1.078.293-1.62v-1.575c-.067-.828-.18-1.984-1.133-2.313l-.078-.023-.024-.023h-.101l-.024-.024h-.261Zm0 0ZM15.32 125.977v.906h-.918v-.906Zm0 0ZM20.617 119.48v4.774l.02.023h1.125v.68h-1.125l-.02.012v1.914h-.863v-1.914l-.024-.012h-2.992v-.703c.953-1.59 1.907-3.188 2.856-4.774Zm0 0Zm-.84.43c-.226 1.18-.953 2.188-1.496 3.219-.215.375-.5.785-.66 1.148h2.18l.012-.023v-4.344l-.012-.023Zm0 0ZM10.637 80.703c1.078.082 1.793 1.067 1.984 2.067.102.453.125.882.172 1.335v1.157c-.059 1.18-.34 2.734-1.621 3.21-1.113.442-2.418-.25-2.746-1.382-.25-.602-.27-1.215-.328-1.828v-1.157c.058-1.18.304-2.742 1.578-3.265l.054-.024.047-.011.055-.02.172-.047.101-.023h.125l.024-.012Zm0 0Zm-.352.692c-.953.113-1.234 1.261-1.305 2.03v.305l-.02.024v1.578c.067.816.126 1.871.872 2.414.691.477 1.61-.058 1.805-.793.203-.547.25-1.078.293-1.621v-1.578c-.067-.828-.18-1.984-1.133-2.313l-.078-.023-.024-.023h-.101l-.024-.02h-.261Zm0 0ZM15.32 87.441v.907h-.918v-.907Zm0 0ZM20.184 80.703c.296.047.636.082.918.219v.656c-.782-.34-1.801-.387-2.415.305-.542.578-.792 1.441-.816 2.199.66-.871 2.145-1.36 2.95-.453.804.93.94 2.27.577 3.402-.398.906-1.316 1.735-2.335 1.543-1.383-.113-2.008-1.656-2.075-2.836-.261-1.668.137-3.765 1.723-4.715l.023-.011.239-.125.066-.024.035-.023.192-.055.16-.047.101-.023h.125l.024-.012Zm0 0Zm-1.11 3.152c-.988.172-1.304 1.364-1.18 2.168.06.758.352 1.77 1.223 1.926.93.125 1.531-.87 1.555-1.676.047-.816 0-1.746-.715-2.28l-.156-.079-.125-.035-.102-.024-.023-.02h-.453Zm0 0ZM10.637 42.168c1.078.078 1.793 1.066 1.984 2.062.102.454.125.887.172 1.34v1.157c-.059 1.18-.34 2.73-1.621 3.207-1.113.441-2.418-.25-2.746-1.383-.25-.602-.27-1.211-.328-1.824V45.57c.058-1.18.304-2.746 1.578-3.265l.054-.024.047-.011.055-.024.172-.043.101-.023h.125l.024-.012Zm0 0Zm-.352.691c-.953.114-1.234 1.258-1.305 2.032v.304l-.02.024v1.574c.067.816.126 1.871.872 2.414.691.477 1.61-.055 1.805-.793.203-.543.25-1.074.293-1.621v-1.574c-.067-.828-.18-1.985-1.133-2.313l-.078-.023-.024-.024h-.101l-.024-.023h-.261Zm0 0ZM15.32 48.902v.907h-.918v-.907Zm0 0ZM19.469 42.168c1.203.047 2.336 1.336 1.863 2.539-.207.555-.773.895-1.238 1.133 1.156.34 1.86 1.691 1.34 2.8-.547 1.442-2.61 1.895-3.743.852-1.03-.816-1.066-2.586.079-3.312.171-.18.488-.239.636-.371-.988-.286-1.656-1.43-1.191-2.395.375-.86 1.336-1.336 2.254-1.246Zm0 0Zm-.43.645c-.84.023-1.43.976-1.144 1.726.328 1.29 2.496 1.246 2.742-.082.226-.734-.36-1.621-1.168-1.645l-.02-.011h-.387Zm0 0Zm.023 3.367c-.988.07-1.472 1.25-1.214 2.09.172 1.187 1.87 1.539 2.543.585.644-.87.328-2.437-.84-2.675h-.102l-.023-.02h-.352Zm0 0ZM10.988 3.629v6.996l.012.023h1.395v.625H8.71v-.625h1.394l.024-.023V4.754c-.477.156-.977.262-1.477.25v-.637c.75.012 1.567-.191 2.133-.738Zm0 0ZM15.32 10.367v.906h-.918v-.906Zm0 0ZM19.45 3.629c1.073.082 1.788 1.066 1.984 2.066.101.453.125.883.168 1.336v1.157c-.055 1.18-.34 2.734-1.622 3.21-1.109.442-2.414-.25-2.742-1.382-.25-.602-.273-1.215-.332-1.829V7.032c.059-1.18.309-2.742 1.578-3.265l.055-.024.047-.008.059-.023.168-.047.101-.023h.125l.023-.012Zm0 0Zm-.352.691c-.953.117-1.239 1.262-1.305 2.032v.304l-.023.024v1.578c.066.816.125 1.87.875 2.414.69.476 1.609-.059 1.8-.793.203-.547.25-1.078.297-1.621V6.68c-.07-.828-.183-1.985-1.137-2.313l-.078-.023-.023-.024h-.102l-.023-.02h-.262Zm0 0Zm0 0"/><path style="fill:none;stroke-width:.02;stroke-linecap:butt;stroke-linejoin:miter;stroke:#000;stroke-opacity:1;stroke-miterlimit:10" d="M11.645 1.971h-.15M11.645 3.331h-.15M11.645 4.69h-.15M11.645 6.05h-.15M11.645 7.41h-.15" transform="matrix(28.34646 0 0 -28.34646 1 256.118)"/><path style="fill:none;stroke-width:.02;stroke-linecap:round;stroke-linejoin:miter;stroke:#000;stroke-opacity:1;stroke-miterlimit:10" d="M11.645.612v8.157" transform="matrix(28.34646 0 0 -28.34646 1 256.118)"/><path style="fill:none;stroke-width:.02;stroke-linecap:butt;stroke-linejoin:miter;stroke:#000;stroke-opacity:1;stroke-miterlimit:10" d="M2.06.612v.15M3.124.612v.15M4.19.612v.15M5.254.612v.15M6.32.612v.15M7.384.612v.15M8.45.612v.15M9.515.612v.15M10.58.612v.15" transform="matrix(28.34646 0 0 -28.34646 1 256.118)"/><path style="fill:none;stroke-width:.02;stroke-linecap:round;stroke-linejoin:miter;stroke:#000;stroke-opacity:1;stroke-miterlimit:10" d="M.994.612h10.65" transform="matrix(28.34646 0 0 -28.34646 1 256.118)"/><path style="stroke:none;fill-rule:nonzero;fill:#000;fill-opacity:1" d="M23.156 250.484v.633h-2.972v-.633Zm0 0ZM27.203 245.652v6.996l.012.024h1.394v.621h-3.683v-.621h1.394l.02-.024v-5.875c-.473.16-.973.262-1.473.25v-.632c.75.011 1.567-.196 2.133-.739Zm0 0ZM31.535 252.387v.906h-.918v-.906Zm0 0ZM35.66 245.652c1.078.078 1.793 1.067 1.985 2.063.105.453.125.887.171 1.34v1.156c-.058 1.18-.34 2.73-1.62 3.207-1.114.445-2.415-.246-2.747-1.383-.246-.601-.27-1.21-.328-1.824v-1.156c.059-1.18.309-2.746 1.578-3.266l.055-.023.047-.012.054-.024.172-.042.102-.024h.125l.023-.012Zm0 0Zm-.347.692c-.954.113-1.239 1.258-1.305 2.031v.305l-.024.023v1.574c.067.817.125 1.871.871 2.418.692.477 1.614-.058 1.805-.797.203-.543.25-1.074.293-1.62v-1.575c-.066-.828-.18-1.984-1.133-2.312l-.078-.024-.023-.023h-.102l-.023-.024h-.262Zm0 0ZM53.348 250.484v.633h-2.973v-.633Zm0 0ZM57.043 245.652c1.078.078 1.793 1.067 1.984 2.063.102.453.125.887.168 1.34v1.156c-.054 1.18-.34 2.73-1.62 3.207-1.11.445-2.415-.246-2.743-1.383-.25-.601-.273-1.21-.328-1.824v-1.156c.055-1.18.305-2.746 1.574-3.266l.059-.023.043-.012.058-.024.168-.042.102-.024h.125l.023-.012Zm0 0Zm-.352.692c-.953.113-1.234 1.258-1.304 2.031v.305l-.024.023v1.574c.07.817.125 1.871.875 2.418.692.477 1.61-.058 1.801-.797.207-.543.25-1.074.297-1.62v-1.575c-.07-.828-.184-1.984-1.133-2.312l-.082-.024-.023-.023h-.102l-.02-.024h-.261Zm0 0ZM61.727 252.387v.906h-.918v-.906Zm0 0ZM65.875 245.652c1.203.047 2.336 1.34 1.86 2.54-.204.554-.77.898-1.235 1.136 1.156.34 1.86 1.688 1.336 2.797-.543 1.441-2.606 1.895-3.742.852-1.031-.817-1.063-2.586.082-3.309.168-.184.488-.238.633-.375-.985-.285-1.657-1.43-1.192-2.395.375-.859 1.34-1.335 2.258-1.246Zm0 0Zm-.43.649c-.84.02-1.43.972-1.144 1.722.328 1.293 2.492 1.247 2.742-.082.227-.734-.363-1.62-1.168-1.64l-.023-.012h-.383Zm0 0Zm.024 3.367c-.989.066-1.477 1.246-1.215 2.086.172 1.187 1.871 1.539 2.539.59.648-.875.328-2.438-.84-2.676h-.101l-.024-.023h-.348Zm0 0ZM83.535 250.484v.633h-2.969v-.633Zm0 0ZM87.234 245.652c1.075.078 1.79 1.067 1.985 2.063.101.453.125.887.168 1.34v1.156c-.055 1.18-.34 2.73-1.621 3.207-1.11.445-2.414-.246-2.743-1.383-.25-.601-.273-1.21-.328-1.824v-1.156c.055-1.18.305-2.746 1.575-3.266l.058-.023.043-.012.059-.024.168-.042.101-.024h.125l.024-.012Zm0 0Zm-.351.692c-.953.113-1.238 1.258-1.305 2.031v.305l-.023.023v1.574c.07.817.125 1.871.875 2.418.691.477 1.61-.058 1.8-.797.204-.543.25-1.074.297-1.62v-1.575c-.07-.828-.183-1.984-1.136-2.312l-.079-.024-.023-.023h-.102l-.023-.024h-.258Zm0 0ZM91.918 252.387v.906h-.922v-.906Zm0 0ZM96.781 245.652c.293.047.633.078.918.215v.66c-.781-.343-1.804-.386-2.414.305-.547.578-.797 1.441-.816 2.2.656-.872 2.14-1.36 2.945-.454.805.93.941 2.266.578 3.402-.394.907-1.312 1.735-2.336 1.543-1.383-.117-2.004-1.656-2.074-2.835-.262-1.668.137-3.766 1.723-4.72l.023-.011.238-.121.07-.024.032-.023.195-.059.157-.042.101-.024h.125l.024-.012Zm0 0Zm-1.113 3.153c-.984.172-1.3 1.36-1.18 2.164.059.761.352 1.77 1.227 1.93.93.124 1.531-.876 1.555-1.68.043-.817 0-1.746-.715-2.278l-.16-.078-.125-.035-.102-.023-.023-.024h-.454Zm0 0ZM113.727 250.484v.633h-2.97v-.633Zm0 0ZM117.426 245.652c1.074.078 1.789 1.067 1.984 2.063.102.453.121.887.168 1.34v1.156c-.055 1.18-.34 2.73-1.621 3.207-1.11.445-2.414-.246-2.742-1.383-.25-.601-.274-1.21-.332-1.824v-1.156c.058-1.18.308-2.746 1.578-3.266l.055-.023.046-.012.055-.024.172-.042.102-.024h.125l.023-.012Zm0 0Zm-.352.692c-.953.113-1.238 1.258-1.304 2.031v.305l-.024.023v1.574c.067.817.125 1.871.871 2.418.695.477 1.613-.058 1.805-.797.203-.543.25-1.074.293-1.62v-1.575c-.067-.828-.18-1.984-1.133-2.312l-.078-.024-.024-.023h-.101l-.024-.024h-.261Zm0 0ZM122.105 252.387v.906h-.918v-.906Zm0 0ZM127.402 245.89v4.774l.024.024h1.12v.68h-1.12l-.024.01v1.915h-.863v-1.914l-.023-.012h-2.993v-.703c.954-1.586 1.907-3.187 2.86-4.773Zm0 0Zm-.84.43c-.226 1.18-.953 2.192-1.496 3.223-.214.371-.5.781-.656 1.144h2.176l.012-.023v-4.344l-.012-.02Zm0 0ZM143.918 250.484v.633h-2.969v-.633Zm0 0ZM147.613 245.652c1.078.078 1.793 1.067 1.985 2.063.101.453.125.887.172 1.34v1.156c-.06 1.18-.34 2.73-1.622 3.207-1.113.445-2.414-.246-2.746-1.383-.25-.601-.27-1.21-.328-1.824v-1.156c.059-1.18.309-2.746 1.578-3.266l.055-.023.047-.012.055-.024.171-.042.102-.024h.125l.023-.012Zm0 0Zm-.351.692c-.95.113-1.235 1.258-1.301 2.031v.305l-.024.023v1.574c.067.817.125 1.871.872 2.418.691.477 1.609-.058 1.804-.797.203-.543.25-1.074.293-1.62v-1.575c-.066-.828-.18-1.984-1.133-2.312l-.078-.024-.023-.023h-.102l-.023-.024h-.262Zm0 0ZM152.297 252.387v.906h-.918v-.906Zm0 0ZM156.3 245.652c1.317.036 2.36 1.383 2.153 2.653-.137 1.27-1.324 1.996-2.176 2.789l-.363.375-.043.023-.457.442-.031.023-.453.453-.047.024-.102.101.024.012h3.672v.746h-4.489v-.68l1.825-1.824c.87-.762 1.894-1.746 1.734-2.992-.09-.727-.703-1.395-1.45-1.453-.761-.114-1.429.488-1.6 1.215l-.024.03-.02.083-.035.125-.066.25-.012.055a4.283 4.283 0 0 1-.453-.614c.226-.93.972-1.8 1.96-1.836Zm0 0ZM175.918 245.652c1.078.078 1.789 1.067 1.984 2.063.102.453.125.887.168 1.34v1.156c-.054 1.18-.34 2.73-1.62 3.207-1.11.445-2.415-.246-2.743-1.383-.25-.601-.273-1.21-.328-1.824v-1.156c.055-1.18.305-2.746 1.574-3.266l.059-.023.043-.012.058-.024.168-.042.102-.024h.125l.023-.012Zm0 0Zm-.352.692c-.953.113-1.234 1.258-1.304 2.031v.305l-.024.023v1.574c.07.817.125 1.871.875 2.418.692.477 1.61-.058 1.801-.797.207-.543.25-1.074.297-1.62v-1.575c-.07-.828-.184-1.984-1.133-2.312l-.082-.024-.023-.023h-.102l-.023-.024h-.258Zm0 0ZM180.602 252.387v.906h-.918v-.906Zm0 0ZM184.727 245.652c1.078.078 1.793 1.067 1.984 2.063.101.453.125.887.172 1.34v1.156c-.059 1.18-.34 2.73-1.621 3.207-1.114.445-2.418-.246-2.746-1.383-.25-.601-.27-1.21-.328-1.824v-1.156c.058-1.18.304-2.746 1.578-3.266l.054-.023.047-.012.055-.024.172-.042.101-.024h.125l.024-.012Zm0 0Zm-.352.692c-.953.113-1.234 1.258-1.305 2.031v.305l-.02.023v1.574c.067.817.126 1.871.872 2.418.691.477 1.61-.058 1.805-.797.203-.543.25-1.074.293-1.62v-1.575c-.067-.828-.18-1.984-1.133-2.312l-.078-.024-.024-.023h-.101l-.024-.024h-.262Zm0 0ZM206.11 245.652c1.074.078 1.788 1.067 1.984 2.063.101.453.125.887.168 1.34v1.156c-.055 1.18-.34 2.73-1.621 3.207-1.11.445-2.414-.246-2.743-1.383-.25-.601-.273-1.21-.332-1.824v-1.156c.059-1.18.309-2.746 1.579-3.266l.054-.023.047-.012.059-.024.168-.042.101-.024h.125l.024-.012Zm0 0Zm-.352.692c-.953.113-1.238 1.258-1.305 2.031v.305l-.023.023v1.574c.07.817.125 1.871.875 2.418.691.477 1.61-.058 1.8-.797.204-.543.25-1.074.297-1.62v-1.575c-.07-.828-.183-1.984-1.136-2.312l-.078-.024-.024-.023h-.101l-.024-.024h-.258Zm0 0ZM210.79 252.387v.906h-.919v-.906Zm0 0ZM214.793 245.652c1.316.036 2.36 1.383 2.156 2.653-.137 1.27-1.328 1.996-2.18 2.789l-.363.375-.043.023-.453.442-.035.023-.453.453-.047.024-.102.101.024.012h3.672v.746h-4.489v-.68l1.825-1.824c.875-.762 1.894-1.746 1.734-2.992-.09-.727-.703-1.395-1.45-1.453-.76-.114-1.429.488-1.597 1.215l-.023.03-.024.083-.035.125-.066.25-.012.055a4.6 4.6 0 0 1-.453-.614c.226-.93.973-1.8 1.96-1.836Zm0 0ZM236.3 245.652c1.075.078 1.79 1.067 1.981 2.063.106.453.125.887.172 1.34v1.156c-.058 1.18-.34 2.73-1.621 3.207-1.113.445-2.414-.246-2.746-1.383-.246-.601-.27-1.21-.328-1.824v-1.156c.058-1.18.308-2.746 1.578-3.266l.055-.023.047-.012.054-.024.172-.042.102-.024h.125l.023-.012Zm0 0Zm-.35.692c-.954.113-1.24 1.258-1.305 2.031v.305l-.024.023v1.574c.066.817.125 1.871.871 2.418.692.477 1.613-.058 1.805-.797.203-.543.25-1.074.293-1.62v-1.575c-.067-.828-.18-1.984-1.133-2.312l-.078-.024-.024-.023h-.101l-.024-.024h-.261Zm0 0ZM240.98 252.387v.906h-.917v-.906Zm0 0ZM246.277 245.89v4.774l.024.024h1.12v.68h-1.12l-.024.01v1.915h-.863v-1.914l-.023-.012h-2.993v-.703c.954-1.586 1.907-3.187 2.86-4.773Zm0 0Zm-.84.43c-.226 1.18-.953 2.192-1.496 3.223-.214.371-.5.781-.656 1.144h2.176l.012-.023v-4.344l-.012-.02Zm0 0ZM266.488 245.652c1.078.078 1.793 1.067 1.985 2.063.101.453.125.887.172 1.34v1.156c-.06 1.18-.34 2.73-1.622 3.207-1.113.445-2.418-.246-2.746-1.383-.25-.601-.27-1.21-.328-1.824v-1.156c.059-1.18.305-2.746 1.578-3.266l.055-.023.047-.012.055-.024.171-.042.102-.024h.125l.023-.012Zm0 0Zm-.351.692c-.95.113-1.235 1.258-1.301 2.031v.305l-.024.023v1.574c.067.817.125 1.871.872 2.418.691.477 1.609-.058 1.804-.797.203-.543.25-1.074.293-1.62v-1.575c-.066-.828-.18-1.984-1.133-2.312l-.078-.024-.023-.023h-.102l-.023-.024h-.262Zm0 0ZM271.172 252.387v.906h-.918v-.906Zm0 0ZM276.035 245.652c.297.047.637.078.918.215v.66c-.781-.343-1.8-.386-2.414.305-.543.578-.793 1.441-.816 2.2.66-.872 2.144-1.36 2.949-.454.805.93.941 2.266.578 3.402-.398.907-1.316 1.735-2.336 1.543-1.383-.117-2.008-1.656-2.074-2.835-.262-1.668.137-3.766 1.723-4.72l.023-.011.238-.121.067-.024.035-.023.191-.059.16-.042.102-.024h.125l.023-.012Zm0 0Zm-1.11 3.153c-.988.172-1.304 1.36-1.179 2.164.059.761.352 1.77 1.227 1.93.93.124 1.527-.876 1.55-1.68.047-.817 0-1.746-.714-2.278l-.157-.078-.125-.035-.101-.023-.024-.024h-.453Zm0 0ZM296.68 245.652c1.078.078 1.793 1.067 1.984 2.063.102.453.125.887.172 1.34v1.156c-.059 1.18-.34 2.73-1.621 3.207-1.113.445-2.418-.246-2.746-1.383-.25-.601-.274-1.21-.328-1.824v-1.156c.054-1.18.304-2.746 1.574-3.266l.058-.023.047-.012.055-.024.172-.042.101-.024h.125l.02-.012Zm0 0Zm-.352.692c-.953.113-1.234 1.258-1.305 2.031v.305l-.02.023v1.574c.067.817.122 1.871.872 2.418.691.477 1.61-.058 1.805-.797.203-.543.246-1.074.293-1.62v-1.575c-.067-.828-.18-1.984-1.133-2.312l-.082-.024-.02-.023h-.101l-.024-.024h-.261Zm0 0ZM301.363 252.387v.906h-.918v-.906Zm0 0ZM305.512 245.652c1.203.047 2.336 1.34 1.86 2.54-.204.554-.77.898-1.235 1.136 1.156.34 1.86 1.688 1.336 2.797-.543 1.441-2.606 1.895-3.739.852-1.035-.817-1.066-2.586.079-3.309.167-.184.488-.238.632-.375-.984-.285-1.652-1.43-1.187-2.395.37-.859 1.336-1.335 2.254-1.246Zm0 0Zm-.43.649c-.84.02-1.43.972-1.144 1.722.328 1.293 2.492 1.247 2.742-.082.226-.734-.364-1.62-1.168-1.64l-.02-.012h-.387Zm0 0Zm.023 3.367c-.988.066-1.476 1.246-1.214 2.086.171 1.187 1.87 1.539 2.539.59.648-.875.332-2.438-.836-2.676h-.102l-.023-.023h-.352Zm0 0ZM327.223 245.652v6.996l.011.024h1.395v.621h-3.688v-.621h1.399l.02-.024v-5.875c-.477.16-.973.262-1.473.25v-.632c.75.011 1.566-.196 2.133-.739Zm0 0ZM331.555 252.387v.906h-.918v-.906Zm0 0ZM335.68 245.652c1.078.078 1.793 1.067 1.984 2.063.102.453.125.887.172 1.34v1.156c-.059 1.18-.34 2.73-1.621 3.207-1.113.445-2.418-.246-2.746-1.383-.25-.601-.27-1.21-.328-1.824v-1.156c.058-1.18.304-2.746 1.578-3.266l.054-.023.047-.012.055-.024.172-.042.101-.024h.125l.024-.012Zm0 0Zm-.352.692c-.95.113-1.234 1.258-1.3 2.031v.305l-.024.023v1.574c.066.817.125 1.871.871 2.418.691.477 1.61-.058 1.805-.797.203-.543.25-1.074.293-1.62v-1.575c-.067-.828-.18-1.984-1.133-2.312l-.078-.024-.024-.023h-.101l-.024-.024h-.261Zm0 0Zm0 0"/><path style="fill:none;stroke-width:.02;stroke-linecap:butt;stroke-linejoin:miter;stroke:#000;stroke-opacity:1;stroke-miterlimit:10" d="M2.06 8.769v-.15M3.124 8.769v-.15M4.19 8.769v-.15M5.254 8.769v-.15M6.32 8.769v-.15M7.384 8.769v-.15M8.45 8.769v-.15M9.515 8.769v-.15M10.58 8.769v-.15" transform="matrix(28.34646 0 0 -28.34646 1 256.118)"/><path style="fill:none;stroke-width:.02;stroke-linecap:round;stroke-linejoin:miter;stroke:#000;stroke-opacity:1;stroke-miterlimit:10" d="M.994 8.769h10.65" transform="matrix(28.34646 0 0 -28.34646 1 256.118)"/><path style="fill:none;stroke-width:.05;stroke-linecap:butt;stroke-linejoin:miter;stroke:#5478a3;stroke-opacity:1;stroke-miterlimit:10" d="m.994 1.971.036.018.036.018.036.017.071.036.036.018.036.017.036.016.036.016.036.014.036.012.035.012.036.009.036.007.036.005.036.003h.036l.035-.003.036-.004.036-.008.036-.01.036-.014.036-.015.036-.019.036-.02.035-.023.036-.025.036-.027.036-.028.036-.03.071-.064.036-.031.036-.032.036-.032.036-.031.036-.03.036-.028.036-.027.035-.025.036-.02.036-.02.036-.015.036-.01.036-.008.036-.003h.035l.036.007.036.01.036.015.036.02.036.025.036.028.036.034.035.038.036.041.036.046.036.049.036.05.036.054.035.056.036.056.036.056.036.056.072.111.036.053.036.049.035.046.036.043.036.036.036.032.036.026.036.018.035.012.036.004.036-.004.036-.011.036-.02.036-.029.036-.037.036-.046.035-.053.036-.063.036-.07.036-.075.036-.085.036-.09.036-.093.035-.1.036-.104.036-.105.036-.105.036-.106.036-.105.036-.106.035-.1.036-.095.036-.09.036-.084.036-.072.036-.065.036-.054.036-.039.035-.028.031-.012M4.815.612l.016.002.036.018.036.034.036.054.036.07.035.09.036.107.036.126.036.145.036.163.036.181.036.199.035.214.036.232.036.246.036.257.036.273.036.284.036.29.035.3.036.31.036.31.036.31.036.31.036.312.036.311.036.304.035.293.036.287.036.277.036.259.036.248.036.231.035.21.036.194.036.172.036.148.036.126.036.103.036.076.036.052.035.026h.036l.036-.026.036-.052.036-.076.036-.103.035-.126.036-.148.036-.172.036-.194.036-.21.036-.231.036-.248.036-.26.035-.276.036-.287.036-.293.036-.304.036-.311.036-.311.036-.311.035-.31.036-.31.036-.31.036-.3.036-.29.036-.284.036-.273.036-.257.035-.246.036-.232.036-.214.036-.199.036-.181.036-.163.035-.145.036-.126.036-.108.036-.089L7.7.72l.036-.054.036-.034.036-.018.016-.002M7.848.612l.031.012.036.028.036.04.036.053.036.065.035.072.036.083.036.091.036.094.036.101.036.106.036.105.036.106.035.105.036.105.036.104.036.1.036.094.036.09.036.084.035.076.036.07.036.062.036.053.036.046.036.037.036.029.035.02.036.011.036.004.036-.004.036-.012.036-.018.036-.026.035-.032.036-.036.036-.043.036-.046.036-.049.036-.053.036-.055.036-.056.071-.112.036-.056.036-.056.036-.054.036-.05.036-.05.035-.045.036-.04.036-.039.036-.034.036-.028.036-.025.036-.02.035-.015.036-.01.036-.006.036-.001.036.003.036.007.036.011.036.016.035.018.036.021.036.025.036.027.036.027.036.03.035.032.036.032.036.032.036.031.072.063.036.03.036.029.035.027.036.025.036.023.036.02.036.019.036.015.035.013.036.01.036.009.036.004.036.003h.036l.036-.003.036-.005.035-.007.036-.01.036-.01.036-.013.036-.014.036-.016.036-.016.035-.017.072-.036.036-.018.072-.035.036-.018" transform="matrix(28.34646 0 0 -28.34646 1 256.118)"/></svg>