<?xml version="1.0" encoding="UTF-8"?>
<svg xmlns="http://www.w3.org/2000/svg" xmlns:xlink="http://www.w3.org/1999/xlink" width="342.15748pt" height="257.11811pt" viewBox="0 0 342.15748 257.11811" version="1.1">
<g id="surface1">
<path style="fill:none;stroke-width:0.02;stroke-linecap:butt;stroke-linejoin:miter;stroke:rgb(0%,0%,0%);stroke-opacity:1;stroke-miterlimit:10;" d="M 0.993979 1.777288 L 1.144047 1.777288 " transform="matrix(28.346457,0,0,-28.346457,1,256.11811)"/>
<path style="fill:none;stroke-width:0.02;stroke-linecap:butt;stroke-linejoin:miter;stroke:rgb(0%,0%,0%);stroke-opacity:1;stroke-miterlimit:10;" d="M 0.993979 2.942558 L 1.144047 2.942558 " transform="matrix(28.346457,0,0,-28.346457,1,256.11811)"/>
<path style="fill:none;stroke-width:0.02;stroke-linecap:butt;stroke-linejoin:miter;stroke:rgb(0%,0%,0%);stroke-opacity:1;stroke-miterlimit:10;" d="M 0.993979 4.107827 L 1.144047 4.107827 " transform="matrix(28.346457,0,0,-28.346457,1,256.11811)"/>
<path style="fill:none;stroke-width:0.02;stroke-linecap:butt;stroke-linejoin:miter;stroke:rgb(0%,0%,0%);stroke-opacity:1;stroke-miterlimit:10;" d="M 0.993979 5.273096 L 1.144047 5.273096 " transform="matrix(28.346457,0,0,-28.346457,1,256.11811)"/>
<path style="fill:none;stroke-width:0.02;stroke-linecap:butt;stroke-linejoin:miter;stroke:rgb(0%,0%,0%);stroke-opacity:1;stroke-miterlimit:10;" d="M 0.993979 6.438365 L 1.144047 6.438365 " transform="matrix(28.346457,0,0,-28.346457,1,256.11811)"/>
<path style="fill:none;stroke-width:0.02;stroke-linecap:butt;stroke-linejoin:miter;stroke:rgb(0%,0%,0%);stroke-opacity:1;stroke-miterlimit:10;" d="M 0.993979 7.603772 L 1.144047 7.603772 " transform="matrix(28.346457,0,0,-28.346457,1,256.11811)"/>
<path style="fill:none;stroke-width:0.02;stroke-linecap:round;stroke-linejoin:miter;stroke:rgb(0%,0%,0%);stroke-opacity:1;stroke-miterlimit:10;" d="M 0.993979 0.612019 L 0.993979 8.769041 " transform="matrix(28.346457,0,0,-28.346457,1,256.11811)"/>
<path style=" stroke:none;fill-rule:nonzero;fill:rgb(0%,0%,0%);fill-opacity:1;" d="M 6.941406 239.683594 L 6.941406 240.316406 L 3.972656 240.316406 L 3.972656 239.683594 Z M 6.941406 239.683594 Z M 6.941406 239.683594 "/>
<path style=" stroke:none;fill-rule:nonzero;fill:rgb(0%,0%,0%);fill-opacity:1;" d="M 10.636719 234.851562 C 11.714844 234.933594 12.429688 235.917969 12.621094 236.917969 C 12.722656 237.371094 12.746094 237.800781 12.792969 238.253906 L 12.792969 239.410156 C 12.734375 240.589844 12.453125 242.144531 11.171875 242.621094 C 10.058594 243.0625 8.753906 242.371094 8.425781 241.234375 C 8.175781 240.636719 8.15625 240.023438 8.097656 239.410156 L 8.097656 238.253906 C 8.15625 237.074219 8.402344 235.511719 9.675781 234.988281 L 9.730469 234.964844 L 9.777344 234.953125 L 9.832031 234.933594 L 10.003906 234.886719 L 10.105469 234.863281 L 10.230469 234.863281 L 10.253906 234.851562 Z M 10.636719 234.851562 Z M 10.285156 235.542969 C 9.332031 235.65625 9.050781 236.804688 8.980469 237.574219 L 8.980469 237.878906 L 8.960938 237.902344 L 8.960938 239.480469 C 9.027344 240.296875 9.085938 241.347656 9.832031 241.894531 C 10.523438 242.371094 11.441406 241.835938 11.636719 241.101562 C 11.839844 240.554688 11.886719 240.023438 11.929688 239.480469 L 11.929688 237.902344 C 11.863281 237.074219 11.75 235.917969 10.796875 235.589844 L 10.71875 235.566406 L 10.695312 235.542969 L 10.59375 235.542969 L 10.570312 235.523438 L 10.308594 235.523438 Z M 10.285156 235.542969 Z M 10.285156 235.542969 "/>
<path style=" stroke:none;fill-rule:nonzero;fill:rgb(0%,0%,0%);fill-opacity:1;" d="M 15.320312 241.585938 L 15.320312 242.496094 L 14.402344 242.496094 L 14.402344 241.585938 Z M 15.320312 241.585938 Z M 15.320312 241.585938 "/>
<path style=" stroke:none;fill-rule:nonzero;fill:rgb(0%,0%,0%);fill-opacity:1;" d="M 20.617188 235.089844 L 20.617188 239.863281 L 20.636719 239.886719 L 21.761719 239.886719 L 21.761719 240.566406 L 20.636719 240.566406 L 20.617188 240.578125 L 20.617188 242.496094 L 19.753906 242.496094 L 19.753906 240.578125 L 19.730469 240.566406 L 16.738281 240.566406 L 16.738281 239.863281 C 17.691406 238.277344 18.644531 236.679688 19.59375 235.089844 Z M 20.617188 235.089844 Z M 19.777344 235.523438 C 19.550781 236.699219 18.824219 237.710938 18.28125 238.742188 C 18.066406 239.117188 17.78125 239.523438 17.621094 239.886719 L 19.800781 239.886719 L 19.8125 239.863281 L 19.8125 235.523438 L 19.800781 235.5 Z M 19.777344 235.523438 Z M 19.777344 235.523438 "/>
<path style=" stroke:none;fill-rule:nonzero;fill:rgb(0%,0%,0%);fill-opacity:1;" d="M 6.941406 206.652344 L 6.941406 207.285156 L 3.972656 207.285156 L 3.972656 206.652344 Z M 6.941406 206.652344 Z M 6.941406 206.652344 "/>
<path style=" stroke:none;fill-rule:nonzero;fill:rgb(0%,0%,0%);fill-opacity:1;" d="M 10.636719 201.820312 C 11.714844 201.898438 12.429688 202.886719 12.621094 203.882812 C 12.722656 204.339844 12.746094 204.769531 12.792969 205.222656 L 12.792969 206.378906 C 12.734375 207.558594 12.453125 209.113281 11.171875 209.585938 C 10.058594 210.03125 8.753906 209.339844 8.425781 208.203125 C 8.175781 207.605469 8.15625 206.992188 8.097656 206.378906 L 8.097656 205.222656 C 8.15625 204.042969 8.402344 202.476562 9.675781 201.957031 L 9.730469 201.933594 L 9.777344 201.921875 L 9.832031 201.898438 L 10.003906 201.855469 L 10.105469 201.832031 L 10.230469 201.832031 L 10.253906 201.820312 Z M 10.636719 201.820312 Z M 10.285156 202.511719 C 9.332031 202.625 9.050781 203.769531 8.980469 204.542969 L 8.980469 204.847656 L 8.960938 204.871094 L 8.960938 206.445312 C 9.027344 207.261719 9.085938 208.316406 9.832031 208.863281 C 10.523438 209.339844 11.441406 208.804688 11.636719 208.070312 C 11.839844 207.523438 11.886719 206.992188 11.929688 206.445312 L 11.929688 204.871094 C 11.863281 204.042969 11.75 202.886719 10.796875 202.558594 L 10.71875 202.535156 L 10.695312 202.511719 L 10.59375 202.511719 L 10.570312 202.488281 L 10.308594 202.488281 Z M 10.285156 202.511719 Z M 10.285156 202.511719 "/>
<path style=" stroke:none;fill-rule:nonzero;fill:rgb(0%,0%,0%);fill-opacity:1;" d="M 15.320312 208.554688 L 15.320312 209.464844 L 14.402344 209.464844 L 14.402344 208.554688 Z M 15.320312 208.554688 Z M 15.320312 208.554688 "/>
<path style=" stroke:none;fill-rule:nonzero;fill:rgb(0%,0%,0%);fill-opacity:1;" d="M 19.324219 201.820312 C 20.636719 201.855469 21.679688 203.203125 21.476562 204.472656 C 21.339844 205.742188 20.152344 206.46875 19.300781 207.261719 L 18.9375 207.636719 L 18.890625 207.660156 L 18.4375 208.101562 L 18.40625 208.125 L 17.953125 208.578125 L 17.90625 208.601562 L 17.804688 208.703125 L 17.828125 208.714844 L 21.5 208.714844 L 21.5 209.464844 L 17.011719 209.464844 L 17.011719 208.78125 L 18.835938 206.957031 C 19.707031 206.199219 20.730469 205.210938 20.570312 203.964844 C 20.480469 203.238281 19.867188 202.570312 19.117188 202.511719 C 18.359375 202.398438 17.691406 203 17.519531 203.726562 L 17.496094 203.761719 L 17.476562 203.839844 L 17.371094 204.214844 L 17.363281 204.269531 C 17.203125 204.078125 17.03125 203.875 16.90625 203.65625 C 17.136719 202.726562 17.882812 201.855469 18.871094 201.820312 Z M 19.324219 201.820312 Z M 19.324219 201.820312 "/>
<path style=" stroke:none;fill-rule:nonzero;fill:rgb(0%,0%,0%);fill-opacity:1;" d="M 10.636719 168.789062 C 11.714844 168.867188 12.429688 169.855469 12.621094 170.851562 C 12.722656 171.304688 12.746094 171.738281 12.792969 172.191406 L 12.792969 173.347656 C 12.734375 174.527344 12.453125 176.078125 11.171875 176.554688 C 10.058594 177 8.753906 176.304688 8.425781 175.171875 C 8.175781 174.570312 8.15625 173.960938 8.097656 173.347656 L 8.097656 172.191406 C 8.15625 171.011719 8.402344 169.445312 9.675781 168.925781 L 9.730469 168.902344 L 9.777344 168.890625 L 9.832031 168.867188 L 10.003906 168.824219 L 10.105469 168.800781 L 10.230469 168.800781 L 10.253906 168.789062 Z M 10.636719 168.789062 Z M 10.285156 169.480469 C 9.332031 169.59375 9.050781 170.738281 8.980469 171.511719 L 8.980469 171.816406 L 8.960938 171.839844 L 8.960938 173.414062 C 9.027344 174.230469 9.085938 175.285156 9.832031 175.832031 C 10.523438 176.304688 11.441406 175.773438 11.636719 175.035156 C 11.839844 174.492188 11.886719 173.960938 11.929688 173.414062 L 11.929688 171.839844 C 11.863281 171.011719 11.75 169.855469 10.796875 169.527344 L 10.71875 169.503906 L 10.695312 169.480469 L 10.59375 169.480469 L 10.570312 169.457031 L 10.308594 169.457031 Z M 10.285156 169.480469 Z M 10.285156 169.480469 "/>
<path style=" stroke:none;fill-rule:nonzero;fill:rgb(0%,0%,0%);fill-opacity:1;" d="M 15.320312 175.523438 L 15.320312 176.429688 L 14.402344 176.429688 L 14.402344 175.523438 Z M 15.320312 175.523438 Z M 15.320312 175.523438 "/>
<path style=" stroke:none;fill-rule:nonzero;fill:rgb(0%,0%,0%);fill-opacity:1;" d="M 19.449219 168.789062 C 20.523438 168.867188 21.238281 169.855469 21.433594 170.851562 C 21.535156 171.304688 21.558594 171.738281 21.601562 172.191406 L 21.601562 173.347656 C 21.546875 174.527344 21.261719 176.078125 19.980469 176.554688 C 18.871094 177 17.566406 176.304688 17.238281 175.171875 C 16.988281 174.570312 16.964844 173.960938 16.90625 173.347656 L 16.90625 172.191406 C 16.964844 171.011719 17.214844 169.445312 18.484375 168.925781 L 18.539062 168.902344 L 18.585938 168.890625 L 18.644531 168.867188 L 18.8125 168.824219 L 18.914062 168.800781 L 19.039062 168.800781 L 19.0625 168.789062 Z M 19.449219 168.789062 Z M 19.097656 169.480469 C 18.144531 169.59375 17.859375 170.738281 17.792969 171.511719 L 17.792969 171.816406 L 17.769531 171.839844 L 17.769531 173.414062 C 17.835938 174.230469 17.894531 175.285156 18.644531 175.832031 C 19.335938 176.304688 20.253906 175.773438 20.445312 175.035156 C 20.648438 174.492188 20.695312 173.960938 20.742188 173.414062 L 20.742188 171.839844 C 20.671875 171.011719 20.558594 169.855469 19.605469 169.527344 L 19.527344 169.503906 L 19.503906 169.480469 L 19.402344 169.480469 L 19.378906 169.457031 L 19.117188 169.457031 Z M 19.097656 169.480469 Z M 19.097656 169.480469 "/>
<path style=" stroke:none;fill-rule:nonzero;fill:rgb(0%,0%,0%);fill-opacity:1;" d="M 10.636719 135.757812 C 11.714844 135.835938 12.429688 136.824219 12.621094 137.820312 C 12.722656 138.273438 12.746094 138.707031 12.792969 139.160156 L 12.792969 140.316406 C 12.734375 141.496094 12.453125 143.046875 11.171875 143.523438 C 10.058594 143.964844 8.753906 143.273438 8.425781 142.140625 C 8.175781 141.539062 8.15625 140.929688 8.097656 140.316406 L 8.097656 139.160156 C 8.15625 137.980469 8.402344 136.414062 9.675781 135.894531 L 9.730469 135.871094 L 9.777344 135.859375 L 9.832031 135.835938 L 10.003906 135.792969 L 10.105469 135.769531 L 10.230469 135.769531 L 10.253906 135.757812 Z M 10.636719 135.757812 Z M 10.285156 136.449219 C 9.332031 136.5625 9.050781 137.707031 8.980469 138.480469 L 8.980469 138.785156 L 8.960938 138.808594 L 8.960938 140.382812 C 9.027344 141.199219 9.085938 142.253906 9.832031 142.796875 C 10.523438 143.273438 11.441406 142.742188 11.636719 142.003906 C 11.839844 141.460938 11.886719 140.929688 11.929688 140.382812 L 11.929688 138.808594 C 11.863281 137.980469 11.75 136.824219 10.796875 136.496094 L 10.71875 136.472656 L 10.695312 136.449219 L 10.59375 136.449219 L 10.570312 136.425781 L 10.308594 136.425781 Z M 10.285156 136.449219 Z M 10.285156 136.449219 "/>
<path style=" stroke:none;fill-rule:nonzero;fill:rgb(0%,0%,0%);fill-opacity:1;" d="M 15.320312 142.492188 L 15.320312 143.398438 L 14.402344 143.398438 L 14.402344 142.492188 Z M 15.320312 142.492188 Z M 15.320312 142.492188 "/>
<path style=" stroke:none;fill-rule:nonzero;fill:rgb(0%,0%,0%);fill-opacity:1;" d="M 19.324219 135.757812 C 20.636719 135.792969 21.679688 137.140625 21.476562 138.410156 C 21.339844 139.679688 20.152344 140.40625 19.300781 141.199219 L 18.9375 141.574219 L 18.890625 141.597656 L 18.4375 142.039062 L 18.40625 142.0625 L 17.953125 142.515625 L 17.90625 142.539062 L 17.804688 142.640625 L 17.828125 142.652344 L 21.5 142.652344 L 21.5 143.398438 L 17.011719 143.398438 L 17.011719 142.71875 L 18.835938 140.894531 C 19.707031 140.132812 20.730469 139.148438 20.570312 137.902344 C 20.480469 137.175781 19.867188 136.503906 19.117188 136.449219 C 18.359375 136.335938 17.691406 136.9375 17.519531 137.664062 L 17.496094 137.695312 L 17.476562 137.777344 L 17.441406 137.902344 L 17.371094 138.148438 L 17.363281 138.207031 C 17.203125 138.015625 17.03125 137.808594 16.90625 137.59375 C 17.136719 136.664062 17.882812 135.792969 18.871094 135.757812 Z M 19.324219 135.757812 Z M 19.324219 135.757812 "/>
<path style=" stroke:none;fill-rule:nonzero;fill:rgb(0%,0%,0%);fill-opacity:1;" d="M 10.636719 102.726562 C 11.714844 102.804688 12.429688 103.792969 12.621094 104.789062 C 12.722656 105.242188 12.746094 105.671875 12.792969 106.128906 L 12.792969 107.285156 C 12.734375 108.464844 12.453125 110.015625 11.171875 110.492188 C 10.058594 110.933594 8.753906 110.242188 8.425781 109.109375 C 8.175781 108.507812 8.15625 107.894531 8.097656 107.285156 L 8.097656 106.128906 C 8.15625 104.949219 8.402344 103.382812 9.675781 102.863281 L 9.730469 102.839844 L 9.777344 102.828125 L 9.832031 102.804688 L 10.003906 102.757812 L 10.105469 102.738281 L 10.230469 102.738281 L 10.253906 102.726562 Z M 10.636719 102.726562 Z M 10.285156 103.417969 C 9.332031 103.53125 9.050781 104.675781 8.980469 105.445312 L 8.980469 105.753906 L 8.960938 105.777344 L 8.960938 107.351562 C 9.027344 108.167969 9.085938 109.222656 9.832031 109.765625 C 10.523438 110.242188 11.441406 109.710938 11.636719 108.972656 C 11.839844 108.429688 11.886719 107.894531 11.929688 107.351562 L 11.929688 105.777344 C 11.863281 104.949219 11.75 103.792969 10.796875 103.460938 L 10.71875 103.441406 L 10.695312 103.417969 L 10.59375 103.417969 L 10.570312 103.394531 L 10.308594 103.394531 Z M 10.285156 103.417969 Z M 10.285156 103.417969 "/>
<path style=" stroke:none;fill-rule:nonzero;fill:rgb(0%,0%,0%);fill-opacity:1;" d="M 15.320312 109.460938 L 15.320312 110.367188 L 14.402344 110.367188 L 14.402344 109.460938 Z M 15.320312 109.460938 Z M 15.320312 109.460938 "/>
<path style=" stroke:none;fill-rule:nonzero;fill:rgb(0%,0%,0%);fill-opacity:1;" d="M 20.617188 102.964844 L 20.617188 107.738281 L 20.636719 107.761719 L 21.761719 107.761719 L 21.761719 108.441406 L 20.636719 108.441406 L 20.617188 108.453125 L 20.617188 110.367188 L 19.753906 110.367188 L 19.753906 108.453125 L 19.730469 108.441406 L 16.738281 108.441406 L 16.738281 107.738281 C 17.691406 106.148438 18.644531 104.550781 19.59375 102.964844 Z M 20.617188 102.964844 Z M 19.777344 103.394531 C 19.550781 104.574219 18.824219 105.582031 18.28125 106.613281 C 18.066406 106.988281 17.78125 107.398438 17.621094 107.761719 L 19.800781 107.761719 L 19.8125 107.738281 L 19.8125 103.394531 L 19.800781 103.371094 Z M 19.777344 103.394531 Z M 19.777344 103.394531 "/>
<path style=" stroke:none;fill-rule:nonzero;fill:rgb(0%,0%,0%);fill-opacity:1;" d="M 10.636719 69.695312 C 11.714844 69.773438 12.429688 70.761719 12.621094 71.757812 C 12.722656 72.210938 12.746094 72.640625 12.792969 73.09375 L 12.792969 74.253906 C 12.734375 75.429688 12.453125 76.984375 11.171875 77.460938 C 10.058594 77.902344 8.753906 77.210938 8.425781 76.078125 C 8.175781 75.476562 8.15625 74.863281 8.097656 74.253906 L 8.097656 73.09375 C 8.15625 71.917969 8.402344 70.351562 9.675781 69.828125 L 9.730469 69.808594 L 9.777344 69.796875 L 9.832031 69.773438 L 10.003906 69.726562 L 10.105469 69.707031 L 10.230469 69.707031 L 10.253906 69.695312 Z M 10.636719 69.695312 Z M 10.285156 70.386719 C 9.332031 70.5 9.050781 71.644531 8.980469 72.414062 L 8.980469 72.722656 L 8.960938 72.742188 L 8.960938 74.320312 C 9.027344 75.136719 9.085938 76.191406 9.832031 76.734375 C 10.523438 77.210938 11.441406 76.679688 11.636719 75.941406 C 11.839844 75.398438 11.886719 74.863281 11.929688 74.320312 L 11.929688 72.742188 C 11.863281 71.917969 11.75 70.761719 10.796875 70.429688 L 10.71875 70.410156 L 10.695312 70.386719 L 10.59375 70.386719 L 10.570312 70.363281 L 10.308594 70.363281 Z M 10.285156 70.386719 Z M 10.285156 70.386719 "/>
<path style=" stroke:none;fill-rule:nonzero;fill:rgb(0%,0%,0%);fill-opacity:1;" d="M 15.320312 76.429688 L 15.320312 77.335938 L 14.402344 77.335938 L 14.402344 76.429688 Z M 15.320312 76.429688 Z M 15.320312 76.429688 "/>
<path style=" stroke:none;fill-rule:nonzero;fill:rgb(0%,0%,0%);fill-opacity:1;" d="M 20.183594 69.695312 C 20.480469 69.738281 20.820312 69.773438 21.101562 69.910156 L 21.101562 70.566406 C 20.320312 70.226562 19.300781 70.179688 18.6875 70.875 C 18.144531 71.453125 17.894531 72.3125 17.871094 73.074219 C 18.53125 72.199219 20.015625 71.710938 20.820312 72.621094 C 21.625 73.550781 21.761719 74.886719 21.398438 76.019531 C 21 76.929688 20.082031 77.753906 19.0625 77.5625 C 17.679688 77.449219 17.054688 75.90625 16.988281 74.726562 C 16.726562 73.0625 17.125 70.964844 18.710938 70.011719 L 18.734375 70 L 18.972656 69.875 L 19.039062 69.851562 L 19.074219 69.828125 L 19.265625 69.773438 L 19.425781 69.726562 L 19.527344 69.707031 L 19.652344 69.707031 L 19.675781 69.695312 Z M 20.183594 69.695312 Z M 19.074219 72.847656 C 18.085938 73.015625 17.769531 74.207031 17.894531 75.011719 C 17.953125 75.769531 18.246094 76.78125 19.117188 76.9375 C 20.046875 77.0625 20.648438 76.066406 20.671875 75.261719 C 20.71875 74.445312 20.671875 73.515625 19.957031 72.980469 L 19.800781 72.902344 L 19.675781 72.867188 L 19.574219 72.847656 L 19.550781 72.824219 L 19.097656 72.824219 Z M 19.074219 72.847656 Z M 19.074219 72.847656 "/>
<path style=" stroke:none;fill-rule:nonzero;fill:rgb(0%,0%,0%);fill-opacity:1;" d="M 10.636719 36.664062 C 11.714844 36.742188 12.429688 37.726562 12.621094 38.726562 C 12.722656 39.179688 12.746094 39.609375 12.792969 40.0625 L 12.792969 41.21875 C 12.734375 42.398438 12.453125 43.953125 11.171875 44.429688 C 10.058594 44.871094 8.753906 44.179688 8.425781 43.046875 C 8.175781 42.445312 8.15625 41.832031 8.097656 41.21875 L 8.097656 40.0625 C 8.15625 38.882812 8.402344 37.320312 9.675781 36.796875 L 9.730469 36.777344 L 9.777344 36.765625 L 9.832031 36.742188 L 10.003906 36.695312 L 10.105469 36.671875 L 10.230469 36.671875 L 10.253906 36.664062 Z M 10.636719 36.664062 Z M 10.285156 37.355469 C 9.332031 37.46875 9.050781 38.613281 8.980469 39.382812 L 8.980469 39.691406 L 8.960938 39.710938 L 8.960938 41.289062 C 9.027344 42.105469 9.085938 43.160156 9.832031 43.703125 C 10.523438 44.179688 11.441406 43.648438 11.636719 42.910156 C 11.839844 42.367188 11.886719 41.832031 11.929688 41.289062 L 11.929688 39.710938 C 11.863281 38.882812 11.75 37.726562 10.796875 37.398438 L 10.71875 37.375 L 10.695312 37.355469 L 10.59375 37.355469 L 10.570312 37.332031 L 10.308594 37.332031 Z M 10.285156 37.355469 Z M 10.285156 37.355469 "/>
<path style=" stroke:none;fill-rule:nonzero;fill:rgb(0%,0%,0%);fill-opacity:1;" d="M 15.320312 43.398438 L 15.320312 44.304688 L 14.402344 44.304688 L 14.402344 43.398438 Z M 15.320312 43.398438 Z M 15.320312 43.398438 "/>
<path style=" stroke:none;fill-rule:nonzero;fill:rgb(0%,0%,0%);fill-opacity:1;" d="M 19.46875 36.664062 C 20.671875 36.707031 21.804688 38 21.332031 39.203125 C 21.125 39.757812 20.558594 40.097656 20.09375 40.335938 C 21.25 40.675781 21.953125 42.027344 21.433594 43.136719 C 20.886719 44.578125 18.824219 45.03125 17.691406 43.988281 C 16.660156 43.171875 16.625 41.402344 17.769531 40.675781 C 17.941406 40.496094 18.257812 40.4375 18.40625 40.300781 C 17.417969 40.019531 16.75 38.875 17.214844 37.910156 C 17.589844 37.046875 18.550781 36.570312 19.46875 36.664062 Z M 19.46875 36.664062 Z M 19.039062 37.308594 C 18.199219 37.332031 17.609375 38.285156 17.894531 39.03125 C 18.222656 40.324219 20.390625 40.277344 20.636719 38.953125 C 20.863281 38.214844 20.277344 37.332031 19.46875 37.308594 L 19.449219 37.296875 L 19.0625 37.296875 Z M 19.039062 37.308594 Z M 19.0625 40.675781 C 18.074219 40.746094 17.589844 41.921875 17.847656 42.761719 C 18.019531 43.953125 19.71875 44.304688 20.390625 43.351562 C 21.035156 42.480469 20.71875 40.914062 19.550781 40.675781 L 19.449219 40.675781 L 19.425781 40.652344 L 19.074219 40.652344 Z M 19.0625 40.675781 Z M 19.0625 40.675781 "/>
<path style=" stroke:none;fill-rule:nonzero;fill:rgb(0%,0%,0%);fill-opacity:1;" d="M 10.988281 3.628906 L 10.988281 10.625 L 11 10.648438 L 12.394531 10.648438 L 12.394531 11.273438 L 8.710938 11.273438 L 8.710938 10.648438 L 10.105469 10.648438 L 10.128906 10.625 L 10.128906 4.753906 C 9.652344 4.910156 9.152344 5.015625 8.652344 5.003906 L 8.652344 4.367188 C 9.402344 4.378906 10.21875 4.175781 10.785156 3.628906 Z M 10.988281 3.628906 Z M 10.988281 3.628906 "/>
<path style=" stroke:none;fill-rule:nonzero;fill:rgb(0%,0%,0%);fill-opacity:1;" d="M 15.320312 10.367188 L 15.320312 11.273438 L 14.402344 11.273438 L 14.402344 10.367188 Z M 15.320312 10.367188 Z M 15.320312 10.367188 "/>
<path style=" stroke:none;fill-rule:nonzero;fill:rgb(0%,0%,0%);fill-opacity:1;" d="M 19.449219 3.628906 C 20.523438 3.710938 21.238281 4.695312 21.433594 5.695312 C 21.535156 6.148438 21.558594 6.578125 21.601562 7.03125 L 21.601562 8.1875 C 21.546875 9.367188 21.261719 10.921875 19.980469 11.398438 C 18.871094 11.839844 17.566406 11.148438 17.238281 10.015625 C 16.988281 9.414062 16.964844 8.800781 16.90625 8.1875 L 16.90625 7.03125 C 16.964844 5.851562 17.214844 4.289062 18.484375 3.765625 L 18.539062 3.742188 L 18.585938 3.734375 L 18.644531 3.710938 L 18.8125 3.664062 L 18.914062 3.640625 L 19.039062 3.640625 L 19.0625 3.628906 Z M 19.449219 3.628906 Z M 19.097656 4.320312 C 18.144531 4.4375 17.859375 5.582031 17.792969 6.351562 L 17.792969 6.65625 L 17.769531 6.679688 L 17.769531 8.257812 C 17.835938 9.074219 17.894531 10.128906 18.644531 10.671875 C 19.335938 11.148438 20.253906 10.613281 20.445312 9.878906 C 20.648438 9.332031 20.695312 8.800781 20.742188 8.257812 L 20.742188 6.679688 C 20.671875 5.851562 20.558594 4.695312 19.605469 4.367188 L 19.527344 4.34375 L 19.503906 4.320312 L 19.402344 4.320312 L 19.378906 4.300781 L 19.117188 4.300781 Z M 19.097656 4.320312 Z M 19.097656 4.320312 "/>
<path style="fill:none;stroke-width:0.02;stroke-linecap:butt;stroke-linejoin:miter;stroke:rgb(0%,0%,0%);stroke-opacity:1;stroke-miterlimit:10;" d="M 11.644561 1.777288 L 11.49463 1.777288 " transform="matrix(28.346457,0,0,-28.346457,1,256.11811)"/>
<path style="fill:none;stroke-width:0.02;stroke-linecap:butt;stroke-linejoin:miter;stroke:rgb(0%,0%,0%);stroke-opacity:1;stroke-miterlimit:10;" d="M 11.644561 2.942558 L 11.49463 2.942558 " transform="matrix(28.346457,0,0,-28.346457,1,256.11811)"/>
<path style="fill:none;stroke-width:0.02;stroke-linecap:butt;stroke-linejoin:miter;stroke:rgb(0%,0%,0%);stroke-opacity:1;stroke-miterlimit:10;" d="M 11.644561 4.107827 L 11.49463 4.107827 " transform="matrix(28.346457,0,0,-28.346457,1,256.11811)"/>
<path style="fill:none;stroke-width:0.02;stroke-linecap:butt;stroke-linejoin:miter;stroke:rgb(0%,0%,0%);stroke-opacity:1;stroke-miterlimit:10;" d="M 11.644561 5.273096 L 11.49463 5.273096 " transform="matrix(28.346457,0,0,-28.346457,1,256.11811)"/>
<path style="fill:none;stroke-width:0.02;stroke-linecap:butt;stroke-linejoin:miter;stroke:rgb(0%,0%,0%);stroke-opacity:1;stroke-miterlimit:10;" d="M 11.644561 6.438365 L 11.49463 6.438365 " transform="matrix(28.346457,0,0,-28.346457,1,256.11811)"/>
<path style="fill:none;stroke-width:0.02;stroke-linecap:butt;stroke-linejoin:miter;stroke:rgb(0%,0%,0%);stroke-opacity:1;stroke-miterlimit:10;" d="M 11.644561 7.603772 L 11.49463 7.603772 " transform="matrix(28.346457,0,0,-28.346457,1,256.11811)"/>
<path style="fill:none;stroke-width:0.02;stroke-linecap:round;stroke-linejoin:miter;stroke:rgb(0%,0%,0%);stroke-opacity:1;stroke-miterlimit:10;" d="M 11.644561 0.612019 L 11.644561 8.769041 " transform="matrix(28.346457,0,0,-28.346457,1,256.11811)"/>
<path style="fill:none;stroke-width:0.02;stroke-linecap:butt;stroke-linejoin:miter;stroke:rgb(0%,0%,0%);stroke-opacity:1;stroke-miterlimit:10;" d="M 2.769168 0.612019 L 2.769168 0.76195 " transform="matrix(28.346457,0,0,-28.346457,1,256.11811)"/>
<path style="fill:none;stroke-width:0.02;stroke-linecap:butt;stroke-linejoin:miter;stroke:rgb(0%,0%,0%);stroke-opacity:1;stroke-miterlimit:10;" d="M 4.544219 0.612019 L 4.544219 0.76195 " transform="matrix(28.346457,0,0,-28.346457,1,256.11811)"/>
<path style="fill:none;stroke-width:0.02;stroke-linecap:butt;stroke-linejoin:miter;stroke:rgb(0%,0%,0%);stroke-opacity:1;stroke-miterlimit:10;" d="M 6.31927 0.612019 L 6.31927 0.76195 " transform="matrix(28.346457,0,0,-28.346457,1,256.11811)"/>
<path style="fill:none;stroke-width:0.02;stroke-linecap:butt;stroke-linejoin:miter;stroke:rgb(0%,0%,0%);stroke-opacity:1;stroke-miterlimit:10;" d="M 8.094459 0.612019 L 8.094459 0.76195 " transform="matrix(28.346457,0,0,-28.346457,1,256.11811)"/>
<path style="fill:none;stroke-width:0.02;stroke-linecap:butt;stroke-linejoin:miter;stroke:rgb(0%,0%,0%);stroke-opacity:1;stroke-miterlimit:10;" d="M 9.86951 0.612019 L 9.86951 0.76195 " transform="matrix(28.346457,0,0,-28.346457,1,256.11811)"/>
<path style="fill:none;stroke-width:0.02;stroke-linecap:round;stroke-linejoin:miter;stroke:rgb(0%,0%,0%);stroke-opacity:1;stroke-miterlimit:10;" d="M 0.993979 0.612019 L 11.644561 0.612019 " transform="matrix(28.346457,0,0,-28.346457,1,256.11811)"/>
<path style=" stroke:none;fill-rule:nonzero;fill:rgb(0%,0%,0%);fill-opacity:1;" d="M 24.964844 245.652344 C 26.042969 245.730469 26.753906 246.71875 26.949219 247.714844 C 27.050781 248.167969 27.074219 248.601562 27.117188 249.054688 L 27.117188 250.210938 C 27.0625 251.390625 26.777344 252.941406 25.496094 253.417969 C 24.386719 253.863281 23.082031 253.171875 22.753906 252.035156 C 22.503906 251.433594 22.480469 250.824219 22.425781 250.210938 L 22.425781 249.054688 C 22.480469 247.875 22.730469 246.308594 24 245.789062 L 24.058594 245.765625 L 24.101562 245.753906 L 24.160156 245.730469 L 24.328125 245.6875 L 24.429688 245.664062 L 24.554688 245.664062 L 24.578125 245.652344 Z M 24.964844 245.652344 Z M 24.613281 246.34375 C 23.660156 246.457031 23.375 247.601562 23.308594 248.375 L 23.308594 248.679688 L 23.285156 248.703125 L 23.285156 250.277344 C 23.355469 251.09375 23.410156 252.148438 24.160156 252.695312 C 24.851562 253.171875 25.769531 252.636719 25.960938 251.898438 C 26.164062 251.355469 26.210938 250.824219 26.257812 250.277344 L 26.257812 248.703125 C 26.1875 247.875 26.074219 246.71875 25.121094 246.390625 L 25.042969 246.367188 L 25.019531 246.34375 L 24.917969 246.34375 L 24.894531 246.320312 L 24.636719 246.320312 Z M 24.613281 246.34375 Z M 24.613281 246.34375 "/>
<path style=" stroke:none;fill-rule:nonzero;fill:rgb(0%,0%,0%);fill-opacity:1;" d="M 29.648438 252.386719 L 29.648438 253.292969 L 28.726562 253.292969 L 28.726562 252.386719 Z M 29.648438 252.386719 Z M 29.648438 252.386719 "/>
<path style=" stroke:none;fill-rule:nonzero;fill:rgb(0%,0%,0%);fill-opacity:1;" d="M 33.773438 245.652344 C 34.851562 245.730469 35.566406 246.71875 35.757812 247.714844 C 35.859375 248.167969 35.882812 248.601562 35.929688 249.054688 L 35.929688 250.210938 C 35.871094 251.390625 35.589844 252.941406 34.308594 253.417969 C 33.195312 253.863281 31.890625 253.171875 31.5625 252.035156 C 31.3125 251.433594 31.292969 250.824219 31.234375 250.210938 L 31.234375 249.054688 C 31.292969 247.875 31.539062 246.308594 32.808594 245.789062 L 32.867188 245.765625 L 32.914062 245.753906 L 32.96875 245.730469 L 33.140625 245.6875 L 33.242188 245.664062 L 33.367188 245.664062 L 33.386719 245.652344 Z M 33.773438 245.652344 Z M 33.421875 246.34375 C 32.46875 246.457031 32.1875 247.601562 32.117188 248.375 L 32.117188 248.679688 L 32.097656 248.703125 L 32.097656 250.277344 C 32.164062 251.09375 32.222656 252.148438 32.96875 252.695312 C 33.660156 253.171875 34.578125 252.636719 34.773438 251.898438 C 34.976562 251.355469 35.019531 250.824219 35.066406 250.277344 L 35.066406 248.703125 C 35 247.875 34.886719 246.71875 33.933594 246.390625 L 33.855469 246.367188 L 33.832031 246.34375 L 33.730469 246.34375 L 33.707031 246.320312 L 33.445312 246.320312 Z M 33.421875 246.34375 Z M 33.421875 246.34375 "/>
<path style=" stroke:none;fill-rule:nonzero;fill:rgb(0%,0%,0%);fill-opacity:1;" d="M 75.28125 245.652344 C 76.359375 245.730469 77.074219 246.71875 77.265625 247.714844 C 77.367188 248.167969 77.390625 248.601562 77.4375 249.054688 L 77.4375 250.210938 C 77.378906 251.390625 77.097656 252.941406 75.816406 253.417969 C 74.703125 253.863281 73.398438 253.171875 73.070312 252.035156 C 72.820312 251.433594 72.796875 250.824219 72.742188 250.210938 L 72.742188 249.054688 C 72.796875 247.875 73.046875 246.308594 74.316406 245.789062 L 74.375 245.765625 L 74.421875 245.753906 L 74.476562 245.730469 L 74.648438 245.6875 L 74.75 245.664062 L 74.875 245.664062 L 74.894531 245.652344 Z M 75.28125 245.652344 Z M 74.929688 246.34375 C 73.976562 246.457031 73.695312 247.601562 73.625 248.375 L 73.625 248.679688 L 73.605469 248.703125 L 73.605469 250.277344 C 73.671875 251.09375 73.726562 252.148438 74.476562 252.695312 C 75.167969 253.171875 76.085938 252.636719 76.28125 251.898438 C 76.484375 251.355469 76.527344 250.824219 76.574219 250.277344 L 76.574219 248.703125 C 76.507812 247.875 76.394531 246.71875 75.441406 246.390625 L 75.359375 246.367188 L 75.339844 246.34375 L 75.238281 246.34375 L 75.214844 246.320312 L 74.953125 246.320312 Z M 74.929688 246.34375 Z M 74.929688 246.34375 "/>
<path style=" stroke:none;fill-rule:nonzero;fill:rgb(0%,0%,0%);fill-opacity:1;" d="M 79.964844 252.386719 L 79.964844 253.292969 L 79.046875 253.292969 L 79.046875 252.386719 Z M 79.964844 252.386719 Z M 79.964844 252.386719 "/>
<path style=" stroke:none;fill-rule:nonzero;fill:rgb(0%,0%,0%);fill-opacity:1;" d="M 85.769531 245.890625 L 85.769531 246.59375 L 82.820312 246.59375 L 82.800781 246.605469 L 82.800781 248.929688 C 83.070312 248.746094 83.457031 248.511719 83.820312 248.5 C 85.101562 248.363281 86.085938 249.621094 86.144531 250.789062 C 86.324219 252.273438 84.929688 253.75 83.433594 253.523438 C 82.6875 253.5 81.960938 253.058594 81.53125 252.445312 C 81.652344 252.273438 81.757812 251.980469 81.902344 251.878906 C 82.4375 252.921875 84.160156 253.339844 84.851562 252.242188 C 85.292969 251.414062 85.28125 250.359375 84.773438 249.5625 C 84.183594 248.804688 83.015625 249.269531 82.742188 250.074219 L 82.003906 250.074219 L 82.003906 245.890625 Z M 85.769531 245.890625 Z M 85.769531 245.890625 "/>
<path style=" stroke:none;fill-rule:nonzero;fill:rgb(0%,0%,0%);fill-opacity:1;" d="M 125.953125 245.652344 L 125.953125 252.648438 L 125.960938 252.671875 L 127.355469 252.671875 L 127.355469 253.292969 L 123.671875 253.292969 L 123.671875 252.671875 L 125.066406 252.671875 L 125.089844 252.648438 L 125.089844 246.773438 C 124.613281 246.933594 124.113281 247.035156 123.617188 247.023438 L 123.617188 246.390625 C 124.363281 246.402344 125.179688 246.195312 125.746094 245.652344 Z M 125.953125 245.652344 Z M 125.953125 245.652344 "/>
<path style=" stroke:none;fill-rule:nonzero;fill:rgb(0%,0%,0%);fill-opacity:1;" d="M 130.28125 252.386719 L 130.28125 253.292969 L 129.363281 253.292969 L 129.363281 252.386719 Z M 130.28125 252.386719 Z M 130.28125 252.386719 "/>
<path style=" stroke:none;fill-rule:nonzero;fill:rgb(0%,0%,0%);fill-opacity:1;" d="M 134.410156 245.652344 C 135.488281 245.730469 136.203125 246.71875 136.394531 247.714844 C 136.496094 248.167969 136.519531 248.601562 136.5625 249.054688 L 136.5625 250.210938 C 136.507812 251.390625 136.222656 252.941406 134.941406 253.417969 C 133.832031 253.863281 132.527344 253.171875 132.199219 252.035156 C 131.949219 251.433594 131.925781 250.824219 131.871094 250.210938 L 131.871094 249.054688 C 131.925781 247.875 132.175781 246.308594 133.445312 245.789062 L 133.503906 245.765625 L 133.546875 245.753906 L 133.605469 245.730469 L 133.773438 245.6875 L 133.875 245.664062 L 134 245.664062 L 134.023438 245.652344 Z M 134.410156 245.652344 Z M 134.058594 246.34375 C 133.105469 246.457031 132.824219 247.601562 132.753906 248.375 L 132.753906 248.679688 L 132.730469 248.703125 L 132.730469 250.277344 C 132.800781 251.09375 132.855469 252.148438 133.605469 252.695312 C 134.296875 253.171875 135.214844 252.636719 135.40625 251.898438 C 135.613281 251.355469 135.65625 250.824219 135.703125 250.277344 L 135.703125 248.703125 C 135.632812 247.875 135.519531 246.71875 134.570312 246.390625 L 134.488281 246.367188 L 134.464844 246.34375 L 134.363281 246.34375 L 134.339844 246.320312 L 134.082031 246.320312 Z M 134.058594 246.34375 Z M 134.058594 246.34375 "/>
<path style=" stroke:none;fill-rule:nonzero;fill:rgb(0%,0%,0%);fill-opacity:1;" d="M 176.269531 245.652344 L 176.269531 252.648438 L 176.28125 252.671875 L 177.675781 252.671875 L 177.675781 253.292969 L 173.988281 253.292969 L 173.988281 252.671875 L 175.382812 252.671875 L 175.40625 252.648438 L 175.40625 246.773438 C 174.929688 246.933594 174.433594 247.035156 173.933594 247.023438 L 173.933594 246.390625 C 174.679688 246.402344 175.496094 246.195312 176.066406 245.652344 Z M 176.269531 245.652344 Z M 176.269531 245.652344 "/>
<path style=" stroke:none;fill-rule:nonzero;fill:rgb(0%,0%,0%);fill-opacity:1;" d="M 180.601562 252.386719 L 180.601562 253.292969 L 179.683594 253.292969 L 179.683594 252.386719 Z M 180.601562 252.386719 Z M 180.601562 252.386719 "/>
<path style=" stroke:none;fill-rule:nonzero;fill:rgb(0%,0%,0%);fill-opacity:1;" d="M 186.40625 245.890625 L 186.40625 246.59375 L 183.457031 246.59375 L 183.433594 246.605469 L 183.433594 248.929688 C 183.707031 248.746094 184.09375 248.511719 184.457031 248.5 C 185.738281 248.363281 186.722656 249.621094 186.78125 250.789062 C 186.960938 252.273438 185.566406 253.75 184.070312 253.523438 C 183.320312 253.5 182.597656 253.058594 182.164062 252.445312 C 182.289062 252.273438 182.390625 251.980469 182.539062 251.878906 C 183.070312 252.921875 184.796875 253.339844 185.488281 252.242188 C 185.929688 251.414062 185.917969 250.359375 185.40625 249.5625 C 184.816406 248.804688 183.652344 249.269531 183.378906 250.074219 L 182.640625 250.074219 L 182.640625 245.890625 Z M 186.40625 245.890625 Z M 186.40625 245.890625 "/>
<path style=" stroke:none;fill-rule:nonzero;fill:rgb(0%,0%,0%);fill-opacity:1;" d="M 226.109375 245.652344 C 227.425781 245.6875 228.46875 247.035156 228.265625 248.304688 C 228.128906 249.574219 226.9375 250.300781 226.085938 251.09375 L 225.726562 251.46875 L 225.679688 251.492188 L 225.226562 251.933594 L 225.191406 251.957031 L 224.738281 252.410156 L 224.691406 252.433594 L 224.589844 252.535156 L 224.613281 252.546875 L 228.289062 252.546875 L 228.289062 253.292969 L 223.796875 253.292969 L 223.796875 252.613281 L 225.621094 250.789062 C 226.496094 250.027344 227.515625 249.042969 227.359375 247.796875 C 227.265625 247.070312 226.65625 246.402344 225.90625 246.34375 C 225.148438 246.230469 224.476562 246.832031 224.308594 247.558594 L 224.285156 247.589844 L 224.261719 247.671875 L 224.226562 247.796875 L 224.160156 248.046875 L 224.148438 248.101562 C 223.992188 247.910156 223.820312 247.703125 223.695312 247.488281 C 223.921875 246.558594 224.671875 245.6875 225.65625 245.652344 Z M 226.109375 245.652344 Z M 226.109375 245.652344 "/>
<path style=" stroke:none;fill-rule:nonzero;fill:rgb(0%,0%,0%);fill-opacity:1;" d="M 230.917969 252.386719 L 230.917969 253.292969 L 230 253.292969 L 230 252.386719 Z M 230.917969 252.386719 Z M 230.917969 252.386719 "/>
<path style=" stroke:none;fill-rule:nonzero;fill:rgb(0%,0%,0%);fill-opacity:1;" d="M 235.046875 245.652344 C 236.121094 245.730469 236.835938 246.71875 237.03125 247.714844 C 237.132812 248.167969 237.15625 248.601562 237.199219 249.054688 L 237.199219 250.210938 C 237.144531 251.390625 236.859375 252.941406 235.578125 253.417969 C 234.46875 253.863281 233.164062 253.171875 232.835938 252.035156 C 232.585938 251.433594 232.5625 250.824219 232.503906 250.210938 L 232.503906 249.054688 C 232.5625 247.875 232.8125 246.308594 234.082031 245.789062 L 234.136719 245.765625 L 234.183594 245.753906 L 234.242188 245.730469 L 234.410156 245.6875 L 234.511719 245.664062 L 234.636719 245.664062 L 234.660156 245.652344 Z M 235.046875 245.652344 Z M 234.695312 246.34375 C 233.742188 246.457031 233.457031 247.601562 233.390625 248.375 L 233.390625 248.679688 L 233.367188 248.703125 L 233.367188 250.277344 C 233.433594 251.09375 233.492188 252.148438 234.242188 252.695312 C 234.933594 253.171875 235.851562 252.636719 236.042969 251.898438 C 236.246094 251.355469 236.292969 250.824219 236.339844 250.277344 L 236.339844 248.703125 C 236.269531 247.875 236.15625 246.71875 235.203125 246.390625 L 235.125 246.367188 L 235.101562 246.34375 L 235 246.34375 L 234.976562 246.320312 L 234.714844 246.320312 Z M 234.695312 246.34375 Z M 234.695312 246.34375 "/>
<path style=" stroke:none;fill-rule:nonzero;fill:rgb(0%,0%,0%);fill-opacity:1;" d="M 276.429688 245.652344 C 277.742188 245.6875 278.785156 247.035156 278.582031 248.304688 C 278.445312 249.574219 277.257812 250.300781 276.40625 251.09375 L 276.042969 251.46875 L 275.996094 251.492188 L 275.542969 251.933594 L 275.511719 251.957031 L 275.054688 252.410156 L 275.011719 252.433594 L 274.910156 252.535156 L 274.933594 252.546875 L 278.605469 252.546875 L 278.605469 253.292969 L 274.117188 253.292969 L 274.117188 252.613281 L 275.941406 250.789062 C 276.8125 250.027344 277.835938 249.042969 277.675781 247.796875 C 277.585938 247.070312 276.972656 246.402344 276.222656 246.34375 C 275.464844 246.230469 274.796875 246.832031 274.625 247.558594 L 274.601562 247.589844 L 274.582031 247.671875 L 274.476562 248.046875 L 274.464844 248.101562 C 274.308594 247.910156 274.136719 247.703125 274.011719 247.488281 C 274.238281 246.558594 274.988281 245.6875 275.976562 245.652344 Z M 276.429688 245.652344 Z M 276.429688 245.652344 "/>
<path style=" stroke:none;fill-rule:nonzero;fill:rgb(0%,0%,0%);fill-opacity:1;" d="M 281.234375 252.386719 L 281.234375 253.292969 L 280.316406 253.292969 L 280.316406 252.386719 Z M 281.234375 252.386719 Z M 281.234375 252.386719 "/>
<path style=" stroke:none;fill-rule:nonzero;fill:rgb(0%,0%,0%);fill-opacity:1;" d="M 287.042969 245.890625 L 287.042969 246.59375 L 284.09375 246.59375 L 284.070312 246.605469 L 284.070312 248.929688 C 284.34375 248.746094 284.726562 248.511719 285.089844 248.5 C 286.371094 248.363281 287.359375 249.621094 287.414062 250.789062 C 287.597656 252.273438 286.203125 253.75 284.707031 253.523438 C 283.957031 253.5 283.230469 253.058594 282.800781 252.445312 C 282.925781 252.273438 283.027344 251.980469 283.175781 251.878906 C 283.707031 252.921875 285.429688 253.339844 286.121094 252.242188 C 286.566406 251.414062 286.554688 250.359375 286.042969 249.5625 C 285.453125 248.804688 284.285156 249.269531 284.015625 250.074219 L 283.277344 250.074219 L 283.277344 245.890625 Z M 287.042969 245.890625 Z M 287.042969 245.890625 "/>
<path style=" stroke:none;fill-rule:nonzero;fill:rgb(0%,0%,0%);fill-opacity:1;" d="M 326.894531 245.652344 C 327.890625 245.699219 328.933594 246.617188 328.695312 247.671875 C 328.582031 248.386719 328.085938 248.976562 327.460938 249.292969 C 328.46875 249.609375 329.253906 250.675781 328.980469 251.730469 C 328.707031 253.101562 327.132812 253.863281 325.863281 253.441406 C 325.25 253.261719 324.625 252.875 324.332031 252.308594 C 324.398438 252.136719 324.375 251.84375 324.457031 251.730469 C 325.058594 252.613281 326.328125 253.214844 327.324219 252.714844 C 328.414062 252.023438 328.242188 250.007812 326.925781 249.667969 L 326.824219 249.667969 L 326.804688 249.644531 L 325.75 249.644531 L 325.75 248.964844 C 326.394531 248.953125 327.199219 248.871094 327.5625 248.203125 C 327.949219 247.625 327.914062 246.671875 327.175781 246.390625 C 326.304688 246.050781 325.226562 246.605469 324.898438 247.488281 C 324.761719 247.296875 324.625 247.105469 324.488281 246.898438 C 324.953125 246.0625 325.941406 245.5625 326.894531 245.652344 Z M 326.894531 245.652344 Z M 326.894531 245.652344 "/>
<path style=" stroke:none;fill-rule:nonzero;fill:rgb(0%,0%,0%);fill-opacity:1;" d="M 331.554688 252.386719 L 331.554688 253.292969 L 330.636719 253.292969 L 330.636719 252.386719 Z M 331.554688 252.386719 Z M 331.554688 252.386719 "/>
<path style=" stroke:none;fill-rule:nonzero;fill:rgb(0%,0%,0%);fill-opacity:1;" d="M 335.679688 245.652344 C 336.757812 245.730469 337.472656 246.71875 337.664062 247.714844 C 337.765625 248.167969 337.789062 248.601562 337.835938 249.054688 L 337.835938 250.210938 C 337.777344 251.390625 337.496094 252.941406 336.214844 253.417969 C 335.101562 253.863281 333.796875 253.171875 333.46875 252.035156 C 333.21875 251.433594 333.199219 250.824219 333.140625 250.210938 L 333.140625 249.054688 C 333.199219 247.875 333.445312 246.308594 334.71875 245.789062 L 334.773438 245.765625 L 334.820312 245.753906 L 334.875 245.730469 L 335.046875 245.6875 L 335.148438 245.664062 L 335.273438 245.664062 L 335.296875 245.652344 Z M 335.679688 245.652344 Z M 335.328125 246.34375 C 334.378906 246.457031 334.09375 247.601562 334.027344 248.375 L 334.027344 248.679688 L 334.003906 248.703125 L 334.003906 250.277344 C 334.070312 251.09375 334.128906 252.148438 334.875 252.695312 C 335.566406 253.171875 336.484375 252.636719 336.679688 251.898438 C 336.882812 251.355469 336.929688 250.824219 336.972656 250.277344 L 336.972656 248.703125 C 336.90625 247.875 336.792969 246.71875 335.839844 246.390625 L 335.761719 246.367188 L 335.738281 246.34375 L 335.636719 246.34375 L 335.613281 246.320312 L 335.351562 246.320312 Z M 335.328125 246.34375 Z M 335.328125 246.34375 "/>
<path style="fill:none;stroke-width:0.02;stroke-linecap:butt;stroke-linejoin:miter;stroke:rgb(0%,0%,0%);stroke-opacity:1;stroke-miterlimit:10;" d="M 2.769168 8.769041 L 2.769168 8.618972 " transform="matrix(28.346457,0,0,-28.346457,1,256.11811)"/>
<path style="fill:none;stroke-width:0.02;stroke-linecap:butt;stroke-linejoin:miter;stroke:rgb(0%,0%,0%);stroke-opacity:1;stroke-miterlimit:10;" d="M 4.544219 8.769041 L 4.544219 8.618972 " transform="matrix(28.346457,0,0,-28.346457,1,256.11811)"/>
<path style="fill:none;stroke-width:0.02;stroke-linecap:butt;stroke-linejoin:miter;stroke:rgb(0%,0%,0%);stroke-opacity:1;stroke-miterlimit:10;" d="M 6.31927 8.769041 L 6.31927 8.618972 " transform="matrix(28.346457,0,0,-28.346457,1,256.11811)"/>
<path style="fill:none;stroke-width:0.02;stroke-linecap:butt;stroke-linejoin:miter;stroke:rgb(0%,0%,0%);stroke-opacity:1;stroke-miterlimit:10;" d="M 8.094459 8.769041 L 8.094459 8.618972 " transform="matrix(28.346457,0,0,-28.346457,1,256.11811)"/>
<path style="fill:none;stroke-width:0.02;stroke-linecap:butt;stroke-linejoin:miter;stroke:rgb(0%,0%,0%);stroke-opacity:1;stroke-miterlimit:10;" d="M 9.86951 8.769041 L 9.86951 8.618972 " transform="matrix(28.346457,0,0,-28.346457,1,256.11811)"/>
<path style="fill:none;stroke-width:0.02;stroke-linecap:round;stroke-linejoin:miter;stroke:rgb(0%,0%,0%);stroke-opacity:1;stroke-miterlimit:10;" d="M 0.993979 8.769041 L 11.644561 8.769041 " transform="matrix(28.346457,0,0,-28.346457,1,256.11811)"/>
<path style="fill:none;stroke-width:0.05;stroke-linecap:butt;stroke-linejoin:miter;stroke:rgb(33%,47%,64%);stroke-opacity:1;stroke-miterlimit:10;" d="M 0.993979 8.769041 L 1.029532 8.767801 L 1.064948 8.764907 L 1.100501 8.760084 L 1.136055 8.753469 L 1.17147 8.745063 L 1.207024 8.73459 L 1.242577 8.722325 L 1.277993 8.708132 L 1.313546 8.691871 L 1.348962 8.673681 L 1.384515 8.653561 L 1.420068 8.631926 L 1.455484 8.608499 L 1.491037 8.583281 L 1.526591 8.556272 L 1.562006 8.527471 L 1.59756 8.496878 L 1.632975 8.464219 L 1.668529 8.42963 L 1.704082 8.393112 L 1.739498 8.35494 L 1.775051 8.315528 L 1.810604 8.274601 L 1.84602 8.232295 L 1.881573 8.188611 L 1.916989 8.143136 L 1.952542 8.096007 L 1.988096 8.047224 L 2.023511 7.996513 L 2.059065 7.944009 L 2.094618 7.88999 L 2.130034 7.835007 L 2.165587 7.779196 L 2.201003 7.722283 L 2.236556 7.66413 L 2.272109 7.604736 L 2.307525 7.543965 L 2.343078 7.481678 L 2.378632 7.417737 L 2.414047 7.352142 L 2.449601 7.285445 L 2.485016 7.218472 L 2.52057 7.150811 L 2.556123 7.08246 L 2.591539 7.013282 L 2.627092 6.943278 L 2.662645 6.872309 L 2.698061 6.8001 L 2.733614 6.72665 L 2.769168 6.651823 L 2.804583 6.576169 L 2.840137 6.500377 L 2.875552 6.424309 L 2.911106 6.348103 L 2.946659 6.271484 L 2.982075 6.19459 L 3.017628 6.117282 L 3.053181 6.039423 L 3.088597 5.96115 L 3.12415 5.882326 L 3.159566 5.803089 L 3.195119 5.723576 L 3.230673 5.643788 L 3.266088 5.564 L 3.301642 5.484073 L 3.337195 5.404285 L 3.372611 5.324497 L 3.408164 5.244846 L 3.44358 5.165333 L 3.479133 5.085958 L 3.514686 5.006997 L 3.550102 4.928311 L 3.585655 4.849762 L 3.621209 4.771352 L 3.656624 4.693355 L 3.692178 4.615358 L 3.727593 4.537637 L 3.763147 4.460053 L 3.7987 4.382607 L 3.834116 4.305162 L 3.869669 4.228543 L 3.905222 4.153164 L 3.940638 4.07875 L 3.976191 4.005438 L 4.011607 3.932816 L 4.04716 3.86102 L 4.082714 3.789913 L 4.118129 3.719358 L 4.153683 3.649215 L 4.189236 3.579349 L 4.224652 3.510309 L 4.260205 3.442785 L 4.295621 3.376502 L 4.331174 3.311458 L 4.366727 3.247655 L 4.402143 3.184817 L 4.437696 3.122943 L 4.47325 3.062033 L 4.508665 3.001951 L 4.544219 2.942558 L 4.579634 2.884266 L 4.615188 2.827491 L 4.650741 2.772232 L 4.686157 2.718351 L 4.72171 2.665847 L 4.757263 2.614584 L 4.792679 2.564699 L 4.828232 2.515917 L 4.863786 2.468237 L 4.899201 2.421521 L 4.934755 2.376184 L 4.97017 2.3325 L 5.005724 2.290194 L 5.041277 2.249404 L 5.076693 2.209992 L 5.112246 2.172096 L 5.147799 2.135578 L 5.183215 2.100438 L 5.218768 2.066676 L 5.254184 2.034155 L 5.289737 2.003011 L 5.325291 1.973383 L 5.360706 1.945133 L 5.39626 1.9184 L 5.431813 1.893044 L 5.467229 1.869204 L 5.502782 1.846742 L 5.538198 1.825795 L 5.573751 1.806365 L 5.609304 1.788451 L 5.64472 1.771776 L 5.680273 1.756342 L 5.715827 1.742286 L 5.751242 1.729608 L 5.786796 1.718171 L 5.822211 1.708111 L 5.857765 1.699567 L 5.893318 1.692401 L 5.928734 1.686751 L 5.964287 1.682755 L 5.99984 1.679861 L 6.035256 1.677932 L 6.070809 1.677105 L 6.106225 1.677518 L 6.141778 1.679034 L 6.177332 1.68179 L 6.212747 1.685787 L 6.248301 1.691161 L 6.283854 1.697913 L 6.31927 1.706182 L 6.354823 1.715552 L 6.390239 1.725474 L 6.425792 1.736361 L 6.461345 1.747936 L 6.496761 1.760614 L 6.532314 1.774257 L 6.567868 1.788864 L 6.603283 1.804711 L 6.638837 1.821799 L 6.674252 1.840127 L 6.709806 1.859419 L 6.745359 1.878988 L 6.780775 1.899107 L 6.816328 1.91964 L 6.851882 1.940999 L 6.887297 1.963048 L 6.92285 1.985786 L 6.958404 2.009488 L 6.993819 2.034155 L 7.029373 2.059924 L 7.064788 2.086382 L 7.100342 2.112841 L 7.135895 2.139437 L 7.171311 2.166309 L 7.206864 2.193456 L 7.242418 2.221155 L 7.277833 2.249129 L 7.313387 2.277792 L 7.348802 2.307006 L 7.384355 2.33691 L 7.419909 2.367227 L 7.455324 2.397681 L 7.490878 2.427998 L 7.526431 2.458453 L 7.561847 2.488907 L 7.5974 2.519362 L 7.632816 2.549817 L 7.668369 2.580271 L 7.703923 2.610588 L 7.739338 2.640905 L 7.774891 2.671222 L 7.810445 2.701401 L 7.84586 2.731718 L 7.881414 2.761897 L 7.916829 2.792076 L 7.952383 2.822255 L 7.987936 2.852296 L 8.023352 2.882475 L 8.094459 2.942558 L 8.129874 2.972185 L 8.165428 3.001124 L 8.200843 3.029374 L 8.236396 3.05721 L 8.27195 3.084358 L 8.307365 3.111092 L 8.342919 3.13755 L 8.378472 3.163733 L 8.413888 3.18964 L 8.449441 3.215547 L 8.484857 3.240765 L 8.52041 3.265294 L 8.555964 3.289134 L 8.591379 3.312147 L 8.626933 3.334472 L 8.662486 3.356245 L 8.697901 3.377466 L 8.733455 3.398137 L 8.76887 3.418256 L 8.804424 3.4381 L 8.839977 3.457255 L 8.875393 3.475583 L 8.910946 3.493084 L 8.9465 3.509758 L 8.981915 3.525743 L 9.017469 3.540902 L 9.053022 3.555371 L 9.088437 3.569289 L 9.123991 3.582381 L 9.159406 3.594921 L 9.19496 3.606772 L 9.230513 3.617796 L 9.265929 3.627994 L 9.301482 3.637364 L 9.337036 3.646046 L 9.372451 3.653901 L 9.408005 3.660929 L 9.44342 3.667268 L 9.478974 3.67278 L 9.514527 3.677465 L 9.549942 3.681599 L 9.585496 3.684907 L 9.621049 3.687525 L 9.656465 3.689316 L 9.692018 3.690557 L 9.727434 3.690832 L 9.762987 3.690419 L 9.798541 3.689316 L 9.833956 3.687249 L 9.86951 3.684355 L 9.905063 3.68091 L 9.940479 3.676914 L 9.976032 3.672229 L 10.011447 3.666992 L 10.047001 3.661067 L 10.082554 3.65459 L 10.11797 3.647286 L 10.153523 3.639294 L 10.189077 3.630612 L 10.224492 3.620966 L 10.260046 3.610768 L 10.295461 3.600295 L 10.331015 3.589409 L 10.366568 3.578109 L 10.401984 3.566258 L 10.437537 3.553993 L 10.47309 3.541039 L 10.508506 3.527397 L 10.544059 3.513203 L 10.579475 3.49832 L 10.650582 3.467452 L 10.685997 3.451743 L 10.721551 3.435757 L 10.757104 3.419497 L 10.79252 3.40296 L 10.828073 3.385872 L 10.863488 3.368509 L 10.899042 3.350457 L 10.934595 3.331853 L 10.970011 3.312974 L 11.005564 3.294095 L 11.041118 3.275078 L 11.076533 3.256061 L 11.112087 3.237044 L 11.14764 3.21789 L 11.183056 3.198597 L 11.218609 3.179304 L 11.254025 3.159736 L 11.325131 3.1206 L 11.360547 3.100894 L 11.3961 3.081326 L 11.431654 3.06162 L 11.467069 3.041914 L 11.502623 3.022208 L 11.538038 3.002364 L 11.573592 2.982521 L 11.609145 2.962539 L 11.644561 2.942558 " transform="matrix(28.346457,0,0,-28.346457,1,256.11811)"/>
</g>
</svg>
