<?xml version="1.0" encoding="UTF-8"?>
<svg xmlns="http://www.w3.org/2000/svg" xmlns:xlink="http://www.w3.org/1999/xlink" width="342.15748pt" height="257.11811pt" viewBox="0 0 342.15748 257.11811" version="1.1">
<g id="surface1">
<path style="fill:none;stroke-width:0.02;stroke-linecap:butt;stroke-linejoin:miter;stroke:rgb(0%,0%,0%);stroke-opacity:1;stroke-miterlimit:10;" d="M 0.86086 1.971454 L 1.010791 1.971454 " transform="matrix(28.346457,0,0,-28.346457,1,256.11811)"/>
<path style="fill:none;stroke-width:0.02;stroke-linecap:butt;stroke-linejoin:miter;stroke:rgb(0%,0%,0%);stroke-opacity:1;stroke-miterlimit:10;" d="M 0.86086 3.331026 L 1.010791 3.331026 " transform="matrix(28.346457,0,0,-28.346457,1,256.11811)"/>
<path style="fill:none;stroke-width:0.02;stroke-linecap:butt;stroke-linejoin:miter;stroke:rgb(0%,0%,0%);stroke-opacity:1;stroke-miterlimit:10;" d="M 0.86086 4.690461 L 1.010791 4.690461 " transform="matrix(28.346457,0,0,-28.346457,1,256.11811)"/>
<path style="fill:none;stroke-width:0.02;stroke-linecap:butt;stroke-linejoin:miter;stroke:rgb(0%,0%,0%);stroke-opacity:1;stroke-miterlimit:10;" d="M 0.86086 6.050034 L 1.010791 6.050034 " transform="matrix(28.346457,0,0,-28.346457,1,256.11811)"/>
<path style="fill:none;stroke-width:0.02;stroke-linecap:butt;stroke-linejoin:miter;stroke:rgb(0%,0%,0%);stroke-opacity:1;stroke-miterlimit:10;" d="M 0.86086 7.409468 L 1.010791 7.409468 " transform="matrix(28.346457,0,0,-28.346457,1,256.11811)"/>
<path style="fill:none;stroke-width:0.02;stroke-linecap:round;stroke-linejoin:miter;stroke:rgb(0%,0%,0%);stroke-opacity:1;stroke-miterlimit:10;" d="M 0.86086 0.612019 L 0.86086 8.769041 " transform="matrix(28.346457,0,0,-28.346457,1,256.11811)"/>
<path style=" stroke:none;fill-rule:nonzero;fill:rgb(0%,0%,0%);fill-opacity:1;" d="M 6.863281 234.851562 C 7.9375 234.933594 8.652344 235.917969 8.847656 236.917969 C 8.949219 237.371094 8.972656 237.800781 9.015625 238.253906 L 9.015625 239.410156 C 8.960938 240.589844 8.675781 242.144531 7.394531 242.621094 C 6.285156 243.0625 4.980469 242.371094 4.652344 241.234375 C 4.402344 240.636719 4.378906 240.023438 4.320312 239.410156 L 4.320312 238.253906 C 4.378906 237.074219 4.628906 235.511719 5.898438 234.988281 L 5.953125 234.964844 L 6 234.953125 L 6.058594 234.933594 L 6.226562 234.886719 L 6.328125 234.863281 L 6.453125 234.863281 L 6.476562 234.851562 Z M 6.863281 234.851562 Z M 6.511719 235.542969 C 5.558594 235.65625 5.273438 236.804688 5.207031 237.574219 L 5.207031 237.878906 L 5.183594 237.902344 L 5.183594 239.480469 C 5.253906 240.296875 5.308594 241.347656 6.058594 241.894531 C 6.75 242.371094 7.667969 241.835938 7.859375 241.101562 C 8.0625 240.554688 8.109375 240.023438 8.15625 239.480469 L 8.15625 237.902344 C 8.085938 237.074219 7.972656 235.917969 7.019531 235.589844 L 6.941406 235.566406 L 6.917969 235.542969 L 6.816406 235.542969 L 6.792969 235.523438 L 6.535156 235.523438 Z M 6.511719 235.542969 Z M 6.511719 235.542969 "/>
<path style=" stroke:none;fill-rule:nonzero;fill:rgb(0%,0%,0%);fill-opacity:1;" d="M 11.542969 241.585938 L 11.542969 242.496094 L 10.625 242.496094 L 10.625 241.585938 Z M 11.542969 241.585938 Z M 11.542969 241.585938 "/>
<path style=" stroke:none;fill-rule:nonzero;fill:rgb(0%,0%,0%);fill-opacity:1;" d="M 15.671875 234.851562 C 16.75 234.933594 17.464844 235.917969 17.65625 236.917969 C 17.757812 237.371094 17.78125 237.800781 17.828125 238.253906 L 17.828125 239.410156 C 17.769531 240.589844 17.484375 242.144531 16.203125 242.621094 C 15.09375 243.0625 13.789062 242.371094 13.460938 241.234375 C 13.210938 240.636719 13.1875 240.023438 13.132812 239.410156 L 13.132812 238.253906 C 13.1875 237.074219 13.4375 235.511719 14.707031 234.988281 L 14.765625 234.964844 L 14.808594 234.953125 L 14.867188 234.933594 L 15.039062 234.886719 L 15.140625 234.863281 L 15.265625 234.863281 L 15.285156 234.851562 Z M 15.671875 234.851562 Z M 15.320312 235.542969 C 14.367188 235.65625 14.085938 236.804688 14.015625 237.574219 L 14.015625 237.878906 L 13.992188 237.902344 L 13.992188 239.480469 C 14.0625 240.296875 14.117188 241.347656 14.867188 241.894531 C 15.558594 242.371094 16.476562 241.835938 16.667969 241.101562 C 16.875 240.554688 16.917969 240.023438 16.964844 239.480469 L 16.964844 237.902344 C 16.898438 237.074219 16.785156 235.917969 15.832031 235.589844 L 15.75 235.566406 L 15.730469 235.542969 L 15.625 235.542969 L 15.605469 235.523438 L 15.34375 235.523438 Z M 15.320312 235.542969 Z M 15.320312 235.542969 "/>
<path style=" stroke:none;fill-rule:nonzero;fill:rgb(0%,0%,0%);fill-opacity:1;" d="M 6.863281 196.316406 C 7.9375 196.394531 8.652344 197.382812 8.847656 198.378906 C 8.949219 198.832031 8.972656 199.261719 9.015625 199.71875 L 9.015625 200.875 C 8.960938 202.054688 8.675781 203.605469 7.394531 204.082031 C 6.285156 204.523438 4.980469 203.832031 4.652344 202.699219 C 4.402344 202.097656 4.378906 201.484375 4.320312 200.875 L 4.320312 199.71875 C 4.378906 198.539062 4.628906 196.972656 5.898438 196.453125 L 5.953125 196.429688 L 6 196.417969 L 6.058594 196.394531 L 6.226562 196.347656 L 6.328125 196.328125 L 6.453125 196.328125 L 6.476562 196.316406 Z M 6.863281 196.316406 Z M 6.511719 197.007812 C 5.558594 197.121094 5.273438 198.265625 5.207031 199.035156 L 5.207031 199.34375 L 5.183594 199.367188 L 5.183594 200.941406 C 5.253906 201.757812 5.308594 202.8125 6.058594 203.355469 C 6.75 203.832031 7.667969 203.300781 7.859375 202.5625 C 8.0625 202.019531 8.109375 201.484375 8.15625 200.941406 L 8.15625 199.367188 C 8.085938 198.539062 7.972656 197.382812 7.019531 197.050781 L 6.941406 197.03125 L 6.917969 197.007812 L 6.816406 197.007812 L 6.792969 196.984375 L 6.535156 196.984375 Z M 6.511719 197.007812 Z M 6.511719 197.007812 "/>
<path style=" stroke:none;fill-rule:nonzero;fill:rgb(0%,0%,0%);fill-opacity:1;" d="M 11.542969 203.050781 L 11.542969 203.957031 L 10.625 203.957031 L 10.625 203.050781 Z M 11.542969 203.050781 Z M 11.542969 203.050781 "/>
<path style=" stroke:none;fill-rule:nonzero;fill:rgb(0%,0%,0%);fill-opacity:1;" d="M 17.351562 196.554688 L 17.351562 197.257812 L 14.402344 197.257812 L 14.378906 197.269531 L 14.378906 199.59375 C 14.652344 199.410156 15.039062 199.171875 15.398438 199.160156 C 16.679688 199.027344 17.667969 200.285156 17.722656 201.453125 C 17.90625 202.9375 16.511719 204.410156 15.015625 204.183594 C 14.265625 204.160156 13.539062 203.71875 13.109375 203.105469 C 13.234375 202.9375 13.335938 202.640625 13.484375 202.539062 C 14.015625 203.582031 15.738281 204.003906 16.433594 202.902344 C 16.875 202.074219 16.863281 201.019531 16.351562 200.226562 C 15.761719 199.46875 14.59375 199.933594 14.324219 200.738281 L 13.585938 200.738281 L 13.585938 196.554688 Z M 17.351562 196.554688 Z M 17.351562 196.554688 "/>
<path style=" stroke:none;fill-rule:nonzero;fill:rgb(0%,0%,0%);fill-opacity:1;" d="M 7.214844 157.777344 L 7.214844 164.773438 L 7.226562 164.796875 L 8.621094 164.796875 L 8.621094 165.421875 L 4.933594 165.421875 L 4.933594 164.796875 L 6.328125 164.796875 L 6.351562 164.773438 L 6.351562 158.902344 C 5.875 159.058594 5.375 159.160156 4.878906 159.152344 L 4.878906 158.515625 C 5.625 158.527344 6.441406 158.324219 7.007812 157.777344 Z M 7.214844 157.777344 Z M 7.214844 157.777344 "/>
<path style=" stroke:none;fill-rule:nonzero;fill:rgb(0%,0%,0%);fill-opacity:1;" d="M 11.542969 164.515625 L 11.542969 165.421875 L 10.625 165.421875 L 10.625 164.515625 Z M 11.542969 164.515625 Z M 11.542969 164.515625 "/>
<path style=" stroke:none;fill-rule:nonzero;fill:rgb(0%,0%,0%);fill-opacity:1;" d="M 15.671875 157.777344 C 16.75 157.859375 17.464844 158.84375 17.65625 159.84375 C 17.757812 160.296875 17.78125 160.726562 17.828125 161.179688 L 17.828125 162.335938 C 17.769531 163.515625 17.484375 165.070312 16.203125 165.546875 C 15.09375 165.988281 13.789062 165.296875 13.460938 164.164062 C 13.210938 163.5625 13.1875 162.949219 13.132812 162.335938 L 13.132812 161.179688 C 13.1875 160 13.4375 158.4375 14.707031 157.914062 L 14.765625 157.890625 L 14.808594 157.878906 L 14.867188 157.859375 L 15.039062 157.8125 L 15.140625 157.789062 L 15.265625 157.789062 L 15.285156 157.777344 Z M 15.671875 157.777344 Z M 15.320312 158.46875 C 14.367188 158.582031 14.085938 159.730469 14.015625 160.5 L 14.015625 160.804688 L 13.992188 160.828125 L 13.992188 162.40625 C 14.0625 163.222656 14.117188 164.277344 14.867188 164.820312 C 15.558594 165.296875 16.476562 164.761719 16.667969 164.027344 C 16.875 163.480469 16.917969 162.949219 16.964844 162.40625 L 16.964844 160.828125 C 16.898438 160 16.785156 158.84375 15.832031 158.515625 L 15.75 158.492188 L 15.730469 158.46875 L 15.625 158.46875 L 15.605469 158.449219 L 15.34375 158.449219 Z M 15.320312 158.46875 Z M 15.320312 158.46875 "/>
<path style=" stroke:none;fill-rule:nonzero;fill:rgb(0%,0%,0%);fill-opacity:1;" d="M 7.214844 119.242188 L 7.214844 126.238281 L 7.226562 126.261719 L 8.621094 126.261719 L 8.621094 126.882812 L 4.933594 126.882812 L 4.933594 126.261719 L 6.328125 126.261719 L 6.351562 126.238281 L 6.351562 120.363281 C 5.875 120.523438 5.375 120.625 4.878906 120.613281 L 4.878906 119.980469 C 5.625 119.988281 6.441406 119.785156 7.007812 119.242188 Z M 7.214844 119.242188 Z M 7.214844 119.242188 "/>
<path style=" stroke:none;fill-rule:nonzero;fill:rgb(0%,0%,0%);fill-opacity:1;" d="M 11.542969 125.976562 L 11.542969 126.882812 L 10.625 126.882812 L 10.625 125.976562 Z M 11.542969 125.976562 Z M 11.542969 125.976562 "/>
<path style=" stroke:none;fill-rule:nonzero;fill:rgb(0%,0%,0%);fill-opacity:1;" d="M 17.351562 119.480469 L 17.351562 120.183594 L 14.402344 120.183594 L 14.378906 120.195312 L 14.378906 122.519531 C 14.652344 122.335938 15.039062 122.097656 15.398438 122.085938 C 16.679688 121.953125 17.667969 123.210938 17.722656 124.378906 C 17.90625 125.863281 16.511719 127.335938 15.015625 127.109375 C 14.265625 127.085938 13.539062 126.644531 13.109375 126.035156 C 13.234375 125.863281 13.335938 125.570312 13.484375 125.464844 C 14.015625 126.507812 15.738281 126.929688 16.433594 125.828125 C 16.875 125 16.863281 123.945312 16.351562 123.152344 C 15.761719 122.394531 14.59375 122.859375 14.324219 123.664062 L 13.585938 123.664062 L 13.585938 119.480469 Z M 17.351562 119.480469 Z M 17.351562 119.480469 "/>
<path style=" stroke:none;fill-rule:nonzero;fill:rgb(0%,0%,0%);fill-opacity:1;" d="M 6.738281 80.703125 C 8.050781 80.738281 9.097656 82.085938 8.890625 83.359375 C 8.753906 84.628906 7.566406 85.351562 6.714844 86.148438 L 6.351562 86.519531 L 6.304688 86.542969 L 5.851562 86.984375 L 5.820312 87.007812 L 5.367188 87.460938 L 5.320312 87.484375 L 5.21875 87.585938 L 5.242188 87.597656 L 8.914062 87.597656 L 8.914062 88.347656 L 4.425781 88.347656 L 4.425781 87.667969 L 6.25 85.839844 C 7.121094 85.082031 8.144531 84.09375 7.984375 82.847656 C 7.894531 82.121094 7.28125 81.453125 6.535156 81.394531 C 5.773438 81.28125 5.105469 81.882812 4.933594 82.609375 L 4.910156 82.644531 L 4.890625 82.722656 L 4.785156 83.097656 L 4.777344 83.152344 C 4.617188 82.960938 4.445312 82.757812 4.320312 82.542969 C 4.550781 81.613281 5.296875 80.738281 6.285156 80.703125 Z M 6.738281 80.703125 Z M 6.738281 80.703125 "/>
<path style=" stroke:none;fill-rule:nonzero;fill:rgb(0%,0%,0%);fill-opacity:1;" d="M 11.542969 87.441406 L 11.542969 88.347656 L 10.625 88.347656 L 10.625 87.441406 Z M 11.542969 87.441406 Z M 11.542969 87.441406 "/>
<path style=" stroke:none;fill-rule:nonzero;fill:rgb(0%,0%,0%);fill-opacity:1;" d="M 15.671875 80.703125 C 16.75 80.785156 17.464844 81.769531 17.65625 82.769531 C 17.757812 83.222656 17.78125 83.652344 17.828125 84.105469 L 17.828125 85.261719 C 17.769531 86.441406 17.484375 87.996094 16.203125 88.472656 C 15.09375 88.914062 13.789062 88.222656 13.460938 87.089844 C 13.210938 86.488281 13.1875 85.875 13.132812 85.261719 L 13.132812 84.105469 C 13.1875 82.925781 13.4375 81.363281 14.707031 80.839844 L 14.765625 80.816406 L 14.808594 80.804688 L 14.867188 80.785156 L 15.039062 80.738281 L 15.140625 80.714844 L 15.265625 80.714844 L 15.285156 80.703125 Z M 15.671875 80.703125 Z M 15.320312 81.394531 C 14.367188 81.507812 14.085938 82.65625 14.015625 83.425781 L 14.015625 83.730469 L 13.992188 83.753906 L 13.992188 85.332031 C 14.0625 86.148438 14.117188 87.203125 14.867188 87.746094 C 15.558594 88.222656 16.476562 87.6875 16.667969 86.953125 C 16.875 86.40625 16.917969 85.875 16.964844 85.332031 L 16.964844 83.753906 C 16.898438 82.925781 16.785156 81.769531 15.832031 81.441406 L 15.75 81.417969 L 15.730469 81.394531 L 15.625 81.394531 L 15.605469 81.375 L 15.34375 81.375 Z M 15.320312 81.394531 Z M 15.320312 81.394531 "/>
<path style=" stroke:none;fill-rule:nonzero;fill:rgb(0%,0%,0%);fill-opacity:1;" d="M 6.738281 42.167969 C 8.050781 42.203125 9.097656 43.550781 8.890625 44.820312 C 8.753906 46.089844 7.566406 46.816406 6.714844 47.609375 L 6.351562 47.984375 L 6.304688 48.007812 L 5.851562 48.449219 L 5.820312 48.472656 L 5.367188 48.925781 L 5.320312 48.949219 L 5.21875 49.050781 L 5.242188 49.0625 L 8.914062 49.0625 L 8.914062 49.808594 L 4.425781 49.808594 L 4.425781 49.128906 L 6.25 47.304688 C 7.121094 46.542969 8.144531 45.558594 7.984375 44.3125 C 7.894531 43.585938 7.28125 42.914062 6.535156 42.859375 C 5.773438 42.746094 5.105469 43.347656 4.933594 44.074219 L 4.910156 44.105469 L 4.890625 44.1875 L 4.855469 44.3125 L 4.785156 44.558594 L 4.777344 44.617188 C 4.617188 44.425781 4.445312 44.21875 4.320312 44.003906 C 4.550781 43.074219 5.296875 42.203125 6.285156 42.167969 Z M 6.738281 42.167969 Z M 6.738281 42.167969 "/>
<path style=" stroke:none;fill-rule:nonzero;fill:rgb(0%,0%,0%);fill-opacity:1;" d="M 11.542969 48.902344 L 11.542969 49.808594 L 10.625 49.808594 L 10.625 48.902344 Z M 11.542969 48.902344 Z M 11.542969 48.902344 "/>
<path style=" stroke:none;fill-rule:nonzero;fill:rgb(0%,0%,0%);fill-opacity:1;" d="M 17.351562 42.40625 L 17.351562 43.109375 L 14.402344 43.109375 L 14.378906 43.121094 L 14.378906 45.445312 C 14.652344 45.261719 15.039062 45.023438 15.398438 45.011719 C 16.679688 44.878906 17.667969 46.136719 17.722656 47.304688 C 17.90625 48.789062 16.511719 50.261719 15.015625 50.035156 C 14.265625 50.015625 13.539062 49.570312 13.109375 48.960938 C 13.234375 48.789062 13.335938 48.496094 13.484375 48.390625 C 14.015625 49.4375 15.738281 49.855469 16.433594 48.753906 C 16.875 47.925781 16.863281 46.875 16.351562 46.078125 C 15.761719 45.320312 14.59375 45.785156 14.324219 46.589844 L 13.585938 46.589844 L 13.585938 42.40625 Z M 17.351562 42.40625 Z M 17.351562 42.40625 "/>
<path style=" stroke:none;fill-rule:nonzero;fill:rgb(0%,0%,0%);fill-opacity:1;" d="M 6.882812 3.628906 C 7.882812 3.675781 8.925781 4.59375 8.6875 5.648438 C 8.574219 6.363281 8.074219 6.953125 7.453125 7.269531 C 8.460938 7.585938 9.242188 8.652344 8.972656 9.707031 C 8.699219 11.078125 7.121094 11.839844 5.851562 11.421875 C 5.242188 11.238281 4.617188 10.851562 4.320312 10.285156 C 4.390625 10.117188 4.367188 9.820312 4.445312 9.707031 C 5.046875 10.59375 6.316406 11.195312 7.316406 10.695312 C 8.402344 10.003906 8.234375 7.984375 6.917969 7.644531 L 6.816406 7.644531 L 6.792969 7.621094 L 5.738281 7.621094 L 5.738281 6.941406 C 6.386719 6.929688 7.191406 6.851562 7.554688 6.183594 C 7.9375 5.601562 7.90625 4.652344 7.167969 4.367188 C 6.296875 4.027344 5.21875 4.582031 4.890625 5.46875 C 4.753906 5.273438 4.617188 5.082031 4.480469 4.878906 C 4.945312 4.039062 5.933594 3.539062 6.882812 3.628906 Z M 6.882812 3.628906 Z M 6.882812 3.628906 "/>
<path style=" stroke:none;fill-rule:nonzero;fill:rgb(0%,0%,0%);fill-opacity:1;" d="M 11.542969 10.367188 L 11.542969 11.273438 L 10.625 11.273438 L 10.625 10.367188 Z M 11.542969 10.367188 Z M 11.542969 10.367188 "/>
<path style=" stroke:none;fill-rule:nonzero;fill:rgb(0%,0%,0%);fill-opacity:1;" d="M 15.671875 3.628906 C 16.75 3.710938 17.464844 4.695312 17.65625 5.695312 C 17.757812 6.148438 17.78125 6.578125 17.828125 7.03125 L 17.828125 8.1875 C 17.769531 9.367188 17.484375 10.921875 16.203125 11.398438 C 15.09375 11.839844 13.789062 11.148438 13.460938 10.015625 C 13.210938 9.414062 13.1875 8.800781 13.132812 8.1875 L 13.132812 7.03125 C 13.1875 5.851562 13.4375 4.289062 14.707031 3.765625 L 14.765625 3.742188 L 14.808594 3.734375 L 14.867188 3.710938 L 15.039062 3.664062 L 15.140625 3.640625 L 15.265625 3.640625 L 15.285156 3.628906 Z M 15.671875 3.628906 Z M 15.320312 4.320312 C 14.367188 4.4375 14.085938 5.582031 14.015625 6.351562 L 14.015625 6.65625 L 13.992188 6.679688 L 13.992188 8.257812 C 14.0625 9.074219 14.117188 10.128906 14.867188 10.671875 C 15.558594 11.148438 16.476562 10.613281 16.667969 9.878906 C 16.875 9.332031 16.917969 8.800781 16.964844 8.257812 L 16.964844 6.679688 C 16.898438 5.851562 16.785156 4.695312 15.832031 4.367188 L 15.75 4.34375 L 15.730469 4.320312 L 15.625 4.320312 L 15.605469 4.300781 L 15.34375 4.300781 Z M 15.320312 4.320312 Z M 15.320312 4.320312 "/>
<path style="fill:none;stroke-width:0.02;stroke-linecap:butt;stroke-linejoin:miter;stroke:rgb(0%,0%,0%);stroke-opacity:1;stroke-miterlimit:10;" d="M 11.699958 1.971454 L 11.550027 1.971454 " transform="matrix(28.346457,0,0,-28.346457,1,256.11811)"/>
<path style="fill:none;stroke-width:0.02;stroke-linecap:butt;stroke-linejoin:miter;stroke:rgb(0%,0%,0%);stroke-opacity:1;stroke-miterlimit:10;" d="M 11.699958 3.331026 L 11.550027 3.331026 " transform="matrix(28.346457,0,0,-28.346457,1,256.11811)"/>
<path style="fill:none;stroke-width:0.02;stroke-linecap:butt;stroke-linejoin:miter;stroke:rgb(0%,0%,0%);stroke-opacity:1;stroke-miterlimit:10;" d="M 11.699958 4.690461 L 11.550027 4.690461 " transform="matrix(28.346457,0,0,-28.346457,1,256.11811)"/>
<path style="fill:none;stroke-width:0.02;stroke-linecap:butt;stroke-linejoin:miter;stroke:rgb(0%,0%,0%);stroke-opacity:1;stroke-miterlimit:10;" d="M 11.699958 6.050034 L 11.550027 6.050034 " transform="matrix(28.346457,0,0,-28.346457,1,256.11811)"/>
<path style="fill:none;stroke-width:0.02;stroke-linecap:butt;stroke-linejoin:miter;stroke:rgb(0%,0%,0%);stroke-opacity:1;stroke-miterlimit:10;" d="M 11.699958 7.409468 L 11.550027 7.409468 " transform="matrix(28.346457,0,0,-28.346457,1,256.11811)"/>
<path style="fill:none;stroke-width:0.02;stroke-linecap:round;stroke-linejoin:miter;stroke:rgb(0%,0%,0%);stroke-opacity:1;stroke-miterlimit:10;" d="M 11.699958 0.612019 L 11.699958 8.769041 " transform="matrix(28.346457,0,0,-28.346457,1,256.11811)"/>
<path style="fill:none;stroke-width:0.02;stroke-linecap:butt;stroke-linejoin:miter;stroke:rgb(0%,0%,0%);stroke-opacity:1;stroke-miterlimit:10;" d="M 2.065128 0.612019 L 2.065128 0.76195 " transform="matrix(28.346457,0,0,-28.346457,1,256.11811)"/>
<path style="fill:none;stroke-width:0.02;stroke-linecap:butt;stroke-linejoin:miter;stroke:rgb(0%,0%,0%);stroke-opacity:1;stroke-miterlimit:10;" d="M 3.269533 0.612019 L 3.269533 0.76195 " transform="matrix(28.346457,0,0,-28.346457,1,256.11811)"/>
<path style="fill:none;stroke-width:0.02;stroke-linecap:butt;stroke-linejoin:miter;stroke:rgb(0%,0%,0%);stroke-opacity:1;stroke-miterlimit:10;" d="M 4.473801 0.612019 L 4.473801 0.76195 " transform="matrix(28.346457,0,0,-28.346457,1,256.11811)"/>
<path style="fill:none;stroke-width:0.02;stroke-linecap:butt;stroke-linejoin:miter;stroke:rgb(0%,0%,0%);stroke-opacity:1;stroke-miterlimit:10;" d="M 5.678206 0.612019 L 5.678206 0.76195 " transform="matrix(28.346457,0,0,-28.346457,1,256.11811)"/>
<path style="fill:none;stroke-width:0.02;stroke-linecap:butt;stroke-linejoin:miter;stroke:rgb(0%,0%,0%);stroke-opacity:1;stroke-miterlimit:10;" d="M 6.882612 0.612019 L 6.882612 0.76195 " transform="matrix(28.346457,0,0,-28.346457,1,256.11811)"/>
<path style="fill:none;stroke-width:0.02;stroke-linecap:butt;stroke-linejoin:miter;stroke:rgb(0%,0%,0%);stroke-opacity:1;stroke-miterlimit:10;" d="M 8.086879 0.612019 L 8.086879 0.76195 " transform="matrix(28.346457,0,0,-28.346457,1,256.11811)"/>
<path style="fill:none;stroke-width:0.02;stroke-linecap:butt;stroke-linejoin:miter;stroke:rgb(0%,0%,0%);stroke-opacity:1;stroke-miterlimit:10;" d="M 9.291285 0.612019 L 9.291285 0.76195 " transform="matrix(28.346457,0,0,-28.346457,1,256.11811)"/>
<path style="fill:none;stroke-width:0.02;stroke-linecap:butt;stroke-linejoin:miter;stroke:rgb(0%,0%,0%);stroke-opacity:1;stroke-miterlimit:10;" d="M 10.49569 0.612019 L 10.49569 0.76195 " transform="matrix(28.346457,0,0,-28.346457,1,256.11811)"/>
<path style="fill:none;stroke-width:0.02;stroke-linecap:round;stroke-linejoin:miter;stroke:rgb(0%,0%,0%);stroke-opacity:1;stroke-miterlimit:10;" d="M 0.86086 0.612019 L 11.699958 0.612019 " transform="matrix(28.346457,0,0,-28.346457,1,256.11811)"/>
<path style=" stroke:none;fill-rule:nonzero;fill:rgb(0%,0%,0%);fill-opacity:1;" d="M 25.945312 245.652344 L 25.945312 252.648438 L 25.957031 252.671875 L 27.351562 252.671875 L 27.351562 253.292969 L 23.664062 253.292969 L 23.664062 252.671875 L 25.058594 252.671875 L 25.082031 252.648438 L 25.082031 246.773438 C 24.605469 246.933594 24.109375 247.035156 23.609375 247.023438 L 23.609375 246.390625 C 24.359375 246.402344 25.175781 246.195312 25.742188 245.652344 Z M 25.945312 245.652344 Z M 25.945312 245.652344 "/>
<path style=" stroke:none;fill-rule:nonzero;fill:rgb(0%,0%,0%);fill-opacity:1;" d="M 59.609375 245.652344 C 60.921875 245.6875 61.964844 247.035156 61.761719 248.304688 C 61.625 249.574219 60.4375 250.300781 59.585938 251.09375 L 59.222656 251.46875 L 59.175781 251.492188 L 58.722656 251.933594 L 58.6875 251.957031 L 58.234375 252.410156 L 58.191406 252.433594 L 58.089844 252.535156 L 58.109375 252.546875 L 61.785156 252.546875 L 61.785156 253.292969 L 57.292969 253.292969 L 57.292969 252.613281 L 59.121094 250.789062 C 59.992188 250.027344 61.015625 249.042969 60.855469 247.796875 C 60.765625 247.070312 60.152344 246.402344 59.402344 246.34375 C 58.644531 246.230469 57.976562 246.832031 57.804688 247.558594 L 57.78125 247.589844 L 57.757812 247.671875 L 57.726562 247.796875 L 57.65625 248.046875 L 57.644531 248.101562 C 57.488281 247.910156 57.316406 247.703125 57.191406 247.488281 C 57.417969 246.558594 58.167969 245.6875 59.15625 245.652344 Z M 59.609375 245.652344 Z M 59.609375 245.652344 "/>
<path style=" stroke:none;fill-rule:nonzero;fill:rgb(0%,0%,0%);fill-opacity:1;" d="M 93.894531 245.652344 C 94.890625 245.699219 95.933594 246.617188 95.699219 247.671875 C 95.582031 248.386719 95.085938 248.976562 94.460938 249.292969 C 95.46875 249.609375 96.253906 250.675781 95.980469 251.730469 C 95.707031 253.101562 94.132812 253.863281 92.863281 253.441406 C 92.25 253.261719 91.625 252.875 91.332031 252.308594 C 91.398438 252.136719 91.378906 251.84375 91.457031 251.730469 C 92.058594 252.613281 93.328125 253.214844 94.324219 252.714844 C 95.414062 252.023438 95.242188 250.007812 93.929688 249.667969 L 93.828125 249.667969 L 93.804688 249.644531 L 92.75 249.644531 L 92.75 248.964844 C 93.394531 248.953125 94.199219 248.871094 94.5625 248.203125 C 94.949219 247.625 94.914062 246.671875 94.179688 246.390625 C 93.304688 246.050781 92.226562 246.605469 91.898438 247.488281 C 91.761719 247.296875 91.625 247.105469 91.492188 246.898438 C 91.957031 246.0625 92.941406 245.5625 93.894531 245.652344 Z M 93.894531 245.652344 Z M 93.894531 245.652344 "/>
<path style=" stroke:none;fill-rule:nonzero;fill:rgb(0%,0%,0%);fill-opacity:1;" d="M 129.179688 245.890625 L 129.179688 250.664062 L 129.203125 250.6875 L 130.324219 250.6875 L 130.324219 251.367188 L 129.203125 251.367188 L 129.179688 251.378906 L 129.179688 253.292969 L 128.316406 253.292969 L 128.316406 251.378906 L 128.292969 251.367188 L 125.300781 251.367188 L 125.300781 250.664062 C 126.253906 249.078125 127.207031 247.476562 128.160156 245.890625 Z M 129.179688 245.890625 Z M 128.339844 246.320312 C 128.113281 247.5 127.386719 248.511719 126.84375 249.542969 C 126.628906 249.914062 126.34375 250.324219 126.183594 250.6875 L 128.363281 250.6875 L 128.375 250.664062 L 128.375 246.320312 L 128.363281 246.300781 Z M 128.339844 246.320312 Z M 128.339844 246.320312 "/>
<path style=" stroke:none;fill-rule:nonzero;fill:rgb(0%,0%,0%);fill-opacity:1;" d="M 163.828125 245.890625 L 163.828125 246.59375 L 160.878906 246.59375 L 160.859375 246.605469 L 160.859375 248.929688 C 161.128906 248.746094 161.515625 248.511719 161.878906 248.5 C 163.160156 248.363281 164.144531 249.621094 164.203125 250.789062 C 164.382812 252.273438 162.988281 253.75 161.492188 253.523438 C 160.746094 253.5 160.019531 253.058594 159.585938 252.445312 C 159.710938 252.273438 159.816406 251.980469 159.960938 251.878906 C 160.496094 252.921875 162.21875 253.339844 162.910156 252.242188 C 163.351562 251.414062 163.339844 250.359375 162.832031 249.5625 C 162.242188 248.804688 161.074219 249.269531 160.800781 250.074219 L 160.0625 250.074219 L 160.0625 245.890625 Z M 163.828125 245.890625 Z M 163.828125 245.890625 "/>
<path style=" stroke:none;fill-rule:nonzero;fill:rgb(0%,0%,0%);fill-opacity:1;" d="M 197.027344 245.652344 C 197.320312 245.699219 197.660156 245.730469 197.945312 245.867188 L 197.945312 246.527344 C 197.164062 246.183594 196.140625 246.140625 195.53125 246.832031 C 194.984375 247.410156 194.734375 248.273438 194.714844 249.03125 C 195.371094 248.160156 196.855469 247.671875 197.660156 248.578125 C 198.464844 249.507812 198.601562 250.84375 198.238281 251.980469 C 197.84375 252.886719 196.925781 253.714844 195.902344 253.523438 C 194.519531 253.40625 193.898438 251.867188 193.828125 250.6875 C 193.566406 249.019531 193.964844 246.921875 195.550781 245.96875 L 195.574219 245.957031 L 195.8125 245.835938 L 195.882812 245.8125 L 195.914062 245.789062 L 196.109375 245.730469 L 196.265625 245.6875 L 196.367188 245.664062 L 196.492188 245.664062 L 196.515625 245.652344 Z M 197.027344 245.652344 Z M 195.914062 248.804688 C 194.929688 248.976562 194.613281 250.164062 194.734375 250.96875 C 194.792969 251.730469 195.085938 252.738281 195.960938 252.898438 C 196.890625 253.023438 197.492188 252.023438 197.515625 251.21875 C 197.558594 250.402344 197.515625 249.472656 196.800781 248.941406 L 196.640625 248.863281 L 196.515625 248.828125 L 196.414062 248.804688 L 196.390625 248.78125 L 195.9375 248.78125 Z M 195.914062 248.804688 Z M 195.914062 248.804688 "/>
<path style=" stroke:none;fill-rule:nonzero;fill:rgb(0%,0%,0%);fill-opacity:1;" d="M 232.582031 245.890625 L 232.582031 246.605469 C 230.972656 248.488281 230.066406 251.027344 230.078125 253.417969 L 229.160156 253.417969 C 229.136719 251.003906 230.121094 248.453125 231.847656 246.671875 L 231.824219 246.652344 L 227.890625 246.652344 L 227.890625 245.890625 L 232.582031 245.890625 L 232.582031 246.605469 Z M 232.582031 245.890625 Z M 232.582031 245.890625 "/>
<path style=" stroke:none;fill-rule:nonzero;fill:rgb(0%,0%,0%);fill-opacity:1;" d="M 264.589844 245.652344 C 265.792969 245.699219 266.925781 246.992188 266.449219 248.191406 C 266.246094 248.746094 265.679688 249.089844 265.214844 249.328125 C 266.371094 249.667969 267.074219 251.015625 266.550781 252.125 C 266.007812 253.566406 263.945312 254.019531 262.808594 252.976562 C 261.777344 252.160156 261.746094 250.390625 262.890625 249.667969 C 263.058594 249.484375 263.378906 249.429688 263.523438 249.292969 C 262.539062 249.007812 261.871094 247.863281 262.335938 246.898438 C 262.707031 246.039062 263.671875 245.5625 264.589844 245.652344 Z M 264.589844 245.652344 Z M 264.160156 246.300781 C 263.320312 246.320312 262.730469 247.273438 263.015625 248.023438 C 263.34375 249.316406 265.507812 249.269531 265.757812 247.941406 C 265.984375 247.207031 265.394531 246.320312 264.589844 246.300781 L 264.566406 246.289062 L 264.183594 246.289062 Z M 264.160156 246.300781 Z M 264.183594 249.667969 C 263.195312 249.734375 262.707031 250.914062 262.96875 251.753906 C 263.140625 252.941406 264.839844 253.292969 265.507812 252.34375 C 266.15625 251.46875 265.835938 249.90625 264.667969 249.667969 L 264.566406 249.667969 L 264.546875 249.644531 L 264.195312 249.644531 Z M 264.183594 249.667969 Z M 264.183594 249.667969 "/>
<path style=" stroke:none;fill-rule:nonzero;fill:rgb(0%,0%,0%);fill-opacity:1;" d="M 298.753906 245.652344 C 300.113281 245.800781 300.703125 247.34375 300.792969 248.519531 C 300.953125 250.050781 300.769531 251.84375 299.523438 252.941406 C 298.742188 253.726562 297.359375 253.75 296.519531 253.046875 C 296.621094 252.851562 296.734375 252.625 296.859375 252.46875 C 297.597656 253.179688 298.886719 252.976562 299.363281 252.058594 C 299.703125 251.503906 299.910156 250.789062 299.898438 250.175781 C 299.230469 251.039062 297.753906 251.539062 296.949219 250.628906 C 296.132812 249.6875 295.984375 248.316406 296.394531 247.183594 C 296.8125 246.289062 297.710938 245.515625 298.753906 245.652344 Z M 298.753906 245.652344 Z M 298.378906 246.300781 C 297.5625 246.367188 297.140625 247.273438 297.085938 247.988281 C 297.050781 248.792969 297.085938 249.734375 297.800781 250.257812 C 298.59375 250.742188 299.613281 250.152344 299.796875 249.292969 C 300.011719 248.453125 299.875 247.558594 299.445312 246.773438 C 299.207031 246.445312 298.773438 246.207031 298.378906 246.300781 Z M 298.378906 246.300781 Z M 298.378906 246.300781 "/>
<path style=" stroke:none;fill-rule:nonzero;fill:rgb(0%,0%,0%);fill-opacity:1;" d="M 330.363281 245.652344 L 330.363281 252.648438 L 330.375 252.671875 L 331.769531 252.671875 L 331.769531 253.292969 L 328.085938 253.292969 L 328.085938 252.671875 L 329.480469 252.671875 L 329.5 252.648438 L 329.5 246.773438 C 329.023438 246.933594 328.527344 247.035156 328.027344 247.023438 L 328.027344 246.390625 C 328.777344 246.402344 329.59375 246.195312 330.160156 245.652344 Z M 330.363281 245.652344 Z M 330.363281 245.652344 "/>
<path style=" stroke:none;fill-rule:nonzero;fill:rgb(0%,0%,0%);fill-opacity:1;" d="M 335.679688 245.652344 C 336.757812 245.730469 337.472656 246.71875 337.664062 247.714844 C 337.765625 248.167969 337.789062 248.601562 337.835938 249.054688 L 337.835938 250.210938 C 337.777344 251.390625 337.496094 252.941406 336.214844 253.417969 C 335.101562 253.863281 333.796875 253.171875 333.46875 252.035156 C 333.21875 251.433594 333.199219 250.824219 333.140625 250.210938 L 333.140625 249.054688 C 333.199219 247.875 333.445312 246.308594 334.71875 245.789062 L 334.773438 245.765625 L 334.820312 245.753906 L 334.875 245.730469 L 335.046875 245.6875 L 335.148438 245.664062 L 335.273438 245.664062 L 335.296875 245.652344 Z M 335.679688 245.652344 Z M 335.328125 246.34375 C 334.378906 246.457031 334.09375 247.601562 334.027344 248.375 L 334.027344 248.679688 L 334.003906 248.703125 L 334.003906 250.277344 C 334.070312 251.09375 334.128906 252.148438 334.875 252.695312 C 335.566406 253.171875 336.484375 252.636719 336.679688 251.898438 C 336.882812 251.355469 336.929688 250.824219 336.972656 250.277344 L 336.972656 248.703125 C 336.90625 247.875 336.792969 246.71875 335.839844 246.390625 L 335.761719 246.367188 L 335.738281 246.34375 L 335.636719 246.34375 L 335.613281 246.320312 L 335.351562 246.320312 Z M 335.328125 246.34375 Z M 335.328125 246.34375 "/>
<path style="fill:none;stroke-width:0.02;stroke-linecap:butt;stroke-linejoin:miter;stroke:rgb(0%,0%,0%);stroke-opacity:1;stroke-miterlimit:10;" d="M 2.065128 8.769041 L 2.065128 8.618972 " transform="matrix(28.346457,0,0,-28.346457,1,256.11811)"/>
<path style="fill:none;stroke-width:0.02;stroke-linecap:butt;stroke-linejoin:miter;stroke:rgb(0%,0%,0%);stroke-opacity:1;stroke-miterlimit:10;" d="M 3.269533 8.769041 L 3.269533 8.618972 " transform="matrix(28.346457,0,0,-28.346457,1,256.11811)"/>
<path style="fill:none;stroke-width:0.02;stroke-linecap:butt;stroke-linejoin:miter;stroke:rgb(0%,0%,0%);stroke-opacity:1;stroke-miterlimit:10;" d="M 4.473801 8.769041 L 4.473801 8.618972 " transform="matrix(28.346457,0,0,-28.346457,1,256.11811)"/>
<path style="fill:none;stroke-width:0.02;stroke-linecap:butt;stroke-linejoin:miter;stroke:rgb(0%,0%,0%);stroke-opacity:1;stroke-miterlimit:10;" d="M 5.678206 8.769041 L 5.678206 8.618972 " transform="matrix(28.346457,0,0,-28.346457,1,256.11811)"/>
<path style="fill:none;stroke-width:0.02;stroke-linecap:butt;stroke-linejoin:miter;stroke:rgb(0%,0%,0%);stroke-opacity:1;stroke-miterlimit:10;" d="M 6.882612 8.769041 L 6.882612 8.618972 " transform="matrix(28.346457,0,0,-28.346457,1,256.11811)"/>
<path style="fill:none;stroke-width:0.02;stroke-linecap:butt;stroke-linejoin:miter;stroke:rgb(0%,0%,0%);stroke-opacity:1;stroke-miterlimit:10;" d="M 8.086879 8.769041 L 8.086879 8.618972 " transform="matrix(28.346457,0,0,-28.346457,1,256.11811)"/>
<path style="fill:none;stroke-width:0.02;stroke-linecap:butt;stroke-linejoin:miter;stroke:rgb(0%,0%,0%);stroke-opacity:1;stroke-miterlimit:10;" d="M 9.291285 8.769041 L 9.291285 8.618972 " transform="matrix(28.346457,0,0,-28.346457,1,256.11811)"/>
<path style="fill:none;stroke-width:0.02;stroke-linecap:butt;stroke-linejoin:miter;stroke:rgb(0%,0%,0%);stroke-opacity:1;stroke-miterlimit:10;" d="M 10.49569 8.769041 L 10.49569 8.618972 " transform="matrix(28.346457,0,0,-28.346457,1,256.11811)"/>
<path style="fill:none;stroke-width:0.02;stroke-linecap:round;stroke-linejoin:miter;stroke:rgb(0%,0%,0%);stroke-opacity:1;stroke-miterlimit:10;" d="M 0.86086 8.769041 L 11.699958 8.769041 " transform="matrix(28.346457,0,0,-28.346457,1,256.11811)"/>
<path style="fill:none;stroke-width:0.05;stroke-linecap:butt;stroke-linejoin:miter;stroke:rgb(33%,47%,64%);stroke-opacity:1;stroke-miterlimit:10;" d="M 0.86086 3.331026 L 2.065128 6.050034 L 3.269533 8.769041 " transform="matrix(28.346457,0,0,-28.346457,1,256.11811)"/>
<path style="fill:none;stroke-width:0.05;stroke-linecap:butt;stroke-linejoin:miter;stroke:rgb(33%,47%,64%);stroke-opacity:1;stroke-miterlimit:10;" d="M 5.678206 8.769041 L 6.882612 6.050034 L 8.086879 3.331026 " transform="matrix(28.346457,0,0,-28.346457,1,256.11811)"/>
<path style="fill:none;stroke-width:0.05;stroke-linecap:butt;stroke-linejoin:miter;stroke:rgb(33%,47%,64%);stroke-opacity:1;stroke-miterlimit:10;" d="M 10.49569 0.612019 L 11.699958 3.331026 " transform="matrix(28.346457,0,0,-28.346457,1,256.11811)"/>
<path style="fill:none;stroke-width:0.05;stroke-linecap:butt;stroke-linejoin:round;stroke:rgb(33%,47%,64%);stroke-opacity:1;stroke-miterlimit:10;" d="M 1.035734 3.331026 C 1.035734 3.564328 0.68585 3.564328 0.68585 3.331026 C 0.68585 3.097725 1.035734 3.097725 1.035734 3.331026 Z M 1.035734 3.331026 " transform="matrix(28.346457,0,0,-28.346457,1,256.11811)"/>
<path style="fill:none;stroke-width:0.05;stroke-linecap:butt;stroke-linejoin:round;stroke:rgb(33%,47%,64%);stroke-opacity:1;stroke-miterlimit:10;" d="M 2.240139 6.050034 C 2.240139 6.283336 1.890117 6.283336 1.890117 6.050034 C 1.890117 5.816732 2.240139 5.816732 2.240139 6.050034 Z M 2.240139 6.050034 " transform="matrix(28.346457,0,0,-28.346457,1,256.11811)"/>
<path style="fill:none;stroke-width:0.05;stroke-linecap:butt;stroke-linejoin:round;stroke:rgb(33%,47%,64%);stroke-opacity:1;stroke-miterlimit:10;" d="M 3.444544 8.769041 C 3.444544 9.002343 3.094523 9.002343 3.094523 8.769041 C 3.094523 8.535601 3.444544 8.535601 3.444544 8.769041 Z M 3.444544 8.769041 " transform="matrix(28.346457,0,0,-28.346457,1,256.11811)"/>
<path style="fill:none;stroke-width:0.05;stroke-linecap:butt;stroke-linejoin:round;stroke:rgb(33%,47%,64%);stroke-opacity:1;stroke-miterlimit:10;" d="M 5.853217 8.769041 C 5.853217 9.002343 5.503196 9.002343 5.503196 8.769041 C 5.503196 8.535601 5.853217 8.535601 5.853217 8.769041 Z M 5.853217 8.769041 " transform="matrix(28.346457,0,0,-28.346457,1,256.11811)"/>
<path style="fill:none;stroke-width:0.05;stroke-linecap:butt;stroke-linejoin:round;stroke:rgb(33%,47%,64%);stroke-opacity:1;stroke-miterlimit:10;" d="M 7.057623 6.050034 C 7.057623 6.283336 6.707601 6.283336 6.707601 6.050034 C 6.707601 5.816732 7.057623 5.816732 7.057623 6.050034 Z M 7.057623 6.050034 " transform="matrix(28.346457,0,0,-28.346457,1,256.11811)"/>
<path style="fill:none;stroke-width:0.05;stroke-linecap:butt;stroke-linejoin:round;stroke:rgb(33%,47%,64%);stroke-opacity:1;stroke-miterlimit:10;" d="M 8.26189 3.331026 C 8.26189 3.564328 7.911868 3.564328 7.911868 3.331026 C 7.911868 3.097725 8.26189 3.097725 8.26189 3.331026 Z M 8.26189 3.331026 " transform="matrix(28.346457,0,0,-28.346457,1,256.11811)"/>
<path style="fill:none;stroke-width:0.05;stroke-linecap:butt;stroke-linejoin:round;stroke:rgb(33%,47%,64%);stroke-opacity:1;stroke-miterlimit:10;" d="M 10.670701 0.612019 C 10.670701 0.845321 10.320679 0.845321 10.320679 0.612019 C 10.320679 0.378717 10.670701 0.378717 10.670701 0.612019 Z M 10.670701 0.612019 " transform="matrix(28.346457,0,0,-28.346457,1,256.11811)"/>
<path style="fill:none;stroke-width:0.05;stroke-linecap:butt;stroke-linejoin:round;stroke:rgb(33%,47%,64%);stroke-opacity:1;stroke-miterlimit:10;" d="M 11.874969 3.331026 C 11.874969 3.564328 11.524947 3.564328 11.524947 3.331026 C 11.524947 3.097725 11.874969 3.097725 11.874969 3.331026 Z M 11.874969 3.331026 " transform="matrix(28.346457,0,0,-28.346457,1,256.11811)"/>
</g>
</svg>
