<?xml version="1.0" encoding="UTF-8"?>
<svg xmlns="http://www.w3.org/2000/svg" xmlns:xlink="http://www.w3.org/1999/xlink" width="342.15748pt" height="257.11811pt" viewBox="0 0 342.15748 257.11811" version="1.1">
<g id="surface1">
<path style="fill:none;stroke-width:0.02;stroke-linecap:butt;stroke-linejoin:miter;stroke:rgb(0%,0%,0%);stroke-opacity:1;stroke-miterlimit:10;" d="M 0.993979 1.971454 L 1.144047 1.971454 " transform="matrix(28.346457,0,0,-28.346457,1,256.11811)"/>
<path style="fill:none;stroke-width:0.02;stroke-linecap:butt;stroke-linejoin:miter;stroke:rgb(0%,0%,0%);stroke-opacity:1;stroke-miterlimit:10;" d="M 0.993979 3.331026 L 1.144047 3.331026 " transform="matrix(28.346457,0,0,-28.346457,1,256.11811)"/>
<path style="fill:none;stroke-width:0.02;stroke-linecap:butt;stroke-linejoin:miter;stroke:rgb(0%,0%,0%);stroke-opacity:1;stroke-miterlimit:10;" d="M 0.993979 4.690461 L 1.144047 4.690461 " transform="matrix(28.346457,0,0,-28.346457,1,256.11811)"/>
<path style="fill:none;stroke-width:0.02;stroke-linecap:butt;stroke-linejoin:miter;stroke:rgb(0%,0%,0%);stroke-opacity:1;stroke-miterlimit:10;" d="M 0.993979 6.050034 L 1.144047 6.050034 " transform="matrix(28.346457,0,0,-28.346457,1,256.11811)"/>
<path style="fill:none;stroke-width:0.02;stroke-linecap:butt;stroke-linejoin:miter;stroke:rgb(0%,0%,0%);stroke-opacity:1;stroke-miterlimit:10;" d="M 0.993979 7.409468 L 1.144047 7.409468 " transform="matrix(28.346457,0,0,-28.346457,1,256.11811)"/>
<path style="fill:none;stroke-width:0.02;stroke-linecap:round;stroke-linejoin:miter;stroke:rgb(0%,0%,0%);stroke-opacity:1;stroke-miterlimit:10;" d="M 0.993979 0.612019 L 0.993979 8.769041 " transform="matrix(28.346457,0,0,-28.346457,1,256.11811)"/>
<path style=" stroke:none;fill-rule:nonzero;fill:rgb(0%,0%,0%);fill-opacity:1;" d="M 6.941406 239.683594 L 6.941406 240.316406 L 3.972656 240.316406 L 3.972656 239.683594 Z M 6.941406 239.683594 Z M 6.941406 239.683594 "/>
<path style=" stroke:none;fill-rule:nonzero;fill:rgb(0%,0%,0%);fill-opacity:1;" d="M 10.988281 234.851562 L 10.988281 241.847656 L 11 241.871094 L 12.394531 241.871094 L 12.394531 242.496094 L 8.710938 242.496094 L 8.710938 241.871094 L 10.105469 241.871094 L 10.128906 241.847656 L 10.128906 235.976562 C 9.652344 236.132812 9.152344 236.234375 8.652344 236.222656 L 8.652344 235.589844 C 9.402344 235.601562 10.21875 235.398438 10.785156 234.851562 Z M 10.988281 234.851562 Z M 10.988281 234.851562 "/>
<path style=" stroke:none;fill-rule:nonzero;fill:rgb(0%,0%,0%);fill-opacity:1;" d="M 15.320312 241.585938 L 15.320312 242.496094 L 14.402344 242.496094 L 14.402344 241.585938 Z M 15.320312 241.585938 Z M 15.320312 241.585938 "/>
<path style=" stroke:none;fill-rule:nonzero;fill:rgb(0%,0%,0%);fill-opacity:1;" d="M 19.449219 234.851562 C 20.523438 234.933594 21.238281 235.917969 21.433594 236.917969 C 21.535156 237.371094 21.558594 237.800781 21.601562 238.253906 L 21.601562 239.410156 C 21.546875 240.589844 21.261719 242.144531 19.980469 242.621094 C 18.871094 243.0625 17.566406 242.371094 17.238281 241.234375 C 16.988281 240.636719 16.964844 240.023438 16.90625 239.410156 L 16.90625 238.253906 C 16.964844 237.074219 17.214844 235.511719 18.484375 234.988281 L 18.539062 234.964844 L 18.585938 234.953125 L 18.644531 234.933594 L 18.8125 234.886719 L 18.914062 234.863281 L 19.039062 234.863281 L 19.0625 234.851562 Z M 19.449219 234.851562 Z M 19.097656 235.542969 C 18.144531 235.65625 17.859375 236.804688 17.792969 237.574219 L 17.792969 237.878906 L 17.769531 237.902344 L 17.769531 239.480469 C 17.835938 240.296875 17.894531 241.347656 18.644531 241.894531 C 19.335938 242.371094 20.253906 241.835938 20.445312 241.101562 C 20.648438 240.554688 20.695312 240.023438 20.742188 239.480469 L 20.742188 237.902344 C 20.671875 237.074219 20.558594 235.917969 19.605469 235.589844 L 19.527344 235.566406 L 19.503906 235.542969 L 19.402344 235.542969 L 19.378906 235.523438 L 19.117188 235.523438 Z M 19.097656 235.542969 Z M 19.097656 235.542969 "/>
<path style=" stroke:none;fill-rule:nonzero;fill:rgb(0%,0%,0%);fill-opacity:1;" d="M 6.941406 201.144531 L 6.941406 201.78125 L 3.972656 201.78125 L 3.972656 201.144531 Z M 6.941406 201.144531 Z M 6.941406 201.144531 "/>
<path style=" stroke:none;fill-rule:nonzero;fill:rgb(0%,0%,0%);fill-opacity:1;" d="M 10.636719 196.316406 C 11.714844 196.394531 12.429688 197.382812 12.621094 198.378906 C 12.722656 198.832031 12.746094 199.261719 12.792969 199.71875 L 12.792969 200.875 C 12.734375 202.054688 12.453125 203.605469 11.171875 204.082031 C 10.058594 204.523438 8.753906 203.832031 8.425781 202.699219 C 8.175781 202.097656 8.15625 201.484375 8.097656 200.875 L 8.097656 199.71875 C 8.15625 198.539062 8.402344 196.972656 9.675781 196.453125 L 9.730469 196.429688 L 9.777344 196.417969 L 9.832031 196.394531 L 10.003906 196.347656 L 10.105469 196.328125 L 10.230469 196.328125 L 10.253906 196.316406 Z M 10.636719 196.316406 Z M 10.285156 197.007812 C 9.332031 197.121094 9.050781 198.265625 8.980469 199.035156 L 8.980469 199.34375 L 8.960938 199.367188 L 8.960938 200.941406 C 9.027344 201.757812 9.085938 202.8125 9.832031 203.355469 C 10.523438 203.832031 11.441406 203.300781 11.636719 202.5625 C 11.839844 202.019531 11.886719 201.484375 11.929688 200.941406 L 11.929688 199.367188 C 11.863281 198.539062 11.75 197.382812 10.796875 197.050781 L 10.71875 197.03125 L 10.695312 197.007812 L 10.59375 197.007812 L 10.570312 196.984375 L 10.308594 196.984375 Z M 10.285156 197.007812 Z M 10.285156 197.007812 "/>
<path style=" stroke:none;fill-rule:nonzero;fill:rgb(0%,0%,0%);fill-opacity:1;" d="M 15.320312 203.050781 L 15.320312 203.957031 L 14.402344 203.957031 L 14.402344 203.050781 Z M 15.320312 203.050781 Z M 15.320312 203.050781 "/>
<path style=" stroke:none;fill-rule:nonzero;fill:rgb(0%,0%,0%);fill-opacity:1;" d="M 21.125 196.554688 L 21.125 197.257812 L 18.179688 197.257812 L 18.15625 197.269531 L 18.15625 199.59375 C 18.425781 199.410156 18.8125 199.171875 19.175781 199.160156 C 20.457031 199.027344 21.445312 200.285156 21.5 201.453125 C 21.679688 202.9375 20.285156 204.410156 18.789062 204.183594 C 18.042969 204.160156 17.316406 203.71875 16.886719 203.105469 C 17.011719 202.9375 17.113281 202.640625 17.257812 202.539062 C 17.792969 203.582031 19.515625 204.003906 20.207031 202.902344 C 20.648438 202.074219 20.636719 201.019531 20.128906 200.226562 C 19.539062 199.46875 18.371094 199.933594 18.097656 200.738281 L 17.363281 200.738281 L 17.363281 196.554688 Z M 21.125 196.554688 Z M 21.125 196.554688 "/>
<path style=" stroke:none;fill-rule:nonzero;fill:rgb(0%,0%,0%);fill-opacity:1;" d="M 10.636719 157.777344 C 11.714844 157.859375 12.429688 158.84375 12.621094 159.84375 C 12.722656 160.296875 12.746094 160.726562 12.792969 161.179688 L 12.792969 162.335938 C 12.734375 163.515625 12.453125 165.070312 11.171875 165.546875 C 10.058594 165.988281 8.753906 165.296875 8.425781 164.164062 C 8.175781 163.5625 8.15625 162.949219 8.097656 162.335938 L 8.097656 161.179688 C 8.15625 160 8.402344 158.4375 9.675781 157.914062 L 9.730469 157.890625 L 9.777344 157.878906 L 9.832031 157.859375 L 10.003906 157.8125 L 10.105469 157.789062 L 10.230469 157.789062 L 10.253906 157.777344 Z M 10.636719 157.777344 Z M 10.285156 158.46875 C 9.332031 158.582031 9.050781 159.730469 8.980469 160.5 L 8.980469 160.804688 L 8.960938 160.828125 L 8.960938 162.40625 C 9.027344 163.222656 9.085938 164.277344 9.832031 164.820312 C 10.523438 165.296875 11.441406 164.761719 11.636719 164.027344 C 11.839844 163.480469 11.886719 162.949219 11.929688 162.40625 L 11.929688 160.828125 C 11.863281 160 11.75 158.84375 10.796875 158.515625 L 10.71875 158.492188 L 10.695312 158.46875 L 10.59375 158.46875 L 10.570312 158.449219 L 10.308594 158.449219 Z M 10.285156 158.46875 Z M 10.285156 158.46875 "/>
<path style=" stroke:none;fill-rule:nonzero;fill:rgb(0%,0%,0%);fill-opacity:1;" d="M 15.320312 164.515625 L 15.320312 165.421875 L 14.402344 165.421875 L 14.402344 164.515625 Z M 15.320312 164.515625 Z M 15.320312 164.515625 "/>
<path style=" stroke:none;fill-rule:nonzero;fill:rgb(0%,0%,0%);fill-opacity:1;" d="M 19.449219 157.777344 C 20.523438 157.859375 21.238281 158.84375 21.433594 159.84375 C 21.535156 160.296875 21.558594 160.726562 21.601562 161.179688 L 21.601562 162.335938 C 21.546875 163.515625 21.261719 165.070312 19.980469 165.546875 C 18.871094 165.988281 17.566406 165.296875 17.238281 164.164062 C 16.988281 163.5625 16.964844 162.949219 16.90625 162.335938 L 16.90625 161.179688 C 16.964844 160 17.214844 158.4375 18.484375 157.914062 L 18.539062 157.890625 L 18.585938 157.878906 L 18.644531 157.859375 L 18.8125 157.8125 L 18.914062 157.789062 L 19.039062 157.789062 L 19.0625 157.777344 Z M 19.449219 157.777344 Z M 19.097656 158.46875 C 18.144531 158.582031 17.859375 159.730469 17.792969 160.5 L 17.792969 160.804688 L 17.769531 160.828125 L 17.769531 162.40625 C 17.835938 163.222656 17.894531 164.277344 18.644531 164.820312 C 19.335938 165.296875 20.253906 164.761719 20.445312 164.027344 C 20.648438 163.480469 20.695312 162.949219 20.742188 162.40625 L 20.742188 160.828125 C 20.671875 160 20.558594 158.84375 19.605469 158.515625 L 19.527344 158.492188 L 19.503906 158.46875 L 19.402344 158.46875 L 19.378906 158.449219 L 19.117188 158.449219 Z M 19.097656 158.46875 Z M 19.097656 158.46875 "/>
<path style=" stroke:none;fill-rule:nonzero;fill:rgb(0%,0%,0%);fill-opacity:1;" d="M 10.636719 119.242188 C 11.714844 119.320312 12.429688 120.308594 12.621094 121.304688 C 12.722656 121.757812 12.746094 122.191406 12.792969 122.644531 L 12.792969 123.800781 C 12.734375 124.980469 12.453125 126.53125 11.171875 127.007812 C 10.058594 127.449219 8.753906 126.757812 8.425781 125.625 C 8.175781 125.023438 8.15625 124.410156 8.097656 123.800781 L 8.097656 122.644531 C 8.15625 121.464844 8.402344 119.898438 9.675781 119.378906 L 9.730469 119.355469 L 9.777344 119.34375 L 9.832031 119.320312 L 10.003906 119.277344 L 10.105469 119.253906 L 10.230469 119.253906 L 10.253906 119.242188 Z M 10.636719 119.242188 Z M 10.285156 119.933594 C 9.332031 120.046875 9.050781 121.191406 8.980469 121.960938 L 8.980469 122.269531 L 8.960938 122.292969 L 8.960938 123.867188 C 9.027344 124.683594 9.085938 125.738281 9.832031 126.28125 C 10.523438 126.757812 11.441406 126.226562 11.636719 125.488281 C 11.839844 124.945312 11.886719 124.410156 11.929688 123.867188 L 11.929688 122.292969 C 11.863281 121.464844 11.75 120.308594 10.796875 119.980469 L 10.71875 119.957031 L 10.695312 119.933594 L 10.59375 119.933594 L 10.570312 119.910156 L 10.308594 119.910156 Z M 10.285156 119.933594 Z M 10.285156 119.933594 "/>
<path style=" stroke:none;fill-rule:nonzero;fill:rgb(0%,0%,0%);fill-opacity:1;" d="M 15.320312 125.976562 L 15.320312 126.882812 L 14.402344 126.882812 L 14.402344 125.976562 Z M 15.320312 125.976562 Z M 15.320312 125.976562 "/>
<path style=" stroke:none;fill-rule:nonzero;fill:rgb(0%,0%,0%);fill-opacity:1;" d="M 21.125 119.480469 L 21.125 120.183594 L 18.179688 120.183594 L 18.15625 120.195312 L 18.15625 122.519531 C 18.425781 122.335938 18.8125 122.097656 19.175781 122.085938 C 20.457031 121.953125 21.445312 123.210938 21.5 124.378906 C 21.679688 125.863281 20.285156 127.335938 18.789062 127.109375 C 18.042969 127.085938 17.316406 126.644531 16.886719 126.035156 C 17.011719 125.863281 17.113281 125.570312 17.257812 125.464844 C 17.792969 126.507812 19.515625 126.929688 20.207031 125.828125 C 20.648438 125 20.636719 123.945312 20.128906 123.152344 C 19.539062 122.394531 18.371094 122.859375 18.097656 123.664062 L 17.363281 123.664062 L 17.363281 119.480469 Z M 21.125 119.480469 Z M 21.125 119.480469 "/>
<path style=" stroke:none;fill-rule:nonzero;fill:rgb(0%,0%,0%);fill-opacity:1;" d="M 10.988281 80.703125 L 10.988281 87.699219 L 11 87.722656 L 12.394531 87.722656 L 12.394531 88.347656 L 8.710938 88.347656 L 8.710938 87.722656 L 10.105469 87.722656 L 10.128906 87.699219 L 10.128906 81.828125 C 9.652344 81.984375 9.152344 82.085938 8.652344 82.078125 L 8.652344 81.441406 C 9.402344 81.453125 10.21875 81.25 10.785156 80.703125 Z M 10.988281 80.703125 Z M 10.988281 80.703125 "/>
<path style=" stroke:none;fill-rule:nonzero;fill:rgb(0%,0%,0%);fill-opacity:1;" d="M 15.320312 87.441406 L 15.320312 88.347656 L 14.402344 88.347656 L 14.402344 87.441406 Z M 15.320312 87.441406 Z M 15.320312 87.441406 "/>
<path style=" stroke:none;fill-rule:nonzero;fill:rgb(0%,0%,0%);fill-opacity:1;" d="M 19.449219 80.703125 C 20.523438 80.785156 21.238281 81.769531 21.433594 82.769531 C 21.535156 83.222656 21.558594 83.652344 21.601562 84.105469 L 21.601562 85.261719 C 21.546875 86.441406 21.261719 87.996094 19.980469 88.472656 C 18.871094 88.914062 17.566406 88.222656 17.238281 87.089844 C 16.988281 86.488281 16.964844 85.875 16.90625 85.261719 L 16.90625 84.105469 C 16.964844 82.925781 17.214844 81.363281 18.484375 80.839844 L 18.539062 80.816406 L 18.585938 80.804688 L 18.644531 80.785156 L 18.8125 80.738281 L 18.914062 80.714844 L 19.039062 80.714844 L 19.0625 80.703125 Z M 19.449219 80.703125 Z M 19.097656 81.394531 C 18.144531 81.507812 17.859375 82.65625 17.792969 83.425781 L 17.792969 83.730469 L 17.769531 83.753906 L 17.769531 85.332031 C 17.835938 86.148438 17.894531 87.203125 18.644531 87.746094 C 19.335938 88.222656 20.253906 87.6875 20.445312 86.953125 C 20.648438 86.40625 20.695312 85.875 20.742188 85.332031 L 20.742188 83.753906 C 20.671875 82.925781 20.558594 81.769531 19.605469 81.441406 L 19.527344 81.417969 L 19.503906 81.394531 L 19.402344 81.394531 L 19.378906 81.375 L 19.117188 81.375 Z M 19.097656 81.394531 Z M 19.097656 81.394531 "/>
<path style=" stroke:none;fill-rule:nonzero;fill:rgb(0%,0%,0%);fill-opacity:1;" d="M 10.988281 42.167969 L 10.988281 49.164062 L 11 49.1875 L 12.394531 49.1875 L 12.394531 49.808594 L 8.710938 49.808594 L 8.710938 49.1875 L 10.105469 49.1875 L 10.128906 49.164062 L 10.128906 43.289062 C 9.652344 43.449219 9.152344 43.550781 8.652344 43.539062 L 8.652344 42.90625 C 9.402344 42.914062 10.21875 42.710938 10.785156 42.167969 Z M 10.988281 42.167969 Z M 10.988281 42.167969 "/>
<path style=" stroke:none;fill-rule:nonzero;fill:rgb(0%,0%,0%);fill-opacity:1;" d="M 15.320312 48.902344 L 15.320312 49.808594 L 14.402344 49.808594 L 14.402344 48.902344 Z M 15.320312 48.902344 Z M 15.320312 48.902344 "/>
<path style=" stroke:none;fill-rule:nonzero;fill:rgb(0%,0%,0%);fill-opacity:1;" d="M 21.125 42.40625 L 21.125 43.109375 L 18.179688 43.109375 L 18.15625 43.121094 L 18.15625 45.445312 C 18.425781 45.261719 18.8125 45.023438 19.175781 45.011719 C 20.457031 44.878906 21.445312 46.136719 21.5 47.304688 C 21.679688 48.789062 20.285156 50.261719 18.789062 50.035156 C 18.042969 50.015625 17.316406 49.570312 16.886719 48.960938 C 17.011719 48.789062 17.113281 48.496094 17.257812 48.390625 C 17.792969 49.4375 19.515625 49.855469 20.207031 48.753906 C 20.648438 47.925781 20.636719 46.875 20.128906 46.078125 C 19.539062 45.320312 18.371094 45.785156 18.097656 46.589844 L 17.363281 46.589844 L 17.363281 42.40625 Z M 21.125 42.40625 Z M 21.125 42.40625 "/>
<path style=" stroke:none;fill-rule:nonzero;fill:rgb(0%,0%,0%);fill-opacity:1;" d="M 10.511719 3.628906 C 11.828125 3.664062 12.871094 5.015625 12.667969 6.285156 C 12.53125 7.554688 11.339844 8.28125 10.492188 9.074219 L 10.128906 9.445312 L 10.082031 9.46875 L 9.628906 9.914062 L 9.59375 9.933594 L 9.140625 10.386719 L 9.097656 10.410156 L 8.992188 10.511719 L 9.015625 10.523438 L 12.691406 10.523438 L 12.691406 11.273438 L 8.199219 11.273438 L 8.199219 10.59375 L 10.027344 8.765625 C 10.898438 8.007812 11.917969 7.019531 11.761719 5.773438 C 11.667969 5.046875 11.058594 4.378906 10.308594 4.320312 C 9.550781 4.207031 8.878906 4.808594 8.710938 5.535156 L 8.6875 5.570312 L 8.664062 5.648438 L 8.632812 5.773438 L 8.5625 6.023438 L 8.550781 6.078125 C 8.394531 5.886719 8.222656 5.683594 8.097656 5.46875 C 8.324219 4.539062 9.074219 3.664062 10.058594 3.628906 Z M 10.511719 3.628906 Z M 10.511719 3.628906 "/>
<path style=" stroke:none;fill-rule:nonzero;fill:rgb(0%,0%,0%);fill-opacity:1;" d="M 15.320312 10.367188 L 15.320312 11.273438 L 14.402344 11.273438 L 14.402344 10.367188 Z M 15.320312 10.367188 Z M 15.320312 10.367188 "/>
<path style=" stroke:none;fill-rule:nonzero;fill:rgb(0%,0%,0%);fill-opacity:1;" d="M 19.449219 3.628906 C 20.523438 3.710938 21.238281 4.695312 21.433594 5.695312 C 21.535156 6.148438 21.558594 6.578125 21.601562 7.03125 L 21.601562 8.1875 C 21.546875 9.367188 21.261719 10.921875 19.980469 11.398438 C 18.871094 11.839844 17.566406 11.148438 17.238281 10.015625 C 16.988281 9.414062 16.964844 8.800781 16.90625 8.1875 L 16.90625 7.03125 C 16.964844 5.851562 17.214844 4.289062 18.484375 3.765625 L 18.539062 3.742188 L 18.585938 3.734375 L 18.644531 3.710938 L 18.8125 3.664062 L 18.914062 3.640625 L 19.039062 3.640625 L 19.0625 3.628906 Z M 19.449219 3.628906 Z M 19.097656 4.320312 C 18.144531 4.4375 17.859375 5.582031 17.792969 6.351562 L 17.792969 6.65625 L 17.769531 6.679688 L 17.769531 8.257812 C 17.835938 9.074219 17.894531 10.128906 18.644531 10.671875 C 19.335938 11.148438 20.253906 10.613281 20.445312 9.878906 C 20.648438 9.332031 20.695312 8.800781 20.742188 8.257812 L 20.742188 6.679688 C 20.671875 5.851562 20.558594 4.695312 19.605469 4.367188 L 19.527344 4.34375 L 19.503906 4.320312 L 19.402344 4.320312 L 19.378906 4.300781 L 19.117188 4.300781 Z M 19.097656 4.320312 Z M 19.097656 4.320312 "/>
<path style="fill:none;stroke-width:0.02;stroke-linecap:butt;stroke-linejoin:miter;stroke:rgb(0%,0%,0%);stroke-opacity:1;stroke-miterlimit:10;" d="M 11.800003 1.971454 L 11.649935 1.971454 " transform="matrix(28.346457,0,0,-28.346457,1,256.11811)"/>
<path style="fill:none;stroke-width:0.02;stroke-linecap:butt;stroke-linejoin:miter;stroke:rgb(0%,0%,0%);stroke-opacity:1;stroke-miterlimit:10;" d="M 11.800003 3.331026 L 11.649935 3.331026 " transform="matrix(28.346457,0,0,-28.346457,1,256.11811)"/>
<path style="fill:none;stroke-width:0.02;stroke-linecap:butt;stroke-linejoin:miter;stroke:rgb(0%,0%,0%);stroke-opacity:1;stroke-miterlimit:10;" d="M 11.800003 4.690461 L 11.649935 4.690461 " transform="matrix(28.346457,0,0,-28.346457,1,256.11811)"/>
<path style="fill:none;stroke-width:0.02;stroke-linecap:butt;stroke-linejoin:miter;stroke:rgb(0%,0%,0%);stroke-opacity:1;stroke-miterlimit:10;" d="M 11.800003 6.050034 L 11.649935 6.050034 " transform="matrix(28.346457,0,0,-28.346457,1,256.11811)"/>
<path style="fill:none;stroke-width:0.02;stroke-linecap:butt;stroke-linejoin:miter;stroke:rgb(0%,0%,0%);stroke-opacity:1;stroke-miterlimit:10;" d="M 11.800003 7.409468 L 11.649935 7.409468 " transform="matrix(28.346457,0,0,-28.346457,1,256.11811)"/>
<path style="fill:none;stroke-width:0.02;stroke-linecap:round;stroke-linejoin:miter;stroke:rgb(0%,0%,0%);stroke-opacity:1;stroke-miterlimit:10;" d="M 11.800003 0.612019 L 11.800003 8.769041 " transform="matrix(28.346457,0,0,-28.346457,1,256.11811)"/>
<path style="fill:none;stroke-width:0.02;stroke-linecap:butt;stroke-linejoin:miter;stroke:rgb(0%,0%,0%);stroke-opacity:1;stroke-miterlimit:10;" d="M 2.794937 0.612019 L 2.794937 0.76195 " transform="matrix(28.346457,0,0,-28.346457,1,256.11811)"/>
<path style="fill:none;stroke-width:0.02;stroke-linecap:butt;stroke-linejoin:miter;stroke:rgb(0%,0%,0%);stroke-opacity:1;stroke-miterlimit:10;" d="M 4.596033 0.612019 L 4.596033 0.76195 " transform="matrix(28.346457,0,0,-28.346457,1,256.11811)"/>
<path style="fill:none;stroke-width:0.02;stroke-linecap:butt;stroke-linejoin:miter;stroke:rgb(0%,0%,0%);stroke-opacity:1;stroke-miterlimit:10;" d="M 6.396991 0.612019 L 6.396991 0.76195 " transform="matrix(28.346457,0,0,-28.346457,1,256.11811)"/>
<path style="fill:none;stroke-width:0.02;stroke-linecap:butt;stroke-linejoin:miter;stroke:rgb(0%,0%,0%);stroke-opacity:1;stroke-miterlimit:10;" d="M 8.197949 0.612019 L 8.197949 0.76195 " transform="matrix(28.346457,0,0,-28.346457,1,256.11811)"/>
<path style="fill:none;stroke-width:0.02;stroke-linecap:butt;stroke-linejoin:miter;stroke:rgb(0%,0%,0%);stroke-opacity:1;stroke-miterlimit:10;" d="M 9.999045 0.612019 L 9.999045 0.76195 " transform="matrix(28.346457,0,0,-28.346457,1,256.11811)"/>
<path style="fill:none;stroke-width:0.02;stroke-linecap:round;stroke-linejoin:miter;stroke:rgb(0%,0%,0%);stroke-opacity:1;stroke-miterlimit:10;" d="M 0.993979 0.612019 L 11.800003 0.612019 " transform="matrix(28.346457,0,0,-28.346457,1,256.11811)"/>
<path style=" stroke:none;fill-rule:nonzero;fill:rgb(0%,0%,0%);fill-opacity:1;" d="M 27.5625 250.484375 L 27.5625 251.117188 L 24.589844 251.117188 L 24.589844 250.484375 Z M 27.5625 250.484375 Z M 27.5625 250.484375 "/>
<path style=" stroke:none;fill-rule:nonzero;fill:rgb(0%,0%,0%);fill-opacity:1;" d="M 31.28125 245.652344 C 32.277344 245.699219 33.320312 246.617188 33.082031 247.671875 C 32.96875 248.386719 32.46875 248.976562 31.847656 249.292969 C 32.855469 249.609375 33.636719 250.675781 33.367188 251.730469 C 33.09375 253.101562 31.519531 253.863281 30.246094 253.441406 C 29.636719 253.261719 29.011719 252.875 28.71875 252.308594 C 28.785156 252.136719 28.761719 251.84375 28.84375 251.730469 C 29.441406 252.613281 30.710938 253.214844 31.710938 252.714844 C 32.800781 252.023438 32.628906 250.007812 31.3125 249.667969 L 31.210938 249.667969 L 31.1875 249.644531 L 30.132812 249.644531 L 30.132812 248.964844 C 30.78125 248.953125 31.585938 248.871094 31.949219 248.203125 C 32.335938 247.625 32.300781 246.671875 31.5625 246.390625 C 30.691406 246.050781 29.613281 246.605469 29.285156 247.488281 C 29.148438 247.296875 29.011719 247.105469 28.875 246.898438 C 29.339844 246.0625 30.328125 245.5625 31.28125 245.652344 Z M 31.28125 245.652344 Z M 31.28125 245.652344 "/>
<path style=" stroke:none;fill-rule:nonzero;fill:rgb(0%,0%,0%);fill-opacity:1;" d="M 78.613281 250.484375 L 78.613281 251.117188 L 75.640625 251.117188 L 75.640625 250.484375 Z M 78.613281 250.484375 Z M 78.613281 250.484375 "/>
<path style=" stroke:none;fill-rule:nonzero;fill:rgb(0%,0%,0%);fill-opacity:1;" d="M 82.183594 245.652344 C 83.5 245.6875 84.542969 247.035156 84.339844 248.304688 C 84.203125 249.574219 83.011719 250.300781 82.160156 251.09375 L 81.796875 251.46875 L 81.753906 251.492188 L 81.300781 251.933594 L 81.265625 251.957031 L 80.8125 252.410156 L 80.765625 252.433594 L 80.664062 252.535156 L 80.6875 252.546875 L 84.359375 252.546875 L 84.359375 253.292969 L 79.871094 253.292969 L 79.871094 252.613281 L 81.695312 250.789062 C 82.570312 250.027344 83.589844 249.042969 83.429688 247.796875 C 83.339844 247.070312 82.726562 246.402344 81.980469 246.34375 C 81.21875 246.230469 80.550781 246.832031 80.382812 247.558594 L 80.359375 247.589844 L 80.335938 247.671875 L 80.300781 247.796875 L 80.234375 248.046875 L 80.222656 248.101562 C 80.0625 247.910156 79.894531 247.703125 79.769531 247.488281 C 79.996094 246.558594 80.746094 245.6875 81.730469 245.652344 Z M 82.183594 245.652344 Z M 82.183594 245.652344 "/>
<path style=" stroke:none;fill-rule:nonzero;fill:rgb(0%,0%,0%);fill-opacity:1;" d="M 129.664062 250.484375 L 129.664062 251.117188 L 126.695312 251.117188 L 126.695312 250.484375 Z M 129.664062 250.484375 Z M 129.664062 250.484375 "/>
<path style=" stroke:none;fill-rule:nonzero;fill:rgb(0%,0%,0%);fill-opacity:1;" d="M 133.710938 245.652344 L 133.710938 252.648438 L 133.722656 252.671875 L 135.117188 252.671875 L 135.117188 253.292969 L 131.433594 253.292969 L 131.433594 252.671875 L 132.828125 252.671875 L 132.851562 252.648438 L 132.851562 246.773438 C 132.375 246.933594 131.875 247.035156 131.375 247.023438 L 131.375 246.390625 C 132.125 246.402344 132.941406 246.195312 133.507812 245.652344 Z M 133.710938 245.652344 Z M 133.710938 245.652344 "/>
<path style=" stroke:none;fill-rule:nonzero;fill:rgb(0%,0%,0%);fill-opacity:1;" d="M 182.523438 245.652344 C 183.601562 245.730469 184.316406 246.71875 184.507812 247.714844 C 184.613281 248.167969 184.632812 248.601562 184.679688 249.054688 L 184.679688 250.210938 C 184.621094 251.390625 184.339844 252.941406 183.058594 253.417969 C 181.945312 253.863281 180.644531 253.171875 180.3125 252.035156 C 180.066406 251.433594 180.042969 250.824219 179.984375 250.210938 L 179.984375 249.054688 C 180.042969 247.875 180.292969 246.308594 181.5625 245.789062 L 181.617188 245.765625 L 181.664062 245.753906 L 181.71875 245.730469 L 181.890625 245.6875 L 181.992188 245.664062 L 182.117188 245.664062 L 182.140625 245.652344 Z M 182.523438 245.652344 Z M 182.171875 246.34375 C 181.222656 246.457031 180.9375 247.601562 180.871094 248.375 L 180.871094 248.679688 L 180.847656 248.703125 L 180.847656 250.277344 C 180.914062 251.09375 180.972656 252.148438 181.71875 252.695312 C 182.410156 253.171875 183.332031 252.636719 183.523438 251.898438 C 183.726562 251.355469 183.773438 250.824219 183.816406 250.277344 L 183.816406 248.703125 C 183.75 247.875 183.636719 246.71875 182.683594 246.390625 L 182.605469 246.367188 L 182.582031 246.34375 L 182.480469 246.34375 L 182.457031 246.320312 L 182.195312 246.320312 Z M 182.171875 246.34375 Z M 182.171875 246.34375 "/>
<path style=" stroke:none;fill-rule:nonzero;fill:rgb(0%,0%,0%);fill-opacity:1;" d="M 233.929688 245.652344 L 233.929688 252.648438 L 233.941406 252.671875 L 235.335938 252.671875 L 235.335938 253.292969 L 231.648438 253.292969 L 231.648438 252.671875 L 233.042969 252.671875 L 233.066406 252.648438 L 233.066406 246.773438 C 232.589844 246.933594 232.089844 247.035156 231.59375 247.023438 L 231.59375 246.390625 C 232.339844 246.402344 233.15625 246.195312 233.722656 245.652344 Z M 233.929688 245.652344 Z M 233.929688 245.652344 "/>
<path style=" stroke:none;fill-rule:nonzero;fill:rgb(0%,0%,0%);fill-opacity:1;" d="M 284.503906 245.652344 C 285.820312 245.6875 286.863281 247.035156 286.660156 248.304688 C 286.523438 249.574219 285.332031 250.300781 284.480469 251.09375 L 284.117188 251.46875 L 284.074219 251.492188 L 283.621094 251.933594 L 283.585938 251.957031 L 283.132812 252.410156 L 283.085938 252.433594 L 282.984375 252.535156 L 283.007812 252.546875 L 286.679688 252.546875 L 286.679688 253.292969 L 282.191406 253.292969 L 282.191406 252.613281 L 284.015625 250.789062 C 284.890625 250.027344 285.910156 249.042969 285.75 247.796875 C 285.660156 247.070312 285.046875 246.402344 284.300781 246.34375 C 283.539062 246.230469 282.871094 246.832031 282.703125 247.558594 L 282.679688 247.589844 L 282.65625 247.671875 L 282.621094 247.796875 L 282.554688 248.046875 L 282.542969 248.101562 C 282.382812 247.910156 282.214844 247.703125 282.089844 247.488281 C 282.316406 246.558594 283.0625 245.6875 284.050781 245.652344 Z M 284.503906 245.652344 Z M 284.503906 245.652344 "/>
<path style=" stroke:none;fill-rule:nonzero;fill:rgb(0%,0%,0%);fill-opacity:1;" d="M 335.703125 245.652344 C 336.703125 245.699219 337.746094 246.617188 337.507812 247.671875 C 337.394531 248.386719 336.894531 248.976562 336.269531 249.292969 C 337.28125 249.609375 338.0625 250.675781 337.789062 251.730469 C 337.519531 253.101562 335.941406 253.863281 334.671875 253.441406 C 334.058594 253.261719 333.4375 252.875 333.140625 252.308594 C 333.210938 252.136719 333.1875 251.84375 333.265625 251.730469 C 333.867188 252.613281 335.136719 253.214844 336.132812 252.714844 C 337.222656 252.023438 337.054688 250.007812 335.738281 249.667969 L 335.636719 249.667969 L 335.613281 249.644531 L 334.558594 249.644531 L 334.558594 248.964844 C 335.203125 248.953125 336.007812 248.871094 336.371094 248.203125 C 336.757812 247.625 336.722656 246.671875 335.988281 246.390625 C 335.113281 246.050781 334.035156 246.605469 333.707031 247.488281 C 333.570312 247.296875 333.4375 247.105469 333.300781 246.898438 C 333.765625 246.0625 334.75 245.5625 335.703125 245.652344 Z M 335.703125 245.652344 Z M 335.703125 245.652344 "/>
<path style="fill:none;stroke-width:0.02;stroke-linecap:butt;stroke-linejoin:miter;stroke:rgb(0%,0%,0%);stroke-opacity:1;stroke-miterlimit:10;" d="M 2.794937 8.769041 L 2.794937 8.618972 " transform="matrix(28.346457,0,0,-28.346457,1,256.11811)"/>
<path style="fill:none;stroke-width:0.02;stroke-linecap:butt;stroke-linejoin:miter;stroke:rgb(0%,0%,0%);stroke-opacity:1;stroke-miterlimit:10;" d="M 4.596033 8.769041 L 4.596033 8.618972 " transform="matrix(28.346457,0,0,-28.346457,1,256.11811)"/>
<path style="fill:none;stroke-width:0.02;stroke-linecap:butt;stroke-linejoin:miter;stroke:rgb(0%,0%,0%);stroke-opacity:1;stroke-miterlimit:10;" d="M 6.396991 8.769041 L 6.396991 8.618972 " transform="matrix(28.346457,0,0,-28.346457,1,256.11811)"/>
<path style="fill:none;stroke-width:0.02;stroke-linecap:butt;stroke-linejoin:miter;stroke:rgb(0%,0%,0%);stroke-opacity:1;stroke-miterlimit:10;" d="M 8.197949 8.769041 L 8.197949 8.618972 " transform="matrix(28.346457,0,0,-28.346457,1,256.11811)"/>
<path style="fill:none;stroke-width:0.02;stroke-linecap:butt;stroke-linejoin:miter;stroke:rgb(0%,0%,0%);stroke-opacity:1;stroke-miterlimit:10;" d="M 9.999045 8.769041 L 9.999045 8.618972 " transform="matrix(28.346457,0,0,-28.346457,1,256.11811)"/>
<path style="fill:none;stroke-width:0.02;stroke-linecap:round;stroke-linejoin:miter;stroke:rgb(0%,0%,0%);stroke-opacity:1;stroke-miterlimit:10;" d="M 0.993979 8.769041 L 11.800003 8.769041 " transform="matrix(28.346457,0,0,-28.346457,1,256.11811)"/>
<path style="fill:none;stroke-width:0.05;stroke-linecap:butt;stroke-linejoin:miter;stroke:rgb(33%,47%,64%);stroke-opacity:1;stroke-miterlimit:10;" d="M 0.993979 2.947243 L 1.030359 2.887023 L 1.066739 2.827629 L 1.10312 2.7692 L 1.1395 2.711461 L 1.17588 2.654685 L 1.21226 2.598737 L 1.24864 2.543615 L 1.285021 2.489321 L 1.321401 2.435853 L 1.357781 2.383212 L 1.394161 2.33126 L 1.430541 2.280135 L 1.466922 2.229698 L 1.50344 2.180089 L 1.53982 2.131169 L 1.5762 2.083075 L 1.61258 2.035533 L 1.648961 1.988817 L 1.685341 1.942791 L 1.721721 1.897453 L 1.758101 1.852805 L 1.794481 1.808708 L 1.830862 1.765299 L 1.867242 1.72258 L 1.903622 1.68055 L 1.940002 1.639071 L 1.976382 1.598143 L 2.012763 1.557905 L 2.049143 1.518079 L 2.085523 1.478943 L 2.121903 1.440496 L 2.158283 1.402462 L 2.194664 1.364979 L 2.231044 1.328186 L 2.267424 1.292081 L 2.303804 1.256941 L 2.340184 1.222628 L 2.376565 1.189142 L 2.412945 1.156482 L 2.449325 1.12465 L 2.485705 1.093781 L 2.522086 1.063602 L 2.558466 1.034526 L 2.594846 1.006138 L 2.631226 0.978853 L 2.667606 0.952257 L 2.703987 0.926763 L 2.740367 0.902096 L 2.776747 0.878256 L 2.813127 0.855519 L 2.849507 0.833608 L 2.886025 0.812799 L 2.922406 0.792818 L 2.958786 0.773801 L 2.995166 0.755887 L 3.031546 0.738799 L 3.067926 0.722814 L 3.104307 0.707793 L 3.140687 0.693737 L 3.177067 0.680783 L 3.213447 0.668794 L 3.249827 0.65777 L 3.286208 0.647848 L 3.322588 0.639029 L 3.358968 0.631174 L 3.395348 0.624422 L 3.431729 0.618772 L 3.468109 0.613949 L 3.486988 0.612019 " transform="matrix(28.346457,0,0,-28.346457,1,256.11811)"/>
<path style="fill:none;stroke-width:0.05;stroke-linecap:butt;stroke-linejoin:miter;stroke:rgb(33%,47%,64%);stroke-opacity:1;stroke-miterlimit:10;" d="M 3.75543 0.612019 L 3.75915 0.612433 L 3.795531 0.61698 L 3.831911 0.622906 L 3.868291 0.629796 L 3.904671 0.637926 L 3.941051 0.647297 L 3.977432 0.657908 L 4.013812 0.669759 L 4.050192 0.68285 L 4.086572 0.697182 L 4.122952 0.712892 L 4.159333 0.729842 L 4.195713 0.748169 L 4.232093 0.767738 L 4.268611 0.788822 L 4.304991 0.811284 L 4.341372 0.835124 L 4.377752 0.860342 L 4.414132 0.887076 L 4.450512 0.915188 L 4.486892 0.944953 L 4.523273 0.976097 L 4.559653 1.008757 L 4.596033 1.04307 L 4.632413 1.07821 L 4.668793 1.113901 L 4.705174 1.149868 L 4.741554 1.186248 L 4.777934 1.223179 L 4.814314 1.260386 L 4.850694 1.298007 L 4.887075 1.336041 L 4.923455 1.374626 L 4.959835 1.413486 L 4.996215 1.452898 L 5.032595 1.492724 L 5.068976 1.532962 L 5.105356 1.573752 L 5.141736 1.614956 L 5.178116 1.656572 L 5.214497 1.69874 L 5.250877 1.741322 L 5.287257 1.784454 L 5.323637 1.828 L 5.360017 1.872097 L 5.396398 1.916608 L 5.432778 1.96167 L 5.469158 2.007283 L 5.505538 2.053447 L 5.541918 2.100025 L 5.578299 2.147154 L 5.614679 2.194834 L 5.651197 2.243065 L 5.687577 2.291848 L 5.723957 2.341044 L 5.760337 2.390929 L 5.796718 2.441365 L 5.833098 2.492352 L 5.869478 2.543891 L 5.905858 2.595843 L 5.942238 2.648484 L 5.978619 2.701401 L 6.014999 2.754731 L 6.051379 2.808474 L 6.087759 2.862631 L 6.12414 2.917064 L 6.16052 2.971634 L 6.23328 3.081602 L 6.26966 3.136861 L 6.342421 3.247655 L 6.487942 3.469795 L 6.560702 3.580314 L 6.597082 3.635435 L 6.633462 3.690281 L 6.669843 3.744989 L 6.706223 3.799422 L 6.742603 3.853441 L 6.778983 3.907184 L 6.815363 3.960652 L 6.851744 4.013569 L 6.888124 4.066072 L 6.924504 4.118162 L 6.960884 4.169701 L 6.997265 4.220688 L 7.033783 4.270986 L 7.070163 4.320871 L 7.106543 4.370205 L 7.142923 4.418988 L 7.179303 4.467219 L 7.215684 4.514761 L 7.252064 4.562028 L 7.288444 4.608606 L 7.324824 4.654632 L 7.361204 4.700245 L 7.397585 4.745307 L 7.433965 4.789956 L 7.470345 4.833915 L 7.506725 4.877599 L 7.543105 4.920594 L 7.579486 4.963313 L 7.615866 5.005343 L 7.652246 5.047097 L 7.688626 5.088301 L 7.725007 5.128953 L 7.761387 5.169192 L 7.797767 5.209017 L 7.834147 5.248429 L 7.870527 5.287427 L 7.906908 5.325875 L 7.943288 5.364046 L 7.979668 5.401667 L 8.016048 5.438874 L 8.052428 5.475667 L 8.088809 5.512048 L 8.125189 5.548152 L 8.161569 5.583706 L 8.197949 5.618983 L 8.234329 5.653159 L 8.27071 5.685956 L 8.30709 5.7171 L 8.34347 5.746727 L 8.379988 5.774977 L 8.416368 5.801711 L 8.452748 5.826929 L 8.489129 5.850769 L 8.525509 5.873231 L 8.561889 5.894178 L 8.598269 5.913883 L 8.63465 5.932211 L 8.67103 5.949161 L 8.70741 5.964871 L 8.74379 5.979202 L 8.78017 5.992294 L 8.816551 6.004145 L 8.852931 6.014618 L 8.889311 6.023989 L 8.925691 6.032119 L 8.962071 6.039147 L 8.998452 6.044935 L 9.034832 6.04962 L 9.071212 6.053203 L 9.107592 6.055546 L 9.143972 6.056924 L 9.180353 6.057199 L 9.216733 6.05651 L 9.253113 6.054719 L 9.289493 6.051825 L 9.325873 6.047967 L 9.362254 6.043281 L 9.398634 6.037493 L 9.435014 6.030741 L 9.471394 6.023024 L 9.507775 6.014067 L 9.544155 6.004145 L 9.580535 5.993258 L 9.616915 5.98127 L 9.653295 5.968316 L 9.689676 5.95426 L 9.726056 5.939239 L 9.762574 5.923254 L 9.798954 5.906166 L 9.835334 5.888114 L 9.871714 5.869235 L 9.908095 5.849253 L 9.944475 5.828307 L 9.980855 5.806534 L 10.017235 5.783659 L 10.053615 5.759957 L 10.089996 5.73529 L 10.126376 5.709658 L 10.162756 5.6832 L 10.199136 5.655777 L 10.235516 5.627527 L 10.271897 5.598313 L 10.308277 5.568271 L 10.344657 5.537403 L 10.381037 5.505571 L 10.417418 5.472911 L 10.453798 5.439425 L 10.490178 5.405112 L 10.526558 5.369834 L 10.562938 5.333867 L 10.599319 5.297074 L 10.635699 5.259591 L 10.672079 5.221557 L 10.708459 5.182972 L 10.744839 5.143836 L 10.78122 5.104148 L 10.8176 5.06391 L 10.85398 5.022982 L 10.89036 4.981503 L 10.92674 4.939335 L 10.963121 4.896616 L 10.999501 4.853345 L 11.035881 4.809248 L 11.072261 4.7646 L 11.108641 4.719262 L 11.14516 4.673098 L 11.18154 4.626382 L 11.21792 4.578978 L 11.2543 4.530747 L 11.29068 4.481964 L 11.327061 4.432355 L 11.363441 4.381918 L 11.399821 4.330793 L 11.436201 4.278841 L 11.472581 4.2262 L 11.508962 4.172594 L 11.545342 4.1183 L 11.581722 4.063178 L 11.618102 4.00723 L 11.654482 3.950455 L 11.690863 3.892853 L 11.727243 3.834286 L 11.763623 3.77503 L 11.800003 3.714672 " transform="matrix(28.346457,0,0,-28.346457,1,256.11811)"/>
<path style="fill:none;stroke-width:0.05;stroke-linecap:butt;stroke-linejoin:miter;stroke:rgb(90%,57%,26%);stroke-opacity:1;stroke-miterlimit:10;" d="M 0.993979 5.66625 L 2.194664 4.083987 L 3.395348 3.343429 L 4.596033 3.762077 L 5.796718 5.160372 L 6.997265 6.939695 L 8.197949 8.33799 L 9.398634 8.756501 L 10.599319 8.016081 L 11.800003 6.433679 " transform="matrix(28.346457,0,0,-28.346457,1,256.11811)"/>
</g>
</svg>
